<?xml version='1.0' encoding='utf-8'?>
<mlt LC_NUMERIC="C" producer="main_bin" version="7.20.0" root="/home/fedora/Jupyter/defining-cuts/timelines">
 <profile frame_rate_num="25" sample_aspect_num="1" display_aspect_den="9" colorspace="709" progressive="1" description="HD 1080p 25 fps" display_aspect_num="16" frame_rate_den="1" width="1920" height="1080" sample_aspect_den="1"/>
 <chain id="chain2" out="00:03:54.960">
  <property name="length">5875</property>
  <property name="eof">pause</property>
  <property name="resource">/home/fedora/Jupyter/defining-cuts/videos/0.mp4</property>
  <property name="mlt_service">avformat-novalidate</property>
  <property name="meta.media.nb_streams">2</property>
  <property name="meta.media.0.stream.type">video</property>
  <property name="meta.media.0.stream.frame_rate">25</property>
  <property name="meta.media.0.stream.sample_aspect_ratio">0</property>
  <property name="meta.media.0.codec.width">640</property>
  <property name="meta.media.0.codec.height">360</property>
  <property name="meta.media.0.codec.rotate">0</property>
  <property name="meta.media.0.codec.pix_fmt">yuv420p</property>
  <property name="meta.media.0.codec.sample_aspect_ratio">1</property>
  <property name="meta.media.0.codec.colorspace">709</property>
  <property name="meta.media.0.codec.color_trc">1</property>
  <property name="meta.media.0.codec.name">h264</property>
  <property name="meta.media.0.codec.long_name">H.264 / AVC / MPEG-4 AVC / MPEG-4 part 10</property>
  <property name="meta.media.0.codec.bit_rate">183876</property>
  <property name="meta.attr.0.stream.creation_time.markup">2023-11-06T00:35:41.000000Z</property>
  <property name="meta.attr.0.stream.handler_name.markup">ISO Media file produced by Google Inc. Created on: 11/05/2023.</property>
  <property name="meta.attr.0.stream.vendor_id.markup">[0][0][0][0]</property>
  <property name="meta.media.1.stream.type">audio</property>
  <property name="meta.media.1.codec.sample_fmt">fltp</property>
  <property name="meta.media.1.codec.sample_rate">44100</property>
  <property name="meta.media.1.codec.channels">2</property>
  <property name="meta.media.1.codec.name">aac</property>
  <property name="meta.media.1.codec.long_name">AAC (Advanced Audio Coding)</property>
  <property name="meta.media.1.codec.bit_rate">127999</property>
  <property name="meta.attr.1.stream.creation_time.markup">2023-11-06T00:35:41.000000Z</property>
  <property name="meta.attr.1.stream.handler_name.markup">ISO Media file produced by Google Inc. Created on: 11/05/2023.</property>
  <property name="meta.attr.1.stream.vendor_id.markup">[0][0][0][0]</property>
  <property name="meta.attr.major_brand.markup">mp42</property>
  <property name="meta.attr.minor_version.markup">0</property>
  <property name="meta.attr.compatible_brands.markup">isommp42</property>
  <property name="meta.attr.creation_time.markup">2023-11-06T00:35:41.000000Z</property>
  <property name="seekable">1</property>
  <property name="meta.media.sample_aspect_num">1</property>
  <property name="meta.media.sample_aspect_den">1</property>
  <property name="format">3</property>
  <property name="audio_index">1</property>
  <property name="video_index">0</property>
  <property name="vstream">0</property>
  <property name="meta.media.frame_rate_num">25</property>
  <property name="meta.media.frame_rate_den">1</property>
  <property name="meta.media.colorspace">709</property>
  <property name="meta.media.color_trc">1</property>
  <property name="meta.media.has_b_frames">1</property>
  <property name="meta.media.width">640</property>
  <property name="meta.media.height">360</property>
  <property name="meta.media.color_range">mpeg</property>
  <property name="astream">0</property>
  <property name="kdenlive:clipname"/>
  <property name="meta.media.top_field_first">0</property>
  <property name="meta.media.progressive">1</property>
  <property name="kdenlive:clip_type">0</property>
  <property name="kdenlive:folderid">-1</property>
  <property name="kdenlive:id">4</property>
  <property name="mute_on_pause">0</property>
  <property name="kdenlive:file_size">9269296</property>
  <property name="kdenlive:file_hash">b035423c6be7f154c46fd38ec482caf1</property>
  <property name="kdenlive:audio_max1">232</property>
 </chain>
 <producer id="producer0" in="00:00:00.000" out="00:23:55.000">
  <property name="length">2147483647</property>
  <property name="eof">continue</property>
  <property name="resource">black</property>
  <property name="aspect_ratio">1</property>
  <property name="mlt_service">color</property>
  <property name="kdenlive:playlistid">black_track</property>
  <property name="mlt_image_format">rgba</property>
  <property name="set.test_audio">0</property>
 </producer>
 <playlist id="playlist0">
  <property name="kdenlive:audio_track">1</property>
 </playlist>
 <playlist id="playlist1">
  <property name="kdenlive:audio_track">1</property>
 </playlist>
 <tractor id="tractor0" in="00:00:00.000">
  <property name="kdenlive:audio_track">1</property>
  <property name="kdenlive:trackheight">67</property>
  <property name="kdenlive:timeline_active">1</property>
  <property name="kdenlive:collapsed">0</property>
  <property name="kdenlive:thumbs_format"/>
  <property name="kdenlive:audio_rec"/>
  <track hide="both" producer="playlist0"/>
  <track hide="both" producer="playlist1"/>
  <filter id="filter0">
   <property name="window">75</property>
   <property name="max_gain">20dB</property>
   <property name="mlt_service">volume</property>
   <property name="internal_added">237</property>
   <property name="disable">1</property>
  </filter>
  <filter id="filter1">
   <property name="channel">-1</property>
   <property name="mlt_service">panner</property>
   <property name="internal_added">237</property>
   <property name="start">0.5</property>
   <property name="disable">1</property>
  </filter>
  <filter id="filter2">
   <property name="iec_scale">0</property>
   <property name="mlt_service">audiolevel</property>
   <property name="dbpeak">1</property>
   <property name="disable">1</property>
  </filter>
 </tractor>
 <chain id="chain1" out="00:03:54.960">
  <property name="length">5875</property>
  <property name="eof">pause</property>
  <property name="resource">/home/fedora/Videos/Rammstein/Rammstein - Du Hast.mp4</property>
  <property name="mlt_service">avformat-novalidate</property>
  <property name="seekable">1</property>
  <property name="format">3</property>
  <property name="audio_index">1</property>
  <property name="video_index">0</property>
  <property name="vstream">0</property>
  <property name="astream">0</property>
  <property name="kdenlive:clipname"/>
  <property name="kdenlive:clip_type">0</property>
  <property name="kdenlive:folderid">-1</property>
  <property name="kdenlive:id">4</property>
  <property name="mute_on_pause">0</property>
  <property name="kdenlive:file_size">9269296</property>
  <property name="kdenlive:file_hash">b035423c6be7f154c46fd38ec482caf1</property>
  <property name="meta.media.nb_streams">2</property>
  <property name="meta.media.0.stream.type">video</property>
  <property name="meta.media.0.stream.frame_rate">25</property>
  <property name="meta.media.0.stream.sample_aspect_ratio">0</property>
  <property name="meta.media.0.codec.width">640</property>
  <property name="meta.media.0.codec.height">360</property>
  <property name="meta.media.0.codec.rotate">0</property>
  <property name="meta.media.0.codec.pix_fmt">yuv420p</property>
  <property name="meta.media.0.codec.sample_aspect_ratio">1</property>
  <property name="meta.media.0.codec.colorspace">709</property>
  <property name="meta.media.0.codec.color_trc">1</property>
  <property name="meta.media.0.codec.name">h264</property>
  <property name="meta.media.0.codec.long_name">H.264 / AVC / MPEG-4 AVC / MPEG-4 part 10</property>
  <property name="meta.media.0.codec.bit_rate">183876</property>
  <property name="meta.attr.0.stream.creation_time.markup">2023-11-06T00:35:41.000000Z</property>
  <property name="meta.attr.0.stream.handler_name.markup">ISO Media file produced by Google Inc. Created on: 11/05/2023.</property>
  <property name="meta.attr.0.stream.vendor_id.markup">[0][0][0][0]</property>
  <property name="meta.media.1.stream.type">audio</property>
  <property name="meta.media.1.codec.sample_fmt">fltp</property>
  <property name="meta.media.1.codec.sample_rate">44100</property>
  <property name="meta.media.1.codec.channels">2</property>
  <property name="meta.media.1.codec.name">aac</property>
  <property name="meta.media.1.codec.long_name">AAC (Advanced Audio Coding)</property>
  <property name="meta.media.1.codec.bit_rate">127999</property>
  <property name="meta.attr.1.stream.creation_time.markup">2023-11-06T00:35:41.000000Z</property>
  <property name="meta.attr.1.stream.handler_name.markup">ISO Media file produced by Google Inc. Created on: 11/05/2023.</property>
  <property name="meta.attr.1.stream.vendor_id.markup">[0][0][0][0]</property>
  <property name="meta.attr.major_brand.markup">mp42</property>
  <property name="meta.attr.minor_version.markup">0</property>
  <property name="meta.attr.compatible_brands.markup">isommp42</property>
  <property name="meta.attr.creation_time.markup">2023-11-06T00:35:41.000000Z</property>
  <property name="meta.media.sample_aspect_num">1</property>
  <property name="meta.media.sample_aspect_den">1</property>
  <property name="meta.media.frame_rate_num">25</property>
  <property name="meta.media.frame_rate_den">1</property>
  <property name="meta.media.colorspace">709</property>
  <property name="meta.media.color_trc">1</property>
  <property name="meta.media.has_b_frames">1</property>
  <property name="meta.media.width">640</property>
  <property name="meta.media.height">360</property>
  <property name="meta.media.color_range">mpeg</property>
  <property name="xml">was here</property>
  <property name="meta.media.top_field_first">0</property>
  <property name="meta.media.progressive">1</property>
  <property name="set.test_audio">0</property>
  <property name="set.test_image">1</property>
 </chain>
 <playlist id="playlist2">
  <property name="kdenlive:audio_track">1</property>
  <entry producer="chain1" in="00:00:00.000" out="00:00:04.240">
   <property name="kdenlive:id">4</property>
  </entry>
  <entry producer="chain1" in="00:00:04.280" out="00:00:08.200">
   <property name="kdenlive:id">4</property>
  </entry>
  <entry producer="chain1" in="00:00:08.240" out="00:00:08.800">
   <property name="kdenlive:id">4</property>
  </entry>
  <entry producer="chain1" in="00:00:08.840" out="00:00:09.000">
   <property name="kdenlive:id">4</property>
  </entry>
  <entry producer="chain1" in="00:00:09.040" out="00:00:09.440">
   <property name="kdenlive:id">4</property>
  </entry>
  <entry producer="chain1" in="00:00:09.480" out="00:00:09.720">
   <property name="kdenlive:id">4</property>
  </entry>
  <entry producer="chain1" in="00:00:09.760" out="00:00:09.920">
   <property name="kdenlive:id">4</property>
  </entry>
  <entry producer="chain1" in="00:00:09.960" out="00:00:10.080">
   <property name="kdenlive:id">4</property>
  </entry>
  <entry producer="chain1" in="00:00:10.120" out="00:00:10.200">
   <property name="kdenlive:id">4</property>
  </entry>
  <entry producer="chain1" in="00:00:10.240" out="00:00:10.560">
   <property name="kdenlive:id">4</property>
  </entry>
  <entry producer="chain1" in="00:00:10.600" out="00:00:10.880">
   <property name="kdenlive:id">4</property>
  </entry>
  <entry producer="chain1" in="00:00:10.920" out="00:00:11.760">
   <property name="kdenlive:id">4</property>
  </entry>
  <entry producer="chain1" in="00:00:11.800" out="00:00:12.960">
   <property name="kdenlive:id">4</property>
  </entry>
  <entry producer="chain1" in="00:00:13.000" out="00:00:13.120">
   <property name="kdenlive:id">4</property>
  </entry>
  <entry producer="chain1" in="00:00:13.160" out="00:00:13.280">
   <property name="kdenlive:id">4</property>
  </entry>
  <entry producer="chain1" in="00:00:13.320" out="00:00:13.480">
   <property name="kdenlive:id">4</property>
  </entry>
  <entry producer="chain1" in="00:00:13.520" out="00:00:13.600">
   <property name="kdenlive:id">4</property>
  </entry>
  <entry producer="chain1" in="00:00:13.640" out="00:00:14.560">
   <property name="kdenlive:id">4</property>
  </entry>
  <entry producer="chain1" in="00:00:14.600" out="00:00:15.080">
   <property name="kdenlive:id">4</property>
  </entry>
  <entry producer="chain1" in="00:00:15.120" out="00:00:15.320">
   <property name="kdenlive:id">4</property>
  </entry>
  <entry producer="chain1" in="00:00:15.360" out="00:00:15.720">
   <property name="kdenlive:id">4</property>
  </entry>
  <entry producer="chain1" in="00:00:15.760" out="00:00:16.120">
   <property name="kdenlive:id">4</property>
  </entry>
  <entry producer="chain1" in="00:00:16.160" out="00:00:16.720">
   <property name="kdenlive:id">4</property>
  </entry>
  <entry producer="chain1" in="00:00:16.760" out="00:00:16.880">
   <property name="kdenlive:id">4</property>
  </entry>
  <entry producer="chain1" in="00:00:16.920" out="00:00:17.240">
   <property name="kdenlive:id">4</property>
  </entry>
  <entry producer="chain1" in="00:00:17.280" out="00:00:19.960">
   <property name="kdenlive:id">4</property>
  </entry>
  <entry producer="chain1" in="00:00:20.000" out="00:00:23.160">
   <property name="kdenlive:id">4</property>
  </entry>
  <entry producer="chain1" in="00:00:23.200" out="00:00:25.560">
   <property name="kdenlive:id">4</property>
  </entry>
  <entry producer="chain1" in="00:00:25.600" out="00:00:26.560">
   <property name="kdenlive:id">4</property>
  </entry>
  <entry producer="chain1" in="00:00:26.600" out="00:00:27.400">
   <property name="kdenlive:id">4</property>
  </entry>
  <entry producer="chain1" in="00:00:27.440" out="00:00:28.400">
   <property name="kdenlive:id">4</property>
  </entry>
  <entry producer="chain1" in="00:00:28.440" out="00:00:28.920">
   <property name="kdenlive:id">4</property>
  </entry>
  <entry producer="chain1" in="00:00:28.960" out="00:00:30.440">
   <property name="kdenlive:id">4</property>
  </entry>
  <entry producer="chain1" in="00:00:30.480" out="00:00:30.960">
   <property name="kdenlive:id">4</property>
  </entry>
  <entry producer="chain1" in="00:00:31.000" out="00:00:31.600">
   <property name="kdenlive:id">4</property>
  </entry>
  <entry producer="chain1" in="00:00:31.640" out="00:00:32.200">
   <property name="kdenlive:id">4</property>
  </entry>
  <entry producer="chain1" in="00:00:32.240" out="00:00:32.720">
   <property name="kdenlive:id">4</property>
  </entry>
  <entry producer="chain1" in="00:00:32.760" out="00:00:33.600">
   <property name="kdenlive:id">4</property>
  </entry>
  <entry producer="chain1" in="00:00:33.640" out="00:00:36.280">
   <property name="kdenlive:id">4</property>
  </entry>
  <entry producer="chain1" in="00:00:36.320" out="00:00:38.280">
   <property name="kdenlive:id">4</property>
  </entry>
  <entry producer="chain1" in="00:00:38.320" out="00:00:43.280">
   <property name="kdenlive:id">4</property>
  </entry>
  <entry producer="chain1" in="00:00:43.320" out="00:00:46.000">
   <property name="kdenlive:id">4</property>
  </entry>
  <entry producer="chain1" in="00:00:46.040" out="00:00:47.400">
   <property name="kdenlive:id">4</property>
  </entry>
  <entry producer="chain1" in="00:00:47.440" out="00:00:49.280">
   <property name="kdenlive:id">4</property>
  </entry>
  <entry producer="chain1" in="00:00:49.320" out="00:00:49.960">
   <property name="kdenlive:id">4</property>
  </entry>
  <entry producer="chain1" in="00:00:50.000" out="00:00:51.920">
   <property name="kdenlive:id">4</property>
  </entry>
  <entry producer="chain1" in="00:00:51.960" out="00:00:53.680">
   <property name="kdenlive:id">4</property>
  </entry>
  <entry producer="chain1" in="00:00:53.720" out="00:00:54.960">
   <property name="kdenlive:id">4</property>
  </entry>
  <entry producer="chain1" in="00:00:55.000" out="00:00:55.520">
   <property name="kdenlive:id">4</property>
  </entry>
  <entry producer="chain1" in="00:00:55.560" out="00:00:56.080">
   <property name="kdenlive:id">4</property>
  </entry>
  <entry producer="chain1" in="00:00:56.120" out="00:00:56.720">
   <property name="kdenlive:id">4</property>
  </entry>
  <entry producer="chain1" in="00:00:56.760" out="00:00:57.560">
   <property name="kdenlive:id">4</property>
  </entry>
  <entry producer="chain1" in="00:00:57.600" out="00:00:59.280">
   <property name="kdenlive:id">4</property>
  </entry>
  <entry producer="chain1" in="00:00:59.320" out="00:01:01.280">
   <property name="kdenlive:id">4</property>
  </entry>
  <entry producer="chain1" in="00:01:01.320" out="00:01:02.840">
   <property name="kdenlive:id">4</property>
  </entry>
  <entry producer="chain1" in="00:01:02.880" out="00:01:03.800">
   <property name="kdenlive:id">4</property>
  </entry>
  <entry producer="chain1" in="00:01:03.840" out="00:01:05.320">
   <property name="kdenlive:id">4</property>
  </entry>
  <entry producer="chain1" in="00:01:05.360" out="00:01:06.240">
   <property name="kdenlive:id">4</property>
  </entry>
  <entry producer="chain1" in="00:01:06.280" out="00:01:09.960">
   <property name="kdenlive:id">4</property>
  </entry>
  <entry producer="chain1" in="00:01:10.000" out="00:01:16.680">
   <property name="kdenlive:id">4</property>
  </entry>
  <entry producer="chain1" in="00:01:16.720" out="00:01:20.160">
   <property name="kdenlive:id">4</property>
  </entry>
  <entry producer="chain1" in="00:01:20.200" out="00:01:23.960">
   <property name="kdenlive:id">4</property>
  </entry>
  <entry producer="chain1" in="00:01:24.000" out="00:01:27.560">
   <property name="kdenlive:id">4</property>
  </entry>
  <entry producer="chain1" in="00:01:27.600" out="00:01:29.920">
   <property name="kdenlive:id">4</property>
  </entry>
  <entry producer="chain1" in="00:01:29.960" out="00:01:32.080">
   <property name="kdenlive:id">4</property>
  </entry>
  <entry producer="chain1" in="00:01:32.120" out="00:01:33.120">
   <property name="kdenlive:id">4</property>
  </entry>
  <entry producer="chain1" in="00:01:33.160" out="00:01:34.080">
   <property name="kdenlive:id">4</property>
  </entry>
  <entry producer="chain1" in="00:01:34.120" out="00:01:35.360">
   <property name="kdenlive:id">4</property>
  </entry>
  <entry producer="chain1" in="00:01:35.400" out="00:01:36.240">
   <property name="kdenlive:id">4</property>
  </entry>
  <entry producer="chain1" in="00:01:36.280" out="00:01:37.720">
   <property name="kdenlive:id">4</property>
  </entry>
  <entry producer="chain1" in="00:01:37.760" out="00:01:39.400">
   <property name="kdenlive:id">4</property>
  </entry>
  <entry producer="chain1" in="00:01:39.440" out="00:01:40.800">
   <property name="kdenlive:id">4</property>
  </entry>
  <entry producer="chain1" in="00:01:40.840" out="00:01:42.560">
   <property name="kdenlive:id">4</property>
  </entry>
  <entry producer="chain1" in="00:01:42.600" out="00:01:43.440">
   <property name="kdenlive:id">4</property>
  </entry>
  <entry producer="chain1" in="00:01:43.480" out="00:01:44.800">
   <property name="kdenlive:id">4</property>
  </entry>
  <entry producer="chain1" in="00:01:44.840" out="00:01:47.720">
   <property name="kdenlive:id">4</property>
  </entry>
  <entry producer="chain1" in="00:01:47.760" out="00:01:49.040">
   <property name="kdenlive:id">4</property>
  </entry>
  <entry producer="chain1" in="00:01:49.080" out="00:01:49.880">
   <property name="kdenlive:id">4</property>
  </entry>
  <entry producer="chain1" in="00:01:49.920" out="00:01:50.480">
   <property name="kdenlive:id">4</property>
  </entry>
  <entry producer="chain1" in="00:01:50.520" out="00:01:51.640">
   <property name="kdenlive:id">4</property>
  </entry>
  <entry producer="chain1" in="00:01:51.680" out="00:01:52.600">
   <property name="kdenlive:id">4</property>
  </entry>
  <entry producer="chain1" in="00:01:52.640" out="00:01:53.080">
   <property name="kdenlive:id">4</property>
  </entry>
  <entry producer="chain1" in="00:01:53.120" out="00:01:53.800">
   <property name="kdenlive:id">4</property>
  </entry>
  <entry producer="chain1" in="00:01:53.840" out="00:01:54.440">
   <property name="kdenlive:id">4</property>
  </entry>
  <entry producer="chain1" in="00:01:54.480" out="00:01:55.080">
   <property name="kdenlive:id">4</property>
  </entry>
  <entry producer="chain1" in="00:01:55.120" out="00:01:55.520">
   <property name="kdenlive:id">4</property>
  </entry>
  <entry producer="chain1" in="00:01:55.560" out="00:01:56.000">
   <property name="kdenlive:id">4</property>
  </entry>
  <entry producer="chain1" in="00:01:56.040" out="00:01:56.800">
   <property name="kdenlive:id">4</property>
  </entry>
  <entry producer="chain1" in="00:01:56.840" out="00:01:57.360">
   <property name="kdenlive:id">4</property>
  </entry>
  <entry producer="chain1" in="00:01:57.400" out="00:01:57.840">
   <property name="kdenlive:id">4</property>
  </entry>
  <entry producer="chain1" in="00:01:57.880" out="00:01:58.720">
   <property name="kdenlive:id">4</property>
  </entry>
  <entry producer="chain1" in="00:01:58.760" out="00:01:59.400">
   <property name="kdenlive:id">4</property>
  </entry>
  <entry producer="chain1" in="00:01:59.440" out="00:01:59.880">
   <property name="kdenlive:id">4</property>
  </entry>
  <entry producer="chain1" in="00:01:59.920" out="00:02:00.520">
   <property name="kdenlive:id">4</property>
  </entry>
  <entry producer="chain1" in="00:02:00.560" out="00:02:01.200">
   <property name="kdenlive:id">4</property>
  </entry>
  <entry producer="chain1" in="00:02:01.240" out="00:02:01.760">
   <property name="kdenlive:id">4</property>
  </entry>
  <entry producer="chain1" in="00:02:01.800" out="00:02:02.360">
   <property name="kdenlive:id">4</property>
  </entry>
  <entry producer="chain1" in="00:02:02.400" out="00:02:02.680">
   <property name="kdenlive:id">4</property>
  </entry>
  <entry producer="chain1" in="00:02:02.720" out="00:02:04.280">
   <property name="kdenlive:id">4</property>
  </entry>
  <entry producer="chain1" in="00:02:04.320" out="00:02:07.360">
   <property name="kdenlive:id">4</property>
  </entry>
  <entry producer="chain1" in="00:02:07.400" out="00:02:09.520">
   <property name="kdenlive:id">4</property>
  </entry>
  <entry producer="chain1" in="00:02:09.560" out="00:02:11.320">
   <property name="kdenlive:id">4</property>
  </entry>
  <entry producer="chain1" in="00:02:11.360" out="00:02:12.920">
   <property name="kdenlive:id">4</property>
  </entry>
  <entry producer="chain1" in="00:02:12.960" out="00:02:14.680">
   <property name="kdenlive:id">4</property>
  </entry>
  <entry producer="chain1" in="00:02:14.720" out="00:02:16.560">
   <property name="kdenlive:id">4</property>
  </entry>
  <entry producer="chain1" in="00:02:16.600" out="00:02:18.000">
   <property name="kdenlive:id">4</property>
  </entry>
  <entry producer="chain1" in="00:02:18.040" out="00:02:20.080">
   <property name="kdenlive:id">4</property>
  </entry>
  <entry producer="chain1" in="00:02:20.120" out="00:02:24.560">
   <property name="kdenlive:id">4</property>
  </entry>
  <entry producer="chain1" in="00:02:24.600" out="00:02:27.120">
   <property name="kdenlive:id">4</property>
  </entry>
  <entry producer="chain1" in="00:02:27.160" out="00:02:28.440">
   <property name="kdenlive:id">4</property>
  </entry>
  <entry producer="chain1" in="00:02:28.480" out="00:02:34.760">
   <property name="kdenlive:id">4</property>
  </entry>
  <entry producer="chain1" in="00:02:34.800" out="00:02:36.160">
   <property name="kdenlive:id">4</property>
  </entry>
  <entry producer="chain1" in="00:02:36.200" out="00:02:37.400">
   <property name="kdenlive:id">4</property>
  </entry>
  <entry producer="chain1" in="00:02:37.440" out="00:02:38.360">
   <property name="kdenlive:id">4</property>
  </entry>
  <entry producer="chain1" in="00:02:38.400" out="00:02:39.240">
   <property name="kdenlive:id">4</property>
  </entry>
  <entry producer="chain1" in="00:02:39.280" out="00:02:40.200">
   <property name="kdenlive:id">4</property>
  </entry>
  <entry producer="chain1" in="00:02:40.240" out="00:02:41.040">
   <property name="kdenlive:id">4</property>
  </entry>
  <entry producer="chain1" in="00:02:41.080" out="00:02:48.360">
   <property name="kdenlive:id">4</property>
  </entry>
  <entry producer="chain1" in="00:02:48.400" out="00:02:49.800">
   <property name="kdenlive:id">4</property>
  </entry>
  <entry producer="chain1" in="00:02:49.840" out="00:02:50.960">
   <property name="kdenlive:id">4</property>
  </entry>
  <entry producer="chain1" in="00:02:51.000" out="00:02:51.880">
   <property name="kdenlive:id">4</property>
  </entry>
  <entry producer="chain1" in="00:02:51.920" out="00:02:53.000">
   <property name="kdenlive:id">4</property>
  </entry>
  <entry producer="chain1" in="00:02:53.040" out="00:02:54.480">
   <property name="kdenlive:id">4</property>
  </entry>
  <entry producer="chain1" in="00:02:54.520" out="00:02:55.960">
   <property name="kdenlive:id">4</property>
  </entry>
  <entry producer="chain1" in="00:02:56.000" out="00:02:57.280">
   <property name="kdenlive:id">4</property>
  </entry>
  <entry producer="chain1" in="00:02:57.320" out="00:02:58.840">
   <property name="kdenlive:id">4</property>
  </entry>
  <entry producer="chain1" in="00:02:58.880" out="00:03:00.400">
   <property name="kdenlive:id">4</property>
  </entry>
  <entry producer="chain1" in="00:03:00.440" out="00:03:03.640">
   <property name="kdenlive:id">4</property>
  </entry>
  <entry producer="chain1" in="00:03:03.680" out="00:03:04.280">
   <property name="kdenlive:id">4</property>
  </entry>
  <entry producer="chain1" in="00:03:04.320" out="00:03:05.880">
   <property name="kdenlive:id">4</property>
  </entry>
  <entry producer="chain1" in="00:03:05.920" out="00:03:06.920">
   <property name="kdenlive:id">4</property>
  </entry>
  <entry producer="chain1" in="00:03:06.960" out="00:03:07.960">
   <property name="kdenlive:id">4</property>
  </entry>
  <entry producer="chain1" in="00:03:08.000" out="00:03:09.000">
   <property name="kdenlive:id">4</property>
  </entry>
  <entry producer="chain1" in="00:03:09.040" out="00:03:10.120">
   <property name="kdenlive:id">4</property>
  </entry>
  <entry producer="chain1" in="00:03:10.160" out="00:03:10.960">
   <property name="kdenlive:id">4</property>
  </entry>
  <entry producer="chain1" in="00:03:11.000" out="00:03:12.440">
   <property name="kdenlive:id">4</property>
  </entry>
  <entry producer="chain1" in="00:03:12.480" out="00:03:13.760">
   <property name="kdenlive:id">4</property>
  </entry>
  <entry producer="chain1" in="00:03:13.800" out="00:03:15.040">
   <property name="kdenlive:id">4</property>
  </entry>
  <entry producer="chain1" in="00:03:15.080" out="00:03:16.920">
   <property name="kdenlive:id">4</property>
  </entry>
  <entry producer="chain1" in="00:03:16.960" out="00:03:18.000">
   <property name="kdenlive:id">4</property>
  </entry>
  <entry producer="chain1" in="00:03:18.040" out="00:03:19.360">
   <property name="kdenlive:id">4</property>
  </entry>
  <entry producer="chain1" in="00:03:19.400" out="00:03:20.600">
   <property name="kdenlive:id">4</property>
  </entry>
  <entry producer="chain1" in="00:03:20.640" out="00:03:22.560">
   <property name="kdenlive:id">4</property>
  </entry>
  <entry producer="chain1" in="00:03:22.600" out="00:03:25.120">
   <property name="kdenlive:id">4</property>
  </entry>
  <entry producer="chain1" in="00:03:25.160" out="00:03:26.200">
   <property name="kdenlive:id">4</property>
  </entry>
  <entry producer="chain1" in="00:03:26.240" out="00:03:28.600">
   <property name="kdenlive:id">4</property>
  </entry>
  <entry producer="chain1" in="00:03:28.640" out="00:03:30.080">
   <property name="kdenlive:id">4</property>
  </entry>
  <entry producer="chain1" in="00:03:30.120" out="00:03:32.360">
   <property name="kdenlive:id">4</property>
  </entry>
  <entry producer="chain1" in="00:03:32.400" out="00:03:34.640">
   <property name="kdenlive:id">4</property>
  </entry>
  <entry producer="chain1" in="00:03:34.680" out="00:03:40.040">
   <property name="kdenlive:id">4</property>
  </entry>
  <entry producer="chain1" in="00:03:40.080" out="00:03:54.040">
   <property name="kdenlive:id">4</property>
  </entry>
  <entry producer="chain1" in="00:03:54.080" out="00:03:54.960">
   <property name="kdenlive:id">4</property>
  </entry>
 </playlist>
 <playlist id="playlist3">
  <property name="kdenlive:audio_track">1</property>
 </playlist>
 <tractor id="tractor1" in="00:00:00.000" out="00:03:54.960">
  <property name="kdenlive:audio_track">1</property>
  <property name="kdenlive:trackheight">67</property>
  <property name="kdenlive:timeline_active">1</property>
  <property name="kdenlive:collapsed">0</property>
  <property name="kdenlive:thumbs_format"/>
  <property name="kdenlive:audio_rec"/>
  <track hide="both" producer="playlist2"/>
  <track hide="both" producer="playlist3"/>
  <filter id="filter3">
   <property name="window">75</property>
   <property name="max_gain">20dB</property>
   <property name="mlt_service">volume</property>
   <property name="internal_added">237</property>
   <property name="disable">1</property>
  </filter>
  <filter id="filter4">
   <property name="channel">-1</property>
   <property name="mlt_service">panner</property>
   <property name="internal_added">237</property>
   <property name="start">0.5</property>
   <property name="disable">1</property>
  </filter>
  <filter id="filter5">
   <property name="iec_scale">0</property>
   <property name="mlt_service">audiolevel</property>
   <property name="dbpeak">1</property>
   <property name="disable">1</property>
  </filter>
 </tractor>
 <chain id="chain3" out="00:03:54.960">
  <property name="length">5875</property>
  <property name="eof">pause</property>
  <property name="resource">/home/fedora/Videos/Rammstein/Rammstein - Du Hast.mp4</property>
  <property name="mlt_service">avformat-novalidate</property>
  <property name="seekable">1</property>
  <property name="format">3</property>
  <property name="audio_index">1</property>
  <property name="video_index">0</property>
  <property name="vstream">0</property>
  <property name="astream">0</property>
  <property name="kdenlive:clipname"/>
  <property name="kdenlive:clip_type">0</property>
  <property name="kdenlive:folderid">-1</property>
  <property name="kdenlive:id">4</property>
  <property name="mute_on_pause">0</property>
  <property name="kdenlive:file_size">9269296</property>
  <property name="kdenlive:file_hash">b035423c6be7f154c46fd38ec482caf1</property>
  <property name="meta.media.nb_streams">2</property>
  <property name="meta.media.0.stream.type">video</property>
  <property name="meta.media.0.stream.frame_rate">25</property>
  <property name="meta.media.0.stream.sample_aspect_ratio">0</property>
  <property name="meta.media.0.codec.width">640</property>
  <property name="meta.media.0.codec.height">360</property>
  <property name="meta.media.0.codec.rotate">0</property>
  <property name="meta.media.0.codec.pix_fmt">yuv420p</property>
  <property name="meta.media.0.codec.sample_aspect_ratio">1</property>
  <property name="meta.media.0.codec.colorspace">709</property>
  <property name="meta.media.0.codec.color_trc">1</property>
  <property name="meta.media.0.codec.name">h264</property>
  <property name="meta.media.0.codec.long_name">H.264 / AVC / MPEG-4 AVC / MPEG-4 part 10</property>
  <property name="meta.media.0.codec.bit_rate">183876</property>
  <property name="meta.attr.0.stream.creation_time.markup">2023-11-06T00:35:41.000000Z</property>
  <property name="meta.attr.0.stream.handler_name.markup">ISO Media file produced by Google Inc. Created on: 11/05/2023.</property>
  <property name="meta.attr.0.stream.vendor_id.markup">[0][0][0][0]</property>
  <property name="meta.media.1.stream.type">audio</property>
  <property name="meta.media.1.codec.sample_fmt">fltp</property>
  <property name="meta.media.1.codec.sample_rate">44100</property>
  <property name="meta.media.1.codec.channels">2</property>
  <property name="meta.media.1.codec.name">aac</property>
  <property name="meta.media.1.codec.long_name">AAC (Advanced Audio Coding)</property>
  <property name="meta.media.1.codec.bit_rate">127999</property>
  <property name="meta.attr.1.stream.creation_time.markup">2023-11-06T00:35:41.000000Z</property>
  <property name="meta.attr.1.stream.handler_name.markup">ISO Media file produced by Google Inc. Created on: 11/05/2023.</property>
  <property name="meta.attr.1.stream.vendor_id.markup">[0][0][0][0]</property>
  <property name="meta.attr.major_brand.markup">mp42</property>
  <property name="meta.attr.minor_version.markup">0</property>
  <property name="meta.attr.compatible_brands.markup">isommp42</property>
  <property name="meta.attr.creation_time.markup">2023-11-06T00:35:41.000000Z</property>
  <property name="meta.media.sample_aspect_num">1</property>
  <property name="meta.media.sample_aspect_den">1</property>
  <property name="meta.media.frame_rate_num">25</property>
  <property name="meta.media.frame_rate_den">1</property>
  <property name="meta.media.colorspace">709</property>
  <property name="meta.media.color_trc">1</property>
  <property name="meta.media.has_b_frames">1</property>
  <property name="meta.media.width">640</property>
  <property name="meta.media.height">360</property>
  <property name="meta.media.color_range">mpeg</property>
  <property name="xml">was here</property>
  <property name="meta.media.top_field_first">0</property>
  <property name="meta.media.progressive">1</property>
  <property name="set.test_audio">1</property>
  <property name="set.test_image">0</property>
 </chain>
 <playlist id="playlist4">
  <entry producer="chain3" in="00:00:00.000" out="00:00:04.240">
   <property name="kdenlive:id">4</property>
  </entry>
  <entry producer="chain3" in="00:00:04.280" out="00:00:08.200">
   <property name="kdenlive:id">4</property>
  </entry>
  <entry producer="chain3" in="00:00:08.240" out="00:00:08.800">
   <property name="kdenlive:id">4</property>
  </entry>
  <entry producer="chain3" in="00:00:08.840" out="00:00:09.000">
   <property name="kdenlive:id">4</property>
  </entry>
  <entry producer="chain3" in="00:00:09.040" out="00:00:09.440">
   <property name="kdenlive:id">4</property>
  </entry>
  <entry producer="chain3" in="00:00:09.480" out="00:00:09.720">
   <property name="kdenlive:id">4</property>
  </entry>
  <entry producer="chain3" in="00:00:09.760" out="00:00:09.920">
   <property name="kdenlive:id">4</property>
  </entry>
  <entry producer="chain3" in="00:00:09.960" out="00:00:10.080">
   <property name="kdenlive:id">4</property>
  </entry>
  <entry producer="chain3" in="00:00:10.120" out="00:00:10.200">
   <property name="kdenlive:id">4</property>
  </entry>
  <entry producer="chain3" in="00:00:10.240" out="00:00:10.560">
   <property name="kdenlive:id">4</property>
  </entry>
  <entry producer="chain3" in="00:00:10.600" out="00:00:10.880">
   <property name="kdenlive:id">4</property>
  </entry>
  <entry producer="chain3" in="00:00:10.920" out="00:00:11.760">
   <property name="kdenlive:id">4</property>
  </entry>
  <entry producer="chain3" in="00:00:11.800" out="00:00:12.960">
   <property name="kdenlive:id">4</property>
  </entry>
  <entry producer="chain3" in="00:00:13.000" out="00:00:13.120">
   <property name="kdenlive:id">4</property>
  </entry>
  <entry producer="chain3" in="00:00:13.160" out="00:00:13.280">
   <property name="kdenlive:id">4</property>
  </entry>
  <entry producer="chain3" in="00:00:13.320" out="00:00:13.480">
   <property name="kdenlive:id">4</property>
  </entry>
  <entry producer="chain3" in="00:00:13.520" out="00:00:13.600">
   <property name="kdenlive:id">4</property>
  </entry>
  <entry producer="chain3" in="00:00:13.640" out="00:00:14.560">
   <property name="kdenlive:id">4</property>
  </entry>
  <entry producer="chain3" in="00:00:14.600" out="00:00:15.080">
   <property name="kdenlive:id">4</property>
  </entry>
  <entry producer="chain3" in="00:00:15.120" out="00:00:15.320">
   <property name="kdenlive:id">4</property>
  </entry>
  <entry producer="chain3" in="00:00:15.360" out="00:00:15.720">
   <property name="kdenlive:id">4</property>
  </entry>
  <entry producer="chain3" in="00:00:15.760" out="00:00:16.120">
   <property name="kdenlive:id">4</property>
  </entry>
  <entry producer="chain3" in="00:00:16.160" out="00:00:16.720">
   <property name="kdenlive:id">4</property>
  </entry>
  <entry producer="chain3" in="00:00:16.760" out="00:00:16.880">
   <property name="kdenlive:id">4</property>
  </entry>
  <entry producer="chain3" in="00:00:16.920" out="00:00:17.240">
   <property name="kdenlive:id">4</property>
  </entry>
  <entry producer="chain3" in="00:00:17.280" out="00:00:19.960">
   <property name="kdenlive:id">4</property>
  </entry>
  <entry producer="chain3" in="00:00:20.000" out="00:00:23.160">
   <property name="kdenlive:id">4</property>
  </entry>
  <entry producer="chain3" in="00:00:23.200" out="00:00:25.560">
   <property name="kdenlive:id">4</property>
  </entry>
  <entry producer="chain3" in="00:00:25.600" out="00:00:26.560">
   <property name="kdenlive:id">4</property>
  </entry>
  <entry producer="chain3" in="00:00:26.600" out="00:00:27.400">
   <property name="kdenlive:id">4</property>
  </entry>
  <entry producer="chain3" in="00:00:27.440" out="00:00:28.400">
   <property name="kdenlive:id">4</property>
  </entry>
  <entry producer="chain3" in="00:00:28.440" out="00:00:28.920">
   <property name="kdenlive:id">4</property>
  </entry>
  <entry producer="chain3" in="00:00:28.960" out="00:00:30.440">
   <property name="kdenlive:id">4</property>
  </entry>
  <entry producer="chain3" in="00:00:30.480" out="00:00:30.960">
   <property name="kdenlive:id">4</property>
  </entry>
  <entry producer="chain3" in="00:00:31.000" out="00:00:31.600">
   <property name="kdenlive:id">4</property>
  </entry>
  <entry producer="chain3" in="00:00:31.640" out="00:00:32.200">
   <property name="kdenlive:id">4</property>
  </entry>
  <entry producer="chain3" in="00:00:32.240" out="00:00:32.720">
   <property name="kdenlive:id">4</property>
  </entry>
  <entry producer="chain3" in="00:00:32.760" out="00:00:33.600">
   <property name="kdenlive:id">4</property>
  </entry>
  <entry producer="chain3" in="00:00:33.640" out="00:00:36.280">
   <property name="kdenlive:id">4</property>
  </entry>
  <entry producer="chain3" in="00:00:36.320" out="00:00:38.280">
   <property name="kdenlive:id">4</property>
  </entry>
  <entry producer="chain3" in="00:00:38.320" out="00:00:43.280">
   <property name="kdenlive:id">4</property>
  </entry>
  <entry producer="chain3" in="00:00:43.320" out="00:00:46.000">
   <property name="kdenlive:id">4</property>
  </entry>
  <entry producer="chain3" in="00:00:46.040" out="00:00:47.400">
   <property name="kdenlive:id">4</property>
  </entry>
  <entry producer="chain3" in="00:00:47.440" out="00:00:49.280">
   <property name="kdenlive:id">4</property>
  </entry>
  <entry producer="chain3" in="00:00:49.320" out="00:00:49.960">
   <property name="kdenlive:id">4</property>
  </entry>
  <entry producer="chain3" in="00:00:50.000" out="00:00:51.920">
   <property name="kdenlive:id">4</property>
  </entry>
  <entry producer="chain3" in="00:00:51.960" out="00:00:53.680">
   <property name="kdenlive:id">4</property>
  </entry>
  <entry producer="chain3" in="00:00:53.720" out="00:00:54.960">
   <property name="kdenlive:id">4</property>
  </entry>
  <entry producer="chain3" in="00:00:55.000" out="00:00:55.520">
   <property name="kdenlive:id">4</property>
  </entry>
  <entry producer="chain3" in="00:00:55.560" out="00:00:56.080">
   <property name="kdenlive:id">4</property>
  </entry>
  <entry producer="chain3" in="00:00:56.120" out="00:00:56.720">
   <property name="kdenlive:id">4</property>
  </entry>
  <entry producer="chain3" in="00:00:56.760" out="00:00:57.560">
   <property name="kdenlive:id">4</property>
  </entry>
  <entry producer="chain3" in="00:00:57.600" out="00:00:59.280">
   <property name="kdenlive:id">4</property>
  </entry>
  <entry producer="chain3" in="00:00:59.320" out="00:01:01.280">
   <property name="kdenlive:id">4</property>
  </entry>
  <entry producer="chain3" in="00:01:01.320" out="00:01:02.840">
   <property name="kdenlive:id">4</property>
  </entry>
  <entry producer="chain3" in="00:01:02.880" out="00:01:03.800">
   <property name="kdenlive:id">4</property>
  </entry>
  <entry producer="chain3" in="00:01:03.840" out="00:01:05.320">
   <property name="kdenlive:id">4</property>
  </entry>
  <entry producer="chain3" in="00:01:05.360" out="00:01:06.240">
   <property name="kdenlive:id">4</property>
  </entry>
  <entry producer="chain3" in="00:01:06.280" out="00:01:09.960">
   <property name="kdenlive:id">4</property>
  </entry>
  <entry producer="chain3" in="00:01:10.000" out="00:01:16.680">
   <property name="kdenlive:id">4</property>
  </entry>
  <entry producer="chain3" in="00:01:16.720" out="00:01:20.160">
   <property name="kdenlive:id">4</property>
  </entry>
  <entry producer="chain3" in="00:01:20.200" out="00:01:23.960">
   <property name="kdenlive:id">4</property>
  </entry>
  <entry producer="chain3" in="00:01:24.000" out="00:01:27.560">
   <property name="kdenlive:id">4</property>
  </entry>
  <entry producer="chain3" in="00:01:27.600" out="00:01:29.920">
   <property name="kdenlive:id">4</property>
  </entry>
  <entry producer="chain3" in="00:01:29.960" out="00:01:32.080">
   <property name="kdenlive:id">4</property>
  </entry>
  <entry producer="chain3" in="00:01:32.120" out="00:01:33.120">
   <property name="kdenlive:id">4</property>
  </entry>
  <entry producer="chain3" in="00:01:33.160" out="00:01:34.080">
   <property name="kdenlive:id">4</property>
  </entry>
  <entry producer="chain3" in="00:01:34.120" out="00:01:35.360">
   <property name="kdenlive:id">4</property>
  </entry>
  <entry producer="chain3" in="00:01:35.400" out="00:01:36.240">
   <property name="kdenlive:id">4</property>
  </entry>
  <entry producer="chain3" in="00:01:36.280" out="00:01:37.720">
   <property name="kdenlive:id">4</property>
  </entry>
  <entry producer="chain3" in="00:01:37.760" out="00:01:39.400">
   <property name="kdenlive:id">4</property>
  </entry>
  <entry producer="chain3" in="00:01:39.440" out="00:01:40.800">
   <property name="kdenlive:id">4</property>
  </entry>
  <entry producer="chain3" in="00:01:40.840" out="00:01:42.560">
   <property name="kdenlive:id">4</property>
  </entry>
  <entry producer="chain3" in="00:01:42.600" out="00:01:43.440">
   <property name="kdenlive:id">4</property>
  </entry>
  <entry producer="chain3" in="00:01:43.480" out="00:01:44.800">
   <property name="kdenlive:id">4</property>
  </entry>
  <entry producer="chain3" in="00:01:44.840" out="00:01:47.720">
   <property name="kdenlive:id">4</property>
  </entry>
  <entry producer="chain3" in="00:01:47.760" out="00:01:49.040">
   <property name="kdenlive:id">4</property>
  </entry>
  <entry producer="chain3" in="00:01:49.080" out="00:01:49.880">
   <property name="kdenlive:id">4</property>
  </entry>
  <entry producer="chain3" in="00:01:49.920" out="00:01:50.480">
   <property name="kdenlive:id">4</property>
  </entry>
  <entry producer="chain3" in="00:01:50.520" out="00:01:51.640">
   <property name="kdenlive:id">4</property>
  </entry>
  <entry producer="chain3" in="00:01:51.680" out="00:01:52.600">
   <property name="kdenlive:id">4</property>
  </entry>
  <entry producer="chain3" in="00:01:52.640" out="00:01:53.080">
   <property name="kdenlive:id">4</property>
  </entry>
  <entry producer="chain3" in="00:01:53.120" out="00:01:53.800">
   <property name="kdenlive:id">4</property>
  </entry>
  <entry producer="chain3" in="00:01:53.840" out="00:01:54.440">
   <property name="kdenlive:id">4</property>
  </entry>
  <entry producer="chain3" in="00:01:54.480" out="00:01:55.080">
   <property name="kdenlive:id">4</property>
  </entry>
  <entry producer="chain3" in="00:01:55.120" out="00:01:55.520">
   <property name="kdenlive:id">4</property>
  </entry>
  <entry producer="chain3" in="00:01:55.560" out="00:01:56.000">
   <property name="kdenlive:id">4</property>
  </entry>
  <entry producer="chain3" in="00:01:56.040" out="00:01:56.800">
   <property name="kdenlive:id">4</property>
  </entry>
  <entry producer="chain3" in="00:01:56.840" out="00:01:57.360">
   <property name="kdenlive:id">4</property>
  </entry>
  <entry producer="chain3" in="00:01:57.400" out="00:01:57.840">
   <property name="kdenlive:id">4</property>
  </entry>
  <entry producer="chain3" in="00:01:57.880" out="00:01:58.720">
   <property name="kdenlive:id">4</property>
  </entry>
  <entry producer="chain3" in="00:01:58.760" out="00:01:59.400">
   <property name="kdenlive:id">4</property>
  </entry>
  <entry producer="chain3" in="00:01:59.440" out="00:01:59.880">
   <property name="kdenlive:id">4</property>
  </entry>
  <entry producer="chain3" in="00:01:59.920" out="00:02:00.520">
   <property name="kdenlive:id">4</property>
  </entry>
  <entry producer="chain3" in="00:02:00.560" out="00:02:01.200">
   <property name="kdenlive:id">4</property>
  </entry>
  <entry producer="chain3" in="00:02:01.240" out="00:02:01.760">
   <property name="kdenlive:id">4</property>
  </entry>
  <entry producer="chain3" in="00:02:01.800" out="00:02:02.360">
   <property name="kdenlive:id">4</property>
  </entry>
  <entry producer="chain3" in="00:02:02.400" out="00:02:02.680">
   <property name="kdenlive:id">4</property>
  </entry>
  <entry producer="chain3" in="00:02:02.720" out="00:02:04.280">
   <property name="kdenlive:id">4</property>
  </entry>
  <entry producer="chain3" in="00:02:04.320" out="00:02:07.360">
   <property name="kdenlive:id">4</property>
  </entry>
  <entry producer="chain3" in="00:02:07.400" out="00:02:09.520">
   <property name="kdenlive:id">4</property>
  </entry>
  <entry producer="chain3" in="00:02:09.560" out="00:02:11.320">
   <property name="kdenlive:id">4</property>
  </entry>
  <entry producer="chain3" in="00:02:11.360" out="00:02:12.920">
   <property name="kdenlive:id">4</property>
  </entry>
  <entry producer="chain3" in="00:02:12.960" out="00:02:14.680">
   <property name="kdenlive:id">4</property>
  </entry>
  <entry producer="chain3" in="00:02:14.720" out="00:02:16.560">
   <property name="kdenlive:id">4</property>
  </entry>
  <entry producer="chain3" in="00:02:16.600" out="00:02:18.000">
   <property name="kdenlive:id">4</property>
  </entry>
  <entry producer="chain3" in="00:02:18.040" out="00:02:20.080">
   <property name="kdenlive:id">4</property>
  </entry>
  <entry producer="chain3" in="00:02:20.120" out="00:02:24.560">
   <property name="kdenlive:id">4</property>
  </entry>
  <entry producer="chain3" in="00:02:24.600" out="00:02:27.120">
   <property name="kdenlive:id">4</property>
  </entry>
  <entry producer="chain3" in="00:02:27.160" out="00:02:28.440">
   <property name="kdenlive:id">4</property>
  </entry>
  <entry producer="chain3" in="00:02:28.480" out="00:02:34.760">
   <property name="kdenlive:id">4</property>
  </entry>
  <entry producer="chain3" in="00:02:34.800" out="00:02:36.160">
   <property name="kdenlive:id">4</property>
  </entry>
  <entry producer="chain3" in="00:02:36.200" out="00:02:37.400">
   <property name="kdenlive:id">4</property>
  </entry>
  <entry producer="chain3" in="00:02:37.440" out="00:02:38.360">
   <property name="kdenlive:id">4</property>
  </entry>
  <entry producer="chain3" in="00:02:38.400" out="00:02:39.240">
   <property name="kdenlive:id">4</property>
  </entry>
  <entry producer="chain3" in="00:02:39.280" out="00:02:40.200">
   <property name="kdenlive:id">4</property>
  </entry>
  <entry producer="chain3" in="00:02:40.240" out="00:02:41.040">
   <property name="kdenlive:id">4</property>
  </entry>
  <entry producer="chain3" in="00:02:41.080" out="00:02:48.360">
   <property name="kdenlive:id">4</property>
  </entry>
  <entry producer="chain3" in="00:02:48.400" out="00:02:49.800">
   <property name="kdenlive:id">4</property>
  </entry>
  <entry producer="chain3" in="00:02:49.840" out="00:02:50.960">
   <property name="kdenlive:id">4</property>
  </entry>
  <entry producer="chain3" in="00:02:51.000" out="00:02:51.880">
   <property name="kdenlive:id">4</property>
  </entry>
  <entry producer="chain3" in="00:02:51.920" out="00:02:53.000">
   <property name="kdenlive:id">4</property>
  </entry>
  <entry producer="chain3" in="00:02:53.040" out="00:02:54.480">
   <property name="kdenlive:id">4</property>
  </entry>
  <entry producer="chain3" in="00:02:54.520" out="00:02:55.960">
   <property name="kdenlive:id">4</property>
  </entry>
  <entry producer="chain3" in="00:02:56.000" out="00:02:57.280">
   <property name="kdenlive:id">4</property>
  </entry>
  <entry producer="chain3" in="00:02:57.320" out="00:02:58.840">
   <property name="kdenlive:id">4</property>
  </entry>
  <entry producer="chain3" in="00:02:58.880" out="00:03:00.400">
   <property name="kdenlive:id">4</property>
  </entry>
  <entry producer="chain3" in="00:03:00.440" out="00:03:03.640">
   <property name="kdenlive:id">4</property>
  </entry>
  <entry producer="chain3" in="00:03:03.680" out="00:03:04.280">
   <property name="kdenlive:id">4</property>
  </entry>
  <entry producer="chain3" in="00:03:04.320" out="00:03:05.880">
   <property name="kdenlive:id">4</property>
  </entry>
  <entry producer="chain3" in="00:03:05.920" out="00:03:06.920">
   <property name="kdenlive:id">4</property>
  </entry>
  <entry producer="chain3" in="00:03:06.960" out="00:03:07.960">
   <property name="kdenlive:id">4</property>
  </entry>
  <entry producer="chain3" in="00:03:08.000" out="00:03:09.000">
   <property name="kdenlive:id">4</property>
  </entry>
  <entry producer="chain3" in="00:03:09.040" out="00:03:10.120">
   <property name="kdenlive:id">4</property>
  </entry>
  <entry producer="chain3" in="00:03:10.160" out="00:03:10.960">
   <property name="kdenlive:id">4</property>
  </entry>
  <entry producer="chain3" in="00:03:11.000" out="00:03:12.440">
   <property name="kdenlive:id">4</property>
  </entry>
  <entry producer="chain3" in="00:03:12.480" out="00:03:13.760">
   <property name="kdenlive:id">4</property>
  </entry>
  <entry producer="chain3" in="00:03:13.800" out="00:03:15.040">
   <property name="kdenlive:id">4</property>
  </entry>
  <entry producer="chain3" in="00:03:15.080" out="00:03:16.920">
   <property name="kdenlive:id">4</property>
  </entry>
  <entry producer="chain3" in="00:03:16.960" out="00:03:18.000">
   <property name="kdenlive:id">4</property>
  </entry>
  <entry producer="chain3" in="00:03:18.040" out="00:03:19.360">
   <property name="kdenlive:id">4</property>
  </entry>
  <entry producer="chain3" in="00:03:19.400" out="00:03:20.600">
   <property name="kdenlive:id">4</property>
  </entry>
  <entry producer="chain3" in="00:03:20.640" out="00:03:22.560">
   <property name="kdenlive:id">4</property>
  </entry>
  <entry producer="chain3" in="00:03:22.600" out="00:03:25.120">
   <property name="kdenlive:id">4</property>
  </entry>
  <entry producer="chain3" in="00:03:25.160" out="00:03:26.200">
   <property name="kdenlive:id">4</property>
  </entry>
  <entry producer="chain3" in="00:03:26.240" out="00:03:28.600">
   <property name="kdenlive:id">4</property>
  </entry>
  <entry producer="chain3" in="00:03:28.640" out="00:03:30.080">
   <property name="kdenlive:id">4</property>
  </entry>
  <entry producer="chain3" in="00:03:30.120" out="00:03:32.360">
   <property name="kdenlive:id">4</property>
  </entry>
  <entry producer="chain3" in="00:03:32.400" out="00:03:34.640">
   <property name="kdenlive:id">4</property>
  </entry>
  <entry producer="chain3" in="00:03:34.680" out="00:03:40.040">
   <property name="kdenlive:id">4</property>
  </entry>
  <entry producer="chain3" in="00:03:40.080" out="00:03:54.040">
   <property name="kdenlive:id">4</property>
  </entry>
  <entry producer="chain3" in="00:03:54.080" out="00:03:54.960">
   <property name="kdenlive:id">4</property>
  </entry>
 </playlist>
 <playlist id="playlist5"/>
 <tractor id="tractor2" in="00:00:00.000" out="00:03:54.960">
  <property name="kdenlive:trackheight">67</property>
  <property name="kdenlive:timeline_active">1</property>
  <property name="kdenlive:collapsed">0</property>
  <property name="kdenlive:thumbs_format"/>
  <property name="kdenlive:audio_rec"/>
  <track hide="audio" producer="playlist4"/>
  <track hide="audio" producer="playlist5"/>
 </tractor>
 <playlist id="playlist6"/>
 <playlist id="playlist7"/>
 <tractor id="tractor3" in="00:00:00.000">
  <property name="kdenlive:trackheight">67</property>
  <property name="kdenlive:timeline_active">1</property>
  <property name="kdenlive:collapsed">0</property>
  <property name="kdenlive:thumbs_format"/>
  <property name="kdenlive:audio_rec"/>
  <track hide="audio" producer="playlist6"/>
  <track hide="audio" producer="playlist7"/>
 </tractor>
 <tractor id="tractor4" in="00:00:00.000" out="00:23:55.000">
  <property name="kdenlive:duration">00:03:55:00</property>
  <property name="kdenlive:maxduration">5875</property>
  <property name="kdenlive:clipname">Sequence 1</property>
  <property name="kdenlive:description"/>
  <property name="kdenlive:uuid">{5d69e55f-ee59-4067-8817-9a284d0722f2}</property>
  <property name="kdenlive:producer_type">17</property>
  <property name="kdenlive:id">3</property>
  <property name="kdenlive:clip_type">0</property>
  <property name="kdenlive:file_hash">5985a847a80b506c8547446f86e0d181</property>
  <property name="kdenlive:folderid">2</property>
  <property name="kdenlive:sequenceproperties.activeTrack">2</property>
  <property name="kdenlive:sequenceproperties.audioTarget">1</property>
  <property name="kdenlive:sequenceproperties.disablepreview">0</property>
  <property name="kdenlive:sequenceproperties.documentuuid">{5d69e55f-ee59-4067-8817-9a284d0722f2}</property>
  <property name="kdenlive:sequenceproperties.hasAudio">1</property>
  <property name="kdenlive:sequenceproperties.hasVideo">1</property>
  <property name="kdenlive:sequenceproperties.position">226</property>
  <property name="kdenlive:sequenceproperties.scrollPos">8828</property>
  <property name="kdenlive:sequenceproperties.tracks">4</property>
  <property name="kdenlive:sequenceproperties.tracksCount">4</property>
  <property name="kdenlive:sequenceproperties.verticalzoom">1</property>
  <property name="kdenlive:sequenceproperties.videoTarget">2</property>
  <property name="kdenlive:sequenceproperties.zonein">0</property>
  <property name="kdenlive:sequenceproperties.zoneout">5650</property>
  <property name="kdenlive:sequenceproperties.zoom">0</property>
  <property name="kdenlive:sequenceproperties.groups">[
    {
        "children": [
            {
                "data": "1:5129",
                "leaf": "clip",
                "type": "Leaf"
            },
            {
                "data": "2:5129",
                "leaf": "clip",
                "type": "Leaf"
            }
        ],
        "type": "AVSplit"
    },
    {
        "children": [
            {
                "data": "2:394",
                "leaf": "clip",
                "type": "Leaf"
            },
            {
                "data": "1:394",
                "leaf": "clip",
                "type": "Leaf"
            }
        ],
        "type": "AVSplit"
    },
    {
        "children": [
            {
                "data": "1:841",
                "leaf": "clip",
                "type": "Leaf"
            },
            {
                "data": "2:841",
                "leaf": "clip",
                "type": "Leaf"
            }
        ],
        "type": "AVSplit"
    },
    {
        "children": [
            {
                "data": "1:1657",
                "leaf": "clip",
                "type": "Leaf"
            },
            {
                "data": "2:1657",
                "leaf": "clip",
                "type": "Leaf"
            }
        ],
        "type": "AVSplit"
    },
    {
        "children": [
            {
                "data": "2:256",
                "leaf": "clip",
                "type": "Leaf"
            },
            {
                "data": "1:256",
                "leaf": "clip",
                "type": "Leaf"
            }
        ],
        "type": "AVSplit"
    },
    {
        "children": [
            {
                "data": "1:3014",
                "leaf": "clip",
                "type": "Leaf"
            },
            {
                "data": "2:3014",
                "leaf": "clip",
                "type": "Leaf"
            }
        ],
        "type": "AVSplit"
    },
    {
        "children": [
            {
                "data": "1:5852",
                "leaf": "clip",
                "type": "Leaf"
            },
            {
                "data": "2:5852",
                "leaf": "clip",
                "type": "Leaf"
            }
        ],
        "type": "AVSplit"
    },
    {
        "children": [
            {
                "data": "2:1419",
                "leaf": "clip",
                "type": "Leaf"
            },
            {
                "data": "1:1419",
                "leaf": "clip",
                "type": "Leaf"
            }
        ],
        "type": "AVSplit"
    },
    {
        "children": [
            {
                "data": "1:4210",
                "leaf": "clip",
                "type": "Leaf"
            },
            {
                "data": "2:4210",
                "leaf": "clip",
                "type": "Leaf"
            }
        ],
        "type": "AVSplit"
    },
    {
        "children": [
            {
                "data": "2:5156",
                "leaf": "clip",
                "type": "Leaf"
            },
            {
                "data": "1:5156",
                "leaf": "clip",
                "type": "Leaf"
            }
        ],
        "type": "AVSplit"
    },
    {
        "children": [
            {
                "data": "1:1533",
                "leaf": "clip",
                "type": "Leaf"
            },
            {
                "data": "2:1533",
                "leaf": "clip",
                "type": "Leaf"
            }
        ],
        "type": "AVSplit"
    },
    {
        "children": [
            {
                "data": "2:2407",
                "leaf": "clip",
                "type": "Leaf"
            },
            {
                "data": "1:2407",
                "leaf": "clip",
                "type": "Leaf"
            }
        ],
        "type": "AVSplit"
    },
    {
        "children": [
            {
                "data": "2:1750",
                "leaf": "clip",
                "type": "Leaf"
            },
            {
                "data": "1:1750",
                "leaf": "clip",
                "type": "Leaf"
            }
        ],
        "type": "AVSplit"
    },
    {
        "children": [
            {
                "data": "1:265",
                "leaf": "clip",
                "type": "Leaf"
            },
            {
                "data": "2:265",
                "leaf": "clip",
                "type": "Leaf"
            }
        ],
        "type": "AVSplit"
    },
    {
        "children": [
            {
                "data": "1:5216",
                "leaf": "clip",
                "type": "Leaf"
            },
            {
                "data": "2:5216",
                "leaf": "clip",
                "type": "Leaf"
            }
        ],
        "type": "AVSplit"
    },
    {
        "children": [
            {
                "data": "2:4845",
                "leaf": "clip",
                "type": "Leaf"
            },
            {
                "data": "1:4845",
                "leaf": "clip",
                "type": "Leaf"
            }
        ],
        "type": "AVSplit"
    },
    {
        "children": [
            {
                "data": "1:2444",
                "leaf": "clip",
                "type": "Leaf"
            },
            {
                "data": "2:2444",
                "leaf": "clip",
                "type": "Leaf"
            }
        ],
        "type": "AVSplit"
    },
    {
        "children": [
            {
                "data": "1:1151",
                "leaf": "clip",
                "type": "Leaf"
            },
            {
                "data": "2:1151",
                "leaf": "clip",
                "type": "Leaf"
            }
        ],
        "type": "AVSplit"
    },
    {
        "children": [
            {
                "data": "2:1083",
                "leaf": "clip",
                "type": "Leaf"
            },
            {
                "data": "1:1083",
                "leaf": "clip",
                "type": "Leaf"
            }
        ],
        "type": "AVSplit"
    },
    {
        "children": [
            {
                "data": "2:419",
                "leaf": "clip",
                "type": "Leaf"
            },
            {
                "data": "1:419",
                "leaf": "clip",
                "type": "Leaf"
            }
        ],
        "type": "AVSplit"
    },
    {
        "children": [
            {
                "data": "1:2862",
                "leaf": "clip",
                "type": "Leaf"
            },
            {
                "data": "2:2862",
                "leaf": "clip",
                "type": "Leaf"
            }
        ],
        "type": "AVSplit"
    },
    {
        "children": [
            {
                "data": "1:5502",
                "leaf": "clip",
                "type": "Leaf"
            },
            {
                "data": "2:5502",
                "leaf": "clip",
                "type": "Leaf"
            }
        ],
        "type": "AVSplit"
    },
    {
        "children": [
            {
                "data": "2:341",
                "leaf": "clip",
                "type": "Leaf"
            },
            {
                "data": "1:341",
                "leaf": "clip",
                "type": "Leaf"
            }
        ],
        "type": "AVSplit"
    },
    {
        "children": [
            {
                "data": "1:365",
                "leaf": "clip",
                "type": "Leaf"
            },
            {
                "data": "2:365",
                "leaf": "clip",
                "type": "Leaf"
            }
        ],
        "type": "AVSplit"
    },
    {
        "children": [
            {
                "data": "2:4674",
                "leaf": "clip",
                "type": "Leaf"
            },
            {
                "data": "1:4674",
                "leaf": "clip",
                "type": "Leaf"
            }
        ],
        "type": "AVSplit"
    },
    {
        "children": [
            {
                "data": "2:4246",
                "leaf": "clip",
                "type": "Leaf"
            },
            {
                "data": "1:4246",
                "leaf": "clip",
                "type": "Leaf"
            }
        ],
        "type": "AVSplit"
    },
    {
        "children": [
            {
                "data": "1:2986",
                "leaf": "clip",
                "type": "Leaf"
            },
            {
                "data": "2:2986",
                "leaf": "clip",
                "type": "Leaf"
            }
        ],
        "type": "AVSplit"
    },
    {
        "children": [
            {
                "data": "1:2521",
                "leaf": "clip",
                "type": "Leaf"
            },
            {
                "data": "2:2521",
                "leaf": "clip",
                "type": "Leaf"
            }
        ],
        "type": "AVSplit"
    },
    {
        "children": [
            {
                "data": "2:665",
                "leaf": "clip",
                "type": "Leaf"
            },
            {
                "data": "1:665",
                "leaf": "clip",
                "type": "Leaf"
            }
        ],
        "type": "AVSplit"
    },
    {
        "children": [
            {
                "data": "2:2486",
                "leaf": "clip",
                "type": "Leaf"
            },
            {
                "data": "1:2486",
                "leaf": "clip",
                "type": "Leaf"
            }
        ],
        "type": "AVSplit"
    },
    {
        "children": [
            {
                "data": "2:4511",
                "leaf": "clip",
                "type": "Leaf"
            },
            {
                "data": "1:4511",
                "leaf": "clip",
                "type": "Leaf"
            }
        ],
        "type": "AVSplit"
    },
    {
        "children": [
            {
                "data": "1:724",
                "leaf": "clip",
                "type": "Leaf"
            },
            {
                "data": "2:724",
                "leaf": "clip",
                "type": "Leaf"
            }
        ],
        "type": "AVSplit"
    },
    {
        "children": [
            {
                "data": "1:2828",
                "leaf": "clip",
                "type": "Leaf"
            },
            {
                "data": "2:2828",
                "leaf": "clip",
                "type": "Leaf"
            }
        ],
        "type": "AVSplit"
    },
    {
        "children": [
            {
                "data": "2:711",
                "leaf": "clip",
                "type": "Leaf"
            },
            {
                "data": "1:711",
                "leaf": "clip",
                "type": "Leaf"
            }
        ],
        "type": "AVSplit"
    },
    {
        "children": [
            {
                "data": "1:4592",
                "leaf": "clip",
                "type": "Leaf"
            },
            {
                "data": "2:4592",
                "leaf": "clip",
                "type": "Leaf"
            }
        ],
        "type": "AVSplit"
    },
    {
        "children": [
            {
                "data": "1:226",
                "leaf": "clip",
                "type": "Leaf"
            },
            {
                "data": "2:226",
                "leaf": "clip",
                "type": "Leaf"
            }
        ],
        "type": "AVSplit"
    },
    {
        "children": [
            {
                "data": "1:1403",
                "leaf": "clip",
                "type": "Leaf"
            },
            {
                "data": "2:1403",
                "leaf": "clip",
                "type": "Leaf"
            }
        ],
        "type": "AVSplit"
    },
    {
        "children": [
            {
                "data": "2:5253",
                "leaf": "clip",
                "type": "Leaf"
            },
            {
                "data": "1:5253",
                "leaf": "clip",
                "type": "Leaf"
            }
        ],
        "type": "AVSplit"
    },
    {
        "children": [
            {
                "data": "2:2621",
                "leaf": "clip",
                "type": "Leaf"
            },
            {
                "data": "1:2621",
                "leaf": "clip",
                "type": "Leaf"
            }
        ],
        "type": "AVSplit"
    },
    {
        "children": [
            {
                "data": "1:3905",
                "leaf": "clip",
                "type": "Leaf"
            },
            {
                "data": "2:3905",
                "leaf": "clip",
                "type": "Leaf"
            }
        ],
        "type": "AVSplit"
    },
    {
        "children": [
            {
                "data": "1:2694",
                "leaf": "clip",
                "type": "Leaf"
            },
            {
                "data": "2:2694",
                "leaf": "clip",
                "type": "Leaf"
            }
        ],
        "type": "AVSplit"
    },
    {
        "children": [
            {
                "data": "2:3239",
                "leaf": "clip",
                "type": "Leaf"
            },
            {
                "data": "1:3239",
                "leaf": "clip",
                "type": "Leaf"
            }
        ],
        "type": "AVSplit"
    },
    {
        "children": [
            {
                "data": "1:2748",
                "leaf": "clip",
                "type": "Leaf"
            },
            {
                "data": "2:2748",
                "leaf": "clip",
                "type": "Leaf"
            }
        ],
        "type": "AVSplit"
    },
    {
        "children": [
            {
                "data": "2:3936",
                "leaf": "clip",
                "type": "Leaf"
            },
            {
                "data": "1:3936",
                "leaf": "clip",
                "type": "Leaf"
            }
        ],
        "type": "AVSplit"
    },
    {
        "children": [
            {
                "data": "2:237",
                "leaf": "clip",
                "type": "Leaf"
            },
            {
                "data": "1:237",
                "leaf": "clip",
                "type": "Leaf"
            }
        ],
        "type": "AVSplit"
    },
    {
        "children": [
            {
                "data": "2:2763",
                "leaf": "clip",
                "type": "Leaf"
            },
            {
                "data": "1:2763",
                "leaf": "clip",
                "type": "Leaf"
            }
        ],
        "type": "AVSplit"
    },
    {
        "children": [
            {
                "data": "2:4298",
                "leaf": "clip",
                "type": "Leaf"
            },
            {
                "data": "1:4298",
                "leaf": "clip",
                "type": "Leaf"
            }
        ],
        "type": "AVSplit"
    },
    {
        "children": [
            {
                "data": "2:791",
                "leaf": "clip",
                "type": "Leaf"
            },
            {
                "data": "1:791",
                "leaf": "clip",
                "type": "Leaf"
            }
        ],
        "type": "AVSplit"
    },
    {
        "children": [
            {
                "data": "1:4754",
                "leaf": "clip",
                "type": "Leaf"
            },
            {
                "data": "2:4754",
                "leaf": "clip",
                "type": "Leaf"
            }
        ],
        "type": "AVSplit"
    },
    {
        "children": [
            {
                "data": "1:2947",
                "leaf": "clip",
                "type": "Leaf"
            },
            {
                "data": "2:2947",
                "leaf": "clip",
                "type": "Leaf"
            }
        ],
        "type": "AVSplit"
    },
    {
        "children": [
            {
                "data": "2:2901",
                "leaf": "clip",
                "type": "Leaf"
            },
            {
                "data": "1:2901",
                "leaf": "clip",
                "type": "Leaf"
            }
        ],
        "type": "AVSplit"
    },
    {
        "children": [
            {
                "data": "1:775",
                "leaf": "clip",
                "type": "Leaf"
            },
            {
                "data": "2:775",
                "leaf": "clip",
                "type": "Leaf"
            }
        ],
        "type": "AVSplit"
    },
    {
        "children": [
            {
                "data": "1:4006",
                "leaf": "clip",
                "type": "Leaf"
            },
            {
                "data": "2:4006",
                "leaf": "clip",
                "type": "Leaf"
            }
        ],
        "type": "AVSplit"
    },
    {
        "children": [
            {
                "data": "2:4924",
                "leaf": "clip",
                "type": "Leaf"
            },
            {
                "data": "1:4924",
                "leaf": "clip",
                "type": "Leaf"
            }
        ],
        "type": "AVSplit"
    },
    {
        "children": [
            {
                "data": "1:3185",
                "leaf": "clip",
                "type": "Leaf"
            },
            {
                "data": "2:3185",
                "leaf": "clip",
                "type": "Leaf"
            }
        ],
        "type": "AVSplit"
    },
    {
        "children": [
            {
                "data": "1:2249",
                "leaf": "clip",
                "type": "Leaf"
            },
            {
                "data": "2:2249",
                "leaf": "clip",
                "type": "Leaf"
            }
        ],
        "type": "AVSplit"
    },
    {
        "children": [
            {
                "data": "1:253",
                "leaf": "clip",
                "type": "Leaf"
            },
            {
                "data": "2:253",
                "leaf": "clip",
                "type": "Leaf"
            }
        ],
        "type": "AVSplit"
    },
    {
        "children": [
            {
                "data": "1:1918",
                "leaf": "clip",
                "type": "Leaf"
            },
            {
                "data": "2:1918",
                "leaf": "clip",
                "type": "Leaf"
            }
        ],
        "type": "AVSplit"
    },
    {
        "children": [
            {
                "data": "1:2889",
                "leaf": "clip",
                "type": "Leaf"
            },
            {
                "data": "2:2889",
                "leaf": "clip",
                "type": "Leaf"
            }
        ],
        "type": "AVSplit"
    },
    {
        "children": [
            {
                "data": "1:4400",
                "leaf": "clip",
                "type": "Leaf"
            },
            {
                "data": "2:4400",
                "leaf": "clip",
                "type": "Leaf"
            }
        ],
        "type": "AVSplit"
    },
    {
        "children": [
            {
                "data": "2:1186",
                "leaf": "clip",
                "type": "Leaf"
            },
            {
                "data": "1:1186",
                "leaf": "clip",
                "type": "Leaf"
            }
        ],
        "type": "AVSplit"
    },
    {
        "children": [
            {
                "data": "2:4775",
                "leaf": "clip",
                "type": "Leaf"
            },
            {
                "data": "1:4775",
                "leaf": "clip",
                "type": "Leaf"
            }
        ],
        "type": "AVSplit"
    },
    {
        "children": [
            {
                "data": "2:1572",
                "leaf": "clip",
                "type": "Leaf"
            },
            {
                "data": "1:1572",
                "leaf": "clip",
                "type": "Leaf"
            }
        ],
        "type": "AVSplit"
    },
    {
        "children": [
            {
                "data": "1:107",
                "leaf": "clip",
                "type": "Leaf"
            },
            {
                "data": "2:107",
                "leaf": "clip",
                "type": "Leaf"
            }
        ],
        "type": "AVSplit"
    },
    {
        "children": [
            {
                "data": "2:2353",
                "leaf": "clip",
                "type": "Leaf"
            },
            {
                "data": "1:2353",
                "leaf": "clip",
                "type": "Leaf"
            }
        ],
        "type": "AVSplit"
    },
    {
        "children": [
            {
                "data": "2:580",
                "leaf": "clip",
                "type": "Leaf"
            },
            {
                "data": "1:580",
                "leaf": "clip",
                "type": "Leaf"
            }
        ],
        "type": "AVSplit"
    },
    {
        "children": [
            {
                "data": "1:1375",
                "leaf": "clip",
                "type": "Leaf"
            },
            {
                "data": "2:1375",
                "leaf": "clip",
                "type": "Leaf"
            }
        ],
        "type": "AVSplit"
    },
    {
        "children": [
            {
                "data": "2:2935",
                "leaf": "clip",
                "type": "Leaf"
            },
            {
                "data": "1:2935",
                "leaf": "clip",
                "type": "Leaf"
            }
        ],
        "type": "AVSplit"
    },
    {
        "children": [
            {
                "data": "1:686",
                "leaf": "clip",
                "type": "Leaf"
            },
            {
                "data": "2:686",
                "leaf": "clip",
                "type": "Leaf"
            }
        ],
        "type": "AVSplit"
    },
    {
        "children": [
            {
                "data": "1:1596",
                "leaf": "clip",
                "type": "Leaf"
            },
            {
                "data": "2:1596",
                "leaf": "clip",
                "type": "Leaf"
            }
        ],
        "type": "AVSplit"
    },
    {
        "children": [
            {
                "data": "2:4726",
                "leaf": "clip",
                "type": "Leaf"
            },
            {
                "data": "1:4726",
                "leaf": "clip",
                "type": "Leaf"
            }
        ],
        "type": "AVSplit"
    },
    {
        "children": [
            {
                "data": "1:640",
                "leaf": "clip",
                "type": "Leaf"
            },
            {
                "data": "2:640",
                "leaf": "clip",
                "type": "Leaf"
            }
        ],
        "type": "AVSplit"
    },
    {
        "children": [
            {
                "data": "1:4877",
                "leaf": "clip",
                "type": "Leaf"
            },
            {
                "data": "2:4877",
                "leaf": "clip",
                "type": "Leaf"
            }
        ],
        "type": "AVSplit"
    },
    {
        "children": [
            {
                "data": "2:3503",
                "leaf": "clip",
                "type": "Leaf"
            },
            {
                "data": "1:3503",
                "leaf": "clip",
                "type": "Leaf"
            }
        ],
        "type": "AVSplit"
    },
    {
        "children": [
            {
                "data": "1:2587",
                "leaf": "clip",
                "type": "Leaf"
            },
            {
                "data": "2:2587",
                "leaf": "clip",
                "type": "Leaf"
            }
        ],
        "type": "AVSplit"
    },
    {
        "children": [
            {
                "data": "1:404",
                "leaf": "clip",
                "type": "Leaf"
            },
            {
                "data": "2:404",
                "leaf": "clip",
                "type": "Leaf"
            }
        ],
        "type": "AVSplit"
    },
    {
        "children": [
            {
                "data": "2:2303",
                "leaf": "clip",
                "type": "Leaf"
            },
            {
                "data": "1:2303",
                "leaf": "clip",
                "type": "Leaf"
            }
        ],
        "type": "AVSplit"
    },
    {
        "children": [
            {
                "data": "2:432",
                "leaf": "clip",
                "type": "Leaf"
            },
            {
                "data": "1:432",
                "leaf": "clip",
                "type": "Leaf"
            }
        ],
        "type": "AVSplit"
    },
    {
        "children": [
            {
                "data": "1:5310",
                "leaf": "clip",
                "type": "Leaf"
            },
            {
                "data": "2:5310",
                "leaf": "clip",
                "type": "Leaf"
            }
        ],
        "type": "AVSplit"
    },
    {
        "children": [
            {
                "data": "1:806",
                "leaf": "clip",
                "type": "Leaf"
            },
            {
                "data": "2:806",
                "leaf": "clip",
                "type": "Leaf"
            }
        ],
        "type": "AVSplit"
    },
    {
        "children": [
            {
                "data": "1:500",
                "leaf": "clip",
                "type": "Leaf"
            },
            {
                "data": "2:500",
                "leaf": "clip",
                "type": "Leaf"
            }
        ],
        "type": "AVSplit"
    },
    {
        "children": [
            {
                "data": "1:4275",
                "leaf": "clip",
                "type": "Leaf"
            },
            {
                "data": "2:4275",
                "leaf": "clip",
                "type": "Leaf"
            }
        ],
        "type": "AVSplit"
    },
    {
        "children": [
            {
                "data": "2:4363",
                "leaf": "clip",
                "type": "Leaf"
            },
            {
                "data": "1:4363",
                "leaf": "clip",
                "type": "Leaf"
            }
        ],
        "type": "AVSplit"
    },
    {
        "children": [
            {
                "data": "2:5367",
                "leaf": "clip",
                "type": "Leaf"
            },
            {
                "data": "1:5367",
                "leaf": "clip",
                "type": "Leaf"
            }
        ],
        "type": "AVSplit"
    },
    {
        "children": [
            {
                "data": "2:273",
                "leaf": "clip",
                "type": "Leaf"
            },
            {
                "data": "1:273",
                "leaf": "clip",
                "type": "Leaf"
            }
        ],
        "type": "AVSplit"
    },
    {
        "children": [
            {
                "data": "2:2878",
                "leaf": "clip",
                "type": "Leaf"
            },
            {
                "data": "1:2878",
                "leaf": "clip",
                "type": "Leaf"
            }
        ],
        "type": "AVSplit"
    },
    {
        "children": [
            {
                "data": "2:819",
                "leaf": "clip",
                "type": "Leaf"
            },
            {
                "data": "1:819",
                "leaf": "clip",
                "type": "Leaf"
            }
        ],
        "type": "AVSplit"
    },
    {
        "children": [
            {
                "data": "1:4812",
                "leaf": "clip",
                "type": "Leaf"
            },
            {
                "data": "2:4812",
                "leaf": "clip",
                "type": "Leaf"
            }
        ],
        "type": "AVSplit"
    },
    {
        "children": [
            {
                "data": "2:3982",
                "leaf": "clip",
                "type": "Leaf"
            },
            {
                "data": "1:3982",
                "leaf": "clip",
                "type": "Leaf"
            }
        ],
        "type": "AVSplit"
    },
    {
        "children": [
            {
                "data": "1:244",
                "leaf": "clip",
                "type": "Leaf"
            },
            {
                "data": "2:244",
                "leaf": "clip",
                "type": "Leaf"
            }
        ],
        "type": "AVSplit"
    },
    {
        "children": [
            {
                "data": "2:762",
                "leaf": "clip",
                "type": "Leaf"
            },
            {
                "data": "1:762",
                "leaf": "clip",
                "type": "Leaf"
            }
        ],
        "type": "AVSplit"
    },
    {
        "children": [
            {
                "data": "2:249",
                "leaf": "clip",
                "type": "Leaf"
            },
            {
                "data": "1:249",
                "leaf": "clip",
                "type": "Leaf"
            }
        ],
        "type": "AVSplit"
    },
    {
        "children": [
            {
                "data": "2:4027",
                "leaf": "clip",
                "type": "Leaf"
            },
            {
                "data": "1:4027",
                "leaf": "clip",
                "type": "Leaf"
            }
        ],
        "type": "AVSplit"
    },
    {
        "children": [
            {
                "data": "1:338",
                "leaf": "clip",
                "type": "Leaf"
            },
            {
                "data": "2:338",
                "leaf": "clip",
                "type": "Leaf"
            }
        ],
        "type": "AVSplit"
    },
    {
        "children": [
            {
                "data": "1:4648",
                "leaf": "clip",
                "type": "Leaf"
            },
            {
                "data": "2:4648",
                "leaf": "clip",
                "type": "Leaf"
            }
        ],
        "type": "AVSplit"
    },
    {
        "children": [
            {
                "data": "2:378",
                "leaf": "clip",
                "type": "Leaf"
            },
            {
                "data": "1:378",
                "leaf": "clip",
                "type": "Leaf"
            }
        ],
        "type": "AVSplit"
    },
    {
        "children": [
            {
                "data": "1:3045",
                "leaf": "clip",
                "type": "Leaf"
            },
            {
                "data": "2:3045",
                "leaf": "clip",
                "type": "Leaf"
            }
        ],
        "type": "AVSplit"
    },
    {
        "children": [
            {
                "data": "1:958",
                "leaf": "clip",
                "type": "Leaf"
            },
            {
                "data": "2:958",
                "leaf": "clip",
                "type": "Leaf"
            }
        ],
        "type": "AVSplit"
    },
    {
        "children": [
            {
                "data": "2:1483",
                "leaf": "clip",
                "type": "Leaf"
            },
            {
                "data": "1:1483",
                "leaf": "clip",
                "type": "Leaf"
            }
        ],
        "type": "AVSplit"
    },
    {
        "children": [
            {
                "data": "2:325",
                "leaf": "clip",
                "type": "Leaf"
            },
            {
                "data": "1:325",
                "leaf": "clip",
                "type": "Leaf"
            }
        ],
        "type": "AVSplit"
    },
    {
        "children": [
            {
                "data": "1:2100",
                "leaf": "clip",
                "type": "Leaf"
            },
            {
                "data": "2:2100",
                "leaf": "clip",
                "type": "Leaf"
            }
        ],
        "type": "AVSplit"
    },
    {
        "children": [
            {
                "data": "2:1634",
                "leaf": "clip",
                "type": "Leaf"
            },
            {
                "data": "1:1634",
                "leaf": "clip",
                "type": "Leaf"
            }
        ],
        "type": "AVSplit"
    },
    {
        "children": [
            {
                "data": "2:2565",
                "leaf": "clip",
                "type": "Leaf"
            },
            {
                "data": "1:2565",
                "leaf": "clip",
                "type": "Leaf"
            }
        ],
        "type": "AVSplit"
    },
    {
        "children": [
            {
                "data": "2:908",
                "leaf": "clip",
                "type": "Leaf"
            },
            {
                "data": "1:908",
                "leaf": "clip",
                "type": "Leaf"
            }
        ],
        "type": "AVSplit"
    },
    {
        "children": [
            {
                "data": "1:2921",
                "leaf": "clip",
                "type": "Leaf"
            },
            {
                "data": "2:2921",
                "leaf": "clip",
                "type": "Leaf"
            }
        ],
        "type": "AVSplit"
    },
    {
        "children": [
            {
                "data": "2:1250",
                "leaf": "clip",
                "type": "Leaf"
            },
            {
                "data": "1:1250",
                "leaf": "clip",
                "type": "Leaf"
            }
        ],
        "type": "AVSplit"
    },
    {
        "children": [
            {
                "data": "1:1299",
                "leaf": "clip",
                "type": "Leaf"
            },
            {
                "data": "2:1299",
                "leaf": "clip",
                "type": "Leaf"
            }
        ],
        "type": "AVSplit"
    },
    {
        "children": [
            {
                "data": "2:206",
                "leaf": "clip",
                "type": "Leaf"
            },
            {
                "data": "1:206",
                "leaf": "clip",
                "type": "Leaf"
            }
        ],
        "type": "AVSplit"
    },
    {
        "children": [
            {
                "data": "2:1343",
                "leaf": "clip",
                "type": "Leaf"
            },
            {
                "data": "1:1343",
                "leaf": "clip",
                "type": "Leaf"
            }
        ],
        "type": "AVSplit"
    },
    {
        "children": [
            {
                "data": "2:2816",
                "leaf": "clip",
                "type": "Leaf"
            },
            {
                "data": "1:2816",
                "leaf": "clip",
                "type": "Leaf"
            }
        ],
        "type": "AVSplit"
    },
    {
        "children": [
            {
                "data": "1:3960",
                "leaf": "clip",
                "type": "Leaf"
            },
            {
                "data": "2:3960",
                "leaf": "clip",
                "type": "Leaf"
            }
        ],
        "type": "AVSplit"
    },
    {
        "children": [
            {
                "data": "1:1233",
                "leaf": "clip",
                "type": "Leaf"
            },
            {
                "data": "2:1233",
                "leaf": "clip",
                "type": "Leaf"
            }
        ],
        "type": "AVSplit"
    },
    {
        "children": [
            {
                "data": "2:2846",
                "leaf": "clip",
                "type": "Leaf"
            },
            {
                "data": "1:2846",
                "leaf": "clip",
                "type": "Leaf"
            }
        ],
        "type": "AVSplit"
    },
    {
        "children": [
            {
                "data": "1:295",
                "leaf": "clip",
                "type": "Leaf"
            },
            {
                "data": "2:295",
                "leaf": "clip",
                "type": "Leaf"
            }
        ],
        "type": "AVSplit"
    },
    {
        "children": [
            {
                "data": "2:3060",
                "leaf": "clip",
                "type": "Leaf"
            },
            {
                "data": "1:3060",
                "leaf": "clip",
                "type": "Leaf"
            }
        ],
        "type": "AVSplit"
    },
    {
        "children": [
            {
                "data": "2:4985",
                "leaf": "clip",
                "type": "Leaf"
            },
            {
                "data": "1:4985",
                "leaf": "clip",
                "type": "Leaf"
            }
        ],
        "type": "AVSplit"
    },
    {
        "children": [
            {
                "data": "2:333",
                "leaf": "clip",
                "type": "Leaf"
            },
            {
                "data": "1:333",
                "leaf": "clip",
                "type": "Leaf"
            }
        ],
        "type": "AVSplit"
    },
    {
        "children": [
            {
                "data": "1:221",
                "leaf": "clip",
                "type": "Leaf"
            },
            {
                "data": "2:221",
                "leaf": "clip",
                "type": "Leaf"
            }
        ],
        "type": "AVSplit"
    },
    {
        "children": [
            {
                "data": "2:0",
                "leaf": "clip",
                "type": "Leaf"
            },
            {
                "data": "1:0",
                "leaf": "clip",
                "type": "Leaf"
            }
        ],
        "type": "AVSplit"
    },
    {
        "children": [
            {
                "data": "1:4472",
                "leaf": "clip",
                "type": "Leaf"
            },
            {
                "data": "2:4472",
                "leaf": "clip",
                "type": "Leaf"
            }
        ],
        "type": "AVSplit"
    },
    {
        "children": [
            {
                "data": "2:2727",
                "leaf": "clip",
                "type": "Leaf"
            },
            {
                "data": "1:2727",
                "leaf": "clip",
                "type": "Leaf"
            }
        ],
        "type": "AVSplit"
    },
    {
        "children": [
            {
                "data": "1:329",
                "leaf": "clip",
                "type": "Leaf"
            },
            {
                "data": "2:329",
                "leaf": "clip",
                "type": "Leaf"
            }
        ],
        "type": "AVSplit"
    },
    {
        "children": [
            {
                "data": "2:3031",
                "leaf": "clip",
                "type": "Leaf"
            },
            {
                "data": "1:3031",
                "leaf": "clip",
                "type": "Leaf"
            }
        ],
        "type": "AVSplit"
    },
    {
        "children": [
            {
                "data": "1:384",
                "leaf": "clip",
                "type": "Leaf"
            },
            {
                "data": "2:384",
                "leaf": "clip",
                "type": "Leaf"
            }
        ],
        "type": "AVSplit"
    },
    {
        "children": [
            {
                "data": "2:2005",
                "leaf": "clip",
                "type": "Leaf"
            },
            {
                "data": "1:2005",
                "leaf": "clip",
                "type": "Leaf"
            }
        ],
        "type": "AVSplit"
    },
    {
        "children": [
            {
                "data": "1:3451",
                "leaf": "clip",
                "type": "Leaf"
            },
            {
                "data": "2:3451",
                "leaf": "clip",
                "type": "Leaf"
            }
        ],
        "type": "AVSplit"
    },
    {
        "children": [
            {
                "data": "1:2792",
                "leaf": "clip",
                "type": "Leaf"
            },
            {
                "data": "2:2792",
                "leaf": "clip",
                "type": "Leaf"
            }
        ],
        "type": "AVSplit"
    },
    {
        "children": [
            {
                "data": "1:4951",
                "leaf": "clip",
                "type": "Leaf"
            },
            {
                "data": "2:4951",
                "leaf": "clip",
                "type": "Leaf"
            }
        ],
        "type": "AVSplit"
    },
    {
        "children": [
            {
                "data": "2:2969",
                "leaf": "clip",
                "type": "Leaf"
            },
            {
                "data": "1:2969",
                "leaf": "clip",
                "type": "Leaf"
            }
        ],
        "type": "AVSplit"
    },
    {
        "children": [
            {
                "data": "1:3284",
                "leaf": "clip",
                "type": "Leaf"
            },
            {
                "data": "2:3284",
                "leaf": "clip",
                "type": "Leaf"
            }
        ],
        "type": "AVSplit"
    },
    {
        "children": [
            {
                "data": "1:2329",
                "leaf": "clip",
                "type": "Leaf"
            },
            {
                "data": "2:2329",
                "leaf": "clip",
                "type": "Leaf"
            }
        ],
        "type": "AVSplit"
    },
    {
        "children": [
            {
                "data": "2:2998",
                "leaf": "clip",
                "type": "Leaf"
            },
            {
                "data": "1:2998",
                "leaf": "clip",
                "type": "Leaf"
            }
        ],
        "type": "AVSplit"
    },
    {
        "children": [
            {
                "data": "2:3415",
                "leaf": "clip",
                "type": "Leaf"
            },
            {
                "data": "1:3415",
                "leaf": "clip",
                "type": "Leaf"
            }
        ],
        "type": "AVSplit"
    },
    {
        "children": [
            {
                "data": "2:1389",
                "leaf": "clip",
                "type": "Leaf"
            },
            {
                "data": "1:1389",
                "leaf": "clip",
                "type": "Leaf"
            }
        ],
        "type": "AVSplit"
    },
    {
        "children": [
            {
                "data": "2:2190",
                "leaf": "clip",
                "type": "Leaf"
            },
            {
                "data": "1:2190",
                "leaf": "clip",
                "type": "Leaf"
            }
        ],
        "type": "AVSplit"
    },
    {
        "children": [
            {
                "data": "1:3368",
                "leaf": "clip",
                "type": "Leaf"
            },
            {
                "data": "2:3368",
                "leaf": "clip",
                "type": "Leaf"
            }
        ],
        "type": "AVSplit"
    },
    {
        "children": [
            {
                "data": "1:2385",
                "leaf": "clip",
                "type": "Leaf"
            },
            {
                "data": "2:2385",
                "leaf": "clip",
                "type": "Leaf"
            }
        ],
        "type": "AVSplit"
    },
    {
        "children": [
            {
                "data": "2:3870",
                "leaf": "clip",
                "type": "Leaf"
            },
            {
                "data": "1:3870",
                "leaf": "clip",
                "type": "Leaf"
            }
        ],
        "type": "AVSplit"
    },
    {
        "children": [
            {
                "data": "1:4326",
                "leaf": "clip",
                "type": "Leaf"
            },
            {
                "data": "2:4326",
                "leaf": "clip",
                "type": "Leaf"
            }
        ],
        "type": "AVSplit"
    },
    {
        "children": [
            {
                "data": "1:5016",
                "leaf": "clip",
                "type": "Leaf"
            },
            {
                "data": "2:5016",
                "leaf": "clip",
                "type": "Leaf"
            }
        ],
        "type": "AVSplit"
    },
    {
        "children": [
            {
                "data": "1:3068",
                "leaf": "clip",
                "type": "Leaf"
            },
            {
                "data": "2:3068",
                "leaf": "clip",
                "type": "Leaf"
            }
        ],
        "type": "AVSplit"
    },
    {
        "children": [
            {
                "data": "2:3324",
                "leaf": "clip",
                "type": "Leaf"
            },
            {
                "data": "1:3324",
                "leaf": "clip",
                "type": "Leaf"
            }
        ],
        "type": "AVSplit"
    },
    {
        "children": [
            {
                "data": "1:423",
                "leaf": "clip",
                "type": "Leaf"
            },
            {
                "data": "2:423",
                "leaf": "clip",
                "type": "Leaf"
            }
        ],
        "type": "AVSplit"
    },
    {
        "children": [
            {
                "data": "1:3712",
                "leaf": "clip",
                "type": "Leaf"
            },
            {
                "data": "2:3712",
                "leaf": "clip",
                "type": "Leaf"
            }
        ],
        "type": "AVSplit"
    },
    {
        "children": [
            {
                "data": "2:4433",
                "leaf": "clip",
                "type": "Leaf"
            },
            {
                "data": "1:4433",
                "leaf": "clip",
                "type": "Leaf"
            }
        ],
        "type": "AVSplit"
    },
    {
        "children": [
            {
                "data": "2:5065",
                "leaf": "clip",
                "type": "Leaf"
            },
            {
                "data": "1:5065",
                "leaf": "clip",
                "type": "Leaf"
            }
        ],
        "type": "AVSplit"
    },
    {
        "children": [
            {
                "data": "2:3108",
                "leaf": "clip",
                "type": "Leaf"
            },
            {
                "data": "1:3108",
                "leaf": "clip",
                "type": "Leaf"
            }
        ],
        "type": "AVSplit"
    },
    {
        "children": [
            {
                "data": "2:3679",
                "leaf": "clip",
                "type": "Leaf"
            },
            {
                "data": "1:3679",
                "leaf": "clip",
                "type": "Leaf"
            }
        ],
        "type": "AVSplit"
    },
    {
        "children": [
            {
                "data": "2:4608",
                "leaf": "clip",
                "type": "Leaf"
            },
            {
                "data": "1:4608",
                "leaf": "clip",
                "type": "Leaf"
            }
        ],
        "type": "AVSplit"
    },
    {
        "children": [
            {
                "data": "1:1440",
                "leaf": "clip",
                "type": "Leaf"
            },
            {
                "data": "2:1440",
                "leaf": "clip",
                "type": "Leaf"
            }
        ],
        "type": "AVSplit"
    },
    {
        "children": [
            {
                "data": "1:4700",
                "leaf": "clip",
                "type": "Leaf"
            },
            {
                "data": "2:4700",
                "leaf": "clip",
                "type": "Leaf"
            }
        ],
        "type": "AVSplit"
    },
    {
        "children": [
            {
                "data": "1:3615",
                "leaf": "clip",
                "type": "Leaf"
            },
            {
                "data": "2:3615",
                "leaf": "clip",
                "type": "Leaf"
            }
        ],
        "type": "AVSplit"
    }
]
</property>
  <property name="kdenlive:sequenceproperties.guides">[
]
</property>
  <track producer="producer0"/>
  <track producer="tractor0"/>
  <track producer="tractor1"/>
  <track producer="tractor2"/>
  <track producer="tractor3"/>
  <transition id="transition0">
   <property name="a_track">0</property>
   <property name="b_track">1</property>
   <property name="mlt_service">mix</property>
   <property name="kdenlive_id">mix</property>
   <property name="internal_added">237</property>
   <property name="always_active">1</property>
   <property name="accepts_blanks">1</property>
   <property name="sum">1</property>
  </transition>
  <transition id="transition1">
   <property name="a_track">0</property>
   <property name="b_track">2</property>
   <property name="mlt_service">mix</property>
   <property name="kdenlive_id">mix</property>
   <property name="internal_added">237</property>
   <property name="always_active">1</property>
   <property name="accepts_blanks">1</property>
   <property name="sum">1</property>
  </transition>
  <transition id="transition2">
   <property name="a_track">0</property>
   <property name="b_track">3</property>
   <property name="compositing">0</property>
   <property name="distort">0</property>
   <property name="rotate_center">0</property>
   <property name="mlt_service">qtblend</property>
   <property name="always_active">1</property>
   <property name="internal_added">237</property>
  </transition>
  <transition id="transition3">
   <property name="a_track">0</property>
   <property name="b_track">4</property>
   <property name="compositing">0</property>
   <property name="distort">0</property>
   <property name="rotate_center">0</property>
   <property name="mlt_service">qtblend</property>
   <property name="always_active">1</property>
   <property name="internal_added">237</property>
  </transition>
  <filter id="filter6">
   <property name="window">75</property>
   <property name="max_gain">20dB</property>
   <property name="mlt_service">volume</property>
   <property name="internal_added">237</property>
   <property name="disable">1</property>
  </filter>
  <filter id="filter7">
   <property name="channel">-1</property>
   <property name="mlt_service">panner</property>
   <property name="internal_added">237</property>
   <property name="start">0.5</property>
   <property name="disable">1</property>
  </filter>
 </tractor>
 <playlist id="main_bin">
  <property name="kdenlive:folder.-1.2">Sequences</property>
  <property name="kdenlive:docproperties.activetimeline">{5d69e55f-ee59-4067-8817-9a284d0722f2}</property>
  <property name="kdenlive:docproperties.audioChannels">2</property>
  <property name="kdenlive:docproperties.browserurl">/home/fedora/Documents/</property>
  <property name="kdenlive:docproperties.compositing">1</property>
  <property name="kdenlive:docproperties.documentid">1700256988963</property>
  <property name="kdenlive:docproperties.enableTimelineZone">0</property>
  <property name="kdenlive:docproperties.enableexternalproxy">0</property>
  <property name="kdenlive:docproperties.enableproxy">0</property>
  <property name="kdenlive:docproperties.externalproxyparams"/>
  <property name="kdenlive:docproperties.generateimageproxy">0</property>
  <property name="kdenlive:docproperties.generateproxy">0</property>
  <property name="kdenlive:docproperties.guidesCategories">[
    {
        "color": "#9b59b6",
        "comment": "Category 1",
        "index": 0
    },
    {
        "color": "#3daee9",
        "comment": "Category 2",
        "index": 1
    },
    {
        "color": "#1abc9c",
        "comment": "Category 3",
        "index": 2
    },
    {
        "color": "#1cdc9a",
        "comment": "Category 4",
        "index": 3
    },
    {
        "color": "#c9ce3b",
        "comment": "Category 5",
        "index": 4
    },
    {
        "color": "#fdbc4b",
        "comment": "Category 6",
        "index": 5
    },
    {
        "color": "#f39c1f",
        "comment": "Category 7",
        "index": 6
    },
    {
        "color": "#f47750",
        "comment": "Category 8",
        "index": 7
    },
    {
        "color": "#da4453",
        "comment": "Category 9",
        "index": 8
    }
]
</property>
  <property name="kdenlive:docproperties.kdenliveversion">23.08.1</property>
  <property name="kdenlive:docproperties.opensequences">{5d69e55f-ee59-4067-8817-9a284d0722f2}</property>
  <property name="kdenlive:docproperties.previewextension"/>
  <property name="kdenlive:docproperties.previewparameters"/>
  <property name="kdenlive:docproperties.profile">atsc_1080p_25</property>
  <property name="kdenlive:docproperties.proxyextension"/>
  <property name="kdenlive:docproperties.proxyimageminsize">2000</property>
  <property name="kdenlive:docproperties.proxyimagesize">800</property>
  <property name="kdenlive:docproperties.proxyminsize">1000</property>
  <property name="kdenlive:docproperties.proxyparams"/>
  <property name="kdenlive:docproperties.proxyresize">640</property>
  <property name="kdenlive:docproperties.seekOffset">30000</property>
  <property name="kdenlive:docproperties.uuid">{5d69e55f-ee59-4067-8817-9a284d0722f2}</property>
  <property name="kdenlive:docproperties.version">1.1</property>
  <property name="kdenlive:expandedFolders"/>
  <property name="kdenlive:binZoom">4</property>
  <property name="kdenlive:documentnotes"/>
  <property name="xml_retain">1</property>
  <entry producer="chain2" in="00:00:00.000" out="00:03:54.960"/>
  <entry producer="tractor4" in="00:00:00.000" out="00:03:54.960"/>
 </playlist>
 <tractor id="tractor5" in="00:00:00.000" out="00:03:55.000">
  <property name="kdenlive:projectTractor">1</property>
  <track producer="tractor4" in="00:00:00.000" out="00:03:55.000"/>
 </tractor>
</mlt>
