<?xml version='1.0' encoding='utf-8'?>
<mlt LC_NUMERIC="C" producer="main_bin" version="7.20.0" root="/home/fedora/Jupyter/defining-video-cuts/timelines">
 <profile frame_rate_num="24000" sample_aspect_num="1" display_aspect_den="9" colorspace="709" progressive="1" description="640x360 23.98fps" display_aspect_num="16" frame_rate_den="1001" width="640" height="360" sample_aspect_den="1"/>
 <chain id="chain2" out="00:03:59.810">
  <property name="length">5750</property>
  <property name="eof">pause</property>
  <property name="resource">/home/fedora/Jupyter/defining-video-cuts/videos/1.mp4</property>
  <property name="mlt_service">avformat-novalidate</property>
  <property name="meta.media.nb_streams">2</property>
  <property name="meta.media.0.stream.type">video</property>
  <property name="meta.media.0.stream.frame_rate">23.976</property>
  <property name="meta.media.0.stream.sample_aspect_ratio">0</property>
  <property name="meta.media.0.codec.width">640</property>
  <property name="meta.media.0.codec.height">360</property>
  <property name="meta.media.0.codec.rotate">0</property>
  <property name="meta.media.0.codec.pix_fmt">yuv420p</property>
  <property name="meta.media.0.codec.sample_aspect_ratio">1</property>
  <property name="meta.media.0.codec.colorspace">709</property>
  <property name="meta.media.0.codec.color_trc">1</property>
  <property name="meta.media.0.codec.name">h264</property>
  <property name="meta.media.0.codec.long_name">H.264 / AVC / MPEG-4 AVC / MPEG-4 part 10</property>
  <property name="meta.media.0.codec.bit_rate">240125</property>
  <property name="meta.attr.0.stream.creation_time.markup">2023-11-03T15:15:14.000000Z</property>
  <property name="meta.attr.0.stream.handler_name.markup">ISO Media file produced by Google Inc. Created on: 11/03/2023.</property>
  <property name="meta.attr.0.stream.vendor_id.markup">[0][0][0][0]</property>
  <property name="meta.media.1.stream.type">audio</property>
  <property name="meta.media.1.codec.sample_fmt">fltp</property>
  <property name="meta.media.1.codec.sample_rate">44100</property>
  <property name="meta.media.1.codec.channels">2</property>
  <property name="meta.media.1.codec.name">aac</property>
  <property name="meta.media.1.codec.long_name">AAC (Advanced Audio Coding)</property>
  <property name="meta.media.1.codec.bit_rate">127999</property>
  <property name="meta.attr.1.stream.creation_time.markup">2023-11-03T15:15:14.000000Z</property>
  <property name="meta.attr.1.stream.language.markup">eng</property>
  <property name="meta.attr.1.stream.handler_name.markup">ISO Media file produced by Google Inc. Created on: 11/03/2023.</property>
  <property name="meta.attr.1.stream.vendor_id.markup">[0][0][0][0]</property>
  <property name="meta.attr.major_brand.markup">mp42</property>
  <property name="meta.attr.minor_version.markup">0</property>
  <property name="meta.attr.compatible_brands.markup">isommp42</property>
  <property name="meta.attr.creation_time.markup">2023-11-03T15:15:14.000000Z</property>
  <property name="seekable">1</property>
  <property name="meta.media.sample_aspect_num">1</property>
  <property name="meta.media.sample_aspect_den">1</property>
  <property name="format">3</property>
  <property name="audio_index">1</property>
  <property name="video_index">0</property>
  <property name="vstream">0</property>
  <property name="meta.media.frame_rate_num">24000</property>
  <property name="meta.media.frame_rate_den">1001</property>
  <property name="meta.media.colorspace">709</property>
  <property name="meta.media.color_trc">1</property>
  <property name="meta.media.has_b_frames">1</property>
  <property name="meta.media.width">640</property>
  <property name="meta.media.height">360</property>
  <property name="meta.media.color_range">mpeg</property>
  <property name="astream">0</property>
  <property name="kdenlive:clipname"/>
  <property name="kdenlive:clip_type">0</property>
  <property name="kdenlive:folderid">-1</property>
  <property name="kdenlive:id">4</property>
  <property name="mute_on_pause">0</property>
  <property name="kdenlive:file_size">11141911</property>
  <property name="kdenlive:file_hash">52935510e6496c599132e783480671ed</property>
  <property name="kdenlive:audio_max1">241</property>
  <property name="meta.media.top_field_first">0</property>
  <property name="meta.media.progressive">1</property>
 </chain>
 <producer id="producer0" in="00:00:00.000" out="00:24:51.093">
  <property name="length">2147483647</property>
  <property name="eof">continue</property>
  <property name="resource">black</property>
  <property name="aspect_ratio">1</property>
  <property name="mlt_service">color</property>
  <property name="kdenlive:playlistid">black_track</property>
  <property name="mlt_image_format">rgba</property>
  <property name="set.test_audio">0</property>
 </producer>
 <playlist id="playlist0">
  <property name="kdenlive:audio_track">1</property>
 </playlist>
 <playlist id="playlist1">
  <property name="kdenlive:audio_track">1</property>
 </playlist>
 <tractor id="tractor0" in="00:00:00.000">
  <property name="kdenlive:audio_track">1</property>
  <property name="kdenlive:trackheight">67</property>
  <property name="kdenlive:timeline_active">1</property>
  <property name="kdenlive:collapsed">0</property>
  <property name="kdenlive:thumbs_format"/>
  <property name="kdenlive:audio_rec"/>
  <track hide="both" producer="playlist0"/>
  <track hide="both" producer="playlist1"/>
  <filter id="filter0">
   <property name="window">75</property>
   <property name="max_gain">20dB</property>
   <property name="mlt_service">volume</property>
   <property name="internal_added">237</property>
   <property name="disable">1</property>
  </filter>
  <filter id="filter1">
   <property name="channel">-1</property>
   <property name="mlt_service">panner</property>
   <property name="internal_added">237</property>
   <property name="start">0.5</property>
   <property name="disable">1</property>
  </filter>
  <filter id="filter2">
   <property name="iec_scale">0</property>
   <property name="mlt_service">audiolevel</property>
   <property name="dbpeak">1</property>
   <property name="disable">1</property>
  </filter>
 </tractor>
 <chain id="chain0" out="00:03:59.810">
  <property name="length">5750</property>
  <property name="eof">pause</property>
  <property name="resource">/home/fedora/Jupyter/defining-video-cuts/videos/1.mp4</property>
  <property name="mlt_service">avformat-novalidate</property>
  <property name="seekable">1</property>
  <property name="format">3</property>
  <property name="audio_index">1</property>
  <property name="video_index">0</property>
  <property name="vstream">0</property>
  <property name="astream">0</property>
  <property name="kdenlive:clipname"/>
  <property name="kdenlive:clip_type">0</property>
  <property name="kdenlive:folderid">-1</property>
  <property name="kdenlive:id">4</property>
  <property name="mute_on_pause">0</property>
  <property name="kdenlive:file_size">11141911</property>
  <property name="kdenlive:file_hash">52935510e6496c599132e783480671ed</property>
  <property name="kdenlive:audio_max1">241</property>
  <property name="meta.media.nb_streams">2</property>
  <property name="meta.media.0.stream.type">video</property>
  <property name="meta.media.0.stream.frame_rate">23.976</property>
  <property name="meta.media.0.stream.sample_aspect_ratio">0</property>
  <property name="meta.media.0.codec.width">640</property>
  <property name="meta.media.0.codec.height">360</property>
  <property name="meta.media.0.codec.rotate">0</property>
  <property name="meta.media.0.codec.pix_fmt">yuv420p</property>
  <property name="meta.media.0.codec.sample_aspect_ratio">1</property>
  <property name="meta.media.0.codec.colorspace">709</property>
  <property name="meta.media.0.codec.color_trc">1</property>
  <property name="meta.media.0.codec.name">h264</property>
  <property name="meta.media.0.codec.long_name">H.264 / AVC / MPEG-4 AVC / MPEG-4 part 10</property>
  <property name="meta.media.0.codec.bit_rate">240125</property>
  <property name="meta.attr.0.stream.creation_time.markup">2023-11-03T15:15:14.000000Z</property>
  <property name="meta.attr.0.stream.handler_name.markup">ISO Media file produced by Google Inc. Created on: 11/03/2023.</property>
  <property name="meta.attr.0.stream.vendor_id.markup">[0][0][0][0]</property>
  <property name="meta.media.1.stream.type">audio</property>
  <property name="meta.media.1.codec.sample_fmt">fltp</property>
  <property name="meta.media.1.codec.sample_rate">44100</property>
  <property name="meta.media.1.codec.channels">2</property>
  <property name="meta.media.1.codec.name">aac</property>
  <property name="meta.media.1.codec.long_name">AAC (Advanced Audio Coding)</property>
  <property name="meta.media.1.codec.bit_rate">127999</property>
  <property name="meta.attr.1.stream.creation_time.markup">2023-11-03T15:15:14.000000Z</property>
  <property name="meta.attr.1.stream.language.markup">eng</property>
  <property name="meta.attr.1.stream.handler_name.markup">ISO Media file produced by Google Inc. Created on: 11/03/2023.</property>
  <property name="meta.attr.1.stream.vendor_id.markup">[0][0][0][0]</property>
  <property name="meta.attr.major_brand.markup">mp42</property>
  <property name="meta.attr.minor_version.markup">0</property>
  <property name="meta.attr.compatible_brands.markup">isommp42</property>
  <property name="meta.attr.creation_time.markup">2023-11-03T15:15:14.000000Z</property>
  <property name="meta.media.sample_aspect_num">1</property>
  <property name="meta.media.sample_aspect_den">1</property>
  <property name="meta.media.frame_rate_num">24000</property>
  <property name="meta.media.frame_rate_den">1001</property>
  <property name="meta.media.colorspace">709</property>
  <property name="meta.media.color_trc">1</property>
  <property name="meta.media.has_b_frames">1</property>
  <property name="meta.media.width">640</property>
  <property name="meta.media.height">360</property>
  <property name="meta.media.color_range">mpeg</property>
  <property name="xml">was here</property>
  <property name="meta.media.top_field_first">0</property>
  <property name="meta.media.progressive">1</property>
  <property name="set.test_audio">0</property>
  <property name="set.test_image">1</property>
 </chain>
 <playlist id="playlist2">
  <property name="kdenlive:audio_track">1</property>
  <entry producer="chain0" in="00:00:00.000" out="00:00:04.171">
   <property name="kdenlive:id">4</property>
  </entry>
  <entry producer="chain0" in="00:00:04.213" out="00:00:05.797">
   <property name="kdenlive:id">4</property>
  </entry>
  <entry producer="chain0" in="00:00:05.839" out="00:00:07.633">
   <property name="kdenlive:id">4</property>
  </entry>
  <entry producer="chain0" in="00:00:07.674" out="00:00:08.383">
   <property name="kdenlive:id">4</property>
  </entry>
  <entry producer="chain0" in="00:00:08.425" out="00:00:09.927">
   <property name="kdenlive:id">4</property>
  </entry>
  <entry producer="chain0" in="00:00:09.968" out="00:00:12.054">
   <property name="kdenlive:id">4</property>
  </entry>
  <entry producer="chain0" in="00:00:12.095" out="00:00:16.016">
   <property name="kdenlive:id">4</property>
  </entry>
  <entry producer="chain0" in="00:00:16.058" out="00:00:16.767">
   <property name="kdenlive:id">4</property>
  </entry>
  <entry producer="chain0" in="00:00:16.808" out="00:00:17.726">
   <property name="kdenlive:id">4</property>
  </entry>
  <entry producer="chain0" in="00:00:17.768" out="00:00:18.602">
   <property name="kdenlive:id">4</property>
  </entry>
  <entry producer="chain0" in="00:00:18.644" out="00:00:20.896">
   <property name="kdenlive:id">4</property>
  </entry>
  <entry producer="chain0" in="00:00:20.938" out="00:00:22.731">
   <property name="kdenlive:id">4</property>
  </entry>
  <entry producer="chain0" in="00:00:22.773" out="00:00:25.275">
   <property name="kdenlive:id">4</property>
  </entry>
  <entry producer="chain0" in="00:00:25.317" out="00:00:25.984">
   <property name="kdenlive:id">4</property>
  </entry>
  <entry producer="chain0" in="00:00:26.026" out="00:00:26.526">
   <property name="kdenlive:id">4</property>
  </entry>
  <entry producer="chain0" in="00:00:26.568" out="00:00:27.069">
   <property name="kdenlive:id">4</property>
  </entry>
  <entry producer="chain0" in="00:00:27.110" out="00:00:27.903">
   <property name="kdenlive:id">4</property>
  </entry>
  <entry producer="chain0" in="00:00:27.945" out="00:00:28.654">
   <property name="kdenlive:id">4</property>
  </entry>
  <entry producer="chain0" in="00:00:28.695" out="00:00:29.279">
   <property name="kdenlive:id">4</property>
  </entry>
  <entry producer="chain0" in="00:00:29.321" out="00:00:29.696">
   <property name="kdenlive:id">4</property>
  </entry>
  <entry producer="chain0" in="00:00:29.738" out="00:00:30.739">
   <property name="kdenlive:id">4</property>
  </entry>
  <entry producer="chain0" in="00:00:30.781" out="00:00:31.448">
   <property name="kdenlive:id">4</property>
  </entry>
  <entry producer="chain0" in="00:00:31.490" out="00:00:32.324">
   <property name="kdenlive:id">4</property>
  </entry>
  <entry producer="chain0" in="00:00:32.366" out="00:00:32.866">
   <property name="kdenlive:id">4</property>
  </entry>
  <entry producer="chain0" in="00:00:32.908" out="00:00:33.742">
   <property name="kdenlive:id">4</property>
  </entry>
  <entry producer="chain0" in="00:00:33.784" out="00:00:35.494">
   <property name="kdenlive:id">4</property>
  </entry>
  <entry producer="chain0" in="00:00:35.535" out="00:00:36.578">
   <property name="kdenlive:id">4</property>
  </entry>
  <entry producer="chain0" in="00:00:36.620" out="00:00:38.372">
   <property name="kdenlive:id">4</property>
  </entry>
  <entry producer="chain0" in="00:00:38.413" out="00:00:39.248">
   <property name="kdenlive:id">4</property>
  </entry>
  <entry producer="chain0" in="00:00:39.289" out="00:00:39.998">
   <property name="kdenlive:id">4</property>
  </entry>
  <entry producer="chain0" in="00:00:40.040" out="00:00:40.916">
   <property name="kdenlive:id">4</property>
  </entry>
  <entry producer="chain0" in="00:00:40.958" out="00:00:41.583">
   <property name="kdenlive:id">4</property>
  </entry>
  <entry producer="chain0" in="00:00:41.625" out="00:00:42.042">
   <property name="kdenlive:id">4</property>
  </entry>
  <entry producer="chain0" in="00:00:42.084" out="00:00:43.877">
   <property name="kdenlive:id">4</property>
  </entry>
  <entry producer="chain0" in="00:00:43.919" out="00:00:44.753">
   <property name="kdenlive:id">4</property>
  </entry>
  <entry producer="chain0" in="00:00:44.795" out="00:00:44.878">
   <property name="kdenlive:id">4</property>
  </entry>
  <entry producer="chain0" in="00:00:44.920" out="00:00:44.962">
   <property name="kdenlive:id">4</property>
  </entry>
  <entry producer="chain0" in="00:00:45.003" out="00:00:45.170">
   <property name="kdenlive:id">4</property>
  </entry>
  <entry producer="chain0" in="00:00:45.212" out="00:00:46.088">
   <property name="kdenlive:id">4</property>
  </entry>
  <entry producer="chain0" in="00:00:46.129" out="00:00:46.838">
   <property name="kdenlive:id">4</property>
  </entry>
  <entry producer="chain0" in="00:00:46.880" out="00:00:47.881">
   <property name="kdenlive:id">4</property>
  </entry>
  <entry producer="chain0" in="00:00:47.923" out="00:00:48.924">
   <property name="kdenlive:id">4</property>
  </entry>
  <entry producer="chain0" in="00:00:48.966" out="00:00:49.716">
   <property name="kdenlive:id">4</property>
  </entry>
  <entry producer="chain0" in="00:00:49.758" out="00:00:49.841">
   <property name="kdenlive:id">4</property>
  </entry>
  <entry producer="chain0" in="00:00:49.883" out="00:00:49.967">
   <property name="kdenlive:id">4</property>
  </entry>
  <entry producer="chain0" in="00:00:50.008" out="00:00:50.092">
   <property name="kdenlive:id">4</property>
  </entry>
  <entry producer="chain0" in="00:00:50.133" out="00:00:50.342">
   <property name="kdenlive:id">4</property>
  </entry>
  <entry producer="chain0" in="00:00:50.384" out="00:00:50.550">
   <property name="kdenlive:id">4</property>
  </entry>
  <entry producer="chain0" in="00:00:50.592" out="00:00:52.094">
   <property name="kdenlive:id">4</property>
  </entry>
  <entry producer="chain0" in="00:00:52.135" out="00:00:52.219">
   <property name="kdenlive:id">4</property>
  </entry>
  <entry producer="chain0" in="00:00:52.261" out="00:00:52.469">
   <property name="kdenlive:id">4</property>
  </entry>
  <entry producer="chain0" in="00:00:52.511" out="00:00:53.178">
   <property name="kdenlive:id">4</property>
  </entry>
  <entry producer="chain0" in="00:00:53.220" out="00:00:53.887">
   <property name="kdenlive:id">4</property>
  </entry>
  <entry producer="chain0" in="00:00:53.929" out="00:00:53.971">
   <property name="kdenlive:id">4</property>
  </entry>
  <entry producer="chain0" in="00:00:54.012" out="00:00:54.263">
   <property name="kdenlive:id">4</property>
  </entry>
  <entry producer="chain0" in="00:00:54.304" out="00:00:54.429">
   <property name="kdenlive:id">4</property>
  </entry>
  <entry producer="chain0" in="00:00:54.471" out="00:00:54.680">
   <property name="kdenlive:id">4</property>
  </entry>
  <entry producer="chain0" in="00:00:54.721" out="00:00:56.348">
   <property name="kdenlive:id">4</property>
  </entry>
  <entry producer="chain0" in="00:00:56.390" out="00:00:58.976">
   <property name="kdenlive:id">4</property>
  </entry>
  <entry producer="chain0" in="00:00:59.017" out="00:01:00.292">
   <property name="kdenlive:id">4</property>
  </entry>
  <entry producer="chain0" in="00:01:00.334" out="00:01:01.126">
   <property name="kdenlive:id">4</property>
  </entry>
  <entry producer="chain0" in="00:01:01.168" out="00:01:02.669">
   <property name="kdenlive:id">4</property>
  </entry>
  <entry producer="chain0" in="00:01:02.711" out="00:01:03.462">
   <property name="kdenlive:id">4</property>
  </entry>
  <entry producer="chain0" in="00:01:03.503" out="00:01:05.088">
   <property name="kdenlive:id">4</property>
  </entry>
  <entry producer="chain0" in="00:01:05.130" out="00:01:06.423">
   <property name="kdenlive:id">4</property>
  </entry>
  <entry producer="chain0" in="00:01:06.465" out="00:01:06.882">
   <property name="kdenlive:id">4</property>
  </entry>
  <entry producer="chain0" in="00:01:06.924" out="00:01:07.424">
   <property name="kdenlive:id">4</property>
  </entry>
  <entry producer="chain0" in="00:01:07.466" out="00:01:10.302">
   <property name="kdenlive:id">4</property>
  </entry>
  <entry producer="chain0" in="00:01:10.344" out="00:01:12.596">
   <property name="kdenlive:id">4</property>
  </entry>
  <entry producer="chain0" in="00:01:12.638" out="00:01:13.597">
   <property name="kdenlive:id">4</property>
  </entry>
  <entry producer="chain0" in="00:01:13.639" out="00:01:15.098">
   <property name="kdenlive:id">4</property>
  </entry>
  <entry producer="chain0" in="00:01:15.140" out="00:01:15.474">
   <property name="kdenlive:id">4</property>
  </entry>
  <entry producer="chain0" in="00:01:15.515" out="00:01:15.891">
   <property name="kdenlive:id">4</property>
  </entry>
  <entry producer="chain0" in="00:01:15.933" out="00:01:16.934">
   <property name="kdenlive:id">4</property>
  </entry>
  <entry producer="chain0" in="00:01:16.975" out="00:01:18.268">
   <property name="kdenlive:id">4</property>
  </entry>
  <entry producer="chain0" in="00:01:18.310" out="00:01:19.436">
   <property name="kdenlive:id">4</property>
  </entry>
  <entry producer="chain0" in="00:01:19.478" out="00:01:20.354">
   <property name="kdenlive:id">4</property>
  </entry>
  <entry producer="chain0" in="00:01:20.395" out="00:01:22.147">
   <property name="kdenlive:id">4</property>
  </entry>
  <entry producer="chain0" in="00:01:22.189" out="00:01:24.274">
   <property name="kdenlive:id">4</property>
  </entry>
  <entry producer="chain0" in="00:01:24.316" out="00:01:26.151">
   <property name="kdenlive:id">4</property>
  </entry>
  <entry producer="chain0" in="00:01:26.193" out="00:01:27.945">
   <property name="kdenlive:id">4</property>
  </entry>
  <entry producer="chain0" in="00:01:27.986" out="00:01:28.528">
   <property name="kdenlive:id">4</property>
  </entry>
  <entry producer="chain0" in="00:01:28.570" out="00:01:28.987">
   <property name="kdenlive:id">4</property>
  </entry>
  <entry producer="chain0" in="00:01:29.029" out="00:01:29.988">
   <property name="kdenlive:id">4</property>
  </entry>
  <entry producer="chain0" in="00:01:30.030" out="00:01:31.531">
   <property name="kdenlive:id">4</property>
  </entry>
  <entry producer="chain0" in="00:01:31.573" out="00:01:31.907">
   <property name="kdenlive:id">4</property>
  </entry>
  <entry producer="chain0" in="00:01:31.949" out="00:01:32.157">
   <property name="kdenlive:id">4</property>
  </entry>
  <entry producer="chain0" in="00:01:32.199" out="00:01:32.741">
   <property name="kdenlive:id">4</property>
  </entry>
  <entry producer="chain0" in="00:01:32.783" out="00:01:33.742">
   <property name="kdenlive:id">4</property>
  </entry>
  <entry producer="chain0" in="00:01:33.784" out="00:01:34.785">
   <property name="kdenlive:id">4</property>
  </entry>
  <entry producer="chain0" in="00:01:34.826" out="00:01:35.702">
   <property name="kdenlive:id">4</property>
  </entry>
  <entry producer="chain0" in="00:01:35.744" out="00:01:36.578">
   <property name="kdenlive:id">4</property>
  </entry>
  <entry producer="chain0" in="00:01:36.620" out="00:01:37.120">
   <property name="kdenlive:id">4</property>
  </entry>
  <entry producer="chain0" in="00:01:37.162" out="00:01:37.955">
   <property name="kdenlive:id">4</property>
  </entry>
  <entry producer="chain0" in="00:01:37.996" out="00:01:38.997">
   <property name="kdenlive:id">4</property>
  </entry>
  <entry producer="chain0" in="00:01:39.039" out="00:01:39.414">
   <property name="kdenlive:id">4</property>
  </entry>
  <entry producer="chain0" in="00:01:39.456" out="00:01:40.082">
   <property name="kdenlive:id">4</property>
  </entry>
  <entry producer="chain0" in="00:01:40.123" out="00:01:40.374">
   <property name="kdenlive:id">4</property>
  </entry>
  <entry producer="chain0" in="00:01:40.415" out="00:01:40.582">
   <property name="kdenlive:id">4</property>
  </entry>
  <entry producer="chain0" in="00:01:40.624" out="00:01:41.124">
   <property name="kdenlive:id">4</property>
  </entry>
  <entry producer="chain0" in="00:01:41.166" out="00:01:41.875">
   <property name="kdenlive:id">4</property>
  </entry>
  <entry producer="chain0" in="00:01:41.917" out="00:01:42.334">
   <property name="kdenlive:id">4</property>
  </entry>
  <entry producer="chain0" in="00:01:42.376" out="00:01:42.834">
   <property name="kdenlive:id">4</property>
  </entry>
  <entry producer="chain0" in="00:01:42.876" out="00:01:43.085">
   <property name="kdenlive:id">4</property>
  </entry>
  <entry producer="chain0" in="00:01:43.126" out="00:01:43.335">
   <property name="kdenlive:id">4</property>
  </entry>
  <entry producer="chain0" in="00:01:43.377" out="00:01:44.670">
   <property name="kdenlive:id">4</property>
  </entry>
  <entry producer="chain0" in="00:01:44.711" out="00:01:46.630">
   <property name="kdenlive:id">4</property>
  </entry>
  <entry producer="chain0" in="00:01:46.672" out="00:01:46.797">
   <property name="kdenlive:id">4</property>
  </entry>
  <entry producer="chain0" in="00:01:46.838" out="00:01:47.089">
   <property name="kdenlive:id">4</property>
  </entry>
  <entry producer="chain0" in="00:01:47.130" out="00:01:47.297">
   <property name="kdenlive:id">4</property>
  </entry>
  <entry producer="chain0" in="00:01:47.339" out="00:01:47.464">
   <property name="kdenlive:id">4</property>
  </entry>
  <entry producer="chain0" in="00:01:47.506" out="00:01:48.465">
   <property name="kdenlive:id">4</property>
  </entry>
  <entry producer="chain0" in="00:01:48.507" out="00:01:48.966">
   <property name="kdenlive:id">4</property>
  </entry>
  <entry producer="chain0" in="00:01:49.007" out="00:01:49.383">
   <property name="kdenlive:id">4</property>
  </entry>
  <entry producer="chain0" in="00:01:49.424" out="00:01:53.303">
   <property name="kdenlive:id">4</property>
  </entry>
  <entry producer="chain0" in="00:01:53.345" out="00:01:55.597">
   <property name="kdenlive:id">4</property>
  </entry>
  <entry producer="chain0" in="00:01:55.639" out="00:01:56.556">
   <property name="kdenlive:id">4</property>
  </entry>
  <entry producer="chain0" in="00:01:56.598" out="00:01:57.975">
   <property name="kdenlive:id">4</property>
  </entry>
  <entry producer="chain0" in="00:01:58.016" out="00:01:58.725">
   <property name="kdenlive:id">4</property>
  </entry>
  <entry producer="chain0" in="00:01:58.767" out="00:01:59.142">
   <property name="kdenlive:id">4</property>
  </entry>
  <entry producer="chain0" in="00:01:59.184" out="00:01:59.726">
   <property name="kdenlive:id">4</property>
  </entry>
  <entry producer="chain0" in="00:01:59.768" out="00:01:59.893">
   <property name="kdenlive:id">4</property>
  </entry>
  <entry producer="chain0" in="00:01:59.935" out="00:02:00.000">
   <property name="kdenlive:id">4</property>
  </entry>
  <entry producer="chain0" in="00:02:00.042" out="00:02:00.167">
   <property name="kdenlive:id">4</property>
  </entry>
  <entry producer="chain0" in="00:02:00.209" out="00:02:01.251">
   <property name="kdenlive:id">4</property>
  </entry>
  <entry producer="chain0" in="00:02:01.293" out="00:02:01.543">
   <property name="kdenlive:id">4</property>
  </entry>
  <entry producer="chain0" in="00:02:01.585" out="00:02:02.294">
   <property name="kdenlive:id">4</property>
  </entry>
  <entry producer="chain0" in="00:02:02.336" out="00:02:03.003">
   <property name="kdenlive:id">4</property>
  </entry>
  <entry producer="chain0" in="00:02:03.045" out="00:02:03.337">
   <property name="kdenlive:id">4</property>
  </entry>
  <entry producer="chain0" in="00:02:03.378" out="00:02:03.795">
   <property name="kdenlive:id">4</property>
  </entry>
  <entry producer="chain0" in="00:02:03.837" out="00:02:04.379">
   <property name="kdenlive:id">4</property>
  </entry>
  <entry producer="chain0" in="00:02:04.421" out="00:02:04.755">
   <property name="kdenlive:id">4</property>
  </entry>
  <entry producer="chain0" in="00:02:04.796" out="00:02:05.005">
   <property name="kdenlive:id">4</property>
  </entry>
  <entry producer="chain0" in="00:02:05.047" out="00:02:05.339">
   <property name="kdenlive:id">4</property>
  </entry>
  <entry producer="chain0" in="00:02:05.380" out="00:02:05.631">
   <property name="kdenlive:id">4</property>
  </entry>
  <entry producer="chain0" in="00:02:05.672" out="00:02:05.714">
   <property name="kdenlive:id">4</property>
  </entry>
  <entry producer="chain0" in="00:02:05.756" out="00:02:05.756">
   <property name="kdenlive:id">4</property>
  </entry>
  <entry producer="chain0" in="00:02:05.797" out="00:02:05.797">
   <property name="kdenlive:id">4</property>
  </entry>
  <entry producer="chain0" in="00:02:05.839" out="00:02:05.839">
   <property name="kdenlive:id">4</property>
  </entry>
  <entry producer="chain0" in="00:02:05.881" out="00:02:05.881">
   <property name="kdenlive:id">4</property>
  </entry>
  <entry producer="chain0" in="00:02:05.923" out="00:02:05.964">
   <property name="kdenlive:id">4</property>
  </entry>
  <entry producer="chain0" in="00:02:06.006" out="00:02:06.006">
   <property name="kdenlive:id">4</property>
  </entry>
  <entry producer="chain0" in="00:02:06.048" out="00:02:06.215">
   <property name="kdenlive:id">4</property>
  </entry>
  <entry producer="chain0" in="00:02:06.256" out="00:02:06.423">
   <property name="kdenlive:id">4</property>
  </entry>
  <entry producer="chain0" in="00:02:06.465" out="00:02:10.052">
   <property name="kdenlive:id">4</property>
  </entry>
  <entry producer="chain0" in="00:02:10.093" out="00:02:10.677">
   <property name="kdenlive:id">4</property>
  </entry>
  <entry producer="chain0" in="00:02:10.719" out="00:02:12.721">
   <property name="kdenlive:id">4</property>
  </entry>
  <entry producer="chain0" in="00:02:12.763" out="00:02:14.806">
   <property name="kdenlive:id">4</property>
  </entry>
  <entry producer="chain0" in="00:02:14.848" out="00:02:16.266">
   <property name="kdenlive:id">4</property>
  </entry>
  <entry producer="chain0" in="00:02:16.308" out="00:02:18.560">
   <property name="kdenlive:id">4</property>
  </entry>
  <entry producer="chain0" in="00:02:18.602" out="00:02:19.978">
   <property name="kdenlive:id">4</property>
  </entry>
  <entry producer="chain0" in="00:02:20.020" out="00:02:21.647">
   <property name="kdenlive:id">4</property>
  </entry>
  <entry producer="chain0" in="00:02:21.688" out="00:02:23.523">
   <property name="kdenlive:id">4</property>
  </entry>
  <entry producer="chain0" in="00:02:23.565" out="00:02:25.692">
   <property name="kdenlive:id">4</property>
  </entry>
  <entry producer="chain0" in="00:02:25.734" out="00:02:26.652">
   <property name="kdenlive:id">4</property>
  </entry>
  <entry producer="chain0" in="00:02:26.693" out="00:02:27.486">
   <property name="kdenlive:id">4</property>
  </entry>
  <entry producer="chain0" in="00:02:27.527" out="00:02:28.862">
   <property name="kdenlive:id">4</property>
  </entry>
  <entry producer="chain0" in="00:02:28.904" out="00:02:29.613">
   <property name="kdenlive:id">4</property>
  </entry>
  <entry producer="chain0" in="00:02:29.655" out="00:02:30.447">
   <property name="kdenlive:id">4</property>
  </entry>
  <entry producer="chain0" in="00:02:30.489" out="00:02:31.031">
   <property name="kdenlive:id">4</property>
  </entry>
  <entry producer="chain0" in="00:02:31.073" out="00:02:31.657">
   <property name="kdenlive:id">4</property>
  </entry>
  <entry producer="chain0" in="00:02:31.698" out="00:02:40.165">
   <property name="kdenlive:id">4</property>
  </entry>
  <entry producer="chain0" in="00:02:40.207" out="00:02:42.209">
   <property name="kdenlive:id">4</property>
  </entry>
  <entry producer="chain0" in="00:02:42.251" out="00:02:44.044">
   <property name="kdenlive:id">4</property>
  </entry>
  <entry producer="chain0" in="00:02:44.086" out="00:02:44.878">
   <property name="kdenlive:id">4</property>
  </entry>
  <entry producer="chain0" in="00:02:44.920" out="00:02:45.629">
   <property name="kdenlive:id">4</property>
  </entry>
  <entry producer="chain0" in="00:02:45.671" out="00:02:46.004">
   <property name="kdenlive:id">4</property>
  </entry>
  <entry producer="chain0" in="00:02:46.046" out="00:02:46.463">
   <property name="kdenlive:id">4</property>
  </entry>
  <entry producer="chain0" in="00:02:46.505" out="00:02:47.464">
   <property name="kdenlive:id">4</property>
  </entry>
  <entry producer="chain0" in="00:02:47.506" out="00:02:48.006">
   <property name="kdenlive:id">4</property>
  </entry>
  <entry producer="chain0" in="00:02:48.048" out="00:02:48.590">
   <property name="kdenlive:id">4</property>
  </entry>
  <entry producer="chain0" in="00:02:48.632" out="00:02:49.216">
   <property name="kdenlive:id">4</property>
  </entry>
  <entry producer="chain0" in="00:02:49.258" out="00:02:49.633">
   <property name="kdenlive:id">4</property>
  </entry>
  <entry producer="chain0" in="00:02:49.675" out="00:02:50.884">
   <property name="kdenlive:id">4</property>
  </entry>
  <entry producer="chain0" in="00:02:50.926" out="00:02:52.219">
   <property name="kdenlive:id">4</property>
  </entry>
  <entry producer="chain0" in="00:02:52.261" out="00:02:52.761">
   <property name="kdenlive:id">4</property>
  </entry>
  <entry producer="chain0" in="00:02:52.803" out="00:02:54.263">
   <property name="kdenlive:id">4</property>
  </entry>
  <entry producer="chain0" in="00:02:54.304" out="00:02:55.889">
   <property name="kdenlive:id">4</property>
  </entry>
  <entry producer="chain0" in="00:02:55.931" out="00:02:56.807">
   <property name="kdenlive:id">4</property>
  </entry>
  <entry producer="chain0" in="00:02:56.848" out="00:02:57.766">
   <property name="kdenlive:id">4</property>
  </entry>
  <entry producer="chain0" in="00:02:57.808" out="00:02:58.267">
   <property name="kdenlive:id">4</property>
  </entry>
  <entry producer="chain0" in="00:02:58.308" out="00:02:58.767">
   <property name="kdenlive:id">4</property>
  </entry>
  <entry producer="chain0" in="00:02:58.809" out="00:02:59.142">
   <property name="kdenlive:id">4</property>
  </entry>
  <entry producer="chain0" in="00:02:59.184" out="00:03:00.167">
   <property name="kdenlive:id">4</property>
  </entry>
  <entry producer="chain0" in="00:03:00.209" out="00:03:01.043">
   <property name="kdenlive:id">4</property>
  </entry>
  <entry producer="chain0" in="00:03:01.084" out="00:03:02.628">
   <property name="kdenlive:id">4</property>
  </entry>
  <entry producer="chain0" in="00:03:02.669" out="00:03:04.713">
   <property name="kdenlive:id">4</property>
  </entry>
  <entry producer="chain0" in="00:03:04.755" out="00:03:05.422">
   <property name="kdenlive:id">4</property>
  </entry>
  <entry producer="chain0" in="00:03:05.464" out="00:03:07.549">
   <property name="kdenlive:id">4</property>
  </entry>
  <entry producer="chain0" in="00:03:07.591" out="00:03:08.592">
   <property name="kdenlive:id">4</property>
  </entry>
  <entry producer="chain0" in="00:03:08.634" out="00:03:09.468">
   <property name="kdenlive:id">4</property>
  </entry>
  <entry producer="chain0" in="00:03:09.509" out="00:03:10.302">
   <property name="kdenlive:id">4</property>
  </entry>
  <entry producer="chain0" in="00:03:10.344" out="00:03:10.719">
   <property name="kdenlive:id">4</property>
  </entry>
  <entry producer="chain0" in="00:03:10.761" out="00:03:11.136">
   <property name="kdenlive:id">4</property>
  </entry>
  <entry producer="chain0" in="00:03:11.178" out="00:03:11.470">
   <property name="kdenlive:id">4</property>
  </entry>
  <entry producer="chain0" in="00:03:11.511" out="00:03:12.304">
   <property name="kdenlive:id">4</property>
  </entry>
  <entry producer="chain0" in="00:03:12.346" out="00:03:13.805">
   <property name="kdenlive:id">4</property>
  </entry>
  <entry producer="chain0" in="00:03:13.847" out="00:03:15.432">
   <property name="kdenlive:id">4</property>
  </entry>
  <entry producer="chain0" in="00:03:15.474" out="00:03:16.725">
   <property name="kdenlive:id">4</property>
  </entry>
  <entry producer="chain0" in="00:03:16.767" out="00:03:17.559">
   <property name="kdenlive:id">4</property>
  </entry>
  <entry producer="chain0" in="00:03:17.601" out="00:03:18.810">
   <property name="kdenlive:id">4</property>
  </entry>
  <entry producer="chain0" in="00:03:18.852" out="00:03:19.144">
   <property name="kdenlive:id">4</property>
  </entry>
  <entry producer="chain0" in="00:03:19.186" out="00:03:19.811">
   <property name="kdenlive:id">4</property>
  </entry>
  <entry producer="chain0" in="00:03:19.853" out="00:03:20.687">
   <property name="kdenlive:id">4</property>
  </entry>
  <entry producer="chain0" in="00:03:20.729" out="00:03:22.064">
   <property name="kdenlive:id">4</property>
  </entry>
  <entry producer="chain0" in="00:03:22.105" out="00:03:23.065">
   <property name="kdenlive:id">4</property>
  </entry>
  <entry producer="chain0" in="00:03:23.106" out="00:03:24.942">
   <property name="kdenlive:id">4</property>
  </entry>
  <entry producer="chain0" in="00:03:24.983" out="00:03:25.984">
   <property name="kdenlive:id">4</property>
  </entry>
  <entry producer="chain0" in="00:03:26.026" out="00:03:26.235">
   <property name="kdenlive:id">4</property>
  </entry>
  <entry producer="chain0" in="00:03:26.276" out="00:03:27.444">
   <property name="kdenlive:id">4</property>
  </entry>
  <entry producer="chain0" in="00:03:27.486" out="00:03:28.362">
   <property name="kdenlive:id">4</property>
  </entry>
  <entry producer="chain0" in="00:03:28.403" out="00:03:28.654">
   <property name="kdenlive:id">4</property>
  </entry>
  <entry producer="chain0" in="00:03:28.695" out="00:03:28.904">
   <property name="kdenlive:id">4</property>
  </entry>
  <entry producer="chain0" in="00:03:28.946" out="00:03:29.655">
   <property name="kdenlive:id">4</property>
  </entry>
  <entry producer="chain0" in="00:03:29.696" out="00:03:30.739">
   <property name="kdenlive:id">4</property>
  </entry>
  <entry producer="chain0" in="00:03:30.781" out="00:03:31.198">
   <property name="kdenlive:id">4</property>
  </entry>
  <entry producer="chain0" in="00:03:31.240" out="00:03:31.657">
   <property name="kdenlive:id">4</property>
  </entry>
  <entry producer="chain0" in="00:03:31.698" out="00:03:31.907">
   <property name="kdenlive:id">4</property>
  </entry>
  <entry producer="chain0" in="00:03:31.949" out="00:03:31.990">
   <property name="kdenlive:id">4</property>
  </entry>
  <entry producer="chain0" in="00:03:32.032" out="00:03:32.491">
   <property name="kdenlive:id">4</property>
  </entry>
  <entry producer="chain0" in="00:03:32.532" out="00:03:32.783">
   <property name="kdenlive:id">4</property>
  </entry>
  <entry producer="chain0" in="00:03:32.824" out="00:03:33.075">
   <property name="kdenlive:id">4</property>
  </entry>
  <entry producer="chain0" in="00:03:33.116" out="00:03:33.325">
   <property name="kdenlive:id">4</property>
  </entry>
  <entry producer="chain0" in="00:03:33.367" out="00:03:33.659">
   <property name="kdenlive:id">4</property>
  </entry>
  <entry producer="chain0" in="00:03:33.700" out="00:03:33.992">
   <property name="kdenlive:id">4</property>
  </entry>
  <entry producer="chain0" in="00:03:34.034" out="00:03:34.243">
   <property name="kdenlive:id">4</property>
  </entry>
  <entry producer="chain0" in="00:03:34.284" out="00:03:34.701">
   <property name="kdenlive:id">4</property>
  </entry>
  <entry producer="chain0" in="00:03:34.743" out="00:03:34.910">
   <property name="kdenlive:id">4</property>
  </entry>
  <entry producer="chain0" in="00:03:34.952" out="00:03:35.661">
   <property name="kdenlive:id">4</property>
  </entry>
  <entry producer="chain0" in="00:03:35.702" out="00:03:35.911">
   <property name="kdenlive:id">4</property>
  </entry>
  <entry producer="chain0" in="00:03:35.953" out="00:03:36.453">
   <property name="kdenlive:id">4</property>
  </entry>
  <entry producer="chain0" in="00:03:36.495" out="00:03:36.745">
   <property name="kdenlive:id">4</property>
  </entry>
  <entry producer="chain0" in="00:03:36.787" out="00:03:36.787">
   <property name="kdenlive:id">4</property>
  </entry>
  <entry producer="chain0" in="00:03:36.828" out="00:03:36.954">
   <property name="kdenlive:id">4</property>
  </entry>
  <entry producer="chain0" in="00:03:36.995" out="00:03:37.037">
   <property name="kdenlive:id">4</property>
  </entry>
  <entry producer="chain0" in="00:03:37.079" out="00:03:37.788">
   <property name="kdenlive:id">4</property>
  </entry>
  <entry producer="chain0" in="00:03:37.829" out="00:03:38.205">
   <property name="kdenlive:id">4</property>
  </entry>
  <entry producer="chain0" in="00:03:38.247" out="00:03:38.622">
   <property name="kdenlive:id">4</property>
  </entry>
  <entry producer="chain0" in="00:03:38.664" out="00:03:38.914">
   <property name="kdenlive:id">4</property>
  </entry>
  <entry producer="chain0" in="00:03:38.956" out="00:03:39.164">
   <property name="kdenlive:id">4</property>
  </entry>
  <entry producer="chain0" in="00:03:39.206" out="00:03:59.810">
   <property name="kdenlive:id">4</property>
  </entry>
 </playlist>
 <playlist id="playlist3">
  <property name="kdenlive:audio_track">1</property>
 </playlist>
 <tractor id="tractor1" in="00:00:00.000" out="00:03:59.810">
  <property name="kdenlive:audio_track">1</property>
  <property name="kdenlive:trackheight">67</property>
  <property name="kdenlive:timeline_active">1</property>
  <property name="kdenlive:collapsed">0</property>
  <property name="kdenlive:thumbs_format"/>
  <property name="kdenlive:audio_rec"/>
  <track hide="both" producer="playlist2"/>
  <track hide="both" producer="playlist3"/>
  <filter id="filter3">
   <property name="window">75</property>
   <property name="max_gain">20dB</property>
   <property name="mlt_service">volume</property>
   <property name="internal_added">237</property>
   <property name="disable">1</property>
  </filter>
  <filter id="filter4">
   <property name="channel">-1</property>
   <property name="mlt_service">panner</property>
   <property name="internal_added">237</property>
   <property name="start">0.5</property>
   <property name="disable">1</property>
  </filter>
  <filter id="filter5">
   <property name="iec_scale">0</property>
   <property name="mlt_service">audiolevel</property>
   <property name="dbpeak">1</property>
   <property name="disable">1</property>
  </filter>
 </tractor>
 <chain id="chain1" out="00:03:59.810">
  <property name="length">5750</property>
  <property name="eof">pause</property>
  <property name="resource">/home/fedora/Jupyter/defining-video-cuts/videos/1.mp4</property>
  <property name="mlt_service">avformat-novalidate</property>
  <property name="seekable">1</property>
  <property name="format">3</property>
  <property name="audio_index">1</property>
  <property name="video_index">0</property>
  <property name="vstream">0</property>
  <property name="astream">0</property>
  <property name="kdenlive:clipname"/>
  <property name="kdenlive:clip_type">0</property>
  <property name="kdenlive:folderid">-1</property>
  <property name="kdenlive:id">4</property>
  <property name="mute_on_pause">0</property>
  <property name="kdenlive:file_size">11141911</property>
  <property name="kdenlive:file_hash">52935510e6496c599132e783480671ed</property>
  <property name="kdenlive:audio_max1">241</property>
  <property name="meta.media.nb_streams">2</property>
  <property name="meta.media.0.stream.type">video</property>
  <property name="meta.media.0.stream.frame_rate">23.976</property>
  <property name="meta.media.0.stream.sample_aspect_ratio">0</property>
  <property name="meta.media.0.codec.width">640</property>
  <property name="meta.media.0.codec.height">360</property>
  <property name="meta.media.0.codec.rotate">0</property>
  <property name="meta.media.0.codec.pix_fmt">yuv420p</property>
  <property name="meta.media.0.codec.sample_aspect_ratio">1</property>
  <property name="meta.media.0.codec.colorspace">709</property>
  <property name="meta.media.0.codec.color_trc">1</property>
  <property name="meta.media.0.codec.name">h264</property>
  <property name="meta.media.0.codec.long_name">H.264 / AVC / MPEG-4 AVC / MPEG-4 part 10</property>
  <property name="meta.media.0.codec.bit_rate">240125</property>
  <property name="meta.attr.0.stream.creation_time.markup">2023-11-03T15:15:14.000000Z</property>
  <property name="meta.attr.0.stream.handler_name.markup">ISO Media file produced by Google Inc. Created on: 11/03/2023.</property>
  <property name="meta.attr.0.stream.vendor_id.markup">[0][0][0][0]</property>
  <property name="meta.media.1.stream.type">audio</property>
  <property name="meta.media.1.codec.sample_fmt">fltp</property>
  <property name="meta.media.1.codec.sample_rate">44100</property>
  <property name="meta.media.1.codec.channels">2</property>
  <property name="meta.media.1.codec.name">aac</property>
  <property name="meta.media.1.codec.long_name">AAC (Advanced Audio Coding)</property>
  <property name="meta.media.1.codec.bit_rate">127999</property>
  <property name="meta.attr.1.stream.creation_time.markup">2023-11-03T15:15:14.000000Z</property>
  <property name="meta.attr.1.stream.language.markup">eng</property>
  <property name="meta.attr.1.stream.handler_name.markup">ISO Media file produced by Google Inc. Created on: 11/03/2023.</property>
  <property name="meta.attr.1.stream.vendor_id.markup">[0][0][0][0]</property>
  <property name="meta.attr.major_brand.markup">mp42</property>
  <property name="meta.attr.minor_version.markup">0</property>
  <property name="meta.attr.compatible_brands.markup">isommp42</property>
  <property name="meta.attr.creation_time.markup">2023-11-03T15:15:14.000000Z</property>
  <property name="meta.media.sample_aspect_num">1</property>
  <property name="meta.media.sample_aspect_den">1</property>
  <property name="meta.media.frame_rate_num">24000</property>
  <property name="meta.media.frame_rate_den">1001</property>
  <property name="meta.media.colorspace">709</property>
  <property name="meta.media.color_trc">1</property>
  <property name="meta.media.has_b_frames">1</property>
  <property name="meta.media.width">640</property>
  <property name="meta.media.height">360</property>
  <property name="meta.media.color_range">mpeg</property>
  <property name="xml">was here</property>
  <property name="meta.media.top_field_first">0</property>
  <property name="meta.media.progressive">1</property>
  <property name="set.test_audio">1</property>
  <property name="set.test_image">0</property>
 </chain>
 <playlist id="playlist4">
  <entry producer="chain1" in="00:00:00.000" out="00:00:04.171">
   <property name="kdenlive:id">4</property>
  </entry>
  <entry producer="chain1" in="00:00:04.213" out="00:00:05.797">
   <property name="kdenlive:id">4</property>
  </entry>
  <entry producer="chain1" in="00:00:05.839" out="00:00:07.633">
   <property name="kdenlive:id">4</property>
  </entry>
  <entry producer="chain1" in="00:00:07.674" out="00:00:08.383">
   <property name="kdenlive:id">4</property>
  </entry>
  <entry producer="chain1" in="00:00:08.425" out="00:00:09.927">
   <property name="kdenlive:id">4</property>
  </entry>
  <entry producer="chain1" in="00:00:09.968" out="00:00:12.054">
   <property name="kdenlive:id">4</property>
  </entry>
  <entry producer="chain1" in="00:00:12.095" out="00:00:16.016">
   <property name="kdenlive:id">4</property>
  </entry>
  <entry producer="chain1" in="00:00:16.058" out="00:00:16.767">
   <property name="kdenlive:id">4</property>
  </entry>
  <entry producer="chain1" in="00:00:16.808" out="00:00:17.726">
   <property name="kdenlive:id">4</property>
  </entry>
  <entry producer="chain1" in="00:00:17.768" out="00:00:18.602">
   <property name="kdenlive:id">4</property>
  </entry>
  <entry producer="chain1" in="00:00:18.644" out="00:00:20.896">
   <property name="kdenlive:id">4</property>
  </entry>
  <entry producer="chain1" in="00:00:20.938" out="00:00:22.731">
   <property name="kdenlive:id">4</property>
  </entry>
  <entry producer="chain1" in="00:00:22.773" out="00:00:25.275">
   <property name="kdenlive:id">4</property>
  </entry>
  <entry producer="chain1" in="00:00:25.317" out="00:00:25.984">
   <property name="kdenlive:id">4</property>
  </entry>
  <entry producer="chain1" in="00:00:26.026" out="00:00:26.526">
   <property name="kdenlive:id">4</property>
  </entry>
  <entry producer="chain1" in="00:00:26.568" out="00:00:27.069">
   <property name="kdenlive:id">4</property>
  </entry>
  <entry producer="chain1" in="00:00:27.110" out="00:00:27.903">
   <property name="kdenlive:id">4</property>
  </entry>
  <entry producer="chain1" in="00:00:27.945" out="00:00:28.654">
   <property name="kdenlive:id">4</property>
  </entry>
  <entry producer="chain1" in="00:00:28.695" out="00:00:29.279">
   <property name="kdenlive:id">4</property>
  </entry>
  <entry producer="chain1" in="00:00:29.321" out="00:00:29.696">
   <property name="kdenlive:id">4</property>
  </entry>
  <entry producer="chain1" in="00:00:29.738" out="00:00:30.739">
   <property name="kdenlive:id">4</property>
  </entry>
  <entry producer="chain1" in="00:00:30.781" out="00:00:31.448">
   <property name="kdenlive:id">4</property>
  </entry>
  <entry producer="chain1" in="00:00:31.490" out="00:00:32.324">
   <property name="kdenlive:id">4</property>
  </entry>
  <entry producer="chain1" in="00:00:32.366" out="00:00:32.866">
   <property name="kdenlive:id">4</property>
  </entry>
  <entry producer="chain1" in="00:00:32.908" out="00:00:33.742">
   <property name="kdenlive:id">4</property>
  </entry>
  <entry producer="chain1" in="00:00:33.784" out="00:00:35.494">
   <property name="kdenlive:id">4</property>
  </entry>
  <entry producer="chain1" in="00:00:35.535" out="00:00:36.578">
   <property name="kdenlive:id">4</property>
  </entry>
  <entry producer="chain1" in="00:00:36.620" out="00:00:38.372">
   <property name="kdenlive:id">4</property>
  </entry>
  <entry producer="chain1" in="00:00:38.413" out="00:00:39.248">
   <property name="kdenlive:id">4</property>
  </entry>
  <entry producer="chain1" in="00:00:39.289" out="00:00:39.998">
   <property name="kdenlive:id">4</property>
  </entry>
  <entry producer="chain1" in="00:00:40.040" out="00:00:40.916">
   <property name="kdenlive:id">4</property>
  </entry>
  <entry producer="chain1" in="00:00:40.958" out="00:00:41.583">
   <property name="kdenlive:id">4</property>
  </entry>
  <entry producer="chain1" in="00:00:41.625" out="00:00:42.042">
   <property name="kdenlive:id">4</property>
  </entry>
  <entry producer="chain1" in="00:00:42.084" out="00:00:43.877">
   <property name="kdenlive:id">4</property>
  </entry>
  <entry producer="chain1" in="00:00:43.919" out="00:00:44.753">
   <property name="kdenlive:id">4</property>
  </entry>
  <entry producer="chain1" in="00:00:44.795" out="00:00:44.878">
   <property name="kdenlive:id">4</property>
  </entry>
  <entry producer="chain1" in="00:00:44.920" out="00:00:44.962">
   <property name="kdenlive:id">4</property>
  </entry>
  <entry producer="chain1" in="00:00:45.003" out="00:00:45.170">
   <property name="kdenlive:id">4</property>
  </entry>
  <entry producer="chain1" in="00:00:45.212" out="00:00:46.088">
   <property name="kdenlive:id">4</property>
  </entry>
  <entry producer="chain1" in="00:00:46.129" out="00:00:46.838">
   <property name="kdenlive:id">4</property>
  </entry>
  <entry producer="chain1" in="00:00:46.880" out="00:00:47.881">
   <property name="kdenlive:id">4</property>
  </entry>
  <entry producer="chain1" in="00:00:47.923" out="00:00:48.924">
   <property name="kdenlive:id">4</property>
  </entry>
  <entry producer="chain1" in="00:00:48.966" out="00:00:49.716">
   <property name="kdenlive:id">4</property>
  </entry>
  <entry producer="chain1" in="00:00:49.758" out="00:00:49.841">
   <property name="kdenlive:id">4</property>
  </entry>
  <entry producer="chain1" in="00:00:49.883" out="00:00:49.967">
   <property name="kdenlive:id">4</property>
  </entry>
  <entry producer="chain1" in="00:00:50.008" out="00:00:50.092">
   <property name="kdenlive:id">4</property>
  </entry>
  <entry producer="chain1" in="00:00:50.133" out="00:00:50.342">
   <property name="kdenlive:id">4</property>
  </entry>
  <entry producer="chain1" in="00:00:50.384" out="00:00:50.550">
   <property name="kdenlive:id">4</property>
  </entry>
  <entry producer="chain1" in="00:00:50.592" out="00:00:52.094">
   <property name="kdenlive:id">4</property>
  </entry>
  <entry producer="chain1" in="00:00:52.135" out="00:00:52.219">
   <property name="kdenlive:id">4</property>
  </entry>
  <entry producer="chain1" in="00:00:52.261" out="00:00:52.469">
   <property name="kdenlive:id">4</property>
  </entry>
  <entry producer="chain1" in="00:00:52.511" out="00:00:53.178">
   <property name="kdenlive:id">4</property>
  </entry>
  <entry producer="chain1" in="00:00:53.220" out="00:00:53.887">
   <property name="kdenlive:id">4</property>
  </entry>
  <entry producer="chain1" in="00:00:53.929" out="00:00:53.971">
   <property name="kdenlive:id">4</property>
  </entry>
  <entry producer="chain1" in="00:00:54.012" out="00:00:54.263">
   <property name="kdenlive:id">4</property>
  </entry>
  <entry producer="chain1" in="00:00:54.304" out="00:00:54.429">
   <property name="kdenlive:id">4</property>
  </entry>
  <entry producer="chain1" in="00:00:54.471" out="00:00:54.680">
   <property name="kdenlive:id">4</property>
  </entry>
  <entry producer="chain1" in="00:00:54.721" out="00:00:56.348">
   <property name="kdenlive:id">4</property>
  </entry>
  <entry producer="chain1" in="00:00:56.390" out="00:00:58.976">
   <property name="kdenlive:id">4</property>
  </entry>
  <entry producer="chain1" in="00:00:59.017" out="00:01:00.292">
   <property name="kdenlive:id">4</property>
  </entry>
  <entry producer="chain1" in="00:01:00.334" out="00:01:01.126">
   <property name="kdenlive:id">4</property>
  </entry>
  <entry producer="chain1" in="00:01:01.168" out="00:01:02.669">
   <property name="kdenlive:id">4</property>
  </entry>
  <entry producer="chain1" in="00:01:02.711" out="00:01:03.462">
   <property name="kdenlive:id">4</property>
  </entry>
  <entry producer="chain1" in="00:01:03.503" out="00:01:05.088">
   <property name="kdenlive:id">4</property>
  </entry>
  <entry producer="chain1" in="00:01:05.130" out="00:01:06.423">
   <property name="kdenlive:id">4</property>
  </entry>
  <entry producer="chain1" in="00:01:06.465" out="00:01:06.882">
   <property name="kdenlive:id">4</property>
  </entry>
  <entry producer="chain1" in="00:01:06.924" out="00:01:07.424">
   <property name="kdenlive:id">4</property>
  </entry>
  <entry producer="chain1" in="00:01:07.466" out="00:01:10.302">
   <property name="kdenlive:id">4</property>
  </entry>
  <entry producer="chain1" in="00:01:10.344" out="00:01:12.596">
   <property name="kdenlive:id">4</property>
  </entry>
  <entry producer="chain1" in="00:01:12.638" out="00:01:13.597">
   <property name="kdenlive:id">4</property>
  </entry>
  <entry producer="chain1" in="00:01:13.639" out="00:01:15.098">
   <property name="kdenlive:id">4</property>
  </entry>
  <entry producer="chain1" in="00:01:15.140" out="00:01:15.474">
   <property name="kdenlive:id">4</property>
  </entry>
  <entry producer="chain1" in="00:01:15.515" out="00:01:15.891">
   <property name="kdenlive:id">4</property>
  </entry>
  <entry producer="chain1" in="00:01:15.933" out="00:01:16.934">
   <property name="kdenlive:id">4</property>
  </entry>
  <entry producer="chain1" in="00:01:16.975" out="00:01:18.268">
   <property name="kdenlive:id">4</property>
  </entry>
  <entry producer="chain1" in="00:01:18.310" out="00:01:19.436">
   <property name="kdenlive:id">4</property>
  </entry>
  <entry producer="chain1" in="00:01:19.478" out="00:01:20.354">
   <property name="kdenlive:id">4</property>
  </entry>
  <entry producer="chain1" in="00:01:20.395" out="00:01:22.147">
   <property name="kdenlive:id">4</property>
  </entry>
  <entry producer="chain1" in="00:01:22.189" out="00:01:24.274">
   <property name="kdenlive:id">4</property>
  </entry>
  <entry producer="chain1" in="00:01:24.316" out="00:01:26.151">
   <property name="kdenlive:id">4</property>
  </entry>
  <entry producer="chain1" in="00:01:26.193" out="00:01:27.945">
   <property name="kdenlive:id">4</property>
  </entry>
  <entry producer="chain1" in="00:01:27.986" out="00:01:28.528">
   <property name="kdenlive:id">4</property>
  </entry>
  <entry producer="chain1" in="00:01:28.570" out="00:01:28.987">
   <property name="kdenlive:id">4</property>
  </entry>
  <entry producer="chain1" in="00:01:29.029" out="00:01:29.988">
   <property name="kdenlive:id">4</property>
  </entry>
  <entry producer="chain1" in="00:01:30.030" out="00:01:31.531">
   <property name="kdenlive:id">4</property>
  </entry>
  <entry producer="chain1" in="00:01:31.573" out="00:01:31.907">
   <property name="kdenlive:id">4</property>
  </entry>
  <entry producer="chain1" in="00:01:31.949" out="00:01:32.157">
   <property name="kdenlive:id">4</property>
  </entry>
  <entry producer="chain1" in="00:01:32.199" out="00:01:32.741">
   <property name="kdenlive:id">4</property>
  </entry>
  <entry producer="chain1" in="00:01:32.783" out="00:01:33.742">
   <property name="kdenlive:id">4</property>
  </entry>
  <entry producer="chain1" in="00:01:33.784" out="00:01:34.785">
   <property name="kdenlive:id">4</property>
  </entry>
  <entry producer="chain1" in="00:01:34.826" out="00:01:35.702">
   <property name="kdenlive:id">4</property>
  </entry>
  <entry producer="chain1" in="00:01:35.744" out="00:01:36.578">
   <property name="kdenlive:id">4</property>
  </entry>
  <entry producer="chain1" in="00:01:36.620" out="00:01:37.120">
   <property name="kdenlive:id">4</property>
  </entry>
  <entry producer="chain1" in="00:01:37.162" out="00:01:37.955">
   <property name="kdenlive:id">4</property>
  </entry>
  <entry producer="chain1" in="00:01:37.996" out="00:01:38.997">
   <property name="kdenlive:id">4</property>
  </entry>
  <entry producer="chain1" in="00:01:39.039" out="00:01:39.414">
   <property name="kdenlive:id">4</property>
  </entry>
  <entry producer="chain1" in="00:01:39.456" out="00:01:40.082">
   <property name="kdenlive:id">4</property>
  </entry>
  <entry producer="chain1" in="00:01:40.123" out="00:01:40.374">
   <property name="kdenlive:id">4</property>
  </entry>
  <entry producer="chain1" in="00:01:40.415" out="00:01:40.582">
   <property name="kdenlive:id">4</property>
  </entry>
  <entry producer="chain1" in="00:01:40.624" out="00:01:41.124">
   <property name="kdenlive:id">4</property>
  </entry>
  <entry producer="chain1" in="00:01:41.166" out="00:01:41.875">
   <property name="kdenlive:id">4</property>
  </entry>
  <entry producer="chain1" in="00:01:41.917" out="00:01:42.334">
   <property name="kdenlive:id">4</property>
  </entry>
  <entry producer="chain1" in="00:01:42.376" out="00:01:42.834">
   <property name="kdenlive:id">4</property>
  </entry>
  <entry producer="chain1" in="00:01:42.876" out="00:01:43.085">
   <property name="kdenlive:id">4</property>
  </entry>
  <entry producer="chain1" in="00:01:43.126" out="00:01:43.335">
   <property name="kdenlive:id">4</property>
  </entry>
  <entry producer="chain1" in="00:01:43.377" out="00:01:44.670">
   <property name="kdenlive:id">4</property>
  </entry>
  <entry producer="chain1" in="00:01:44.711" out="00:01:46.630">
   <property name="kdenlive:id">4</property>
  </entry>
  <entry producer="chain1" in="00:01:46.672" out="00:01:46.797">
   <property name="kdenlive:id">4</property>
  </entry>
  <entry producer="chain1" in="00:01:46.838" out="00:01:47.089">
   <property name="kdenlive:id">4</property>
  </entry>
  <entry producer="chain1" in="00:01:47.130" out="00:01:47.297">
   <property name="kdenlive:id">4</property>
  </entry>
  <entry producer="chain1" in="00:01:47.339" out="00:01:47.464">
   <property name="kdenlive:id">4</property>
  </entry>
  <entry producer="chain1" in="00:01:47.506" out="00:01:48.465">
   <property name="kdenlive:id">4</property>
  </entry>
  <entry producer="chain1" in="00:01:48.507" out="00:01:48.966">
   <property name="kdenlive:id">4</property>
  </entry>
  <entry producer="chain1" in="00:01:49.007" out="00:01:49.383">
   <property name="kdenlive:id">4</property>
  </entry>
  <entry producer="chain1" in="00:01:49.424" out="00:01:53.303">
   <property name="kdenlive:id">4</property>
  </entry>
  <entry producer="chain1" in="00:01:53.345" out="00:01:55.597">
   <property name="kdenlive:id">4</property>
  </entry>
  <entry producer="chain1" in="00:01:55.639" out="00:01:56.556">
   <property name="kdenlive:id">4</property>
  </entry>
  <entry producer="chain1" in="00:01:56.598" out="00:01:57.975">
   <property name="kdenlive:id">4</property>
  </entry>
  <entry producer="chain1" in="00:01:58.016" out="00:01:58.725">
   <property name="kdenlive:id">4</property>
  </entry>
  <entry producer="chain1" in="00:01:58.767" out="00:01:59.142">
   <property name="kdenlive:id">4</property>
  </entry>
  <entry producer="chain1" in="00:01:59.184" out="00:01:59.726">
   <property name="kdenlive:id">4</property>
  </entry>
  <entry producer="chain1" in="00:01:59.768" out="00:01:59.893">
   <property name="kdenlive:id">4</property>
  </entry>
  <entry producer="chain1" in="00:01:59.935" out="00:02:00.000">
   <property name="kdenlive:id">4</property>
  </entry>
  <entry producer="chain1" in="00:02:00.042" out="00:02:00.167">
   <property name="kdenlive:id">4</property>
  </entry>
  <entry producer="chain1" in="00:02:00.209" out="00:02:01.251">
   <property name="kdenlive:id">4</property>
  </entry>
  <entry producer="chain1" in="00:02:01.293" out="00:02:01.543">
   <property name="kdenlive:id">4</property>
  </entry>
  <entry producer="chain1" in="00:02:01.585" out="00:02:02.294">
   <property name="kdenlive:id">4</property>
  </entry>
  <entry producer="chain1" in="00:02:02.336" out="00:02:03.003">
   <property name="kdenlive:id">4</property>
  </entry>
  <entry producer="chain1" in="00:02:03.045" out="00:02:03.337">
   <property name="kdenlive:id">4</property>
  </entry>
  <entry producer="chain1" in="00:02:03.378" out="00:02:03.795">
   <property name="kdenlive:id">4</property>
  </entry>
  <entry producer="chain1" in="00:02:03.837" out="00:02:04.379">
   <property name="kdenlive:id">4</property>
  </entry>
  <entry producer="chain1" in="00:02:04.421" out="00:02:04.755">
   <property name="kdenlive:id">4</property>
  </entry>
  <entry producer="chain1" in="00:02:04.796" out="00:02:05.005">
   <property name="kdenlive:id">4</property>
  </entry>
  <entry producer="chain1" in="00:02:05.047" out="00:02:05.339">
   <property name="kdenlive:id">4</property>
  </entry>
  <entry producer="chain1" in="00:02:05.380" out="00:02:05.631">
   <property name="kdenlive:id">4</property>
  </entry>
  <entry producer="chain1" in="00:02:05.672" out="00:02:05.714">
   <property name="kdenlive:id">4</property>
  </entry>
  <entry producer="chain1" in="00:02:05.756" out="00:02:05.756">
   <property name="kdenlive:id">4</property>
  </entry>
  <entry producer="chain1" in="00:02:05.797" out="00:02:05.797">
   <property name="kdenlive:id">4</property>
  </entry>
  <entry producer="chain1" in="00:02:05.839" out="00:02:05.839">
   <property name="kdenlive:id">4</property>
  </entry>
  <entry producer="chain1" in="00:02:05.881" out="00:02:05.881">
   <property name="kdenlive:id">4</property>
  </entry>
  <entry producer="chain1" in="00:02:05.923" out="00:02:05.964">
   <property name="kdenlive:id">4</property>
  </entry>
  <entry producer="chain1" in="00:02:06.006" out="00:02:06.006">
   <property name="kdenlive:id">4</property>
  </entry>
  <entry producer="chain1" in="00:02:06.048" out="00:02:06.215">
   <property name="kdenlive:id">4</property>
  </entry>
  <entry producer="chain1" in="00:02:06.256" out="00:02:06.423">
   <property name="kdenlive:id">4</property>
  </entry>
  <entry producer="chain1" in="00:02:06.465" out="00:02:10.052">
   <property name="kdenlive:id">4</property>
  </entry>
  <entry producer="chain1" in="00:02:10.093" out="00:02:10.677">
   <property name="kdenlive:id">4</property>
  </entry>
  <entry producer="chain1" in="00:02:10.719" out="00:02:12.721">
   <property name="kdenlive:id">4</property>
  </entry>
  <entry producer="chain1" in="00:02:12.763" out="00:02:14.806">
   <property name="kdenlive:id">4</property>
  </entry>
  <entry producer="chain1" in="00:02:14.848" out="00:02:16.266">
   <property name="kdenlive:id">4</property>
  </entry>
  <entry producer="chain1" in="00:02:16.308" out="00:02:18.560">
   <property name="kdenlive:id">4</property>
  </entry>
  <entry producer="chain1" in="00:02:18.602" out="00:02:19.978">
   <property name="kdenlive:id">4</property>
  </entry>
  <entry producer="chain1" in="00:02:20.020" out="00:02:21.647">
   <property name="kdenlive:id">4</property>
  </entry>
  <entry producer="chain1" in="00:02:21.688" out="00:02:23.523">
   <property name="kdenlive:id">4</property>
  </entry>
  <entry producer="chain1" in="00:02:23.565" out="00:02:25.692">
   <property name="kdenlive:id">4</property>
  </entry>
  <entry producer="chain1" in="00:02:25.734" out="00:02:26.652">
   <property name="kdenlive:id">4</property>
  </entry>
  <entry producer="chain1" in="00:02:26.693" out="00:02:27.486">
   <property name="kdenlive:id">4</property>
  </entry>
  <entry producer="chain1" in="00:02:27.527" out="00:02:28.862">
   <property name="kdenlive:id">4</property>
  </entry>
  <entry producer="chain1" in="00:02:28.904" out="00:02:29.613">
   <property name="kdenlive:id">4</property>
  </entry>
  <entry producer="chain1" in="00:02:29.655" out="00:02:30.447">
   <property name="kdenlive:id">4</property>
  </entry>
  <entry producer="chain1" in="00:02:30.489" out="00:02:31.031">
   <property name="kdenlive:id">4</property>
  </entry>
  <entry producer="chain1" in="00:02:31.073" out="00:02:31.657">
   <property name="kdenlive:id">4</property>
  </entry>
  <entry producer="chain1" in="00:02:31.698" out="00:02:40.165">
   <property name="kdenlive:id">4</property>
  </entry>
  <entry producer="chain1" in="00:02:40.207" out="00:02:42.209">
   <property name="kdenlive:id">4</property>
  </entry>
  <entry producer="chain1" in="00:02:42.251" out="00:02:44.044">
   <property name="kdenlive:id">4</property>
  </entry>
  <entry producer="chain1" in="00:02:44.086" out="00:02:44.878">
   <property name="kdenlive:id">4</property>
  </entry>
  <entry producer="chain1" in="00:02:44.920" out="00:02:45.629">
   <property name="kdenlive:id">4</property>
  </entry>
  <entry producer="chain1" in="00:02:45.671" out="00:02:46.004">
   <property name="kdenlive:id">4</property>
  </entry>
  <entry producer="chain1" in="00:02:46.046" out="00:02:46.463">
   <property name="kdenlive:id">4</property>
  </entry>
  <entry producer="chain1" in="00:02:46.505" out="00:02:47.464">
   <property name="kdenlive:id">4</property>
  </entry>
  <entry producer="chain1" in="00:02:47.506" out="00:02:48.006">
   <property name="kdenlive:id">4</property>
  </entry>
  <entry producer="chain1" in="00:02:48.048" out="00:02:48.590">
   <property name="kdenlive:id">4</property>
  </entry>
  <entry producer="chain1" in="00:02:48.632" out="00:02:49.216">
   <property name="kdenlive:id">4</property>
  </entry>
  <entry producer="chain1" in="00:02:49.258" out="00:02:49.633">
   <property name="kdenlive:id">4</property>
  </entry>
  <entry producer="chain1" in="00:02:49.675" out="00:02:50.884">
   <property name="kdenlive:id">4</property>
  </entry>
  <entry producer="chain1" in="00:02:50.926" out="00:02:52.219">
   <property name="kdenlive:id">4</property>
  </entry>
  <entry producer="chain1" in="00:02:52.261" out="00:02:52.761">
   <property name="kdenlive:id">4</property>
  </entry>
  <entry producer="chain1" in="00:02:52.803" out="00:02:54.263">
   <property name="kdenlive:id">4</property>
  </entry>
  <entry producer="chain1" in="00:02:54.304" out="00:02:55.889">
   <property name="kdenlive:id">4</property>
  </entry>
  <entry producer="chain1" in="00:02:55.931" out="00:02:56.807">
   <property name="kdenlive:id">4</property>
  </entry>
  <entry producer="chain1" in="00:02:56.848" out="00:02:57.766">
   <property name="kdenlive:id">4</property>
  </entry>
  <entry producer="chain1" in="00:02:57.808" out="00:02:58.267">
   <property name="kdenlive:id">4</property>
  </entry>
  <entry producer="chain1" in="00:02:58.308" out="00:02:58.767">
   <property name="kdenlive:id">4</property>
  </entry>
  <entry producer="chain1" in="00:02:58.809" out="00:02:59.142">
   <property name="kdenlive:id">4</property>
  </entry>
  <entry producer="chain1" in="00:02:59.184" out="00:03:00.167">
   <property name="kdenlive:id">4</property>
  </entry>
  <entry producer="chain1" in="00:03:00.209" out="00:03:01.043">
   <property name="kdenlive:id">4</property>
  </entry>
  <entry producer="chain1" in="00:03:01.084" out="00:03:02.628">
   <property name="kdenlive:id">4</property>
  </entry>
  <entry producer="chain1" in="00:03:02.669" out="00:03:04.713">
   <property name="kdenlive:id">4</property>
  </entry>
  <entry producer="chain1" in="00:03:04.755" out="00:03:05.422">
   <property name="kdenlive:id">4</property>
  </entry>
  <entry producer="chain1" in="00:03:05.464" out="00:03:07.549">
   <property name="kdenlive:id">4</property>
  </entry>
  <entry producer="chain1" in="00:03:07.591" out="00:03:08.592">
   <property name="kdenlive:id">4</property>
  </entry>
  <entry producer="chain1" in="00:03:08.634" out="00:03:09.468">
   <property name="kdenlive:id">4</property>
  </entry>
  <entry producer="chain1" in="00:03:09.509" out="00:03:10.302">
   <property name="kdenlive:id">4</property>
  </entry>
  <entry producer="chain1" in="00:03:10.344" out="00:03:10.719">
   <property name="kdenlive:id">4</property>
  </entry>
  <entry producer="chain1" in="00:03:10.761" out="00:03:11.136">
   <property name="kdenlive:id">4</property>
  </entry>
  <entry producer="chain1" in="00:03:11.178" out="00:03:11.470">
   <property name="kdenlive:id">4</property>
  </entry>
  <entry producer="chain1" in="00:03:11.511" out="00:03:12.304">
   <property name="kdenlive:id">4</property>
  </entry>
  <entry producer="chain1" in="00:03:12.346" out="00:03:13.805">
   <property name="kdenlive:id">4</property>
  </entry>
  <entry producer="chain1" in="00:03:13.847" out="00:03:15.432">
   <property name="kdenlive:id">4</property>
  </entry>
  <entry producer="chain1" in="00:03:15.474" out="00:03:16.725">
   <property name="kdenlive:id">4</property>
  </entry>
  <entry producer="chain1" in="00:03:16.767" out="00:03:17.559">
   <property name="kdenlive:id">4</property>
  </entry>
  <entry producer="chain1" in="00:03:17.601" out="00:03:18.810">
   <property name="kdenlive:id">4</property>
  </entry>
  <entry producer="chain1" in="00:03:18.852" out="00:03:19.144">
   <property name="kdenlive:id">4</property>
  </entry>
  <entry producer="chain1" in="00:03:19.186" out="00:03:19.811">
   <property name="kdenlive:id">4</property>
  </entry>
  <entry producer="chain1" in="00:03:19.853" out="00:03:20.687">
   <property name="kdenlive:id">4</property>
  </entry>
  <entry producer="chain1" in="00:03:20.729" out="00:03:22.064">
   <property name="kdenlive:id">4</property>
  </entry>
  <entry producer="chain1" in="00:03:22.105" out="00:03:23.065">
   <property name="kdenlive:id">4</property>
  </entry>
  <entry producer="chain1" in="00:03:23.106" out="00:03:24.942">
   <property name="kdenlive:id">4</property>
  </entry>
  <entry producer="chain1" in="00:03:24.983" out="00:03:25.984">
   <property name="kdenlive:id">4</property>
  </entry>
  <entry producer="chain1" in="00:03:26.026" out="00:03:26.235">
   <property name="kdenlive:id">4</property>
  </entry>
  <entry producer="chain1" in="00:03:26.276" out="00:03:27.444">
   <property name="kdenlive:id">4</property>
  </entry>
  <entry producer="chain1" in="00:03:27.486" out="00:03:28.362">
   <property name="kdenlive:id">4</property>
  </entry>
  <entry producer="chain1" in="00:03:28.403" out="00:03:28.654">
   <property name="kdenlive:id">4</property>
  </entry>
  <entry producer="chain1" in="00:03:28.695" out="00:03:28.904">
   <property name="kdenlive:id">4</property>
  </entry>
  <entry producer="chain1" in="00:03:28.946" out="00:03:29.655">
   <property name="kdenlive:id">4</property>
  </entry>
  <entry producer="chain1" in="00:03:29.696" out="00:03:30.739">
   <property name="kdenlive:id">4</property>
  </entry>
  <entry producer="chain1" in="00:03:30.781" out="00:03:31.198">
   <property name="kdenlive:id">4</property>
  </entry>
  <entry producer="chain1" in="00:03:31.240" out="00:03:31.657">
   <property name="kdenlive:id">4</property>
  </entry>
  <entry producer="chain1" in="00:03:31.698" out="00:03:31.907">
   <property name="kdenlive:id">4</property>
  </entry>
  <entry producer="chain1" in="00:03:31.949" out="00:03:31.990">
   <property name="kdenlive:id">4</property>
  </entry>
  <entry producer="chain1" in="00:03:32.032" out="00:03:32.491">
   <property name="kdenlive:id">4</property>
  </entry>
  <entry producer="chain1" in="00:03:32.532" out="00:03:32.783">
   <property name="kdenlive:id">4</property>
  </entry>
  <entry producer="chain1" in="00:03:32.824" out="00:03:33.075">
   <property name="kdenlive:id">4</property>
  </entry>
  <entry producer="chain1" in="00:03:33.116" out="00:03:33.325">
   <property name="kdenlive:id">4</property>
  </entry>
  <entry producer="chain1" in="00:03:33.367" out="00:03:33.659">
   <property name="kdenlive:id">4</property>
  </entry>
  <entry producer="chain1" in="00:03:33.700" out="00:03:33.992">
   <property name="kdenlive:id">4</property>
  </entry>
  <entry producer="chain1" in="00:03:34.034" out="00:03:34.243">
   <property name="kdenlive:id">4</property>
  </entry>
  <entry producer="chain1" in="00:03:34.284" out="00:03:34.701">
   <property name="kdenlive:id">4</property>
  </entry>
  <entry producer="chain1" in="00:03:34.743" out="00:03:34.910">
   <property name="kdenlive:id">4</property>
  </entry>
  <entry producer="chain1" in="00:03:34.952" out="00:03:35.661">
   <property name="kdenlive:id">4</property>
  </entry>
  <entry producer="chain1" in="00:03:35.702" out="00:03:35.911">
   <property name="kdenlive:id">4</property>
  </entry>
  <entry producer="chain1" in="00:03:35.953" out="00:03:36.453">
   <property name="kdenlive:id">4</property>
  </entry>
  <entry producer="chain1" in="00:03:36.495" out="00:03:36.745">
   <property name="kdenlive:id">4</property>
  </entry>
  <entry producer="chain1" in="00:03:36.787" out="00:03:36.787">
   <property name="kdenlive:id">4</property>
  </entry>
  <entry producer="chain1" in="00:03:36.828" out="00:03:36.954">
   <property name="kdenlive:id">4</property>
  </entry>
  <entry producer="chain1" in="00:03:36.995" out="00:03:37.037">
   <property name="kdenlive:id">4</property>
  </entry>
  <entry producer="chain1" in="00:03:37.079" out="00:03:37.788">
   <property name="kdenlive:id">4</property>
  </entry>
  <entry producer="chain1" in="00:03:37.829" out="00:03:38.205">
   <property name="kdenlive:id">4</property>
  </entry>
  <entry producer="chain1" in="00:03:38.247" out="00:03:38.622">
   <property name="kdenlive:id">4</property>
  </entry>
  <entry producer="chain1" in="00:03:38.664" out="00:03:38.914">
   <property name="kdenlive:id">4</property>
  </entry>
  <entry producer="chain1" in="00:03:38.956" out="00:03:39.164">
   <property name="kdenlive:id">4</property>
  </entry>
  <entry producer="chain1" in="00:03:39.206" out="00:03:59.810">
   <property name="kdenlive:id">4</property>
  </entry>
 </playlist>
 <playlist id="playlist5"/>
 <tractor id="tractor2" in="00:00:00.000" out="00:03:59.810">
  <property name="kdenlive:trackheight">67</property>
  <property name="kdenlive:timeline_active">1</property>
  <property name="kdenlive:collapsed">0</property>
  <property name="kdenlive:thumbs_format"/>
  <property name="kdenlive:audio_rec"/>
  <track hide="audio" producer="playlist4"/>
  <track hide="audio" producer="playlist5"/>
 </tractor>
 <playlist id="playlist6"/>
 <playlist id="playlist7"/>
 <tractor id="tractor3" in="00:00:00.000">
  <property name="kdenlive:trackheight">67</property>
  <property name="kdenlive:timeline_active">1</property>
  <property name="kdenlive:collapsed">0</property>
  <property name="kdenlive:thumbs_format"/>
  <property name="kdenlive:audio_rec"/>
  <track hide="audio" producer="playlist6"/>
  <track hide="audio" producer="playlist7"/>
 </tractor>
 <tractor id="tractor4" in="00:00:00.000" out="00:03:59.810">
  <property name="kdenlive:duration">00:03:59:20</property>
  <property name="kdenlive:maxduration">5750</property>
  <property name="kdenlive:clipname">Sequence 1</property>
  <property name="kdenlive:description"/>
  <property name="kdenlive:uuid">{3051c7ed-4ac8-4422-ae41-c20c7aed0f59}</property>
  <property name="kdenlive:producer_type">17</property>
  <property name="kdenlive:id">3</property>
  <property name="kdenlive:clip_type">0</property>
  <property name="kdenlive:file_hash">4bff02553954d47d487d41387de111d5</property>
  <property name="kdenlive:folderid">2</property>
  <property name="kdenlive:sequenceproperties.activeTrack">1</property>
  <property name="kdenlive:sequenceproperties.audioTarget">1</property>
  <property name="kdenlive:sequenceproperties.disablepreview">0</property>
  <property name="kdenlive:sequenceproperties.documentuuid">{3051c7ed-4ac8-4422-ae41-c20c7aed0f59}</property>
  <property name="kdenlive:sequenceproperties.hasAudio">1</property>
  <property name="kdenlive:sequenceproperties.hasVideo">1</property>
  <property name="kdenlive:sequenceproperties.position">5276</property>
  <property name="kdenlive:sequenceproperties.scrollPos">2864</property>
  <property name="kdenlive:sequenceproperties.tracks">4</property>
  <property name="kdenlive:sequenceproperties.tracksCount">4</property>
  <property name="kdenlive:sequenceproperties.verticalzoom">1</property>
  <property name="kdenlive:sequenceproperties.videoTarget">2</property>
  <property name="kdenlive:sequenceproperties.zonein">0</property>
  <property name="kdenlive:sequenceproperties.zoneout">5750</property>
  <property name="kdenlive:sequenceproperties.zoom">7</property>
  <property name="kdenlive:sequenceproperties.groups">[
    {
        "children": [
            {
                "data": "2:1208",
                "leaf": "clip",
                "type": "Leaf"
            },
            {
                "data": "1:1208",
                "leaf": "clip",
                "type": "Leaf"
            }
        ],
        "type": "AVSplit"
    },
    {
        "children": [
            {
                "data": "2:4098",
                "leaf": "clip",
                "type": "Leaf"
            },
            {
                "data": "1:4098",
                "leaf": "clip",
                "type": "Leaf"
            }
        ],
        "type": "AVSplit"
    },
    {
        "children": [
            {
                "data": "1:1213",
                "leaf": "clip",
                "type": "Leaf"
            },
            {
                "data": "2:1213",
                "leaf": "clip",
                "type": "Leaf"
            }
        ],
        "type": "AVSplit"
    },
    {
        "children": [
            {
                "data": "1:4130",
                "leaf": "clip",
                "type": "Leaf"
            },
            {
                "data": "2:4130",
                "leaf": "clip",
                "type": "Leaf"
            }
        ],
        "type": "AVSplit"
    },
    {
        "children": [
            {
                "data": "2:1250",
                "leaf": "clip",
                "type": "Leaf"
            },
            {
                "data": "1:1250",
                "leaf": "clip",
                "type": "Leaf"
            }
        ],
        "type": "AVSplit"
    },
    {
        "children": [
            {
                "data": "2:1617",
                "leaf": "clip",
                "type": "Leaf"
            },
            {
                "data": "1:1617",
                "leaf": "clip",
                "type": "Leaf"
            }
        ],
        "type": "AVSplit"
    },
    {
        "children": [
            {
                "data": "2:4143",
                "leaf": "clip",
                "type": "Leaf"
            },
            {
                "data": "1:4143",
                "leaf": "clip",
                "type": "Leaf"
            }
        ],
        "type": "AVSplit"
    },
    {
        "children": [
            {
                "data": "1:1686",
                "leaf": "clip",
                "type": "Leaf"
            },
            {
                "data": "2:1686",
                "leaf": "clip",
                "type": "Leaf"
            }
        ],
        "type": "AVSplit"
    },
    {
        "children": [
            {
                "data": "1:1253",
                "leaf": "clip",
                "type": "Leaf"
            },
            {
                "data": "2:1253",
                "leaf": "clip",
                "type": "Leaf"
            }
        ],
        "type": "AVSplit"
    },
    {
        "children": [
            {
                "data": "2:1741",
                "leaf": "clip",
                "type": "Leaf"
            },
            {
                "data": "1:1741",
                "leaf": "clip",
                "type": "Leaf"
            }
        ],
        "type": "AVSplit"
    },
    {
        "children": [
            {
                "data": "1:4179",
                "leaf": "clip",
                "type": "Leaf"
            },
            {
                "data": "2:4179",
                "leaf": "clip",
                "type": "Leaf"
            }
        ],
        "type": "AVSplit"
    },
    {
        "children": [
            {
                "data": "1:1765",
                "leaf": "clip",
                "type": "Leaf"
            },
            {
                "data": "2:1765",
                "leaf": "clip",
                "type": "Leaf"
            }
        ],
        "type": "AVSplit"
    },
    {
        "children": [
            {
                "data": "2:1259",
                "leaf": "clip",
                "type": "Leaf"
            },
            {
                "data": "1:1259",
                "leaf": "clip",
                "type": "Leaf"
            }
        ],
        "type": "AVSplit"
    },
    {
        "children": [
            {
                "data": "1:2066",
                "leaf": "clip",
                "type": "Leaf"
            },
            {
                "data": "2:2066",
                "leaf": "clip",
                "type": "Leaf"
            }
        ],
        "type": "AVSplit"
    },
    {
        "children": [
            {
                "data": "2:2109",
                "leaf": "clip",
                "type": "Leaf"
            },
            {
                "data": "1:2109",
                "leaf": "clip",
                "type": "Leaf"
            }
        ],
        "type": "AVSplit"
    },
    {
        "children": [
            {
                "data": "1:2123",
                "leaf": "clip",
                "type": "Leaf"
            },
            {
                "data": "2:2123",
                "leaf": "clip",
                "type": "Leaf"
            }
        ],
        "type": "AVSplit"
    },
    {
        "children": [
            {
                "data": "2:2134",
                "leaf": "clip",
                "type": "Leaf"
            },
            {
                "data": "1:2134",
                "leaf": "clip",
                "type": "Leaf"
            }
        ],
        "type": "AVSplit"
    },
    {
        "children": [
            {
                "data": "1:2158",
                "leaf": "clip",
                "type": "Leaf"
            },
            {
                "data": "2:2158",
                "leaf": "clip",
                "type": "Leaf"
            }
        ],
        "type": "AVSplit"
    },
    {
        "children": [
            {
                "data": "2:2195",
                "leaf": "clip",
                "type": "Leaf"
            },
            {
                "data": "1:2195",
                "leaf": "clip",
                "type": "Leaf"
            }
        ],
        "type": "AVSplit"
    },
    {
        "children": [
            {
                "data": "1:2204",
                "leaf": "clip",
                "type": "Leaf"
            },
            {
                "data": "2:2204",
                "leaf": "clip",
                "type": "Leaf"
            }
        ],
        "type": "AVSplit"
    },
    {
        "children": [
            {
                "data": "2:2210",
                "leaf": "clip",
                "type": "Leaf"
            },
            {
                "data": "1:2210",
                "leaf": "clip",
                "type": "Leaf"
            }
        ],
        "type": "AVSplit"
    },
    {
        "children": [
            {
                "data": "1:2224",
                "leaf": "clip",
                "type": "Leaf"
            },
            {
                "data": "2:2224",
                "leaf": "clip",
                "type": "Leaf"
            }
        ],
        "type": "AVSplit"
    },
    {
        "children": [
            {
                "data": "2:2248",
                "leaf": "clip",
                "type": "Leaf"
            },
            {
                "data": "1:2248",
                "leaf": "clip",
                "type": "Leaf"
            }
        ],
        "type": "AVSplit"
    },
    {
        "children": [
            {
                "data": "1:2273",
                "leaf": "clip",
                "type": "Leaf"
            },
            {
                "data": "2:2273",
                "leaf": "clip",
                "type": "Leaf"
            }
        ],
        "type": "AVSplit"
    },
    {
        "children": [
            {
                "data": "2:2295",
                "leaf": "clip",
                "type": "Leaf"
            },
            {
                "data": "1:2295",
                "leaf": "clip",
                "type": "Leaf"
            }
        ],
        "type": "AVSplit"
    },
    {
        "children": [
            {
                "data": "1:2316",
                "leaf": "clip",
                "type": "Leaf"
            },
            {
                "data": "2:2316",
                "leaf": "clip",
                "type": "Leaf"
            }
        ],
        "type": "AVSplit"
    },
    {
        "children": [
            {
                "data": "2:2329",
                "leaf": "clip",
                "type": "Leaf"
            },
            {
                "data": "1:2329",
                "leaf": "clip",
                "type": "Leaf"
            }
        ],
        "type": "AVSplit"
    },
    {
        "children": [
            {
                "data": "1:2349",
                "leaf": "clip",
                "type": "Leaf"
            },
            {
                "data": "2:2349",
                "leaf": "clip",
                "type": "Leaf"
            }
        ],
        "type": "AVSplit"
    },
    {
        "children": [
            {
                "data": "2:2374",
                "leaf": "clip",
                "type": "Leaf"
            },
            {
                "data": "1:2374",
                "leaf": "clip",
                "type": "Leaf"
            }
        ],
        "type": "AVSplit"
    },
    {
        "children": [
            {
                "data": "1:2384",
                "leaf": "clip",
                "type": "Leaf"
            },
            {
                "data": "2:2384",
                "leaf": "clip",
                "type": "Leaf"
            }
        ],
        "type": "AVSplit"
    },
    {
        "children": [
            {
                "data": "2:2613",
                "leaf": "clip",
                "type": "Leaf"
            },
            {
                "data": "1:2613",
                "leaf": "clip",
                "type": "Leaf"
            }
        ],
        "type": "AVSplit"
    },
    {
        "children": [
            {
                "data": "1:2623",
                "leaf": "clip",
                "type": "Leaf"
            },
            {
                "data": "2:2623",
                "leaf": "clip",
                "type": "Leaf"
            }
        ],
        "type": "AVSplit"
    },
    {
        "children": [
            {
                "data": "2:2717",
                "leaf": "clip",
                "type": "Leaf"
            },
            {
                "data": "1:2717",
                "leaf": "clip",
                "type": "Leaf"
            }
        ],
        "type": "AVSplit"
    },
    {
        "children": [
            {
                "data": "1:2772",
                "leaf": "clip",
                "type": "Leaf"
            },
            {
                "data": "2:2772",
                "leaf": "clip",
                "type": "Leaf"
            }
        ],
        "type": "AVSplit"
    },
    {
        "children": [
            {
                "data": "2:2795",
                "leaf": "clip",
                "type": "Leaf"
            },
            {
                "data": "1:2795",
                "leaf": "clip",
                "type": "Leaf"
            }
        ],
        "type": "AVSplit"
    },
    {
        "children": [
            {
                "data": "1:2829",
                "leaf": "clip",
                "type": "Leaf"
            },
            {
                "data": "2:2829",
                "leaf": "clip",
                "type": "Leaf"
            }
        ],
        "type": "AVSplit"
    },
    {
        "children": [
            {
                "data": "2:2847",
                "leaf": "clip",
                "type": "Leaf"
            },
            {
                "data": "1:2847",
                "leaf": "clip",
                "type": "Leaf"
            }
        ],
        "type": "AVSplit"
    },
    {
        "children": [
            {
                "data": "1:2857",
                "leaf": "clip",
                "type": "Leaf"
            },
            {
                "data": "2:2857",
                "leaf": "clip",
                "type": "Leaf"
            }
        ],
        "type": "AVSplit"
    },
    {
        "children": [
            {
                "data": "2:2871",
                "leaf": "clip",
                "type": "Leaf"
            },
            {
                "data": "1:2871",
                "leaf": "clip",
                "type": "Leaf"
            }
        ],
        "type": "AVSplit"
    },
    {
        "children": [
            {
                "data": "1:2875",
                "leaf": "clip",
                "type": "Leaf"
            },
            {
                "data": "2:2875",
                "leaf": "clip",
                "type": "Leaf"
            }
        ],
        "type": "AVSplit"
    },
    {
        "children": [
            {
                "data": "2:2878",
                "leaf": "clip",
                "type": "Leaf"
            },
            {
                "data": "1:2878",
                "leaf": "clip",
                "type": "Leaf"
            }
        ],
        "type": "AVSplit"
    },
    {
        "children": [
            {
                "data": "1:2882",
                "leaf": "clip",
                "type": "Leaf"
            },
            {
                "data": "2:2882",
                "leaf": "clip",
                "type": "Leaf"
            }
        ],
        "type": "AVSplit"
    },
    {
        "children": [
            {
                "data": "2:2908",
                "leaf": "clip",
                "type": "Leaf"
            },
            {
                "data": "1:2908",
                "leaf": "clip",
                "type": "Leaf"
            }
        ],
        "type": "AVSplit"
    },
    {
        "children": [
            {
                "data": "1:2601",
                "leaf": "clip",
                "type": "Leaf"
            },
            {
                "data": "2:2601",
                "leaf": "clip",
                "type": "Leaf"
            }
        ],
        "type": "AVSplit"
    },
    {
        "children": [
            {
                "data": "2:2577",
                "leaf": "clip",
                "type": "Leaf"
            },
            {
                "data": "1:2577",
                "leaf": "clip",
                "type": "Leaf"
            }
        ],
        "type": "AVSplit"
    },
    {
        "children": [
            {
                "data": "1:2573",
                "leaf": "clip",
                "type": "Leaf"
            },
            {
                "data": "2:2573",
                "leaf": "clip",
                "type": "Leaf"
            }
        ],
        "type": "AVSplit"
    },
    {
        "children": [
            {
                "data": "2:2568",
                "leaf": "clip",
                "type": "Leaf"
            },
            {
                "data": "1:2568",
                "leaf": "clip",
                "type": "Leaf"
            }
        ],
        "type": "AVSplit"
    },
    {
        "children": [
            {
                "data": "1:2561",
                "leaf": "clip",
                "type": "Leaf"
            },
            {
                "data": "2:2561",
                "leaf": "clip",
                "type": "Leaf"
            }
        ],
        "type": "AVSplit"
    },
    {
        "children": [
            {
                "data": "2:2557",
                "leaf": "clip",
                "type": "Leaf"
            },
            {
                "data": "1:2557",
                "leaf": "clip",
                "type": "Leaf"
            }
        ],
        "type": "AVSplit"
    },
    {
        "children": [
            {
                "data": "1:2510",
                "leaf": "clip",
                "type": "Leaf"
            },
            {
                "data": "2:2510",
                "leaf": "clip",
                "type": "Leaf"
            }
        ],
        "type": "AVSplit"
    },
    {
        "children": [
            {
                "data": "2:2478",
                "leaf": "clip",
                "type": "Leaf"
            },
            {
                "data": "1:2478",
                "leaf": "clip",
                "type": "Leaf"
            }
        ],
        "type": "AVSplit"
    },
    {
        "children": [
            {
                "data": "1:2472",
                "leaf": "clip",
                "type": "Leaf"
            },
            {
                "data": "2:2472",
                "leaf": "clip",
                "type": "Leaf"
            }
        ],
        "type": "AVSplit"
    },
    {
        "children": [
            {
                "data": "2:2466",
                "leaf": "clip",
                "type": "Leaf"
            },
            {
                "data": "1:2466",
                "leaf": "clip",
                "type": "Leaf"
            }
        ],
        "type": "AVSplit"
    },
    {
        "children": [
            {
                "data": "1:2454",
                "leaf": "clip",
                "type": "Leaf"
            },
            {
                "data": "2:2454",
                "leaf": "clip",
                "type": "Leaf"
            }
        ],
        "type": "AVSplit"
    },
    {
        "children": [
            {
                "data": "2:2443",
                "leaf": "clip",
                "type": "Leaf"
            },
            {
                "data": "1:2443",
                "leaf": "clip",
                "type": "Leaf"
            }
        ],
        "type": "AVSplit"
    },
    {
        "children": [
            {
                "data": "1:2425",
                "leaf": "clip",
                "type": "Leaf"
            },
            {
                "data": "2:2425",
                "leaf": "clip",
                "type": "Leaf"
            }
        ],
        "type": "AVSplit"
    },
    {
        "children": [
            {
                "data": "2:2412",
                "leaf": "clip",
                "type": "Leaf"
            },
            {
                "data": "1:2412",
                "leaf": "clip",
                "type": "Leaf"
            }
        ],
        "type": "AVSplit"
    },
    {
        "children": [
            {
                "data": "1:2407",
                "leaf": "clip",
                "type": "Leaf"
            },
            {
                "data": "2:2407",
                "leaf": "clip",
                "type": "Leaf"
            }
        ],
        "type": "AVSplit"
    },
    {
        "children": [
            {
                "data": "2:2400",
                "leaf": "clip",
                "type": "Leaf"
            },
            {
                "data": "1:2400",
                "leaf": "clip",
                "type": "Leaf"
            }
        ],
        "type": "AVSplit"
    },
    {
        "children": [
            {
                "data": "1:1604",
                "leaf": "clip",
                "type": "Leaf"
            },
            {
                "data": "2:1604",
                "leaf": "clip",
                "type": "Leaf"
            }
        ],
        "type": "AVSplit"
    },
    {
        "children": [
            {
                "data": "2:1593",
                "leaf": "clip",
                "type": "Leaf"
            },
            {
                "data": "1:1593",
                "leaf": "clip",
                "type": "Leaf"
            }
        ],
        "type": "AVSplit"
    },
    {
        "children": [
            {
                "data": "1:1561",
                "leaf": "clip",
                "type": "Leaf"
            },
            {
                "data": "2:1561",
                "leaf": "clip",
                "type": "Leaf"
            }
        ],
        "type": "AVSplit"
    },
    {
        "children": [
            {
                "data": "2:1522",
                "leaf": "clip",
                "type": "Leaf"
            },
            {
                "data": "1:1522",
                "leaf": "clip",
                "type": "Leaf"
            }
        ],
        "type": "AVSplit"
    },
    {
        "children": [
            {
                "data": "1:1503",
                "leaf": "clip",
                "type": "Leaf"
            },
            {
                "data": "2:1503",
                "leaf": "clip",
                "type": "Leaf"
            }
        ],
        "type": "AVSplit"
    },
    {
        "children": [
            {
                "data": "2:1466",
                "leaf": "clip",
                "type": "Leaf"
            },
            {
                "data": "1:1466",
                "leaf": "clip",
                "type": "Leaf"
            }
        ],
        "type": "AVSplit"
    },
    {
        "children": [
            {
                "data": "1:1446",
                "leaf": "clip",
                "type": "Leaf"
            },
            {
                "data": "2:1446",
                "leaf": "clip",
                "type": "Leaf"
            }
        ],
        "type": "AVSplit"
    },
    {
        "children": [
            {
                "data": "2:1415",
                "leaf": "clip",
                "type": "Leaf"
            },
            {
                "data": "1:1415",
                "leaf": "clip",
                "type": "Leaf"
            }
        ],
        "type": "AVSplit"
    },
    {
        "children": [
            {
                "data": "1:1352",
                "leaf": "clip",
                "type": "Leaf"
            },
            {
                "data": "2:1352",
                "leaf": "clip",
                "type": "Leaf"
            }
        ],
        "type": "AVSplit"
    },
    {
        "children": [
            {
                "data": "2:942",
                "leaf": "clip",
                "type": "Leaf"
            },
            {
                "data": "1:942",
                "leaf": "clip",
                "type": "Leaf"
            }
        ],
        "type": "AVSplit"
    },
    {
        "children": [
            {
                "data": "1:960",
                "leaf": "clip",
                "type": "Leaf"
            },
            {
                "data": "2:960",
                "leaf": "clip",
                "type": "Leaf"
            }
        ],
        "type": "AVSplit"
    },
    {
        "children": [
            {
                "data": "2:982",
                "leaf": "clip",
                "type": "Leaf"
            },
            {
                "data": "1:982",
                "leaf": "clip",
                "type": "Leaf"
            }
        ],
        "type": "AVSplit"
    },
    {
        "children": [
            {
                "data": "1:998",
                "leaf": "clip",
                "type": "Leaf"
            },
            {
                "data": "2:998",
                "leaf": "clip",
                "type": "Leaf"
            }
        ],
        "type": "AVSplit"
    },
    {
        "children": [
            {
                "data": "2:1009",
                "leaf": "clip",
                "type": "Leaf"
            },
            {
                "data": "1:1009",
                "leaf": "clip",
                "type": "Leaf"
            }
        ],
        "type": "AVSplit"
    },
    {
        "children": [
            {
                "data": "1:1053",
                "leaf": "clip",
                "type": "Leaf"
            },
            {
                "data": "2:1053",
                "leaf": "clip",
                "type": "Leaf"
            }
        ],
        "type": "AVSplit"
    },
    {
        "children": [
            {
                "data": "2:1074",
                "leaf": "clip",
                "type": "Leaf"
            },
            {
                "data": "1:1074",
                "leaf": "clip",
                "type": "Leaf"
            }
        ],
        "type": "AVSplit"
    },
    {
        "children": [
            {
                "data": "1:1077",
                "leaf": "clip",
                "type": "Leaf"
            },
            {
                "data": "2:1077",
                "leaf": "clip",
                "type": "Leaf"
            }
        ],
        "type": "AVSplit"
    },
    {
        "children": [
            {
                "data": "2:1079",
                "leaf": "clip",
                "type": "Leaf"
            },
            {
                "data": "1:1079",
                "leaf": "clip",
                "type": "Leaf"
            }
        ],
        "type": "AVSplit"
    },
    {
        "children": [
            {
                "data": "1:1084",
                "leaf": "clip",
                "type": "Leaf"
            },
            {
                "data": "2:1084",
                "leaf": "clip",
                "type": "Leaf"
            }
        ],
        "type": "AVSplit"
    },
    {
        "children": [
            {
                "data": "2:1106",
                "leaf": "clip",
                "type": "Leaf"
            },
            {
                "data": "1:1106",
                "leaf": "clip",
                "type": "Leaf"
            }
        ],
        "type": "AVSplit"
    },
    {
        "children": [
            {
                "data": "1:1124",
                "leaf": "clip",
                "type": "Leaf"
            },
            {
                "data": "2:1124",
                "leaf": "clip",
                "type": "Leaf"
            }
        ],
        "type": "AVSplit"
    },
    {
        "children": [
            {
                "data": "2:1149",
                "leaf": "clip",
                "type": "Leaf"
            },
            {
                "data": "1:1149",
                "leaf": "clip",
                "type": "Leaf"
            }
        ],
        "type": "AVSplit"
    },
    {
        "children": [
            {
                "data": "1:1174",
                "leaf": "clip",
                "type": "Leaf"
            },
            {
                "data": "2:1174",
                "leaf": "clip",
                "type": "Leaf"
            }
        ],
        "type": "AVSplit"
    },
    {
        "children": [
            {
                "data": "2:1193",
                "leaf": "clip",
                "type": "Leaf"
            },
            {
                "data": "1:1193",
                "leaf": "clip",
                "type": "Leaf"
            }
        ],
        "type": "AVSplit"
    },
    {
        "children": [
            {
                "data": "1:1196",
                "leaf": "clip",
                "type": "Leaf"
            },
            {
                "data": "2:1196",
                "leaf": "clip",
                "type": "Leaf"
            }
        ],
        "type": "AVSplit"
    },
    {
        "children": [
            {
                "data": "1:4497",
                "leaf": "clip",
                "type": "Leaf"
            },
            {
                "data": "2:4497",
                "leaf": "clip",
                "type": "Leaf"
            }
        ],
        "type": "AVSplit"
    },
    {
        "children": [
            {
                "data": "2:4446",
                "leaf": "clip",
                "type": "Leaf"
            },
            {
                "data": "1:4446",
                "leaf": "clip",
                "type": "Leaf"
            }
        ],
        "type": "AVSplit"
    },
    {
        "children": [
            {
                "data": "1:4429",
                "leaf": "clip",
                "type": "Leaf"
            },
            {
                "data": "2:4429",
                "leaf": "clip",
                "type": "Leaf"
            }
        ],
        "type": "AVSplit"
    },
    {
        "children": [
            {
                "data": "2:4379",
                "leaf": "clip",
                "type": "Leaf"
            },
            {
                "data": "1:4379",
                "leaf": "clip",
                "type": "Leaf"
            }
        ],
        "type": "AVSplit"
    },
    {
        "children": [
            {
                "data": "1:4341",
                "leaf": "clip",
                "type": "Leaf"
            },
            {
                "data": "2:4341",
                "leaf": "clip",
                "type": "Leaf"
            }
        ],
        "type": "AVSplit"
    },
    {
        "children": [
            {
                "data": "2:1312",
                "leaf": "clip",
                "type": "Leaf"
            },
            {
                "data": "1:1312",
                "leaf": "clip",
                "type": "Leaf"
            }
        ],
        "type": "AVSplit"
    },
    {
        "children": [
            {
                "data": "2:4320",
                "leaf": "clip",
                "type": "Leaf"
            },
            {
                "data": "1:4320",
                "leaf": "clip",
                "type": "Leaf"
            }
        ],
        "type": "AVSplit"
    },
    {
        "children": [
            {
                "data": "1:1306",
                "leaf": "clip",
                "type": "Leaf"
            },
            {
                "data": "2:1306",
                "leaf": "clip",
                "type": "Leaf"
            }
        ],
        "type": "AVSplit"
    },
    {
        "children": [
            {
                "data": "1:4296",
                "leaf": "clip",
                "type": "Leaf"
            },
            {
                "data": "2:4296",
                "leaf": "clip",
                "type": "Leaf"
            }
        ],
        "type": "AVSplit"
    },
    {
        "children": [
            {
                "data": "2:1302",
                "leaf": "clip",
                "type": "Leaf"
            },
            {
                "data": "1:1302",
                "leaf": "clip",
                "type": "Leaf"
            }
        ],
        "type": "AVSplit"
    },
    {
        "children": [
            {
                "data": "2:4287",
                "leaf": "clip",
                "type": "Leaf"
            },
            {
                "data": "1:4287",
                "leaf": "clip",
                "type": "Leaf"
            }
        ],
        "type": "AVSplit"
    },
    {
        "children": [
            {
                "data": "1:1295",
                "leaf": "clip",
                "type": "Leaf"
            },
            {
                "data": "2:1295",
                "leaf": "clip",
                "type": "Leaf"
            }
        ],
        "type": "AVSplit"
    },
    {
        "children": [
            {
                "data": "1:4275",
                "leaf": "clip",
                "type": "Leaf"
            },
            {
                "data": "2:4275",
                "leaf": "clip",
                "type": "Leaf"
            }
        ],
        "type": "AVSplit"
    },
    {
        "children": [
            {
                "data": "1:921",
                "leaf": "clip",
                "type": "Leaf"
            },
            {
                "data": "2:921",
                "leaf": "clip",
                "type": "Leaf"
            }
        ],
        "type": "AVSplit"
    },
    {
        "children": [
            {
                "data": "2:502",
                "leaf": "clip",
                "type": "Leaf"
            },
            {
                "data": "1:502",
                "leaf": "clip",
                "type": "Leaf"
            }
        ],
        "type": "AVSplit"
    },
    {
        "children": [
            {
                "data": "1:447",
                "leaf": "clip",
                "type": "Leaf"
            },
            {
                "data": "2:447",
                "leaf": "clip",
                "type": "Leaf"
            }
        ],
        "type": "AVSplit"
    },
    {
        "children": [
            {
                "data": "2:426",
                "leaf": "clip",
                "type": "Leaf"
            },
            {
                "data": "1:426",
                "leaf": "clip",
                "type": "Leaf"
            }
        ],
        "type": "AVSplit"
    },
    {
        "children": [
            {
                "data": "1:403",
                "leaf": "clip",
                "type": "Leaf"
            },
            {
                "data": "2:403",
                "leaf": "clip",
                "type": "Leaf"
            }
        ],
        "type": "AVSplit"
    },
    {
        "children": [
            {
                "data": "2:385",
                "leaf": "clip",
                "type": "Leaf"
            },
            {
                "data": "1:385",
                "leaf": "clip",
                "type": "Leaf"
            }
        ],
        "type": "AVSplit"
    },
    {
        "children": [
            {
                "data": "1:290",
                "leaf": "clip",
                "type": "Leaf"
            },
            {
                "data": "2:290",
                "leaf": "clip",
                "type": "Leaf"
            }
        ],
        "type": "AVSplit"
    },
    {
        "children": [
            {
                "data": "2:239",
                "leaf": "clip",
                "type": "Leaf"
            },
            {
                "data": "1:239",
                "leaf": "clip",
                "type": "Leaf"
            }
        ],
        "type": "AVSplit"
    },
    {
        "children": [
            {
                "data": "1:202",
                "leaf": "clip",
                "type": "Leaf"
            },
            {
                "data": "2:202",
                "leaf": "clip",
                "type": "Leaf"
            }
        ],
        "type": "AVSplit"
    },
    {
        "children": [
            {
                "data": "2:184",
                "leaf": "clip",
                "type": "Leaf"
            },
            {
                "data": "1:184",
                "leaf": "clip",
                "type": "Leaf"
            }
        ],
        "type": "AVSplit"
    },
    {
        "children": [
            {
                "data": "1:140",
                "leaf": "clip",
                "type": "Leaf"
            },
            {
                "data": "2:140",
                "leaf": "clip",
                "type": "Leaf"
            }
        ],
        "type": "AVSplit"
    },
    {
        "children": [
            {
                "data": "2:101",
                "leaf": "clip",
                "type": "Leaf"
            },
            {
                "data": "1:101",
                "leaf": "clip",
                "type": "Leaf"
            }
        ],
        "type": "AVSplit"
    },
    {
        "children": [
            {
                "data": "1:0",
                "leaf": "clip",
                "type": "Leaf"
            },
            {
                "data": "2:0",
                "leaf": "clip",
                "type": "Leaf"
            }
        ],
        "type": "AVSplit"
    },
    {
        "children": [
            {
                "data": "2:5255",
                "leaf": "clip",
                "type": "Leaf"
            },
            {
                "data": "1:5255",
                "leaf": "clip",
                "type": "Leaf"
            }
        ],
        "type": "AVSplit"
    },
    {
        "children": [
            {
                "data": "1:546",
                "leaf": "clip",
                "type": "Leaf"
            },
            {
                "data": "2:546",
                "leaf": "clip",
                "type": "Leaf"
            }
        ],
        "type": "AVSplit"
    },
    {
        "children": [
            {
                "data": "2:607",
                "leaf": "clip",
                "type": "Leaf"
            },
            {
                "data": "1:607",
                "leaf": "clip",
                "type": "Leaf"
            }
        ],
        "type": "AVSplit"
    },
    {
        "children": [
            {
                "data": "1:624",
                "leaf": "clip",
                "type": "Leaf"
            },
            {
                "data": "2:624",
                "leaf": "clip",
                "type": "Leaf"
            }
        ],
        "type": "AVSplit"
    },
    {
        "children": [
            {
                "data": "2:1820",
                "leaf": "clip",
                "type": "Leaf"
            },
            {
                "data": "1:1820",
                "leaf": "clip",
                "type": "Leaf"
            }
        ],
        "type": "AVSplit"
    },
    {
        "children": [
            {
                "data": "1:789",
                "leaf": "clip",
                "type": "Leaf"
            },
            {
                "data": "2:789",
                "leaf": "clip",
                "type": "Leaf"
            }
        ],
        "type": "AVSplit"
    },
    {
        "children": [
            {
                "data": "2:1293",
                "leaf": "clip",
                "type": "Leaf"
            },
            {
                "data": "1:1293",
                "leaf": "clip",
                "type": "Leaf"
            }
        ],
        "type": "AVSplit"
    },
    {
        "children": [
            {
                "data": "2:810",
                "leaf": "clip",
                "type": "Leaf"
            },
            {
                "data": "1:810",
                "leaf": "clip",
                "type": "Leaf"
            }
        ],
        "type": "AVSplit"
    },
    {
        "children": [
            {
                "data": "1:1845",
                "leaf": "clip",
                "type": "Leaf"
            },
            {
                "data": "2:1845",
                "leaf": "clip",
                "type": "Leaf"
            }
        ],
        "type": "AVSplit"
    },
    {
        "children": [
            {
                "data": "1:852",
                "leaf": "clip",
                "type": "Leaf"
            },
            {
                "data": "2:852",
                "leaf": "clip",
                "type": "Leaf"
            }
        ],
        "type": "AVSplit"
    },
    {
        "children": [
            {
                "data": "2:4263",
                "leaf": "clip",
                "type": "Leaf"
            },
            {
                "data": "1:4263",
                "leaf": "clip",
                "type": "Leaf"
            }
        ],
        "type": "AVSplit"
    },
    {
        "children": [
            {
                "data": "2:878",
                "leaf": "clip",
                "type": "Leaf"
            },
            {
                "data": "1:878",
                "leaf": "clip",
                "type": "Leaf"
            }
        ],
        "type": "AVSplit"
    },
    {
        "children": [
            {
                "data": "2:1877",
                "leaf": "clip",
                "type": "Leaf"
            },
            {
                "data": "1:1877",
                "leaf": "clip",
                "type": "Leaf"
            }
        ],
        "type": "AVSplit"
    },
    {
        "children": [
            {
                "data": "2:4996",
                "leaf": "clip",
                "type": "Leaf"
            },
            {
                "data": "1:4996",
                "leaf": "clip",
                "type": "Leaf"
            }
        ],
        "type": "AVSplit"
    },
    {
        "children": [
            {
                "data": "1:1905",
                "leaf": "clip",
                "type": "Leaf"
            },
            {
                "data": "2:1905",
                "leaf": "clip",
                "type": "Leaf"
            }
        ],
        "type": "AVSplit"
    },
    {
        "children": [
            {
                "data": "1:5003",
                "leaf": "clip",
                "type": "Leaf"
            },
            {
                "data": "2:5003",
                "leaf": "clip",
                "type": "Leaf"
            }
        ],
        "type": "AVSplit"
    },
    {
        "children": [
            {
                "data": "2:1927",
                "leaf": "clip",
                "type": "Leaf"
            },
            {
                "data": "1:1927",
                "leaf": "clip",
                "type": "Leaf"
            }
        ],
        "type": "AVSplit"
    },
    {
        "children": [
            {
                "data": "2:5009",
                "leaf": "clip",
                "type": "Leaf"
            },
            {
                "data": "1:5009",
                "leaf": "clip",
                "type": "Leaf"
            }
        ],
        "type": "AVSplit"
    },
    {
        "children": [
            {
                "data": "1:1970",
                "leaf": "clip",
                "type": "Leaf"
            },
            {
                "data": "2:1970",
                "leaf": "clip",
                "type": "Leaf"
            }
        ],
        "type": "AVSplit"
    },
    {
        "children": [
            {
                "data": "1:5027",
                "leaf": "clip",
                "type": "Leaf"
            },
            {
                "data": "2:5027",
                "leaf": "clip",
                "type": "Leaf"
            }
        ],
        "type": "AVSplit"
    },
    {
        "children": [
            {
                "data": "2:2021",
                "leaf": "clip",
                "type": "Leaf"
            },
            {
                "data": "1:2021",
                "leaf": "clip",
                "type": "Leaf"
            }
        ],
        "type": "AVSplit"
    },
    {
        "children": [
            {
                "data": "2:5053",
                "leaf": "clip",
                "type": "Leaf"
            },
            {
                "data": "1:5053",
                "leaf": "clip",
                "type": "Leaf"
            }
        ],
        "type": "AVSplit"
    },
    {
        "children": [
            {
                "data": "1:5064",
                "leaf": "clip",
                "type": "Leaf"
            },
            {
                "data": "2:5064",
                "leaf": "clip",
                "type": "Leaf"
            }
        ],
        "type": "AVSplit"
    },
    {
        "children": [
            {
                "data": "2:5075",
                "leaf": "clip",
                "type": "Leaf"
            },
            {
                "data": "1:5075",
                "leaf": "clip",
                "type": "Leaf"
            }
        ],
        "type": "AVSplit"
    },
    {
        "children": [
            {
                "data": "1:5081",
                "leaf": "clip",
                "type": "Leaf"
            },
            {
                "data": "2:5081",
                "leaf": "clip",
                "type": "Leaf"
            }
        ],
        "type": "AVSplit"
    },
    {
        "children": [
            {
                "data": "2:5083",
                "leaf": "clip",
                "type": "Leaf"
            },
            {
                "data": "1:5083",
                "leaf": "clip",
                "type": "Leaf"
            }
        ],
        "type": "AVSplit"
    },
    {
        "children": [
            {
                "data": "1:5095",
                "leaf": "clip",
                "type": "Leaf"
            },
            {
                "data": "2:5095",
                "leaf": "clip",
                "type": "Leaf"
            }
        ],
        "type": "AVSplit"
    },
    {
        "children": [
            {
                "data": "2:5102",
                "leaf": "clip",
                "type": "Leaf"
            },
            {
                "data": "1:5102",
                "leaf": "clip",
                "type": "Leaf"
            }
        ],
        "type": "AVSplit"
    },
    {
        "children": [
            {
                "data": "1:5109",
                "leaf": "clip",
                "type": "Leaf"
            },
            {
                "data": "2:5109",
                "leaf": "clip",
                "type": "Leaf"
            }
        ],
        "type": "AVSplit"
    },
    {
        "children": [
            {
                "data": "2:5115",
                "leaf": "clip",
                "type": "Leaf"
            },
            {
                "data": "1:5115",
                "leaf": "clip",
                "type": "Leaf"
            }
        ],
        "type": "AVSplit"
    },
    {
        "children": [
            {
                "data": "1:5123",
                "leaf": "clip",
                "type": "Leaf"
            },
            {
                "data": "2:5123",
                "leaf": "clip",
                "type": "Leaf"
            }
        ],
        "type": "AVSplit"
    },
    {
        "children": [
            {
                "data": "2:5131",
                "leaf": "clip",
                "type": "Leaf"
            },
            {
                "data": "1:5131",
                "leaf": "clip",
                "type": "Leaf"
            }
        ],
        "type": "AVSplit"
    },
    {
        "children": [
            {
                "data": "1:5137",
                "leaf": "clip",
                "type": "Leaf"
            },
            {
                "data": "2:5137",
                "leaf": "clip",
                "type": "Leaf"
            }
        ],
        "type": "AVSplit"
    },
    {
        "children": [
            {
                "data": "2:5249",
                "leaf": "clip",
                "type": "Leaf"
            },
            {
                "data": "1:5249",
                "leaf": "clip",
                "type": "Leaf"
            }
        ],
        "type": "AVSplit"
    },
    {
        "children": [
            {
                "data": "1:5242",
                "leaf": "clip",
                "type": "Leaf"
            },
            {
                "data": "2:5242",
                "leaf": "clip",
                "type": "Leaf"
            }
        ],
        "type": "AVSplit"
    },
    {
        "children": [
            {
                "data": "2:5232",
                "leaf": "clip",
                "type": "Leaf"
            },
            {
                "data": "1:5232",
                "leaf": "clip",
                "type": "Leaf"
            }
        ],
        "type": "AVSplit"
    },
    {
        "children": [
            {
                "data": "1:5222",
                "leaf": "clip",
                "type": "Leaf"
            },
            {
                "data": "2:5222",
                "leaf": "clip",
                "type": "Leaf"
            }
        ],
        "type": "AVSplit"
    },
    {
        "children": [
            {
                "data": "2:5204",
                "leaf": "clip",
                "type": "Leaf"
            },
            {
                "data": "1:5204",
                "leaf": "clip",
                "type": "Leaf"
            }
        ],
        "type": "AVSplit"
    },
    {
        "children": [
            {
                "data": "2:4767",
                "leaf": "clip",
                "type": "Leaf"
            },
            {
                "data": "1:4767",
                "leaf": "clip",
                "type": "Leaf"
            }
        ],
        "type": "AVSplit"
    },
    {
        "children": [
            {
                "data": "2:4775",
                "leaf": "clip",
                "type": "Leaf"
            },
            {
                "data": "1:4775",
                "leaf": "clip",
                "type": "Leaf"
            }
        ],
        "type": "AVSplit"
    },
    {
        "children": [
            {
                "data": "2:4737",
                "leaf": "clip",
                "type": "Leaf"
            },
            {
                "data": "1:4737",
                "leaf": "clip",
                "type": "Leaf"
            }
        ],
        "type": "AVSplit"
    },
    {
        "children": [
            {
                "data": "1:4717",
                "leaf": "clip",
                "type": "Leaf"
            },
            {
                "data": "2:4717",
                "leaf": "clip",
                "type": "Leaf"
            }
        ],
        "type": "AVSplit"
    },
    {
        "children": [
            {
                "data": "2:4686",
                "leaf": "clip",
                "type": "Leaf"
            },
            {
                "data": "1:4686",
                "leaf": "clip",
                "type": "Leaf"
            }
        ],
        "type": "AVSplit"
    },
    {
        "children": [
            {
                "data": "1:4647",
                "leaf": "clip",
                "type": "Leaf"
            },
            {
                "data": "2:4647",
                "leaf": "clip",
                "type": "Leaf"
            }
        ],
        "type": "AVSplit"
    },
    {
        "children": [
            {
                "data": "2:4611",
                "leaf": "clip",
                "type": "Leaf"
            },
            {
                "data": "1:4611",
                "leaf": "clip",
                "type": "Leaf"
            }
        ],
        "type": "AVSplit"
    },
    {
        "children": [
            {
                "data": "1:4591",
                "leaf": "clip",
                "type": "Leaf"
            },
            {
                "data": "2:4591",
                "leaf": "clip",
                "type": "Leaf"
            }
        ],
        "type": "AVSplit"
    },
    {
        "children": [
            {
                "data": "2:4583",
                "leaf": "clip",
                "type": "Leaf"
            },
            {
                "data": "1:4583",
                "leaf": "clip",
                "type": "Leaf"
            }
        ],
        "type": "AVSplit"
    },
    {
        "children": [
            {
                "data": "1:4573",
                "leaf": "clip",
                "type": "Leaf"
            },
            {
                "data": "2:4573",
                "leaf": "clip",
                "type": "Leaf"
            }
        ],
        "type": "AVSplit"
    },
    {
        "children": [
            {
                "data": "2:4563",
                "leaf": "clip",
                "type": "Leaf"
            },
            {
                "data": "1:4563",
                "leaf": "clip",
                "type": "Leaf"
            }
        ],
        "type": "AVSplit"
    },
    {
        "children": [
            {
                "data": "1:4543",
                "leaf": "clip",
                "type": "Leaf"
            },
            {
                "data": "2:4543",
                "leaf": "clip",
                "type": "Leaf"
            }
        ],
        "type": "AVSplit"
    },
    {
        "children": [
            {
                "data": "2:4522",
                "leaf": "clip",
                "type": "Leaf"
            },
            {
                "data": "1:4522",
                "leaf": "clip",
                "type": "Leaf"
            }
        ],
        "type": "AVSplit"
    },
    {
        "children": [
            {
                "data": "2:4791",
                "leaf": "clip",
                "type": "Leaf"
            },
            {
                "data": "1:4791",
                "leaf": "clip",
                "type": "Leaf"
            }
        ],
        "type": "AVSplit"
    },
    {
        "children": [
            {
                "data": "1:4812",
                "leaf": "clip",
                "type": "Leaf"
            },
            {
                "data": "2:4812",
                "leaf": "clip",
                "type": "Leaf"
            }
        ],
        "type": "AVSplit"
    },
    {
        "children": [
            {
                "data": "2:4845",
                "leaf": "clip",
                "type": "Leaf"
            },
            {
                "data": "1:4845",
                "leaf": "clip",
                "type": "Leaf"
            }
        ],
        "type": "AVSplit"
    },
    {
        "children": [
            {
                "data": "1:4869",
                "leaf": "clip",
                "type": "Leaf"
            },
            {
                "data": "2:4869",
                "leaf": "clip",
                "type": "Leaf"
            }
        ],
        "type": "AVSplit"
    },
    {
        "children": [
            {
                "data": "2:4914",
                "leaf": "clip",
                "type": "Leaf"
            },
            {
                "data": "1:4914",
                "leaf": "clip",
                "type": "Leaf"
            }
        ],
        "type": "AVSplit"
    },
    {
        "children": [
            {
                "data": "1:4939",
                "leaf": "clip",
                "type": "Leaf"
            },
            {
                "data": "2:4939",
                "leaf": "clip",
                "type": "Leaf"
            }
        ],
        "type": "AVSplit"
    },
    {
        "children": [
            {
                "data": "2:4945",
                "leaf": "clip",
                "type": "Leaf"
            },
            {
                "data": "1:4945",
                "leaf": "clip",
                "type": "Leaf"
            }
        ],
        "type": "AVSplit"
    },
    {
        "children": [
            {
                "data": "1:4974",
                "leaf": "clip",
                "type": "Leaf"
            },
            {
                "data": "2:4974",
                "leaf": "clip",
                "type": "Leaf"
            }
        ],
        "type": "AVSplit"
    },
    {
        "children": [
            {
                "data": "2:5148",
                "leaf": "clip",
                "type": "Leaf"
            },
            {
                "data": "1:5148",
                "leaf": "clip",
                "type": "Leaf"
            }
        ],
        "type": "AVSplit"
    },
    {
        "children": [
            {
                "data": "1:5153",
                "leaf": "clip",
                "type": "Leaf"
            },
            {
                "data": "2:5153",
                "leaf": "clip",
                "type": "Leaf"
            }
        ],
        "type": "AVSplit"
    },
    {
        "children": [
            {
                "data": "2:5171",
                "leaf": "clip",
                "type": "Leaf"
            },
            {
                "data": "1:5171",
                "leaf": "clip",
                "type": "Leaf"
            }
        ],
        "type": "AVSplit"
    },
    {
        "children": [
            {
                "data": "1:5177",
                "leaf": "clip",
                "type": "Leaf"
            },
            {
                "data": "2:5177",
                "leaf": "clip",
                "type": "Leaf"
            }
        ],
        "type": "AVSplit"
    },
    {
        "children": [
            {
                "data": "2:5190",
                "leaf": "clip",
                "type": "Leaf"
            },
            {
                "data": "1:5190",
                "leaf": "clip",
                "type": "Leaf"
            }
        ],
        "type": "AVSplit"
    },
    {
        "children": [
            {
                "data": "1:5197",
                "leaf": "clip",
                "type": "Leaf"
            },
            {
                "data": "2:5197",
                "leaf": "clip",
                "type": "Leaf"
            }
        ],
        "type": "AVSplit"
    },
    {
        "children": [
            {
                "data": "2:5198",
                "leaf": "clip",
                "type": "Leaf"
            },
            {
                "data": "1:5198",
                "leaf": "clip",
                "type": "Leaf"
            }
        ],
        "type": "AVSplit"
    },
    {
        "children": [
            {
                "data": "1:5202",
                "leaf": "clip",
                "type": "Leaf"
            },
            {
                "data": "2:5202",
                "leaf": "clip",
                "type": "Leaf"
            }
        ],
        "type": "AVSplit"
    },
    {
        "children": [
            {
                "data": "1:4240",
                "leaf": "clip",
                "type": "Leaf"
            },
            {
                "data": "2:4240",
                "leaf": "clip",
                "type": "Leaf"
            }
        ],
        "type": "AVSplit"
    },
    {
        "children": [
            {
                "data": "2:776",
                "leaf": "clip",
                "type": "Leaf"
            },
            {
                "data": "1:776",
                "leaf": "clip",
                "type": "Leaf"
            }
        ],
        "type": "AVSplit"
    },
    {
        "children": [
            {
                "data": "1:1810",
                "leaf": "clip",
                "type": "Leaf"
            },
            {
                "data": "2:1810",
                "leaf": "clip",
                "type": "Leaf"
            }
        ],
        "type": "AVSplit"
    },
    {
        "children": [
            {
                "data": "1:755",
                "leaf": "clip",
                "type": "Leaf"
            },
            {
                "data": "2:755",
                "leaf": "clip",
                "type": "Leaf"
            }
        ],
        "type": "AVSplit"
    },
    {
        "children": [
            {
                "data": "1:1276",
                "leaf": "clip",
                "type": "Leaf"
            },
            {
                "data": "2:1276",
                "leaf": "clip",
                "type": "Leaf"
            }
        ],
        "type": "AVSplit"
    },
    {
        "children": [
            {
                "data": "2:738",
                "leaf": "clip",
                "type": "Leaf"
            },
            {
                "data": "1:738",
                "leaf": "clip",
                "type": "Leaf"
            }
        ],
        "type": "AVSplit"
    },
    {
        "children": [
            {
                "data": "2:1801",
                "leaf": "clip",
                "type": "Leaf"
            },
            {
                "data": "1:1801",
                "leaf": "clip",
                "type": "Leaf"
            }
        ],
        "type": "AVSplit"
    },
    {
        "children": [
            {
                "data": "1:713",
                "leaf": "clip",
                "type": "Leaf"
            },
            {
                "data": "2:713",
                "leaf": "clip",
                "type": "Leaf"
            }
        ],
        "type": "AVSplit"
    },
    {
        "children": [
            {
                "data": "2:4218",
                "leaf": "clip",
                "type": "Leaf"
            },
            {
                "data": "1:4218",
                "leaf": "clip",
                "type": "Leaf"
            }
        ],
        "type": "AVSplit"
    },
    {
        "children": [
            {
                "data": "2:703",
                "leaf": "clip",
                "type": "Leaf"
            },
            {
                "data": "1:703",
                "leaf": "clip",
                "type": "Leaf"
            }
        ],
        "type": "AVSplit"
    },
    {
        "children": [
            {
                "data": "2:3494",
                "leaf": "clip",
                "type": "Leaf"
            },
            {
                "data": "1:3494",
                "leaf": "clip",
                "type": "Leaf"
            }
        ],
        "type": "AVSplit"
    },
    {
        "children": [
            {
                "data": "1:688",
                "leaf": "clip",
                "type": "Leaf"
            },
            {
                "data": "2:688",
                "leaf": "clip",
                "type": "Leaf"
            }
        ],
        "type": "AVSplit"
    },
    {
        "children": [
            {
                "data": "1:3442",
                "leaf": "clip",
                "type": "Leaf"
            },
            {
                "data": "2:3442",
                "leaf": "clip",
                "type": "Leaf"
            }
        ],
        "type": "AVSplit"
    },
    {
        "children": [
            {
                "data": "2:670",
                "leaf": "clip",
                "type": "Leaf"
            },
            {
                "data": "1:670",
                "leaf": "clip",
                "type": "Leaf"
            }
        ],
        "type": "AVSplit"
    },
    {
        "children": [
            {
                "data": "2:3397",
                "leaf": "clip",
                "type": "Leaf"
            },
            {
                "data": "1:3397",
                "leaf": "clip",
                "type": "Leaf"
            }
        ],
        "type": "AVSplit"
    },
    {
        "children": [
            {
                "data": "1:650",
                "leaf": "clip",
                "type": "Leaf"
            },
            {
                "data": "2:650",
                "leaf": "clip",
                "type": "Leaf"
            }
        ],
        "type": "AVSplit"
    },
    {
        "children": [
            {
                "data": "1:3357",
                "leaf": "clip",
                "type": "Leaf"
            },
            {
                "data": "2:3357",
                "leaf": "clip",
                "type": "Leaf"
            }
        ],
        "type": "AVSplit"
    },
    {
        "children": [
            {
                "data": "2:637",
                "leaf": "clip",
                "type": "Leaf"
            },
            {
                "data": "1:637",
                "leaf": "clip",
                "type": "Leaf"
            }
        ],
        "type": "AVSplit"
    },
    {
        "children": [
            {
                "data": "2:3323",
                "leaf": "clip",
                "type": "Leaf"
            },
            {
                "data": "1:3323",
                "leaf": "clip",
                "type": "Leaf"
            }
        ],
        "type": "AVSplit"
    },
    {
        "children": [
            {
                "data": "1:3268",
                "leaf": "clip",
                "type": "Leaf"
            },
            {
                "data": "2:3268",
                "leaf": "clip",
                "type": "Leaf"
            }
        ],
        "type": "AVSplit"
    },
    {
        "children": [
            {
                "data": "2:3233",
                "leaf": "clip",
                "type": "Leaf"
            },
            {
                "data": "1:3233",
                "leaf": "clip",
                "type": "Leaf"
            }
        ],
        "type": "AVSplit"
    },
    {
        "children": [
            {
                "data": "1:3183",
                "leaf": "clip",
                "type": "Leaf"
            },
            {
                "data": "2:3183",
                "leaf": "clip",
                "type": "Leaf"
            }
        ],
        "type": "AVSplit"
    },
    {
        "children": [
            {
                "data": "2:3134",
                "leaf": "clip",
                "type": "Leaf"
            },
            {
                "data": "1:3134",
                "leaf": "clip",
                "type": "Leaf"
            }
        ],
        "type": "AVSplit"
    },
    {
        "children": [
            {
                "data": "1:3119",
                "leaf": "clip",
                "type": "Leaf"
            },
            {
                "data": "2:3119",
                "leaf": "clip",
                "type": "Leaf"
            }
        ],
        "type": "AVSplit"
    },
    {
        "children": [
            {
                "data": "2:3032",
                "leaf": "clip",
                "type": "Leaf"
            },
            {
                "data": "1:3032",
                "leaf": "clip",
                "type": "Leaf"
            }
        ],
        "type": "AVSplit"
    },
    {
        "children": [
            {
                "data": "1:3027",
                "leaf": "clip",
                "type": "Leaf"
            },
            {
                "data": "2:3027",
                "leaf": "clip",
                "type": "Leaf"
            }
        ],
        "type": "AVSplit"
    },
    {
        "children": [
            {
                "data": "2:3022",
                "leaf": "clip",
                "type": "Leaf"
            },
            {
                "data": "1:3022",
                "leaf": "clip",
                "type": "Leaf"
            }
        ],
        "type": "AVSplit"
    },
    {
        "children": [
            {
                "data": "1:3021",
                "leaf": "clip",
                "type": "Leaf"
            },
            {
                "data": "2:3021",
                "leaf": "clip",
                "type": "Leaf"
            }
        ],
        "type": "AVSplit"
    },
    {
        "children": [
            {
                "data": "2:3019",
                "leaf": "clip",
                "type": "Leaf"
            },
            {
                "data": "1:3019",
                "leaf": "clip",
                "type": "Leaf"
            }
        ],
        "type": "AVSplit"
    },
    {
        "children": [
            {
                "data": "1:3018",
                "leaf": "clip",
                "type": "Leaf"
            },
            {
                "data": "2:3018",
                "leaf": "clip",
                "type": "Leaf"
            }
        ],
        "type": "AVSplit"
    },
    {
        "children": [
            {
                "data": "1:2915",
                "leaf": "clip",
                "type": "Leaf"
            },
            {
                "data": "2:2915",
                "leaf": "clip",
                "type": "Leaf"
            }
        ],
        "type": "AVSplit"
    },
    {
        "children": [
            {
                "data": "2:2933",
                "leaf": "clip",
                "type": "Leaf"
            },
            {
                "data": "1:2933",
                "leaf": "clip",
                "type": "Leaf"
            }
        ],
        "type": "AVSplit"
    },
    {
        "children": [
            {
                "data": "1:2950",
                "leaf": "clip",
                "type": "Leaf"
            },
            {
                "data": "2:2950",
                "leaf": "clip",
                "type": "Leaf"
            }
        ],
        "type": "AVSplit"
    },
    {
        "children": [
            {
                "data": "2:2958",
                "leaf": "clip",
                "type": "Leaf"
            },
            {
                "data": "1:2958",
                "leaf": "clip",
                "type": "Leaf"
            }
        ],
        "type": "AVSplit"
    },
    {
        "children": [
            {
                "data": "1:2969",
                "leaf": "clip",
                "type": "Leaf"
            },
            {
                "data": "2:2969",
                "leaf": "clip",
                "type": "Leaf"
            }
        ],
        "type": "AVSplit"
    },
    {
        "children": [
            {
                "data": "2:2983",
                "leaf": "clip",
                "type": "Leaf"
            },
            {
                "data": "1:2983",
                "leaf": "clip",
                "type": "Leaf"
            }
        ],
        "type": "AVSplit"
    },
    {
        "children": [
            {
                "data": "1:2992",
                "leaf": "clip",
                "type": "Leaf"
            },
            {
                "data": "2:2992",
                "leaf": "clip",
                "type": "Leaf"
            }
        ],
        "type": "AVSplit"
    },
    {
        "children": [
            {
                "data": "2:2998",
                "leaf": "clip",
                "type": "Leaf"
            },
            {
                "data": "1:2998",
                "leaf": "clip",
                "type": "Leaf"
            }
        ],
        "type": "AVSplit"
    },
    {
        "children": [
            {
                "data": "2:3013",
                "leaf": "clip",
                "type": "Leaf"
            },
            {
                "data": "1:3013",
                "leaf": "clip",
                "type": "Leaf"
            }
        ],
        "type": "AVSplit"
    },
    {
        "children": [
            {
                "data": "2:3006",
                "leaf": "clip",
                "type": "Leaf"
            },
            {
                "data": "1:3006",
                "leaf": "clip",
                "type": "Leaf"
            }
        ],
        "type": "AVSplit"
    },
    {
        "children": [
            {
                "data": "2:3015",
                "leaf": "clip",
                "type": "Leaf"
            },
            {
                "data": "1:3015",
                "leaf": "clip",
                "type": "Leaf"
            }
        ],
        "type": "AVSplit"
    },
    {
        "children": [
            {
                "data": "1:3016",
                "leaf": "clip",
                "type": "Leaf"
            },
            {
                "data": "2:3016",
                "leaf": "clip",
                "type": "Leaf"
            }
        ],
        "type": "AVSplit"
    },
    {
        "children": [
            {
                "data": "2:3017",
                "leaf": "clip",
                "type": "Leaf"
            },
            {
                "data": "1:3017",
                "leaf": "clip",
                "type": "Leaf"
            }
        ],
        "type": "AVSplit"
    },
    {
        "children": [
            {
                "data": "1:3517",
                "leaf": "clip",
                "type": "Leaf"
            },
            {
                "data": "2:3517",
                "leaf": "clip",
                "type": "Leaf"
            }
        ],
        "type": "AVSplit"
    },
    {
        "children": [
            {
                "data": "2:3537",
                "leaf": "clip",
                "type": "Leaf"
            },
            {
                "data": "1:3537",
                "leaf": "clip",
                "type": "Leaf"
            }
        ],
        "type": "AVSplit"
    },
    {
        "children": [
            {
                "data": "1:3570",
                "leaf": "clip",
                "type": "Leaf"
            },
            {
                "data": "2:3570",
                "leaf": "clip",
                "type": "Leaf"
            }
        ],
        "type": "AVSplit"
    },
    {
        "children": [
            {
                "data": "2:3588",
                "leaf": "clip",
                "type": "Leaf"
            },
            {
                "data": "1:3588",
                "leaf": "clip",
                "type": "Leaf"
            }
        ],
        "type": "AVSplit"
    },
    {
        "children": [
            {
                "data": "1:3608",
                "leaf": "clip",
                "type": "Leaf"
            },
            {
                "data": "2:3608",
                "leaf": "clip",
                "type": "Leaf"
            }
        ],
        "type": "AVSplit"
    },
    {
        "children": [
            {
                "data": "2:3622",
                "leaf": "clip",
                "type": "Leaf"
            },
            {
                "data": "1:3622",
                "leaf": "clip",
                "type": "Leaf"
            }
        ],
        "type": "AVSplit"
    },
    {
        "children": [
            {
                "data": "1:3637",
                "leaf": "clip",
                "type": "Leaf"
            },
            {
                "data": "2:3637",
                "leaf": "clip",
                "type": "Leaf"
            }
        ],
        "type": "AVSplit"
    },
    {
        "children": [
            {
                "data": "2:3841",
                "leaf": "clip",
                "type": "Leaf"
            },
            {
                "data": "1:3841",
                "leaf": "clip",
                "type": "Leaf"
            }
        ],
        "type": "AVSplit"
    },
    {
        "children": [
            {
                "data": "1:3890",
                "leaf": "clip",
                "type": "Leaf"
            },
            {
                "data": "2:3890",
                "leaf": "clip",
                "type": "Leaf"
            }
        ],
        "type": "AVSplit"
    },
    {
        "children": [
            {
                "data": "2:3934",
                "leaf": "clip",
                "type": "Leaf"
            },
            {
                "data": "1:3934",
                "leaf": "clip",
                "type": "Leaf"
            }
        ],
        "type": "AVSplit"
    },
    {
        "children": [
            {
                "data": "1:3954",
                "leaf": "clip",
                "type": "Leaf"
            },
            {
                "data": "2:3954",
                "leaf": "clip",
                "type": "Leaf"
            }
        ],
        "type": "AVSplit"
    },
    {
        "children": [
            {
                "data": "2:3972",
                "leaf": "clip",
                "type": "Leaf"
            },
            {
                "data": "1:3972",
                "leaf": "clip",
                "type": "Leaf"
            }
        ],
        "type": "AVSplit"
    },
    {
        "children": [
            {
                "data": "1:3981",
                "leaf": "clip",
                "type": "Leaf"
            },
            {
                "data": "2:3981",
                "leaf": "clip",
                "type": "Leaf"
            }
        ],
        "type": "AVSplit"
    },
    {
        "children": [
            {
                "data": "2:3992",
                "leaf": "clip",
                "type": "Leaf"
            },
            {
                "data": "1:3992",
                "leaf": "clip",
                "type": "Leaf"
            }
        ],
        "type": "AVSplit"
    },
    {
        "children": [
            {
                "data": "1:4016",
                "leaf": "clip",
                "type": "Leaf"
            },
            {
                "data": "2:4016",
                "leaf": "clip",
                "type": "Leaf"
            }
        ],
        "type": "AVSplit"
    },
    {
        "children": [
            {
                "data": "2:4029",
                "leaf": "clip",
                "type": "Leaf"
            },
            {
                "data": "1:4029",
                "leaf": "clip",
                "type": "Leaf"
            }
        ],
        "type": "AVSplit"
    },
    {
        "children": [
            {
                "data": "1:4043",
                "leaf": "clip",
                "type": "Leaf"
            },
            {
                "data": "2:4043",
                "leaf": "clip",
                "type": "Leaf"
            }
        ],
        "type": "AVSplit"
    },
    {
        "children": [
            {
                "data": "2:1199",
                "leaf": "clip",
                "type": "Leaf"
            },
            {
                "data": "1:1199",
                "leaf": "clip",
                "type": "Leaf"
            }
        ],
        "type": "AVSplit"
    },
    {
        "children": [
            {
                "data": "2:4058",
                "leaf": "clip",
                "type": "Leaf"
            },
            {
                "data": "1:4058",
                "leaf": "clip",
                "type": "Leaf"
            }
        ],
        "type": "AVSplit"
    },
    {
        "children": [
            {
                "data": "1:1202",
                "leaf": "clip",
                "type": "Leaf"
            },
            {
                "data": "2:1202",
                "leaf": "clip",
                "type": "Leaf"
            }
        ],
        "type": "AVSplit"
    },
    {
        "children": [
            {
                "data": "1:4068",
                "leaf": "clip",
                "type": "Leaf"
            },
            {
                "data": "2:4068",
                "leaf": "clip",
                "type": "Leaf"
            }
        ],
        "type": "AVSplit"
    }
]
</property>
  <property name="kdenlive:sequenceproperties.guides">[
]
</property>
  <track producer="producer0"/>
  <track producer="tractor0"/>
  <track producer="tractor1"/>
  <track producer="tractor2"/>
  <track producer="tractor3"/>
  <transition id="transition0">
   <property name="a_track">0</property>
   <property name="b_track">1</property>
   <property name="mlt_service">mix</property>
   <property name="kdenlive_id">mix</property>
   <property name="internal_added">237</property>
   <property name="always_active">1</property>
   <property name="accepts_blanks">1</property>
   <property name="sum">1</property>
  </transition>
  <transition id="transition1">
   <property name="a_track">0</property>
   <property name="b_track">2</property>
   <property name="mlt_service">mix</property>
   <property name="kdenlive_id">mix</property>
   <property name="internal_added">237</property>
   <property name="always_active">1</property>
   <property name="accepts_blanks">1</property>
   <property name="sum">1</property>
  </transition>
  <transition id="transition2">
   <property name="a_track">0</property>
   <property name="b_track">3</property>
   <property name="compositing">0</property>
   <property name="distort">0</property>
   <property name="rotate_center">0</property>
   <property name="mlt_service">qtblend</property>
   <property name="always_active">1</property>
   <property name="internal_added">237</property>
  </transition>
  <transition id="transition3">
   <property name="a_track">0</property>
   <property name="b_track">4</property>
   <property name="compositing">0</property>
   <property name="distort">0</property>
   <property name="rotate_center">0</property>
   <property name="mlt_service">qtblend</property>
   <property name="always_active">1</property>
   <property name="internal_added">237</property>
  </transition>
  <filter id="filter6">
   <property name="window">75</property>
   <property name="max_gain">20dB</property>
   <property name="mlt_service">volume</property>
   <property name="internal_added">237</property>
   <property name="disable">1</property>
  </filter>
  <filter id="filter7">
   <property name="channel">-1</property>
   <property name="mlt_service">panner</property>
   <property name="internal_added">237</property>
   <property name="start">0.5</property>
   <property name="disable">1</property>
  </filter>
 </tractor>
 <playlist id="main_bin">
  <property name="kdenlive:folder.-1.2">Sequences</property>
  <property name="kdenlive:docproperties.activetimeline">{3051c7ed-4ac8-4422-ae41-c20c7aed0f59}</property>
  <property name="kdenlive:docproperties.audioChannels">2</property>
  <property name="kdenlive:docproperties.browserurl">/home/fedora/Videos/</property>
  <property name="kdenlive:docproperties.compositing">1</property>
  <property name="kdenlive:docproperties.documentid">1700335024337</property>
  <property name="kdenlive:docproperties.enableTimelineZone">0</property>
  <property name="kdenlive:docproperties.enableexternalproxy">0</property>
  <property name="kdenlive:docproperties.enableproxy">0</property>
  <property name="kdenlive:docproperties.externalproxyparams"/>
  <property name="kdenlive:docproperties.generateimageproxy">0</property>
  <property name="kdenlive:docproperties.generateproxy">0</property>
  <property name="kdenlive:docproperties.guidesCategories">[
    {
        "color": "#9b59b6",
        "comment": "Category 1",
        "index": 0
    },
    {
        "color": "#3daee9",
        "comment": "Category 2",
        "index": 1
    },
    {
        "color": "#1abc9c",
        "comment": "Category 3",
        "index": 2
    },
    {
        "color": "#1cdc9a",
        "comment": "Category 4",
        "index": 3
    },
    {
        "color": "#c9ce3b",
        "comment": "Category 5",
        "index": 4
    },
    {
        "color": "#fdbc4b",
        "comment": "Category 6",
        "index": 5
    },
    {
        "color": "#f39c1f",
        "comment": "Category 7",
        "index": 6
    },
    {
        "color": "#f47750",
        "comment": "Category 8",
        "index": 7
    },
    {
        "color": "#da4453",
        "comment": "Category 9",
        "index": 8
    }
]
</property>
  <property name="kdenlive:docproperties.kdenliveversion">23.08.1</property>
  <property name="kdenlive:docproperties.opensequences">{3051c7ed-4ac8-4422-ae41-c20c7aed0f59}</property>
  <property name="kdenlive:docproperties.previewextension"/>
  <property name="kdenlive:docproperties.previewparameters"/>
  <property name="kdenlive:docproperties.profile">/home/fedora/.local/share/kdenlive/profiles/customprofile0</property>
  <property name="kdenlive:docproperties.proxyextension"/>
  <property name="kdenlive:docproperties.proxyimageminsize">2000</property>
  <property name="kdenlive:docproperties.proxyimagesize">800</property>
  <property name="kdenlive:docproperties.proxyminsize">1000</property>
  <property name="kdenlive:docproperties.proxyparams"/>
  <property name="kdenlive:docproperties.proxyresize">640</property>
  <property name="kdenlive:docproperties.seekOffset">30000</property>
  <property name="kdenlive:docproperties.uuid">{3051c7ed-4ac8-4422-ae41-c20c7aed0f59}</property>
  <property name="kdenlive:docproperties.version">1.1</property>
  <property name="kdenlive:expandedFolders"/>
  <property name="kdenlive:binZoom">4</property>
  <property name="kdenlive:documentnotes"/>
  <property name="xml_retain">1</property>
  <entry producer="chain2" in="00:00:00.000" out="00:03:59.810"/>
  <entry producer="tractor4" in="00:00:00.000" out="00:03:59.810"/>
 </playlist>
 <tractor id="tractor5" in="00:00:00.000" out="00:03:59.810">
  <property name="kdenlive:projectTractor">1</property>
  <track producer="tractor4" in="00:00:00.000" out="00:03:59.810"/>
 </tractor>
</mlt>
