<?xml version='1.0' encoding='utf-8'?>
<mlt LC_NUMERIC="C" producer="main_bin" version="7.20.0" root="/home/fedora/Videos/kdenlive">
 <profile frame_rate_num="24000" sample_aspect_num="1" display_aspect_den="9" colorspace="709" progressive="1" description="640x360 23.98fps" display_aspect_num="16" frame_rate_den="1001" width="640" height="360" sample_aspect_den="1"/>
 <producer id="producer0" in="00:00:00.000" out="00:24:36.495">
  <property name="length">2147483647</property>
  <property name="eof">continue</property>
  <property name="resource">black</property>
  <property name="aspect_ratio">1</property>
  <property name="mlt_service">color</property>
  <property name="kdenlive:playlistid">black_track</property>
  <property name="mlt_image_format">rgba</property>
  <property name="set.test_audio">0</property>
 </producer>
 <playlist id="playlist0">
  <property name="kdenlive:audio_track">1</property>
 </playlist>
 <playlist id="playlist1">
  <property name="kdenlive:audio_track">1</property>
 </playlist>
 <tractor id="tractor0" in="00:00:00.000">
  <property name="kdenlive:audio_track">1</property>
  <property name="kdenlive:trackheight">67</property>
  <property name="kdenlive:timeline_active">1</property>
  <property name="kdenlive:collapsed">0</property>
  <property name="kdenlive:thumbs_format"/>
  <property name="kdenlive:audio_rec"/>
  <track hide="video" producer="playlist0"/>
  <track hide="video" producer="playlist1"/>
  <filter id="filter0">
   <property name="window">75</property>
   <property name="max_gain">20dB</property>
   <property name="mlt_service">volume</property>
   <property name="internal_added">237</property>
   <property name="disable">1</property>
  </filter>
  <filter id="filter1">
   <property name="channel">-1</property>
   <property name="mlt_service">panner</property>
   <property name="internal_added">237</property>
   <property name="start">0.5</property>
   <property name="disable">1</property>
  </filter>
  <filter id="filter2">
   <property name="iec_scale">0</property>
   <property name="mlt_service">audiolevel</property>
   <property name="dbpeak">1</property>
   <property name="disable">1</property>
  </filter>
 </tractor>
 <chain id="chain0" out="00:03:45.212">
  <property name="length">5400</property>
  <property name="eof">pause</property>
  <property name="resource">/home/fedora/Videos/Clips/Joji - Gimme Love.mp4</property>
  <property name="mlt_service">avformat-novalidate</property>
  <property name="seekable">1</property>
  <property name="format">3</property>
  <property name="audio_index">1</property>
  <property name="video_index">0</property>
  <property name="vstream">0</property>
  <property name="astream">0</property>
  <property name="kdenlive:id">4</property>
  <property name="kdenlive:clip_type">0</property>
  <property name="kdenlive:file_size">8721842</property>
  <property name="kdenlive:file_hash">5461f5a22c5b34843dafee44bc5b6802</property>
  <property name="kdenlive:folderid">-1</property>
  <property name="kdenlive:audio_max1">249</property>
  <property name="meta.media.nb_streams">2</property>
  <property name="meta.media.0.stream.type">video</property>
  <property name="meta.media.0.stream.frame_rate">23.976</property>
  <property name="meta.media.0.stream.sample_aspect_ratio">0</property>
  <property name="meta.media.0.codec.width">640</property>
  <property name="meta.media.0.codec.height">360</property>
  <property name="meta.media.0.codec.rotate">0</property>
  <property name="meta.media.0.codec.pix_fmt">yuv420p</property>
  <property name="meta.media.0.codec.sample_aspect_ratio">1</property>
  <property name="meta.media.0.codec.colorspace">709</property>
  <property name="meta.media.0.codec.color_trc">1</property>
  <property name="meta.media.0.codec.name">h264</property>
  <property name="meta.media.0.codec.long_name">H.264 / AVC / MPEG-4 AVC / MPEG-4 part 10</property>
  <property name="meta.media.0.codec.bit_rate">178273</property>
  <property name="meta.attr.0.stream.creation_time.markup">2023-11-26T21:47:19.000000Z</property>
  <property name="meta.attr.0.stream.handler_name.markup">ISO Media file produced by Google Inc. Created on: 11/26/2023.</property>
  <property name="meta.attr.0.stream.vendor_id.markup">[0][0][0][0]</property>
  <property name="meta.media.1.stream.type">audio</property>
  <property name="meta.media.1.codec.sample_fmt">fltp</property>
  <property name="meta.media.1.codec.sample_rate">44100</property>
  <property name="meta.media.1.codec.channels">2</property>
  <property name="meta.media.1.codec.name">aac</property>
  <property name="meta.media.1.codec.long_name">AAC (Advanced Audio Coding)</property>
  <property name="meta.media.1.codec.bit_rate">127999</property>
  <property name="meta.attr.1.stream.creation_time.markup">2023-11-26T21:47:19.000000Z</property>
  <property name="meta.attr.1.stream.language.markup">eng</property>
  <property name="meta.attr.1.stream.handler_name.markup">ISO Media file produced by Google Inc. Created on: 11/26/2023.</property>
  <property name="meta.attr.1.stream.vendor_id.markup">[0][0][0][0]</property>
  <property name="meta.attr.major_brand.markup">mp42</property>
  <property name="meta.attr.minor_version.markup">0</property>
  <property name="meta.attr.compatible_brands.markup">isommp42</property>
  <property name="meta.attr.creation_time.markup">2023-11-26T21:47:19.000000Z</property>
  <property name="meta.media.sample_aspect_num">1</property>
  <property name="meta.media.sample_aspect_den">1</property>
  <property name="meta.media.frame_rate_num">24000</property>
  <property name="meta.media.frame_rate_den">1001</property>
  <property name="meta.media.colorspace">709</property>
  <property name="meta.media.color_trc">1</property>
  <property name="meta.media.has_b_frames">1</property>
  <property name="meta.media.width">640</property>
  <property name="meta.media.height">360</property>
  <property name="meta.media.color_range">mpeg</property>
  <property name="xml">was here</property>
  <property name="mute_on_pause">0</property>
  <property name="meta.media.top_field_first">0</property>
  <property name="meta.media.progressive">1</property>
  <property name="set.test_audio">0</property>
  <property name="set.test_image">1</property>
 </chain>
 <playlist id="playlist2">
  <property name="kdenlive:audio_track">1</property>
  <entry producer="chain0" in="00:00:00.000" out="00:00:00.459">
   <property name="kdenlive:id">4</property>
  </entry>
  <entry producer="chain0" in="00:00:00.500" out="00:00:03.503">
   <property name="kdenlive:id">4</property>
  </entry>
  <entry producer="chain0" in="00:00:03.545" out="00:00:03.879">
   <property name="kdenlive:id">4</property>
  </entry>
  <entry producer="chain0" in="00:00:03.921" out="00:00:04.254">
   <property name="kdenlive:id">4</property>
  </entry>
  <entry producer="chain0" in="00:00:04.296" out="00:00:04.630">
   <property name="kdenlive:id">4</property>
  </entry>
  <entry producer="chain0" in="00:00:04.671" out="00:00:05.005">
   <property name="kdenlive:id">4</property>
  </entry>
  <entry producer="chain0" in="00:00:05.047" out="00:00:05.380">
   <property name="kdenlive:id">4</property>
  </entry>
  <entry producer="chain0" in="00:00:05.422" out="00:00:05.797">
   <property name="kdenlive:id">4</property>
  </entry>
  <entry producer="chain0" in="00:00:05.839" out="00:00:06.173">
   <property name="kdenlive:id">4</property>
  </entry>
  <entry producer="chain0" in="00:00:06.215" out="00:00:06.548">
   <property name="kdenlive:id">4</property>
  </entry>
  <entry producer="chain0" in="00:00:06.590" out="00:00:06.924">
   <property name="kdenlive:id">4</property>
  </entry>
  <entry producer="chain0" in="00:00:06.965" out="00:00:07.299">
   <property name="kdenlive:id">4</property>
  </entry>
  <entry producer="chain0" in="00:00:07.341" out="00:00:07.674">
   <property name="kdenlive:id">4</property>
  </entry>
  <entry producer="chain0" in="00:00:07.716" out="00:00:08.050">
   <property name="kdenlive:id">4</property>
  </entry>
  <entry producer="chain0" in="00:00:08.091" out="00:00:08.425">
   <property name="kdenlive:id">4</property>
  </entry>
  <entry producer="chain0" in="00:00:08.467" out="00:00:08.800">
   <property name="kdenlive:id">4</property>
  </entry>
  <entry producer="chain0" in="00:00:08.842" out="00:00:09.218">
   <property name="kdenlive:id">4</property>
  </entry>
  <entry producer="chain0" in="00:00:09.259" out="00:00:09.593">
   <property name="kdenlive:id">4</property>
  </entry>
  <entry producer="chain0" in="00:00:09.635" out="00:00:09.968">
   <property name="kdenlive:id">4</property>
  </entry>
  <entry producer="chain0" in="00:00:10.010" out="00:00:10.344">
   <property name="kdenlive:id">4</property>
  </entry>
  <entry producer="chain0" in="00:00:10.385" out="00:00:10.802">
   <property name="kdenlive:id">4</property>
  </entry>
  <entry producer="chain0" in="00:00:10.844" out="00:00:11.094">
   <property name="kdenlive:id">4</property>
  </entry>
  <entry producer="chain0" in="00:00:11.136" out="00:00:11.470">
   <property name="kdenlive:id">4</property>
  </entry>
  <entry producer="chain0" in="00:00:11.511" out="00:00:11.887">
   <property name="kdenlive:id">4</property>
  </entry>
  <entry producer="chain0" in="00:00:11.929" out="00:00:12.221">
   <property name="kdenlive:id">4</property>
  </entry>
  <entry producer="chain0" in="00:00:12.262" out="00:00:12.596">
   <property name="kdenlive:id">4</property>
  </entry>
  <entry producer="chain0" in="00:00:12.638" out="00:00:13.013">
   <property name="kdenlive:id">4</property>
  </entry>
  <entry producer="chain0" in="00:00:13.055" out="00:00:13.388">
   <property name="kdenlive:id">4</property>
  </entry>
  <entry producer="chain0" in="00:00:13.430" out="00:00:13.764">
   <property name="kdenlive:id">4</property>
  </entry>
  <entry producer="chain0" in="00:00:13.805" out="00:00:14.139">
   <property name="kdenlive:id">4</property>
  </entry>
  <entry producer="chain0" in="00:00:14.181" out="00:00:14.514">
   <property name="kdenlive:id">4</property>
  </entry>
  <entry producer="chain0" in="00:00:14.556" out="00:00:14.890">
   <property name="kdenlive:id">4</property>
  </entry>
  <entry producer="chain0" in="00:00:14.932" out="00:00:15.265">
   <property name="kdenlive:id">4</property>
  </entry>
  <entry producer="chain0" in="00:00:15.307" out="00:00:15.641">
   <property name="kdenlive:id">4</property>
  </entry>
  <entry producer="chain0" in="00:00:15.682" out="00:00:16.058">
   <property name="kdenlive:id">4</property>
  </entry>
  <entry producer="chain0" in="00:00:16.099" out="00:00:16.433">
   <property name="kdenlive:id">4</property>
  </entry>
  <entry producer="chain0" in="00:00:16.475" out="00:00:16.808">
   <property name="kdenlive:id">4</property>
  </entry>
  <entry producer="chain0" in="00:00:16.850" out="00:00:17.184">
   <property name="kdenlive:id">4</property>
  </entry>
  <entry producer="chain0" in="00:00:17.226" out="00:00:17.559">
   <property name="kdenlive:id">4</property>
  </entry>
  <entry producer="chain0" in="00:00:17.601" out="00:00:17.935">
   <property name="kdenlive:id">4</property>
  </entry>
  <entry producer="chain0" in="00:00:17.976" out="00:00:18.310">
   <property name="kdenlive:id">4</property>
  </entry>
  <entry producer="chain0" in="00:00:18.352" out="00:00:18.685">
   <property name="kdenlive:id">4</property>
  </entry>
  <entry producer="chain0" in="00:00:18.727" out="00:00:19.061">
   <property name="kdenlive:id">4</property>
  </entry>
  <entry producer="chain0" in="00:00:19.102" out="00:00:19.436">
   <property name="kdenlive:id">4</property>
  </entry>
  <entry producer="chain0" in="00:00:19.478" out="00:00:19.811">
   <property name="kdenlive:id">4</property>
  </entry>
  <entry producer="chain0" in="00:00:19.853" out="00:00:20.229">
   <property name="kdenlive:id">4</property>
  </entry>
  <entry producer="chain0" in="00:00:20.270" out="00:00:20.604">
   <property name="kdenlive:id">4</property>
  </entry>
  <entry producer="chain0" in="00:00:20.646" out="00:00:20.979">
   <property name="kdenlive:id">4</property>
  </entry>
  <entry producer="chain0" in="00:00:21.021" out="00:00:21.355">
   <property name="kdenlive:id">4</property>
  </entry>
  <entry producer="chain0" in="00:00:21.396" out="00:00:21.730">
   <property name="kdenlive:id">4</property>
  </entry>
  <entry producer="chain0" in="00:00:21.772" out="00:00:22.105">
   <property name="kdenlive:id">4</property>
  </entry>
  <entry producer="chain0" in="00:00:22.147" out="00:00:22.481">
   <property name="kdenlive:id">4</property>
  </entry>
  <entry producer="chain0" in="00:00:22.522" out="00:00:22.856">
   <property name="kdenlive:id">4</property>
  </entry>
  <entry producer="chain0" in="00:00:22.898" out="00:00:23.232">
   <property name="kdenlive:id">4</property>
  </entry>
  <entry producer="chain0" in="00:00:23.273" out="00:00:23.649">
   <property name="kdenlive:id">4</property>
  </entry>
  <entry producer="chain0" in="00:00:23.690" out="00:00:24.024">
   <property name="kdenlive:id">4</property>
  </entry>
  <entry producer="chain0" in="00:00:24.066" out="00:00:24.399">
   <property name="kdenlive:id">4</property>
  </entry>
  <entry producer="chain0" in="00:00:24.441" out="00:00:24.775">
   <property name="kdenlive:id">4</property>
  </entry>
  <entry producer="chain0" in="00:00:24.816" out="00:00:25.150">
   <property name="kdenlive:id">4</property>
  </entry>
  <entry producer="chain0" in="00:00:25.192" out="00:00:25.525">
   <property name="kdenlive:id">4</property>
  </entry>
  <entry producer="chain0" in="00:00:25.567" out="00:00:25.901">
   <property name="kdenlive:id">4</property>
  </entry>
  <entry producer="chain0" in="00:00:25.943" out="00:00:26.276">
   <property name="kdenlive:id">4</property>
  </entry>
  <entry producer="chain0" in="00:00:26.318" out="00:00:26.652">
   <property name="kdenlive:id">4</property>
  </entry>
  <entry producer="chain0" in="00:00:26.693" out="00:00:27.069">
   <property name="kdenlive:id">4</property>
  </entry>
  <entry producer="chain0" in="00:00:27.110" out="00:00:27.444">
   <property name="kdenlive:id">4</property>
  </entry>
  <entry producer="chain0" in="00:00:27.486" out="00:00:27.819">
   <property name="kdenlive:id">4</property>
  </entry>
  <entry producer="chain0" in="00:00:27.861" out="00:00:28.195">
   <property name="kdenlive:id">4</property>
  </entry>
  <entry producer="chain0" in="00:00:28.237" out="00:00:28.570">
   <property name="kdenlive:id">4</property>
  </entry>
  <entry producer="chain0" in="00:00:28.612" out="00:00:28.946">
   <property name="kdenlive:id">4</property>
  </entry>
  <entry producer="chain0" in="00:00:28.987" out="00:00:29.321">
   <property name="kdenlive:id">4</property>
  </entry>
  <entry producer="chain0" in="00:00:29.363" out="00:00:29.696">
   <property name="kdenlive:id">4</property>
  </entry>
  <entry producer="chain0" in="00:00:29.738" out="00:00:30.072">
   <property name="kdenlive:id">4</property>
  </entry>
  <entry producer="chain0" in="00:00:30.113" out="00:00:30.447">
   <property name="kdenlive:id">4</property>
  </entry>
  <entry producer="chain0" in="00:00:30.489" out="00:00:30.822">
   <property name="kdenlive:id">4</property>
  </entry>
  <entry producer="chain0" in="00:00:30.864" out="00:00:31.240">
   <property name="kdenlive:id">4</property>
  </entry>
  <entry producer="chain0" in="00:00:31.281" out="00:00:31.615">
   <property name="kdenlive:id">4</property>
  </entry>
  <entry producer="chain0" in="00:00:31.657" out="00:00:31.990">
   <property name="kdenlive:id">4</property>
  </entry>
  <entry producer="chain0" in="00:00:32.032" out="00:00:32.366">
   <property name="kdenlive:id">4</property>
  </entry>
  <entry producer="chain0" in="00:00:32.407" out="00:00:32.741">
   <property name="kdenlive:id">4</property>
  </entry>
  <entry producer="chain0" in="00:00:32.783" out="00:00:33.116">
   <property name="kdenlive:id">4</property>
  </entry>
  <entry producer="chain0" in="00:00:33.158" out="00:00:33.492">
   <property name="kdenlive:id">4</property>
  </entry>
  <entry producer="chain0" in="00:00:33.533" out="00:00:33.867">
   <property name="kdenlive:id">4</property>
  </entry>
  <entry producer="chain0" in="00:00:33.909" out="00:00:34.284">
   <property name="kdenlive:id">4</property>
  </entry>
  <entry producer="chain0" in="00:00:34.326" out="00:00:34.660">
   <property name="kdenlive:id">4</property>
  </entry>
  <entry producer="chain0" in="00:00:34.701" out="00:00:35.035">
   <property name="kdenlive:id">4</property>
  </entry>
  <entry producer="chain0" in="00:00:35.077" out="00:00:35.452">
   <property name="kdenlive:id">4</property>
  </entry>
  <entry producer="chain0" in="00:00:35.494" out="00:00:35.786">
   <property name="kdenlive:id">4</property>
  </entry>
  <entry producer="chain0" in="00:00:35.827" out="00:00:36.161">
   <property name="kdenlive:id">4</property>
  </entry>
  <entry producer="chain0" in="00:00:36.203" out="00:00:36.536">
   <property name="kdenlive:id">4</property>
  </entry>
  <entry producer="chain0" in="00:00:36.578" out="00:00:36.912">
   <property name="kdenlive:id">4</property>
  </entry>
  <entry producer="chain0" in="00:00:36.954" out="00:00:37.287">
   <property name="kdenlive:id">4</property>
  </entry>
  <entry producer="chain0" in="00:00:37.329" out="00:00:37.663">
   <property name="kdenlive:id">4</property>
  </entry>
  <entry producer="chain0" in="00:00:37.704" out="00:00:38.038">
   <property name="kdenlive:id">4</property>
  </entry>
  <entry producer="chain0" in="00:00:38.080" out="00:00:38.455">
   <property name="kdenlive:id">4</property>
  </entry>
  <entry producer="chain0" in="00:00:38.497" out="00:00:38.830">
   <property name="kdenlive:id">4</property>
  </entry>
  <entry producer="chain0" in="00:00:38.872" out="00:00:39.206">
   <property name="kdenlive:id">4</property>
  </entry>
  <entry producer="chain0" in="00:00:39.248" out="00:00:39.581">
   <property name="kdenlive:id">4</property>
  </entry>
  <entry producer="chain0" in="00:00:39.623" out="00:00:39.957">
   <property name="kdenlive:id">4</property>
  </entry>
  <entry producer="chain0" in="00:00:39.998" out="00:00:40.332">
   <property name="kdenlive:id">4</property>
  </entry>
  <entry producer="chain0" in="00:00:40.374" out="00:00:40.707">
   <property name="kdenlive:id">4</property>
  </entry>
  <entry producer="chain0" in="00:00:40.749" out="00:00:41.083">
   <property name="kdenlive:id">4</property>
  </entry>
  <entry producer="chain0" in="00:00:41.124" out="00:00:41.458">
   <property name="kdenlive:id">4</property>
  </entry>
  <entry producer="chain0" in="00:00:41.500" out="00:00:41.875">
   <property name="kdenlive:id">4</property>
  </entry>
  <entry producer="chain0" in="00:00:41.917" out="00:00:42.251">
   <property name="kdenlive:id">4</property>
  </entry>
  <entry producer="chain0" in="00:00:42.292" out="00:00:42.626">
   <property name="kdenlive:id">4</property>
  </entry>
  <entry producer="chain0" in="00:00:42.668" out="00:00:43.001">
   <property name="kdenlive:id">4</property>
  </entry>
  <entry producer="chain0" in="00:00:43.043" out="00:00:43.377">
   <property name="kdenlive:id">4</property>
  </entry>
  <entry producer="chain0" in="00:00:43.418" out="00:00:43.752">
   <property name="kdenlive:id">4</property>
  </entry>
  <entry producer="chain0" in="00:00:43.794" out="00:00:44.127">
   <property name="kdenlive:id">4</property>
  </entry>
  <entry producer="chain0" in="00:00:44.169" out="00:00:44.503">
   <property name="kdenlive:id">4</property>
  </entry>
  <entry producer="chain0" in="00:00:44.544" out="00:00:44.878">
   <property name="kdenlive:id">4</property>
  </entry>
  <entry producer="chain0" in="00:00:44.920" out="00:00:45.295">
   <property name="kdenlive:id">4</property>
  </entry>
  <entry producer="chain0" in="00:00:45.337" out="00:00:45.671">
   <property name="kdenlive:id">4</property>
  </entry>
  <entry producer="chain0" in="00:00:45.712" out="00:00:46.046">
   <property name="kdenlive:id">4</property>
  </entry>
  <entry producer="chain0" in="00:00:46.088" out="00:00:46.421">
   <property name="kdenlive:id">4</property>
  </entry>
  <entry producer="chain0" in="00:00:46.463" out="00:00:46.838">
   <property name="kdenlive:id">4</property>
  </entry>
  <entry producer="chain0" in="00:00:46.880" out="00:00:47.339">
   <property name="kdenlive:id">4</property>
  </entry>
  <entry producer="chain0" in="00:00:47.381" out="00:00:47.547">
   <property name="kdenlive:id">4</property>
  </entry>
  <entry producer="chain0" in="00:00:47.589" out="00:00:47.923">
   <property name="kdenlive:id">4</property>
  </entry>
  <entry producer="chain0" in="00:00:47.965" out="00:00:48.298">
   <property name="kdenlive:id">4</property>
  </entry>
  <entry producer="chain0" in="00:00:48.340" out="00:00:48.674">
   <property name="kdenlive:id">4</property>
  </entry>
  <entry producer="chain0" in="00:00:48.715" out="00:00:49.091">
   <property name="kdenlive:id">4</property>
  </entry>
  <entry producer="chain0" in="00:00:49.132" out="00:00:49.466">
   <property name="kdenlive:id">4</property>
  </entry>
  <entry producer="chain0" in="00:00:49.508" out="00:00:49.841">
   <property name="kdenlive:id">4</property>
  </entry>
  <entry producer="chain0" in="00:00:49.883" out="00:00:50.259">
   <property name="kdenlive:id">4</property>
  </entry>
  <entry producer="chain0" in="00:00:50.300" out="00:00:50.592">
   <property name="kdenlive:id">4</property>
  </entry>
  <entry producer="chain0" in="00:00:50.634" out="00:00:50.968">
   <property name="kdenlive:id">4</property>
  </entry>
  <entry producer="chain0" in="00:00:51.009" out="00:00:51.343">
   <property name="kdenlive:id">4</property>
  </entry>
  <entry producer="chain0" in="00:00:51.385" out="00:00:51.760">
   <property name="kdenlive:id">4</property>
  </entry>
  <entry producer="chain0" in="00:00:51.802" out="00:00:52.094">
   <property name="kdenlive:id">4</property>
  </entry>
  <entry producer="chain0" in="00:00:52.135" out="00:00:52.469">
   <property name="kdenlive:id">4</property>
  </entry>
  <entry producer="chain0" in="00:00:52.511" out="00:00:52.886">
   <property name="kdenlive:id">4</property>
  </entry>
  <entry producer="chain0" in="00:00:52.928" out="00:00:53.262">
   <property name="kdenlive:id">4</property>
  </entry>
  <entry producer="chain0" in="00:00:53.303" out="00:00:53.637">
   <property name="kdenlive:id">4</property>
  </entry>
  <entry producer="chain0" in="00:00:53.679" out="00:00:54.012">
   <property name="kdenlive:id">4</property>
  </entry>
  <entry producer="chain0" in="00:00:54.054" out="00:00:54.388">
   <property name="kdenlive:id">4</property>
  </entry>
  <entry producer="chain0" in="00:00:54.429" out="00:00:54.763">
   <property name="kdenlive:id">4</property>
  </entry>
  <entry producer="chain0" in="00:00:54.805" out="00:00:55.138">
   <property name="kdenlive:id">4</property>
  </entry>
  <entry producer="chain0" in="00:00:55.180" out="00:00:55.514">
   <property name="kdenlive:id">4</property>
  </entry>
  <entry producer="chain0" in="00:00:55.555" out="00:00:55.889">
   <property name="kdenlive:id">4</property>
  </entry>
  <entry producer="chain0" in="00:00:55.931" out="00:00:56.265">
   <property name="kdenlive:id">4</property>
  </entry>
  <entry producer="chain0" in="00:00:56.306" out="00:00:56.682">
   <property name="kdenlive:id">4</property>
  </entry>
  <entry producer="chain0" in="00:00:56.723" out="00:00:57.057">
   <property name="kdenlive:id">4</property>
  </entry>
  <entry producer="chain0" in="00:00:57.099" out="00:00:57.432">
   <property name="kdenlive:id">4</property>
  </entry>
  <entry producer="chain0" in="00:00:57.474" out="00:00:57.808">
   <property name="kdenlive:id">4</property>
  </entry>
  <entry producer="chain0" in="00:00:57.849" out="00:00:58.183">
   <property name="kdenlive:id">4</property>
  </entry>
  <entry producer="chain0" in="00:00:58.225" out="00:00:58.558">
   <property name="kdenlive:id">4</property>
  </entry>
  <entry producer="chain0" in="00:00:58.600" out="00:00:58.934">
   <property name="kdenlive:id">4</property>
  </entry>
  <entry producer="chain0" in="00:00:58.976" out="00:00:59.351">
   <property name="kdenlive:id">4</property>
  </entry>
  <entry producer="chain0" in="00:00:59.393" out="00:00:59.685">
   <property name="kdenlive:id">4</property>
  </entry>
  <entry producer="chain0" in="00:00:59.726" out="00:01:00.125">
   <property name="kdenlive:id">4</property>
  </entry>
  <entry producer="chain0" in="00:01:00.167" out="00:01:00.500">
   <property name="kdenlive:id">4</property>
  </entry>
  <entry producer="chain0" in="00:01:00.542" out="00:01:00.876">
   <property name="kdenlive:id">4</property>
  </entry>
  <entry producer="chain0" in="00:01:00.918" out="00:01:01.251">
   <property name="kdenlive:id">4</property>
  </entry>
  <entry producer="chain0" in="00:01:01.293" out="00:01:01.627">
   <property name="kdenlive:id">4</property>
  </entry>
  <entry producer="chain0" in="00:01:01.668" out="00:01:02.002">
   <property name="kdenlive:id">4</property>
  </entry>
  <entry producer="chain0" in="00:01:02.044" out="00:01:02.377">
   <property name="kdenlive:id">4</property>
  </entry>
  <entry producer="chain0" in="00:01:02.419" out="00:01:02.753">
   <property name="kdenlive:id">4</property>
  </entry>
  <entry producer="chain0" in="00:01:02.794" out="00:01:03.170">
   <property name="kdenlive:id">4</property>
  </entry>
  <entry producer="chain0" in="00:01:03.212" out="00:01:03.545">
   <property name="kdenlive:id">4</property>
  </entry>
  <entry producer="chain0" in="00:01:03.587" out="00:01:03.921">
   <property name="kdenlive:id">4</property>
  </entry>
  <entry producer="chain0" in="00:01:03.962" out="00:01:04.296">
   <property name="kdenlive:id">4</property>
  </entry>
  <entry producer="chain0" in="00:01:04.338" out="00:01:04.671">
   <property name="kdenlive:id">4</property>
  </entry>
  <entry producer="chain0" in="00:01:04.713" out="00:01:05.047">
   <property name="kdenlive:id">4</property>
  </entry>
  <entry producer="chain0" in="00:01:05.088" out="00:01:05.422">
   <property name="kdenlive:id">4</property>
  </entry>
  <entry producer="chain0" in="00:01:05.464" out="00:01:05.797">
   <property name="kdenlive:id">4</property>
  </entry>
  <entry producer="chain0" in="00:01:05.839" out="00:01:06.173">
   <property name="kdenlive:id">4</property>
  </entry>
  <entry producer="chain0" in="00:01:06.215" out="00:01:06.548">
   <property name="kdenlive:id">4</property>
  </entry>
  <entry producer="chain0" in="00:01:06.590" out="00:01:06.965">
   <property name="kdenlive:id">4</property>
  </entry>
  <entry producer="chain0" in="00:01:07.007" out="00:01:07.341">
   <property name="kdenlive:id">4</property>
  </entry>
  <entry producer="chain0" in="00:01:07.382" out="00:01:07.716">
   <property name="kdenlive:id">4</property>
  </entry>
  <entry producer="chain0" in="00:01:07.758" out="00:01:08.091">
   <property name="kdenlive:id">4</property>
  </entry>
  <entry producer="chain0" in="00:01:08.133" out="00:01:08.467">
   <property name="kdenlive:id">4</property>
  </entry>
  <entry producer="chain0" in="00:01:08.508" out="00:01:08.842">
   <property name="kdenlive:id">4</property>
  </entry>
  <entry producer="chain0" in="00:01:08.884" out="00:01:09.218">
   <property name="kdenlive:id">4</property>
  </entry>
  <entry producer="chain0" in="00:01:09.259" out="00:01:09.593">
   <property name="kdenlive:id">4</property>
  </entry>
  <entry producer="chain0" in="00:01:09.635" out="00:01:10.010">
   <property name="kdenlive:id">4</property>
  </entry>
  <entry producer="chain0" in="00:01:10.052" out="00:01:10.302">
   <property name="kdenlive:id">4</property>
  </entry>
  <entry producer="chain0" in="00:01:10.344" out="00:01:10.719">
   <property name="kdenlive:id">4</property>
  </entry>
  <entry producer="chain0" in="00:01:10.761" out="00:01:11.094">
   <property name="kdenlive:id">4</property>
  </entry>
  <entry producer="chain0" in="00:01:11.136" out="00:01:11.511">
   <property name="kdenlive:id">4</property>
  </entry>
  <entry producer="chain0" in="00:01:11.553" out="00:01:11.887">
   <property name="kdenlive:id">4</property>
  </entry>
  <entry producer="chain0" in="00:01:11.929" out="00:01:12.262">
   <property name="kdenlive:id">4</property>
  </entry>
  <entry producer="chain0" in="00:01:12.304" out="00:01:12.638">
   <property name="kdenlive:id">4</property>
  </entry>
  <entry producer="chain0" in="00:01:12.679" out="00:01:13.013">
   <property name="kdenlive:id">4</property>
  </entry>
  <entry producer="chain0" in="00:01:13.055" out="00:01:13.388">
   <property name="kdenlive:id">4</property>
  </entry>
  <entry producer="chain0" in="00:01:13.430" out="00:01:13.764">
   <property name="kdenlive:id">4</property>
  </entry>
  <entry producer="chain0" in="00:01:13.805" out="00:01:14.139">
   <property name="kdenlive:id">4</property>
  </entry>
  <entry producer="chain0" in="00:01:14.181" out="00:01:14.556">
   <property name="kdenlive:id">4</property>
  </entry>
  <entry producer="chain0" in="00:01:14.598" out="00:01:14.932">
   <property name="kdenlive:id">4</property>
  </entry>
  <entry producer="chain0" in="00:01:14.973" out="00:01:15.307">
   <property name="kdenlive:id">4</property>
  </entry>
  <entry producer="chain0" in="00:01:15.349" out="00:01:15.682">
   <property name="kdenlive:id">4</property>
  </entry>
  <entry producer="chain0" in="00:01:15.724" out="00:01:16.058">
   <property name="kdenlive:id">4</property>
  </entry>
  <entry producer="chain0" in="00:01:16.099" out="00:01:16.433">
   <property name="kdenlive:id">4</property>
  </entry>
  <entry producer="chain0" in="00:01:16.475" out="00:01:16.808">
   <property name="kdenlive:id">4</property>
  </entry>
  <entry producer="chain0" in="00:01:16.850" out="00:01:17.184">
   <property name="kdenlive:id">4</property>
  </entry>
  <entry producer="chain0" in="00:01:17.226" out="00:01:17.559">
   <property name="kdenlive:id">4</property>
  </entry>
  <entry producer="chain0" in="00:01:17.601" out="00:01:17.935">
   <property name="kdenlive:id">4</property>
  </entry>
  <entry producer="chain0" in="00:01:17.976" out="00:01:18.352">
   <property name="kdenlive:id">4</property>
  </entry>
  <entry producer="chain0" in="00:01:18.393" out="00:01:18.727">
   <property name="kdenlive:id">4</property>
  </entry>
  <entry producer="chain0" in="00:01:18.769" out="00:01:19.102">
   <property name="kdenlive:id">4</property>
  </entry>
  <entry producer="chain0" in="00:01:19.144" out="00:01:19.478">
   <property name="kdenlive:id">4</property>
  </entry>
  <entry producer="chain0" in="00:01:19.519" out="00:01:19.853">
   <property name="kdenlive:id">4</property>
  </entry>
  <entry producer="chain0" in="00:01:19.895" out="00:01:20.229">
   <property name="kdenlive:id">4</property>
  </entry>
  <entry producer="chain0" in="00:01:20.270" out="00:01:20.604">
   <property name="kdenlive:id">4</property>
  </entry>
  <entry producer="chain0" in="00:01:20.646" out="00:01:20.979">
   <property name="kdenlive:id">4</property>
  </entry>
  <entry producer="chain0" in="00:01:21.021" out="00:01:21.355">
   <property name="kdenlive:id">4</property>
  </entry>
  <entry producer="chain0" in="00:01:21.396" out="00:01:21.772">
   <property name="kdenlive:id">4</property>
  </entry>
  <entry producer="chain0" in="00:01:21.813" out="00:01:22.147">
   <property name="kdenlive:id">4</property>
  </entry>
  <entry producer="chain0" in="00:01:22.189" out="00:01:22.522">
   <property name="kdenlive:id">4</property>
  </entry>
  <entry producer="chain0" in="00:01:22.564" out="00:01:22.898">
   <property name="kdenlive:id">4</property>
  </entry>
  <entry producer="chain0" in="00:01:22.940" out="00:01:23.273">
   <property name="kdenlive:id">4</property>
  </entry>
  <entry producer="chain0" in="00:01:23.315" out="00:01:23.649">
   <property name="kdenlive:id">4</property>
  </entry>
  <entry producer="chain0" in="00:01:23.690" out="00:01:24.024">
   <property name="kdenlive:id">4</property>
  </entry>
  <entry producer="chain0" in="00:01:24.066" out="00:01:24.399">
   <property name="kdenlive:id">4</property>
  </entry>
  <entry producer="chain0" in="00:01:24.441" out="00:01:24.775">
   <property name="kdenlive:id">4</property>
  </entry>
  <entry producer="chain0" in="00:01:24.816" out="00:01:25.192">
   <property name="kdenlive:id">4</property>
  </entry>
  <entry producer="chain0" in="00:01:25.234" out="00:01:25.567">
   <property name="kdenlive:id">4</property>
  </entry>
  <entry producer="chain0" in="00:01:25.609" out="00:01:25.943">
   <property name="kdenlive:id">4</property>
  </entry>
  <entry producer="chain0" in="00:01:25.984" out="00:01:26.318">
   <property name="kdenlive:id">4</property>
  </entry>
  <entry producer="chain0" in="00:01:26.360" out="00:01:26.693">
   <property name="kdenlive:id">4</property>
  </entry>
  <entry producer="chain0" in="00:01:26.735" out="00:01:27.069">
   <property name="kdenlive:id">4</property>
  </entry>
  <entry producer="chain0" in="00:01:27.110" out="00:01:27.444">
   <property name="kdenlive:id">4</property>
  </entry>
  <entry producer="chain0" in="00:01:27.486" out="00:01:27.819">
   <property name="kdenlive:id">4</property>
  </entry>
  <entry producer="chain0" in="00:01:27.861" out="00:01:28.195">
   <property name="kdenlive:id">4</property>
  </entry>
  <entry producer="chain0" in="00:01:28.237" out="00:01:28.570">
   <property name="kdenlive:id">4</property>
  </entry>
  <entry producer="chain0" in="00:01:28.612" out="00:01:28.987">
   <property name="kdenlive:id">4</property>
  </entry>
  <entry producer="chain0" in="00:01:29.029" out="00:01:29.363">
   <property name="kdenlive:id">4</property>
  </entry>
  <entry producer="chain0" in="00:01:29.404" out="00:01:29.738">
   <property name="kdenlive:id">4</property>
  </entry>
  <entry producer="chain0" in="00:01:29.780" out="00:01:30.113">
   <property name="kdenlive:id">4</property>
  </entry>
  <entry producer="chain0" in="00:01:30.155" out="00:01:30.489">
   <property name="kdenlive:id">4</property>
  </entry>
  <entry producer="chain0" in="00:01:30.530" out="00:01:30.864">
   <property name="kdenlive:id">4</property>
  </entry>
  <entry producer="chain0" in="00:01:30.906" out="00:01:31.240">
   <property name="kdenlive:id">4</property>
  </entry>
  <entry producer="chain0" in="00:01:31.281" out="00:01:31.615">
   <property name="kdenlive:id">4</property>
  </entry>
  <entry producer="chain0" in="00:01:31.657" out="00:01:32.032">
   <property name="kdenlive:id">4</property>
  </entry>
  <entry producer="chain0" in="00:01:32.074" out="00:01:32.407">
   <property name="kdenlive:id">4</property>
  </entry>
  <entry producer="chain0" in="00:01:32.449" out="00:01:32.783">
   <property name="kdenlive:id">4</property>
  </entry>
  <entry producer="chain0" in="00:01:32.824" out="00:01:33.158">
   <property name="kdenlive:id">4</property>
  </entry>
  <entry producer="chain0" in="00:01:33.200" out="00:01:33.533">
   <property name="kdenlive:id">4</property>
  </entry>
  <entry producer="chain0" in="00:01:33.575" out="00:01:33.909">
   <property name="kdenlive:id">4</property>
  </entry>
  <entry producer="chain0" in="00:01:33.951" out="00:01:34.284">
   <property name="kdenlive:id">4</property>
  </entry>
  <entry producer="chain0" in="00:01:34.326" out="00:01:34.660">
   <property name="kdenlive:id">4</property>
  </entry>
  <entry producer="chain0" in="00:01:34.701" out="00:01:35.035">
   <property name="kdenlive:id">4</property>
  </entry>
  <entry producer="chain0" in="00:01:35.077" out="00:01:35.410">
   <property name="kdenlive:id">4</property>
  </entry>
  <entry producer="chain0" in="00:01:35.452" out="00:01:35.786">
   <property name="kdenlive:id">4</property>
  </entry>
  <entry producer="chain0" in="00:01:35.827" out="00:01:36.203">
   <property name="kdenlive:id">4</property>
  </entry>
  <entry producer="chain0" in="00:01:36.245" out="00:01:36.578">
   <property name="kdenlive:id">4</property>
  </entry>
  <entry producer="chain0" in="00:01:36.620" out="00:01:36.954">
   <property name="kdenlive:id">4</property>
  </entry>
  <entry producer="chain0" in="00:01:36.995" out="00:01:37.329">
   <property name="kdenlive:id">4</property>
  </entry>
  <entry producer="chain0" in="00:01:37.371" out="00:01:37.704">
   <property name="kdenlive:id">4</property>
  </entry>
  <entry producer="chain0" in="00:01:37.746" out="00:01:38.080">
   <property name="kdenlive:id">4</property>
  </entry>
  <entry producer="chain0" in="00:01:38.121" out="00:01:38.455">
   <property name="kdenlive:id">4</property>
  </entry>
  <entry producer="chain0" in="00:01:38.497" out="00:01:38.830">
   <property name="kdenlive:id">4</property>
  </entry>
  <entry producer="chain0" in="00:01:38.872" out="00:01:39.206">
   <property name="kdenlive:id">4</property>
  </entry>
  <entry producer="chain0" in="00:01:39.248" out="00:01:39.623">
   <property name="kdenlive:id">4</property>
  </entry>
  <entry producer="chain0" in="00:01:39.665" out="00:01:39.998">
   <property name="kdenlive:id">4</property>
  </entry>
  <entry producer="chain0" in="00:01:40.040" out="00:01:40.374">
   <property name="kdenlive:id">4</property>
  </entry>
  <entry producer="chain0" in="00:01:40.415" out="00:01:40.749">
   <property name="kdenlive:id">4</property>
  </entry>
  <entry producer="chain0" in="00:01:40.791" out="00:01:43.585">
   <property name="kdenlive:id">4</property>
  </entry>
  <entry producer="chain0" in="00:01:43.627" out="00:01:48.840">
   <property name="kdenlive:id">4</property>
  </entry>
  <entry producer="chain0" in="00:01:48.882" out="00:01:50.509">
   <property name="kdenlive:id">4</property>
  </entry>
  <entry producer="chain0" in="00:01:50.550" out="00:01:52.177">
   <property name="kdenlive:id">4</property>
  </entry>
  <entry producer="chain0" in="00:01:52.219" out="00:01:55.013">
   <property name="kdenlive:id">4</property>
  </entry>
  <entry producer="chain0" in="00:01:55.055" out="00:01:58.058">
   <property name="kdenlive:id">4</property>
  </entry>
  <entry producer="chain0" in="00:01:58.100" out="00:01:59.977">
   <property name="kdenlive:id">4</property>
  </entry>
  <entry producer="chain0" in="00:02:00.000" out="00:02:01.960">
   <property name="kdenlive:id">4</property>
  </entry>
  <entry producer="chain0" in="00:02:02.002" out="00:02:03.503">
   <property name="kdenlive:id">4</property>
  </entry>
  <entry producer="chain0" in="00:02:03.545" out="00:02:06.298">
   <property name="kdenlive:id">4</property>
  </entry>
  <entry producer="chain0" in="00:02:06.340" out="00:02:07.716">
   <property name="kdenlive:id">4</property>
  </entry>
  <entry producer="chain0" in="00:02:07.758" out="00:02:10.594">
   <property name="kdenlive:id">4</property>
  </entry>
  <entry producer="chain0" in="00:02:10.636" out="00:02:13.263">
   <property name="kdenlive:id">4</property>
  </entry>
  <entry producer="chain0" in="00:02:13.305" out="00:02:14.848">
   <property name="kdenlive:id">4</property>
  </entry>
  <entry producer="chain0" in="00:02:14.890" out="00:02:17.684">
   <property name="kdenlive:id">4</property>
  </entry>
  <entry producer="chain0" in="00:02:17.726" out="00:02:19.478">
   <property name="kdenlive:id">4</property>
  </entry>
  <entry producer="chain0" in="00:02:19.519" out="00:02:20.562">
   <property name="kdenlive:id">4</property>
  </entry>
  <entry producer="chain0" in="00:02:20.604" out="00:02:22.022">
   <property name="kdenlive:id">4</property>
  </entry>
  <entry producer="chain0" in="00:02:22.064" out="00:02:24.358">
   <property name="kdenlive:id">4</property>
  </entry>
  <entry producer="chain0" in="00:02:24.399" out="00:02:26.235">
   <property name="kdenlive:id">4</property>
  </entry>
  <entry producer="chain0" in="00:02:26.276" out="00:02:31.949">
   <property name="kdenlive:id">4</property>
  </entry>
  <entry producer="chain0" in="00:02:31.990" out="00:02:33.367">
   <property name="kdenlive:id">4</property>
  </entry>
  <entry producer="chain0" in="00:02:33.408" out="00:02:34.368">
   <property name="kdenlive:id">4</property>
  </entry>
  <entry producer="chain0" in="00:02:34.409" out="00:02:36.036">
   <property name="kdenlive:id">4</property>
  </entry>
  <entry producer="chain0" in="00:02:36.078" out="00:02:37.704">
   <property name="kdenlive:id">4</property>
  </entry>
  <entry producer="chain0" in="00:02:37.746" out="00:02:43.377">
   <property name="kdenlive:id">4</property>
  </entry>
  <entry producer="chain0" in="00:02:43.418" out="00:02:46.213">
   <property name="kdenlive:id">4</property>
  </entry>
  <entry producer="chain0" in="00:02:46.255" out="00:02:49.007">
   <property name="kdenlive:id">4</property>
  </entry>
  <entry producer="chain0" in="00:02:49.049" out="00:02:57.391">
   <property name="kdenlive:id">4</property>
  </entry>
  <entry producer="chain0" in="00:02:57.432" out="00:02:59.101">
   <property name="kdenlive:id">4</property>
  </entry>
  <entry producer="chain0" in="00:02:59.142" out="00:03:00.500">
   <property name="kdenlive:id">4</property>
  </entry>
  <entry producer="chain0" in="00:03:00.542" out="00:03:03.378">
   <property name="kdenlive:id">4</property>
  </entry>
  <entry producer="chain0" in="00:03:03.420" out="00:03:06.173">
   <property name="kdenlive:id">4</property>
  </entry>
  <entry producer="chain0" in="00:03:06.215" out="00:03:11.845">
   <property name="kdenlive:id">4</property>
  </entry>
  <entry producer="chain0" in="00:03:11.887" out="00:03:14.681">
   <property name="kdenlive:id">4</property>
  </entry>
  <entry producer="chain0" in="00:03:14.723" out="00:03:17.517">
   <property name="kdenlive:id">4</property>
  </entry>
  <entry producer="chain0" in="00:03:17.559" out="00:03:17.976">
   <property name="kdenlive:id">4</property>
  </entry>
  <entry producer="chain0" in="00:03:18.018" out="00:03:18.227">
   <property name="kdenlive:id">4</property>
  </entry>
  <entry producer="chain0" in="00:03:18.268" out="00:03:18.936">
   <property name="kdenlive:id">4</property>
  </entry>
  <entry producer="chain0" in="00:03:18.977" out="00:03:21.772">
   <property name="kdenlive:id">4</property>
  </entry>
  <entry producer="chain0" in="00:03:21.813" out="00:03:24.608">
   <property name="kdenlive:id">4</property>
  </entry>
  <entry producer="chain0" in="00:03:24.650" out="00:03:27.444">
   <property name="kdenlive:id">4</property>
  </entry>
  <entry producer="chain0" in="00:03:27.486" out="00:03:31.740">
   <property name="kdenlive:id">4</property>
  </entry>
  <entry producer="chain0" in="00:03:31.782" out="00:03:34.076">
   <property name="kdenlive:id">4</property>
  </entry>
  <entry producer="chain0" in="00:03:34.117" out="00:03:41.833">
   <property name="kdenlive:id">4</property>
  </entry>
  <entry producer="chain0" in="00:03:41.875" out="00:03:45.212">
   <property name="kdenlive:id">4</property>
  </entry>
 </playlist>
 <playlist id="playlist3">
  <property name="kdenlive:audio_track">1</property>
 </playlist>
 <tractor id="tractor1" in="00:00:00.000" out="00:03:45.212">
  <property name="kdenlive:audio_track">1</property>
  <property name="kdenlive:trackheight">67</property>
  <property name="kdenlive:timeline_active">1</property>
  <property name="kdenlive:collapsed">0</property>
  <property name="kdenlive:thumbs_format"/>
  <property name="kdenlive:audio_rec"/>
  <track hide="both" producer="playlist2"/>
  <track hide="both" producer="playlist3"/>
  <filter id="filter3">
   <property name="window">75</property>
   <property name="max_gain">20dB</property>
   <property name="mlt_service">volume</property>
   <property name="internal_added">237</property>
   <property name="disable">1</property>
  </filter>
  <filter id="filter4">
   <property name="channel">-1</property>
   <property name="mlt_service">panner</property>
   <property name="internal_added">237</property>
   <property name="start">0.5</property>
   <property name="disable">1</property>
  </filter>
  <filter id="filter5">
   <property name="iec_scale">0</property>
   <property name="mlt_service">audiolevel</property>
   <property name="dbpeak">1</property>
   <property name="disable">1</property>
  </filter>
 </tractor>
 <chain id="chain1" out="00:03:45.212">
  <property name="length">5400</property>
  <property name="eof">pause</property>
  <property name="resource">/home/fedora/Videos/Clips/Joji - Gimme Love.mp4</property>
  <property name="mlt_service">avformat-novalidate</property>
  <property name="seekable">1</property>
  <property name="format">3</property>
  <property name="audio_index">1</property>
  <property name="video_index">0</property>
  <property name="vstream">0</property>
  <property name="astream">0</property>
  <property name="kdenlive:id">4</property>
  <property name="kdenlive:clip_type">0</property>
  <property name="kdenlive:file_size">8721842</property>
  <property name="kdenlive:file_hash">5461f5a22c5b34843dafee44bc5b6802</property>
  <property name="kdenlive:folderid">-1</property>
  <property name="kdenlive:audio_max1">249</property>
  <property name="meta.media.nb_streams">2</property>
  <property name="meta.media.0.stream.type">video</property>
  <property name="meta.media.0.stream.frame_rate">23.976</property>
  <property name="meta.media.0.stream.sample_aspect_ratio">0</property>
  <property name="meta.media.0.codec.width">640</property>
  <property name="meta.media.0.codec.height">360</property>
  <property name="meta.media.0.codec.rotate">0</property>
  <property name="meta.media.0.codec.pix_fmt">yuv420p</property>
  <property name="meta.media.0.codec.sample_aspect_ratio">1</property>
  <property name="meta.media.0.codec.colorspace">709</property>
  <property name="meta.media.0.codec.color_trc">1</property>
  <property name="meta.media.0.codec.name">h264</property>
  <property name="meta.media.0.codec.long_name">H.264 / AVC / MPEG-4 AVC / MPEG-4 part 10</property>
  <property name="meta.media.0.codec.bit_rate">178273</property>
  <property name="meta.attr.0.stream.creation_time.markup">2023-11-26T21:47:19.000000Z</property>
  <property name="meta.attr.0.stream.handler_name.markup">ISO Media file produced by Google Inc. Created on: 11/26/2023.</property>
  <property name="meta.attr.0.stream.vendor_id.markup">[0][0][0][0]</property>
  <property name="meta.media.1.stream.type">audio</property>
  <property name="meta.media.1.codec.sample_fmt">fltp</property>
  <property name="meta.media.1.codec.sample_rate">44100</property>
  <property name="meta.media.1.codec.channels">2</property>
  <property name="meta.media.1.codec.name">aac</property>
  <property name="meta.media.1.codec.long_name">AAC (Advanced Audio Coding)</property>
  <property name="meta.media.1.codec.bit_rate">127999</property>
  <property name="meta.attr.1.stream.creation_time.markup">2023-11-26T21:47:19.000000Z</property>
  <property name="meta.attr.1.stream.language.markup">eng</property>
  <property name="meta.attr.1.stream.handler_name.markup">ISO Media file produced by Google Inc. Created on: 11/26/2023.</property>
  <property name="meta.attr.1.stream.vendor_id.markup">[0][0][0][0]</property>
  <property name="meta.attr.major_brand.markup">mp42</property>
  <property name="meta.attr.minor_version.markup">0</property>
  <property name="meta.attr.compatible_brands.markup">isommp42</property>
  <property name="meta.attr.creation_time.markup">2023-11-26T21:47:19.000000Z</property>
  <property name="meta.media.sample_aspect_num">1</property>
  <property name="meta.media.sample_aspect_den">1</property>
  <property name="meta.media.frame_rate_num">24000</property>
  <property name="meta.media.frame_rate_den">1001</property>
  <property name="meta.media.colorspace">709</property>
  <property name="meta.media.color_trc">1</property>
  <property name="meta.media.has_b_frames">1</property>
  <property name="meta.media.width">640</property>
  <property name="meta.media.height">360</property>
  <property name="meta.media.color_range">mpeg</property>
  <property name="xml">was here</property>
  <property name="mute_on_pause">0</property>
  <property name="meta.media.top_field_first">0</property>
  <property name="meta.media.progressive">1</property>
  <property name="set.test_audio">1</property>
  <property name="set.test_image">0</property>
 </chain>
 <playlist id="playlist4">
  <entry producer="chain1" in="00:00:00.000" out="00:00:00.459">
   <property name="kdenlive:id">4</property>
  </entry>
  <entry producer="chain1" in="00:00:00.500" out="00:00:03.503">
   <property name="kdenlive:id">4</property>
  </entry>
  <entry producer="chain1" in="00:00:03.545" out="00:00:03.879">
   <property name="kdenlive:id">4</property>
  </entry>
  <entry producer="chain1" in="00:00:03.921" out="00:00:04.254">
   <property name="kdenlive:id">4</property>
  </entry>
  <entry producer="chain1" in="00:00:04.296" out="00:00:04.630">
   <property name="kdenlive:id">4</property>
  </entry>
  <entry producer="chain1" in="00:00:04.671" out="00:00:05.005">
   <property name="kdenlive:id">4</property>
  </entry>
  <entry producer="chain1" in="00:00:05.047" out="00:00:05.380">
   <property name="kdenlive:id">4</property>
  </entry>
  <entry producer="chain1" in="00:00:05.422" out="00:00:05.797">
   <property name="kdenlive:id">4</property>
  </entry>
  <entry producer="chain1" in="00:00:05.839" out="00:00:06.173">
   <property name="kdenlive:id">4</property>
  </entry>
  <entry producer="chain1" in="00:00:06.215" out="00:00:06.548">
   <property name="kdenlive:id">4</property>
  </entry>
  <entry producer="chain1" in="00:00:06.590" out="00:00:06.924">
   <property name="kdenlive:id">4</property>
  </entry>
  <entry producer="chain1" in="00:00:06.965" out="00:00:07.299">
   <property name="kdenlive:id">4</property>
  </entry>
  <entry producer="chain1" in="00:00:07.341" out="00:00:07.674">
   <property name="kdenlive:id">4</property>
  </entry>
  <entry producer="chain1" in="00:00:07.716" out="00:00:08.050">
   <property name="kdenlive:id">4</property>
  </entry>
  <entry producer="chain1" in="00:00:08.091" out="00:00:08.425">
   <property name="kdenlive:id">4</property>
  </entry>
  <entry producer="chain1" in="00:00:08.467" out="00:00:08.800">
   <property name="kdenlive:id">4</property>
  </entry>
  <entry producer="chain1" in="00:00:08.842" out="00:00:09.218">
   <property name="kdenlive:id">4</property>
  </entry>
  <entry producer="chain1" in="00:00:09.259" out="00:00:09.593">
   <property name="kdenlive:id">4</property>
  </entry>
  <entry producer="chain1" in="00:00:09.635" out="00:00:09.968">
   <property name="kdenlive:id">4</property>
  </entry>
  <entry producer="chain1" in="00:00:10.010" out="00:00:10.344">
   <property name="kdenlive:id">4</property>
  </entry>
  <entry producer="chain1" in="00:00:10.385" out="00:00:10.802">
   <property name="kdenlive:id">4</property>
  </entry>
  <entry producer="chain1" in="00:00:10.844" out="00:00:11.094">
   <property name="kdenlive:id">4</property>
  </entry>
  <entry producer="chain1" in="00:00:11.136" out="00:00:11.470">
   <property name="kdenlive:id">4</property>
  </entry>
  <entry producer="chain1" in="00:00:11.511" out="00:00:11.887">
   <property name="kdenlive:id">4</property>
  </entry>
  <entry producer="chain1" in="00:00:11.929" out="00:00:12.221">
   <property name="kdenlive:id">4</property>
  </entry>
  <entry producer="chain1" in="00:00:12.262" out="00:00:12.596">
   <property name="kdenlive:id">4</property>
  </entry>
  <entry producer="chain1" in="00:00:12.638" out="00:00:13.013">
   <property name="kdenlive:id">4</property>
  </entry>
  <entry producer="chain1" in="00:00:13.055" out="00:00:13.388">
   <property name="kdenlive:id">4</property>
  </entry>
  <entry producer="chain1" in="00:00:13.430" out="00:00:13.764">
   <property name="kdenlive:id">4</property>
  </entry>
  <entry producer="chain1" in="00:00:13.805" out="00:00:14.139">
   <property name="kdenlive:id">4</property>
  </entry>
  <entry producer="chain1" in="00:00:14.181" out="00:00:14.514">
   <property name="kdenlive:id">4</property>
  </entry>
  <entry producer="chain1" in="00:00:14.556" out="00:00:14.890">
   <property name="kdenlive:id">4</property>
  </entry>
  <entry producer="chain1" in="00:00:14.932" out="00:00:15.265">
   <property name="kdenlive:id">4</property>
  </entry>
  <entry producer="chain1" in="00:00:15.307" out="00:00:15.641">
   <property name="kdenlive:id">4</property>
  </entry>
  <entry producer="chain1" in="00:00:15.682" out="00:00:16.058">
   <property name="kdenlive:id">4</property>
  </entry>
  <entry producer="chain1" in="00:00:16.099" out="00:00:16.433">
   <property name="kdenlive:id">4</property>
  </entry>
  <entry producer="chain1" in="00:00:16.475" out="00:00:16.808">
   <property name="kdenlive:id">4</property>
  </entry>
  <entry producer="chain1" in="00:00:16.850" out="00:00:17.184">
   <property name="kdenlive:id">4</property>
  </entry>
  <entry producer="chain1" in="00:00:17.226" out="00:00:17.559">
   <property name="kdenlive:id">4</property>
  </entry>
  <entry producer="chain1" in="00:00:17.601" out="00:00:17.935">
   <property name="kdenlive:id">4</property>
  </entry>
  <entry producer="chain1" in="00:00:17.976" out="00:00:18.310">
   <property name="kdenlive:id">4</property>
  </entry>
  <entry producer="chain1" in="00:00:18.352" out="00:00:18.685">
   <property name="kdenlive:id">4</property>
  </entry>
  <entry producer="chain1" in="00:00:18.727" out="00:00:19.061">
   <property name="kdenlive:id">4</property>
  </entry>
  <entry producer="chain1" in="00:00:19.102" out="00:00:19.436">
   <property name="kdenlive:id">4</property>
  </entry>
  <entry producer="chain1" in="00:00:19.478" out="00:00:19.811">
   <property name="kdenlive:id">4</property>
  </entry>
  <entry producer="chain1" in="00:00:19.853" out="00:00:20.229">
   <property name="kdenlive:id">4</property>
  </entry>
  <entry producer="chain1" in="00:00:20.270" out="00:00:20.604">
   <property name="kdenlive:id">4</property>
  </entry>
  <entry producer="chain1" in="00:00:20.646" out="00:00:20.979">
   <property name="kdenlive:id">4</property>
  </entry>
  <entry producer="chain1" in="00:00:21.021" out="00:00:21.355">
   <property name="kdenlive:id">4</property>
  </entry>
  <entry producer="chain1" in="00:00:21.396" out="00:00:21.730">
   <property name="kdenlive:id">4</property>
  </entry>
  <entry producer="chain1" in="00:00:21.772" out="00:00:22.105">
   <property name="kdenlive:id">4</property>
  </entry>
  <entry producer="chain1" in="00:00:22.147" out="00:00:22.481">
   <property name="kdenlive:id">4</property>
  </entry>
  <entry producer="chain1" in="00:00:22.522" out="00:00:22.856">
   <property name="kdenlive:id">4</property>
  </entry>
  <entry producer="chain1" in="00:00:22.898" out="00:00:23.232">
   <property name="kdenlive:id">4</property>
  </entry>
  <entry producer="chain1" in="00:00:23.273" out="00:00:23.649">
   <property name="kdenlive:id">4</property>
  </entry>
  <entry producer="chain1" in="00:00:23.690" out="00:00:24.024">
   <property name="kdenlive:id">4</property>
  </entry>
  <entry producer="chain1" in="00:00:24.066" out="00:00:24.399">
   <property name="kdenlive:id">4</property>
  </entry>
  <entry producer="chain1" in="00:00:24.441" out="00:00:24.775">
   <property name="kdenlive:id">4</property>
  </entry>
  <entry producer="chain1" in="00:00:24.816" out="00:00:25.150">
   <property name="kdenlive:id">4</property>
  </entry>
  <entry producer="chain1" in="00:00:25.192" out="00:00:25.525">
   <property name="kdenlive:id">4</property>
  </entry>
  <entry producer="chain1" in="00:00:25.567" out="00:00:25.901">
   <property name="kdenlive:id">4</property>
  </entry>
  <entry producer="chain1" in="00:00:25.943" out="00:00:26.276">
   <property name="kdenlive:id">4</property>
  </entry>
  <entry producer="chain1" in="00:00:26.318" out="00:00:26.652">
   <property name="kdenlive:id">4</property>
  </entry>
  <entry producer="chain1" in="00:00:26.693" out="00:00:27.069">
   <property name="kdenlive:id">4</property>
  </entry>
  <entry producer="chain1" in="00:00:27.110" out="00:00:27.444">
   <property name="kdenlive:id">4</property>
  </entry>
  <entry producer="chain1" in="00:00:27.486" out="00:00:27.819">
   <property name="kdenlive:id">4</property>
  </entry>
  <entry producer="chain1" in="00:00:27.861" out="00:00:28.195">
   <property name="kdenlive:id">4</property>
  </entry>
  <entry producer="chain1" in="00:00:28.237" out="00:00:28.570">
   <property name="kdenlive:id">4</property>
  </entry>
  <entry producer="chain1" in="00:00:28.612" out="00:00:28.946">
   <property name="kdenlive:id">4</property>
  </entry>
  <entry producer="chain1" in="00:00:28.987" out="00:00:29.321">
   <property name="kdenlive:id">4</property>
  </entry>
  <entry producer="chain1" in="00:00:29.363" out="00:00:29.696">
   <property name="kdenlive:id">4</property>
  </entry>
  <entry producer="chain1" in="00:00:29.738" out="00:00:30.072">
   <property name="kdenlive:id">4</property>
  </entry>
  <entry producer="chain1" in="00:00:30.113" out="00:00:30.447">
   <property name="kdenlive:id">4</property>
  </entry>
  <entry producer="chain1" in="00:00:30.489" out="00:00:30.822">
   <property name="kdenlive:id">4</property>
  </entry>
  <entry producer="chain1" in="00:00:30.864" out="00:00:31.240">
   <property name="kdenlive:id">4</property>
  </entry>
  <entry producer="chain1" in="00:00:31.281" out="00:00:31.615">
   <property name="kdenlive:id">4</property>
  </entry>
  <entry producer="chain1" in="00:00:31.657" out="00:00:31.990">
   <property name="kdenlive:id">4</property>
  </entry>
  <entry producer="chain1" in="00:00:32.032" out="00:00:32.366">
   <property name="kdenlive:id">4</property>
  </entry>
  <entry producer="chain1" in="00:00:32.407" out="00:00:32.741">
   <property name="kdenlive:id">4</property>
  </entry>
  <entry producer="chain1" in="00:00:32.783" out="00:00:33.116">
   <property name="kdenlive:id">4</property>
  </entry>
  <entry producer="chain1" in="00:00:33.158" out="00:00:33.492">
   <property name="kdenlive:id">4</property>
  </entry>
  <entry producer="chain1" in="00:00:33.533" out="00:00:33.867">
   <property name="kdenlive:id">4</property>
  </entry>
  <entry producer="chain1" in="00:00:33.909" out="00:00:34.284">
   <property name="kdenlive:id">4</property>
  </entry>
  <entry producer="chain1" in="00:00:34.326" out="00:00:34.660">
   <property name="kdenlive:id">4</property>
  </entry>
  <entry producer="chain1" in="00:00:34.701" out="00:00:35.035">
   <property name="kdenlive:id">4</property>
  </entry>
  <entry producer="chain1" in="00:00:35.077" out="00:00:35.452">
   <property name="kdenlive:id">4</property>
  </entry>
  <entry producer="chain1" in="00:00:35.494" out="00:00:35.786">
   <property name="kdenlive:id">4</property>
  </entry>
  <entry producer="chain1" in="00:00:35.827" out="00:00:36.161">
   <property name="kdenlive:id">4</property>
  </entry>
  <entry producer="chain1" in="00:00:36.203" out="00:00:36.536">
   <property name="kdenlive:id">4</property>
  </entry>
  <entry producer="chain1" in="00:00:36.578" out="00:00:36.912">
   <property name="kdenlive:id">4</property>
  </entry>
  <entry producer="chain1" in="00:00:36.954" out="00:00:37.287">
   <property name="kdenlive:id">4</property>
  </entry>
  <entry producer="chain1" in="00:00:37.329" out="00:00:37.663">
   <property name="kdenlive:id">4</property>
  </entry>
  <entry producer="chain1" in="00:00:37.704" out="00:00:38.038">
   <property name="kdenlive:id">4</property>
  </entry>
  <entry producer="chain1" in="00:00:38.080" out="00:00:38.455">
   <property name="kdenlive:id">4</property>
  </entry>
  <entry producer="chain1" in="00:00:38.497" out="00:00:38.830">
   <property name="kdenlive:id">4</property>
  </entry>
  <entry producer="chain1" in="00:00:38.872" out="00:00:39.206">
   <property name="kdenlive:id">4</property>
  </entry>
  <entry producer="chain1" in="00:00:39.248" out="00:00:39.581">
   <property name="kdenlive:id">4</property>
  </entry>
  <entry producer="chain1" in="00:00:39.623" out="00:00:39.957">
   <property name="kdenlive:id">4</property>
  </entry>
  <entry producer="chain1" in="00:00:39.998" out="00:00:40.332">
   <property name="kdenlive:id">4</property>
  </entry>
  <entry producer="chain1" in="00:00:40.374" out="00:00:40.707">
   <property name="kdenlive:id">4</property>
  </entry>
  <entry producer="chain1" in="00:00:40.749" out="00:00:41.083">
   <property name="kdenlive:id">4</property>
  </entry>
  <entry producer="chain1" in="00:00:41.124" out="00:00:41.458">
   <property name="kdenlive:id">4</property>
  </entry>
  <entry producer="chain1" in="00:00:41.500" out="00:00:41.875">
   <property name="kdenlive:id">4</property>
  </entry>
  <entry producer="chain1" in="00:00:41.917" out="00:00:42.251">
   <property name="kdenlive:id">4</property>
  </entry>
  <entry producer="chain1" in="00:00:42.292" out="00:00:42.626">
   <property name="kdenlive:id">4</property>
  </entry>
  <entry producer="chain1" in="00:00:42.668" out="00:00:43.001">
   <property name="kdenlive:id">4</property>
  </entry>
  <entry producer="chain1" in="00:00:43.043" out="00:00:43.377">
   <property name="kdenlive:id">4</property>
  </entry>
  <entry producer="chain1" in="00:00:43.418" out="00:00:43.752">
   <property name="kdenlive:id">4</property>
  </entry>
  <entry producer="chain1" in="00:00:43.794" out="00:00:44.127">
   <property name="kdenlive:id">4</property>
  </entry>
  <entry producer="chain1" in="00:00:44.169" out="00:00:44.503">
   <property name="kdenlive:id">4</property>
  </entry>
  <entry producer="chain1" in="00:00:44.544" out="00:00:44.878">
   <property name="kdenlive:id">4</property>
  </entry>
  <entry producer="chain1" in="00:00:44.920" out="00:00:45.295">
   <property name="kdenlive:id">4</property>
  </entry>
  <entry producer="chain1" in="00:00:45.337" out="00:00:45.671">
   <property name="kdenlive:id">4</property>
  </entry>
  <entry producer="chain1" in="00:00:45.712" out="00:00:46.046">
   <property name="kdenlive:id">4</property>
  </entry>
  <entry producer="chain1" in="00:00:46.088" out="00:00:46.421">
   <property name="kdenlive:id">4</property>
  </entry>
  <entry producer="chain1" in="00:00:46.463" out="00:00:46.838">
   <property name="kdenlive:id">4</property>
  </entry>
  <entry producer="chain1" in="00:00:46.880" out="00:00:47.339">
   <property name="kdenlive:id">4</property>
  </entry>
  <entry producer="chain1" in="00:00:47.381" out="00:00:47.547">
   <property name="kdenlive:id">4</property>
  </entry>
  <entry producer="chain1" in="00:00:47.589" out="00:00:47.923">
   <property name="kdenlive:id">4</property>
  </entry>
  <entry producer="chain1" in="00:00:47.965" out="00:00:48.298">
   <property name="kdenlive:id">4</property>
  </entry>
  <entry producer="chain1" in="00:00:48.340" out="00:00:48.674">
   <property name="kdenlive:id">4</property>
  </entry>
  <entry producer="chain1" in="00:00:48.715" out="00:00:49.091">
   <property name="kdenlive:id">4</property>
  </entry>
  <entry producer="chain1" in="00:00:49.132" out="00:00:49.466">
   <property name="kdenlive:id">4</property>
  </entry>
  <entry producer="chain1" in="00:00:49.508" out="00:00:49.841">
   <property name="kdenlive:id">4</property>
  </entry>
  <entry producer="chain1" in="00:00:49.883" out="00:00:50.259">
   <property name="kdenlive:id">4</property>
  </entry>
  <entry producer="chain1" in="00:00:50.300" out="00:00:50.592">
   <property name="kdenlive:id">4</property>
  </entry>
  <entry producer="chain1" in="00:00:50.634" out="00:00:50.968">
   <property name="kdenlive:id">4</property>
  </entry>
  <entry producer="chain1" in="00:00:51.009" out="00:00:51.343">
   <property name="kdenlive:id">4</property>
  </entry>
  <entry producer="chain1" in="00:00:51.385" out="00:00:51.760">
   <property name="kdenlive:id">4</property>
  </entry>
  <entry producer="chain1" in="00:00:51.802" out="00:00:52.094">
   <property name="kdenlive:id">4</property>
  </entry>
  <entry producer="chain1" in="00:00:52.135" out="00:00:52.469">
   <property name="kdenlive:id">4</property>
  </entry>
  <entry producer="chain1" in="00:00:52.511" out="00:00:52.886">
   <property name="kdenlive:id">4</property>
  </entry>
  <entry producer="chain1" in="00:00:52.928" out="00:00:53.262">
   <property name="kdenlive:id">4</property>
  </entry>
  <entry producer="chain1" in="00:00:53.303" out="00:00:53.637">
   <property name="kdenlive:id">4</property>
  </entry>
  <entry producer="chain1" in="00:00:53.679" out="00:00:54.012">
   <property name="kdenlive:id">4</property>
  </entry>
  <entry producer="chain1" in="00:00:54.054" out="00:00:54.388">
   <property name="kdenlive:id">4</property>
  </entry>
  <entry producer="chain1" in="00:00:54.429" out="00:00:54.763">
   <property name="kdenlive:id">4</property>
  </entry>
  <entry producer="chain1" in="00:00:54.805" out="00:00:55.138">
   <property name="kdenlive:id">4</property>
  </entry>
  <entry producer="chain1" in="00:00:55.180" out="00:00:55.514">
   <property name="kdenlive:id">4</property>
  </entry>
  <entry producer="chain1" in="00:00:55.555" out="00:00:55.889">
   <property name="kdenlive:id">4</property>
  </entry>
  <entry producer="chain1" in="00:00:55.931" out="00:00:56.265">
   <property name="kdenlive:id">4</property>
  </entry>
  <entry producer="chain1" in="00:00:56.306" out="00:00:56.682">
   <property name="kdenlive:id">4</property>
  </entry>
  <entry producer="chain1" in="00:00:56.723" out="00:00:57.057">
   <property name="kdenlive:id">4</property>
  </entry>
  <entry producer="chain1" in="00:00:57.099" out="00:00:57.432">
   <property name="kdenlive:id">4</property>
  </entry>
  <entry producer="chain1" in="00:00:57.474" out="00:00:57.808">
   <property name="kdenlive:id">4</property>
  </entry>
  <entry producer="chain1" in="00:00:57.849" out="00:00:58.183">
   <property name="kdenlive:id">4</property>
  </entry>
  <entry producer="chain1" in="00:00:58.225" out="00:00:58.558">
   <property name="kdenlive:id">4</property>
  </entry>
  <entry producer="chain1" in="00:00:58.600" out="00:00:58.934">
   <property name="kdenlive:id">4</property>
  </entry>
  <entry producer="chain1" in="00:00:58.976" out="00:00:59.351">
   <property name="kdenlive:id">4</property>
  </entry>
  <entry producer="chain1" in="00:00:59.393" out="00:00:59.685">
   <property name="kdenlive:id">4</property>
  </entry>
  <entry producer="chain1" in="00:00:59.726" out="00:01:00.125">
   <property name="kdenlive:id">4</property>
  </entry>
  <entry producer="chain1" in="00:01:00.167" out="00:01:00.500">
   <property name="kdenlive:id">4</property>
  </entry>
  <entry producer="chain1" in="00:01:00.542" out="00:01:00.876">
   <property name="kdenlive:id">4</property>
  </entry>
  <entry producer="chain1" in="00:01:00.918" out="00:01:01.251">
   <property name="kdenlive:id">4</property>
  </entry>
  <entry producer="chain1" in="00:01:01.293" out="00:01:01.627">
   <property name="kdenlive:id">4</property>
  </entry>
  <entry producer="chain1" in="00:01:01.668" out="00:01:02.002">
   <property name="kdenlive:id">4</property>
  </entry>
  <entry producer="chain1" in="00:01:02.044" out="00:01:02.377">
   <property name="kdenlive:id">4</property>
  </entry>
  <entry producer="chain1" in="00:01:02.419" out="00:01:02.753">
   <property name="kdenlive:id">4</property>
  </entry>
  <entry producer="chain1" in="00:01:02.794" out="00:01:03.170">
   <property name="kdenlive:id">4</property>
  </entry>
  <entry producer="chain1" in="00:01:03.212" out="00:01:03.545">
   <property name="kdenlive:id">4</property>
  </entry>
  <entry producer="chain1" in="00:01:03.587" out="00:01:03.921">
   <property name="kdenlive:id">4</property>
  </entry>
  <entry producer="chain1" in="00:01:03.962" out="00:01:04.296">
   <property name="kdenlive:id">4</property>
  </entry>
  <entry producer="chain1" in="00:01:04.338" out="00:01:04.671">
   <property name="kdenlive:id">4</property>
  </entry>
  <entry producer="chain1" in="00:01:04.713" out="00:01:05.047">
   <property name="kdenlive:id">4</property>
  </entry>
  <entry producer="chain1" in="00:01:05.088" out="00:01:05.422">
   <property name="kdenlive:id">4</property>
  </entry>
  <entry producer="chain1" in="00:01:05.464" out="00:01:05.797">
   <property name="kdenlive:id">4</property>
  </entry>
  <entry producer="chain1" in="00:01:05.839" out="00:01:06.173">
   <property name="kdenlive:id">4</property>
  </entry>
  <entry producer="chain1" in="00:01:06.215" out="00:01:06.548">
   <property name="kdenlive:id">4</property>
  </entry>
  <entry producer="chain1" in="00:01:06.590" out="00:01:06.965">
   <property name="kdenlive:id">4</property>
  </entry>
  <entry producer="chain1" in="00:01:07.007" out="00:01:07.341">
   <property name="kdenlive:id">4</property>
  </entry>
  <entry producer="chain1" in="00:01:07.382" out="00:01:07.716">
   <property name="kdenlive:id">4</property>
  </entry>
  <entry producer="chain1" in="00:01:07.758" out="00:01:08.091">
   <property name="kdenlive:id">4</property>
  </entry>
  <entry producer="chain1" in="00:01:08.133" out="00:01:08.467">
   <property name="kdenlive:id">4</property>
  </entry>
  <entry producer="chain1" in="00:01:08.508" out="00:01:08.842">
   <property name="kdenlive:id">4</property>
  </entry>
  <entry producer="chain1" in="00:01:08.884" out="00:01:09.218">
   <property name="kdenlive:id">4</property>
  </entry>
  <entry producer="chain1" in="00:01:09.259" out="00:01:09.593">
   <property name="kdenlive:id">4</property>
  </entry>
  <entry producer="chain1" in="00:01:09.635" out="00:01:10.010">
   <property name="kdenlive:id">4</property>
  </entry>
  <entry producer="chain1" in="00:01:10.052" out="00:01:10.302">
   <property name="kdenlive:id">4</property>
  </entry>
  <entry producer="chain1" in="00:01:10.344" out="00:01:10.719">
   <property name="kdenlive:id">4</property>
  </entry>
  <entry producer="chain1" in="00:01:10.761" out="00:01:11.094">
   <property name="kdenlive:id">4</property>
  </entry>
  <entry producer="chain1" in="00:01:11.136" out="00:01:11.511">
   <property name="kdenlive:id">4</property>
  </entry>
  <entry producer="chain1" in="00:01:11.553" out="00:01:11.887">
   <property name="kdenlive:id">4</property>
  </entry>
  <entry producer="chain1" in="00:01:11.929" out="00:01:12.262">
   <property name="kdenlive:id">4</property>
  </entry>
  <entry producer="chain1" in="00:01:12.304" out="00:01:12.638">
   <property name="kdenlive:id">4</property>
  </entry>
  <entry producer="chain1" in="00:01:12.679" out="00:01:13.013">
   <property name="kdenlive:id">4</property>
  </entry>
  <entry producer="chain1" in="00:01:13.055" out="00:01:13.388">
   <property name="kdenlive:id">4</property>
  </entry>
  <entry producer="chain1" in="00:01:13.430" out="00:01:13.764">
   <property name="kdenlive:id">4</property>
  </entry>
  <entry producer="chain1" in="00:01:13.805" out="00:01:14.139">
   <property name="kdenlive:id">4</property>
  </entry>
  <entry producer="chain1" in="00:01:14.181" out="00:01:14.556">
   <property name="kdenlive:id">4</property>
  </entry>
  <entry producer="chain1" in="00:01:14.598" out="00:01:14.932">
   <property name="kdenlive:id">4</property>
  </entry>
  <entry producer="chain1" in="00:01:14.973" out="00:01:15.307">
   <property name="kdenlive:id">4</property>
  </entry>
  <entry producer="chain1" in="00:01:15.349" out="00:01:15.682">
   <property name="kdenlive:id">4</property>
  </entry>
  <entry producer="chain1" in="00:01:15.724" out="00:01:16.058">
   <property name="kdenlive:id">4</property>
  </entry>
  <entry producer="chain1" in="00:01:16.099" out="00:01:16.433">
   <property name="kdenlive:id">4</property>
  </entry>
  <entry producer="chain1" in="00:01:16.475" out="00:01:16.808">
   <property name="kdenlive:id">4</property>
  </entry>
  <entry producer="chain1" in="00:01:16.850" out="00:01:17.184">
   <property name="kdenlive:id">4</property>
  </entry>
  <entry producer="chain1" in="00:01:17.226" out="00:01:17.559">
   <property name="kdenlive:id">4</property>
  </entry>
  <entry producer="chain1" in="00:01:17.601" out="00:01:17.935">
   <property name="kdenlive:id">4</property>
  </entry>
  <entry producer="chain1" in="00:01:17.976" out="00:01:18.352">
   <property name="kdenlive:id">4</property>
  </entry>
  <entry producer="chain1" in="00:01:18.393" out="00:01:18.727">
   <property name="kdenlive:id">4</property>
  </entry>
  <entry producer="chain1" in="00:01:18.769" out="00:01:19.102">
   <property name="kdenlive:id">4</property>
  </entry>
  <entry producer="chain1" in="00:01:19.144" out="00:01:19.478">
   <property name="kdenlive:id">4</property>
  </entry>
  <entry producer="chain1" in="00:01:19.519" out="00:01:19.853">
   <property name="kdenlive:id">4</property>
  </entry>
  <entry producer="chain1" in="00:01:19.895" out="00:01:20.229">
   <property name="kdenlive:id">4</property>
  </entry>
  <entry producer="chain1" in="00:01:20.270" out="00:01:20.604">
   <property name="kdenlive:id">4</property>
  </entry>
  <entry producer="chain1" in="00:01:20.646" out="00:01:20.979">
   <property name="kdenlive:id">4</property>
  </entry>
  <entry producer="chain1" in="00:01:21.021" out="00:01:21.355">
   <property name="kdenlive:id">4</property>
  </entry>
  <entry producer="chain1" in="00:01:21.396" out="00:01:21.772">
   <property name="kdenlive:id">4</property>
  </entry>
  <entry producer="chain1" in="00:01:21.813" out="00:01:22.147">
   <property name="kdenlive:id">4</property>
  </entry>
  <entry producer="chain1" in="00:01:22.189" out="00:01:22.522">
   <property name="kdenlive:id">4</property>
  </entry>
  <entry producer="chain1" in="00:01:22.564" out="00:01:22.898">
   <property name="kdenlive:id">4</property>
  </entry>
  <entry producer="chain1" in="00:01:22.940" out="00:01:23.273">
   <property name="kdenlive:id">4</property>
  </entry>
  <entry producer="chain1" in="00:01:23.315" out="00:01:23.649">
   <property name="kdenlive:id">4</property>
  </entry>
  <entry producer="chain1" in="00:01:23.690" out="00:01:24.024">
   <property name="kdenlive:id">4</property>
  </entry>
  <entry producer="chain1" in="00:01:24.066" out="00:01:24.399">
   <property name="kdenlive:id">4</property>
  </entry>
  <entry producer="chain1" in="00:01:24.441" out="00:01:24.775">
   <property name="kdenlive:id">4</property>
  </entry>
  <entry producer="chain1" in="00:01:24.816" out="00:01:25.192">
   <property name="kdenlive:id">4</property>
  </entry>
  <entry producer="chain1" in="00:01:25.234" out="00:01:25.567">
   <property name="kdenlive:id">4</property>
  </entry>
  <entry producer="chain1" in="00:01:25.609" out="00:01:25.943">
   <property name="kdenlive:id">4</property>
  </entry>
  <entry producer="chain1" in="00:01:25.984" out="00:01:26.318">
   <property name="kdenlive:id">4</property>
  </entry>
  <entry producer="chain1" in="00:01:26.360" out="00:01:26.693">
   <property name="kdenlive:id">4</property>
  </entry>
  <entry producer="chain1" in="00:01:26.735" out="00:01:27.069">
   <property name="kdenlive:id">4</property>
  </entry>
  <entry producer="chain1" in="00:01:27.110" out="00:01:27.444">
   <property name="kdenlive:id">4</property>
  </entry>
  <entry producer="chain1" in="00:01:27.486" out="00:01:27.819">
   <property name="kdenlive:id">4</property>
  </entry>
  <entry producer="chain1" in="00:01:27.861" out="00:01:28.195">
   <property name="kdenlive:id">4</property>
  </entry>
  <entry producer="chain1" in="00:01:28.237" out="00:01:28.570">
   <property name="kdenlive:id">4</property>
  </entry>
  <entry producer="chain1" in="00:01:28.612" out="00:01:28.987">
   <property name="kdenlive:id">4</property>
  </entry>
  <entry producer="chain1" in="00:01:29.029" out="00:01:29.363">
   <property name="kdenlive:id">4</property>
  </entry>
  <entry producer="chain1" in="00:01:29.404" out="00:01:29.738">
   <property name="kdenlive:id">4</property>
  </entry>
  <entry producer="chain1" in="00:01:29.780" out="00:01:30.113">
   <property name="kdenlive:id">4</property>
  </entry>
  <entry producer="chain1" in="00:01:30.155" out="00:01:30.489">
   <property name="kdenlive:id">4</property>
  </entry>
  <entry producer="chain1" in="00:01:30.530" out="00:01:30.864">
   <property name="kdenlive:id">4</property>
  </entry>
  <entry producer="chain1" in="00:01:30.906" out="00:01:31.240">
   <property name="kdenlive:id">4</property>
  </entry>
  <entry producer="chain1" in="00:01:31.281" out="00:01:31.615">
   <property name="kdenlive:id">4</property>
  </entry>
  <entry producer="chain1" in="00:01:31.657" out="00:01:32.032">
   <property name="kdenlive:id">4</property>
  </entry>
  <entry producer="chain1" in="00:01:32.074" out="00:01:32.407">
   <property name="kdenlive:id">4</property>
  </entry>
  <entry producer="chain1" in="00:01:32.449" out="00:01:32.783">
   <property name="kdenlive:id">4</property>
  </entry>
  <entry producer="chain1" in="00:01:32.824" out="00:01:33.158">
   <property name="kdenlive:id">4</property>
  </entry>
  <entry producer="chain1" in="00:01:33.200" out="00:01:33.533">
   <property name="kdenlive:id">4</property>
  </entry>
  <entry producer="chain1" in="00:01:33.575" out="00:01:33.909">
   <property name="kdenlive:id">4</property>
  </entry>
  <entry producer="chain1" in="00:01:33.951" out="00:01:34.284">
   <property name="kdenlive:id">4</property>
  </entry>
  <entry producer="chain1" in="00:01:34.326" out="00:01:34.660">
   <property name="kdenlive:id">4</property>
  </entry>
  <entry producer="chain1" in="00:01:34.701" out="00:01:35.035">
   <property name="kdenlive:id">4</property>
  </entry>
  <entry producer="chain1" in="00:01:35.077" out="00:01:35.410">
   <property name="kdenlive:id">4</property>
  </entry>
  <entry producer="chain1" in="00:01:35.452" out="00:01:35.786">
   <property name="kdenlive:id">4</property>
  </entry>
  <entry producer="chain1" in="00:01:35.827" out="00:01:36.203">
   <property name="kdenlive:id">4</property>
  </entry>
  <entry producer="chain1" in="00:01:36.245" out="00:01:36.578">
   <property name="kdenlive:id">4</property>
  </entry>
  <entry producer="chain1" in="00:01:36.620" out="00:01:36.954">
   <property name="kdenlive:id">4</property>
  </entry>
  <entry producer="chain1" in="00:01:36.995" out="00:01:37.329">
   <property name="kdenlive:id">4</property>
  </entry>
  <entry producer="chain1" in="00:01:37.371" out="00:01:37.704">
   <property name="kdenlive:id">4</property>
  </entry>
  <entry producer="chain1" in="00:01:37.746" out="00:01:38.080">
   <property name="kdenlive:id">4</property>
  </entry>
  <entry producer="chain1" in="00:01:38.121" out="00:01:38.455">
   <property name="kdenlive:id">4</property>
  </entry>
  <entry producer="chain1" in="00:01:38.497" out="00:01:38.830">
   <property name="kdenlive:id">4</property>
  </entry>
  <entry producer="chain1" in="00:01:38.872" out="00:01:39.206">
   <property name="kdenlive:id">4</property>
  </entry>
  <entry producer="chain1" in="00:01:39.248" out="00:01:39.623">
   <property name="kdenlive:id">4</property>
  </entry>
  <entry producer="chain1" in="00:01:39.665" out="00:01:39.998">
   <property name="kdenlive:id">4</property>
  </entry>
  <entry producer="chain1" in="00:01:40.040" out="00:01:40.374">
   <property name="kdenlive:id">4</property>
  </entry>
  <entry producer="chain1" in="00:01:40.415" out="00:01:40.749">
   <property name="kdenlive:id">4</property>
  </entry>
  <entry producer="chain1" in="00:01:40.791" out="00:01:43.585">
   <property name="kdenlive:id">4</property>
  </entry>
  <entry producer="chain1" in="00:01:43.627" out="00:01:48.840">
   <property name="kdenlive:id">4</property>
  </entry>
  <entry producer="chain1" in="00:01:48.882" out="00:01:50.509">
   <property name="kdenlive:id">4</property>
  </entry>
  <entry producer="chain1" in="00:01:50.550" out="00:01:52.177">
   <property name="kdenlive:id">4</property>
  </entry>
  <entry producer="chain1" in="00:01:52.219" out="00:01:55.013">
   <property name="kdenlive:id">4</property>
  </entry>
  <entry producer="chain1" in="00:01:55.055" out="00:01:58.058">
   <property name="kdenlive:id">4</property>
  </entry>
  <entry producer="chain1" in="00:01:58.100" out="00:01:59.977">
   <property name="kdenlive:id">4</property>
  </entry>
  <entry producer="chain1" in="00:02:00.000" out="00:02:01.960">
   <property name="kdenlive:id">4</property>
  </entry>
  <entry producer="chain1" in="00:02:02.002" out="00:02:03.503">
   <property name="kdenlive:id">4</property>
  </entry>
  <entry producer="chain1" in="00:02:03.545" out="00:02:06.298">
   <property name="kdenlive:id">4</property>
  </entry>
  <entry producer="chain1" in="00:02:06.340" out="00:02:07.716">
   <property name="kdenlive:id">4</property>
  </entry>
  <entry producer="chain1" in="00:02:07.758" out="00:02:10.594">
   <property name="kdenlive:id">4</property>
  </entry>
  <entry producer="chain1" in="00:02:10.636" out="00:02:13.263">
   <property name="kdenlive:id">4</property>
  </entry>
  <entry producer="chain1" in="00:02:13.305" out="00:02:14.848">
   <property name="kdenlive:id">4</property>
  </entry>
  <entry producer="chain1" in="00:02:14.890" out="00:02:17.684">
   <property name="kdenlive:id">4</property>
  </entry>
  <entry producer="chain1" in="00:02:17.726" out="00:02:19.478">
   <property name="kdenlive:id">4</property>
  </entry>
  <entry producer="chain1" in="00:02:19.519" out="00:02:20.562">
   <property name="kdenlive:id">4</property>
  </entry>
  <entry producer="chain1" in="00:02:20.604" out="00:02:22.022">
   <property name="kdenlive:id">4</property>
  </entry>
  <entry producer="chain1" in="00:02:22.064" out="00:02:24.358">
   <property name="kdenlive:id">4</property>
  </entry>
  <entry producer="chain1" in="00:02:24.399" out="00:02:26.235">
   <property name="kdenlive:id">4</property>
  </entry>
  <entry producer="chain1" in="00:02:26.276" out="00:02:31.949">
   <property name="kdenlive:id">4</property>
  </entry>
  <entry producer="chain1" in="00:02:31.990" out="00:02:33.367">
   <property name="kdenlive:id">4</property>
  </entry>
  <entry producer="chain1" in="00:02:33.408" out="00:02:34.368">
   <property name="kdenlive:id">4</property>
  </entry>
  <entry producer="chain1" in="00:02:34.409" out="00:02:36.036">
   <property name="kdenlive:id">4</property>
  </entry>
  <entry producer="chain1" in="00:02:36.078" out="00:02:37.704">
   <property name="kdenlive:id">4</property>
  </entry>
  <entry producer="chain1" in="00:02:37.746" out="00:02:43.377">
   <property name="kdenlive:id">4</property>
  </entry>
  <entry producer="chain1" in="00:02:43.418" out="00:02:46.213">
   <property name="kdenlive:id">4</property>
  </entry>
  <entry producer="chain1" in="00:02:46.255" out="00:02:49.007">
   <property name="kdenlive:id">4</property>
  </entry>
  <entry producer="chain1" in="00:02:49.049" out="00:02:57.391">
   <property name="kdenlive:id">4</property>
  </entry>
  <entry producer="chain1" in="00:02:57.432" out="00:02:59.101">
   <property name="kdenlive:id">4</property>
  </entry>
  <entry producer="chain1" in="00:02:59.142" out="00:03:00.500">
   <property name="kdenlive:id">4</property>
  </entry>
  <entry producer="chain1" in="00:03:00.542" out="00:03:03.378">
   <property name="kdenlive:id">4</property>
  </entry>
  <entry producer="chain1" in="00:03:03.420" out="00:03:06.173">
   <property name="kdenlive:id">4</property>
  </entry>
  <entry producer="chain1" in="00:03:06.215" out="00:03:11.845">
   <property name="kdenlive:id">4</property>
  </entry>
  <entry producer="chain1" in="00:03:11.887" out="00:03:14.681">
   <property name="kdenlive:id">4</property>
  </entry>
  <entry producer="chain1" in="00:03:14.723" out="00:03:17.517">
   <property name="kdenlive:id">4</property>
  </entry>
  <entry producer="chain1" in="00:03:17.559" out="00:03:17.976">
   <property name="kdenlive:id">4</property>
  </entry>
  <entry producer="chain1" in="00:03:18.018" out="00:03:18.227">
   <property name="kdenlive:id">4</property>
  </entry>
  <entry producer="chain1" in="00:03:18.268" out="00:03:18.936">
   <property name="kdenlive:id">4</property>
  </entry>
  <entry producer="chain1" in="00:03:18.977" out="00:03:21.772">
   <property name="kdenlive:id">4</property>
  </entry>
  <entry producer="chain1" in="00:03:21.813" out="00:03:24.608">
   <property name="kdenlive:id">4</property>
  </entry>
  <entry producer="chain1" in="00:03:24.650" out="00:03:27.444">
   <property name="kdenlive:id">4</property>
  </entry>
  <entry producer="chain1" in="00:03:27.486" out="00:03:31.740">
   <property name="kdenlive:id">4</property>
  </entry>
  <entry producer="chain1" in="00:03:31.782" out="00:03:34.076">
   <property name="kdenlive:id">4</property>
  </entry>
  <entry producer="chain1" in="00:03:34.117" out="00:03:41.833">
   <property name="kdenlive:id">4</property>
  </entry>
  <entry producer="chain1" in="00:03:41.875" out="00:03:45.212">
   <property name="kdenlive:id">4</property>
  </entry>
 </playlist>
 <playlist id="playlist5"/>
 <tractor id="tractor2" in="00:00:00.000" out="00:03:45.212">
  <property name="kdenlive:trackheight">67</property>
  <property name="kdenlive:timeline_active">1</property>
  <property name="kdenlive:collapsed">0</property>
  <property name="kdenlive:thumbs_format"/>
  <property name="kdenlive:audio_rec"/>
  <track hide="audio" producer="playlist4"/>
  <track hide="audio" producer="playlist5"/>
 </tractor>
 <playlist id="playlist6"/>
 <playlist id="playlist7"/>
 <tractor id="tractor3" in="00:00:00.000">
  <property name="kdenlive:trackheight">67</property>
  <property name="kdenlive:timeline_active">1</property>
  <property name="kdenlive:collapsed">0</property>
  <property name="kdenlive:thumbs_format"/>
  <property name="kdenlive:audio_rec"/>
  <track hide="audio" producer="playlist6"/>
  <track hide="audio" producer="playlist7"/>
 </tractor>
 <tractor id="{b3093fd2-8c7f-46c5-87e9-a3efa9fa628d}" in="00:00:00.000" out="00:24:36.495">
  <property name="kdenlive:uuid">{b3093fd2-8c7f-46c5-87e9-a3efa9fa628d}</property>
  <property name="kdenlive:clipname">Sequence 1</property>
  <property name="kdenlive:sequenceproperties.hasAudio">1</property>
  <property name="kdenlive:sequenceproperties.hasVideo">1</property>
  <property name="kdenlive:sequenceproperties.activeTrack">2</property>
  <property name="kdenlive:sequenceproperties.tracksCount">4</property>
  <property name="kdenlive:sequenceproperties.documentuuid">{b3093fd2-8c7f-46c5-87e9-a3efa9fa628d}</property>
  <property name="kdenlive:duration">00:03:45:06</property>
  <property name="kdenlive:maxduration">5400</property>
  <property name="kdenlive:producer_type">17</property>
  <property name="kdenlive:id">3</property>
  <property name="kdenlive:clip_type">0</property>
  <property name="kdenlive:file_hash">b3be521e14e4019c054971bb679bbb09</property>
  <property name="kdenlive:folderid">2</property>
  <property name="kdenlive:sequenceproperties.audioTarget">1</property>
  <property name="kdenlive:sequenceproperties.tracks">4</property>
  <property name="kdenlive:sequenceproperties.verticalzoom">1</property>
  <property name="kdenlive:sequenceproperties.videoTarget">2</property>
  <property name="kdenlive:sequenceproperties.zonein">0</property>
  <property name="kdenlive:sequenceproperties.zoneout">5400</property>
  <property name="kdenlive:sequenceproperties.zoom">10</property>
  <property name="kdenlive:sequenceproperties.groups">[
    {
        "children": [
            {
                "data": "2:2389",
                "leaf": "clip",
                "type": "Leaf"
            },
            {
                "data": "1:2389",
                "leaf": "clip",
                "type": "Leaf"
            }
        ],
        "type": "AVSplit"
    },
    {
        "children": [
            {
                "data": "1:2379",
                "leaf": "clip",
                "type": "Leaf"
            },
            {
                "data": "2:2379",
                "leaf": "clip",
                "type": "Leaf"
            }
        ],
        "type": "AVSplit"
    },
    {
        "children": [
            {
                "data": "2:2370",
                "leaf": "clip",
                "type": "Leaf"
            },
            {
                "data": "1:2370",
                "leaf": "clip",
                "type": "Leaf"
            }
        ],
        "type": "AVSplit"
    },
    {
        "children": [
            {
                "data": "1:2361",
                "leaf": "clip",
                "type": "Leaf"
            },
            {
                "data": "2:2361",
                "leaf": "clip",
                "type": "Leaf"
            }
        ],
        "type": "AVSplit"
    },
    {
        "children": [
            {
                "data": "2:2352",
                "leaf": "clip",
                "type": "Leaf"
            },
            {
                "data": "1:2352",
                "leaf": "clip",
                "type": "Leaf"
            }
        ],
        "type": "AVSplit"
    },
    {
        "children": [
            {
                "data": "1:2343",
                "leaf": "clip",
                "type": "Leaf"
            },
            {
                "data": "2:2343",
                "leaf": "clip",
                "type": "Leaf"
            }
        ],
        "type": "AVSplit"
    },
    {
        "children": [
            {
                "data": "2:2334",
                "leaf": "clip",
                "type": "Leaf"
            },
            {
                "data": "1:2334",
                "leaf": "clip",
                "type": "Leaf"
            }
        ],
        "type": "AVSplit"
    },
    {
        "children": [
            {
                "data": "1:2325",
                "leaf": "clip",
                "type": "Leaf"
            },
            {
                "data": "2:2325",
                "leaf": "clip",
                "type": "Leaf"
            }
        ],
        "type": "AVSplit"
    },
    {
        "children": [
            {
                "data": "2:2316",
                "leaf": "clip",
                "type": "Leaf"
            },
            {
                "data": "1:2316",
                "leaf": "clip",
                "type": "Leaf"
            }
        ],
        "type": "AVSplit"
    },
    {
        "children": [
            {
                "data": "1:2307",
                "leaf": "clip",
                "type": "Leaf"
            },
            {
                "data": "2:2307",
                "leaf": "clip",
                "type": "Leaf"
            }
        ],
        "type": "AVSplit"
    },
    {
        "children": [
            {
                "data": "2:2297",
                "leaf": "clip",
                "type": "Leaf"
            },
            {
                "data": "1:2297",
                "leaf": "clip",
                "type": "Leaf"
            }
        ],
        "type": "AVSplit"
    },
    {
        "children": [
            {
                "data": "1:2288",
                "leaf": "clip",
                "type": "Leaf"
            },
            {
                "data": "2:2288",
                "leaf": "clip",
                "type": "Leaf"
            }
        ],
        "type": "AVSplit"
    },
    {
        "children": [
            {
                "data": "2:2279",
                "leaf": "clip",
                "type": "Leaf"
            },
            {
                "data": "1:2279",
                "leaf": "clip",
                "type": "Leaf"
            }
        ],
        "type": "AVSplit"
    },
    {
        "children": [
            {
                "data": "1:2270",
                "leaf": "clip",
                "type": "Leaf"
            },
            {
                "data": "2:2270",
                "leaf": "clip",
                "type": "Leaf"
            }
        ],
        "type": "AVSplit"
    },
    {
        "children": [
            {
                "data": "2:2261",
                "leaf": "clip",
                "type": "Leaf"
            },
            {
                "data": "1:2261",
                "leaf": "clip",
                "type": "Leaf"
            }
        ],
        "type": "AVSplit"
    },
    {
        "children": [
            {
                "data": "1:2252",
                "leaf": "clip",
                "type": "Leaf"
            },
            {
                "data": "2:2252",
                "leaf": "clip",
                "type": "Leaf"
            }
        ],
        "type": "AVSplit"
    },
    {
        "children": [
            {
                "data": "2:2243",
                "leaf": "clip",
                "type": "Leaf"
            },
            {
                "data": "1:2243",
                "leaf": "clip",
                "type": "Leaf"
            }
        ],
        "type": "AVSplit"
    },
    {
        "children": [
            {
                "data": "1:2234",
                "leaf": "clip",
                "type": "Leaf"
            },
            {
                "data": "2:2234",
                "leaf": "clip",
                "type": "Leaf"
            }
        ],
        "type": "AVSplit"
    },
    {
        "children": [
            {
                "data": "2:2225",
                "leaf": "clip",
                "type": "Leaf"
            },
            {
                "data": "1:2225",
                "leaf": "clip",
                "type": "Leaf"
            }
        ],
        "type": "AVSplit"
    },
    {
        "children": [
            {
                "data": "1:2216",
                "leaf": "clip",
                "type": "Leaf"
            },
            {
                "data": "2:2216",
                "leaf": "clip",
                "type": "Leaf"
            }
        ],
        "type": "AVSplit"
    },
    {
        "children": [
            {
                "data": "2:2207",
                "leaf": "clip",
                "type": "Leaf"
            },
            {
                "data": "1:2207",
                "leaf": "clip",
                "type": "Leaf"
            }
        ],
        "type": "AVSplit"
    },
    {
        "children": [
            {
                "data": "1:2197",
                "leaf": "clip",
                "type": "Leaf"
            },
            {
                "data": "2:2197",
                "leaf": "clip",
                "type": "Leaf"
            }
        ],
        "type": "AVSplit"
    },
    {
        "children": [
            {
                "data": "2:2188",
                "leaf": "clip",
                "type": "Leaf"
            },
            {
                "data": "1:2188",
                "leaf": "clip",
                "type": "Leaf"
            }
        ],
        "type": "AVSplit"
    },
    {
        "children": [
            {
                "data": "1:2179",
                "leaf": "clip",
                "type": "Leaf"
            },
            {
                "data": "2:2179",
                "leaf": "clip",
                "type": "Leaf"
            }
        ],
        "type": "AVSplit"
    },
    {
        "children": [
            {
                "data": "2:2170",
                "leaf": "clip",
                "type": "Leaf"
            },
            {
                "data": "1:2170",
                "leaf": "clip",
                "type": "Leaf"
            }
        ],
        "type": "AVSplit"
    },
    {
        "children": [
            {
                "data": "1:2161",
                "leaf": "clip",
                "type": "Leaf"
            },
            {
                "data": "2:2161",
                "leaf": "clip",
                "type": "Leaf"
            }
        ],
        "type": "AVSplit"
    },
    {
        "children": [
            {
                "data": "2:2152",
                "leaf": "clip",
                "type": "Leaf"
            },
            {
                "data": "1:2152",
                "leaf": "clip",
                "type": "Leaf"
            }
        ],
        "type": "AVSplit"
    },
    {
        "children": [
            {
                "data": "1:2143",
                "leaf": "clip",
                "type": "Leaf"
            },
            {
                "data": "2:2143",
                "leaf": "clip",
                "type": "Leaf"
            }
        ],
        "type": "AVSplit"
    },
    {
        "children": [
            {
                "data": "2:2134",
                "leaf": "clip",
                "type": "Leaf"
            },
            {
                "data": "1:2134",
                "leaf": "clip",
                "type": "Leaf"
            }
        ],
        "type": "AVSplit"
    },
    {
        "children": [
            {
                "data": "1:2124",
                "leaf": "clip",
                "type": "Leaf"
            },
            {
                "data": "2:2124",
                "leaf": "clip",
                "type": "Leaf"
            }
        ],
        "type": "AVSplit"
    },
    {
        "children": [
            {
                "data": "2:2115",
                "leaf": "clip",
                "type": "Leaf"
            },
            {
                "data": "1:2115",
                "leaf": "clip",
                "type": "Leaf"
            }
        ],
        "type": "AVSplit"
    },
    {
        "children": [
            {
                "data": "1:2106",
                "leaf": "clip",
                "type": "Leaf"
            },
            {
                "data": "2:2106",
                "leaf": "clip",
                "type": "Leaf"
            }
        ],
        "type": "AVSplit"
    },
    {
        "children": [
            {
                "data": "2:2097",
                "leaf": "clip",
                "type": "Leaf"
            },
            {
                "data": "1:2097",
                "leaf": "clip",
                "type": "Leaf"
            }
        ],
        "type": "AVSplit"
    },
    {
        "children": [
            {
                "data": "1:2088",
                "leaf": "clip",
                "type": "Leaf"
            },
            {
                "data": "2:2088",
                "leaf": "clip",
                "type": "Leaf"
            }
        ],
        "type": "AVSplit"
    },
    {
        "children": [
            {
                "data": "2:2079",
                "leaf": "clip",
                "type": "Leaf"
            },
            {
                "data": "1:2079",
                "leaf": "clip",
                "type": "Leaf"
            }
        ],
        "type": "AVSplit"
    },
    {
        "children": [
            {
                "data": "1:2070",
                "leaf": "clip",
                "type": "Leaf"
            },
            {
                "data": "2:2070",
                "leaf": "clip",
                "type": "Leaf"
            }
        ],
        "type": "AVSplit"
    },
    {
        "children": [
            {
                "data": "2:2061",
                "leaf": "clip",
                "type": "Leaf"
            },
            {
                "data": "1:2061",
                "leaf": "clip",
                "type": "Leaf"
            }
        ],
        "type": "AVSplit"
    },
    {
        "children": [
            {
                "data": "1:2052",
                "leaf": "clip",
                "type": "Leaf"
            },
            {
                "data": "2:2052",
                "leaf": "clip",
                "type": "Leaf"
            }
        ],
        "type": "AVSplit"
    },
    {
        "children": [
            {
                "data": "2:2043",
                "leaf": "clip",
                "type": "Leaf"
            },
            {
                "data": "1:2043",
                "leaf": "clip",
                "type": "Leaf"
            }
        ],
        "type": "AVSplit"
    },
    {
        "children": [
            {
                "data": "1:2033",
                "leaf": "clip",
                "type": "Leaf"
            },
            {
                "data": "2:2033",
                "leaf": "clip",
                "type": "Leaf"
            }
        ],
        "type": "AVSplit"
    },
    {
        "children": [
            {
                "data": "2:2024",
                "leaf": "clip",
                "type": "Leaf"
            },
            {
                "data": "1:2024",
                "leaf": "clip",
                "type": "Leaf"
            }
        ],
        "type": "AVSplit"
    },
    {
        "children": [
            {
                "data": "1:2015",
                "leaf": "clip",
                "type": "Leaf"
            },
            {
                "data": "2:2015",
                "leaf": "clip",
                "type": "Leaf"
            }
        ],
        "type": "AVSplit"
    },
    {
        "children": [
            {
                "data": "2:2006",
                "leaf": "clip",
                "type": "Leaf"
            },
            {
                "data": "1:2006",
                "leaf": "clip",
                "type": "Leaf"
            }
        ],
        "type": "AVSplit"
    },
    {
        "children": [
            {
                "data": "1:1997",
                "leaf": "clip",
                "type": "Leaf"
            },
            {
                "data": "2:1997",
                "leaf": "clip",
                "type": "Leaf"
            }
        ],
        "type": "AVSplit"
    },
    {
        "children": [
            {
                "data": "2:1988",
                "leaf": "clip",
                "type": "Leaf"
            },
            {
                "data": "1:1988",
                "leaf": "clip",
                "type": "Leaf"
            }
        ],
        "type": "AVSplit"
    },
    {
        "children": [
            {
                "data": "1:1979",
                "leaf": "clip",
                "type": "Leaf"
            },
            {
                "data": "2:1979",
                "leaf": "clip",
                "type": "Leaf"
            }
        ],
        "type": "AVSplit"
    },
    {
        "children": [
            {
                "data": "2:1970",
                "leaf": "clip",
                "type": "Leaf"
            },
            {
                "data": "1:1970",
                "leaf": "clip",
                "type": "Leaf"
            }
        ],
        "type": "AVSplit"
    },
    {
        "children": [
            {
                "data": "1:595",
                "leaf": "clip",
                "type": "Leaf"
            },
            {
                "data": "2:595",
                "leaf": "clip",
                "type": "Leaf"
            }
        ],
        "type": "AVSplit"
    },
    {
        "children": [
            {
                "data": "2:604",
                "leaf": "clip",
                "type": "Leaf"
            },
            {
                "data": "1:604",
                "leaf": "clip",
                "type": "Leaf"
            }
        ],
        "type": "AVSplit"
    },
    {
        "children": [
            {
                "data": "1:613",
                "leaf": "clip",
                "type": "Leaf"
            },
            {
                "data": "2:613",
                "leaf": "clip",
                "type": "Leaf"
            }
        ],
        "type": "AVSplit"
    },
    {
        "children": [
            {
                "data": "2:622",
                "leaf": "clip",
                "type": "Leaf"
            },
            {
                "data": "1:622",
                "leaf": "clip",
                "type": "Leaf"
            }
        ],
        "type": "AVSplit"
    },
    {
        "children": [
            {
                "data": "1:631",
                "leaf": "clip",
                "type": "Leaf"
            },
            {
                "data": "2:631",
                "leaf": "clip",
                "type": "Leaf"
            }
        ],
        "type": "AVSplit"
    },
    {
        "children": [
            {
                "data": "2:640",
                "leaf": "clip",
                "type": "Leaf"
            },
            {
                "data": "1:640",
                "leaf": "clip",
                "type": "Leaf"
            }
        ],
        "type": "AVSplit"
    },
    {
        "children": [
            {
                "data": "1:650",
                "leaf": "clip",
                "type": "Leaf"
            },
            {
                "data": "2:650",
                "leaf": "clip",
                "type": "Leaf"
            }
        ],
        "type": "AVSplit"
    },
    {
        "children": [
            {
                "data": "2:659",
                "leaf": "clip",
                "type": "Leaf"
            },
            {
                "data": "1:659",
                "leaf": "clip",
                "type": "Leaf"
            }
        ],
        "type": "AVSplit"
    },
    {
        "children": [
            {
                "data": "1:668",
                "leaf": "clip",
                "type": "Leaf"
            },
            {
                "data": "2:668",
                "leaf": "clip",
                "type": "Leaf"
            }
        ],
        "type": "AVSplit"
    },
    {
        "children": [
            {
                "data": "2:677",
                "leaf": "clip",
                "type": "Leaf"
            },
            {
                "data": "1:677",
                "leaf": "clip",
                "type": "Leaf"
            }
        ],
        "type": "AVSplit"
    },
    {
        "children": [
            {
                "data": "1:686",
                "leaf": "clip",
                "type": "Leaf"
            },
            {
                "data": "2:686",
                "leaf": "clip",
                "type": "Leaf"
            }
        ],
        "type": "AVSplit"
    },
    {
        "children": [
            {
                "data": "2:695",
                "leaf": "clip",
                "type": "Leaf"
            },
            {
                "data": "1:695",
                "leaf": "clip",
                "type": "Leaf"
            }
        ],
        "type": "AVSplit"
    },
    {
        "children": [
            {
                "data": "1:704",
                "leaf": "clip",
                "type": "Leaf"
            },
            {
                "data": "2:704",
                "leaf": "clip",
                "type": "Leaf"
            }
        ],
        "type": "AVSplit"
    },
    {
        "children": [
            {
                "data": "2:713",
                "leaf": "clip",
                "type": "Leaf"
            },
            {
                "data": "1:713",
                "leaf": "clip",
                "type": "Leaf"
            }
        ],
        "type": "AVSplit"
    },
    {
        "children": [
            {
                "data": "1:722",
                "leaf": "clip",
                "type": "Leaf"
            },
            {
                "data": "2:722",
                "leaf": "clip",
                "type": "Leaf"
            }
        ],
        "type": "AVSplit"
    },
    {
        "children": [
            {
                "data": "2:731",
                "leaf": "clip",
                "type": "Leaf"
            },
            {
                "data": "1:731",
                "leaf": "clip",
                "type": "Leaf"
            }
        ],
        "type": "AVSplit"
    },
    {
        "children": [
            {
                "data": "1:740",
                "leaf": "clip",
                "type": "Leaf"
            },
            {
                "data": "2:740",
                "leaf": "clip",
                "type": "Leaf"
            }
        ],
        "type": "AVSplit"
    },
    {
        "children": [
            {
                "data": "2:750",
                "leaf": "clip",
                "type": "Leaf"
            },
            {
                "data": "1:750",
                "leaf": "clip",
                "type": "Leaf"
            }
        ],
        "type": "AVSplit"
    },
    {
        "children": [
            {
                "data": "1:759",
                "leaf": "clip",
                "type": "Leaf"
            },
            {
                "data": "2:759",
                "leaf": "clip",
                "type": "Leaf"
            }
        ],
        "type": "AVSplit"
    },
    {
        "children": [
            {
                "data": "2:768",
                "leaf": "clip",
                "type": "Leaf"
            },
            {
                "data": "1:768",
                "leaf": "clip",
                "type": "Leaf"
            }
        ],
        "type": "AVSplit"
    },
    {
        "children": [
            {
                "data": "1:777",
                "leaf": "clip",
                "type": "Leaf"
            },
            {
                "data": "2:777",
                "leaf": "clip",
                "type": "Leaf"
            }
        ],
        "type": "AVSplit"
    },
    {
        "children": [
            {
                "data": "2:786",
                "leaf": "clip",
                "type": "Leaf"
            },
            {
                "data": "1:786",
                "leaf": "clip",
                "type": "Leaf"
            }
        ],
        "type": "AVSplit"
    },
    {
        "children": [
            {
                "data": "1:795",
                "leaf": "clip",
                "type": "Leaf"
            },
            {
                "data": "2:795",
                "leaf": "clip",
                "type": "Leaf"
            }
        ],
        "type": "AVSplit"
    },
    {
        "children": [
            {
                "data": "2:804",
                "leaf": "clip",
                "type": "Leaf"
            },
            {
                "data": "1:804",
                "leaf": "clip",
                "type": "Leaf"
            }
        ],
        "type": "AVSplit"
    },
    {
        "children": [
            {
                "data": "1:813",
                "leaf": "clip",
                "type": "Leaf"
            },
            {
                "data": "2:813",
                "leaf": "clip",
                "type": "Leaf"
            }
        ],
        "type": "AVSplit"
    },
    {
        "children": [
            {
                "data": "2:823",
                "leaf": "clip",
                "type": "Leaf"
            },
            {
                "data": "1:823",
                "leaf": "clip",
                "type": "Leaf"
            }
        ],
        "type": "AVSplit"
    },
    {
        "children": [
            {
                "data": "1:832",
                "leaf": "clip",
                "type": "Leaf"
            },
            {
                "data": "2:832",
                "leaf": "clip",
                "type": "Leaf"
            }
        ],
        "type": "AVSplit"
    },
    {
        "children": [
            {
                "data": "2:841",
                "leaf": "clip",
                "type": "Leaf"
            },
            {
                "data": "1:841",
                "leaf": "clip",
                "type": "Leaf"
            }
        ],
        "type": "AVSplit"
    },
    {
        "children": [
            {
                "data": "1:851",
                "leaf": "clip",
                "type": "Leaf"
            },
            {
                "data": "2:851",
                "leaf": "clip",
                "type": "Leaf"
            }
        ],
        "type": "AVSplit"
    },
    {
        "children": [
            {
                "data": "2:859",
                "leaf": "clip",
                "type": "Leaf"
            },
            {
                "data": "1:859",
                "leaf": "clip",
                "type": "Leaf"
            }
        ],
        "type": "AVSplit"
    },
    {
        "children": [
            {
                "data": "1:868",
                "leaf": "clip",
                "type": "Leaf"
            },
            {
                "data": "2:868",
                "leaf": "clip",
                "type": "Leaf"
            }
        ],
        "type": "AVSplit"
    },
    {
        "children": [
            {
                "data": "2:877",
                "leaf": "clip",
                "type": "Leaf"
            },
            {
                "data": "1:877",
                "leaf": "clip",
                "type": "Leaf"
            }
        ],
        "type": "AVSplit"
    },
    {
        "children": [
            {
                "data": "1:886",
                "leaf": "clip",
                "type": "Leaf"
            },
            {
                "data": "2:886",
                "leaf": "clip",
                "type": "Leaf"
            }
        ],
        "type": "AVSplit"
    },
    {
        "children": [
            {
                "data": "2:895",
                "leaf": "clip",
                "type": "Leaf"
            },
            {
                "data": "1:895",
                "leaf": "clip",
                "type": "Leaf"
            }
        ],
        "type": "AVSplit"
    },
    {
        "children": [
            {
                "data": "1:904",
                "leaf": "clip",
                "type": "Leaf"
            },
            {
                "data": "2:904",
                "leaf": "clip",
                "type": "Leaf"
            }
        ],
        "type": "AVSplit"
    },
    {
        "children": [
            {
                "data": "2:913",
                "leaf": "clip",
                "type": "Leaf"
            },
            {
                "data": "1:913",
                "leaf": "clip",
                "type": "Leaf"
            }
        ],
        "type": "AVSplit"
    },
    {
        "children": [
            {
                "data": "1:923",
                "leaf": "clip",
                "type": "Leaf"
            },
            {
                "data": "2:923",
                "leaf": "clip",
                "type": "Leaf"
            }
        ],
        "type": "AVSplit"
    },
    {
        "children": [
            {
                "data": "2:932",
                "leaf": "clip",
                "type": "Leaf"
            },
            {
                "data": "1:932",
                "leaf": "clip",
                "type": "Leaf"
            }
        ],
        "type": "AVSplit"
    },
    {
        "children": [
            {
                "data": "1:941",
                "leaf": "clip",
                "type": "Leaf"
            },
            {
                "data": "2:941",
                "leaf": "clip",
                "type": "Leaf"
            }
        ],
        "type": "AVSplit"
    },
    {
        "children": [
            {
                "data": "2:950",
                "leaf": "clip",
                "type": "Leaf"
            },
            {
                "data": "1:950",
                "leaf": "clip",
                "type": "Leaf"
            }
        ],
        "type": "AVSplit"
    },
    {
        "children": [
            {
                "data": "1:959",
                "leaf": "clip",
                "type": "Leaf"
            },
            {
                "data": "2:959",
                "leaf": "clip",
                "type": "Leaf"
            }
        ],
        "type": "AVSplit"
    },
    {
        "children": [
            {
                "data": "2:968",
                "leaf": "clip",
                "type": "Leaf"
            },
            {
                "data": "1:968",
                "leaf": "clip",
                "type": "Leaf"
            }
        ],
        "type": "AVSplit"
    },
    {
        "children": [
            {
                "data": "1:977",
                "leaf": "clip",
                "type": "Leaf"
            },
            {
                "data": "2:977",
                "leaf": "clip",
                "type": "Leaf"
            }
        ],
        "type": "AVSplit"
    },
    {
        "children": [
            {
                "data": "2:986",
                "leaf": "clip",
                "type": "Leaf"
            },
            {
                "data": "1:986",
                "leaf": "clip",
                "type": "Leaf"
            }
        ],
        "type": "AVSplit"
    },
    {
        "children": [
            {
                "data": "1:995",
                "leaf": "clip",
                "type": "Leaf"
            },
            {
                "data": "2:995",
                "leaf": "clip",
                "type": "Leaf"
            }
        ],
        "type": "AVSplit"
    },
    {
        "children": [
            {
                "data": "2:1005",
                "leaf": "clip",
                "type": "Leaf"
            },
            {
                "data": "1:1005",
                "leaf": "clip",
                "type": "Leaf"
            }
        ],
        "type": "AVSplit"
    },
    {
        "children": [
            {
                "data": "1:1014",
                "leaf": "clip",
                "type": "Leaf"
            },
            {
                "data": "2:1014",
                "leaf": "clip",
                "type": "Leaf"
            }
        ],
        "type": "AVSplit"
    },
    {
        "children": [
            {
                "data": "2:1023",
                "leaf": "clip",
                "type": "Leaf"
            },
            {
                "data": "1:1023",
                "leaf": "clip",
                "type": "Leaf"
            }
        ],
        "type": "AVSplit"
    },
    {
        "children": [
            {
                "data": "1:1032",
                "leaf": "clip",
                "type": "Leaf"
            },
            {
                "data": "2:1032",
                "leaf": "clip",
                "type": "Leaf"
            }
        ],
        "type": "AVSplit"
    },
    {
        "children": [
            {
                "data": "2:1041",
                "leaf": "clip",
                "type": "Leaf"
            },
            {
                "data": "1:1041",
                "leaf": "clip",
                "type": "Leaf"
            }
        ],
        "type": "AVSplit"
    },
    {
        "children": [
            {
                "data": "1:1050",
                "leaf": "clip",
                "type": "Leaf"
            },
            {
                "data": "2:1050",
                "leaf": "clip",
                "type": "Leaf"
            }
        ],
        "type": "AVSplit"
    },
    {
        "children": [
            {
                "data": "2:1059",
                "leaf": "clip",
                "type": "Leaf"
            },
            {
                "data": "1:1059",
                "leaf": "clip",
                "type": "Leaf"
            }
        ],
        "type": "AVSplit"
    },
    {
        "children": [
            {
                "data": "1:1068",
                "leaf": "clip",
                "type": "Leaf"
            },
            {
                "data": "2:1068",
                "leaf": "clip",
                "type": "Leaf"
            }
        ],
        "type": "AVSplit"
    },
    {
        "children": [
            {
                "data": "2:1077",
                "leaf": "clip",
                "type": "Leaf"
            },
            {
                "data": "1:1077",
                "leaf": "clip",
                "type": "Leaf"
            }
        ],
        "type": "AVSplit"
    },
    {
        "children": [
            {
                "data": "1:1087",
                "leaf": "clip",
                "type": "Leaf"
            },
            {
                "data": "2:1087",
                "leaf": "clip",
                "type": "Leaf"
            }
        ],
        "type": "AVSplit"
    },
    {
        "children": [
            {
                "data": "2:1096",
                "leaf": "clip",
                "type": "Leaf"
            },
            {
                "data": "1:1096",
                "leaf": "clip",
                "type": "Leaf"
            }
        ],
        "type": "AVSplit"
    },
    {
        "children": [
            {
                "data": "1:249",
                "leaf": "clip",
                "type": "Leaf"
            },
            {
                "data": "2:249",
                "leaf": "clip",
                "type": "Leaf"
            }
        ],
        "type": "AVSplit"
    },
    {
        "children": [
            {
                "data": "2:3462",
                "leaf": "clip",
                "type": "Leaf"
            },
            {
                "data": "1:3462",
                "leaf": "clip",
                "type": "Leaf"
            }
        ],
        "type": "AVSplit"
    },
    {
        "children": [
            {
                "data": "1:3345",
                "leaf": "clip",
                "type": "Leaf"
            },
            {
                "data": "2:3345",
                "leaf": "clip",
                "type": "Leaf"
            }
        ],
        "type": "AVSplit"
    },
    {
        "children": [
            {
                "data": "2:222",
                "leaf": "clip",
                "type": "Leaf"
            },
            {
                "data": "1:222",
                "leaf": "clip",
                "type": "Leaf"
            }
        ],
        "type": "AVSplit"
    },
    {
        "children": [
            {
                "data": "2:260",
                "leaf": "clip",
                "type": "Leaf"
            },
            {
                "data": "1:260",
                "leaf": "clip",
                "type": "Leaf"
            }
        ],
        "type": "AVSplit"
    },
    {
        "children": [
            {
                "data": "1:3507",
                "leaf": "clip",
                "type": "Leaf"
            },
            {
                "data": "2:3507",
                "leaf": "clip",
                "type": "Leaf"
            }
        ],
        "type": "AVSplit"
    },
    {
        "children": [
            {
                "data": "2:3371",
                "leaf": "clip",
                "type": "Leaf"
            },
            {
                "data": "1:3371",
                "leaf": "clip",
                "type": "Leaf"
            }
        ],
        "type": "AVSplit"
    },
    {
        "children": [
            {
                "data": "1:231",
                "leaf": "clip",
                "type": "Leaf"
            },
            {
                "data": "2:231",
                "leaf": "clip",
                "type": "Leaf"
            }
        ],
        "type": "AVSplit"
    },
    {
        "children": [
            {
                "data": "1:267",
                "leaf": "clip",
                "type": "Leaf"
            },
            {
                "data": "2:267",
                "leaf": "clip",
                "type": "Leaf"
            }
        ],
        "type": "AVSplit"
    },
    {
        "children": [
            {
                "data": "2:3644",
                "leaf": "clip",
                "type": "Leaf"
            },
            {
                "data": "1:3644",
                "leaf": "clip",
                "type": "Leaf"
            }
        ],
        "type": "AVSplit"
    },
    {
        "children": [
            {
                "data": "1:3406",
                "leaf": "clip",
                "type": "Leaf"
            },
            {
                "data": "2:3406",
                "leaf": "clip",
                "type": "Leaf"
            }
        ],
        "type": "AVSplit"
    },
    {
        "children": [
            {
                "data": "2:240",
                "leaf": "clip",
                "type": "Leaf"
            },
            {
                "data": "1:240",
                "leaf": "clip",
                "type": "Leaf"
            }
        ],
        "type": "AVSplit"
    },
    {
        "children": [
            {
                "data": "2:276",
                "leaf": "clip",
                "type": "Leaf"
            },
            {
                "data": "1:276",
                "leaf": "clip",
                "type": "Leaf"
            }
        ],
        "type": "AVSplit"
    },
    {
        "children": [
            {
                "data": "1:3678",
                "leaf": "clip",
                "type": "Leaf"
            },
            {
                "data": "2:3678",
                "leaf": "clip",
                "type": "Leaf"
            }
        ],
        "type": "AVSplit"
    },
    {
        "children": [
            {
                "data": "1:286",
                "leaf": "clip",
                "type": "Leaf"
            },
            {
                "data": "2:286",
                "leaf": "clip",
                "type": "Leaf"
            }
        ],
        "type": "AVSplit"
    },
    {
        "children": [
            {
                "data": "2:3702",
                "leaf": "clip",
                "type": "Leaf"
            },
            {
                "data": "1:3702",
                "leaf": "clip",
                "type": "Leaf"
            }
        ],
        "type": "AVSplit"
    },
    {
        "children": [
            {
                "data": "2:294",
                "leaf": "clip",
                "type": "Leaf"
            },
            {
                "data": "1:294",
                "leaf": "clip",
                "type": "Leaf"
            }
        ],
        "type": "AVSplit"
    },
    {
        "children": [
            {
                "data": "1:3742",
                "leaf": "clip",
                "type": "Leaf"
            },
            {
                "data": "2:3742",
                "leaf": "clip",
                "type": "Leaf"
            }
        ],
        "type": "AVSplit"
    },
    {
        "children": [
            {
                "data": "1:303",
                "leaf": "clip",
                "type": "Leaf"
            },
            {
                "data": "2:303",
                "leaf": "clip",
                "type": "Leaf"
            }
        ],
        "type": "AVSplit"
    },
    {
        "children": [
            {
                "data": "2:3782",
                "leaf": "clip",
                "type": "Leaf"
            },
            {
                "data": "1:3782",
                "leaf": "clip",
                "type": "Leaf"
            }
        ],
        "type": "AVSplit"
    },
    {
        "children": [
            {
                "data": "2:313",
                "leaf": "clip",
                "type": "Leaf"
            },
            {
                "data": "1:313",
                "leaf": "clip",
                "type": "Leaf"
            }
        ],
        "type": "AVSplit"
    },
    {
        "children": [
            {
                "data": "1:3918",
                "leaf": "clip",
                "type": "Leaf"
            },
            {
                "data": "2:3918",
                "leaf": "clip",
                "type": "Leaf"
            }
        ],
        "type": "AVSplit"
    },
    {
        "children": [
            {
                "data": "2:3986",
                "leaf": "clip",
                "type": "Leaf"
            },
            {
                "data": "1:3986",
                "leaf": "clip",
                "type": "Leaf"
            }
        ],
        "type": "AVSplit"
    },
    {
        "children": [
            {
                "data": "1:322",
                "leaf": "clip",
                "type": "Leaf"
            },
            {
                "data": "2:322",
                "leaf": "clip",
                "type": "Leaf"
            }
        ],
        "type": "AVSplit"
    },
    {
        "children": [
            {
                "data": "1:4053",
                "leaf": "clip",
                "type": "Leaf"
            },
            {
                "data": "2:4053",
                "leaf": "clip",
                "type": "Leaf"
            }
        ],
        "type": "AVSplit"
    },
    {
        "children": [
            {
                "data": "2:331",
                "leaf": "clip",
                "type": "Leaf"
            },
            {
                "data": "1:331",
                "leaf": "clip",
                "type": "Leaf"
            }
        ],
        "type": "AVSplit"
    },
    {
        "children": [
            {
                "data": "2:4254",
                "leaf": "clip",
                "type": "Leaf"
            },
            {
                "data": "1:4254",
                "leaf": "clip",
                "type": "Leaf"
            }
        ],
        "type": "AVSplit"
    },
    {
        "children": [
            {
                "data": "1:340",
                "leaf": "clip",
                "type": "Leaf"
            },
            {
                "data": "2:340",
                "leaf": "clip",
                "type": "Leaf"
            }
        ],
        "type": "AVSplit"
    },
    {
        "children": [
            {
                "data": "1:4295",
                "leaf": "clip",
                "type": "Leaf"
            },
            {
                "data": "2:4295",
                "leaf": "clip",
                "type": "Leaf"
            }
        ],
        "type": "AVSplit"
    },
    {
        "children": [
            {
                "data": "2:349",
                "leaf": "clip",
                "type": "Leaf"
            },
            {
                "data": "1:349",
                "leaf": "clip",
                "type": "Leaf"
            }
        ],
        "type": "AVSplit"
    },
    {
        "children": [
            {
                "data": "2:4328",
                "leaf": "clip",
                "type": "Leaf"
            },
            {
                "data": "1:4328",
                "leaf": "clip",
                "type": "Leaf"
            }
        ],
        "type": "AVSplit"
    },
    {
        "children": [
            {
                "data": "1:358",
                "leaf": "clip",
                "type": "Leaf"
            },
            {
                "data": "2:358",
                "leaf": "clip",
                "type": "Leaf"
            }
        ],
        "type": "AVSplit"
    },
    {
        "children": [
            {
                "data": "1:5133",
                "leaf": "clip",
                "type": "Leaf"
            },
            {
                "data": "2:5133",
                "leaf": "clip",
                "type": "Leaf"
            }
        ],
        "type": "AVSplit"
    },
    {
        "children": [
            {
                "data": "2:476",
                "leaf": "clip",
                "type": "Leaf"
            },
            {
                "data": "1:476",
                "leaf": "clip",
                "type": "Leaf"
            }
        ],
        "type": "AVSplit"
    },
    {
        "children": [
            {
                "data": "2:1206",
                "leaf": "clip",
                "type": "Leaf"
            },
            {
                "data": "1:1206",
                "leaf": "clip",
                "type": "Leaf"
            }
        ],
        "type": "AVSplit"
    },
    {
        "children": [
            {
                "data": "2:5077",
                "leaf": "clip",
                "type": "Leaf"
            },
            {
                "data": "1:5077",
                "leaf": "clip",
                "type": "Leaf"
            }
        ],
        "type": "AVSplit"
    },
    {
        "children": [
            {
                "data": "1:467",
                "leaf": "clip",
                "type": "Leaf"
            },
            {
                "data": "2:467",
                "leaf": "clip",
                "type": "Leaf"
            }
        ],
        "type": "AVSplit"
    },
    {
        "children": [
            {
                "data": "1:1196",
                "leaf": "clip",
                "type": "Leaf"
            },
            {
                "data": "2:1196",
                "leaf": "clip",
                "type": "Leaf"
            }
        ],
        "type": "AVSplit"
    },
    {
        "children": [
            {
                "data": "1:4974",
                "leaf": "clip",
                "type": "Leaf"
            },
            {
                "data": "2:4974",
                "leaf": "clip",
                "type": "Leaf"
            }
        ],
        "type": "AVSplit"
    },
    {
        "children": [
            {
                "data": "2:458",
                "leaf": "clip",
                "type": "Leaf"
            },
            {
                "data": "1:458",
                "leaf": "clip",
                "type": "Leaf"
            }
        ],
        "type": "AVSplit"
    },
    {
        "children": [
            {
                "data": "2:1187",
                "leaf": "clip",
                "type": "Leaf"
            },
            {
                "data": "1:1187",
                "leaf": "clip",
                "type": "Leaf"
            }
        ],
        "type": "AVSplit"
    },
    {
        "children": [
            {
                "data": "2:4906",
                "leaf": "clip",
                "type": "Leaf"
            },
            {
                "data": "1:4906",
                "leaf": "clip",
                "type": "Leaf"
            }
        ],
        "type": "AVSplit"
    },
    {
        "children": [
            {
                "data": "1:449",
                "leaf": "clip",
                "type": "Leaf"
            },
            {
                "data": "2:449",
                "leaf": "clip",
                "type": "Leaf"
            }
        ],
        "type": "AVSplit"
    },
    {
        "children": [
            {
                "data": "1:1178",
                "leaf": "clip",
                "type": "Leaf"
            },
            {
                "data": "2:1178",
                "leaf": "clip",
                "type": "Leaf"
            }
        ],
        "type": "AVSplit"
    },
    {
        "children": [
            {
                "data": "1:4838",
                "leaf": "clip",
                "type": "Leaf"
            },
            {
                "data": "2:4838",
                "leaf": "clip",
                "type": "Leaf"
            }
        ],
        "type": "AVSplit"
    },
    {
        "children": [
            {
                "data": "2:440",
                "leaf": "clip",
                "type": "Leaf"
            },
            {
                "data": "1:440",
                "leaf": "clip",
                "type": "Leaf"
            }
        ],
        "type": "AVSplit"
    },
    {
        "children": [
            {
                "data": "2:1168",
                "leaf": "clip",
                "type": "Leaf"
            },
            {
                "data": "1:1168",
                "leaf": "clip",
                "type": "Leaf"
            }
        ],
        "type": "AVSplit"
    },
    {
        "children": [
            {
                "data": "2:4770",
                "leaf": "clip",
                "type": "Leaf"
            },
            {
                "data": "1:4770",
                "leaf": "clip",
                "type": "Leaf"
            }
        ],
        "type": "AVSplit"
    },
    {
        "children": [
            {
                "data": "1:431",
                "leaf": "clip",
                "type": "Leaf"
            },
            {
                "data": "2:431",
                "leaf": "clip",
                "type": "Leaf"
            }
        ],
        "type": "AVSplit"
    },
    {
        "children": [
            {
                "data": "1:1159",
                "leaf": "clip",
                "type": "Leaf"
            },
            {
                "data": "2:1159",
                "leaf": "clip",
                "type": "Leaf"
            }
        ],
        "type": "AVSplit"
    },
    {
        "children": [
            {
                "data": "1:4753",
                "leaf": "clip",
                "type": "Leaf"
            },
            {
                "data": "2:4753",
                "leaf": "clip",
                "type": "Leaf"
            }
        ],
        "type": "AVSplit"
    },
    {
        "children": [
            {
                "data": "2:422",
                "leaf": "clip",
                "type": "Leaf"
            },
            {
                "data": "1:422",
                "leaf": "clip",
                "type": "Leaf"
            }
        ],
        "type": "AVSplit"
    },
    {
        "children": [
            {
                "data": "2:1150",
                "leaf": "clip",
                "type": "Leaf"
            },
            {
                "data": "1:1150",
                "leaf": "clip",
                "type": "Leaf"
            }
        ],
        "type": "AVSplit"
    },
    {
        "children": [
            {
                "data": "2:4747",
                "leaf": "clip",
                "type": "Leaf"
            },
            {
                "data": "1:4747",
                "leaf": "clip",
                "type": "Leaf"
            }
        ],
        "type": "AVSplit"
    },
    {
        "children": [
            {
                "data": "1:413",
                "leaf": "clip",
                "type": "Leaf"
            },
            {
                "data": "2:413",
                "leaf": "clip",
                "type": "Leaf"
            }
        ],
        "type": "AVSplit"
    },
    {
        "children": [
            {
                "data": "1:1141",
                "leaf": "clip",
                "type": "Leaf"
            },
            {
                "data": "2:1141",
                "leaf": "clip",
                "type": "Leaf"
            }
        ],
        "type": "AVSplit"
    },
    {
        "children": [
            {
                "data": "1:4736",
                "leaf": "clip",
                "type": "Leaf"
            },
            {
                "data": "2:4736",
                "leaf": "clip",
                "type": "Leaf"
            }
        ],
        "type": "AVSplit"
    },
    {
        "children": [
            {
                "data": "2:404",
                "leaf": "clip",
                "type": "Leaf"
            },
            {
                "data": "1:404",
                "leaf": "clip",
                "type": "Leaf"
            }
        ],
        "type": "AVSplit"
    },
    {
        "children": [
            {
                "data": "2:1136",
                "leaf": "clip",
                "type": "Leaf"
            },
            {
                "data": "1:1136",
                "leaf": "clip",
                "type": "Leaf"
            }
        ],
        "type": "AVSplit"
    },
    {
        "children": [
            {
                "data": "2:4668",
                "leaf": "clip",
                "type": "Leaf"
            },
            {
                "data": "1:4668",
                "leaf": "clip",
                "type": "Leaf"
            }
        ],
        "type": "AVSplit"
    },
    {
        "children": [
            {
                "data": "1:395",
                "leaf": "clip",
                "type": "Leaf"
            },
            {
                "data": "2:395",
                "leaf": "clip",
                "type": "Leaf"
            }
        ],
        "type": "AVSplit"
    },
    {
        "children": [
            {
                "data": "1:1124",
                "leaf": "clip",
                "type": "Leaf"
            },
            {
                "data": "2:1124",
                "leaf": "clip",
                "type": "Leaf"
            }
        ],
        "type": "AVSplit"
    },
    {
        "children": [
            {
                "data": "1:4600",
                "leaf": "clip",
                "type": "Leaf"
            },
            {
                "data": "2:4600",
                "leaf": "clip",
                "type": "Leaf"
            }
        ],
        "type": "AVSplit"
    },
    {
        "children": [
            {
                "data": "2:386",
                "leaf": "clip",
                "type": "Leaf"
            },
            {
                "data": "1:386",
                "leaf": "clip",
                "type": "Leaf"
            }
        ],
        "type": "AVSplit"
    },
    {
        "children": [
            {
                "data": "2:1114",
                "leaf": "clip",
                "type": "Leaf"
            },
            {
                "data": "1:1114",
                "leaf": "clip",
                "type": "Leaf"
            }
        ],
        "type": "AVSplit"
    },
    {
        "children": [
            {
                "data": "2:4464",
                "leaf": "clip",
                "type": "Leaf"
            },
            {
                "data": "1:4464",
                "leaf": "clip",
                "type": "Leaf"
            }
        ],
        "type": "AVSplit"
    },
    {
        "children": [
            {
                "data": "1:376",
                "leaf": "clip",
                "type": "Leaf"
            },
            {
                "data": "2:376",
                "leaf": "clip",
                "type": "Leaf"
            }
        ],
        "type": "AVSplit"
    },
    {
        "children": [
            {
                "data": "1:1105",
                "leaf": "clip",
                "type": "Leaf"
            },
            {
                "data": "2:1105",
                "leaf": "clip",
                "type": "Leaf"
            }
        ],
        "type": "AVSplit"
    },
    {
        "children": [
            {
                "data": "1:4397",
                "leaf": "clip",
                "type": "Leaf"
            },
            {
                "data": "2:4397",
                "leaf": "clip",
                "type": "Leaf"
            }
        ],
        "type": "AVSplit"
    },
    {
        "children": [
            {
                "data": "2:367",
                "leaf": "clip",
                "type": "Leaf"
            },
            {
                "data": "1:367",
                "leaf": "clip",
                "type": "Leaf"
            }
        ],
        "type": "AVSplit"
    },
    {
        "children": [
            {
                "data": "2:3302",
                "leaf": "clip",
                "type": "Leaf"
            },
            {
                "data": "1:3302",
                "leaf": "clip",
                "type": "Leaf"
            }
        ],
        "type": "AVSplit"
    },
    {
        "children": [
            {
                "data": "1:212",
                "leaf": "clip",
                "type": "Leaf"
            },
            {
                "data": "2:212",
                "leaf": "clip",
                "type": "Leaf"
            }
        ],
        "type": "AVSplit"
    },
    {
        "children": [
            {
                "data": "1:3234",
                "leaf": "clip",
                "type": "Leaf"
            },
            {
                "data": "2:3234",
                "leaf": "clip",
                "type": "Leaf"
            }
        ],
        "type": "AVSplit"
    },
    {
        "children": [
            {
                "data": "2:203",
                "leaf": "clip",
                "type": "Leaf"
            },
            {
                "data": "1:203",
                "leaf": "clip",
                "type": "Leaf"
            }
        ],
        "type": "AVSplit"
    },
    {
        "children": [
            {
                "data": "2:3196",
                "leaf": "clip",
                "type": "Leaf"
            },
            {
                "data": "1:3196",
                "leaf": "clip",
                "type": "Leaf"
            }
        ],
        "type": "AVSplit"
    },
    {
        "children": [
            {
                "data": "1:194",
                "leaf": "clip",
                "type": "Leaf"
            },
            {
                "data": "2:194",
                "leaf": "clip",
                "type": "Leaf"
            }
        ],
        "type": "AVSplit"
    },
    {
        "children": [
            {
                "data": "1:3132",
                "leaf": "clip",
                "type": "Leaf"
            },
            {
                "data": "2:3132",
                "leaf": "clip",
                "type": "Leaf"
            }
        ],
        "type": "AVSplit"
    },
    {
        "children": [
            {
                "data": "2:185",
                "leaf": "clip",
                "type": "Leaf"
            },
            {
                "data": "1:185",
                "leaf": "clip",
                "type": "Leaf"
            }
        ],
        "type": "AVSplit"
    },
    {
        "children": [
            {
                "data": "2:3063",
                "leaf": "clip",
                "type": "Leaf"
            },
            {
                "data": "1:3063",
                "leaf": "clip",
                "type": "Leaf"
            }
        ],
        "type": "AVSplit"
    },
    {
        "children": [
            {
                "data": "1:176",
                "leaf": "clip",
                "type": "Leaf"
            },
            {
                "data": "2:176",
                "leaf": "clip",
                "type": "Leaf"
            }
        ],
        "type": "AVSplit"
    },
    {
        "children": [
            {
                "data": "1:3029",
                "leaf": "clip",
                "type": "Leaf"
            },
            {
                "data": "2:3029",
                "leaf": "clip",
                "type": "Leaf"
            }
        ],
        "type": "AVSplit"
    },
    {
        "children": [
            {
                "data": "2:167",
                "leaf": "clip",
                "type": "Leaf"
            },
            {
                "data": "1:167",
                "leaf": "clip",
                "type": "Leaf"
            }
        ],
        "type": "AVSplit"
    },
    {
        "children": [
            {
                "data": "2:2962",
                "leaf": "clip",
                "type": "Leaf"
            },
            {
                "data": "1:2962",
                "leaf": "clip",
                "type": "Leaf"
            }
        ],
        "type": "AVSplit"
    },
    {
        "children": [
            {
                "data": "1:158",
                "leaf": "clip",
                "type": "Leaf"
            },
            {
                "data": "2:158",
                "leaf": "clip",
                "type": "Leaf"
            }
        ],
        "type": "AVSplit"
    },
    {
        "children": [
            {
                "data": "1:2925",
                "leaf": "clip",
                "type": "Leaf"
            },
            {
                "data": "2:2925",
                "leaf": "clip",
                "type": "Leaf"
            }
        ],
        "type": "AVSplit"
    },
    {
        "children": [
            {
                "data": "2:149",
                "leaf": "clip",
                "type": "Leaf"
            },
            {
                "data": "1:149",
                "leaf": "clip",
                "type": "Leaf"
            }
        ],
        "type": "AVSplit"
    },
    {
        "children": [
            {
                "data": "2:2877",
                "leaf": "clip",
                "type": "Leaf"
            },
            {
                "data": "1:2877",
                "leaf": "clip",
                "type": "Leaf"
            }
        ],
        "type": "AVSplit"
    },
    {
        "children": [
            {
                "data": "1:140",
                "leaf": "clip",
                "type": "Leaf"
            },
            {
                "data": "2:140",
                "leaf": "clip",
                "type": "Leaf"
            }
        ],
        "type": "AVSplit"
    },
    {
        "children": [
            {
                "data": "1:2831",
                "leaf": "clip",
                "type": "Leaf"
            },
            {
                "data": "2:2831",
                "leaf": "clip",
                "type": "Leaf"
            }
        ],
        "type": "AVSplit"
    },
    {
        "children": [
            {
                "data": "2:130",
                "leaf": "clip",
                "type": "Leaf"
            },
            {
                "data": "1:130",
                "leaf": "clip",
                "type": "Leaf"
            }
        ],
        "type": "AVSplit"
    },
    {
        "children": [
            {
                "data": "2:2758",
                "leaf": "clip",
                "type": "Leaf"
            },
            {
                "data": "1:2758",
                "leaf": "clip",
                "type": "Leaf"
            }
        ],
        "type": "AVSplit"
    },
    {
        "children": [
            {
                "data": "1:121",
                "leaf": "clip",
                "type": "Leaf"
            },
            {
                "data": "2:121",
                "leaf": "clip",
                "type": "Leaf"
            }
        ],
        "type": "AVSplit"
    },
    {
        "children": [
            {
                "data": "1:2690",
                "leaf": "clip",
                "type": "Leaf"
            },
            {
                "data": "2:2690",
                "leaf": "clip",
                "type": "Leaf"
            }
        ],
        "type": "AVSplit"
    },
    {
        "children": [
            {
                "data": "2:112",
                "leaf": "clip",
                "type": "Leaf"
            },
            {
                "data": "1:112",
                "leaf": "clip",
                "type": "Leaf"
            }
        ],
        "type": "AVSplit"
    },
    {
        "children": [
            {
                "data": "2:2650",
                "leaf": "clip",
                "type": "Leaf"
            },
            {
                "data": "1:2650",
                "leaf": "clip",
                "type": "Leaf"
            }
        ],
        "type": "AVSplit"
    },
    {
        "children": [
            {
                "data": "1:103",
                "leaf": "clip",
                "type": "Leaf"
            },
            {
                "data": "2:103",
                "leaf": "clip",
                "type": "Leaf"
            }
        ],
        "type": "AVSplit"
    },
    {
        "children": [
            {
                "data": "1:2610",
                "leaf": "clip",
                "type": "Leaf"
            },
            {
                "data": "2:2610",
                "leaf": "clip",
                "type": "Leaf"
            }
        ],
        "type": "AVSplit"
    },
    {
        "children": [
            {
                "data": "2:94",
                "leaf": "clip",
                "type": "Leaf"
            },
            {
                "data": "1:94",
                "leaf": "clip",
                "type": "Leaf"
            }
        ],
        "type": "AVSplit"
    },
    {
        "children": [
            {
                "data": "2:2484",
                "leaf": "clip",
                "type": "Leaf"
            },
            {
                "data": "1:2484",
                "leaf": "clip",
                "type": "Leaf"
            }
        ],
        "type": "AVSplit"
    },
    {
        "children": [
            {
                "data": "1:85",
                "leaf": "clip",
                "type": "Leaf"
            },
            {
                "data": "2:85",
                "leaf": "clip",
                "type": "Leaf"
            }
        ],
        "type": "AVSplit"
    },
    {
        "children": [
            {
                "data": "1:2416",
                "leaf": "clip",
                "type": "Leaf"
            },
            {
                "data": "2:2416",
                "leaf": "clip",
                "type": "Leaf"
            }
        ],
        "type": "AVSplit"
    },
    {
        "children": [
            {
                "data": "2:12",
                "leaf": "clip",
                "type": "Leaf"
            },
            {
                "data": "1:12",
                "leaf": "clip",
                "type": "Leaf"
            }
        ],
        "type": "AVSplit"
    },
    {
        "children": [
            {
                "data": "2:2407",
                "leaf": "clip",
                "type": "Leaf"
            },
            {
                "data": "1:2407",
                "leaf": "clip",
                "type": "Leaf"
            }
        ],
        "type": "AVSplit"
    },
    {
        "children": [
            {
                "data": "1:0",
                "leaf": "clip",
                "type": "Leaf"
            },
            {
                "data": "2:0",
                "leaf": "clip",
                "type": "Leaf"
            }
        ],
        "type": "AVSplit"
    },
    {
        "children": [
            {
                "data": "1:2398",
                "leaf": "clip",
                "type": "Leaf"
            },
            {
                "data": "2:2398",
                "leaf": "clip",
                "type": "Leaf"
            }
        ],
        "type": "AVSplit"
    },
    {
        "children": [
            {
                "data": "1:5319",
                "leaf": "clip",
                "type": "Leaf"
            },
            {
                "data": "2:5319",
                "leaf": "clip",
                "type": "Leaf"
            }
        ],
        "type": "AVSplit"
    },
    {
        "children": [
            {
                "data": "1:486",
                "leaf": "clip",
                "type": "Leaf"
            },
            {
                "data": "2:486",
                "leaf": "clip",
                "type": "Leaf"
            }
        ],
        "type": "AVSplit"
    },
    {
        "children": [
            {
                "data": "2:495",
                "leaf": "clip",
                "type": "Leaf"
            },
            {
                "data": "1:495",
                "leaf": "clip",
                "type": "Leaf"
            }
        ],
        "type": "AVSplit"
    },
    {
        "children": [
            {
                "data": "1:504",
                "leaf": "clip",
                "type": "Leaf"
            },
            {
                "data": "2:504",
                "leaf": "clip",
                "type": "Leaf"
            }
        ],
        "type": "AVSplit"
    },
    {
        "children": [
            {
                "data": "2:513",
                "leaf": "clip",
                "type": "Leaf"
            },
            {
                "data": "1:513",
                "leaf": "clip",
                "type": "Leaf"
            }
        ],
        "type": "AVSplit"
    },
    {
        "children": [
            {
                "data": "1:522",
                "leaf": "clip",
                "type": "Leaf"
            },
            {
                "data": "2:522",
                "leaf": "clip",
                "type": "Leaf"
            }
        ],
        "type": "AVSplit"
    },
    {
        "children": [
            {
                "data": "2:531",
                "leaf": "clip",
                "type": "Leaf"
            },
            {
                "data": "1:531",
                "leaf": "clip",
                "type": "Leaf"
            }
        ],
        "type": "AVSplit"
    },
    {
        "children": [
            {
                "data": "1:540",
                "leaf": "clip",
                "type": "Leaf"
            },
            {
                "data": "2:540",
                "leaf": "clip",
                "type": "Leaf"
            }
        ],
        "type": "AVSplit"
    },
    {
        "children": [
            {
                "data": "2:549",
                "leaf": "clip",
                "type": "Leaf"
            },
            {
                "data": "1:549",
                "leaf": "clip",
                "type": "Leaf"
            }
        ],
        "type": "AVSplit"
    },
    {
        "children": [
            {
                "data": "1:558",
                "leaf": "clip",
                "type": "Leaf"
            },
            {
                "data": "2:558",
                "leaf": "clip",
                "type": "Leaf"
            }
        ],
        "type": "AVSplit"
    },
    {
        "children": [
            {
                "data": "2:568",
                "leaf": "clip",
                "type": "Leaf"
            },
            {
                "data": "1:568",
                "leaf": "clip",
                "type": "Leaf"
            }
        ],
        "type": "AVSplit"
    },
    {
        "children": [
            {
                "data": "1:577",
                "leaf": "clip",
                "type": "Leaf"
            },
            {
                "data": "2:577",
                "leaf": "clip",
                "type": "Leaf"
            }
        ],
        "type": "AVSplit"
    },
    {
        "children": [
            {
                "data": "2:586",
                "leaf": "clip",
                "type": "Leaf"
            },
            {
                "data": "1:586",
                "leaf": "clip",
                "type": "Leaf"
            }
        ],
        "type": "AVSplit"
    },
    {
        "children": [
            {
                "data": "1:1214",
                "leaf": "clip",
                "type": "Leaf"
            },
            {
                "data": "2:1214",
                "leaf": "clip",
                "type": "Leaf"
            }
        ],
        "type": "AVSplit"
    },
    {
        "children": [
            {
                "data": "2:1223",
                "leaf": "clip",
                "type": "Leaf"
            },
            {
                "data": "1:1223",
                "leaf": "clip",
                "type": "Leaf"
            }
        ],
        "type": "AVSplit"
    },
    {
        "children": [
            {
                "data": "1:1232",
                "leaf": "clip",
                "type": "Leaf"
            },
            {
                "data": "2:1232",
                "leaf": "clip",
                "type": "Leaf"
            }
        ],
        "type": "AVSplit"
    },
    {
        "children": [
            {
                "data": "2:1242",
                "leaf": "clip",
                "type": "Leaf"
            },
            {
                "data": "1:1242",
                "leaf": "clip",
                "type": "Leaf"
            }
        ],
        "type": "AVSplit"
    },
    {
        "children": [
            {
                "data": "1:1250",
                "leaf": "clip",
                "type": "Leaf"
            },
            {
                "data": "2:1250",
                "leaf": "clip",
                "type": "Leaf"
            }
        ],
        "type": "AVSplit"
    },
    {
        "children": [
            {
                "data": "2:1259",
                "leaf": "clip",
                "type": "Leaf"
            },
            {
                "data": "1:1259",
                "leaf": "clip",
                "type": "Leaf"
            }
        ],
        "type": "AVSplit"
    },
    {
        "children": [
            {
                "data": "1:1269",
                "leaf": "clip",
                "type": "Leaf"
            },
            {
                "data": "2:1269",
                "leaf": "clip",
                "type": "Leaf"
            }
        ],
        "type": "AVSplit"
    },
    {
        "children": [
            {
                "data": "2:1278",
                "leaf": "clip",
                "type": "Leaf"
            },
            {
                "data": "1:1278",
                "leaf": "clip",
                "type": "Leaf"
            }
        ],
        "type": "AVSplit"
    },
    {
        "children": [
            {
                "data": "1:1287",
                "leaf": "clip",
                "type": "Leaf"
            },
            {
                "data": "2:1287",
                "leaf": "clip",
                "type": "Leaf"
            }
        ],
        "type": "AVSplit"
    },
    {
        "children": [
            {
                "data": "2:1296",
                "leaf": "clip",
                "type": "Leaf"
            },
            {
                "data": "1:1296",
                "leaf": "clip",
                "type": "Leaf"
            }
        ],
        "type": "AVSplit"
    },
    {
        "children": [
            {
                "data": "1:1305",
                "leaf": "clip",
                "type": "Leaf"
            },
            {
                "data": "2:1305",
                "leaf": "clip",
                "type": "Leaf"
            }
        ],
        "type": "AVSplit"
    },
    {
        "children": [
            {
                "data": "2:1314",
                "leaf": "clip",
                "type": "Leaf"
            },
            {
                "data": "1:1314",
                "leaf": "clip",
                "type": "Leaf"
            }
        ],
        "type": "AVSplit"
    },
    {
        "children": [
            {
                "data": "1:1323",
                "leaf": "clip",
                "type": "Leaf"
            },
            {
                "data": "2:1323",
                "leaf": "clip",
                "type": "Leaf"
            }
        ],
        "type": "AVSplit"
    },
    {
        "children": [
            {
                "data": "2:1332",
                "leaf": "clip",
                "type": "Leaf"
            },
            {
                "data": "1:1332",
                "leaf": "clip",
                "type": "Leaf"
            }
        ],
        "type": "AVSplit"
    },
    {
        "children": [
            {
                "data": "1:1341",
                "leaf": "clip",
                "type": "Leaf"
            },
            {
                "data": "2:1341",
                "leaf": "clip",
                "type": "Leaf"
            }
        ],
        "type": "AVSplit"
    },
    {
        "children": [
            {
                "data": "2:1350",
                "leaf": "clip",
                "type": "Leaf"
            },
            {
                "data": "1:1350",
                "leaf": "clip",
                "type": "Leaf"
            }
        ],
        "type": "AVSplit"
    },
    {
        "children": [
            {
                "data": "1:1360",
                "leaf": "clip",
                "type": "Leaf"
            },
            {
                "data": "2:1360",
                "leaf": "clip",
                "type": "Leaf"
            }
        ],
        "type": "AVSplit"
    },
    {
        "children": [
            {
                "data": "2:1369",
                "leaf": "clip",
                "type": "Leaf"
            },
            {
                "data": "1:1369",
                "leaf": "clip",
                "type": "Leaf"
            }
        ],
        "type": "AVSplit"
    },
    {
        "children": [
            {
                "data": "1:1378",
                "leaf": "clip",
                "type": "Leaf"
            },
            {
                "data": "2:1378",
                "leaf": "clip",
                "type": "Leaf"
            }
        ],
        "type": "AVSplit"
    },
    {
        "children": [
            {
                "data": "2:1387",
                "leaf": "clip",
                "type": "Leaf"
            },
            {
                "data": "1:1387",
                "leaf": "clip",
                "type": "Leaf"
            }
        ],
        "type": "AVSplit"
    },
    {
        "children": [
            {
                "data": "1:1396",
                "leaf": "clip",
                "type": "Leaf"
            },
            {
                "data": "2:1396",
                "leaf": "clip",
                "type": "Leaf"
            }
        ],
        "type": "AVSplit"
    },
    {
        "children": [
            {
                "data": "2:1405",
                "leaf": "clip",
                "type": "Leaf"
            },
            {
                "data": "1:1405",
                "leaf": "clip",
                "type": "Leaf"
            }
        ],
        "type": "AVSplit"
    },
    {
        "children": [
            {
                "data": "1:1414",
                "leaf": "clip",
                "type": "Leaf"
            },
            {
                "data": "2:1414",
                "leaf": "clip",
                "type": "Leaf"
            }
        ],
        "type": "AVSplit"
    },
    {
        "children": [
            {
                "data": "2:1424",
                "leaf": "clip",
                "type": "Leaf"
            },
            {
                "data": "1:1424",
                "leaf": "clip",
                "type": "Leaf"
            }
        ],
        "type": "AVSplit"
    },
    {
        "children": [
            {
                "data": "1:1432",
                "leaf": "clip",
                "type": "Leaf"
            },
            {
                "data": "2:1432",
                "leaf": "clip",
                "type": "Leaf"
            }
        ],
        "type": "AVSplit"
    },
    {
        "children": [
            {
                "data": "2:1442",
                "leaf": "clip",
                "type": "Leaf"
            },
            {
                "data": "1:1442",
                "leaf": "clip",
                "type": "Leaf"
            }
        ],
        "type": "AVSplit"
    },
    {
        "children": [
            {
                "data": "1:1451",
                "leaf": "clip",
                "type": "Leaf"
            },
            {
                "data": "2:1451",
                "leaf": "clip",
                "type": "Leaf"
            }
        ],
        "type": "AVSplit"
    },
    {
        "children": [
            {
                "data": "2:1460",
                "leaf": "clip",
                "type": "Leaf"
            },
            {
                "data": "1:1460",
                "leaf": "clip",
                "type": "Leaf"
            }
        ],
        "type": "AVSplit"
    },
    {
        "children": [
            {
                "data": "1:1469",
                "leaf": "clip",
                "type": "Leaf"
            },
            {
                "data": "2:1469",
                "leaf": "clip",
                "type": "Leaf"
            }
        ],
        "type": "AVSplit"
    },
    {
        "children": [
            {
                "data": "2:1478",
                "leaf": "clip",
                "type": "Leaf"
            },
            {
                "data": "1:1478",
                "leaf": "clip",
                "type": "Leaf"
            }
        ],
        "type": "AVSplit"
    },
    {
        "children": [
            {
                "data": "1:1487",
                "leaf": "clip",
                "type": "Leaf"
            },
            {
                "data": "2:1487",
                "leaf": "clip",
                "type": "Leaf"
            }
        ],
        "type": "AVSplit"
    },
    {
        "children": [
            {
                "data": "2:1496",
                "leaf": "clip",
                "type": "Leaf"
            },
            {
                "data": "1:1496",
                "leaf": "clip",
                "type": "Leaf"
            }
        ],
        "type": "AVSplit"
    },
    {
        "children": [
            {
                "data": "1:1505",
                "leaf": "clip",
                "type": "Leaf"
            },
            {
                "data": "2:1505",
                "leaf": "clip",
                "type": "Leaf"
            }
        ],
        "type": "AVSplit"
    },
    {
        "children": [
            {
                "data": "2:1515",
                "leaf": "clip",
                "type": "Leaf"
            },
            {
                "data": "1:1515",
                "leaf": "clip",
                "type": "Leaf"
            }
        ],
        "type": "AVSplit"
    },
    {
        "children": [
            {
                "data": "1:1524",
                "leaf": "clip",
                "type": "Leaf"
            },
            {
                "data": "2:1524",
                "leaf": "clip",
                "type": "Leaf"
            }
        ],
        "type": "AVSplit"
    },
    {
        "children": [
            {
                "data": "2:1533",
                "leaf": "clip",
                "type": "Leaf"
            },
            {
                "data": "1:1533",
                "leaf": "clip",
                "type": "Leaf"
            }
        ],
        "type": "AVSplit"
    },
    {
        "children": [
            {
                "data": "1:1542",
                "leaf": "clip",
                "type": "Leaf"
            },
            {
                "data": "2:1542",
                "leaf": "clip",
                "type": "Leaf"
            }
        ],
        "type": "AVSplit"
    },
    {
        "children": [
            {
                "data": "2:1551",
                "leaf": "clip",
                "type": "Leaf"
            },
            {
                "data": "1:1551",
                "leaf": "clip",
                "type": "Leaf"
            }
        ],
        "type": "AVSplit"
    },
    {
        "children": [
            {
                "data": "1:1560",
                "leaf": "clip",
                "type": "Leaf"
            },
            {
                "data": "2:1560",
                "leaf": "clip",
                "type": "Leaf"
            }
        ],
        "type": "AVSplit"
    },
    {
        "children": [
            {
                "data": "2:1569",
                "leaf": "clip",
                "type": "Leaf"
            },
            {
                "data": "1:1569",
                "leaf": "clip",
                "type": "Leaf"
            }
        ],
        "type": "AVSplit"
    },
    {
        "children": [
            {
                "data": "1:1578",
                "leaf": "clip",
                "type": "Leaf"
            },
            {
                "data": "2:1578",
                "leaf": "clip",
                "type": "Leaf"
            }
        ],
        "type": "AVSplit"
    },
    {
        "children": [
            {
                "data": "2:1587",
                "leaf": "clip",
                "type": "Leaf"
            },
            {
                "data": "1:1587",
                "leaf": "clip",
                "type": "Leaf"
            }
        ],
        "type": "AVSplit"
    },
    {
        "children": [
            {
                "data": "1:1596",
                "leaf": "clip",
                "type": "Leaf"
            },
            {
                "data": "2:1596",
                "leaf": "clip",
                "type": "Leaf"
            }
        ],
        "type": "AVSplit"
    },
    {
        "children": [
            {
                "data": "2:1606",
                "leaf": "clip",
                "type": "Leaf"
            },
            {
                "data": "1:1606",
                "leaf": "clip",
                "type": "Leaf"
            }
        ],
        "type": "AVSplit"
    },
    {
        "children": [
            {
                "data": "1:1615",
                "leaf": "clip",
                "type": "Leaf"
            },
            {
                "data": "2:1615",
                "leaf": "clip",
                "type": "Leaf"
            }
        ],
        "type": "AVSplit"
    },
    {
        "children": [
            {
                "data": "2:1624",
                "leaf": "clip",
                "type": "Leaf"
            },
            {
                "data": "1:1624",
                "leaf": "clip",
                "type": "Leaf"
            }
        ],
        "type": "AVSplit"
    },
    {
        "children": [
            {
                "data": "1:1633",
                "leaf": "clip",
                "type": "Leaf"
            },
            {
                "data": "2:1633",
                "leaf": "clip",
                "type": "Leaf"
            }
        ],
        "type": "AVSplit"
    },
    {
        "children": [
            {
                "data": "2:1642",
                "leaf": "clip",
                "type": "Leaf"
            },
            {
                "data": "1:1642",
                "leaf": "clip",
                "type": "Leaf"
            }
        ],
        "type": "AVSplit"
    },
    {
        "children": [
            {
                "data": "1:1651",
                "leaf": "clip",
                "type": "Leaf"
            },
            {
                "data": "2:1651",
                "leaf": "clip",
                "type": "Leaf"
            }
        ],
        "type": "AVSplit"
    },
    {
        "children": [
            {
                "data": "2:1660",
                "leaf": "clip",
                "type": "Leaf"
            },
            {
                "data": "1:1660",
                "leaf": "clip",
                "type": "Leaf"
            }
        ],
        "type": "AVSplit"
    },
    {
        "children": [
            {
                "data": "1:1669",
                "leaf": "clip",
                "type": "Leaf"
            },
            {
                "data": "2:1669",
                "leaf": "clip",
                "type": "Leaf"
            }
        ],
        "type": "AVSplit"
    },
    {
        "children": [
            {
                "data": "2:1679",
                "leaf": "clip",
                "type": "Leaf"
            },
            {
                "data": "1:1679",
                "leaf": "clip",
                "type": "Leaf"
            }
        ],
        "type": "AVSplit"
    },
    {
        "children": [
            {
                "data": "1:1686",
                "leaf": "clip",
                "type": "Leaf"
            },
            {
                "data": "2:1686",
                "leaf": "clip",
                "type": "Leaf"
            }
        ],
        "type": "AVSplit"
    },
    {
        "children": [
            {
                "data": "2:1696",
                "leaf": "clip",
                "type": "Leaf"
            },
            {
                "data": "1:1696",
                "leaf": "clip",
                "type": "Leaf"
            }
        ],
        "type": "AVSplit"
    },
    {
        "children": [
            {
                "data": "1:1705",
                "leaf": "clip",
                "type": "Leaf"
            },
            {
                "data": "2:1705",
                "leaf": "clip",
                "type": "Leaf"
            }
        ],
        "type": "AVSplit"
    },
    {
        "children": [
            {
                "data": "2:1715",
                "leaf": "clip",
                "type": "Leaf"
            },
            {
                "data": "1:1715",
                "leaf": "clip",
                "type": "Leaf"
            }
        ],
        "type": "AVSplit"
    },
    {
        "children": [
            {
                "data": "1:1724",
                "leaf": "clip",
                "type": "Leaf"
            },
            {
                "data": "2:1724",
                "leaf": "clip",
                "type": "Leaf"
            }
        ],
        "type": "AVSplit"
    },
    {
        "children": [
            {
                "data": "2:1733",
                "leaf": "clip",
                "type": "Leaf"
            },
            {
                "data": "1:1733",
                "leaf": "clip",
                "type": "Leaf"
            }
        ],
        "type": "AVSplit"
    },
    {
        "children": [
            {
                "data": "1:1742",
                "leaf": "clip",
                "type": "Leaf"
            },
            {
                "data": "2:1742",
                "leaf": "clip",
                "type": "Leaf"
            }
        ],
        "type": "AVSplit"
    },
    {
        "children": [
            {
                "data": "2:1751",
                "leaf": "clip",
                "type": "Leaf"
            },
            {
                "data": "1:1751",
                "leaf": "clip",
                "type": "Leaf"
            }
        ],
        "type": "AVSplit"
    },
    {
        "children": [
            {
                "data": "1:1760",
                "leaf": "clip",
                "type": "Leaf"
            },
            {
                "data": "2:1760",
                "leaf": "clip",
                "type": "Leaf"
            }
        ],
        "type": "AVSplit"
    },
    {
        "children": [
            {
                "data": "2:1769",
                "leaf": "clip",
                "type": "Leaf"
            },
            {
                "data": "1:1769",
                "leaf": "clip",
                "type": "Leaf"
            }
        ],
        "type": "AVSplit"
    },
    {
        "children": [
            {
                "data": "1:1778",
                "leaf": "clip",
                "type": "Leaf"
            },
            {
                "data": "2:1778",
                "leaf": "clip",
                "type": "Leaf"
            }
        ],
        "type": "AVSplit"
    },
    {
        "children": [
            {
                "data": "2:1788",
                "leaf": "clip",
                "type": "Leaf"
            },
            {
                "data": "1:1788",
                "leaf": "clip",
                "type": "Leaf"
            }
        ],
        "type": "AVSplit"
    },
    {
        "children": [
            {
                "data": "1:1797",
                "leaf": "clip",
                "type": "Leaf"
            },
            {
                "data": "2:1797",
                "leaf": "clip",
                "type": "Leaf"
            }
        ],
        "type": "AVSplit"
    },
    {
        "children": [
            {
                "data": "2:1806",
                "leaf": "clip",
                "type": "Leaf"
            },
            {
                "data": "1:1806",
                "leaf": "clip",
                "type": "Leaf"
            }
        ],
        "type": "AVSplit"
    },
    {
        "children": [
            {
                "data": "1:1815",
                "leaf": "clip",
                "type": "Leaf"
            },
            {
                "data": "2:1815",
                "leaf": "clip",
                "type": "Leaf"
            }
        ],
        "type": "AVSplit"
    },
    {
        "children": [
            {
                "data": "2:1824",
                "leaf": "clip",
                "type": "Leaf"
            },
            {
                "data": "1:1824",
                "leaf": "clip",
                "type": "Leaf"
            }
        ],
        "type": "AVSplit"
    },
    {
        "children": [
            {
                "data": "1:1833",
                "leaf": "clip",
                "type": "Leaf"
            },
            {
                "data": "2:1833",
                "leaf": "clip",
                "type": "Leaf"
            }
        ],
        "type": "AVSplit"
    },
    {
        "children": [
            {
                "data": "2:1842",
                "leaf": "clip",
                "type": "Leaf"
            },
            {
                "data": "1:1842",
                "leaf": "clip",
                "type": "Leaf"
            }
        ],
        "type": "AVSplit"
    },
    {
        "children": [
            {
                "data": "1:1851",
                "leaf": "clip",
                "type": "Leaf"
            },
            {
                "data": "2:1851",
                "leaf": "clip",
                "type": "Leaf"
            }
        ],
        "type": "AVSplit"
    },
    {
        "children": [
            {
                "data": "2:1860",
                "leaf": "clip",
                "type": "Leaf"
            },
            {
                "data": "1:1860",
                "leaf": "clip",
                "type": "Leaf"
            }
        ],
        "type": "AVSplit"
    },
    {
        "children": [
            {
                "data": "1:1869",
                "leaf": "clip",
                "type": "Leaf"
            },
            {
                "data": "2:1869",
                "leaf": "clip",
                "type": "Leaf"
            }
        ],
        "type": "AVSplit"
    },
    {
        "children": [
            {
                "data": "2:1879",
                "leaf": "clip",
                "type": "Leaf"
            },
            {
                "data": "1:1879",
                "leaf": "clip",
                "type": "Leaf"
            }
        ],
        "type": "AVSplit"
    },
    {
        "children": [
            {
                "data": "1:1888",
                "leaf": "clip",
                "type": "Leaf"
            },
            {
                "data": "2:1888",
                "leaf": "clip",
                "type": "Leaf"
            }
        ],
        "type": "AVSplit"
    },
    {
        "children": [
            {
                "data": "2:1897",
                "leaf": "clip",
                "type": "Leaf"
            },
            {
                "data": "1:1897",
                "leaf": "clip",
                "type": "Leaf"
            }
        ],
        "type": "AVSplit"
    },
    {
        "children": [
            {
                "data": "1:1906",
                "leaf": "clip",
                "type": "Leaf"
            },
            {
                "data": "2:1906",
                "leaf": "clip",
                "type": "Leaf"
            }
        ],
        "type": "AVSplit"
    },
    {
        "children": [
            {
                "data": "2:1915",
                "leaf": "clip",
                "type": "Leaf"
            },
            {
                "data": "1:1915",
                "leaf": "clip",
                "type": "Leaf"
            }
        ],
        "type": "AVSplit"
    },
    {
        "children": [
            {
                "data": "1:1924",
                "leaf": "clip",
                "type": "Leaf"
            },
            {
                "data": "2:1924",
                "leaf": "clip",
                "type": "Leaf"
            }
        ],
        "type": "AVSplit"
    },
    {
        "children": [
            {
                "data": "2:1933",
                "leaf": "clip",
                "type": "Leaf"
            },
            {
                "data": "1:1933",
                "leaf": "clip",
                "type": "Leaf"
            }
        ],
        "type": "AVSplit"
    },
    {
        "children": [
            {
                "data": "1:1942",
                "leaf": "clip",
                "type": "Leaf"
            },
            {
                "data": "2:1942",
                "leaf": "clip",
                "type": "Leaf"
            }
        ],
        "type": "AVSplit"
    },
    {
        "children": [
            {
                "data": "2:1951",
                "leaf": "clip",
                "type": "Leaf"
            },
            {
                "data": "1:1951",
                "leaf": "clip",
                "type": "Leaf"
            }
        ],
        "type": "AVSplit"
    },
    {
        "children": [
            {
                "data": "1:1961",
                "leaf": "clip",
                "type": "Leaf"
            },
            {
                "data": "2:1961",
                "leaf": "clip",
                "type": "Leaf"
            }
        ],
        "type": "AVSplit"
    }
]
</property>
  <property name="kdenlive:sequenceproperties.guides">[
]
</property>
  <property name="kdenlive:sequenceproperties.position">0</property>
  <property name="kdenlive:sequenceproperties.scrollPos">0</property>
  <property name="kdenlive:sequenceproperties.disablepreview">0</property>
  <track producer="producer0"/>
  <track producer="tractor0"/>
  <track producer="tractor1"/>
  <track producer="tractor2"/>
  <track producer="tractor3"/>
  <transition id="transition0">
   <property name="a_track">0</property>
   <property name="b_track">1</property>
   <property name="mlt_service">mix</property>
   <property name="kdenlive_id">mix</property>
   <property name="internal_added">237</property>
   <property name="always_active">1</property>
   <property name="accepts_blanks">1</property>
   <property name="sum">1</property>
  </transition>
  <transition id="transition1">
   <property name="a_track">0</property>
   <property name="b_track">2</property>
   <property name="mlt_service">mix</property>
   <property name="kdenlive_id">mix</property>
   <property name="internal_added">237</property>
   <property name="always_active">1</property>
   <property name="accepts_blanks">1</property>
   <property name="sum">1</property>
  </transition>
  <transition id="transition2">
   <property name="a_track">0</property>
   <property name="b_track">3</property>
   <property name="compositing">0</property>
   <property name="distort">0</property>
   <property name="rotate_center">0</property>
   <property name="mlt_service">qtblend</property>
   <property name="always_active">1</property>
   <property name="internal_added">237</property>
  </transition>
  <transition id="transition3">
   <property name="a_track">0</property>
   <property name="b_track">4</property>
   <property name="compositing">0</property>
   <property name="distort">0</property>
   <property name="rotate_center">0</property>
   <property name="mlt_service">qtblend</property>
   <property name="always_active">1</property>
   <property name="internal_added">237</property>
  </transition>
  <filter id="filter6">
   <property name="window">75</property>
   <property name="max_gain">20dB</property>
   <property name="mlt_service">volume</property>
   <property name="internal_added">237</property>
   <property name="disable">1</property>
  </filter>
  <filter id="filter7">
   <property name="channel">-1</property>
   <property name="mlt_service">panner</property>
   <property name="internal_added">237</property>
   <property name="start">0.5</property>
   <property name="disable">1</property>
  </filter>
 </tractor>
 <chain id="chain2" out="00:03:45.212">
  <property name="length">5400</property>
  <property name="eof">pause</property>
  <property name="resource">/home/fedora/Videos/Clips/Joji - Gimme Love.mp4</property>
  <property name="mlt_service">avformat</property>
  <property name="meta.media.nb_streams">2</property>
  <property name="meta.media.0.stream.type">video</property>
  <property name="meta.media.0.stream.frame_rate">23.976</property>
  <property name="meta.media.0.stream.sample_aspect_ratio">0</property>
  <property name="meta.media.0.codec.width">640</property>
  <property name="meta.media.0.codec.height">360</property>
  <property name="meta.media.0.codec.rotate">0</property>
  <property name="meta.media.0.codec.pix_fmt">yuv420p</property>
  <property name="meta.media.0.codec.sample_aspect_ratio">1</property>
  <property name="meta.media.0.codec.colorspace">709</property>
  <property name="meta.media.0.codec.color_trc">1</property>
  <property name="meta.media.0.codec.name">h264</property>
  <property name="meta.media.0.codec.long_name">H.264 / AVC / MPEG-4 AVC / MPEG-4 part 10</property>
  <property name="meta.media.0.codec.bit_rate">178273</property>
  <property name="meta.attr.0.stream.creation_time.markup">2023-11-26T21:47:19.000000Z</property>
  <property name="meta.attr.0.stream.handler_name.markup">ISO Media file produced by Google Inc. Created on: 11/26/2023.</property>
  <property name="meta.attr.0.stream.vendor_id.markup">[0][0][0][0]</property>
  <property name="meta.media.1.stream.type">audio</property>
  <property name="meta.media.1.codec.sample_fmt">fltp</property>
  <property name="meta.media.1.codec.sample_rate">44100</property>
  <property name="meta.media.1.codec.channels">2</property>
  <property name="meta.media.1.codec.name">aac</property>
  <property name="meta.media.1.codec.long_name">AAC (Advanced Audio Coding)</property>
  <property name="meta.media.1.codec.bit_rate">127999</property>
  <property name="meta.attr.1.stream.creation_time.markup">2023-11-26T21:47:19.000000Z</property>
  <property name="meta.attr.1.stream.language.markup">eng</property>
  <property name="meta.attr.1.stream.handler_name.markup">ISO Media file produced by Google Inc. Created on: 11/26/2023.</property>
  <property name="meta.attr.1.stream.vendor_id.markup">[0][0][0][0]</property>
  <property name="meta.attr.major_brand.markup">mp42</property>
  <property name="meta.attr.minor_version.markup">0</property>
  <property name="meta.attr.compatible_brands.markup">isommp42</property>
  <property name="meta.attr.creation_time.markup">2023-11-26T21:47:19.000000Z</property>
  <property name="seekable">1</property>
  <property name="meta.media.sample_aspect_num">1</property>
  <property name="meta.media.sample_aspect_den">1</property>
  <property name="format">3</property>
  <property name="audio_index">1</property>
  <property name="video_index">0</property>
  <property name="vstream">0</property>
  <property name="meta.media.frame_rate_num">24000</property>
  <property name="meta.media.frame_rate_den">1001</property>
  <property name="meta.media.colorspace">709</property>
  <property name="meta.media.color_trc">1</property>
  <property name="meta.media.has_b_frames">1</property>
  <property name="meta.media.width">640</property>
  <property name="meta.media.height">360</property>
  <property name="meta.media.color_range">mpeg</property>
  <property name="astream">0</property>
  <property name="meta.media.top_field_first">0</property>
  <property name="meta.media.progressive">1</property>
  <property name="kdenlive:id">4</property>
  <property name="kdenlive:clip_type">0</property>
  <property name="kdenlive:file_size">8721842</property>
  <property name="kdenlive:file_hash">5461f5a22c5b34843dafee44bc5b6802</property>
  <property name="kdenlive:folderid">-1</property>
  <property name="kdenlive:audio_max1">249</property>
 </chain>
 <playlist id="main_bin">
  <property name="kdenlive:folder.-1.2">Sequences</property>
  <property name="kdenlive:sequenceFolder">2</property>
  <property name="kdenlive:docproperties.audioChannels">2</property>
  <property name="kdenlive:docproperties.browserurl">/home/fedora/Videos/</property>
  <property name="kdenlive:docproperties.compositing">1</property>
  <property name="kdenlive:docproperties.documentid">1701731948824</property>
  <property name="kdenlive:docproperties.enableTimelineZone">0</property>
  <property name="kdenlive:docproperties.enableexternalproxy">0</property>
  <property name="kdenlive:docproperties.enableproxy">0</property>
  <property name="kdenlive:docproperties.externalproxyparams"/>
  <property name="kdenlive:docproperties.generateimageproxy">0</property>
  <property name="kdenlive:docproperties.generateproxy">0</property>
  <property name="kdenlive:docproperties.guidesCategories">[
    {
        "color": "#9b59b6",
        "comment": "Category 1",
        "index": 0
    },
    {
        "color": "#3daee9",
        "comment": "Category 2",
        "index": 1
    },
    {
        "color": "#1abc9c",
        "comment": "Category 3",
        "index": 2
    },
    {
        "color": "#1cdc9a",
        "comment": "Category 4",
        "index": 3
    },
    {
        "color": "#c9ce3b",
        "comment": "Category 5",
        "index": 4
    },
    {
        "color": "#fdbc4b",
        "comment": "Category 6",
        "index": 5
    },
    {
        "color": "#f39c1f",
        "comment": "Category 7",
        "index": 6
    },
    {
        "color": "#f47750",
        "comment": "Category 8",
        "index": 7
    },
    {
        "color": "#da4453",
        "comment": "Category 9",
        "index": 8
    }
]
</property>
  <property name="kdenlive:docproperties.kdenliveversion">23.08.3</property>
  <property name="kdenlive:docproperties.previewextension"/>
  <property name="kdenlive:docproperties.previewparameters"/>
  <property name="kdenlive:docproperties.profile">/home/fedora/.local/share/kdenlive/profiles/customprofile0</property>
  <property name="kdenlive:docproperties.proxyextension"/>
  <property name="kdenlive:docproperties.proxyimageminsize">2000</property>
  <property name="kdenlive:docproperties.proxyimagesize">800</property>
  <property name="kdenlive:docproperties.proxyminsize">1000</property>
  <property name="kdenlive:docproperties.proxyparams"/>
  <property name="kdenlive:docproperties.proxyresize">640</property>
  <property name="kdenlive:docproperties.seekOffset">30000</property>
  <property name="kdenlive:docproperties.uuid">{b3093fd2-8c7f-46c5-87e9-a3efa9fa628d}</property>
  <property name="kdenlive:docproperties.version">1.1</property>
  <property name="kdenlive:expandedFolders"/>
  <property name="kdenlive:binZoom">4</property>
  <property name="kdenlive:documentnotes"/>
  <property name="kdenlive:docproperties.opensequences">{b3093fd2-8c7f-46c5-87e9-a3efa9fa628d}</property>
  <property name="kdenlive:docproperties.activetimeline">{b3093fd2-8c7f-46c5-87e9-a3efa9fa628d}</property>
  <property name="xml_retain">1</property>
  <entry producer="{b3093fd2-8c7f-46c5-87e9-a3efa9fa628d}" in="00:00:00.000" out="00:00:00.000"/>
  <entry producer="chain2" in="00:00:00.000" out="00:03:45.212"/>
 </playlist>
 <tractor id="tractor4" in="00:00:00.000" out="00:03:45.254">
  <property name="kdenlive:projectTractor">1</property>
  <track producer="{b3093fd2-8c7f-46c5-87e9-a3efa9fa628d}" in="00:00:00.000" out="00:03:45.254"/>
 </tractor>
</mlt>
