<?xml version='1.0' encoding='utf-8'?>
<mlt LC_NUMERIC="C" producer="main_bin" version="7.20.0" root="/home/fedora/Jupyter/defining-video-cuts/timelines">
 <profile frame_rate_num="24000" sample_aspect_num="1" display_aspect_den="9" colorspace="709" progressive="1" description="640x360 23.98fps" display_aspect_num="16" frame_rate_den="1001" width="640" height="360" sample_aspect_den="1"/>
 <producer id="producer0" in="00:00:00.000" out="00:25:04.046">
  <property name="length">2147483647</property>
  <property name="eof">continue</property>
  <property name="resource">black</property>
  <property name="aspect_ratio">1</property>
  <property name="mlt_service">color</property>
  <property name="kdenlive:playlistid">black_track</property>
  <property name="mlt_image_format">rgba</property>
  <property name="set.test_audio">0</property>
 </producer>
 <playlist id="playlist0">
  <property name="kdenlive:audio_track">1</property>
 </playlist>
 <playlist id="playlist1">
  <property name="kdenlive:audio_track">1</property>
 </playlist>
 <tractor id="tractor0" in="00:00:00.000">
  <property name="kdenlive:audio_track">1</property>
  <property name="kdenlive:trackheight">67</property>
  <property name="kdenlive:timeline_active">1</property>
  <property name="kdenlive:collapsed">0</property>
  <property name="kdenlive:thumbs_format"/>
  <property name="kdenlive:audio_rec"/>
  <track hide="video" producer="playlist0"/>
  <track hide="video" producer="playlist1"/>
  <filter id="filter0">
   <property name="window">75</property>
   <property name="max_gain">20dB</property>
   <property name="mlt_service">volume</property>
   <property name="internal_added">237</property>
   <property name="disable">1</property>
  </filter>
  <filter id="filter1">
   <property name="channel">-1</property>
   <property name="mlt_service">panner</property>
   <property name="internal_added">237</property>
   <property name="start">0.5</property>
   <property name="disable">1</property>
  </filter>
  <filter id="filter2">
   <property name="iec_scale">0</property>
   <property name="mlt_service">audiolevel</property>
   <property name="dbpeak">1</property>
   <property name="disable">1</property>
  </filter>
 </tractor>
 <chain id="chain0" out="00:04:12.763">
  <property name="length">6061</property>
  <property name="eof">pause</property>
  <property name="resource">/home/fedora/Jupyter/defining-video-cuts/videos/2.mp4</property>
  <property name="mlt_service">avformat-novalidate</property>
  <property name="seekable">1</property>
  <property name="format">3</property>
  <property name="audio_index">1</property>
  <property name="video_index">0</property>
  <property name="vstream">0</property>
  <property name="astream">0</property>
  <property name="kdenlive:clipname"/>
  <property name="kdenlive:clip_type">0</property>
  <property name="kdenlive:folderid">-1</property>
  <property name="kdenlive:id">4</property>
  <property name="mute_on_pause">0</property>
  <property name="kdenlive:file_size">9107300</property>
  <property name="kdenlive:file_hash">e5bbcdc066ae3f5b3eada204b3cbf016</property>
  <property name="kdenlive:audio_max1">241</property>
  <property name="meta.media.nb_streams">2</property>
  <property name="meta.media.0.stream.type">video</property>
  <property name="meta.media.0.stream.frame_rate">23.976</property>
  <property name="meta.media.0.stream.sample_aspect_ratio">0</property>
  <property name="meta.media.0.codec.width">640</property>
  <property name="meta.media.0.codec.height">360</property>
  <property name="meta.media.0.codec.rotate">0</property>
  <property name="meta.media.0.codec.pix_fmt">yuv420p</property>
  <property name="meta.media.0.codec.sample_aspect_ratio">1</property>
  <property name="meta.media.0.codec.colorspace">709</property>
  <property name="meta.media.0.codec.color_trc">1</property>
  <property name="meta.media.0.codec.name">h264</property>
  <property name="meta.media.0.codec.long_name">H.264 / AVC / MPEG-4 AVC / MPEG-4 part 10</property>
  <property name="meta.media.0.codec.bit_rate">156603</property>
  <property name="meta.attr.0.stream.creation_time.markup">2023-11-12T11:17:49.000000Z</property>
  <property name="meta.attr.0.stream.handler_name.markup">ISO Media file produced by Google Inc. Created on: 11/12/2023.</property>
  <property name="meta.attr.0.stream.vendor_id.markup">[0][0][0][0]</property>
  <property name="meta.media.1.stream.type">audio</property>
  <property name="meta.media.1.codec.sample_fmt">fltp</property>
  <property name="meta.media.1.codec.sample_rate">44100</property>
  <property name="meta.media.1.codec.channels">2</property>
  <property name="meta.media.1.codec.name">aac</property>
  <property name="meta.media.1.codec.long_name">AAC (Advanced Audio Coding)</property>
  <property name="meta.media.1.codec.bit_rate">127999</property>
  <property name="meta.attr.1.stream.creation_time.markup">2023-11-12T11:17:49.000000Z</property>
  <property name="meta.attr.1.stream.language.markup">eng</property>
  <property name="meta.attr.1.stream.handler_name.markup">ISO Media file produced by Google Inc. Created on: 11/12/2023.</property>
  <property name="meta.attr.1.stream.vendor_id.markup">[0][0][0][0]</property>
  <property name="meta.attr.major_brand.markup">mp42</property>
  <property name="meta.attr.minor_version.markup">0</property>
  <property name="meta.attr.compatible_brands.markup">isommp42</property>
  <property name="meta.attr.creation_time.markup">2023-11-12T11:17:49.000000Z</property>
  <property name="meta.media.sample_aspect_num">1</property>
  <property name="meta.media.sample_aspect_den">1</property>
  <property name="meta.media.frame_rate_num">24000</property>
  <property name="meta.media.frame_rate_den">1001</property>
  <property name="meta.media.colorspace">709</property>
  <property name="meta.media.color_trc">1</property>
  <property name="meta.media.has_b_frames">1</property>
  <property name="meta.media.width">640</property>
  <property name="meta.media.height">360</property>
  <property name="meta.media.color_range">mpeg</property>
  <property name="xml">was here</property>
  <property name="meta.media.top_field_first">0</property>
  <property name="meta.media.progressive">1</property>
  <property name="set.test_audio">0</property>
  <property name="set.test_image">1</property>
 </chain>
 <playlist id="playlist2">
  <property name="kdenlive:audio_track">1</property>
  <entry producer="chain0" in="00:00:00.000" out="00:00:00.918">
   <property name="kdenlive:id">4</property>
  </entry>
  <entry producer="chain0" in="00:00:00.959" out="00:00:02.669">
   <property name="kdenlive:id">4</property>
  </entry>
  <entry producer="chain0" in="00:00:02.711" out="00:00:03.921">
   <property name="kdenlive:id">4</property>
  </entry>
  <entry producer="chain0" in="00:00:03.962" out="00:00:04.254">
   <property name="kdenlive:id">4</property>
  </entry>
  <entry producer="chain0" in="00:00:04.296" out="00:00:05.422">
   <property name="kdenlive:id">4</property>
  </entry>
  <entry producer="chain0" in="00:00:05.464" out="00:00:05.839">
   <property name="kdenlive:id">4</property>
  </entry>
  <entry producer="chain0" in="00:00:05.881" out="00:00:07.049">
   <property name="kdenlive:id">4</property>
  </entry>
  <entry producer="chain0" in="00:00:07.090" out="00:00:07.466">
   <property name="kdenlive:id">4</property>
  </entry>
  <entry producer="chain0" in="00:00:07.507" out="00:00:07.925">
   <property name="kdenlive:id">4</property>
  </entry>
  <entry producer="chain0" in="00:00:07.966" out="00:00:08.634">
   <property name="kdenlive:id">4</property>
  </entry>
  <entry producer="chain0" in="00:00:08.675" out="00:00:09.134">
   <property name="kdenlive:id">4</property>
  </entry>
  <entry producer="chain0" in="00:00:09.176" out="00:00:10.636">
   <property name="kdenlive:id">4</property>
  </entry>
  <entry producer="chain0" in="00:00:10.677" out="00:00:11.720">
   <property name="kdenlive:id">4</property>
  </entry>
  <entry producer="chain0" in="00:00:11.762" out="00:00:12.346">
   <property name="kdenlive:id">4</property>
  </entry>
  <entry producer="chain0" in="00:00:12.387" out="00:00:13.096">
   <property name="kdenlive:id">4</property>
  </entry>
  <entry producer="chain0" in="00:00:13.138" out="00:00:13.805">
   <property name="kdenlive:id">4</property>
  </entry>
  <entry producer="chain0" in="00:00:13.847" out="00:00:14.473">
   <property name="kdenlive:id">4</property>
  </entry>
  <entry producer="chain0" in="00:00:14.514" out="00:00:15.515">
   <property name="kdenlive:id">4</property>
  </entry>
  <entry producer="chain0" in="00:00:15.557" out="00:00:16.808">
   <property name="kdenlive:id">4</property>
  </entry>
  <entry producer="chain0" in="00:00:16.850" out="00:00:17.726">
   <property name="kdenlive:id">4</property>
  </entry>
  <entry producer="chain0" in="00:00:17.768" out="00:00:19.561">
   <property name="kdenlive:id">4</property>
  </entry>
  <entry producer="chain0" in="00:00:19.603" out="00:00:20.145">
   <property name="kdenlive:id">4</property>
  </entry>
  <entry producer="chain0" in="00:00:20.187" out="00:00:20.520">
   <property name="kdenlive:id">4</property>
  </entry>
  <entry producer="chain0" in="00:00:20.562" out="00:00:21.313">
   <property name="kdenlive:id">4</property>
  </entry>
  <entry producer="chain0" in="00:00:21.355" out="00:00:22.105">
   <property name="kdenlive:id">4</property>
  </entry>
  <entry producer="chain0" in="00:00:22.147" out="00:00:22.814">
   <property name="kdenlive:id">4</property>
  </entry>
  <entry producer="chain0" in="00:00:22.856" out="00:00:23.357">
   <property name="kdenlive:id">4</property>
  </entry>
  <entry producer="chain0" in="00:00:23.398" out="00:00:24.399">
   <property name="kdenlive:id">4</property>
  </entry>
  <entry producer="chain0" in="00:00:24.441" out="00:00:25.317">
   <property name="kdenlive:id">4</property>
  </entry>
  <entry producer="chain0" in="00:00:25.359" out="00:00:27.736">
   <property name="kdenlive:id">4</property>
  </entry>
  <entry producer="chain0" in="00:00:27.778" out="00:00:28.528">
   <property name="kdenlive:id">4</property>
  </entry>
  <entry producer="chain0" in="00:00:28.570" out="00:00:29.571">
   <property name="kdenlive:id">4</property>
  </entry>
  <entry producer="chain0" in="00:00:29.613" out="00:00:32.741">
   <property name="kdenlive:id">4</property>
  </entry>
  <entry producer="chain0" in="00:00:32.783" out="00:00:33.367">
   <property name="kdenlive:id">4</property>
  </entry>
  <entry producer="chain0" in="00:00:33.408" out="00:00:33.909">
   <property name="kdenlive:id">4</property>
  </entry>
  <entry producer="chain0" in="00:00:33.951" out="00:00:35.202">
   <property name="kdenlive:id">4</property>
  </entry>
  <entry producer="chain0" in="00:00:35.244" out="00:00:35.994">
   <property name="kdenlive:id">4</property>
  </entry>
  <entry producer="chain0" in="00:00:36.036" out="00:00:37.079">
   <property name="kdenlive:id">4</property>
  </entry>
  <entry producer="chain0" in="00:00:37.120" out="00:00:38.538">
   <property name="kdenlive:id">4</property>
  </entry>
  <entry producer="chain0" in="00:00:38.580" out="00:00:40.040">
   <property name="kdenlive:id">4</property>
  </entry>
  <entry producer="chain0" in="00:00:40.082" out="00:00:41.333">
   <property name="kdenlive:id">4</property>
  </entry>
  <entry producer="chain0" in="00:00:41.375" out="00:00:41.959">
   <property name="kdenlive:id">4</property>
  </entry>
  <entry producer="chain0" in="00:00:42.000" out="00:00:44.836">
   <property name="kdenlive:id">4</property>
  </entry>
  <entry producer="chain0" in="00:00:44.878" out="00:00:45.754">
   <property name="kdenlive:id">4</property>
  </entry>
  <entry producer="chain0" in="00:00:45.796" out="00:00:46.588">
   <property name="kdenlive:id">4</property>
  </entry>
  <entry producer="chain0" in="00:00:46.630" out="00:00:47.798">
   <property name="kdenlive:id">4</property>
  </entry>
  <entry producer="chain0" in="00:00:47.839" out="00:00:48.465">
   <property name="kdenlive:id">4</property>
  </entry>
  <entry producer="chain0" in="00:00:48.507" out="00:00:49.716">
   <property name="kdenlive:id">4</property>
  </entry>
  <entry producer="chain0" in="00:00:49.758" out="00:00:51.760">
   <property name="kdenlive:id">4</property>
  </entry>
  <entry producer="chain0" in="00:00:51.802" out="00:00:53.887">
   <property name="kdenlive:id">4</property>
  </entry>
  <entry producer="chain0" in="00:00:53.929" out="00:00:55.305">
   <property name="kdenlive:id">4</property>
  </entry>
  <entry producer="chain0" in="00:00:55.347" out="00:00:57.057">
   <property name="kdenlive:id">4</property>
  </entry>
  <entry producer="chain0" in="00:00:57.099" out="00:00:57.808">
   <property name="kdenlive:id">4</property>
  </entry>
  <entry producer="chain0" in="00:00:57.849" out="00:00:58.517">
   <property name="kdenlive:id">4</property>
  </entry>
  <entry producer="chain0" in="00:00:58.558" out="00:00:59.518">
   <property name="kdenlive:id">4</property>
  </entry>
  <entry producer="chain0" in="00:00:59.559" out="00:01:00.709">
   <property name="kdenlive:id">4</property>
  </entry>
  <entry producer="chain0" in="00:01:00.751" out="00:01:01.877">
   <property name="kdenlive:id">4</property>
  </entry>
  <entry producer="chain0" in="00:01:01.919" out="00:01:02.419">
   <property name="kdenlive:id">4</property>
  </entry>
  <entry producer="chain0" in="00:01:02.461" out="00:01:03.337">
   <property name="kdenlive:id">4</property>
  </entry>
  <entry producer="chain0" in="00:01:03.378" out="00:01:04.463">
   <property name="kdenlive:id">4</property>
  </entry>
  <entry producer="chain0" in="00:01:04.504" out="00:01:05.464">
   <property name="kdenlive:id">4</property>
  </entry>
  <entry producer="chain0" in="00:01:05.505" out="00:01:07.758">
   <property name="kdenlive:id">4</property>
  </entry>
  <entry producer="chain0" in="00:01:07.799" out="00:01:08.175">
   <property name="kdenlive:id">4</property>
  </entry>
  <entry producer="chain0" in="00:01:08.217" out="00:01:08.383">
   <property name="kdenlive:id">4</property>
  </entry>
  <entry producer="chain0" in="00:01:08.425" out="00:01:08.634">
   <property name="kdenlive:id">4</property>
  </entry>
  <entry producer="chain0" in="00:01:08.675" out="00:01:10.219">
   <property name="kdenlive:id">4</property>
  </entry>
  <entry producer="chain0" in="00:01:10.260" out="00:01:10.802">
   <property name="kdenlive:id">4</property>
  </entry>
  <entry producer="chain0" in="00:01:10.844" out="00:01:13.430">
   <property name="kdenlive:id">4</property>
  </entry>
  <entry producer="chain0" in="00:01:13.472" out="00:01:15.015">
   <property name="kdenlive:id">4</property>
  </entry>
  <entry producer="chain0" in="00:01:15.057" out="00:01:15.974">
   <property name="kdenlive:id">4</property>
  </entry>
  <entry producer="chain0" in="00:01:16.016" out="00:01:17.226">
   <property name="kdenlive:id">4</property>
  </entry>
  <entry producer="chain0" in="00:01:17.267" out="00:01:18.936">
   <property name="kdenlive:id">4</property>
  </entry>
  <entry producer="chain0" in="00:01:18.977" out="00:01:19.436">
   <property name="kdenlive:id">4</property>
  </entry>
  <entry producer="chain0" in="00:01:19.478" out="00:01:20.395">
   <property name="kdenlive:id">4</property>
  </entry>
  <entry producer="chain0" in="00:01:20.437" out="00:01:21.021">
   <property name="kdenlive:id">4</property>
  </entry>
  <entry producer="chain0" in="00:01:21.063" out="00:01:21.730">
   <property name="kdenlive:id">4</property>
  </entry>
  <entry producer="chain0" in="00:01:21.772" out="00:01:23.065">
   <property name="kdenlive:id">4</property>
  </entry>
  <entry producer="chain0" in="00:01:23.106" out="00:01:23.899">
   <property name="kdenlive:id">4</property>
  </entry>
  <entry producer="chain0" in="00:01:23.941" out="00:01:25.442">
   <property name="kdenlive:id">4</property>
  </entry>
  <entry producer="chain0" in="00:01:25.484" out="00:01:26.902">
   <property name="kdenlive:id">4</property>
  </entry>
  <entry producer="chain0" in="00:01:26.944" out="00:01:27.653">
   <property name="kdenlive:id">4</property>
  </entry>
  <entry producer="chain0" in="00:01:27.694" out="00:01:37.246">
   <property name="kdenlive:id">4</property>
  </entry>
  <entry producer="chain0" in="00:01:37.287" out="00:01:39.790">
   <property name="kdenlive:id">4</property>
  </entry>
  <entry producer="chain0" in="00:01:39.831" out="00:01:40.457">
   <property name="kdenlive:id">4</property>
  </entry>
  <entry producer="chain0" in="00:01:40.499" out="00:01:46.672">
   <property name="kdenlive:id">4</property>
  </entry>
  <entry producer="chain0" in="00:01:46.713" out="00:01:47.631">
   <property name="kdenlive:id">4</property>
  </entry>
  <entry producer="chain0" in="00:01:47.673" out="00:01:48.298">
   <property name="kdenlive:id">4</property>
  </entry>
  <entry producer="chain0" in="00:01:48.340" out="00:01:49.383">
   <property name="kdenlive:id">4</property>
  </entry>
  <entry producer="chain0" in="00:01:49.424" out="00:01:51.718">
   <property name="kdenlive:id">4</property>
  </entry>
  <entry producer="chain0" in="00:01:51.760" out="00:01:55.055">
   <property name="kdenlive:id">4</property>
  </entry>
  <entry producer="chain0" in="00:01:55.097" out="00:01:58.767">
   <property name="kdenlive:id">4</property>
  </entry>
  <entry producer="chain0" in="00:01:58.809" out="00:02:01.335">
   <property name="kdenlive:id">4</property>
  </entry>
  <entry producer="chain0" in="00:02:01.376" out="00:02:03.378">
   <property name="kdenlive:id">4</property>
  </entry>
  <entry producer="chain0" in="00:02:03.420" out="00:02:06.924">
   <property name="kdenlive:id">4</property>
  </entry>
  <entry producer="chain0" in="00:02:06.965" out="00:02:10.135">
   <property name="kdenlive:id">4</property>
  </entry>
  <entry producer="chain0" in="00:02:10.177" out="00:02:10.886">
   <property name="kdenlive:id">4</property>
  </entry>
  <entry producer="chain0" in="00:02:10.928" out="00:02:12.304">
   <property name="kdenlive:id">4</property>
  </entry>
  <entry producer="chain0" in="00:02:12.346" out="00:02:13.597">
   <property name="kdenlive:id">4</property>
  </entry>
  <entry producer="chain0" in="00:02:13.639" out="00:02:15.015">
   <property name="kdenlive:id">4</property>
  </entry>
  <entry producer="chain0" in="00:02:15.057" out="00:02:16.099">
   <property name="kdenlive:id">4</property>
  </entry>
  <entry producer="chain0" in="00:02:16.141" out="00:02:17.392">
   <property name="kdenlive:id">4</property>
  </entry>
  <entry producer="chain0" in="00:02:17.434" out="00:02:19.811">
   <property name="kdenlive:id">4</property>
  </entry>
  <entry producer="chain0" in="00:02:19.853" out="00:02:21.980">
   <property name="kdenlive:id">4</property>
  </entry>
  <entry producer="chain0" in="00:02:22.022" out="00:02:24.149">
   <property name="kdenlive:id">4</property>
  </entry>
  <entry producer="chain0" in="00:02:24.191" out="00:02:25.234">
   <property name="kdenlive:id">4</property>
  </entry>
  <entry producer="chain0" in="00:02:25.275" out="00:02:26.860">
   <property name="kdenlive:id">4</property>
  </entry>
  <entry producer="chain0" in="00:02:26.902" out="00:02:29.947">
   <property name="kdenlive:id">4</property>
  </entry>
  <entry producer="chain0" in="00:02:29.988" out="00:02:30.489">
   <property name="kdenlive:id">4</property>
  </entry>
  <entry producer="chain0" in="00:02:30.530" out="00:02:31.031">
   <property name="kdenlive:id">4</property>
  </entry>
  <entry producer="chain0" in="00:02:31.073" out="00:02:32.532">
   <property name="kdenlive:id">4</property>
  </entry>
  <entry producer="chain0" in="00:02:32.574" out="00:02:34.159">
   <property name="kdenlive:id">4</property>
  </entry>
  <entry producer="chain0" in="00:02:34.201" out="00:02:36.161">
   <property name="kdenlive:id">4</property>
  </entry>
  <entry producer="chain0" in="00:02:36.203" out="00:02:38.997">
   <property name="kdenlive:id">4</property>
  </entry>
  <entry producer="chain0" in="00:02:39.039" out="00:02:43.335">
   <property name="kdenlive:id">4</property>
  </entry>
  <entry producer="chain0" in="00:02:43.377" out="00:02:47.422">
   <property name="kdenlive:id">4</property>
  </entry>
  <entry producer="chain0" in="00:02:47.464" out="00:02:49.341">
   <property name="kdenlive:id">4</property>
  </entry>
  <entry producer="chain0" in="00:02:49.383" out="00:02:53.136">
   <property name="kdenlive:id">4</property>
  </entry>
  <entry producer="chain0" in="00:02:53.178" out="00:02:56.014">
   <property name="kdenlive:id">4</property>
  </entry>
  <entry producer="chain0" in="00:02:56.056" out="00:02:59.851">
   <property name="kdenlive:id">4</property>
  </entry>
  <entry producer="chain0" in="00:02:59.893" out="00:03:04.588">
   <property name="kdenlive:id">4</property>
  </entry>
  <entry producer="chain0" in="00:03:04.630" out="00:03:06.340">
   <property name="kdenlive:id">4</property>
  </entry>
  <entry producer="chain0" in="00:03:06.381" out="00:03:08.592">
   <property name="kdenlive:id">4</property>
  </entry>
  <entry producer="chain0" in="00:03:08.634" out="00:03:11.428">
   <property name="kdenlive:id">4</property>
  </entry>
  <entry producer="chain0" in="00:03:11.470" out="00:03:15.933">
   <property name="kdenlive:id">4</property>
  </entry>
  <entry producer="chain0" in="00:03:15.974" out="00:03:17.309">
   <property name="kdenlive:id">4</property>
  </entry>
  <entry producer="chain0" in="00:03:17.351" out="00:03:20.062">
   <property name="kdenlive:id">4</property>
  </entry>
  <entry producer="chain0" in="00:03:20.103" out="00:03:21.813">
   <property name="kdenlive:id">4</property>
  </entry>
  <entry producer="chain0" in="00:03:21.855" out="00:03:23.065">
   <property name="kdenlive:id">4</property>
  </entry>
  <entry producer="chain0" in="00:03:23.106" out="00:03:25.734">
   <property name="kdenlive:id">4</property>
  </entry>
  <entry producer="chain0" in="00:03:25.776" out="00:03:28.070">
   <property name="kdenlive:id">4</property>
  </entry>
  <entry producer="chain0" in="00:03:28.111" out="00:03:29.363">
   <property name="kdenlive:id">4</property>
  </entry>
  <entry producer="chain0" in="00:03:29.404" out="00:03:30.948">
   <property name="kdenlive:id">4</property>
  </entry>
  <entry producer="chain0" in="00:03:30.989" out="00:03:32.991">
   <property name="kdenlive:id">4</property>
  </entry>
  <entry producer="chain0" in="00:03:33.033" out="00:03:34.618">
   <property name="kdenlive:id">4</property>
  </entry>
  <entry producer="chain0" in="00:03:34.660" out="00:03:35.786">
   <property name="kdenlive:id">4</property>
  </entry>
  <entry producer="chain0" in="00:03:35.827" out="00:03:37.037">
   <property name="kdenlive:id">4</property>
  </entry>
  <entry producer="chain0" in="00:03:37.079" out="00:03:38.038">
   <property name="kdenlive:id">4</property>
  </entry>
  <entry producer="chain0" in="00:03:38.080" out="00:03:41.291">
   <property name="kdenlive:id">4</property>
  </entry>
  <entry producer="chain0" in="00:03:41.333" out="00:03:43.126">
   <property name="kdenlive:id">4</property>
  </entry>
  <entry producer="chain0" in="00:03:43.168" out="00:03:47.589">
   <property name="kdenlive:id">4</property>
  </entry>
  <entry producer="chain0" in="00:03:47.631" out="00:03:50.634">
   <property name="kdenlive:id">4</property>
  </entry>
  <entry producer="chain0" in="00:03:50.676" out="00:03:52.427">
   <property name="kdenlive:id">4</property>
  </entry>
  <entry producer="chain0" in="00:03:52.469" out="00:03:53.887">
   <property name="kdenlive:id">4</property>
  </entry>
  <entry producer="chain0" in="00:03:53.929" out="00:03:54.388">
   <property name="kdenlive:id">4</property>
  </entry>
  <entry producer="chain0" in="00:03:54.429" out="00:03:55.347">
   <property name="kdenlive:id">4</property>
  </entry>
  <entry producer="chain0" in="00:03:55.389" out="00:03:56.056">
   <property name="kdenlive:id">4</property>
  </entry>
  <entry producer="chain0" in="00:03:56.098" out="00:03:56.723">
   <property name="kdenlive:id">4</property>
  </entry>
  <entry producer="chain0" in="00:03:56.765" out="00:03:57.891">
   <property name="kdenlive:id">4</property>
  </entry>
  <entry producer="chain0" in="00:03:57.933" out="00:03:59.184">
   <property name="kdenlive:id">4</property>
  </entry>
  <entry producer="chain0" in="00:03:59.226" out="00:04:12.763">
   <property name="kdenlive:id">4</property>
  </entry>
 </playlist>
 <playlist id="playlist3">
  <property name="kdenlive:audio_track">1</property>
 </playlist>
 <tractor id="tractor1" in="00:00:00.000" out="00:04:12.763">
  <property name="kdenlive:audio_track">1</property>
  <property name="kdenlive:trackheight">67</property>
  <property name="kdenlive:timeline_active">1</property>
  <property name="kdenlive:collapsed">0</property>
  <property name="kdenlive:thumbs_format"/>
  <property name="kdenlive:audio_rec"/>
  <track hide="video" producer="playlist2"/>
  <track hide="video" producer="playlist3"/>
  <filter id="filter3">
   <property name="window">75</property>
   <property name="max_gain">20dB</property>
   <property name="mlt_service">volume</property>
   <property name="internal_added">237</property>
   <property name="disable">1</property>
  </filter>
  <filter id="filter4">
   <property name="channel">-1</property>
   <property name="mlt_service">panner</property>
   <property name="internal_added">237</property>
   <property name="start">0.5</property>
   <property name="disable">1</property>
  </filter>
  <filter id="filter5">
   <property name="iec_scale">0</property>
   <property name="mlt_service">audiolevel</property>
   <property name="dbpeak">1</property>
   <property name="disable">1</property>
  </filter>
 </tractor>
 <chain id="chain1" out="00:04:12.763">
  <property name="length">6061</property>
  <property name="eof">pause</property>
  <property name="resource">/home/fedora/Jupyter/defining-video-cuts/videos/2.mp4</property>
  <property name="mlt_service">avformat-novalidate</property>
  <property name="seekable">1</property>
  <property name="format">3</property>
  <property name="audio_index">1</property>
  <property name="video_index">0</property>
  <property name="vstream">0</property>
  <property name="astream">0</property>
  <property name="kdenlive:clipname"/>
  <property name="kdenlive:clip_type">0</property>
  <property name="kdenlive:folderid">-1</property>
  <property name="kdenlive:id">4</property>
  <property name="mute_on_pause">0</property>
  <property name="kdenlive:file_size">9107300</property>
  <property name="kdenlive:file_hash">e5bbcdc066ae3f5b3eada204b3cbf016</property>
  <property name="kdenlive:audio_max1">241</property>
  <property name="meta.media.nb_streams">2</property>
  <property name="meta.media.0.stream.type">video</property>
  <property name="meta.media.0.stream.frame_rate">23.976</property>
  <property name="meta.media.0.stream.sample_aspect_ratio">0</property>
  <property name="meta.media.0.codec.width">640</property>
  <property name="meta.media.0.codec.height">360</property>
  <property name="meta.media.0.codec.rotate">0</property>
  <property name="meta.media.0.codec.pix_fmt">yuv420p</property>
  <property name="meta.media.0.codec.sample_aspect_ratio">1</property>
  <property name="meta.media.0.codec.colorspace">709</property>
  <property name="meta.media.0.codec.color_trc">1</property>
  <property name="meta.media.0.codec.name">h264</property>
  <property name="meta.media.0.codec.long_name">H.264 / AVC / MPEG-4 AVC / MPEG-4 part 10</property>
  <property name="meta.media.0.codec.bit_rate">156603</property>
  <property name="meta.attr.0.stream.creation_time.markup">2023-11-12T11:17:49.000000Z</property>
  <property name="meta.attr.0.stream.handler_name.markup">ISO Media file produced by Google Inc. Created on: 11/12/2023.</property>
  <property name="meta.attr.0.stream.vendor_id.markup">[0][0][0][0]</property>
  <property name="meta.media.1.stream.type">audio</property>
  <property name="meta.media.1.codec.sample_fmt">fltp</property>
  <property name="meta.media.1.codec.sample_rate">44100</property>
  <property name="meta.media.1.codec.channels">2</property>
  <property name="meta.media.1.codec.name">aac</property>
  <property name="meta.media.1.codec.long_name">AAC (Advanced Audio Coding)</property>
  <property name="meta.media.1.codec.bit_rate">127999</property>
  <property name="meta.attr.1.stream.creation_time.markup">2023-11-12T11:17:49.000000Z</property>
  <property name="meta.attr.1.stream.language.markup">eng</property>
  <property name="meta.attr.1.stream.handler_name.markup">ISO Media file produced by Google Inc. Created on: 11/12/2023.</property>
  <property name="meta.attr.1.stream.vendor_id.markup">[0][0][0][0]</property>
  <property name="meta.attr.major_brand.markup">mp42</property>
  <property name="meta.attr.minor_version.markup">0</property>
  <property name="meta.attr.compatible_brands.markup">isommp42</property>
  <property name="meta.attr.creation_time.markup">2023-11-12T11:17:49.000000Z</property>
  <property name="meta.media.sample_aspect_num">1</property>
  <property name="meta.media.sample_aspect_den">1</property>
  <property name="meta.media.frame_rate_num">24000</property>
  <property name="meta.media.frame_rate_den">1001</property>
  <property name="meta.media.colorspace">709</property>
  <property name="meta.media.color_trc">1</property>
  <property name="meta.media.has_b_frames">1</property>
  <property name="meta.media.width">640</property>
  <property name="meta.media.height">360</property>
  <property name="meta.media.color_range">mpeg</property>
  <property name="xml">was here</property>
  <property name="meta.media.top_field_first">0</property>
  <property name="meta.media.progressive">1</property>
  <property name="set.test_audio">1</property>
  <property name="set.test_image">0</property>
 </chain>
 <playlist id="playlist4">
  <entry producer="chain1" in="00:00:00.000" out="00:00:00.918">
   <property name="kdenlive:id">4</property>
  </entry>
  <entry producer="chain1" in="00:00:00.959" out="00:00:02.669">
   <property name="kdenlive:id">4</property>
  </entry>
  <entry producer="chain1" in="00:00:02.711" out="00:00:03.921">
   <property name="kdenlive:id">4</property>
  </entry>
  <entry producer="chain1" in="00:00:03.962" out="00:00:04.254">
   <property name="kdenlive:id">4</property>
  </entry>
  <entry producer="chain1" in="00:00:04.296" out="00:00:05.422">
   <property name="kdenlive:id">4</property>
  </entry>
  <entry producer="chain1" in="00:00:05.464" out="00:00:05.839">
   <property name="kdenlive:id">4</property>
  </entry>
  <entry producer="chain1" in="00:00:05.881" out="00:00:07.049">
   <property name="kdenlive:id">4</property>
  </entry>
  <entry producer="chain1" in="00:00:07.090" out="00:00:07.466">
   <property name="kdenlive:id">4</property>
  </entry>
  <entry producer="chain1" in="00:00:07.507" out="00:00:07.925">
   <property name="kdenlive:id">4</property>
  </entry>
  <entry producer="chain1" in="00:00:07.966" out="00:00:08.634">
   <property name="kdenlive:id">4</property>
  </entry>
  <entry producer="chain1" in="00:00:08.675" out="00:00:09.134">
   <property name="kdenlive:id">4</property>
  </entry>
  <entry producer="chain1" in="00:00:09.176" out="00:00:10.636">
   <property name="kdenlive:id">4</property>
  </entry>
  <entry producer="chain1" in="00:00:10.677" out="00:00:11.720">
   <property name="kdenlive:id">4</property>
  </entry>
  <entry producer="chain1" in="00:00:11.762" out="00:00:12.346">
   <property name="kdenlive:id">4</property>
  </entry>
  <entry producer="chain1" in="00:00:12.387" out="00:00:13.096">
   <property name="kdenlive:id">4</property>
  </entry>
  <entry producer="chain1" in="00:00:13.138" out="00:00:13.805">
   <property name="kdenlive:id">4</property>
  </entry>
  <entry producer="chain1" in="00:00:13.847" out="00:00:14.473">
   <property name="kdenlive:id">4</property>
  </entry>
  <entry producer="chain1" in="00:00:14.514" out="00:00:15.515">
   <property name="kdenlive:id">4</property>
  </entry>
  <entry producer="chain1" in="00:00:15.557" out="00:00:16.808">
   <property name="kdenlive:id">4</property>
  </entry>
  <entry producer="chain1" in="00:00:16.850" out="00:00:17.726">
   <property name="kdenlive:id">4</property>
  </entry>
  <entry producer="chain1" in="00:00:17.768" out="00:00:19.561">
   <property name="kdenlive:id">4</property>
  </entry>
  <entry producer="chain1" in="00:00:19.603" out="00:00:20.145">
   <property name="kdenlive:id">4</property>
  </entry>
  <entry producer="chain1" in="00:00:20.187" out="00:00:20.520">
   <property name="kdenlive:id">4</property>
  </entry>
  <entry producer="chain1" in="00:00:20.562" out="00:00:21.313">
   <property name="kdenlive:id">4</property>
  </entry>
  <entry producer="chain1" in="00:00:21.355" out="00:00:22.105">
   <property name="kdenlive:id">4</property>
  </entry>
  <entry producer="chain1" in="00:00:22.147" out="00:00:22.814">
   <property name="kdenlive:id">4</property>
  </entry>
  <entry producer="chain1" in="00:00:22.856" out="00:00:23.357">
   <property name="kdenlive:id">4</property>
  </entry>
  <entry producer="chain1" in="00:00:23.398" out="00:00:24.399">
   <property name="kdenlive:id">4</property>
  </entry>
  <entry producer="chain1" in="00:00:24.441" out="00:00:25.317">
   <property name="kdenlive:id">4</property>
  </entry>
  <entry producer="chain1" in="00:00:25.359" out="00:00:27.736">
   <property name="kdenlive:id">4</property>
  </entry>
  <entry producer="chain1" in="00:00:27.778" out="00:00:28.528">
   <property name="kdenlive:id">4</property>
  </entry>
  <entry producer="chain1" in="00:00:28.570" out="00:00:29.571">
   <property name="kdenlive:id">4</property>
  </entry>
  <entry producer="chain1" in="00:00:29.613" out="00:00:32.741">
   <property name="kdenlive:id">4</property>
  </entry>
  <entry producer="chain1" in="00:00:32.783" out="00:00:33.367">
   <property name="kdenlive:id">4</property>
  </entry>
  <entry producer="chain1" in="00:00:33.408" out="00:00:33.909">
   <property name="kdenlive:id">4</property>
  </entry>
  <entry producer="chain1" in="00:00:33.951" out="00:00:35.202">
   <property name="kdenlive:id">4</property>
  </entry>
  <entry producer="chain1" in="00:00:35.244" out="00:00:35.994">
   <property name="kdenlive:id">4</property>
  </entry>
  <entry producer="chain1" in="00:00:36.036" out="00:00:37.079">
   <property name="kdenlive:id">4</property>
  </entry>
  <entry producer="chain1" in="00:00:37.120" out="00:00:38.538">
   <property name="kdenlive:id">4</property>
  </entry>
  <entry producer="chain1" in="00:00:38.580" out="00:00:40.040">
   <property name="kdenlive:id">4</property>
  </entry>
  <entry producer="chain1" in="00:00:40.082" out="00:00:41.333">
   <property name="kdenlive:id">4</property>
  </entry>
  <entry producer="chain1" in="00:00:41.375" out="00:00:41.959">
   <property name="kdenlive:id">4</property>
  </entry>
  <entry producer="chain1" in="00:00:42.000" out="00:00:44.836">
   <property name="kdenlive:id">4</property>
  </entry>
  <entry producer="chain1" in="00:00:44.878" out="00:00:45.754">
   <property name="kdenlive:id">4</property>
  </entry>
  <entry producer="chain1" in="00:00:45.796" out="00:00:46.588">
   <property name="kdenlive:id">4</property>
  </entry>
  <entry producer="chain1" in="00:00:46.630" out="00:00:47.798">
   <property name="kdenlive:id">4</property>
  </entry>
  <entry producer="chain1" in="00:00:47.839" out="00:00:48.465">
   <property name="kdenlive:id">4</property>
  </entry>
  <entry producer="chain1" in="00:00:48.507" out="00:00:49.716">
   <property name="kdenlive:id">4</property>
  </entry>
  <entry producer="chain1" in="00:00:49.758" out="00:00:51.760">
   <property name="kdenlive:id">4</property>
  </entry>
  <entry producer="chain1" in="00:00:51.802" out="00:00:53.887">
   <property name="kdenlive:id">4</property>
  </entry>
  <entry producer="chain1" in="00:00:53.929" out="00:00:55.305">
   <property name="kdenlive:id">4</property>
  </entry>
  <entry producer="chain1" in="00:00:55.347" out="00:00:57.057">
   <property name="kdenlive:id">4</property>
  </entry>
  <entry producer="chain1" in="00:00:57.099" out="00:00:57.808">
   <property name="kdenlive:id">4</property>
  </entry>
  <entry producer="chain1" in="00:00:57.849" out="00:00:58.517">
   <property name="kdenlive:id">4</property>
  </entry>
  <entry producer="chain1" in="00:00:58.558" out="00:00:59.518">
   <property name="kdenlive:id">4</property>
  </entry>
  <entry producer="chain1" in="00:00:59.559" out="00:01:00.709">
   <property name="kdenlive:id">4</property>
  </entry>
  <entry producer="chain1" in="00:01:00.751" out="00:01:01.877">
   <property name="kdenlive:id">4</property>
  </entry>
  <entry producer="chain1" in="00:01:01.919" out="00:01:02.419">
   <property name="kdenlive:id">4</property>
  </entry>
  <entry producer="chain1" in="00:01:02.461" out="00:01:03.337">
   <property name="kdenlive:id">4</property>
  </entry>
  <entry producer="chain1" in="00:01:03.378" out="00:01:04.463">
   <property name="kdenlive:id">4</property>
  </entry>
  <entry producer="chain1" in="00:01:04.504" out="00:01:05.464">
   <property name="kdenlive:id">4</property>
  </entry>
  <entry producer="chain1" in="00:01:05.505" out="00:01:07.758">
   <property name="kdenlive:id">4</property>
  </entry>
  <entry producer="chain1" in="00:01:07.799" out="00:01:08.175">
   <property name="kdenlive:id">4</property>
  </entry>
  <entry producer="chain1" in="00:01:08.217" out="00:01:08.383">
   <property name="kdenlive:id">4</property>
  </entry>
  <entry producer="chain1" in="00:01:08.425" out="00:01:08.634">
   <property name="kdenlive:id">4</property>
  </entry>
  <entry producer="chain1" in="00:01:08.675" out="00:01:10.219">
   <property name="kdenlive:id">4</property>
  </entry>
  <entry producer="chain1" in="00:01:10.260" out="00:01:10.802">
   <property name="kdenlive:id">4</property>
  </entry>
  <entry producer="chain1" in="00:01:10.844" out="00:01:13.430">
   <property name="kdenlive:id">4</property>
  </entry>
  <entry producer="chain1" in="00:01:13.472" out="00:01:15.015">
   <property name="kdenlive:id">4</property>
  </entry>
  <entry producer="chain1" in="00:01:15.057" out="00:01:15.974">
   <property name="kdenlive:id">4</property>
  </entry>
  <entry producer="chain1" in="00:01:16.016" out="00:01:17.226">
   <property name="kdenlive:id">4</property>
  </entry>
  <entry producer="chain1" in="00:01:17.267" out="00:01:18.936">
   <property name="kdenlive:id">4</property>
  </entry>
  <entry producer="chain1" in="00:01:18.977" out="00:01:19.436">
   <property name="kdenlive:id">4</property>
  </entry>
  <entry producer="chain1" in="00:01:19.478" out="00:01:20.395">
   <property name="kdenlive:id">4</property>
  </entry>
  <entry producer="chain1" in="00:01:20.437" out="00:01:21.021">
   <property name="kdenlive:id">4</property>
  </entry>
  <entry producer="chain1" in="00:01:21.063" out="00:01:21.730">
   <property name="kdenlive:id">4</property>
  </entry>
  <entry producer="chain1" in="00:01:21.772" out="00:01:23.065">
   <property name="kdenlive:id">4</property>
  </entry>
  <entry producer="chain1" in="00:01:23.106" out="00:01:23.899">
   <property name="kdenlive:id">4</property>
  </entry>
  <entry producer="chain1" in="00:01:23.941" out="00:01:25.442">
   <property name="kdenlive:id">4</property>
  </entry>
  <entry producer="chain1" in="00:01:25.484" out="00:01:26.902">
   <property name="kdenlive:id">4</property>
  </entry>
  <entry producer="chain1" in="00:01:26.944" out="00:01:27.653">
   <property name="kdenlive:id">4</property>
  </entry>
  <entry producer="chain1" in="00:01:27.694" out="00:01:37.246">
   <property name="kdenlive:id">4</property>
  </entry>
  <entry producer="chain1" in="00:01:37.287" out="00:01:39.790">
   <property name="kdenlive:id">4</property>
  </entry>
  <entry producer="chain1" in="00:01:39.831" out="00:01:40.457">
   <property name="kdenlive:id">4</property>
  </entry>
  <entry producer="chain1" in="00:01:40.499" out="00:01:46.672">
   <property name="kdenlive:id">4</property>
  </entry>
  <entry producer="chain1" in="00:01:46.713" out="00:01:47.631">
   <property name="kdenlive:id">4</property>
  </entry>
  <entry producer="chain1" in="00:01:47.673" out="00:01:48.298">
   <property name="kdenlive:id">4</property>
  </entry>
  <entry producer="chain1" in="00:01:48.340" out="00:01:49.383">
   <property name="kdenlive:id">4</property>
  </entry>
  <entry producer="chain1" in="00:01:49.424" out="00:01:51.718">
   <property name="kdenlive:id">4</property>
  </entry>
  <entry producer="chain1" in="00:01:51.760" out="00:01:55.055">
   <property name="kdenlive:id">4</property>
  </entry>
  <entry producer="chain1" in="00:01:55.097" out="00:01:58.767">
   <property name="kdenlive:id">4</property>
  </entry>
  <entry producer="chain1" in="00:01:58.809" out="00:02:01.335">
   <property name="kdenlive:id">4</property>
  </entry>
  <entry producer="chain1" in="00:02:01.376" out="00:02:03.378">
   <property name="kdenlive:id">4</property>
  </entry>
  <entry producer="chain1" in="00:02:03.420" out="00:02:06.924">
   <property name="kdenlive:id">4</property>
  </entry>
  <entry producer="chain1" in="00:02:06.965" out="00:02:10.135">
   <property name="kdenlive:id">4</property>
  </entry>
  <entry producer="chain1" in="00:02:10.177" out="00:02:10.886">
   <property name="kdenlive:id">4</property>
  </entry>
  <entry producer="chain1" in="00:02:10.928" out="00:02:12.304">
   <property name="kdenlive:id">4</property>
  </entry>
  <entry producer="chain1" in="00:02:12.346" out="00:02:13.597">
   <property name="kdenlive:id">4</property>
  </entry>
  <entry producer="chain1" in="00:02:13.639" out="00:02:15.015">
   <property name="kdenlive:id">4</property>
  </entry>
  <entry producer="chain1" in="00:02:15.057" out="00:02:16.099">
   <property name="kdenlive:id">4</property>
  </entry>
  <entry producer="chain1" in="00:02:16.141" out="00:02:17.392">
   <property name="kdenlive:id">4</property>
  </entry>
  <entry producer="chain1" in="00:02:17.434" out="00:02:19.811">
   <property name="kdenlive:id">4</property>
  </entry>
  <entry producer="chain1" in="00:02:19.853" out="00:02:21.980">
   <property name="kdenlive:id">4</property>
  </entry>
  <entry producer="chain1" in="00:02:22.022" out="00:02:24.149">
   <property name="kdenlive:id">4</property>
  </entry>
  <entry producer="chain1" in="00:02:24.191" out="00:02:25.234">
   <property name="kdenlive:id">4</property>
  </entry>
  <entry producer="chain1" in="00:02:25.275" out="00:02:26.860">
   <property name="kdenlive:id">4</property>
  </entry>
  <entry producer="chain1" in="00:02:26.902" out="00:02:29.947">
   <property name="kdenlive:id">4</property>
  </entry>
  <entry producer="chain1" in="00:02:29.988" out="00:02:30.489">
   <property name="kdenlive:id">4</property>
  </entry>
  <entry producer="chain1" in="00:02:30.530" out="00:02:31.031">
   <property name="kdenlive:id">4</property>
  </entry>
  <entry producer="chain1" in="00:02:31.073" out="00:02:32.532">
   <property name="kdenlive:id">4</property>
  </entry>
  <entry producer="chain1" in="00:02:32.574" out="00:02:34.159">
   <property name="kdenlive:id">4</property>
  </entry>
  <entry producer="chain1" in="00:02:34.201" out="00:02:36.161">
   <property name="kdenlive:id">4</property>
  </entry>
  <entry producer="chain1" in="00:02:36.203" out="00:02:38.997">
   <property name="kdenlive:id">4</property>
  </entry>
  <entry producer="chain1" in="00:02:39.039" out="00:02:43.335">
   <property name="kdenlive:id">4</property>
  </entry>
  <entry producer="chain1" in="00:02:43.377" out="00:02:47.422">
   <property name="kdenlive:id">4</property>
  </entry>
  <entry producer="chain1" in="00:02:47.464" out="00:02:49.341">
   <property name="kdenlive:id">4</property>
  </entry>
  <entry producer="chain1" in="00:02:49.383" out="00:02:53.136">
   <property name="kdenlive:id">4</property>
  </entry>
  <entry producer="chain1" in="00:02:53.178" out="00:02:56.014">
   <property name="kdenlive:id">4</property>
  </entry>
  <entry producer="chain1" in="00:02:56.056" out="00:02:59.851">
   <property name="kdenlive:id">4</property>
  </entry>
  <entry producer="chain1" in="00:02:59.893" out="00:03:04.588">
   <property name="kdenlive:id">4</property>
  </entry>
  <entry producer="chain1" in="00:03:04.630" out="00:03:06.340">
   <property name="kdenlive:id">4</property>
  </entry>
  <entry producer="chain1" in="00:03:06.381" out="00:03:08.592">
   <property name="kdenlive:id">4</property>
  </entry>
  <entry producer="chain1" in="00:03:08.634" out="00:03:11.428">
   <property name="kdenlive:id">4</property>
  </entry>
  <entry producer="chain1" in="00:03:11.470" out="00:03:15.933">
   <property name="kdenlive:id">4</property>
  </entry>
  <entry producer="chain1" in="00:03:15.974" out="00:03:17.309">
   <property name="kdenlive:id">4</property>
  </entry>
  <entry producer="chain1" in="00:03:17.351" out="00:03:20.062">
   <property name="kdenlive:id">4</property>
  </entry>
  <entry producer="chain1" in="00:03:20.103" out="00:03:21.813">
   <property name="kdenlive:id">4</property>
  </entry>
  <entry producer="chain1" in="00:03:21.855" out="00:03:23.065">
   <property name="kdenlive:id">4</property>
  </entry>
  <entry producer="chain1" in="00:03:23.106" out="00:03:25.734">
   <property name="kdenlive:id">4</property>
  </entry>
  <entry producer="chain1" in="00:03:25.776" out="00:03:28.070">
   <property name="kdenlive:id">4</property>
  </entry>
  <entry producer="chain1" in="00:03:28.111" out="00:03:29.363">
   <property name="kdenlive:id">4</property>
  </entry>
  <entry producer="chain1" in="00:03:29.404" out="00:03:30.948">
   <property name="kdenlive:id">4</property>
  </entry>
  <entry producer="chain1" in="00:03:30.989" out="00:03:32.991">
   <property name="kdenlive:id">4</property>
  </entry>
  <entry producer="chain1" in="00:03:33.033" out="00:03:34.618">
   <property name="kdenlive:id">4</property>
  </entry>
  <entry producer="chain1" in="00:03:34.660" out="00:03:35.786">
   <property name="kdenlive:id">4</property>
  </entry>
  <entry producer="chain1" in="00:03:35.827" out="00:03:37.037">
   <property name="kdenlive:id">4</property>
  </entry>
  <entry producer="chain1" in="00:03:37.079" out="00:03:38.038">
   <property name="kdenlive:id">4</property>
  </entry>
  <entry producer="chain1" in="00:03:38.080" out="00:03:41.291">
   <property name="kdenlive:id">4</property>
  </entry>
  <entry producer="chain1" in="00:03:41.333" out="00:03:43.126">
   <property name="kdenlive:id">4</property>
  </entry>
  <entry producer="chain1" in="00:03:43.168" out="00:03:47.589">
   <property name="kdenlive:id">4</property>
  </entry>
  <entry producer="chain1" in="00:03:47.631" out="00:03:50.634">
   <property name="kdenlive:id">4</property>
  </entry>
  <entry producer="chain1" in="00:03:50.676" out="00:03:52.427">
   <property name="kdenlive:id">4</property>
  </entry>
  <entry producer="chain1" in="00:03:52.469" out="00:03:53.887">
   <property name="kdenlive:id">4</property>
  </entry>
  <entry producer="chain1" in="00:03:53.929" out="00:03:54.388">
   <property name="kdenlive:id">4</property>
  </entry>
  <entry producer="chain1" in="00:03:54.429" out="00:03:55.347">
   <property name="kdenlive:id">4</property>
  </entry>
  <entry producer="chain1" in="00:03:55.389" out="00:03:56.056">
   <property name="kdenlive:id">4</property>
  </entry>
  <entry producer="chain1" in="00:03:56.098" out="00:03:56.723">
   <property name="kdenlive:id">4</property>
  </entry>
  <entry producer="chain1" in="00:03:56.765" out="00:03:57.891">
   <property name="kdenlive:id">4</property>
  </entry>
  <entry producer="chain1" in="00:03:57.933" out="00:03:59.184">
   <property name="kdenlive:id">4</property>
  </entry>
  <entry producer="chain1" in="00:03:59.226" out="00:04:12.763">
   <property name="kdenlive:id">4</property>
  </entry>
 </playlist>
 <playlist id="playlist5"/>
 <tractor id="tractor2" in="00:00:00.000" out="00:04:12.763">
  <property name="kdenlive:trackheight">67</property>
  <property name="kdenlive:timeline_active">1</property>
  <property name="kdenlive:collapsed">0</property>
  <property name="kdenlive:thumbs_format"/>
  <property name="kdenlive:audio_rec"/>
  <track hide="audio" producer="playlist4"/>
  <track hide="audio" producer="playlist5"/>
 </tractor>
 <playlist id="playlist6"/>
 <playlist id="playlist7"/>
 <tractor id="tractor3" in="00:00:00.000">
  <property name="kdenlive:trackheight">67</property>
  <property name="kdenlive:timeline_active">1</property>
  <property name="kdenlive:collapsed">0</property>
  <property name="kdenlive:thumbs_format"/>
  <property name="kdenlive:audio_rec"/>
  <track hide="audio" producer="playlist6"/>
  <track hide="audio" producer="playlist7"/>
 </tractor>
 <tractor id="{edbdfa82-e5eb-4d45-bd7b-946694fab89d}" in="00:00:00.000" out="00:25:04.046">
  <property name="kdenlive:uuid">{edbdfa82-e5eb-4d45-bd7b-946694fab89d}</property>
  <property name="kdenlive:clipname">Sequence 1</property>
  <property name="kdenlive:sequenceproperties.hasAudio">1</property>
  <property name="kdenlive:sequenceproperties.hasVideo">1</property>
  <property name="kdenlive:sequenceproperties.activeTrack">1</property>
  <property name="kdenlive:sequenceproperties.tracksCount">4</property>
  <property name="kdenlive:sequenceproperties.documentuuid">{edbdfa82-e5eb-4d45-bd7b-946694fab89d}</property>
  <property name="kdenlive:duration">00:04:12:19</property>
  <property name="kdenlive:maxduration">6061</property>
  <property name="kdenlive:producer_type">17</property>
  <property name="kdenlive:id">3</property>
  <property name="kdenlive:clip_type">0</property>
  <property name="kdenlive:file_hash">86c792875e19fe82d5e70ec3476ad4c4</property>
  <property name="kdenlive:folderid">2</property>
  <property name="kdenlive:sequenceproperties.audioTarget">1</property>
  <property name="kdenlive:sequenceproperties.tracks">4</property>
  <property name="kdenlive:sequenceproperties.verticalzoom">1</property>
  <property name="kdenlive:sequenceproperties.videoTarget">2</property>
  <property name="kdenlive:sequenceproperties.zonein">0</property>
  <property name="kdenlive:sequenceproperties.zoneout">75</property>
  <property name="kdenlive:sequenceproperties.zoom">0</property>
  <property name="kdenlive:sequenceproperties.groups">[
    {
        "children": [
            {
                "data": "1:4698",
                "leaf": "clip",
                "type": "Leaf"
            },
            {
                "data": "2:4698",
                "leaf": "clip",
                "type": "Leaf"
            }
        ],
        "type": "AVSplit"
    },
    {
        "children": [
            {
                "data": "2:4590",
                "leaf": "clip",
                "type": "Leaf"
            },
            {
                "data": "1:4590",
                "leaf": "clip",
                "type": "Leaf"
            }
        ],
        "type": "AVSplit"
    },
    {
        "children": [
            {
                "data": "1:4522",
                "leaf": "clip",
                "type": "Leaf"
            },
            {
                "data": "2:4522",
                "leaf": "clip",
                "type": "Leaf"
            }
        ],
        "type": "AVSplit"
    },
    {
        "children": [
            {
                "data": "2:4468",
                "leaf": "clip",
                "type": "Leaf"
            },
            {
                "data": "1:4468",
                "leaf": "clip",
                "type": "Leaf"
            }
        ],
        "type": "AVSplit"
    },
    {
        "children": [
            {
                "data": "1:4426",
                "leaf": "clip",
                "type": "Leaf"
            },
            {
                "data": "2:4426",
                "leaf": "clip",
                "type": "Leaf"
            }
        ],
        "type": "AVSplit"
    },
    {
        "children": [
            {
                "data": "2:4313",
                "leaf": "clip",
                "type": "Leaf"
            },
            {
                "data": "1:4313",
                "leaf": "clip",
                "type": "Leaf"
            }
        ],
        "type": "AVSplit"
    },
    {
        "children": [
            {
                "data": "1:4221",
                "leaf": "clip",
                "type": "Leaf"
            },
            {
                "data": "2:4221",
                "leaf": "clip",
                "type": "Leaf"
            }
        ],
        "type": "AVSplit"
    },
    {
        "children": [
            {
                "data": "2:4152",
                "leaf": "clip",
                "type": "Leaf"
            },
            {
                "data": "1:4152",
                "leaf": "clip",
                "type": "Leaf"
            }
        ],
        "type": "AVSplit"
    },
    {
        "children": [
            {
                "data": "1:4061",
                "leaf": "clip",
                "type": "Leaf"
            },
            {
                "data": "2:4061",
                "leaf": "clip",
                "type": "Leaf"
            }
        ],
        "type": "AVSplit"
    },
    {
        "children": [
            {
                "data": "2:4015",
                "leaf": "clip",
                "type": "Leaf"
            },
            {
                "data": "1:4015",
                "leaf": "clip",
                "type": "Leaf"
            }
        ],
        "type": "AVSplit"
    },
    {
        "children": [
            {
                "data": "1:3917",
                "leaf": "clip",
                "type": "Leaf"
            },
            {
                "data": "2:3917",
                "leaf": "clip",
                "type": "Leaf"
            }
        ],
        "type": "AVSplit"
    },
    {
        "children": [
            {
                "data": "2:3813",
                "leaf": "clip",
                "type": "Leaf"
            },
            {
                "data": "1:3813",
                "leaf": "clip",
                "type": "Leaf"
            }
        ],
        "type": "AVSplit"
    },
    {
        "children": [
            {
                "data": "1:3745",
                "leaf": "clip",
                "type": "Leaf"
            },
            {
                "data": "2:3745",
                "leaf": "clip",
                "type": "Leaf"
            }
        ],
        "type": "AVSplit"
    },
    {
        "children": [
            {
                "data": "2:3697",
                "leaf": "clip",
                "type": "Leaf"
            },
            {
                "data": "1:3697",
                "leaf": "clip",
                "type": "Leaf"
            }
        ],
        "type": "AVSplit"
    },
    {
        "children": [
            {
                "data": "1:3658",
                "leaf": "clip",
                "type": "Leaf"
            },
            {
                "data": "2:3658",
                "leaf": "clip",
                "type": "Leaf"
            }
        ],
        "type": "AVSplit"
    },
    {
        "children": [
            {
                "data": "2:3622",
                "leaf": "clip",
                "type": "Leaf"
            },
            {
                "data": "1:3622",
                "leaf": "clip",
                "type": "Leaf"
            }
        ],
        "type": "AVSplit"
    },
    {
        "children": [
            {
                "data": "1:3609",
                "leaf": "clip",
                "type": "Leaf"
            },
            {
                "data": "2:3609",
                "leaf": "clip",
                "type": "Leaf"
            }
        ],
        "type": "AVSplit"
    },
    {
        "children": [
            {
                "data": "2:3596",
                "leaf": "clip",
                "type": "Leaf"
            },
            {
                "data": "1:3596",
                "leaf": "clip",
                "type": "Leaf"
            }
        ],
        "type": "AVSplit"
    },
    {
        "children": [
            {
                "data": "1:3522",
                "leaf": "clip",
                "type": "Leaf"
            },
            {
                "data": "2:3522",
                "leaf": "clip",
                "type": "Leaf"
            }
        ],
        "type": "AVSplit"
    },
    {
        "children": [
            {
                "data": "2:3483",
                "leaf": "clip",
                "type": "Leaf"
            },
            {
                "data": "1:3483",
                "leaf": "clip",
                "type": "Leaf"
            }
        ],
        "type": "AVSplit"
    },
    {
        "children": [
            {
                "data": "1:3457",
                "leaf": "clip",
                "type": "Leaf"
            },
            {
                "data": "2:3457",
                "leaf": "clip",
                "type": "Leaf"
            }
        ],
        "type": "AVSplit"
    },
    {
        "children": [
            {
                "data": "2:3405",
                "leaf": "clip",
                "type": "Leaf"
            },
            {
                "data": "1:3405",
                "leaf": "clip",
                "type": "Leaf"
            }
        ],
        "type": "AVSplit"
    },
    {
        "children": [
            {
                "data": "1:3353",
                "leaf": "clip",
                "type": "Leaf"
            },
            {
                "data": "2:3353",
                "leaf": "clip",
                "type": "Leaf"
            }
        ],
        "type": "AVSplit"
    },
    {
        "children": [
            {
                "data": "2:131",
                "leaf": "clip",
                "type": "Leaf"
            },
            {
                "data": "1:131",
                "leaf": "clip",
                "type": "Leaf"
            }
        ],
        "type": "AVSplit"
    },
    {
        "children": [
            {
                "data": "2:5020",
                "leaf": "clip",
                "type": "Leaf"
            },
            {
                "data": "1:5020",
                "leaf": "clip",
                "type": "Leaf"
            }
        ],
        "type": "AVSplit"
    },
    {
        "children": [
            {
                "data": "1:141",
                "leaf": "clip",
                "type": "Leaf"
            },
            {
                "data": "2:141",
                "leaf": "clip",
                "type": "Leaf"
            }
        ],
        "type": "AVSplit"
    },
    {
        "children": [
            {
                "data": "1:5058",
                "leaf": "clip",
                "type": "Leaf"
            },
            {
                "data": "2:5058",
                "leaf": "clip",
                "type": "Leaf"
            }
        ],
        "type": "AVSplit"
    },
    {
        "children": [
            {
                "data": "2:170",
                "leaf": "clip",
                "type": "Leaf"
            },
            {
                "data": "1:170",
                "leaf": "clip",
                "type": "Leaf"
            }
        ],
        "type": "AVSplit"
    },
    {
        "children": [
            {
                "data": "2:5107",
                "leaf": "clip",
                "type": "Leaf"
            },
            {
                "data": "1:5107",
                "leaf": "clip",
                "type": "Leaf"
            }
        ],
        "type": "AVSplit"
    },
    {
        "children": [
            {
                "data": "1:180",
                "leaf": "clip",
                "type": "Leaf"
            },
            {
                "data": "2:180",
                "leaf": "clip",
                "type": "Leaf"
            }
        ],
        "type": "AVSplit"
    },
    {
        "children": [
            {
                "data": "1:5146",
                "leaf": "clip",
                "type": "Leaf"
            },
            {
                "data": "2:5146",
                "leaf": "clip",
                "type": "Leaf"
            }
        ],
        "type": "AVSplit"
    },
    {
        "children": [
            {
                "data": "2:685",
                "leaf": "clip",
                "type": "Leaf"
            },
            {
                "data": "1:685",
                "leaf": "clip",
                "type": "Leaf"
            }
        ],
        "type": "AVSplit"
    },
    {
        "children": [
            {
                "data": "1:710",
                "leaf": "clip",
                "type": "Leaf"
            },
            {
                "data": "2:710",
                "leaf": "clip",
                "type": "Leaf"
            }
        ],
        "type": "AVSplit"
    },
    {
        "children": [
            {
                "data": "2:786",
                "leaf": "clip",
                "type": "Leaf"
            },
            {
                "data": "1:786",
                "leaf": "clip",
                "type": "Leaf"
            }
        ],
        "type": "AVSplit"
    },
    {
        "children": [
            {
                "data": "1:801",
                "leaf": "clip",
                "type": "Leaf"
            },
            {
                "data": "2:801",
                "leaf": "clip",
                "type": "Leaf"
            }
        ],
        "type": "AVSplit"
    },
    {
        "children": [
            {
                "data": "2:814",
                "leaf": "clip",
                "type": "Leaf"
            },
            {
                "data": "1:814",
                "leaf": "clip",
                "type": "Leaf"
            }
        ],
        "type": "AVSplit"
    },
    {
        "children": [
            {
                "data": "1:845",
                "leaf": "clip",
                "type": "Leaf"
            },
            {
                "data": "2:845",
                "leaf": "clip",
                "type": "Leaf"
            }
        ],
        "type": "AVSplit"
    },
    {
        "children": [
            {
                "data": "2:864",
                "leaf": "clip",
                "type": "Leaf"
            },
            {
                "data": "1:864",
                "leaf": "clip",
                "type": "Leaf"
            }
        ],
        "type": "AVSplit"
    },
    {
        "children": [
            {
                "data": "1:890",
                "leaf": "clip",
                "type": "Leaf"
            },
            {
                "data": "2:890",
                "leaf": "clip",
                "type": "Leaf"
            }
        ],
        "type": "AVSplit"
    },
    {
        "children": [
            {
                "data": "2:925",
                "leaf": "clip",
                "type": "Leaf"
            },
            {
                "data": "1:925",
                "leaf": "clip",
                "type": "Leaf"
            }
        ],
        "type": "AVSplit"
    },
    {
        "children": [
            {
                "data": "1:961",
                "leaf": "clip",
                "type": "Leaf"
            },
            {
                "data": "2:961",
                "leaf": "clip",
                "type": "Leaf"
            }
        ],
        "type": "AVSplit"
    },
    {
        "children": [
            {
                "data": "2:992",
                "leaf": "clip",
                "type": "Leaf"
            },
            {
                "data": "1:992",
                "leaf": "clip",
                "type": "Leaf"
            }
        ],
        "type": "AVSplit"
    },
    {
        "children": [
            {
                "data": "1:1007",
                "leaf": "clip",
                "type": "Leaf"
            },
            {
                "data": "2:1007",
                "leaf": "clip",
                "type": "Leaf"
            }
        ],
        "type": "AVSplit"
    },
    {
        "children": [
            {
                "data": "2:1076",
                "leaf": "clip",
                "type": "Leaf"
            },
            {
                "data": "1:1076",
                "leaf": "clip",
                "type": "Leaf"
            }
        ],
        "type": "AVSplit"
    },
    {
        "children": [
            {
                "data": "1:1098",
                "leaf": "clip",
                "type": "Leaf"
            },
            {
                "data": "2:1098",
                "leaf": "clip",
                "type": "Leaf"
            }
        ],
        "type": "AVSplit"
    },
    {
        "children": [
            {
                "data": "2:1118",
                "leaf": "clip",
                "type": "Leaf"
            },
            {
                "data": "1:1118",
                "leaf": "clip",
                "type": "Leaf"
            }
        ],
        "type": "AVSplit"
    },
    {
        "children": [
            {
                "data": "1:1147",
                "leaf": "clip",
                "type": "Leaf"
            },
            {
                "data": "2:1147",
                "leaf": "clip",
                "type": "Leaf"
            }
        ],
        "type": "AVSplit"
    },
    {
        "children": [
            {
                "data": "2:1163",
                "leaf": "clip",
                "type": "Leaf"
            },
            {
                "data": "1:1163",
                "leaf": "clip",
                "type": "Leaf"
            }
        ],
        "type": "AVSplit"
    },
    {
        "children": [
            {
                "data": "1:1193",
                "leaf": "clip",
                "type": "Leaf"
            },
            {
                "data": "2:1193",
                "leaf": "clip",
                "type": "Leaf"
            }
        ],
        "type": "AVSplit"
    },
    {
        "children": [
            {
                "data": "2:1242",
                "leaf": "clip",
                "type": "Leaf"
            },
            {
                "data": "1:1242",
                "leaf": "clip",
                "type": "Leaf"
            }
        ],
        "type": "AVSplit"
    },
    {
        "children": [
            {
                "data": "1:1293",
                "leaf": "clip",
                "type": "Leaf"
            },
            {
                "data": "2:1293",
                "leaf": "clip",
                "type": "Leaf"
            }
        ],
        "type": "AVSplit"
    },
    {
        "children": [
            {
                "data": "1:5204",
                "leaf": "clip",
                "type": "Leaf"
            },
            {
                "data": "2:5204",
                "leaf": "clip",
                "type": "Leaf"
            }
        ],
        "type": "AVSplit"
    },
    {
        "children": [
            {
                "data": "1:208",
                "leaf": "clip",
                "type": "Leaf"
            },
            {
                "data": "2:208",
                "leaf": "clip",
                "type": "Leaf"
            }
        ],
        "type": "AVSplit"
    },
    {
        "children": [
            {
                "data": "2:5228",
                "leaf": "clip",
                "type": "Leaf"
            },
            {
                "data": "1:5228",
                "leaf": "clip",
                "type": "Leaf"
            }
        ],
        "type": "AVSplit"
    },
    {
        "children": [
            {
                "data": "2:220",
                "leaf": "clip",
                "type": "Leaf"
            },
            {
                "data": "1:220",
                "leaf": "clip",
                "type": "Leaf"
            }
        ],
        "type": "AVSplit"
    },
    {
        "children": [
            {
                "data": "1:5306",
                "leaf": "clip",
                "type": "Leaf"
            },
            {
                "data": "2:5306",
                "leaf": "clip",
                "type": "Leaf"
            }
        ],
        "type": "AVSplit"
    },
    {
        "children": [
            {
                "data": "1:256",
                "leaf": "clip",
                "type": "Leaf"
            },
            {
                "data": "2:256",
                "leaf": "clip",
                "type": "Leaf"
            }
        ],
        "type": "AVSplit"
    },
    {
        "children": [
            {
                "data": "2:1327",
                "leaf": "clip",
                "type": "Leaf"
            },
            {
                "data": "1:1327",
                "leaf": "clip",
                "type": "Leaf"
            }
        ],
        "type": "AVSplit"
    },
    {
        "children": [
            {
                "data": "2:5350",
                "leaf": "clip",
                "type": "Leaf"
            },
            {
                "data": "1:5350",
                "leaf": "clip",
                "type": "Leaf"
            }
        ],
        "type": "AVSplit"
    },
    {
        "children": [
            {
                "data": "2:282",
                "leaf": "clip",
                "type": "Leaf"
            },
            {
                "data": "1:282",
                "leaf": "clip",
                "type": "Leaf"
            }
        ],
        "type": "AVSplit"
    },
    {
        "children": [
            {
                "data": "1:1369",
                "leaf": "clip",
                "type": "Leaf"
            },
            {
                "data": "2:1369",
                "leaf": "clip",
                "type": "Leaf"
            }
        ],
        "type": "AVSplit"
    },
    {
        "children": [
            {
                "data": "1:5457",
                "leaf": "clip",
                "type": "Leaf"
            },
            {
                "data": "2:5457",
                "leaf": "clip",
                "type": "Leaf"
            }
        ],
        "type": "AVSplit"
    },
    {
        "children": [
            {
                "data": "1:297",
                "leaf": "clip",
                "type": "Leaf"
            },
            {
                "data": "2:297",
                "leaf": "clip",
                "type": "Leaf"
            }
        ],
        "type": "AVSplit"
    },
    {
        "children": [
            {
                "data": "2:1387",
                "leaf": "clip",
                "type": "Leaf"
            },
            {
                "data": "1:1387",
                "leaf": "clip",
                "type": "Leaf"
            }
        ],
        "type": "AVSplit"
    },
    {
        "children": [
            {
                "data": "2:5530",
                "leaf": "clip",
                "type": "Leaf"
            },
            {
                "data": "1:5530",
                "leaf": "clip",
                "type": "Leaf"
            }
        ],
        "type": "AVSplit"
    },
    {
        "children": [
            {
                "data": "2:315",
                "leaf": "clip",
                "type": "Leaf"
            },
            {
                "data": "1:315",
                "leaf": "clip",
                "type": "Leaf"
            }
        ],
        "type": "AVSplit"
    },
    {
        "children": [
            {
                "data": "1:1404",
                "leaf": "clip",
                "type": "Leaf"
            },
            {
                "data": "2:1404",
                "leaf": "clip",
                "type": "Leaf"
            }
        ],
        "type": "AVSplit"
    },
    {
        "children": [
            {
                "data": "1:5573",
                "leaf": "clip",
                "type": "Leaf"
            },
            {
                "data": "2:5573",
                "leaf": "clip",
                "type": "Leaf"
            }
        ],
        "type": "AVSplit"
    },
    {
        "children": [
            {
                "data": "1:332",
                "leaf": "clip",
                "type": "Leaf"
            },
            {
                "data": "2:332",
                "leaf": "clip",
                "type": "Leaf"
            }
        ],
        "type": "AVSplit"
    },
    {
        "children": [
            {
                "data": "2:1428",
                "leaf": "clip",
                "type": "Leaf"
            },
            {
                "data": "1:1428",
                "leaf": "clip",
                "type": "Leaf"
            }
        ],
        "type": "AVSplit"
    },
    {
        "children": [
            {
                "data": "2:5608",
                "leaf": "clip",
                "type": "Leaf"
            },
            {
                "data": "1:5608",
                "leaf": "clip",
                "type": "Leaf"
            }
        ],
        "type": "AVSplit"
    },
    {
        "children": [
            {
                "data": "2:348",
                "leaf": "clip",
                "type": "Leaf"
            },
            {
                "data": "1:348",
                "leaf": "clip",
                "type": "Leaf"
            }
        ],
        "type": "AVSplit"
    },
    {
        "children": [
            {
                "data": "1:1456",
                "leaf": "clip",
                "type": "Leaf"
            },
            {
                "data": "2:1456",
                "leaf": "clip",
                "type": "Leaf"
            }
        ],
        "type": "AVSplit"
    },
    {
        "children": [
            {
                "data": "1:5620",
                "leaf": "clip",
                "type": "Leaf"
            },
            {
                "data": "2:5620",
                "leaf": "clip",
                "type": "Leaf"
            }
        ],
        "type": "AVSplit"
    },
    {
        "children": [
            {
                "data": "1:373",
                "leaf": "clip",
                "type": "Leaf"
            },
            {
                "data": "2:373",
                "leaf": "clip",
                "type": "Leaf"
            }
        ],
        "type": "AVSplit"
    },
    {
        "children": [
            {
                "data": "2:5643",
                "leaf": "clip",
                "type": "Leaf"
            },
            {
                "data": "1:5643",
                "leaf": "clip",
                "type": "Leaf"
            }
        ],
        "type": "AVSplit"
    },
    {
        "children": [
            {
                "data": "2:404",
                "leaf": "clip",
                "type": "Leaf"
            },
            {
                "data": "1:404",
                "leaf": "clip",
                "type": "Leaf"
            }
        ],
        "type": "AVSplit"
    },
    {
        "children": [
            {
                "data": "1:586",
                "leaf": "clip",
                "type": "Leaf"
            },
            {
                "data": "2:586",
                "leaf": "clip",
                "type": "Leaf"
            }
        ],
        "type": "AVSplit"
    },
    {
        "children": [
            {
                "data": "1:5660",
                "leaf": "clip",
                "type": "Leaf"
            },
            {
                "data": "2:5660",
                "leaf": "clip",
                "type": "Leaf"
            }
        ],
        "type": "AVSplit"
    },
    {
        "children": [
            {
                "data": "1:426",
                "leaf": "clip",
                "type": "Leaf"
            },
            {
                "data": "2:426",
                "leaf": "clip",
                "type": "Leaf"
            }
        ],
        "type": "AVSplit"
    },
    {
        "children": [
            {
                "data": "2:608",
                "leaf": "clip",
                "type": "Leaf"
            },
            {
                "data": "1:608",
                "leaf": "clip",
                "type": "Leaf"
            }
        ],
        "type": "AVSplit"
    },
    {
        "children": [
            {
                "data": "2:5676",
                "leaf": "clip",
                "type": "Leaf"
            },
            {
                "data": "1:5676",
                "leaf": "clip",
                "type": "Leaf"
            }
        ],
        "type": "AVSplit"
    },
    {
        "children": [
            {
                "data": "2:470",
                "leaf": "clip",
                "type": "Leaf"
            },
            {
                "data": "1:470",
                "leaf": "clip",
                "type": "Leaf"
            }
        ],
        "type": "AVSplit"
    },
    {
        "children": [
            {
                "data": "1:666",
                "leaf": "clip",
                "type": "Leaf"
            },
            {
                "data": "2:666",
                "leaf": "clip",
                "type": "Leaf"
            }
        ],
        "type": "AVSplit"
    },
    {
        "children": [
            {
                "data": "1:5704",
                "leaf": "clip",
                "type": "Leaf"
            },
            {
                "data": "2:5704",
                "leaf": "clip",
                "type": "Leaf"
            }
        ],
        "type": "AVSplit"
    },
    {
        "children": [
            {
                "data": "1:484",
                "leaf": "clip",
                "type": "Leaf"
            },
            {
                "data": "2:484",
                "leaf": "clip",
                "type": "Leaf"
            }
        ],
        "type": "AVSplit"
    },
    {
        "children": [
            {
                "data": "2:5174",
                "leaf": "clip",
                "type": "Leaf"
            },
            {
                "data": "1:5174",
                "leaf": "clip",
                "type": "Leaf"
            }
        ],
        "type": "AVSplit"
    },
    {
        "children": [
            {
                "data": "2:191",
                "leaf": "clip",
                "type": "Leaf"
            },
            {
                "data": "1:191",
                "leaf": "clip",
                "type": "Leaf"
            }
        ],
        "type": "AVSplit"
    },
    {
        "children": [
            {
                "data": "1:4989",
                "leaf": "clip",
                "type": "Leaf"
            },
            {
                "data": "2:4989",
                "leaf": "clip",
                "type": "Leaf"
            }
        ],
        "type": "AVSplit"
    },
    {
        "children": [
            {
                "data": "1:103",
                "leaf": "clip",
                "type": "Leaf"
            },
            {
                "data": "2:103",
                "leaf": "clip",
                "type": "Leaf"
            }
        ],
        "type": "AVSplit"
    },
    {
        "children": [
            {
                "data": "2:4933",
                "leaf": "clip",
                "type": "Leaf"
            },
            {
                "data": "1:4933",
                "leaf": "clip",
                "type": "Leaf"
            }
        ],
        "type": "AVSplit"
    },
    {
        "children": [
            {
                "data": "2:95",
                "leaf": "clip",
                "type": "Leaf"
            },
            {
                "data": "1:95",
                "leaf": "clip",
                "type": "Leaf"
            }
        ],
        "type": "AVSplit"
    },
    {
        "children": [
            {
                "data": "1:4869",
                "leaf": "clip",
                "type": "Leaf"
            },
            {
                "data": "2:4869",
                "leaf": "clip",
                "type": "Leaf"
            }
        ],
        "type": "AVSplit"
    },
    {
        "children": [
            {
                "data": "1:65",
                "leaf": "clip",
                "type": "Leaf"
            },
            {
                "data": "2:65",
                "leaf": "clip",
                "type": "Leaf"
            }
        ],
        "type": "AVSplit"
    },
    {
        "children": [
            {
                "data": "2:4839",
                "leaf": "clip",
                "type": "Leaf"
            },
            {
                "data": "1:4839",
                "leaf": "clip",
                "type": "Leaf"
            }
        ],
        "type": "AVSplit"
    },
    {
        "children": [
            {
                "data": "2:23",
                "leaf": "clip",
                "type": "Leaf"
            },
            {
                "data": "1:23",
                "leaf": "clip",
                "type": "Leaf"
            }
        ],
        "type": "AVSplit"
    },
    {
        "children": [
            {
                "data": "1:4797",
                "leaf": "clip",
                "type": "Leaf"
            },
            {
                "data": "2:4797",
                "leaf": "clip",
                "type": "Leaf"
            }
        ],
        "type": "AVSplit"
    },
    {
        "children": [
            {
                "data": "1:0",
                "leaf": "clip",
                "type": "Leaf"
            },
            {
                "data": "2:0",
                "leaf": "clip",
                "type": "Leaf"
            }
        ],
        "type": "AVSplit"
    },
    {
        "children": [
            {
                "data": "2:1484",
                "leaf": "clip",
                "type": "Leaf"
            },
            {
                "data": "1:1484",
                "leaf": "clip",
                "type": "Leaf"
            }
        ],
        "type": "AVSplit"
    },
    {
        "children": [
            {
                "data": "1:5735",
                "leaf": "clip",
                "type": "Leaf"
            },
            {
                "data": "2:5735",
                "leaf": "clip",
                "type": "Leaf"
            }
        ],
        "type": "AVSplit"
    },
    {
        "children": [
            {
                "data": "2:4731",
                "leaf": "clip",
                "type": "Leaf"
            },
            {
                "data": "1:4731",
                "leaf": "clip",
                "type": "Leaf"
            }
        ],
        "type": "AVSplit"
    },
    {
        "children": [
            {
                "data": "2:561",
                "leaf": "clip",
                "type": "Leaf"
            },
            {
                "data": "1:561",
                "leaf": "clip",
                "type": "Leaf"
            }
        ],
        "type": "AVSplit"
    },
    {
        "children": [
            {
                "data": "2:493",
                "leaf": "clip",
                "type": "Leaf"
            },
            {
                "data": "1:493",
                "leaf": "clip",
                "type": "Leaf"
            }
        ],
        "type": "AVSplit"
    },
    {
        "children": [
            {
                "data": "1:512",
                "leaf": "clip",
                "type": "Leaf"
            },
            {
                "data": "2:512",
                "leaf": "clip",
                "type": "Leaf"
            }
        ],
        "type": "AVSplit"
    },
    {
        "children": [
            {
                "data": "2:531",
                "leaf": "clip",
                "type": "Leaf"
            },
            {
                "data": "1:531",
                "leaf": "clip",
                "type": "Leaf"
            }
        ],
        "type": "AVSplit"
    },
    {
        "children": [
            {
                "data": "1:548",
                "leaf": "clip",
                "type": "Leaf"
            },
            {
                "data": "2:548",
                "leaf": "clip",
                "type": "Leaf"
            }
        ],
        "type": "AVSplit"
    },
    {
        "children": [
            {
                "data": "1:1497",
                "leaf": "clip",
                "type": "Leaf"
            },
            {
                "data": "2:1497",
                "leaf": "clip",
                "type": "Leaf"
            }
        ],
        "type": "AVSplit"
    },
    {
        "children": [
            {
                "data": "2:1519",
                "leaf": "clip",
                "type": "Leaf"
            },
            {
                "data": "1:1519",
                "leaf": "clip",
                "type": "Leaf"
            }
        ],
        "type": "AVSplit"
    },
    {
        "children": [
            {
                "data": "1:1546",
                "leaf": "clip",
                "type": "Leaf"
            },
            {
                "data": "2:1546",
                "leaf": "clip",
                "type": "Leaf"
            }
        ],
        "type": "AVSplit"
    },
    {
        "children": [
            {
                "data": "2:1570",
                "leaf": "clip",
                "type": "Leaf"
            },
            {
                "data": "1:1570",
                "leaf": "clip",
                "type": "Leaf"
            }
        ],
        "type": "AVSplit"
    },
    {
        "children": [
            {
                "data": "1:1625",
                "leaf": "clip",
                "type": "Leaf"
            },
            {
                "data": "2:1625",
                "leaf": "clip",
                "type": "Leaf"
            }
        ],
        "type": "AVSplit"
    },
    {
        "children": [
            {
                "data": "2:1635",
                "leaf": "clip",
                "type": "Leaf"
            },
            {
                "data": "1:1635",
                "leaf": "clip",
                "type": "Leaf"
            }
        ],
        "type": "AVSplit"
    },
    {
        "children": [
            {
                "data": "1:1640",
                "leaf": "clip",
                "type": "Leaf"
            },
            {
                "data": "2:1640",
                "leaf": "clip",
                "type": "Leaf"
            }
        ],
        "type": "AVSplit"
    },
    {
        "children": [
            {
                "data": "2:1646",
                "leaf": "clip",
                "type": "Leaf"
            },
            {
                "data": "1:1646",
                "leaf": "clip",
                "type": "Leaf"
            }
        ],
        "type": "AVSplit"
    },
    {
        "children": [
            {
                "data": "1:1684",
                "leaf": "clip",
                "type": "Leaf"
            },
            {
                "data": "2:1684",
                "leaf": "clip",
                "type": "Leaf"
            }
        ],
        "type": "AVSplit"
    },
    {
        "children": [
            {
                "data": "2:1698",
                "leaf": "clip",
                "type": "Leaf"
            },
            {
                "data": "1:1698",
                "leaf": "clip",
                "type": "Leaf"
            }
        ],
        "type": "AVSplit"
    },
    {
        "children": [
            {
                "data": "1:1761",
                "leaf": "clip",
                "type": "Leaf"
            },
            {
                "data": "2:1761",
                "leaf": "clip",
                "type": "Leaf"
            }
        ],
        "type": "AVSplit"
    },
    {
        "children": [
            {
                "data": "2:1799",
                "leaf": "clip",
                "type": "Leaf"
            },
            {
                "data": "1:1799",
                "leaf": "clip",
                "type": "Leaf"
            }
        ],
        "type": "AVSplit"
    },
    {
        "children": [
            {
                "data": "1:1822",
                "leaf": "clip",
                "type": "Leaf"
            },
            {
                "data": "2:1822",
                "leaf": "clip",
                "type": "Leaf"
            }
        ],
        "type": "AVSplit"
    },
    {
        "children": [
            {
                "data": "2:1852",
                "leaf": "clip",
                "type": "Leaf"
            },
            {
                "data": "1:1852",
                "leaf": "clip",
                "type": "Leaf"
            }
        ],
        "type": "AVSplit"
    },
    {
        "children": [
            {
                "data": "1:1893",
                "leaf": "clip",
                "type": "Leaf"
            },
            {
                "data": "2:1893",
                "leaf": "clip",
                "type": "Leaf"
            }
        ],
        "type": "AVSplit"
    },
    {
        "children": [
            {
                "data": "2:1905",
                "leaf": "clip",
                "type": "Leaf"
            },
            {
                "data": "1:1905",
                "leaf": "clip",
                "type": "Leaf"
            }
        ],
        "type": "AVSplit"
    },
    {
        "children": [
            {
                "data": "1:1928",
                "leaf": "clip",
                "type": "Leaf"
            },
            {
                "data": "2:1928",
                "leaf": "clip",
                "type": "Leaf"
            }
        ],
        "type": "AVSplit"
    },
    {
        "children": [
            {
                "data": "2:1943",
                "leaf": "clip",
                "type": "Leaf"
            },
            {
                "data": "1:1943",
                "leaf": "clip",
                "type": "Leaf"
            }
        ],
        "type": "AVSplit"
    },
    {
        "children": [
            {
                "data": "1:1960",
                "leaf": "clip",
                "type": "Leaf"
            },
            {
                "data": "2:1960",
                "leaf": "clip",
                "type": "Leaf"
            }
        ],
        "type": "AVSplit"
    },
    {
        "children": [
            {
                "data": "2:1992",
                "leaf": "clip",
                "type": "Leaf"
            },
            {
                "data": "1:1992",
                "leaf": "clip",
                "type": "Leaf"
            }
        ],
        "type": "AVSplit"
    },
    {
        "children": [
            {
                "data": "1:2012",
                "leaf": "clip",
                "type": "Leaf"
            },
            {
                "data": "2:2012",
                "leaf": "clip",
                "type": "Leaf"
            }
        ],
        "type": "AVSplit"
    },
    {
        "children": [
            {
                "data": "2:2049",
                "leaf": "clip",
                "type": "Leaf"
            },
            {
                "data": "1:2049",
                "leaf": "clip",
                "type": "Leaf"
            }
        ],
        "type": "AVSplit"
    },
    {
        "children": [
            {
                "data": "1:2084",
                "leaf": "clip",
                "type": "Leaf"
            },
            {
                "data": "2:2084",
                "leaf": "clip",
                "type": "Leaf"
            }
        ],
        "type": "AVSplit"
    },
    {
        "children": [
            {
                "data": "2:2102",
                "leaf": "clip",
                "type": "Leaf"
            },
            {
                "data": "1:2102",
                "leaf": "clip",
                "type": "Leaf"
            }
        ],
        "type": "AVSplit"
    },
    {
        "children": [
            {
                "data": "1:2332",
                "leaf": "clip",
                "type": "Leaf"
            },
            {
                "data": "2:2332",
                "leaf": "clip",
                "type": "Leaf"
            }
        ],
        "type": "AVSplit"
    },
    {
        "children": [
            {
                "data": "2:2393",
                "leaf": "clip",
                "type": "Leaf"
            },
            {
                "data": "1:2393",
                "leaf": "clip",
                "type": "Leaf"
            }
        ],
        "type": "AVSplit"
    },
    {
        "children": [
            {
                "data": "1:2409",
                "leaf": "clip",
                "type": "Leaf"
            },
            {
                "data": "2:2409",
                "leaf": "clip",
                "type": "Leaf"
            }
        ],
        "type": "AVSplit"
    },
    {
        "children": [
            {
                "data": "2:2558",
                "leaf": "clip",
                "type": "Leaf"
            },
            {
                "data": "1:2558",
                "leaf": "clip",
                "type": "Leaf"
            }
        ],
        "type": "AVSplit"
    },
    {
        "children": [
            {
                "data": "1:2581",
                "leaf": "clip",
                "type": "Leaf"
            },
            {
                "data": "2:2581",
                "leaf": "clip",
                "type": "Leaf"
            }
        ],
        "type": "AVSplit"
    },
    {
        "children": [
            {
                "data": "2:2597",
                "leaf": "clip",
                "type": "Leaf"
            },
            {
                "data": "1:2597",
                "leaf": "clip",
                "type": "Leaf"
            }
        ],
        "type": "AVSplit"
    },
    {
        "children": [
            {
                "data": "1:2623",
                "leaf": "clip",
                "type": "Leaf"
            },
            {
                "data": "2:2623",
                "leaf": "clip",
                "type": "Leaf"
            }
        ],
        "type": "AVSplit"
    },
    {
        "children": [
            {
                "data": "2:2679",
                "leaf": "clip",
                "type": "Leaf"
            },
            {
                "data": "1:2679",
                "leaf": "clip",
                "type": "Leaf"
            }
        ],
        "type": "AVSplit"
    },
    {
        "children": [
            {
                "data": "1:2759",
                "leaf": "clip",
                "type": "Leaf"
            },
            {
                "data": "2:2759",
                "leaf": "clip",
                "type": "Leaf"
            }
        ],
        "type": "AVSplit"
    },
    {
        "children": [
            {
                "data": "2:2848",
                "leaf": "clip",
                "type": "Leaf"
            },
            {
                "data": "1:2848",
                "leaf": "clip",
                "type": "Leaf"
            }
        ],
        "type": "AVSplit"
    },
    {
        "children": [
            {
                "data": "1:2910",
                "leaf": "clip",
                "type": "Leaf"
            },
            {
                "data": "2:2910",
                "leaf": "clip",
                "type": "Leaf"
            }
        ],
        "type": "AVSplit"
    },
    {
        "children": [
            {
                "data": "2:2959",
                "leaf": "clip",
                "type": "Leaf"
            },
            {
                "data": "1:2959",
                "leaf": "clip",
                "type": "Leaf"
            }
        ],
        "type": "AVSplit"
    },
    {
        "children": [
            {
                "data": "1:3044",
                "leaf": "clip",
                "type": "Leaf"
            },
            {
                "data": "2:3044",
                "leaf": "clip",
                "type": "Leaf"
            }
        ],
        "type": "AVSplit"
    },
    {
        "children": [
            {
                "data": "2:3121",
                "leaf": "clip",
                "type": "Leaf"
            },
            {
                "data": "1:3121",
                "leaf": "clip",
                "type": "Leaf"
            }
        ],
        "type": "AVSplit"
    },
    {
        "children": [
            {
                "data": "1:3139",
                "leaf": "clip",
                "type": "Leaf"
            },
            {
                "data": "2:3139",
                "leaf": "clip",
                "type": "Leaf"
            }
        ],
        "type": "AVSplit"
    },
    {
        "children": [
            {
                "data": "2:3173",
                "leaf": "clip",
                "type": "Leaf"
            },
            {
                "data": "1:3173",
                "leaf": "clip",
                "type": "Leaf"
            }
        ],
        "type": "AVSplit"
    },
    {
        "children": [
            {
                "data": "1:3204",
                "leaf": "clip",
                "type": "Leaf"
            },
            {
                "data": "2:3204",
                "leaf": "clip",
                "type": "Leaf"
            }
        ],
        "type": "AVSplit"
    },
    {
        "children": [
            {
                "data": "2:3238",
                "leaf": "clip",
                "type": "Leaf"
            },
            {
                "data": "1:3238",
                "leaf": "clip",
                "type": "Leaf"
            }
        ],
        "type": "AVSplit"
    },
    {
        "children": [
            {
                "data": "1:3264",
                "leaf": "clip",
                "type": "Leaf"
            },
            {
                "data": "2:3264",
                "leaf": "clip",
                "type": "Leaf"
            }
        ],
        "type": "AVSplit"
    },
    {
        "children": [
            {
                "data": "2:3295",
                "leaf": "clip",
                "type": "Leaf"
            },
            {
                "data": "1:3295",
                "leaf": "clip",
                "type": "Leaf"
            }
        ],
        "type": "AVSplit"
    }
]
</property>
  <property name="kdenlive:sequenceproperties.guides">[
]
</property>
  <property name="kdenlive:sequenceproperties.position">6046</property>
  <property name="kdenlive:sequenceproperties.scrollPos">252569</property>
  <property name="kdenlive:sequenceproperties.disablepreview">0</property>
  <track producer="producer0"/>
  <track producer="tractor0"/>
  <track producer="tractor1"/>
  <track producer="tractor2"/>
  <track producer="tractor3"/>
  <transition id="transition0">
   <property name="a_track">0</property>
   <property name="b_track">1</property>
   <property name="mlt_service">mix</property>
   <property name="kdenlive_id">mix</property>
   <property name="internal_added">237</property>
   <property name="always_active">1</property>
   <property name="accepts_blanks">1</property>
   <property name="sum">1</property>
  </transition>
  <transition id="transition1">
   <property name="a_track">0</property>
   <property name="b_track">2</property>
   <property name="mlt_service">mix</property>
   <property name="kdenlive_id">mix</property>
   <property name="internal_added">237</property>
   <property name="always_active">1</property>
   <property name="accepts_blanks">1</property>
   <property name="sum">1</property>
  </transition>
  <transition id="transition2">
   <property name="a_track">0</property>
   <property name="b_track">3</property>
   <property name="compositing">0</property>
   <property name="distort">0</property>
   <property name="rotate_center">0</property>
   <property name="mlt_service">qtblend</property>
   <property name="always_active">1</property>
   <property name="internal_added">237</property>
  </transition>
  <transition id="transition3">
   <property name="a_track">0</property>
   <property name="b_track">4</property>
   <property name="compositing">0</property>
   <property name="distort">0</property>
   <property name="rotate_center">0</property>
   <property name="mlt_service">qtblend</property>
   <property name="always_active">1</property>
   <property name="internal_added">237</property>
  </transition>
  <filter id="filter6">
   <property name="window">75</property>
   <property name="max_gain">20dB</property>
   <property name="mlt_service">volume</property>
   <property name="internal_added">237</property>
   <property name="disable">1</property>
  </filter>
  <filter id="filter7">
   <property name="channel">-1</property>
   <property name="mlt_service">panner</property>
   <property name="internal_added">237</property>
   <property name="start">0.5</property>
   <property name="disable">1</property>
  </filter>
 </tractor>
 <chain id="chain2" out="00:04:12.763">
  <property name="length">6061</property>
  <property name="eof">pause</property>
  <property name="resource">/home/fedora/Jupyter/defining-video-cuts/videos/2.mp4</property>
  <property name="mlt_service">avformat</property>
  <property name="meta.media.nb_streams">2</property>
  <property name="meta.media.0.stream.type">video</property>
  <property name="meta.media.0.stream.frame_rate">23.976</property>
  <property name="meta.media.0.stream.sample_aspect_ratio">0</property>
  <property name="meta.media.0.codec.width">640</property>
  <property name="meta.media.0.codec.height">360</property>
  <property name="meta.media.0.codec.rotate">0</property>
  <property name="meta.media.0.codec.pix_fmt">yuv420p</property>
  <property name="meta.media.0.codec.sample_aspect_ratio">1</property>
  <property name="meta.media.0.codec.colorspace">709</property>
  <property name="meta.media.0.codec.color_trc">1</property>
  <property name="meta.media.0.codec.name">h264</property>
  <property name="meta.media.0.codec.long_name">H.264 / AVC / MPEG-4 AVC / MPEG-4 part 10</property>
  <property name="meta.media.0.codec.bit_rate">156603</property>
  <property name="meta.attr.0.stream.creation_time.markup">2023-11-12T11:17:49.000000Z</property>
  <property name="meta.attr.0.stream.handler_name.markup">ISO Media file produced by Google Inc. Created on: 11/12/2023.</property>
  <property name="meta.attr.0.stream.vendor_id.markup">[0][0][0][0]</property>
  <property name="meta.media.1.stream.type">audio</property>
  <property name="meta.media.1.codec.sample_fmt">fltp</property>
  <property name="meta.media.1.codec.sample_rate">44100</property>
  <property name="meta.media.1.codec.channels">2</property>
  <property name="meta.media.1.codec.name">aac</property>
  <property name="meta.media.1.codec.long_name">AAC (Advanced Audio Coding)</property>
  <property name="meta.media.1.codec.bit_rate">127999</property>
  <property name="meta.attr.1.stream.creation_time.markup">2023-11-12T11:17:49.000000Z</property>
  <property name="meta.attr.1.stream.language.markup">eng</property>
  <property name="meta.attr.1.stream.handler_name.markup">ISO Media file produced by Google Inc. Created on: 11/12/2023.</property>
  <property name="meta.attr.1.stream.vendor_id.markup">[0][0][0][0]</property>
  <property name="meta.attr.major_brand.markup">mp42</property>
  <property name="meta.attr.minor_version.markup">0</property>
  <property name="meta.attr.compatible_brands.markup">isommp42</property>
  <property name="meta.attr.creation_time.markup">2023-11-12T11:17:49.000000Z</property>
  <property name="seekable">1</property>
  <property name="meta.media.sample_aspect_num">1</property>
  <property name="meta.media.sample_aspect_den">1</property>
  <property name="format">3</property>
  <property name="audio_index">1</property>
  <property name="video_index">0</property>
  <property name="vstream">0</property>
  <property name="meta.media.frame_rate_num">24000</property>
  <property name="meta.media.frame_rate_den">1001</property>
  <property name="meta.media.colorspace">709</property>
  <property name="meta.media.color_trc">1</property>
  <property name="meta.media.has_b_frames">1</property>
  <property name="meta.media.width">640</property>
  <property name="meta.media.height">360</property>
  <property name="meta.media.color_range">mpeg</property>
  <property name="astream">0</property>
  <property name="kdenlive:clipname"/>
  <property name="kdenlive:clip_type">0</property>
  <property name="kdenlive:folderid">-1</property>
  <property name="kdenlive:id">4</property>
  <property name="mute_on_pause">0</property>
  <property name="kdenlive:file_size">9107300</property>
  <property name="kdenlive:file_hash">e5bbcdc066ae3f5b3eada204b3cbf016</property>
  <property name="kdenlive:audio_max1">241</property>
  <property name="meta.media.top_field_first">0</property>
  <property name="meta.media.progressive">1</property>
 </chain>
 <playlist id="main_bin">
  <property name="kdenlive:folder.-1.2">Sequences</property>
  <property name="kdenlive:sequenceFolder">2</property>
  <property name="kdenlive:docproperties.audioChannels">2</property>
  <property name="kdenlive:docproperties.browserurl">/home/fedora/Videos/</property>
  <property name="kdenlive:docproperties.compositing">1</property>
  <property name="kdenlive:docproperties.documentid">1700692173229</property>
  <property name="kdenlive:docproperties.enableTimelineZone">0</property>
  <property name="kdenlive:docproperties.enableexternalproxy">0</property>
  <property name="kdenlive:docproperties.enableproxy">0</property>
  <property name="kdenlive:docproperties.externalproxyparams"/>
  <property name="kdenlive:docproperties.generateimageproxy">0</property>
  <property name="kdenlive:docproperties.generateproxy">0</property>
  <property name="kdenlive:docproperties.guidesCategories">[
    {
        "color": "#9b59b6",
        "comment": "Category 1",
        "index": 0
    },
    {
        "color": "#3daee9",
        "comment": "Category 2",
        "index": 1
    },
    {
        "color": "#1abc9c",
        "comment": "Category 3",
        "index": 2
    },
    {
        "color": "#1cdc9a",
        "comment": "Category 4",
        "index": 3
    },
    {
        "color": "#c9ce3b",
        "comment": "Category 5",
        "index": 4
    },
    {
        "color": "#fdbc4b",
        "comment": "Category 6",
        "index": 5
    },
    {
        "color": "#f39c1f",
        "comment": "Category 7",
        "index": 6
    },
    {
        "color": "#f47750",
        "comment": "Category 8",
        "index": 7
    },
    {
        "color": "#da4453",
        "comment": "Category 9",
        "index": 8
    }
]
</property>
  <property name="kdenlive:docproperties.kdenliveversion">23.08.1</property>
  <property name="kdenlive:docproperties.previewextension"/>
  <property name="kdenlive:docproperties.previewparameters"/>
  <property name="kdenlive:docproperties.profile">/home/fedora/.local/share/kdenlive/profiles/customprofile0</property>
  <property name="kdenlive:docproperties.proxyextension"/>
  <property name="kdenlive:docproperties.proxyimageminsize">2000</property>
  <property name="kdenlive:docproperties.proxyimagesize">800</property>
  <property name="kdenlive:docproperties.proxyminsize">1000</property>
  <property name="kdenlive:docproperties.proxyparams"/>
  <property name="kdenlive:docproperties.proxyresize">640</property>
  <property name="kdenlive:docproperties.seekOffset">30000</property>
  <property name="kdenlive:docproperties.uuid">{edbdfa82-e5eb-4d45-bd7b-946694fab89d}</property>
  <property name="kdenlive:docproperties.version">1.1</property>
  <property name="kdenlive:expandedFolders"/>
  <property name="kdenlive:binZoom">4</property>
  <property name="kdenlive:documentnotes"/>
  <property name="kdenlive:docproperties.opensequences">{edbdfa82-e5eb-4d45-bd7b-946694fab89d}</property>
  <property name="kdenlive:docproperties.activetimeline">{edbdfa82-e5eb-4d45-bd7b-946694fab89d}</property>
  <property name="xml_retain">1</property>
  <entry producer="{edbdfa82-e5eb-4d45-bd7b-946694fab89d}" in="00:00:00.000" out="00:00:00.000"/>
  <entry producer="chain2" in="00:00:00.000" out="00:04:12.763"/>
 </playlist>
 <tractor id="tractor4" in="00:00:00.000" out="00:04:12.804">
  <property name="kdenlive:projectTractor">1</property>
  <track producer="{edbdfa82-e5eb-4d45-bd7b-946694fab89d}" in="00:00:00.000" out="00:04:12.804"/>
 </tractor>
</mlt>
