<?xml version='1.0' encoding='utf-8'?>
<mlt LC_NUMERIC="C" producer="main_bin" version="7.20.0" root="/home/fedora/Jupyter/defining-video-cuts/timelines">
 <profile frame_rate_num="25" sample_aspect_num="1" display_aspect_den="3" colorspace="709" progressive="1" description="480x360 25.00fps" display_aspect_num="4" frame_rate_den="1" width="480" height="360" sample_aspect_den="1"/>
 <producer id="producer0" in="00:00:00.000" out="00:22:38.440">
  <property name="length">2147483647</property>
  <property name="eof">continue</property>
  <property name="resource">black</property>
  <property name="aspect_ratio">1</property>
  <property name="mlt_service">color</property>
  <property name="kdenlive:playlistid">black_track</property>
  <property name="mlt_image_format">rgba</property>
  <property name="set.test_audio">0</property>
 </producer>
 <playlist id="playlist0">
  <property name="kdenlive:audio_track">1</property>
 </playlist>
 <playlist id="playlist1">
  <property name="kdenlive:audio_track">1</property>
 </playlist>
 <tractor id="tractor0" in="00:00:00.000">
  <property name="kdenlive:audio_track">1</property>
  <property name="kdenlive:trackheight">67</property>
  <property name="kdenlive:timeline_active">1</property>
  <property name="kdenlive:collapsed">0</property>
  <property name="kdenlive:thumbs_format"/>
  <property name="kdenlive:audio_rec"/>
  <track hide="video" producer="playlist0"/>
  <track hide="video" producer="playlist1"/>
  <filter id="filter0">
   <property name="window">75</property>
   <property name="max_gain">20dB</property>
   <property name="mlt_service">volume</property>
   <property name="internal_added">237</property>
   <property name="disable">1</property>
  </filter>
  <filter id="filter1">
   <property name="channel">-1</property>
   <property name="mlt_service">panner</property>
   <property name="internal_added">237</property>
   <property name="start">0.5</property>
   <property name="disable">1</property>
  </filter>
  <filter id="filter2">
   <property name="iec_scale">0</property>
   <property name="mlt_service">audiolevel</property>
   <property name="dbpeak">1</property>
   <property name="disable">1</property>
  </filter>
 </tractor>
 <chain id="chain0" out="00:02:38.400">
  <property name="length">3961</property>
  <property name="eof">pause</property>
  <property name="resource">/home/fedora/Jupyter/defining-video-cuts/videos/3.mp4</property>
  <property name="mlt_service">avformat-novalidate</property>
  <property name="seekable">1</property>
  <property name="format">3</property>
  <property name="audio_index">1</property>
  <property name="video_index">0</property>
  <property name="vstream">0</property>
  <property name="astream">0</property>
  <property name="kdenlive:clipname"/>
  <property name="kdenlive:clip_type">0</property>
  <property name="kdenlive:folderid">-1</property>
  <property name="kdenlive:id">4</property>
  <property name="mute_on_pause">0</property>
  <property name="kdenlive:file_size">5450552</property>
  <property name="kdenlive:file_hash">f0054b46f990b6224dde3324051f3e27</property>
  <property name="kdenlive:audio_max1">227</property>
  <property name="meta.media.nb_streams">2</property>
  <property name="meta.media.0.stream.type">video</property>
  <property name="meta.media.0.stream.frame_rate">25</property>
  <property name="meta.media.0.stream.sample_aspect_ratio">0</property>
  <property name="meta.media.0.codec.width">480</property>
  <property name="meta.media.0.codec.height">360</property>
  <property name="meta.media.0.codec.rotate">0</property>
  <property name="meta.media.0.codec.pix_fmt">yuv420p</property>
  <property name="meta.media.0.codec.sample_aspect_ratio">1</property>
  <property name="meta.media.0.codec.colorspace">709</property>
  <property name="meta.media.0.codec.color_trc">1</property>
  <property name="meta.media.0.codec.name">h264</property>
  <property name="meta.media.0.codec.long_name">H.264 / AVC / MPEG-4 AVC / MPEG-4 part 10</property>
  <property name="meta.media.0.codec.bit_rate">143538</property>
  <property name="meta.attr.0.stream.creation_time.markup">2023-06-05T23:35:22.000000Z</property>
  <property name="meta.attr.0.stream.handler_name.markup">ISO Media file produced by Google Inc. Created on: 06/05/2023.</property>
  <property name="meta.attr.0.stream.vendor_id.markup">[0][0][0][0]</property>
  <property name="meta.media.1.stream.type">audio</property>
  <property name="meta.media.1.codec.sample_fmt">fltp</property>
  <property name="meta.media.1.codec.sample_rate">44100</property>
  <property name="meta.media.1.codec.channels">2</property>
  <property name="meta.media.1.codec.name">aac</property>
  <property name="meta.media.1.codec.long_name">AAC (Advanced Audio Coding)</property>
  <property name="meta.media.1.codec.bit_rate">127999</property>
  <property name="meta.attr.1.stream.creation_time.markup">2023-06-05T23:35:22.000000Z</property>
  <property name="meta.attr.1.stream.language.markup">eng</property>
  <property name="meta.attr.1.stream.handler_name.markup">ISO Media file produced by Google Inc. Created on: 06/05/2023.</property>
  <property name="meta.attr.1.stream.vendor_id.markup">[0][0][0][0]</property>
  <property name="meta.attr.major_brand.markup">mp42</property>
  <property name="meta.attr.minor_version.markup">0</property>
  <property name="meta.attr.compatible_brands.markup">isommp42</property>
  <property name="meta.attr.creation_time.markup">2023-06-05T23:35:22.000000Z</property>
  <property name="meta.media.sample_aspect_num">1</property>
  <property name="meta.media.sample_aspect_den">1</property>
  <property name="meta.media.frame_rate_num">25</property>
  <property name="meta.media.frame_rate_den">1</property>
  <property name="meta.media.colorspace">709</property>
  <property name="meta.media.color_trc">1</property>
  <property name="meta.media.has_b_frames">1</property>
  <property name="meta.media.width">480</property>
  <property name="meta.media.height">360</property>
  <property name="meta.media.color_range">mpeg</property>
  <property name="xml">was here</property>
  <property name="meta.media.top_field_first">0</property>
  <property name="meta.media.progressive">1</property>
  <property name="set.test_audio">0</property>
  <property name="set.test_image">1</property>
 </chain>
 <playlist id="playlist2">
  <property name="kdenlive:audio_track">1</property>
  <entry producer="chain0" in="00:00:00.000" out="00:00:06.360">
   <property name="kdenlive:id">4</property>
  </entry>
  <entry producer="chain0" in="00:00:06.400" out="00:00:08.080">
   <property name="kdenlive:id">4</property>
  </entry>
  <entry producer="chain0" in="00:00:08.120" out="00:00:12.760">
   <property name="kdenlive:id">4</property>
  </entry>
  <entry producer="chain0" in="00:00:12.800" out="00:00:19.120">
   <property name="kdenlive:id">4</property>
  </entry>
  <entry producer="chain0" in="00:00:19.160" out="00:00:25.520">
   <property name="kdenlive:id">4</property>
  </entry>
  <entry producer="chain0" in="00:00:25.560" out="00:00:30.240">
   <property name="kdenlive:id">4</property>
  </entry>
  <entry producer="chain0" in="00:00:30.280" out="00:00:38.760">
   <property name="kdenlive:id">4</property>
  </entry>
  <entry producer="chain0" in="00:00:38.800" out="00:00:41.920">
   <property name="kdenlive:id">4</property>
  </entry>
  <entry producer="chain0" in="00:00:41.960" out="00:00:44.720">
   <property name="kdenlive:id">4</property>
  </entry>
  <entry producer="chain0" in="00:00:44.760" out="00:00:51.960">
   <property name="kdenlive:id">4</property>
  </entry>
  <entry producer="chain0" in="00:00:52.000" out="00:01:03.920">
   <property name="kdenlive:id">4</property>
  </entry>
  <entry producer="chain0" in="00:01:03.960" out="00:01:10.360">
   <property name="kdenlive:id">4</property>
  </entry>
  <entry producer="chain0" in="00:01:10.400" out="00:01:16.720">
   <property name="kdenlive:id">4</property>
  </entry>
  <entry producer="chain0" in="00:01:16.760" out="00:01:19.920">
   <property name="kdenlive:id">4</property>
  </entry>
  <entry producer="chain0" in="00:01:19.960" out="00:01:29.760">
   <property name="kdenlive:id">4</property>
  </entry>
  <entry producer="chain0" in="00:01:29.800" out="00:01:33.720">
   <property name="kdenlive:id">4</property>
  </entry>
  <entry producer="chain0" in="00:01:33.760" out="00:01:36.000">
   <property name="kdenlive:id">4</property>
  </entry>
  <entry producer="chain0" in="00:01:36.040" out="00:01:42.360">
   <property name="kdenlive:id">4</property>
  </entry>
  <entry producer="chain0" in="00:01:42.400" out="00:01:48.720">
   <property name="kdenlive:id">4</property>
  </entry>
  <entry producer="chain0" in="00:01:48.760" out="00:01:55.160">
   <property name="kdenlive:id">4</property>
  </entry>
  <entry producer="chain0" in="00:01:55.200" out="00:02:01.560">
   <property name="kdenlive:id">4</property>
  </entry>
  <entry producer="chain0" in="00:02:01.600" out="00:02:14.320">
   <property name="kdenlive:id">4</property>
  </entry>
  <entry producer="chain0" in="00:02:14.360" out="00:02:38.400">
   <property name="kdenlive:id">4</property>
  </entry>
 </playlist>
 <playlist id="playlist3">
  <property name="kdenlive:audio_track">1</property>
 </playlist>
 <tractor id="tractor1" in="00:00:00.000" out="00:02:38.400">
  <property name="kdenlive:audio_track">1</property>
  <property name="kdenlive:trackheight">67</property>
  <property name="kdenlive:timeline_active">1</property>
  <property name="kdenlive:collapsed">0</property>
  <property name="kdenlive:thumbs_format"/>
  <property name="kdenlive:audio_rec"/>
  <track hide="video" producer="playlist2"/>
  <track hide="video" producer="playlist3"/>
  <filter id="filter3">
   <property name="window">75</property>
   <property name="max_gain">20dB</property>
   <property name="mlt_service">volume</property>
   <property name="internal_added">237</property>
   <property name="disable">1</property>
  </filter>
  <filter id="filter4">
   <property name="channel">-1</property>
   <property name="mlt_service">panner</property>
   <property name="internal_added">237</property>
   <property name="start">0.5</property>
   <property name="disable">1</property>
  </filter>
  <filter id="filter5">
   <property name="iec_scale">0</property>
   <property name="mlt_service">audiolevel</property>
   <property name="dbpeak">1</property>
   <property name="disable">1</property>
  </filter>
 </tractor>
 <chain id="chain1" out="00:02:38.400">
  <property name="length">3961</property>
  <property name="eof">pause</property>
  <property name="resource">/home/fedora/Jupyter/defining-video-cuts/videos/3.mp4</property>
  <property name="mlt_service">avformat-novalidate</property>
  <property name="seekable">1</property>
  <property name="format">3</property>
  <property name="audio_index">1</property>
  <property name="video_index">0</property>
  <property name="vstream">0</property>
  <property name="astream">0</property>
  <property name="kdenlive:clipname"/>
  <property name="kdenlive:clip_type">0</property>
  <property name="kdenlive:folderid">-1</property>
  <property name="kdenlive:id">4</property>
  <property name="mute_on_pause">0</property>
  <property name="kdenlive:file_size">5450552</property>
  <property name="kdenlive:file_hash">f0054b46f990b6224dde3324051f3e27</property>
  <property name="kdenlive:audio_max1">227</property>
  <property name="meta.media.nb_streams">2</property>
  <property name="meta.media.0.stream.type">video</property>
  <property name="meta.media.0.stream.frame_rate">25</property>
  <property name="meta.media.0.stream.sample_aspect_ratio">0</property>
  <property name="meta.media.0.codec.width">480</property>
  <property name="meta.media.0.codec.height">360</property>
  <property name="meta.media.0.codec.rotate">0</property>
  <property name="meta.media.0.codec.pix_fmt">yuv420p</property>
  <property name="meta.media.0.codec.sample_aspect_ratio">1</property>
  <property name="meta.media.0.codec.colorspace">709</property>
  <property name="meta.media.0.codec.color_trc">1</property>
  <property name="meta.media.0.codec.name">h264</property>
  <property name="meta.media.0.codec.long_name">H.264 / AVC / MPEG-4 AVC / MPEG-4 part 10</property>
  <property name="meta.media.0.codec.bit_rate">143538</property>
  <property name="meta.attr.0.stream.creation_time.markup">2023-06-05T23:35:22.000000Z</property>
  <property name="meta.attr.0.stream.handler_name.markup">ISO Media file produced by Google Inc. Created on: 06/05/2023.</property>
  <property name="meta.attr.0.stream.vendor_id.markup">[0][0][0][0]</property>
  <property name="meta.media.1.stream.type">audio</property>
  <property name="meta.media.1.codec.sample_fmt">fltp</property>
  <property name="meta.media.1.codec.sample_rate">44100</property>
  <property name="meta.media.1.codec.channels">2</property>
  <property name="meta.media.1.codec.name">aac</property>
  <property name="meta.media.1.codec.long_name">AAC (Advanced Audio Coding)</property>
  <property name="meta.media.1.codec.bit_rate">127999</property>
  <property name="meta.attr.1.stream.creation_time.markup">2023-06-05T23:35:22.000000Z</property>
  <property name="meta.attr.1.stream.language.markup">eng</property>
  <property name="meta.attr.1.stream.handler_name.markup">ISO Media file produced by Google Inc. Created on: 06/05/2023.</property>
  <property name="meta.attr.1.stream.vendor_id.markup">[0][0][0][0]</property>
  <property name="meta.attr.major_brand.markup">mp42</property>
  <property name="meta.attr.minor_version.markup">0</property>
  <property name="meta.attr.compatible_brands.markup">isommp42</property>
  <property name="meta.attr.creation_time.markup">2023-06-05T23:35:22.000000Z</property>
  <property name="meta.media.sample_aspect_num">1</property>
  <property name="meta.media.sample_aspect_den">1</property>
  <property name="meta.media.frame_rate_num">25</property>
  <property name="meta.media.frame_rate_den">1</property>
  <property name="meta.media.colorspace">709</property>
  <property name="meta.media.color_trc">1</property>
  <property name="meta.media.has_b_frames">1</property>
  <property name="meta.media.width">480</property>
  <property name="meta.media.height">360</property>
  <property name="meta.media.color_range">mpeg</property>
  <property name="xml">was here</property>
  <property name="meta.media.top_field_first">0</property>
  <property name="meta.media.progressive">1</property>
  <property name="set.test_audio">1</property>
  <property name="set.test_image">0</property>
 </chain>
 <playlist id="playlist4">
  <entry producer="chain1" in="00:00:00.000" out="00:00:06.360">
   <property name="kdenlive:id">4</property>
  </entry>
  <entry producer="chain1" in="00:00:06.400" out="00:00:08.080">
   <property name="kdenlive:id">4</property>
  </entry>
  <entry producer="chain1" in="00:00:08.120" out="00:00:12.760">
   <property name="kdenlive:id">4</property>
  </entry>
  <entry producer="chain1" in="00:00:12.800" out="00:00:19.120">
   <property name="kdenlive:id">4</property>
  </entry>
  <entry producer="chain1" in="00:00:19.160" out="00:00:25.520">
   <property name="kdenlive:id">4</property>
  </entry>
  <entry producer="chain1" in="00:00:25.560" out="00:00:30.240">
   <property name="kdenlive:id">4</property>
  </entry>
  <entry producer="chain1" in="00:00:30.280" out="00:00:38.760">
   <property name="kdenlive:id">4</property>
  </entry>
  <entry producer="chain1" in="00:00:38.800" out="00:00:41.920">
   <property name="kdenlive:id">4</property>
  </entry>
  <entry producer="chain1" in="00:00:41.960" out="00:00:44.720">
   <property name="kdenlive:id">4</property>
  </entry>
  <entry producer="chain1" in="00:00:44.760" out="00:00:51.960">
   <property name="kdenlive:id">4</property>
  </entry>
  <entry producer="chain1" in="00:00:52.000" out="00:01:03.920">
   <property name="kdenlive:id">4</property>
  </entry>
  <entry producer="chain1" in="00:01:03.960" out="00:01:10.360">
   <property name="kdenlive:id">4</property>
  </entry>
  <entry producer="chain1" in="00:01:10.400" out="00:01:16.720">
   <property name="kdenlive:id">4</property>
  </entry>
  <entry producer="chain1" in="00:01:16.760" out="00:01:19.920">
   <property name="kdenlive:id">4</property>
  </entry>
  <entry producer="chain1" in="00:01:19.960" out="00:01:29.760">
   <property name="kdenlive:id">4</property>
  </entry>
  <entry producer="chain1" in="00:01:29.800" out="00:01:33.720">
   <property name="kdenlive:id">4</property>
  </entry>
  <entry producer="chain1" in="00:01:33.760" out="00:01:36.000">
   <property name="kdenlive:id">4</property>
  </entry>
  <entry producer="chain1" in="00:01:36.040" out="00:01:42.360">
   <property name="kdenlive:id">4</property>
  </entry>
  <entry producer="chain1" in="00:01:42.400" out="00:01:48.720">
   <property name="kdenlive:id">4</property>
  </entry>
  <entry producer="chain1" in="00:01:48.760" out="00:01:55.160">
   <property name="kdenlive:id">4</property>
  </entry>
  <entry producer="chain1" in="00:01:55.200" out="00:02:01.560">
   <property name="kdenlive:id">4</property>
  </entry>
  <entry producer="chain1" in="00:02:01.600" out="00:02:14.320">
   <property name="kdenlive:id">4</property>
  </entry>
  <entry producer="chain1" in="00:02:14.360" out="00:02:38.400">
   <property name="kdenlive:id">4</property>
  </entry>
 </playlist>
 <playlist id="playlist5"/>
 <tractor id="tractor2" in="00:00:00.000" out="00:02:38.400">
  <property name="kdenlive:trackheight">67</property>
  <property name="kdenlive:timeline_active">1</property>
  <property name="kdenlive:collapsed">0</property>
  <property name="kdenlive:thumbs_format"/>
  <property name="kdenlive:audio_rec"/>
  <track hide="audio" producer="playlist4"/>
  <track hide="audio" producer="playlist5"/>
 </tractor>
 <playlist id="playlist6"/>
 <playlist id="playlist7"/>
 <tractor id="tractor3" in="00:00:00.000">
  <property name="kdenlive:trackheight">67</property>
  <property name="kdenlive:timeline_active">1</property>
  <property name="kdenlive:collapsed">0</property>
  <property name="kdenlive:thumbs_format"/>
  <property name="kdenlive:audio_rec"/>
  <track hide="audio" producer="playlist6"/>
  <track hide="audio" producer="playlist7"/>
 </tractor>
 <tractor id="{866c25a5-a940-48b4-9d09-eb7af9b24a02}" in="00:00:00.000" out="00:22:38.440">
  <property name="kdenlive:uuid">{866c25a5-a940-48b4-9d09-eb7af9b24a02}</property>
  <property name="kdenlive:clipname">Sequence 1</property>
  <property name="kdenlive:sequenceproperties.hasAudio">1</property>
  <property name="kdenlive:sequenceproperties.hasVideo">1</property>
  <property name="kdenlive:sequenceproperties.activeTrack">2</property>
  <property name="kdenlive:sequenceproperties.tracksCount">4</property>
  <property name="kdenlive:sequenceproperties.documentuuid">{866c25a5-a940-48b4-9d09-eb7af9b24a02}</property>
  <property name="kdenlive:duration">00:02:38:11</property>
  <property name="kdenlive:maxduration">3961</property>
  <property name="kdenlive:producer_type">17</property>
  <property name="kdenlive:id">3</property>
  <property name="kdenlive:clip_type">0</property>
  <property name="kdenlive:file_hash">4749ac95fc66b2529053547fa1254671</property>
  <property name="kdenlive:folderid">2</property>
  <property name="kdenlive:sequenceproperties.audioTarget">1</property>
  <property name="kdenlive:sequenceproperties.tracks">4</property>
  <property name="kdenlive:sequenceproperties.verticalzoom">1</property>
  <property name="kdenlive:sequenceproperties.videoTarget">2</property>
  <property name="kdenlive:sequenceproperties.zonein">0</property>
  <property name="kdenlive:sequenceproperties.zoneout">75</property>
  <property name="kdenlive:sequenceproperties.zoom">4</property>
  <property name="kdenlive:sequenceproperties.groups">[
    {
        "children": [
            {
                "data": "2:1599",
                "leaf": "clip",
                "type": "Leaf"
            },
            {
                "data": "1:1599",
                "leaf": "clip",
                "type": "Leaf"
            }
        ],
        "type": "AVSplit"
    },
    {
        "children": [
            {
                "data": "1:1300",
                "leaf": "clip",
                "type": "Leaf"
            },
            {
                "data": "2:1300",
                "leaf": "clip",
                "type": "Leaf"
            }
        ],
        "type": "AVSplit"
    },
    {
        "children": [
            {
                "data": "2:1119",
                "leaf": "clip",
                "type": "Leaf"
            },
            {
                "data": "1:1119",
                "leaf": "clip",
                "type": "Leaf"
            }
        ],
        "type": "AVSplit"
    },
    {
        "children": [
            {
                "data": "1:1049",
                "leaf": "clip",
                "type": "Leaf"
            },
            {
                "data": "2:1049",
                "leaf": "clip",
                "type": "Leaf"
            }
        ],
        "type": "AVSplit"
    },
    {
        "children": [
            {
                "data": "2:970",
                "leaf": "clip",
                "type": "Leaf"
            },
            {
                "data": "1:970",
                "leaf": "clip",
                "type": "Leaf"
            }
        ],
        "type": "AVSplit"
    },
    {
        "children": [
            {
                "data": "1:757",
                "leaf": "clip",
                "type": "Leaf"
            },
            {
                "data": "2:757",
                "leaf": "clip",
                "type": "Leaf"
            }
        ],
        "type": "AVSplit"
    },
    {
        "children": [
            {
                "data": "2:639",
                "leaf": "clip",
                "type": "Leaf"
            },
            {
                "data": "1:639",
                "leaf": "clip",
                "type": "Leaf"
            }
        ],
        "type": "AVSplit"
    },
    {
        "children": [
            {
                "data": "1:479",
                "leaf": "clip",
                "type": "Leaf"
            },
            {
                "data": "2:479",
                "leaf": "clip",
                "type": "Leaf"
            }
        ],
        "type": "AVSplit"
    },
    {
        "children": [
            {
                "data": "2:320",
                "leaf": "clip",
                "type": "Leaf"
            },
            {
                "data": "1:320",
                "leaf": "clip",
                "type": "Leaf"
            }
        ],
        "type": "AVSplit"
    },
    {
        "children": [
            {
                "data": "1:203",
                "leaf": "clip",
                "type": "Leaf"
            },
            {
                "data": "2:203",
                "leaf": "clip",
                "type": "Leaf"
            }
        ],
        "type": "AVSplit"
    },
    {
        "children": [
            {
                "data": "2:3040",
                "leaf": "clip",
                "type": "Leaf"
            },
            {
                "data": "1:3040",
                "leaf": "clip",
                "type": "Leaf"
            }
        ],
        "type": "AVSplit"
    },
    {
        "children": [
            {
                "data": "1:2880",
                "leaf": "clip",
                "type": "Leaf"
            },
            {
                "data": "2:2880",
                "leaf": "clip",
                "type": "Leaf"
            }
        ],
        "type": "AVSplit"
    },
    {
        "children": [
            {
                "data": "2:2719",
                "leaf": "clip",
                "type": "Leaf"
            },
            {
                "data": "1:2719",
                "leaf": "clip",
                "type": "Leaf"
            }
        ],
        "type": "AVSplit"
    },
    {
        "children": [
            {
                "data": "1:2560",
                "leaf": "clip",
                "type": "Leaf"
            },
            {
                "data": "2:2560",
                "leaf": "clip",
                "type": "Leaf"
            }
        ],
        "type": "AVSplit"
    },
    {
        "children": [
            {
                "data": "2:2401",
                "leaf": "clip",
                "type": "Leaf"
            },
            {
                "data": "1:2401",
                "leaf": "clip",
                "type": "Leaf"
            }
        ],
        "type": "AVSplit"
    },
    {
        "children": [
            {
                "data": "1:2344",
                "leaf": "clip",
                "type": "Leaf"
            },
            {
                "data": "2:2344",
                "leaf": "clip",
                "type": "Leaf"
            }
        ],
        "type": "AVSplit"
    },
    {
        "children": [
            {
                "data": "2:2245",
                "leaf": "clip",
                "type": "Leaf"
            },
            {
                "data": "1:2245",
                "leaf": "clip",
                "type": "Leaf"
            }
        ],
        "type": "AVSplit"
    },
    {
        "children": [
            {
                "data": "1:1999",
                "leaf": "clip",
                "type": "Leaf"
            },
            {
                "data": "2:1999",
                "leaf": "clip",
                "type": "Leaf"
            }
        ],
        "type": "AVSplit"
    },
    {
        "children": [
            {
                "data": "2:160",
                "leaf": "clip",
                "type": "Leaf"
            },
            {
                "data": "1:160",
                "leaf": "clip",
                "type": "Leaf"
            }
        ],
        "type": "AVSplit"
    },
    {
        "children": [
            {
                "data": "2:1919",
                "leaf": "clip",
                "type": "Leaf"
            },
            {
                "data": "1:1919",
                "leaf": "clip",
                "type": "Leaf"
            }
        ],
        "type": "AVSplit"
    },
    {
        "children": [
            {
                "data": "1:0",
                "leaf": "clip",
                "type": "Leaf"
            },
            {
                "data": "2:0",
                "leaf": "clip",
                "type": "Leaf"
            }
        ],
        "type": "AVSplit"
    },
    {
        "children": [
            {
                "data": "1:1760",
                "leaf": "clip",
                "type": "Leaf"
            },
            {
                "data": "2:1760",
                "leaf": "clip",
                "type": "Leaf"
            }
        ],
        "type": "AVSplit"
    },
    {
        "children": [
            {
                "data": "2:3359",
                "leaf": "clip",
                "type": "Leaf"
            },
            {
                "data": "1:3359",
                "leaf": "clip",
                "type": "Leaf"
            }
        ],
        "type": "AVSplit"
    }
]
</property>
  <property name="kdenlive:sequenceproperties.guides">[
]
</property>
  <property name="kdenlive:sequenceproperties.position">3956</property>
  <property name="kdenlive:sequenceproperties.scrollPos">9714</property>
  <property name="kdenlive:sequenceproperties.disablepreview">0</property>
  <track producer="producer0"/>
  <track producer="tractor0"/>
  <track producer="tractor1"/>
  <track producer="tractor2"/>
  <track producer="tractor3"/>
  <transition id="transition0">
   <property name="a_track">0</property>
   <property name="b_track">1</property>
   <property name="mlt_service">mix</property>
   <property name="kdenlive_id">mix</property>
   <property name="internal_added">237</property>
   <property name="always_active">1</property>
   <property name="accepts_blanks">1</property>
   <property name="sum">1</property>
  </transition>
  <transition id="transition1">
   <property name="a_track">0</property>
   <property name="b_track">2</property>
   <property name="mlt_service">mix</property>
   <property name="kdenlive_id">mix</property>
   <property name="internal_added">237</property>
   <property name="always_active">1</property>
   <property name="accepts_blanks">1</property>
   <property name="sum">1</property>
  </transition>
  <transition id="transition2">
   <property name="a_track">0</property>
   <property name="b_track">3</property>
   <property name="compositing">0</property>
   <property name="distort">0</property>
   <property name="rotate_center">0</property>
   <property name="mlt_service">qtblend</property>
   <property name="always_active">1</property>
   <property name="internal_added">237</property>
  </transition>
  <transition id="transition3">
   <property name="a_track">0</property>
   <property name="b_track">4</property>
   <property name="compositing">0</property>
   <property name="distort">0</property>
   <property name="rotate_center">0</property>
   <property name="mlt_service">qtblend</property>
   <property name="always_active">1</property>
   <property name="internal_added">237</property>
  </transition>
  <filter id="filter6">
   <property name="window">75</property>
   <property name="max_gain">20dB</property>
   <property name="mlt_service">volume</property>
   <property name="internal_added">237</property>
   <property name="disable">1</property>
  </filter>
  <filter id="filter7">
   <property name="channel">-1</property>
   <property name="mlt_service">panner</property>
   <property name="internal_added">237</property>
   <property name="start">0.5</property>
   <property name="disable">1</property>
  </filter>
 </tractor>
 <chain id="chain2" out="00:02:38.400">
  <property name="length">3961</property>
  <property name="eof">pause</property>
  <property name="resource">/home/fedora/Jupyter/defining-video-cuts/videos/3.mp4</property>
  <property name="mlt_service">avformat</property>
  <property name="meta.media.nb_streams">2</property>
  <property name="meta.media.0.stream.type">video</property>
  <property name="meta.media.0.stream.frame_rate">25</property>
  <property name="meta.media.0.stream.sample_aspect_ratio">0</property>
  <property name="meta.media.0.codec.width">480</property>
  <property name="meta.media.0.codec.height">360</property>
  <property name="meta.media.0.codec.rotate">0</property>
  <property name="meta.media.0.codec.pix_fmt">yuv420p</property>
  <property name="meta.media.0.codec.sample_aspect_ratio">1</property>
  <property name="meta.media.0.codec.colorspace">709</property>
  <property name="meta.media.0.codec.color_trc">1</property>
  <property name="meta.media.0.codec.name">h264</property>
  <property name="meta.media.0.codec.long_name">H.264 / AVC / MPEG-4 AVC / MPEG-4 part 10</property>
  <property name="meta.media.0.codec.bit_rate">143538</property>
  <property name="meta.attr.0.stream.creation_time.markup">2023-06-05T23:35:22.000000Z</property>
  <property name="meta.attr.0.stream.handler_name.markup">ISO Media file produced by Google Inc. Created on: 06/05/2023.</property>
  <property name="meta.attr.0.stream.vendor_id.markup">[0][0][0][0]</property>
  <property name="meta.media.1.stream.type">audio</property>
  <property name="meta.media.1.codec.sample_fmt">fltp</property>
  <property name="meta.media.1.codec.sample_rate">44100</property>
  <property name="meta.media.1.codec.channels">2</property>
  <property name="meta.media.1.codec.name">aac</property>
  <property name="meta.media.1.codec.long_name">AAC (Advanced Audio Coding)</property>
  <property name="meta.media.1.codec.bit_rate">127999</property>
  <property name="meta.attr.1.stream.creation_time.markup">2023-06-05T23:35:22.000000Z</property>
  <property name="meta.attr.1.stream.language.markup">eng</property>
  <property name="meta.attr.1.stream.handler_name.markup">ISO Media file produced by Google Inc. Created on: 06/05/2023.</property>
  <property name="meta.attr.1.stream.vendor_id.markup">[0][0][0][0]</property>
  <property name="meta.attr.major_brand.markup">mp42</property>
  <property name="meta.attr.minor_version.markup">0</property>
  <property name="meta.attr.compatible_brands.markup">isommp42</property>
  <property name="meta.attr.creation_time.markup">2023-06-05T23:35:22.000000Z</property>
  <property name="seekable">1</property>
  <property name="meta.media.sample_aspect_num">1</property>
  <property name="meta.media.sample_aspect_den">1</property>
  <property name="format">3</property>
  <property name="audio_index">1</property>
  <property name="video_index">0</property>
  <property name="vstream">0</property>
  <property name="meta.media.frame_rate_num">25</property>
  <property name="meta.media.frame_rate_den">1</property>
  <property name="meta.media.colorspace">709</property>
  <property name="meta.media.color_trc">1</property>
  <property name="meta.media.has_b_frames">1</property>
  <property name="meta.media.width">480</property>
  <property name="meta.media.height">360</property>
  <property name="meta.media.color_range">mpeg</property>
  <property name="astream">0</property>
  <property name="kdenlive:clipname"/>
  <property name="kdenlive:clip_type">0</property>
  <property name="kdenlive:folderid">-1</property>
  <property name="kdenlive:id">4</property>
  <property name="mute_on_pause">0</property>
  <property name="kdenlive:file_size">5450552</property>
  <property name="kdenlive:file_hash">f0054b46f990b6224dde3324051f3e27</property>
  <property name="kdenlive:audio_max1">227</property>
  <property name="meta.media.top_field_first">0</property>
  <property name="meta.media.progressive">1</property>
 </chain>
 <playlist id="main_bin">
  <property name="kdenlive:folder.-1.2">Sequences</property>
  <property name="kdenlive:sequenceFolder">2</property>
  <property name="kdenlive:docproperties.audioChannels">2</property>
  <property name="kdenlive:docproperties.browserurl">/home/fedora/Videos/</property>
  <property name="kdenlive:docproperties.compositing">1</property>
  <property name="kdenlive:docproperties.documentid">1700696021619</property>
  <property name="kdenlive:docproperties.enableTimelineZone">0</property>
  <property name="kdenlive:docproperties.enableexternalproxy">0</property>
  <property name="kdenlive:docproperties.enableproxy">0</property>
  <property name="kdenlive:docproperties.externalproxyparams"/>
  <property name="kdenlive:docproperties.generateimageproxy">0</property>
  <property name="kdenlive:docproperties.generateproxy">0</property>
  <property name="kdenlive:docproperties.guidesCategories">[
    {
        "color": "#9b59b6",
        "comment": "Category 1",
        "index": 0
    },
    {
        "color": "#3daee9",
        "comment": "Category 2",
        "index": 1
    },
    {
        "color": "#1abc9c",
        "comment": "Category 3",
        "index": 2
    },
    {
        "color": "#1cdc9a",
        "comment": "Category 4",
        "index": 3
    },
    {
        "color": "#c9ce3b",
        "comment": "Category 5",
        "index": 4
    },
    {
        "color": "#fdbc4b",
        "comment": "Category 6",
        "index": 5
    },
    {
        "color": "#f39c1f",
        "comment": "Category 7",
        "index": 6
    },
    {
        "color": "#f47750",
        "comment": "Category 8",
        "index": 7
    },
    {
        "color": "#da4453",
        "comment": "Category 9",
        "index": 8
    }
]
</property>
  <property name="kdenlive:docproperties.kdenliveversion">23.08.1</property>
  <property name="kdenlive:docproperties.previewextension"/>
  <property name="kdenlive:docproperties.previewparameters"/>
  <property name="kdenlive:docproperties.profile">/home/fedora/.local/share/kdenlive/profiles/customprofile1</property>
  <property name="kdenlive:docproperties.proxyextension"/>
  <property name="kdenlive:docproperties.proxyimageminsize">2000</property>
  <property name="kdenlive:docproperties.proxyimagesize">800</property>
  <property name="kdenlive:docproperties.proxyminsize">1000</property>
  <property name="kdenlive:docproperties.proxyparams"/>
  <property name="kdenlive:docproperties.proxyresize">640</property>
  <property name="kdenlive:docproperties.seekOffset">30000</property>
  <property name="kdenlive:docproperties.uuid">{866c25a5-a940-48b4-9d09-eb7af9b24a02}</property>
  <property name="kdenlive:docproperties.version">1.1</property>
  <property name="kdenlive:expandedFolders"/>
  <property name="kdenlive:binZoom">4</property>
  <property name="kdenlive:documentnotes"/>
  <property name="kdenlive:docproperties.opensequences">{866c25a5-a940-48b4-9d09-eb7af9b24a02}</property>
  <property name="kdenlive:docproperties.activetimeline">{866c25a5-a940-48b4-9d09-eb7af9b24a02}</property>
  <property name="xml_retain">1</property>
  <entry producer="{866c25a5-a940-48b4-9d09-eb7af9b24a02}" in="00:00:00.000" out="00:00:00.000"/>
  <entry producer="chain2" in="00:00:00.000" out="00:02:38.400"/>
 </playlist>
 <tractor id="tractor4" in="00:00:00.000" out="00:02:38.440">
  <property name="kdenlive:projectTractor">1</property>
  <track producer="{866c25a5-a940-48b4-9d09-eb7af9b24a02}" in="00:00:00.000" out="00:02:38.440"/>
 </tractor>
</mlt>
