<?xml version='1.0' encoding='utf-8'?>
<mlt LC_NUMERIC="C" producer="main_bin" version="7.20.0" root="/home/fedora/Jupyter/defining-video-cuts/timelines">
 <profile frame_rate_num="25" sample_aspect_num="1" display_aspect_den="9" colorspace="709" progressive="1" description="640x360 25.00fps" display_aspect_num="16" frame_rate_den="1" width="640" height="360" sample_aspect_den="1"/>
 <producer id="producer0" in="00:00:00.000" out="00:23:20.280">
  <property name="length">2147483647</property>
  <property name="eof">continue</property>
  <property name="resource">black</property>
  <property name="aspect_ratio">1</property>
  <property name="mlt_service">color</property>
  <property name="kdenlive:playlistid">black_track</property>
  <property name="mlt_image_format">rgba</property>
  <property name="set.test_audio">0</property>
 </producer>
 <playlist id="playlist0">
  <property name="kdenlive:audio_track">1</property>
 </playlist>
 <playlist id="playlist1">
  <property name="kdenlive:audio_track">1</property>
 </playlist>
 <tractor id="tractor0" in="00:00:00.000">
  <property name="kdenlive:audio_track">1</property>
  <property name="kdenlive:trackheight">67</property>
  <property name="kdenlive:timeline_active">1</property>
  <property name="kdenlive:collapsed">0</property>
  <property name="kdenlive:thumbs_format"/>
  <property name="kdenlive:audio_rec"/>
  <track hide="video" producer="playlist0"/>
  <track hide="video" producer="playlist1"/>
  <filter id="filter0">
   <property name="window">75</property>
   <property name="max_gain">20dB</property>
   <property name="mlt_service">volume</property>
   <property name="internal_added">237</property>
   <property name="disable">1</property>
  </filter>
  <filter id="filter1">
   <property name="channel">-1</property>
   <property name="mlt_service">panner</property>
   <property name="internal_added">237</property>
   <property name="start">0.5</property>
   <property name="disable">1</property>
  </filter>
  <filter id="filter2">
   <property name="iec_scale">0</property>
   <property name="mlt_service">audiolevel</property>
   <property name="dbpeak">1</property>
   <property name="disable">1</property>
  </filter>
 </tractor>
 <chain id="chain0" out="00:03:20.240">
  <property name="length">5007</property>
  <property name="eof">pause</property>
  <property name="resource">/home/fedora/Jupyter/defining-video-cuts/videos/5.mp4</property>
  <property name="mlt_service">avformat-novalidate</property>
  <property name="seekable">1</property>
  <property name="format">3</property>
  <property name="audio_index">1</property>
  <property name="video_index">0</property>
  <property name="vstream">0</property>
  <property name="astream">0</property>
  <property name="kdenlive:id">4</property>
  <property name="kdenlive:clip_type">0</property>
  <property name="kdenlive:file_size">11361817</property>
  <property name="kdenlive:file_hash">4e7074e32c46c0e103b779a3fafc1ffe</property>
  <property name="kdenlive:folderid">-1</property>
  <property name="kdenlive:audio_max1">238</property>
  <property name="meta.media.nb_streams">2</property>
  <property name="meta.media.0.stream.type">video</property>
  <property name="meta.media.0.stream.frame_rate">25</property>
  <property name="meta.media.0.stream.sample_aspect_ratio">0</property>
  <property name="meta.media.0.codec.width">640</property>
  <property name="meta.media.0.codec.height">360</property>
  <property name="meta.media.0.codec.rotate">0</property>
  <property name="meta.media.0.codec.pix_fmt">yuv420p</property>
  <property name="meta.media.0.codec.sample_aspect_ratio">1</property>
  <property name="meta.media.0.codec.colorspace">709</property>
  <property name="meta.media.0.codec.color_trc">1</property>
  <property name="meta.media.0.codec.name">h264</property>
  <property name="meta.media.0.codec.long_name">H.264 / AVC / MPEG-4 AVC / MPEG-4 part 10</property>
  <property name="meta.media.0.codec.bit_rate">355471</property>
  <property name="meta.attr.0.stream.handler_name.markup">ISO Media file produced by Google Inc.</property>
  <property name="meta.attr.0.stream.vendor_id.markup">[0][0][0][0]</property>
  <property name="meta.media.1.stream.type">audio</property>
  <property name="meta.media.1.codec.sample_fmt">fltp</property>
  <property name="meta.media.1.codec.sample_rate">44100</property>
  <property name="meta.media.1.codec.channels">2</property>
  <property name="meta.media.1.codec.name">aac</property>
  <property name="meta.media.1.codec.long_name">AAC (Advanced Audio Coding)</property>
  <property name="meta.media.1.codec.bit_rate">95999</property>
  <property name="meta.attr.1.stream.handler_name.markup">ISO Media file produced by Google Inc.</property>
  <property name="meta.attr.1.stream.vendor_id.markup">[0][0][0][0]</property>
  <property name="meta.attr.major_brand.markup">mp42</property>
  <property name="meta.attr.minor_version.markup">0</property>
  <property name="meta.attr.compatible_brands.markup">isommp42</property>
  <property name="meta.attr.encoder.markup">Google</property>
  <property name="meta.media.sample_aspect_num">1</property>
  <property name="meta.media.sample_aspect_den">1</property>
  <property name="meta.media.frame_rate_num">25</property>
  <property name="meta.media.frame_rate_den">1</property>
  <property name="meta.media.colorspace">709</property>
  <property name="meta.media.color_trc">1</property>
  <property name="meta.media.has_b_frames">0</property>
  <property name="meta.media.width">640</property>
  <property name="meta.media.height">360</property>
  <property name="meta.media.color_range">mpeg</property>
  <property name="xml">was here</property>
  <property name="mute_on_pause">0</property>
  <property name="meta.media.top_field_first">0</property>
  <property name="meta.media.progressive">1</property>
  <property name="set.test_audio">0</property>
  <property name="set.test_image">1</property>
 </chain>
 <playlist id="playlist2">
  <property name="kdenlive:audio_track">1</property>
  <entry producer="chain0" in="00:00:00.000" out="00:00:01.800">
   <property name="kdenlive:id">4</property>
  </entry>
  <entry producer="chain0" in="00:00:01.840" out="00:00:03.920">
   <property name="kdenlive:id">4</property>
  </entry>
  <entry producer="chain0" in="00:00:03.960" out="00:00:05.760">
   <property name="kdenlive:id">4</property>
  </entry>
  <entry producer="chain0" in="00:00:05.800" out="00:00:07.040">
   <property name="kdenlive:id">4</property>
  </entry>
  <entry producer="chain0" in="00:00:07.080" out="00:00:10.720">
   <property name="kdenlive:id">4</property>
  </entry>
  <entry producer="chain0" in="00:00:10.760" out="00:00:12.080">
   <property name="kdenlive:id">4</property>
  </entry>
  <entry producer="chain0" in="00:00:12.120" out="00:00:13.840">
   <property name="kdenlive:id">4</property>
  </entry>
  <entry producer="chain0" in="00:00:13.880" out="00:00:15.200">
   <property name="kdenlive:id">4</property>
  </entry>
  <entry producer="chain0" in="00:00:15.240" out="00:00:17.040">
   <property name="kdenlive:id">4</property>
  </entry>
  <entry producer="chain0" in="00:00:17.080" out="00:00:18.520">
   <property name="kdenlive:id">4</property>
  </entry>
  <entry producer="chain0" in="00:00:18.560" out="00:00:19.480">
   <property name="kdenlive:id">4</property>
  </entry>
  <entry producer="chain0" in="00:00:19.520" out="00:00:21.200">
   <property name="kdenlive:id">4</property>
  </entry>
  <entry producer="chain0" in="00:00:21.240" out="00:00:22.400">
   <property name="kdenlive:id">4</property>
  </entry>
  <entry producer="chain0" in="00:00:22.440" out="00:00:24.320">
   <property name="kdenlive:id">4</property>
  </entry>
  <entry producer="chain0" in="00:00:24.360" out="00:00:25.560">
   <property name="kdenlive:id">4</property>
  </entry>
  <entry producer="chain0" in="00:00:25.600" out="00:00:26.520">
   <property name="kdenlive:id">4</property>
  </entry>
  <entry producer="chain0" in="00:00:26.560" out="00:00:27.440">
   <property name="kdenlive:id">4</property>
  </entry>
  <entry producer="chain0" in="00:00:27.480" out="00:00:28.560">
   <property name="kdenlive:id">4</property>
  </entry>
  <entry producer="chain0" in="00:00:28.600" out="00:00:30.320">
   <property name="kdenlive:id">4</property>
  </entry>
  <entry producer="chain0" in="00:00:30.360" out="00:00:31.560">
   <property name="kdenlive:id">4</property>
  </entry>
  <entry producer="chain0" in="00:00:31.600" out="00:00:33.440">
   <property name="kdenlive:id">4</property>
  </entry>
  <entry producer="chain0" in="00:00:33.480" out="00:00:36.520">
   <property name="kdenlive:id">4</property>
  </entry>
  <entry producer="chain0" in="00:00:36.560" out="00:00:39.480">
   <property name="kdenlive:id">4</property>
  </entry>
  <entry producer="chain0" in="00:00:39.520" out="00:00:42.400">
   <property name="kdenlive:id">4</property>
  </entry>
  <entry producer="chain0" in="00:00:42.440" out="00:00:43.880">
   <property name="kdenlive:id">4</property>
  </entry>
  <entry producer="chain0" in="00:00:43.920" out="00:00:45.640">
   <property name="kdenlive:id">4</property>
  </entry>
  <entry producer="chain0" in="00:00:45.680" out="00:00:46.960">
   <property name="kdenlive:id">4</property>
  </entry>
  <entry producer="chain0" in="00:00:47.000" out="00:00:54.640">
   <property name="kdenlive:id">4</property>
  </entry>
  <entry producer="chain0" in="00:00:54.680" out="00:00:59.680">
   <property name="kdenlive:id">4</property>
  </entry>
  <entry producer="chain0" in="00:00:59.720" out="00:01:00.600">
   <property name="kdenlive:id">4</property>
  </entry>
  <entry producer="chain0" in="00:01:00.640" out="00:01:06.760">
   <property name="kdenlive:id">4</property>
  </entry>
  <entry producer="chain0" in="00:01:06.800" out="00:01:09.840">
   <property name="kdenlive:id">4</property>
  </entry>
  <entry producer="chain0" in="00:01:09.880" out="00:01:11.960">
   <property name="kdenlive:id">4</property>
  </entry>
  <entry producer="chain0" in="00:01:12.000" out="00:01:13.000">
   <property name="kdenlive:id">4</property>
  </entry>
  <entry producer="chain0" in="00:01:13.040" out="00:01:15.760">
   <property name="kdenlive:id">4</property>
  </entry>
  <entry producer="chain0" in="00:01:15.800" out="00:01:18.880">
   <property name="kdenlive:id">4</property>
  </entry>
  <entry producer="chain0" in="00:01:18.920" out="00:01:21.760">
   <property name="kdenlive:id">4</property>
  </entry>
  <entry producer="chain0" in="00:01:21.800" out="00:01:23.760">
   <property name="kdenlive:id">4</property>
  </entry>
  <entry producer="chain0" in="00:01:23.800" out="00:01:25.160">
   <property name="kdenlive:id">4</property>
  </entry>
  <entry producer="chain0" in="00:01:25.200" out="00:01:28.160">
   <property name="kdenlive:id">4</property>
  </entry>
  <entry producer="chain0" in="00:01:28.200" out="00:01:29.720">
   <property name="kdenlive:id">4</property>
  </entry>
  <entry producer="chain0" in="00:01:29.760" out="00:01:31.240">
   <property name="kdenlive:id">4</property>
  </entry>
  <entry producer="chain0" in="00:01:31.280" out="00:01:34.120">
   <property name="kdenlive:id">4</property>
  </entry>
  <entry producer="chain0" in="00:01:34.160" out="00:01:35.640">
   <property name="kdenlive:id">4</property>
  </entry>
  <entry producer="chain0" in="00:01:35.680" out="00:01:37.400">
   <property name="kdenlive:id">4</property>
  </entry>
  <entry producer="chain0" in="00:01:37.440" out="00:01:45.320">
   <property name="kdenlive:id">4</property>
  </entry>
  <entry producer="chain0" in="00:01:45.360" out="00:01:46.280">
   <property name="kdenlive:id">4</property>
  </entry>
  <entry producer="chain0" in="00:01:46.320" out="00:01:48.280">
   <property name="kdenlive:id">4</property>
  </entry>
  <entry producer="chain0" in="00:01:48.320" out="00:01:49.280">
   <property name="kdenlive:id">4</property>
  </entry>
  <entry producer="chain0" in="00:01:49.320" out="00:01:52.440">
   <property name="kdenlive:id">4</property>
  </entry>
  <entry producer="chain0" in="00:01:52.480" out="00:01:55.160">
   <property name="kdenlive:id">4</property>
  </entry>
  <entry producer="chain0" in="00:01:55.200" out="00:01:58.480">
   <property name="kdenlive:id">4</property>
  </entry>
  <entry producer="chain0" in="00:01:58.520" out="00:02:02.560">
   <property name="kdenlive:id">4</property>
  </entry>
  <entry producer="chain0" in="00:02:02.600" out="00:02:04.440">
   <property name="kdenlive:id">4</property>
  </entry>
  <entry producer="chain0" in="00:02:04.480" out="00:02:07.400">
   <property name="kdenlive:id">4</property>
  </entry>
  <entry producer="chain0" in="00:02:07.440" out="00:02:10.560">
   <property name="kdenlive:id">4</property>
  </entry>
  <entry producer="chain0" in="00:02:10.600" out="00:02:13.640">
   <property name="kdenlive:id">4</property>
  </entry>
  <entry producer="chain0" in="00:02:13.680" out="00:02:19.680">
   <property name="kdenlive:id">4</property>
  </entry>
  <entry producer="chain0" in="00:02:19.720" out="00:02:20.800">
   <property name="kdenlive:id">4</property>
  </entry>
  <entry producer="chain0" in="00:02:20.840" out="00:02:22.800">
   <property name="kdenlive:id">4</property>
  </entry>
  <entry producer="chain0" in="00:02:22.840" out="00:02:24.640">
   <property name="kdenlive:id">4</property>
  </entry>
  <entry producer="chain0" in="00:02:24.680" out="00:02:25.800">
   <property name="kdenlive:id">4</property>
  </entry>
  <entry producer="chain0" in="00:02:25.840" out="00:02:26.680">
   <property name="kdenlive:id">4</property>
  </entry>
  <entry producer="chain0" in="00:02:26.720" out="00:02:27.520">
   <property name="kdenlive:id">4</property>
  </entry>
  <entry producer="chain0" in="00:02:27.560" out="00:02:28.680">
   <property name="kdenlive:id">4</property>
  </entry>
  <entry producer="chain0" in="00:02:28.720" out="00:02:30.360">
   <property name="kdenlive:id">4</property>
  </entry>
  <entry producer="chain0" in="00:02:30.400" out="00:02:31.960">
   <property name="kdenlive:id">4</property>
  </entry>
  <entry producer="chain0" in="00:02:32.000" out="00:02:33.480">
   <property name="kdenlive:id">4</property>
  </entry>
  <entry producer="chain0" in="00:02:33.520" out="00:02:34.880">
   <property name="kdenlive:id">4</property>
  </entry>
  <entry producer="chain0" in="00:02:34.920" out="00:02:35.880">
   <property name="kdenlive:id">4</property>
  </entry>
  <entry producer="chain0" in="00:02:35.920" out="00:02:36.960">
   <property name="kdenlive:id">4</property>
  </entry>
  <entry producer="chain0" in="00:02:37.000" out="00:02:38.040">
   <property name="kdenlive:id">4</property>
  </entry>
  <entry producer="chain0" in="00:02:38.080" out="00:02:39.760">
   <property name="kdenlive:id">4</property>
  </entry>
  <entry producer="chain0" in="00:02:39.800" out="00:02:40.960">
   <property name="kdenlive:id">4</property>
  </entry>
  <entry producer="chain0" in="00:02:41.000" out="00:02:43.000">
   <property name="kdenlive:id">4</property>
  </entry>
  <entry producer="chain0" in="00:02:43.040" out="00:02:44.080">
   <property name="kdenlive:id">4</property>
  </entry>
  <entry producer="chain0" in="00:02:44.120" out="00:02:45.160">
   <property name="kdenlive:id">4</property>
  </entry>
  <entry producer="chain0" in="00:02:45.200" out="00:02:46.360">
   <property name="kdenlive:id">4</property>
  </entry>
  <entry producer="chain0" in="00:02:46.400" out="00:02:47.880">
   <property name="kdenlive:id">4</property>
  </entry>
  <entry producer="chain0" in="00:02:47.920" out="00:02:48.960">
   <property name="kdenlive:id">4</property>
  </entry>
  <entry producer="chain0" in="00:02:49.000" out="00:02:50.080">
   <property name="kdenlive:id">4</property>
  </entry>
  <entry producer="chain0" in="00:02:50.120" out="00:02:53.120">
   <property name="kdenlive:id">4</property>
  </entry>
  <entry producer="chain0" in="00:02:53.160" out="00:02:55.440">
   <property name="kdenlive:id">4</property>
  </entry>
  <entry producer="chain0" in="00:02:55.480" out="00:02:59.160">
   <property name="kdenlive:id">4</property>
  </entry>
  <entry producer="chain0" in="00:02:59.200" out="00:03:00.800">
   <property name="kdenlive:id">4</property>
  </entry>
  <entry producer="chain0" in="00:03:00.840" out="00:03:02.120">
   <property name="kdenlive:id">4</property>
  </entry>
  <entry producer="chain0" in="00:03:02.160" out="00:03:04.360">
   <property name="kdenlive:id">4</property>
  </entry>
  <entry producer="chain0" in="00:03:04.400" out="00:03:06.280">
   <property name="kdenlive:id">4</property>
  </entry>
  <entry producer="chain0" in="00:03:06.320" out="00:03:07.960">
   <property name="kdenlive:id">4</property>
  </entry>
  <entry producer="chain0" in="00:03:08.000" out="00:03:09.920">
   <property name="kdenlive:id">4</property>
  </entry>
  <entry producer="chain0" in="00:03:09.960" out="00:03:11.440">
   <property name="kdenlive:id">4</property>
  </entry>
  <entry producer="chain0" in="00:03:11.480" out="00:03:14.200">
   <property name="kdenlive:id">4</property>
  </entry>
  <entry producer="chain0" in="00:03:14.240" out="00:03:18.840">
   <property name="kdenlive:id">4</property>
  </entry>
  <entry producer="chain0" in="00:03:18.880" out="00:03:20.240">
   <property name="kdenlive:id">4</property>
  </entry>
 </playlist>
 <playlist id="playlist3">
  <property name="kdenlive:audio_track">1</property>
 </playlist>
 <tractor id="tractor1" in="00:00:00.000" out="00:03:20.240">
  <property name="kdenlive:audio_track">1</property>
  <property name="kdenlive:trackheight">67</property>
  <property name="kdenlive:timeline_active">1</property>
  <property name="kdenlive:collapsed">0</property>
  <property name="kdenlive:thumbs_format"/>
  <property name="kdenlive:audio_rec"/>
  <track hide="both" producer="playlist2"/>
  <track hide="both" producer="playlist3"/>
  <filter id="filter3">
   <property name="window">75</property>
   <property name="max_gain">20dB</property>
   <property name="mlt_service">volume</property>
   <property name="internal_added">237</property>
   <property name="disable">1</property>
  </filter>
  <filter id="filter4">
   <property name="channel">-1</property>
   <property name="mlt_service">panner</property>
   <property name="internal_added">237</property>
   <property name="start">0.5</property>
   <property name="disable">1</property>
  </filter>
  <filter id="filter5">
   <property name="iec_scale">0</property>
   <property name="mlt_service">audiolevel</property>
   <property name="dbpeak">1</property>
   <property name="disable">1</property>
  </filter>
 </tractor>
 <chain id="chain1" out="00:03:20.240">
  <property name="length">5007</property>
  <property name="eof">pause</property>
  <property name="resource">/home/fedora/Jupyter/defining-video-cuts/videos/5.mp4</property>
  <property name="mlt_service">avformat-novalidate</property>
  <property name="seekable">1</property>
  <property name="format">3</property>
  <property name="audio_index">1</property>
  <property name="video_index">0</property>
  <property name="vstream">0</property>
  <property name="astream">0</property>
  <property name="kdenlive:id">4</property>
  <property name="kdenlive:clip_type">0</property>
  <property name="kdenlive:file_size">11361817</property>
  <property name="kdenlive:file_hash">4e7074e32c46c0e103b779a3fafc1ffe</property>
  <property name="kdenlive:folderid">-1</property>
  <property name="kdenlive:audio_max1">238</property>
  <property name="meta.media.nb_streams">2</property>
  <property name="meta.media.0.stream.type">video</property>
  <property name="meta.media.0.stream.frame_rate">25</property>
  <property name="meta.media.0.stream.sample_aspect_ratio">0</property>
  <property name="meta.media.0.codec.width">640</property>
  <property name="meta.media.0.codec.height">360</property>
  <property name="meta.media.0.codec.rotate">0</property>
  <property name="meta.media.0.codec.pix_fmt">yuv420p</property>
  <property name="meta.media.0.codec.sample_aspect_ratio">1</property>
  <property name="meta.media.0.codec.colorspace">709</property>
  <property name="meta.media.0.codec.color_trc">1</property>
  <property name="meta.media.0.codec.name">h264</property>
  <property name="meta.media.0.codec.long_name">H.264 / AVC / MPEG-4 AVC / MPEG-4 part 10</property>
  <property name="meta.media.0.codec.bit_rate">355471</property>
  <property name="meta.attr.0.stream.handler_name.markup">ISO Media file produced by Google Inc.</property>
  <property name="meta.attr.0.stream.vendor_id.markup">[0][0][0][0]</property>
  <property name="meta.media.1.stream.type">audio</property>
  <property name="meta.media.1.codec.sample_fmt">fltp</property>
  <property name="meta.media.1.codec.sample_rate">44100</property>
  <property name="meta.media.1.codec.channels">2</property>
  <property name="meta.media.1.codec.name">aac</property>
  <property name="meta.media.1.codec.long_name">AAC (Advanced Audio Coding)</property>
  <property name="meta.media.1.codec.bit_rate">95999</property>
  <property name="meta.attr.1.stream.handler_name.markup">ISO Media file produced by Google Inc.</property>
  <property name="meta.attr.1.stream.vendor_id.markup">[0][0][0][0]</property>
  <property name="meta.attr.major_brand.markup">mp42</property>
  <property name="meta.attr.minor_version.markup">0</property>
  <property name="meta.attr.compatible_brands.markup">isommp42</property>
  <property name="meta.attr.encoder.markup">Google</property>
  <property name="meta.media.sample_aspect_num">1</property>
  <property name="meta.media.sample_aspect_den">1</property>
  <property name="meta.media.frame_rate_num">25</property>
  <property name="meta.media.frame_rate_den">1</property>
  <property name="meta.media.colorspace">709</property>
  <property name="meta.media.color_trc">1</property>
  <property name="meta.media.has_b_frames">0</property>
  <property name="meta.media.width">640</property>
  <property name="meta.media.height">360</property>
  <property name="meta.media.color_range">mpeg</property>
  <property name="xml">was here</property>
  <property name="mute_on_pause">0</property>
  <property name="meta.media.top_field_first">0</property>
  <property name="meta.media.progressive">1</property>
  <property name="set.test_audio">1</property>
  <property name="set.test_image">0</property>
 </chain>
 <playlist id="playlist4">
  <entry producer="chain1" in="00:00:00.000" out="00:00:01.800">
   <property name="kdenlive:id">4</property>
  </entry>
  <entry producer="chain1" in="00:00:01.840" out="00:00:03.920">
   <property name="kdenlive:id">4</property>
  </entry>
  <entry producer="chain1" in="00:00:03.960" out="00:00:05.760">
   <property name="kdenlive:id">4</property>
  </entry>
  <entry producer="chain1" in="00:00:05.800" out="00:00:07.040">
   <property name="kdenlive:id">4</property>
  </entry>
  <entry producer="chain1" in="00:00:07.080" out="00:00:10.720">
   <property name="kdenlive:id">4</property>
  </entry>
  <entry producer="chain1" in="00:00:10.760" out="00:00:12.080">
   <property name="kdenlive:id">4</property>
  </entry>
  <entry producer="chain1" in="00:00:12.120" out="00:00:13.840">
   <property name="kdenlive:id">4</property>
  </entry>
  <entry producer="chain1" in="00:00:13.880" out="00:00:15.200">
   <property name="kdenlive:id">4</property>
  </entry>
  <entry producer="chain1" in="00:00:15.240" out="00:00:17.040">
   <property name="kdenlive:id">4</property>
  </entry>
  <entry producer="chain1" in="00:00:17.080" out="00:00:18.520">
   <property name="kdenlive:id">4</property>
  </entry>
  <entry producer="chain1" in="00:00:18.560" out="00:00:19.480">
   <property name="kdenlive:id">4</property>
  </entry>
  <entry producer="chain1" in="00:00:19.520" out="00:00:21.200">
   <property name="kdenlive:id">4</property>
  </entry>
  <entry producer="chain1" in="00:00:21.240" out="00:00:22.400">
   <property name="kdenlive:id">4</property>
  </entry>
  <entry producer="chain1" in="00:00:22.440" out="00:00:24.320">
   <property name="kdenlive:id">4</property>
  </entry>
  <entry producer="chain1" in="00:00:24.360" out="00:00:25.560">
   <property name="kdenlive:id">4</property>
  </entry>
  <entry producer="chain1" in="00:00:25.600" out="00:00:26.520">
   <property name="kdenlive:id">4</property>
  </entry>
  <entry producer="chain1" in="00:00:26.560" out="00:00:27.440">
   <property name="kdenlive:id">4</property>
  </entry>
  <entry producer="chain1" in="00:00:27.480" out="00:00:28.560">
   <property name="kdenlive:id">4</property>
  </entry>
  <entry producer="chain1" in="00:00:28.600" out="00:00:30.320">
   <property name="kdenlive:id">4</property>
  </entry>
  <entry producer="chain1" in="00:00:30.360" out="00:00:31.560">
   <property name="kdenlive:id">4</property>
  </entry>
  <entry producer="chain1" in="00:00:31.600" out="00:00:33.440">
   <property name="kdenlive:id">4</property>
  </entry>
  <entry producer="chain1" in="00:00:33.480" out="00:00:36.520">
   <property name="kdenlive:id">4</property>
  </entry>
  <entry producer="chain1" in="00:00:36.560" out="00:00:39.480">
   <property name="kdenlive:id">4</property>
  </entry>
  <entry producer="chain1" in="00:00:39.520" out="00:00:42.400">
   <property name="kdenlive:id">4</property>
  </entry>
  <entry producer="chain1" in="00:00:42.440" out="00:00:43.880">
   <property name="kdenlive:id">4</property>
  </entry>
  <entry producer="chain1" in="00:00:43.920" out="00:00:45.640">
   <property name="kdenlive:id">4</property>
  </entry>
  <entry producer="chain1" in="00:00:45.680" out="00:00:46.960">
   <property name="kdenlive:id">4</property>
  </entry>
  <entry producer="chain1" in="00:00:47.000" out="00:00:54.640">
   <property name="kdenlive:id">4</property>
  </entry>
  <entry producer="chain1" in="00:00:54.680" out="00:00:59.680">
   <property name="kdenlive:id">4</property>
  </entry>
  <entry producer="chain1" in="00:00:59.720" out="00:01:00.600">
   <property name="kdenlive:id">4</property>
  </entry>
  <entry producer="chain1" in="00:01:00.640" out="00:01:06.760">
   <property name="kdenlive:id">4</property>
  </entry>
  <entry producer="chain1" in="00:01:06.800" out="00:01:09.840">
   <property name="kdenlive:id">4</property>
  </entry>
  <entry producer="chain1" in="00:01:09.880" out="00:01:11.960">
   <property name="kdenlive:id">4</property>
  </entry>
  <entry producer="chain1" in="00:01:12.000" out="00:01:13.000">
   <property name="kdenlive:id">4</property>
  </entry>
  <entry producer="chain1" in="00:01:13.040" out="00:01:15.760">
   <property name="kdenlive:id">4</property>
  </entry>
  <entry producer="chain1" in="00:01:15.800" out="00:01:18.880">
   <property name="kdenlive:id">4</property>
  </entry>
  <entry producer="chain1" in="00:01:18.920" out="00:01:21.760">
   <property name="kdenlive:id">4</property>
  </entry>
  <entry producer="chain1" in="00:01:21.800" out="00:01:23.760">
   <property name="kdenlive:id">4</property>
  </entry>
  <entry producer="chain1" in="00:01:23.800" out="00:01:25.160">
   <property name="kdenlive:id">4</property>
  </entry>
  <entry producer="chain1" in="00:01:25.200" out="00:01:28.160">
   <property name="kdenlive:id">4</property>
  </entry>
  <entry producer="chain1" in="00:01:28.200" out="00:01:29.720">
   <property name="kdenlive:id">4</property>
  </entry>
  <entry producer="chain1" in="00:01:29.760" out="00:01:31.240">
   <property name="kdenlive:id">4</property>
  </entry>
  <entry producer="chain1" in="00:01:31.280" out="00:01:34.120">
   <property name="kdenlive:id">4</property>
  </entry>
  <entry producer="chain1" in="00:01:34.160" out="00:01:35.640">
   <property name="kdenlive:id">4</property>
  </entry>
  <entry producer="chain1" in="00:01:35.680" out="00:01:37.400">
   <property name="kdenlive:id">4</property>
  </entry>
  <entry producer="chain1" in="00:01:37.440" out="00:01:45.320">
   <property name="kdenlive:id">4</property>
  </entry>
  <entry producer="chain1" in="00:01:45.360" out="00:01:46.280">
   <property name="kdenlive:id">4</property>
  </entry>
  <entry producer="chain1" in="00:01:46.320" out="00:01:48.280">
   <property name="kdenlive:id">4</property>
  </entry>
  <entry producer="chain1" in="00:01:48.320" out="00:01:49.280">
   <property name="kdenlive:id">4</property>
  </entry>
  <entry producer="chain1" in="00:01:49.320" out="00:01:52.440">
   <property name="kdenlive:id">4</property>
  </entry>
  <entry producer="chain1" in="00:01:52.480" out="00:01:55.160">
   <property name="kdenlive:id">4</property>
  </entry>
  <entry producer="chain1" in="00:01:55.200" out="00:01:58.480">
   <property name="kdenlive:id">4</property>
  </entry>
  <entry producer="chain1" in="00:01:58.520" out="00:02:02.560">
   <property name="kdenlive:id">4</property>
  </entry>
  <entry producer="chain1" in="00:02:02.600" out="00:02:04.440">
   <property name="kdenlive:id">4</property>
  </entry>
  <entry producer="chain1" in="00:02:04.480" out="00:02:07.400">
   <property name="kdenlive:id">4</property>
  </entry>
  <entry producer="chain1" in="00:02:07.440" out="00:02:10.560">
   <property name="kdenlive:id">4</property>
  </entry>
  <entry producer="chain1" in="00:02:10.600" out="00:02:13.640">
   <property name="kdenlive:id">4</property>
  </entry>
  <entry producer="chain1" in="00:02:13.680" out="00:02:19.680">
   <property name="kdenlive:id">4</property>
  </entry>
  <entry producer="chain1" in="00:02:19.720" out="00:02:20.800">
   <property name="kdenlive:id">4</property>
  </entry>
  <entry producer="chain1" in="00:02:20.840" out="00:02:22.800">
   <property name="kdenlive:id">4</property>
  </entry>
  <entry producer="chain1" in="00:02:22.840" out="00:02:24.640">
   <property name="kdenlive:id">4</property>
  </entry>
  <entry producer="chain1" in="00:02:24.680" out="00:02:25.800">
   <property name="kdenlive:id">4</property>
  </entry>
  <entry producer="chain1" in="00:02:25.840" out="00:02:26.680">
   <property name="kdenlive:id">4</property>
  </entry>
  <entry producer="chain1" in="00:02:26.720" out="00:02:27.520">
   <property name="kdenlive:id">4</property>
  </entry>
  <entry producer="chain1" in="00:02:27.560" out="00:02:28.680">
   <property name="kdenlive:id">4</property>
  </entry>
  <entry producer="chain1" in="00:02:28.720" out="00:02:30.360">
   <property name="kdenlive:id">4</property>
  </entry>
  <entry producer="chain1" in="00:02:30.400" out="00:02:31.960">
   <property name="kdenlive:id">4</property>
  </entry>
  <entry producer="chain1" in="00:02:32.000" out="00:02:33.480">
   <property name="kdenlive:id">4</property>
  </entry>
  <entry producer="chain1" in="00:02:33.520" out="00:02:34.880">
   <property name="kdenlive:id">4</property>
  </entry>
  <entry producer="chain1" in="00:02:34.920" out="00:02:35.880">
   <property name="kdenlive:id">4</property>
  </entry>
  <entry producer="chain1" in="00:02:35.920" out="00:02:36.960">
   <property name="kdenlive:id">4</property>
  </entry>
  <entry producer="chain1" in="00:02:37.000" out="00:02:38.040">
   <property name="kdenlive:id">4</property>
  </entry>
  <entry producer="chain1" in="00:02:38.080" out="00:02:39.760">
   <property name="kdenlive:id">4</property>
  </entry>
  <entry producer="chain1" in="00:02:39.800" out="00:02:40.960">
   <property name="kdenlive:id">4</property>
  </entry>
  <entry producer="chain1" in="00:02:41.000" out="00:02:43.000">
   <property name="kdenlive:id">4</property>
  </entry>
  <entry producer="chain1" in="00:02:43.040" out="00:02:44.080">
   <property name="kdenlive:id">4</property>
  </entry>
  <entry producer="chain1" in="00:02:44.120" out="00:02:45.160">
   <property name="kdenlive:id">4</property>
  </entry>
  <entry producer="chain1" in="00:02:45.200" out="00:02:46.360">
   <property name="kdenlive:id">4</property>
  </entry>
  <entry producer="chain1" in="00:02:46.400" out="00:02:47.880">
   <property name="kdenlive:id">4</property>
  </entry>
  <entry producer="chain1" in="00:02:47.920" out="00:02:48.960">
   <property name="kdenlive:id">4</property>
  </entry>
  <entry producer="chain1" in="00:02:49.000" out="00:02:50.080">
   <property name="kdenlive:id">4</property>
  </entry>
  <entry producer="chain1" in="00:02:50.120" out="00:02:53.120">
   <property name="kdenlive:id">4</property>
  </entry>
  <entry producer="chain1" in="00:02:53.160" out="00:02:55.440">
   <property name="kdenlive:id">4</property>
  </entry>
  <entry producer="chain1" in="00:02:55.480" out="00:02:59.160">
   <property name="kdenlive:id">4</property>
  </entry>
  <entry producer="chain1" in="00:02:59.200" out="00:03:00.800">
   <property name="kdenlive:id">4</property>
  </entry>
  <entry producer="chain1" in="00:03:00.840" out="00:03:02.120">
   <property name="kdenlive:id">4</property>
  </entry>
  <entry producer="chain1" in="00:03:02.160" out="00:03:04.360">
   <property name="kdenlive:id">4</property>
  </entry>
  <entry producer="chain1" in="00:03:04.400" out="00:03:06.280">
   <property name="kdenlive:id">4</property>
  </entry>
  <entry producer="chain1" in="00:03:06.320" out="00:03:07.960">
   <property name="kdenlive:id">4</property>
  </entry>
  <entry producer="chain1" in="00:03:08.000" out="00:03:09.920">
   <property name="kdenlive:id">4</property>
  </entry>
  <entry producer="chain1" in="00:03:09.960" out="00:03:11.440">
   <property name="kdenlive:id">4</property>
  </entry>
  <entry producer="chain1" in="00:03:11.480" out="00:03:14.200">
   <property name="kdenlive:id">4</property>
  </entry>
  <entry producer="chain1" in="00:03:14.240" out="00:03:18.840">
   <property name="kdenlive:id">4</property>
  </entry>
  <entry producer="chain1" in="00:03:18.880" out="00:03:20.240">
   <property name="kdenlive:id">4</property>
  </entry>
 </playlist>
 <playlist id="playlist5"/>
 <tractor id="tractor2" in="00:00:00.000" out="00:03:20.240">
  <property name="kdenlive:trackheight">67</property>
  <property name="kdenlive:timeline_active">1</property>
  <property name="kdenlive:collapsed">0</property>
  <property name="kdenlive:thumbs_format"/>
  <property name="kdenlive:audio_rec"/>
  <track hide="audio" producer="playlist4"/>
  <track hide="audio" producer="playlist5"/>
 </tractor>
 <playlist id="playlist6"/>
 <playlist id="playlist7"/>
 <tractor id="tractor3" in="00:00:00.000">
  <property name="kdenlive:trackheight">67</property>
  <property name="kdenlive:timeline_active">1</property>
  <property name="kdenlive:collapsed">0</property>
  <property name="kdenlive:thumbs_format"/>
  <property name="kdenlive:audio_rec"/>
  <track hide="audio" producer="playlist6"/>
  <track hide="audio" producer="playlist7"/>
 </tractor>
 <tractor id="{5074b16d-4e50-4851-898a-372880a18cd1}" in="00:00:00.000" out="00:23:20.280">
  <property name="kdenlive:uuid">{5074b16d-4e50-4851-898a-372880a18cd1}</property>
  <property name="kdenlive:clipname">Sequence 1</property>
  <property name="kdenlive:sequenceproperties.hasAudio">1</property>
  <property name="kdenlive:sequenceproperties.hasVideo">1</property>
  <property name="kdenlive:sequenceproperties.activeTrack">2</property>
  <property name="kdenlive:sequenceproperties.tracksCount">4</property>
  <property name="kdenlive:sequenceproperties.documentuuid">{5074b16d-4e50-4851-898a-372880a18cd1}</property>
  <property name="kdenlive:duration">00:03:20:07</property>
  <property name="kdenlive:maxduration">5007</property>
  <property name="kdenlive:producer_type">17</property>
  <property name="kdenlive:id">3</property>
  <property name="kdenlive:clip_type">0</property>
  <property name="kdenlive:file_hash">83e1258aa8b34ae77e2e43e37be36c93</property>
  <property name="kdenlive:folderid">2</property>
  <property name="kdenlive:sequenceproperties.audioTarget">1</property>
  <property name="kdenlive:sequenceproperties.tracks">4</property>
  <property name="kdenlive:sequenceproperties.verticalzoom">1</property>
  <property name="kdenlive:sequenceproperties.videoTarget">2</property>
  <property name="kdenlive:sequenceproperties.zonein">0</property>
  <property name="kdenlive:sequenceproperties.zoneout">5007</property>
  <property name="kdenlive:sequenceproperties.zoom">9</property>
  <property name="kdenlive:sequenceproperties.groups">[
    {
        "children": [
            {
                "data": "2:3342",
                "leaf": "clip",
                "type": "Leaf"
            },
            {
                "data": "1:3342",
                "leaf": "clip",
                "type": "Leaf"
            }
        ],
        "type": "AVSplit"
    },
    {
        "children": [
            {
                "data": "1:3265",
                "leaf": "clip",
                "type": "Leaf"
            },
            {
                "data": "2:3265",
                "leaf": "clip",
                "type": "Leaf"
            }
        ],
        "type": "AVSplit"
    },
    {
        "children": [
            {
                "data": "2:3186",
                "leaf": "clip",
                "type": "Leaf"
            },
            {
                "data": "1:3186",
                "leaf": "clip",
                "type": "Leaf"
            }
        ],
        "type": "AVSplit"
    },
    {
        "children": [
            {
                "data": "1:3112",
                "leaf": "clip",
                "type": "Leaf"
            },
            {
                "data": "2:3112",
                "leaf": "clip",
                "type": "Leaf"
            }
        ],
        "type": "AVSplit"
    },
    {
        "children": [
            {
                "data": "2:3065",
                "leaf": "clip",
                "type": "Leaf"
            },
            {
                "data": "1:3065",
                "leaf": "clip",
                "type": "Leaf"
            }
        ],
        "type": "AVSplit"
    },
    {
        "children": [
            {
                "data": "1:2963",
                "leaf": "clip",
                "type": "Leaf"
            },
            {
                "data": "2:2963",
                "leaf": "clip",
                "type": "Leaf"
            }
        ],
        "type": "AVSplit"
    },
    {
        "children": [
            {
                "data": "2:2880",
                "leaf": "clip",
                "type": "Leaf"
            },
            {
                "data": "1:2880",
                "leaf": "clip",
                "type": "Leaf"
            }
        ],
        "type": "AVSplit"
    },
    {
        "children": [
            {
                "data": "1:2812",
                "leaf": "clip",
                "type": "Leaf"
            },
            {
                "data": "2:2812",
                "leaf": "clip",
                "type": "Leaf"
            }
        ],
        "type": "AVSplit"
    },
    {
        "children": [
            {
                "data": "2:2733",
                "leaf": "clip",
                "type": "Leaf"
            },
            {
                "data": "1:2733",
                "leaf": "clip",
                "type": "Leaf"
            }
        ],
        "type": "AVSplit"
    },
    {
        "children": [
            {
                "data": "1:2708",
                "leaf": "clip",
                "type": "Leaf"
            },
            {
                "data": "2:2708",
                "leaf": "clip",
                "type": "Leaf"
            }
        ],
        "type": "AVSplit"
    },
    {
        "children": [
            {
                "data": "2:2658",
                "leaf": "clip",
                "type": "Leaf"
            },
            {
                "data": "1:2658",
                "leaf": "clip",
                "type": "Leaf"
            }
        ],
        "type": "AVSplit"
    },
    {
        "children": [
            {
                "data": "1:2634",
                "leaf": "clip",
                "type": "Leaf"
            },
            {
                "data": "2:2634",
                "leaf": "clip",
                "type": "Leaf"
            }
        ],
        "type": "AVSplit"
    },
    {
        "children": [
            {
                "data": "2:2436",
                "leaf": "clip",
                "type": "Leaf"
            },
            {
                "data": "1:2436",
                "leaf": "clip",
                "type": "Leaf"
            }
        ],
        "type": "AVSplit"
    },
    {
        "children": [
            {
                "data": "1:2392",
                "leaf": "clip",
                "type": "Leaf"
            },
            {
                "data": "2:2392",
                "leaf": "clip",
                "type": "Leaf"
            }
        ],
        "type": "AVSplit"
    },
    {
        "children": [
            {
                "data": "2:2354",
                "leaf": "clip",
                "type": "Leaf"
            },
            {
                "data": "1:2354",
                "leaf": "clip",
                "type": "Leaf"
            }
        ],
        "type": "AVSplit"
    },
    {
        "children": [
            {
                "data": "1:2282",
                "leaf": "clip",
                "type": "Leaf"
            },
            {
                "data": "2:2282",
                "leaf": "clip",
                "type": "Leaf"
            }
        ],
        "type": "AVSplit"
    },
    {
        "children": [
            {
                "data": "2:2244",
                "leaf": "clip",
                "type": "Leaf"
            },
            {
                "data": "1:2244",
                "leaf": "clip",
                "type": "Leaf"
            }
        ],
        "type": "AVSplit"
    },
    {
        "children": [
            {
                "data": "1:2205",
                "leaf": "clip",
                "type": "Leaf"
            },
            {
                "data": "2:2205",
                "leaf": "clip",
                "type": "Leaf"
            }
        ],
        "type": "AVSplit"
    },
    {
        "children": [
            {
                "data": "2:2130",
                "leaf": "clip",
                "type": "Leaf"
            },
            {
                "data": "1:2130",
                "leaf": "clip",
                "type": "Leaf"
            }
        ],
        "type": "AVSplit"
    },
    {
        "children": [
            {
                "data": "1:2095",
                "leaf": "clip",
                "type": "Leaf"
            },
            {
                "data": "2:2095",
                "leaf": "clip",
                "type": "Leaf"
            }
        ],
        "type": "AVSplit"
    },
    {
        "children": [
            {
                "data": "2:2045",
                "leaf": "clip",
                "type": "Leaf"
            },
            {
                "data": "1:2045",
                "leaf": "clip",
                "type": "Leaf"
            }
        ],
        "type": "AVSplit"
    },
    {
        "children": [
            {
                "data": "1:1973",
                "leaf": "clip",
                "type": "Leaf"
            },
            {
                "data": "2:1973",
                "leaf": "clip",
                "type": "Leaf"
            }
        ],
        "type": "AVSplit"
    },
    {
        "children": [
            {
                "data": "2:1895",
                "leaf": "clip",
                "type": "Leaf"
            },
            {
                "data": "1:1895",
                "leaf": "clip",
                "type": "Leaf"
            }
        ],
        "type": "AVSplit"
    },
    {
        "children": [
            {
                "data": "1:1826",
                "leaf": "clip",
                "type": "Leaf"
            },
            {
                "data": "2:1826",
                "leaf": "clip",
                "type": "Leaf"
            }
        ],
        "type": "AVSplit"
    },
    {
        "children": [
            {
                "data": "2:1800",
                "leaf": "clip",
                "type": "Leaf"
            },
            {
                "data": "1:1800",
                "leaf": "clip",
                "type": "Leaf"
            }
        ],
        "type": "AVSplit"
    },
    {
        "children": [
            {
                "data": "1:1747",
                "leaf": "clip",
                "type": "Leaf"
            },
            {
                "data": "2:1747",
                "leaf": "clip",
                "type": "Leaf"
            }
        ],
        "type": "AVSplit"
    },
    {
        "children": [
            {
                "data": "2:1670",
                "leaf": "clip",
                "type": "Leaf"
            },
            {
                "data": "1:1670",
                "leaf": "clip",
                "type": "Leaf"
            }
        ],
        "type": "AVSplit"
    },
    {
        "children": [
            {
                "data": "1:1516",
                "leaf": "clip",
                "type": "Leaf"
            },
            {
                "data": "2:1516",
                "leaf": "clip",
                "type": "Leaf"
            }
        ],
        "type": "AVSplit"
    },
    {
        "children": [
            {
                "data": "2:1493",
                "leaf": "clip",
                "type": "Leaf"
            },
            {
                "data": "1:1493",
                "leaf": "clip",
                "type": "Leaf"
            }
        ],
        "type": "AVSplit"
    },
    {
        "children": [
            {
                "data": "1:1367",
                "leaf": "clip",
                "type": "Leaf"
            },
            {
                "data": "2:1367",
                "leaf": "clip",
                "type": "Leaf"
            }
        ],
        "type": "AVSplit"
    },
    {
        "children": [
            {
                "data": "2:488",
                "leaf": "clip",
                "type": "Leaf"
            },
            {
                "data": "1:488",
                "leaf": "clip",
                "type": "Leaf"
            }
        ],
        "type": "AVSplit"
    },
    {
        "children": [
            {
                "data": "1:464",
                "leaf": "clip",
                "type": "Leaf"
            },
            {
                "data": "2:464",
                "leaf": "clip",
                "type": "Leaf"
            }
        ],
        "type": "AVSplit"
    },
    {
        "children": [
            {
                "data": "2:427",
                "leaf": "clip",
                "type": "Leaf"
            },
            {
                "data": "1:427",
                "leaf": "clip",
                "type": "Leaf"
            }
        ],
        "type": "AVSplit"
    },
    {
        "children": [
            {
                "data": "1:381",
                "leaf": "clip",
                "type": "Leaf"
            },
            {
                "data": "2:381",
                "leaf": "clip",
                "type": "Leaf"
            }
        ],
        "type": "AVSplit"
    },
    {
        "children": [
            {
                "data": "2:347",
                "leaf": "clip",
                "type": "Leaf"
            },
            {
                "data": "1:347",
                "leaf": "clip",
                "type": "Leaf"
            }
        ],
        "type": "AVSplit"
    },
    {
        "children": [
            {
                "data": "1:3689",
                "leaf": "clip",
                "type": "Leaf"
            },
            {
                "data": "2:3689",
                "leaf": "clip",
                "type": "Leaf"
            }
        ],
        "type": "AVSplit"
    },
    {
        "children": [
            {
                "data": "2:269",
                "leaf": "clip",
                "type": "Leaf"
            },
            {
                "data": "1:269",
                "leaf": "clip",
                "type": "Leaf"
            }
        ],
        "type": "AVSplit"
    },
    {
        "children": [
            {
                "data": "2:3718",
                "leaf": "clip",
                "type": "Leaf"
            },
            {
                "data": "1:3718",
                "leaf": "clip",
                "type": "Leaf"
            }
        ],
        "type": "AVSplit"
    },
    {
        "children": [
            {
                "data": "1:303",
                "leaf": "clip",
                "type": "Leaf"
            },
            {
                "data": "2:303",
                "leaf": "clip",
                "type": "Leaf"
            }
        ],
        "type": "AVSplit"
    },
    {
        "children": [
            {
                "data": "1:3760",
                "leaf": "clip",
                "type": "Leaf"
            },
            {
                "data": "2:3760",
                "leaf": "clip",
                "type": "Leaf"
            }
        ],
        "type": "AVSplit"
    },
    {
        "children": [
            {
                "data": "2:3800",
                "leaf": "clip",
                "type": "Leaf"
            },
            {
                "data": "1:3800",
                "leaf": "clip",
                "type": "Leaf"
            }
        ],
        "type": "AVSplit"
    },
    {
        "children": [
            {
                "data": "1:3838",
                "leaf": "clip",
                "type": "Leaf"
            },
            {
                "data": "2:3838",
                "leaf": "clip",
                "type": "Leaf"
            }
        ],
        "type": "AVSplit"
    },
    {
        "children": [
            {
                "data": "2:3873",
                "leaf": "clip",
                "type": "Leaf"
            },
            {
                "data": "1:3873",
                "leaf": "clip",
                "type": "Leaf"
            }
        ],
        "type": "AVSplit"
    },
    {
        "children": [
            {
                "data": "1:3898",
                "leaf": "clip",
                "type": "Leaf"
            },
            {
                "data": "2:3898",
                "leaf": "clip",
                "type": "Leaf"
            }
        ],
        "type": "AVSplit"
    },
    {
        "children": [
            {
                "data": "2:3925",
                "leaf": "clip",
                "type": "Leaf"
            },
            {
                "data": "1:3925",
                "leaf": "clip",
                "type": "Leaf"
            }
        ],
        "type": "AVSplit"
    },
    {
        "children": [
            {
                "data": "1:531",
                "leaf": "clip",
                "type": "Leaf"
            },
            {
                "data": "2:531",
                "leaf": "clip",
                "type": "Leaf"
            }
        ],
        "type": "AVSplit"
    },
    {
        "children": [
            {
                "data": "1:3952",
                "leaf": "clip",
                "type": "Leaf"
            },
            {
                "data": "2:3952",
                "leaf": "clip",
                "type": "Leaf"
            }
        ],
        "type": "AVSplit"
    },
    {
        "children": [
            {
                "data": "2:561",
                "leaf": "clip",
                "type": "Leaf"
            },
            {
                "data": "1:561",
                "leaf": "clip",
                "type": "Leaf"
            }
        ],
        "type": "AVSplit"
    },
    {
        "children": [
            {
                "data": "2:3995",
                "leaf": "clip",
                "type": "Leaf"
            },
            {
                "data": "1:3995",
                "leaf": "clip",
                "type": "Leaf"
            }
        ],
        "type": "AVSplit"
    },
    {
        "children": [
            {
                "data": "1:609",
                "leaf": "clip",
                "type": "Leaf"
            },
            {
                "data": "2:609",
                "leaf": "clip",
                "type": "Leaf"
            }
        ],
        "type": "AVSplit"
    },
    {
        "children": [
            {
                "data": "1:4025",
                "leaf": "clip",
                "type": "Leaf"
            },
            {
                "data": "2:4025",
                "leaf": "clip",
                "type": "Leaf"
            }
        ],
        "type": "AVSplit"
    },
    {
        "children": [
            {
                "data": "2:640",
                "leaf": "clip",
                "type": "Leaf"
            },
            {
                "data": "1:640",
                "leaf": "clip",
                "type": "Leaf"
            }
        ],
        "type": "AVSplit"
    },
    {
        "children": [
            {
                "data": "2:4076",
                "leaf": "clip",
                "type": "Leaf"
            },
            {
                "data": "1:4076",
                "leaf": "clip",
                "type": "Leaf"
            }
        ],
        "type": "AVSplit"
    },
    {
        "children": [
            {
                "data": "1:664",
                "leaf": "clip",
                "type": "Leaf"
            },
            {
                "data": "2:664",
                "leaf": "clip",
                "type": "Leaf"
            }
        ],
        "type": "AVSplit"
    },
    {
        "children": [
            {
                "data": "1:4103",
                "leaf": "clip",
                "type": "Leaf"
            },
            {
                "data": "2:4103",
                "leaf": "clip",
                "type": "Leaf"
            }
        ],
        "type": "AVSplit"
    },
    {
        "children": [
            {
                "data": "2:687",
                "leaf": "clip",
                "type": "Leaf"
            },
            {
                "data": "1:687",
                "leaf": "clip",
                "type": "Leaf"
            }
        ],
        "type": "AVSplit"
    },
    {
        "children": [
            {
                "data": "2:4130",
                "leaf": "clip",
                "type": "Leaf"
            },
            {
                "data": "1:4130",
                "leaf": "clip",
                "type": "Leaf"
            }
        ],
        "type": "AVSplit"
    },
    {
        "children": [
            {
                "data": "1:715",
                "leaf": "clip",
                "type": "Leaf"
            },
            {
                "data": "2:715",
                "leaf": "clip",
                "type": "Leaf"
            }
        ],
        "type": "AVSplit"
    },
    {
        "children": [
            {
                "data": "1:4160",
                "leaf": "clip",
                "type": "Leaf"
            },
            {
                "data": "2:4160",
                "leaf": "clip",
                "type": "Leaf"
            }
        ],
        "type": "AVSplit"
    },
    {
        "children": [
            {
                "data": "2:759",
                "leaf": "clip",
                "type": "Leaf"
            },
            {
                "data": "1:759",
                "leaf": "clip",
                "type": "Leaf"
            }
        ],
        "type": "AVSplit"
    },
    {
        "children": [
            {
                "data": "2:4198",
                "leaf": "clip",
                "type": "Leaf"
            },
            {
                "data": "1:4198",
                "leaf": "clip",
                "type": "Leaf"
            }
        ],
        "type": "AVSplit"
    },
    {
        "children": [
            {
                "data": "1:790",
                "leaf": "clip",
                "type": "Leaf"
            },
            {
                "data": "2:790",
                "leaf": "clip",
                "type": "Leaf"
            }
        ],
        "type": "AVSplit"
    },
    {
        "children": [
            {
                "data": "1:4856",
                "leaf": "clip",
                "type": "Leaf"
            },
            {
                "data": "2:4856",
                "leaf": "clip",
                "type": "Leaf"
            }
        ],
        "type": "AVSplit"
    },
    {
        "children": [
            {
                "data": "2:4787",
                "leaf": "clip",
                "type": "Leaf"
            },
            {
                "data": "1:4787",
                "leaf": "clip",
                "type": "Leaf"
            }
        ],
        "type": "AVSplit"
    },
    {
        "children": [
            {
                "data": "1:4749",
                "leaf": "clip",
                "type": "Leaf"
            },
            {
                "data": "2:4749",
                "leaf": "clip",
                "type": "Leaf"
            }
        ],
        "type": "AVSplit"
    },
    {
        "children": [
            {
                "data": "2:4700",
                "leaf": "clip",
                "type": "Leaf"
            },
            {
                "data": "1:4700",
                "leaf": "clip",
                "type": "Leaf"
            }
        ],
        "type": "AVSplit"
    },
    {
        "children": [
            {
                "data": "1:4658",
                "leaf": "clip",
                "type": "Leaf"
            },
            {
                "data": "2:4658",
                "leaf": "clip",
                "type": "Leaf"
            }
        ],
        "type": "AVSplit"
    },
    {
        "children": [
            {
                "data": "2:4610",
                "leaf": "clip",
                "type": "Leaf"
            },
            {
                "data": "1:4610",
                "leaf": "clip",
                "type": "Leaf"
            }
        ],
        "type": "AVSplit"
    },
    {
        "children": [
            {
                "data": "1:4554",
                "leaf": "clip",
                "type": "Leaf"
            },
            {
                "data": "2:4554",
                "leaf": "clip",
                "type": "Leaf"
            }
        ],
        "type": "AVSplit"
    },
    {
        "children": [
            {
                "data": "2:1175",
                "leaf": "clip",
                "type": "Leaf"
            },
            {
                "data": "1:1175",
                "leaf": "clip",
                "type": "Leaf"
            }
        ],
        "type": "AVSplit"
    },
    {
        "children": [
            {
                "data": "2:4521",
                "leaf": "clip",
                "type": "Leaf"
            },
            {
                "data": "1:4521",
                "leaf": "clip",
                "type": "Leaf"
            }
        ],
        "type": "AVSplit"
    },
    {
        "children": [
            {
                "data": "1:1142",
                "leaf": "clip",
                "type": "Leaf"
            },
            {
                "data": "2:1142",
                "leaf": "clip",
                "type": "Leaf"
            }
        ],
        "type": "AVSplit"
    },
    {
        "children": [
            {
                "data": "1:4480",
                "leaf": "clip",
                "type": "Leaf"
            },
            {
                "data": "2:4480",
                "leaf": "clip",
                "type": "Leaf"
            }
        ],
        "type": "AVSplit"
    },
    {
        "children": [
            {
                "data": "2:1098",
                "leaf": "clip",
                "type": "Leaf"
            },
            {
                "data": "1:1098",
                "leaf": "clip",
                "type": "Leaf"
            }
        ],
        "type": "AVSplit"
    },
    {
        "children": [
            {
                "data": "2:4387",
                "leaf": "clip",
                "type": "Leaf"
            },
            {
                "data": "1:4387",
                "leaf": "clip",
                "type": "Leaf"
            }
        ],
        "type": "AVSplit"
    },
    {
        "children": [
            {
                "data": "1:1061",
                "leaf": "clip",
                "type": "Leaf"
            },
            {
                "data": "2:1061",
                "leaf": "clip",
                "type": "Leaf"
            }
        ],
        "type": "AVSplit"
    },
    {
        "children": [
            {
                "data": "1:4329",
                "leaf": "clip",
                "type": "Leaf"
            },
            {
                "data": "2:4329",
                "leaf": "clip",
                "type": "Leaf"
            }
        ],
        "type": "AVSplit"
    },
    {
        "children": [
            {
                "data": "2:988",
                "leaf": "clip",
                "type": "Leaf"
            },
            {
                "data": "1:988",
                "leaf": "clip",
                "type": "Leaf"
            }
        ],
        "type": "AVSplit"
    },
    {
        "children": [
            {
                "data": "2:4253",
                "leaf": "clip",
                "type": "Leaf"
            },
            {
                "data": "1:4253",
                "leaf": "clip",
                "type": "Leaf"
            }
        ],
        "type": "AVSplit"
    },
    {
        "children": [
            {
                "data": "1:914",
                "leaf": "clip",
                "type": "Leaf"
            },
            {
                "data": "2:914",
                "leaf": "clip",
                "type": "Leaf"
            }
        ],
        "type": "AVSplit"
    },
    {
        "children": [
            {
                "data": "1:4225",
                "leaf": "clip",
                "type": "Leaf"
            },
            {
                "data": "2:4225",
                "leaf": "clip",
                "type": "Leaf"
            }
        ],
        "type": "AVSplit"
    },
    {
        "children": [
            {
                "data": "2:837",
                "leaf": "clip",
                "type": "Leaf"
            },
            {
                "data": "1:837",
                "leaf": "clip",
                "type": "Leaf"
            }
        ],
        "type": "AVSplit"
    },
    {
        "children": [
            {
                "data": "2:3668",
                "leaf": "clip",
                "type": "Leaf"
            },
            {
                "data": "1:3668",
                "leaf": "clip",
                "type": "Leaf"
            }
        ],
        "type": "AVSplit"
    },
    {
        "children": [
            {
                "data": "1:177",
                "leaf": "clip",
                "type": "Leaf"
            },
            {
                "data": "2:177",
                "leaf": "clip",
                "type": "Leaf"
            }
        ],
        "type": "AVSplit"
    },
    {
        "children": [
            {
                "data": "1:3646",
                "leaf": "clip",
                "type": "Leaf"
            },
            {
                "data": "2:3646",
                "leaf": "clip",
                "type": "Leaf"
            }
        ],
        "type": "AVSplit"
    },
    {
        "children": [
            {
                "data": "2:145",
                "leaf": "clip",
                "type": "Leaf"
            },
            {
                "data": "1:145",
                "leaf": "clip",
                "type": "Leaf"
            }
        ],
        "type": "AVSplit"
    },
    {
        "children": [
            {
                "data": "2:3617",
                "leaf": "clip",
                "type": "Leaf"
            },
            {
                "data": "1:3617",
                "leaf": "clip",
                "type": "Leaf"
            }
        ],
        "type": "AVSplit"
    },
    {
        "children": [
            {
                "data": "1:99",
                "leaf": "clip",
                "type": "Leaf"
            },
            {
                "data": "2:99",
                "leaf": "clip",
                "type": "Leaf"
            }
        ],
        "type": "AVSplit"
    },
    {
        "children": [
            {
                "data": "1:3571",
                "leaf": "clip",
                "type": "Leaf"
            },
            {
                "data": "2:3571",
                "leaf": "clip",
                "type": "Leaf"
            }
        ],
        "type": "AVSplit"
    },
    {
        "children": [
            {
                "data": "2:46",
                "leaf": "clip",
                "type": "Leaf"
            },
            {
                "data": "1:46",
                "leaf": "clip",
                "type": "Leaf"
            }
        ],
        "type": "AVSplit"
    },
    {
        "children": [
            {
                "data": "2:3521",
                "leaf": "clip",
                "type": "Leaf"
            },
            {
                "data": "1:3521",
                "leaf": "clip",
                "type": "Leaf"
            }
        ],
        "type": "AVSplit"
    },
    {
        "children": [
            {
                "data": "1:0",
                "leaf": "clip",
                "type": "Leaf"
            },
            {
                "data": "2:0",
                "leaf": "clip",
                "type": "Leaf"
            }
        ],
        "type": "AVSplit"
    },
    {
        "children": [
            {
                "data": "1:3493",
                "leaf": "clip",
                "type": "Leaf"
            },
            {
                "data": "2:3493",
                "leaf": "clip",
                "type": "Leaf"
            }
        ],
        "type": "AVSplit"
    },
    {
        "children": [
            {
                "data": "1:4972",
                "leaf": "clip",
                "type": "Leaf"
            },
            {
                "data": "2:4972",
                "leaf": "clip",
                "type": "Leaf"
            }
        ],
        "type": "AVSplit"
    }
]
</property>
  <property name="kdenlive:sequenceproperties.guides">[
]
</property>
  <property name="kdenlive:sequenceproperties.position">0</property>
  <property name="kdenlive:sequenceproperties.scrollPos">0</property>
  <property name="kdenlive:sequenceproperties.disablepreview">0</property>
  <track producer="producer0"/>
  <track producer="tractor0"/>
  <track producer="tractor1"/>
  <track producer="tractor2"/>
  <track producer="tractor3"/>
  <transition id="transition0">
   <property name="a_track">0</property>
   <property name="b_track">1</property>
   <property name="mlt_service">mix</property>
   <property name="kdenlive_id">mix</property>
   <property name="internal_added">237</property>
   <property name="always_active">1</property>
   <property name="accepts_blanks">1</property>
   <property name="sum">1</property>
  </transition>
  <transition id="transition1">
   <property name="a_track">0</property>
   <property name="b_track">2</property>
   <property name="mlt_service">mix</property>
   <property name="kdenlive_id">mix</property>
   <property name="internal_added">237</property>
   <property name="always_active">1</property>
   <property name="accepts_blanks">1</property>
   <property name="sum">1</property>
  </transition>
  <transition id="transition2">
   <property name="a_track">0</property>
   <property name="b_track">3</property>
   <property name="compositing">0</property>
   <property name="distort">0</property>
   <property name="rotate_center">0</property>
   <property name="mlt_service">qtblend</property>
   <property name="always_active">1</property>
   <property name="internal_added">237</property>
  </transition>
  <transition id="transition3">
   <property name="a_track">0</property>
   <property name="b_track">4</property>
   <property name="compositing">0</property>
   <property name="distort">0</property>
   <property name="rotate_center">0</property>
   <property name="mlt_service">qtblend</property>
   <property name="always_active">1</property>
   <property name="internal_added">237</property>
  </transition>
  <filter id="filter6">
   <property name="window">75</property>
   <property name="max_gain">20dB</property>
   <property name="mlt_service">volume</property>
   <property name="internal_added">237</property>
   <property name="disable">1</property>
  </filter>
  <filter id="filter7">
   <property name="channel">-1</property>
   <property name="mlt_service">panner</property>
   <property name="internal_added">237</property>
   <property name="start">0.5</property>
   <property name="disable">1</property>
  </filter>
 </tractor>
 <chain id="chain2" out="00:03:20.240">
  <property name="length">5007</property>
  <property name="eof">pause</property>
  <property name="resource">/home/fedora/Jupyter/defining-video-cuts/videos/5.mp4</property>
  <property name="mlt_service">avformat</property>
  <property name="meta.media.nb_streams">2</property>
  <property name="meta.media.0.stream.type">video</property>
  <property name="meta.media.0.stream.frame_rate">25</property>
  <property name="meta.media.0.stream.sample_aspect_ratio">0</property>
  <property name="meta.media.0.codec.width">640</property>
  <property name="meta.media.0.codec.height">360</property>
  <property name="meta.media.0.codec.rotate">0</property>
  <property name="meta.media.0.codec.pix_fmt">yuv420p</property>
  <property name="meta.media.0.codec.sample_aspect_ratio">1</property>
  <property name="meta.media.0.codec.colorspace">709</property>
  <property name="meta.media.0.codec.color_trc">1</property>
  <property name="meta.media.0.codec.name">h264</property>
  <property name="meta.media.0.codec.long_name">H.264 / AVC / MPEG-4 AVC / MPEG-4 part 10</property>
  <property name="meta.media.0.codec.bit_rate">355471</property>
  <property name="meta.attr.0.stream.handler_name.markup">ISO Media file produced by Google Inc.</property>
  <property name="meta.attr.0.stream.vendor_id.markup">[0][0][0][0]</property>
  <property name="meta.media.1.stream.type">audio</property>
  <property name="meta.media.1.codec.sample_fmt">fltp</property>
  <property name="meta.media.1.codec.sample_rate">44100</property>
  <property name="meta.media.1.codec.channels">2</property>
  <property name="meta.media.1.codec.name">aac</property>
  <property name="meta.media.1.codec.long_name">AAC (Advanced Audio Coding)</property>
  <property name="meta.media.1.codec.bit_rate">95999</property>
  <property name="meta.attr.1.stream.handler_name.markup">ISO Media file produced by Google Inc.</property>
  <property name="meta.attr.1.stream.vendor_id.markup">[0][0][0][0]</property>
  <property name="meta.attr.major_brand.markup">mp42</property>
  <property name="meta.attr.minor_version.markup">0</property>
  <property name="meta.attr.compatible_brands.markup">isommp42</property>
  <property name="meta.attr.encoder.markup">Google</property>
  <property name="seekable">1</property>
  <property name="meta.media.sample_aspect_num">1</property>
  <property name="meta.media.sample_aspect_den">1</property>
  <property name="format">3</property>
  <property name="audio_index">1</property>
  <property name="video_index">0</property>
  <property name="vstream">0</property>
  <property name="meta.media.frame_rate_num">25</property>
  <property name="meta.media.frame_rate_den">1</property>
  <property name="meta.media.colorspace">709</property>
  <property name="meta.media.color_trc">1</property>
  <property name="meta.media.has_b_frames">0</property>
  <property name="meta.media.width">640</property>
  <property name="meta.media.height">360</property>
  <property name="meta.media.color_range">mpeg</property>
  <property name="astream">0</property>
  <property name="meta.media.top_field_first">0</property>
  <property name="meta.media.progressive">1</property>
  <property name="kdenlive:id">4</property>
  <property name="kdenlive:clip_type">0</property>
  <property name="kdenlive:file_size">11361817</property>
  <property name="kdenlive:file_hash">4e7074e32c46c0e103b779a3fafc1ffe</property>
  <property name="kdenlive:folderid">-1</property>
  <property name="kdenlive:audio_max1">238</property>
 </chain>
 <playlist id="main_bin">
  <property name="kdenlive:folder.-1.2">Sequences</property>
  <property name="kdenlive:sequenceFolder">2</property>
  <property name="kdenlive:docproperties.audioChannels">2</property>
  <property name="kdenlive:docproperties.browserurl">/home/fedora/Videos/</property>
  <property name="kdenlive:docproperties.compositing">1</property>
  <property name="kdenlive:docproperties.documentid">1701365843977</property>
  <property name="kdenlive:docproperties.enableTimelineZone">0</property>
  <property name="kdenlive:docproperties.enableexternalproxy">0</property>
  <property name="kdenlive:docproperties.enableproxy">0</property>
  <property name="kdenlive:docproperties.externalproxyparams"/>
  <property name="kdenlive:docproperties.generateimageproxy">0</property>
  <property name="kdenlive:docproperties.generateproxy">0</property>
  <property name="kdenlive:docproperties.guidesCategories">[
    {
        "color": "#9b59b6",
        "comment": "Category 1",
        "index": 0
    },
    {
        "color": "#3daee9",
        "comment": "Category 2",
        "index": 1
    },
    {
        "color": "#1abc9c",
        "comment": "Category 3",
        "index": 2
    },
    {
        "color": "#1cdc9a",
        "comment": "Category 4",
        "index": 3
    },
    {
        "color": "#c9ce3b",
        "comment": "Category 5",
        "index": 4
    },
    {
        "color": "#fdbc4b",
        "comment": "Category 6",
        "index": 5
    },
    {
        "color": "#f39c1f",
        "comment": "Category 7",
        "index": 6
    },
    {
        "color": "#f47750",
        "comment": "Category 8",
        "index": 7
    },
    {
        "color": "#da4453",
        "comment": "Category 9",
        "index": 8
    }
]
</property>
  <property name="kdenlive:docproperties.kdenliveversion">23.08.3</property>
  <property name="kdenlive:docproperties.previewextension"/>
  <property name="kdenlive:docproperties.previewparameters"/>
  <property name="kdenlive:docproperties.profile">/home/fedora/.local/share/kdenlive/profiles/customprofile3</property>
  <property name="kdenlive:docproperties.proxyextension"/>
  <property name="kdenlive:docproperties.proxyimageminsize">2000</property>
  <property name="kdenlive:docproperties.proxyimagesize">800</property>
  <property name="kdenlive:docproperties.proxyminsize">1000</property>
  <property name="kdenlive:docproperties.proxyparams"/>
  <property name="kdenlive:docproperties.proxyresize">640</property>
  <property name="kdenlive:docproperties.seekOffset">30000</property>
  <property name="kdenlive:docproperties.uuid">{5074b16d-4e50-4851-898a-372880a18cd1}</property>
  <property name="kdenlive:docproperties.version">1.1</property>
  <property name="kdenlive:expandedFolders"/>
  <property name="kdenlive:binZoom">4</property>
  <property name="kdenlive:documentnotes"/>
  <property name="kdenlive:docproperties.opensequences">{5074b16d-4e50-4851-898a-372880a18cd1}</property>
  <property name="kdenlive:docproperties.activetimeline">{5074b16d-4e50-4851-898a-372880a18cd1}</property>
  <property name="xml_retain">1</property>
  <entry producer="{5074b16d-4e50-4851-898a-372880a18cd1}" in="00:00:00.000" out="00:00:00.000"/>
  <entry producer="chain2" in="00:00:00.000" out="00:03:20.240"/>
 </playlist>
 <tractor id="tractor4" in="00:00:00.000" out="00:03:20.280">
  <property name="kdenlive:projectTractor">1</property>
  <track producer="{5074b16d-4e50-4851-898a-372880a18cd1}" in="00:00:00.000" out="00:03:20.280"/>
 </tractor>
</mlt>
