<?xml version='1.0' encoding='utf-8'?>
<mlt LC_NUMERIC="C" producer="main_bin" version="7.20.0" root="/home/fedora/Jupyter/defining-video-cuts/timelines">
 <profile frame_rate_num="25" sample_aspect_num="1" display_aspect_den="9" colorspace="709" progressive="1" description="640x360 25.00fps" display_aspect_num="16" frame_rate_den="1" width="640" height="360" sample_aspect_den="1"/>
 <producer id="producer0" in="00:00:00.000" out="00:23:28.240">
  <property name="length">2147483647</property>
  <property name="eof">continue</property>
  <property name="resource">black</property>
  <property name="aspect_ratio">1</property>
  <property name="mlt_service">color</property>
  <property name="kdenlive:playlistid">black_track</property>
  <property name="mlt_image_format">rgba</property>
  <property name="set.test_audio">0</property>
 </producer>
 <playlist id="playlist0">
  <property name="kdenlive:audio_track">1</property>
 </playlist>
 <playlist id="playlist1">
  <property name="kdenlive:audio_track">1</property>
 </playlist>
 <tractor id="tractor0" in="00:00:00.000">
  <property name="kdenlive:audio_track">1</property>
  <property name="kdenlive:trackheight">67</property>
  <property name="kdenlive:timeline_active">1</property>
  <property name="kdenlive:collapsed">0</property>
  <property name="kdenlive:thumbs_format"/>
  <property name="kdenlive:audio_rec"/>
  <track hide="video" producer="playlist0"/>
  <track hide="video" producer="playlist1"/>
  <filter id="filter0">
   <property name="window">75</property>
   <property name="max_gain">20dB</property>
   <property name="mlt_service">volume</property>
   <property name="internal_added">237</property>
   <property name="disable">1</property>
  </filter>
  <filter id="filter1">
   <property name="channel">-1</property>
   <property name="mlt_service">panner</property>
   <property name="internal_added">237</property>
   <property name="start">0.5</property>
   <property name="disable">1</property>
  </filter>
  <filter id="filter2">
   <property name="iec_scale">0</property>
   <property name="mlt_service">audiolevel</property>
   <property name="dbpeak">1</property>
   <property name="disable">1</property>
  </filter>
 </tractor>
 <chain id="chain0" out="00:03:28.200">
  <property name="length">5206</property>
  <property name="eof">pause</property>
  <property name="resource">/home/fedora/Jupyter/defining-video-cuts/videos/6.mp4</property>
  <property name="mlt_service">avformat-novalidate</property>
  <property name="seekable">1</property>
  <property name="format">3</property>
  <property name="audio_index">1</property>
  <property name="video_index">0</property>
  <property name="vstream">0</property>
  <property name="astream">0</property>
  <property name="kdenlive:id">4</property>
  <property name="kdenlive:clip_type">0</property>
  <property name="kdenlive:file_size">10758218</property>
  <property name="kdenlive:file_hash">452d437c6a121b3e323436b679ef35f6</property>
  <property name="kdenlive:folderid">-1</property>
  <property name="kdenlive:audio_max1">193</property>
  <property name="meta.media.nb_streams">2</property>
  <property name="meta.media.0.stream.type">video</property>
  <property name="meta.media.0.stream.frame_rate">25</property>
  <property name="meta.media.0.stream.sample_aspect_ratio">0</property>
  <property name="meta.media.0.codec.width">640</property>
  <property name="meta.media.0.codec.height">360</property>
  <property name="meta.media.0.codec.rotate">0</property>
  <property name="meta.media.0.codec.pix_fmt">yuv420p</property>
  <property name="meta.media.0.codec.sample_aspect_ratio">1</property>
  <property name="meta.media.0.codec.colorspace">709</property>
  <property name="meta.media.0.codec.color_trc">1</property>
  <property name="meta.media.0.codec.name">h264</property>
  <property name="meta.media.0.codec.long_name">H.264 / AVC / MPEG-4 AVC / MPEG-4 part 10</property>
  <property name="meta.media.0.codec.bit_rate">281630</property>
  <property name="meta.attr.0.stream.creation_time.markup">2023-11-02T20:01:34.000000Z</property>
  <property name="meta.attr.0.stream.handler_name.markup">ISO Media file produced by Google Inc. Created on: 11/02/2023.</property>
  <property name="meta.attr.0.stream.vendor_id.markup">[0][0][0][0]</property>
  <property name="meta.media.1.stream.type">audio</property>
  <property name="meta.media.1.codec.sample_fmt">fltp</property>
  <property name="meta.media.1.codec.sample_rate">44100</property>
  <property name="meta.media.1.codec.channels">2</property>
  <property name="meta.media.1.codec.name">aac</property>
  <property name="meta.media.1.codec.long_name">AAC (Advanced Audio Coding)</property>
  <property name="meta.media.1.codec.bit_rate">127999</property>
  <property name="meta.attr.1.stream.creation_time.markup">2023-11-02T20:01:34.000000Z</property>
  <property name="meta.attr.1.stream.handler_name.markup">ISO Media file produced by Google Inc. Created on: 11/02/2023.</property>
  <property name="meta.attr.1.stream.vendor_id.markup">[0][0][0][0]</property>
  <property name="meta.attr.major_brand.markup">mp42</property>
  <property name="meta.attr.minor_version.markup">0</property>
  <property name="meta.attr.compatible_brands.markup">isommp42</property>
  <property name="meta.attr.creation_time.markup">2023-11-02T20:01:34.000000Z</property>
  <property name="meta.media.sample_aspect_num">1</property>
  <property name="meta.media.sample_aspect_den">1</property>
  <property name="meta.media.frame_rate_num">25</property>
  <property name="meta.media.frame_rate_den">1</property>
  <property name="meta.media.colorspace">709</property>
  <property name="meta.media.color_trc">1</property>
  <property name="meta.media.has_b_frames">1</property>
  <property name="meta.media.width">640</property>
  <property name="meta.media.height">360</property>
  <property name="meta.media.color_range">mpeg</property>
  <property name="xml">was here</property>
  <property name="mute_on_pause">0</property>
  <property name="meta.media.top_field_first">0</property>
  <property name="meta.media.progressive">1</property>
  <property name="set.test_audio">0</property>
  <property name="set.test_image">1</property>
 </chain>
 <playlist id="playlist2">
  <property name="kdenlive:audio_track">1</property>
  <entry producer="chain0" in="00:00:00.000" out="00:00:00.720">
   <property name="kdenlive:id">4</property>
  </entry>
  <entry producer="chain0" in="00:00:00.760" out="00:00:07.400">
   <property name="kdenlive:id">4</property>
  </entry>
  <entry producer="chain0" in="00:00:07.440" out="00:00:10.800">
   <property name="kdenlive:id">4</property>
  </entry>
  <entry producer="chain0" in="00:00:10.840" out="00:00:14.720">
   <property name="kdenlive:id">4</property>
  </entry>
  <entry producer="chain0" in="00:00:14.760" out="00:00:20.560">
   <property name="kdenlive:id">4</property>
  </entry>
  <entry producer="chain0" in="00:00:20.600" out="00:00:22.720">
   <property name="kdenlive:id">4</property>
  </entry>
  <entry producer="chain0" in="00:00:22.760" out="00:00:26.200">
   <property name="kdenlive:id">4</property>
  </entry>
  <entry producer="chain0" in="00:00:26.240" out="00:00:27.920">
   <property name="kdenlive:id">4</property>
  </entry>
  <entry producer="chain0" in="00:00:27.960" out="00:00:30.280">
   <property name="kdenlive:id">4</property>
  </entry>
  <entry producer="chain0" in="00:00:30.320" out="00:00:34.040">
   <property name="kdenlive:id">4</property>
  </entry>
  <entry producer="chain0" in="00:00:34.080" out="00:00:35.040">
   <property name="kdenlive:id">4</property>
  </entry>
  <entry producer="chain0" in="00:00:35.080" out="00:00:38.880">
   <property name="kdenlive:id">4</property>
  </entry>
  <entry producer="chain0" in="00:00:38.920" out="00:00:40.200">
   <property name="kdenlive:id">4</property>
  </entry>
  <entry producer="chain0" in="00:00:40.240" out="00:00:43.120">
   <property name="kdenlive:id">4</property>
  </entry>
  <entry producer="chain0" in="00:00:43.160" out="00:00:46.000">
   <property name="kdenlive:id">4</property>
  </entry>
  <entry producer="chain0" in="00:00:46.040" out="00:00:48.280">
   <property name="kdenlive:id">4</property>
  </entry>
  <entry producer="chain0" in="00:00:48.320" out="00:00:52.000">
   <property name="kdenlive:id">4</property>
  </entry>
  <entry producer="chain0" in="00:00:52.040" out="00:00:55.240">
   <property name="kdenlive:id">4</property>
  </entry>
  <entry producer="chain0" in="00:00:55.280" out="00:00:59.360">
   <property name="kdenlive:id">4</property>
  </entry>
  <entry producer="chain0" in="00:00:59.400" out="00:01:01.040">
   <property name="kdenlive:id">4</property>
  </entry>
  <entry producer="chain0" in="00:01:01.080" out="00:01:04.160">
   <property name="kdenlive:id">4</property>
  </entry>
  <entry producer="chain0" in="00:01:04.200" out="00:01:07.400">
   <property name="kdenlive:id">4</property>
  </entry>
  <entry producer="chain0" in="00:01:07.440" out="00:01:10.760">
   <property name="kdenlive:id">4</property>
  </entry>
  <entry producer="chain0" in="00:01:10.800" out="00:01:12.680">
   <property name="kdenlive:id">4</property>
  </entry>
  <entry producer="chain0" in="00:01:12.720" out="00:01:14.120">
   <property name="kdenlive:id">4</property>
  </entry>
  <entry producer="chain0" in="00:01:14.160" out="00:01:15.480">
   <property name="kdenlive:id">4</property>
  </entry>
  <entry producer="chain0" in="00:01:15.520" out="00:01:22.040">
   <property name="kdenlive:id">4</property>
  </entry>
  <entry producer="chain0" in="00:01:22.080" out="00:01:24.080">
   <property name="kdenlive:id">4</property>
  </entry>
  <entry producer="chain0" in="00:01:24.120" out="00:01:27.840">
   <property name="kdenlive:id">4</property>
  </entry>
  <entry producer="chain0" in="00:01:27.880" out="00:01:31.120">
   <property name="kdenlive:id">4</property>
  </entry>
  <entry producer="chain0" in="00:01:31.160" out="00:01:32.640">
   <property name="kdenlive:id">4</property>
  </entry>
  <entry producer="chain0" in="00:01:32.680" out="00:01:37.240">
   <property name="kdenlive:id">4</property>
  </entry>
  <entry producer="chain0" in="00:01:37.280" out="00:01:39.440">
   <property name="kdenlive:id">4</property>
  </entry>
  <entry producer="chain0" in="00:01:39.480" out="00:01:46.280">
   <property name="kdenlive:id">4</property>
  </entry>
  <entry producer="chain0" in="00:01:46.320" out="00:01:47.360">
   <property name="kdenlive:id">4</property>
  </entry>
  <entry producer="chain0" in="00:01:47.400" out="00:01:51.200">
   <property name="kdenlive:id">4</property>
  </entry>
  <entry producer="chain0" in="00:01:51.240" out="00:01:53.560">
   <property name="kdenlive:id">4</property>
  </entry>
  <entry producer="chain0" in="00:01:53.600" out="00:01:55.880">
   <property name="kdenlive:id">4</property>
  </entry>
  <entry producer="chain0" in="00:01:55.920" out="00:01:58.040">
   <property name="kdenlive:id">4</property>
  </entry>
  <entry producer="chain0" in="00:01:58.080" out="00:02:00.240">
   <property name="kdenlive:id">4</property>
  </entry>
  <entry producer="chain0" in="00:02:00.280" out="00:02:05.960">
   <property name="kdenlive:id">4</property>
  </entry>
  <entry producer="chain0" in="00:02:06.000" out="00:02:08.880">
   <property name="kdenlive:id">4</property>
  </entry>
  <entry producer="chain0" in="00:02:08.920" out="00:02:11.400">
   <property name="kdenlive:id">4</property>
  </entry>
  <entry producer="chain0" in="00:02:11.440" out="00:02:13.480">
   <property name="kdenlive:id">4</property>
  </entry>
  <entry producer="chain0" in="00:02:13.520" out="00:02:16.360">
   <property name="kdenlive:id">4</property>
  </entry>
  <entry producer="chain0" in="00:02:16.400" out="00:02:17.640">
   <property name="kdenlive:id">4</property>
  </entry>
  <entry producer="chain0" in="00:02:17.680" out="00:02:21.960">
   <property name="kdenlive:id">4</property>
  </entry>
  <entry producer="chain0" in="00:02:22.000" out="00:02:23.680">
   <property name="kdenlive:id">4</property>
  </entry>
  <entry producer="chain0" in="00:02:23.720" out="00:02:28.040">
   <property name="kdenlive:id">4</property>
  </entry>
  <entry producer="chain0" in="00:02:28.080" out="00:02:31.840">
   <property name="kdenlive:id">4</property>
  </entry>
  <entry producer="chain0" in="00:02:31.880" out="00:02:34.480">
   <property name="kdenlive:id">4</property>
  </entry>
  <entry producer="chain0" in="00:02:34.520" out="00:02:36.880">
   <property name="kdenlive:id">4</property>
  </entry>
  <entry producer="chain0" in="00:02:36.920" out="00:02:40.240">
   <property name="kdenlive:id">4</property>
  </entry>
  <entry producer="chain0" in="00:02:40.280" out="00:02:41.240">
   <property name="kdenlive:id">4</property>
  </entry>
  <entry producer="chain0" in="00:02:41.280" out="00:02:44.280">
   <property name="kdenlive:id">4</property>
  </entry>
  <entry producer="chain0" in="00:02:44.320" out="00:02:47.880">
   <property name="kdenlive:id">4</property>
  </entry>
  <entry producer="chain0" in="00:02:47.920" out="00:02:49.920">
   <property name="kdenlive:id">4</property>
  </entry>
  <entry producer="chain0" in="00:02:49.960" out="00:02:52.080">
   <property name="kdenlive:id">4</property>
  </entry>
  <entry producer="chain0" in="00:02:52.120" out="00:02:53.880">
   <property name="kdenlive:id">4</property>
  </entry>
  <entry producer="chain0" in="00:02:53.920" out="00:02:58.160">
   <property name="kdenlive:id">4</property>
  </entry>
  <entry producer="chain0" in="00:02:58.200" out="00:02:59.960">
   <property name="kdenlive:id">4</property>
  </entry>
  <entry producer="chain0" in="00:03:00.000" out="00:03:07.360">
   <property name="kdenlive:id">4</property>
  </entry>
  <entry producer="chain0" in="00:03:07.400" out="00:03:07.640">
   <property name="kdenlive:id">4</property>
  </entry>
  <entry producer="chain0" in="00:03:07.680" out="00:03:10.680">
   <property name="kdenlive:id">4</property>
  </entry>
  <entry producer="chain0" in="00:03:10.720" out="00:03:12.440">
   <property name="kdenlive:id">4</property>
  </entry>
  <entry producer="chain0" in="00:03:12.480" out="00:03:14.640">
   <property name="kdenlive:id">4</property>
  </entry>
  <entry producer="chain0" in="00:03:14.680" out="00:03:15.240">
   <property name="kdenlive:id">4</property>
  </entry>
  <entry producer="chain0" in="00:03:15.280" out="00:03:17.880">
   <property name="kdenlive:id">4</property>
  </entry>
  <entry producer="chain0" in="00:03:17.920" out="00:03:19.120">
   <property name="kdenlive:id">4</property>
  </entry>
  <entry producer="chain0" in="00:03:19.160" out="00:03:23.840">
   <property name="kdenlive:id">4</property>
  </entry>
  <entry producer="chain0" in="00:03:23.880" out="00:03:28.200">
   <property name="kdenlive:id">4</property>
  </entry>
 </playlist>
 <playlist id="playlist3">
  <property name="kdenlive:audio_track">1</property>
 </playlist>
 <tractor id="tractor1" in="00:00:00.000" out="00:03:28.200">
  <property name="kdenlive:audio_track">1</property>
  <property name="kdenlive:trackheight">67</property>
  <property name="kdenlive:timeline_active">1</property>
  <property name="kdenlive:collapsed">0</property>
  <property name="kdenlive:thumbs_format"/>
  <property name="kdenlive:audio_rec"/>
  <track hide="video" producer="playlist2"/>
  <track hide="video" producer="playlist3"/>
  <filter id="filter3">
   <property name="window">75</property>
   <property name="max_gain">20dB</property>
   <property name="mlt_service">volume</property>
   <property name="internal_added">237</property>
   <property name="disable">1</property>
  </filter>
  <filter id="filter4">
   <property name="channel">-1</property>
   <property name="mlt_service">panner</property>
   <property name="internal_added">237</property>
   <property name="start">0.5</property>
   <property name="disable">1</property>
  </filter>
  <filter id="filter5">
   <property name="iec_scale">0</property>
   <property name="mlt_service">audiolevel</property>
   <property name="dbpeak">1</property>
   <property name="disable">1</property>
  </filter>
 </tractor>
 <chain id="chain1" out="00:03:28.200">
  <property name="length">5206</property>
  <property name="eof">pause</property>
  <property name="resource">/home/fedora/Jupyter/defining-video-cuts/videos/6.mp4</property>
  <property name="mlt_service">avformat-novalidate</property>
  <property name="seekable">1</property>
  <property name="format">3</property>
  <property name="audio_index">1</property>
  <property name="video_index">0</property>
  <property name="vstream">0</property>
  <property name="astream">0</property>
  <property name="kdenlive:id">4</property>
  <property name="kdenlive:clip_type">0</property>
  <property name="kdenlive:file_size">10758218</property>
  <property name="kdenlive:file_hash">452d437c6a121b3e323436b679ef35f6</property>
  <property name="kdenlive:folderid">-1</property>
  <property name="kdenlive:audio_max1">193</property>
  <property name="meta.media.nb_streams">2</property>
  <property name="meta.media.0.stream.type">video</property>
  <property name="meta.media.0.stream.frame_rate">25</property>
  <property name="meta.media.0.stream.sample_aspect_ratio">0</property>
  <property name="meta.media.0.codec.width">640</property>
  <property name="meta.media.0.codec.height">360</property>
  <property name="meta.media.0.codec.rotate">0</property>
  <property name="meta.media.0.codec.pix_fmt">yuv420p</property>
  <property name="meta.media.0.codec.sample_aspect_ratio">1</property>
  <property name="meta.media.0.codec.colorspace">709</property>
  <property name="meta.media.0.codec.color_trc">1</property>
  <property name="meta.media.0.codec.name">h264</property>
  <property name="meta.media.0.codec.long_name">H.264 / AVC / MPEG-4 AVC / MPEG-4 part 10</property>
  <property name="meta.media.0.codec.bit_rate">281630</property>
  <property name="meta.attr.0.stream.creation_time.markup">2023-11-02T20:01:34.000000Z</property>
  <property name="meta.attr.0.stream.handler_name.markup">ISO Media file produced by Google Inc. Created on: 11/02/2023.</property>
  <property name="meta.attr.0.stream.vendor_id.markup">[0][0][0][0]</property>
  <property name="meta.media.1.stream.type">audio</property>
  <property name="meta.media.1.codec.sample_fmt">fltp</property>
  <property name="meta.media.1.codec.sample_rate">44100</property>
  <property name="meta.media.1.codec.channels">2</property>
  <property name="meta.media.1.codec.name">aac</property>
  <property name="meta.media.1.codec.long_name">AAC (Advanced Audio Coding)</property>
  <property name="meta.media.1.codec.bit_rate">127999</property>
  <property name="meta.attr.1.stream.creation_time.markup">2023-11-02T20:01:34.000000Z</property>
  <property name="meta.attr.1.stream.handler_name.markup">ISO Media file produced by Google Inc. Created on: 11/02/2023.</property>
  <property name="meta.attr.1.stream.vendor_id.markup">[0][0][0][0]</property>
  <property name="meta.attr.major_brand.markup">mp42</property>
  <property name="meta.attr.minor_version.markup">0</property>
  <property name="meta.attr.compatible_brands.markup">isommp42</property>
  <property name="meta.attr.creation_time.markup">2023-11-02T20:01:34.000000Z</property>
  <property name="meta.media.sample_aspect_num">1</property>
  <property name="meta.media.sample_aspect_den">1</property>
  <property name="meta.media.frame_rate_num">25</property>
  <property name="meta.media.frame_rate_den">1</property>
  <property name="meta.media.colorspace">709</property>
  <property name="meta.media.color_trc">1</property>
  <property name="meta.media.has_b_frames">1</property>
  <property name="meta.media.width">640</property>
  <property name="meta.media.height">360</property>
  <property name="meta.media.color_range">mpeg</property>
  <property name="xml">was here</property>
  <property name="mute_on_pause">0</property>
  <property name="meta.media.top_field_first">0</property>
  <property name="meta.media.progressive">1</property>
  <property name="set.test_audio">1</property>
  <property name="set.test_image">0</property>
 </chain>
 <playlist id="playlist4">
  <entry producer="chain1" in="00:00:00.000" out="00:00:00.720">
   <property name="kdenlive:id">4</property>
  </entry>
  <entry producer="chain1" in="00:00:00.760" out="00:00:07.400">
   <property name="kdenlive:id">4</property>
  </entry>
  <entry producer="chain1" in="00:00:07.440" out="00:00:10.800">
   <property name="kdenlive:id">4</property>
  </entry>
  <entry producer="chain1" in="00:00:10.840" out="00:00:14.720">
   <property name="kdenlive:id">4</property>
  </entry>
  <entry producer="chain1" in="00:00:14.760" out="00:00:20.560">
   <property name="kdenlive:id">4</property>
  </entry>
  <entry producer="chain1" in="00:00:20.600" out="00:00:22.720">
   <property name="kdenlive:id">4</property>
  </entry>
  <entry producer="chain1" in="00:00:22.760" out="00:00:26.200">
   <property name="kdenlive:id">4</property>
  </entry>
  <entry producer="chain1" in="00:00:26.240" out="00:00:27.920">
   <property name="kdenlive:id">4</property>
  </entry>
  <entry producer="chain1" in="00:00:27.960" out="00:00:30.280">
   <property name="kdenlive:id">4</property>
  </entry>
  <entry producer="chain1" in="00:00:30.320" out="00:00:34.040">
   <property name="kdenlive:id">4</property>
  </entry>
  <entry producer="chain1" in="00:00:34.080" out="00:00:35.040">
   <property name="kdenlive:id">4</property>
  </entry>
  <entry producer="chain1" in="00:00:35.080" out="00:00:38.880">
   <property name="kdenlive:id">4</property>
  </entry>
  <entry producer="chain1" in="00:00:38.920" out="00:00:40.200">
   <property name="kdenlive:id">4</property>
  </entry>
  <entry producer="chain1" in="00:00:40.240" out="00:00:43.120">
   <property name="kdenlive:id">4</property>
  </entry>
  <entry producer="chain1" in="00:00:43.160" out="00:00:46.000">
   <property name="kdenlive:id">4</property>
  </entry>
  <entry producer="chain1" in="00:00:46.040" out="00:00:48.280">
   <property name="kdenlive:id">4</property>
  </entry>
  <entry producer="chain1" in="00:00:48.320" out="00:00:52.000">
   <property name="kdenlive:id">4</property>
  </entry>
  <entry producer="chain1" in="00:00:52.040" out="00:00:55.240">
   <property name="kdenlive:id">4</property>
  </entry>
  <entry producer="chain1" in="00:00:55.280" out="00:00:59.360">
   <property name="kdenlive:id">4</property>
  </entry>
  <entry producer="chain1" in="00:00:59.400" out="00:01:01.040">
   <property name="kdenlive:id">4</property>
  </entry>
  <entry producer="chain1" in="00:01:01.080" out="00:01:04.160">
   <property name="kdenlive:id">4</property>
  </entry>
  <entry producer="chain1" in="00:01:04.200" out="00:01:07.400">
   <property name="kdenlive:id">4</property>
  </entry>
  <entry producer="chain1" in="00:01:07.440" out="00:01:10.760">
   <property name="kdenlive:id">4</property>
  </entry>
  <entry producer="chain1" in="00:01:10.800" out="00:01:12.680">
   <property name="kdenlive:id">4</property>
  </entry>
  <entry producer="chain1" in="00:01:12.720" out="00:01:14.120">
   <property name="kdenlive:id">4</property>
  </entry>
  <entry producer="chain1" in="00:01:14.160" out="00:01:15.480">
   <property name="kdenlive:id">4</property>
  </entry>
  <entry producer="chain1" in="00:01:15.520" out="00:01:22.040">
   <property name="kdenlive:id">4</property>
  </entry>
  <entry producer="chain1" in="00:01:22.080" out="00:01:24.080">
   <property name="kdenlive:id">4</property>
  </entry>
  <entry producer="chain1" in="00:01:24.120" out="00:01:27.840">
   <property name="kdenlive:id">4</property>
  </entry>
  <entry producer="chain1" in="00:01:27.880" out="00:01:31.120">
   <property name="kdenlive:id">4</property>
  </entry>
  <entry producer="chain1" in="00:01:31.160" out="00:01:32.640">
   <property name="kdenlive:id">4</property>
  </entry>
  <entry producer="chain1" in="00:01:32.680" out="00:01:37.240">
   <property name="kdenlive:id">4</property>
  </entry>
  <entry producer="chain1" in="00:01:37.280" out="00:01:39.440">
   <property name="kdenlive:id">4</property>
  </entry>
  <entry producer="chain1" in="00:01:39.480" out="00:01:46.280">
   <property name="kdenlive:id">4</property>
  </entry>
  <entry producer="chain1" in="00:01:46.320" out="00:01:47.360">
   <property name="kdenlive:id">4</property>
  </entry>
  <entry producer="chain1" in="00:01:47.400" out="00:01:51.200">
   <property name="kdenlive:id">4</property>
  </entry>
  <entry producer="chain1" in="00:01:51.240" out="00:01:53.560">
   <property name="kdenlive:id">4</property>
  </entry>
  <entry producer="chain1" in="00:01:53.600" out="00:01:55.880">
   <property name="kdenlive:id">4</property>
  </entry>
  <entry producer="chain1" in="00:01:55.920" out="00:01:58.040">
   <property name="kdenlive:id">4</property>
  </entry>
  <entry producer="chain1" in="00:01:58.080" out="00:02:00.240">
   <property name="kdenlive:id">4</property>
  </entry>
  <entry producer="chain1" in="00:02:00.280" out="00:02:05.960">
   <property name="kdenlive:id">4</property>
  </entry>
  <entry producer="chain1" in="00:02:06.000" out="00:02:08.880">
   <property name="kdenlive:id">4</property>
  </entry>
  <entry producer="chain1" in="00:02:08.920" out="00:02:11.400">
   <property name="kdenlive:id">4</property>
  </entry>
  <entry producer="chain1" in="00:02:11.440" out="00:02:13.480">
   <property name="kdenlive:id">4</property>
  </entry>
  <entry producer="chain1" in="00:02:13.520" out="00:02:16.360">
   <property name="kdenlive:id">4</property>
  </entry>
  <entry producer="chain1" in="00:02:16.400" out="00:02:17.640">
   <property name="kdenlive:id">4</property>
  </entry>
  <entry producer="chain1" in="00:02:17.680" out="00:02:21.960">
   <property name="kdenlive:id">4</property>
  </entry>
  <entry producer="chain1" in="00:02:22.000" out="00:02:23.680">
   <property name="kdenlive:id">4</property>
  </entry>
  <entry producer="chain1" in="00:02:23.720" out="00:02:28.040">
   <property name="kdenlive:id">4</property>
  </entry>
  <entry producer="chain1" in="00:02:28.080" out="00:02:31.840">
   <property name="kdenlive:id">4</property>
  </entry>
  <entry producer="chain1" in="00:02:31.880" out="00:02:34.480">
   <property name="kdenlive:id">4</property>
  </entry>
  <entry producer="chain1" in="00:02:34.520" out="00:02:36.880">
   <property name="kdenlive:id">4</property>
  </entry>
  <entry producer="chain1" in="00:02:36.920" out="00:02:40.240">
   <property name="kdenlive:id">4</property>
  </entry>
  <entry producer="chain1" in="00:02:40.280" out="00:02:41.240">
   <property name="kdenlive:id">4</property>
  </entry>
  <entry producer="chain1" in="00:02:41.280" out="00:02:44.280">
   <property name="kdenlive:id">4</property>
  </entry>
  <entry producer="chain1" in="00:02:44.320" out="00:02:47.880">
   <property name="kdenlive:id">4</property>
  </entry>
  <entry producer="chain1" in="00:02:47.920" out="00:02:49.920">
   <property name="kdenlive:id">4</property>
  </entry>
  <entry producer="chain1" in="00:02:49.960" out="00:02:52.080">
   <property name="kdenlive:id">4</property>
  </entry>
  <entry producer="chain1" in="00:02:52.120" out="00:02:53.880">
   <property name="kdenlive:id">4</property>
  </entry>
  <entry producer="chain1" in="00:02:53.920" out="00:02:58.160">
   <property name="kdenlive:id">4</property>
  </entry>
  <entry producer="chain1" in="00:02:58.200" out="00:02:59.960">
   <property name="kdenlive:id">4</property>
  </entry>
  <entry producer="chain1" in="00:03:00.000" out="00:03:07.360">
   <property name="kdenlive:id">4</property>
  </entry>
  <entry producer="chain1" in="00:03:07.400" out="00:03:07.640">
   <property name="kdenlive:id">4</property>
  </entry>
  <entry producer="chain1" in="00:03:07.680" out="00:03:10.680">
   <property name="kdenlive:id">4</property>
  </entry>
  <entry producer="chain1" in="00:03:10.720" out="00:03:12.440">
   <property name="kdenlive:id">4</property>
  </entry>
  <entry producer="chain1" in="00:03:12.480" out="00:03:14.640">
   <property name="kdenlive:id">4</property>
  </entry>
  <entry producer="chain1" in="00:03:14.680" out="00:03:15.240">
   <property name="kdenlive:id">4</property>
  </entry>
  <entry producer="chain1" in="00:03:15.280" out="00:03:17.880">
   <property name="kdenlive:id">4</property>
  </entry>
  <entry producer="chain1" in="00:03:17.920" out="00:03:19.120">
   <property name="kdenlive:id">4</property>
  </entry>
  <entry producer="chain1" in="00:03:19.160" out="00:03:23.840">
   <property name="kdenlive:id">4</property>
  </entry>
  <entry producer="chain1" in="00:03:23.880" out="00:03:28.200">
   <property name="kdenlive:id">4</property>
  </entry>
 </playlist>
 <playlist id="playlist5"/>
 <tractor id="tractor2" in="00:00:00.000" out="00:03:28.200">
  <property name="kdenlive:trackheight">67</property>
  <property name="kdenlive:timeline_active">1</property>
  <property name="kdenlive:collapsed">0</property>
  <property name="kdenlive:thumbs_format"/>
  <property name="kdenlive:audio_rec"/>
  <track hide="audio" producer="playlist4"/>
  <track hide="audio" producer="playlist5"/>
 </tractor>
 <playlist id="playlist6"/>
 <playlist id="playlist7"/>
 <tractor id="tractor3" in="00:00:00.000">
  <property name="kdenlive:trackheight">67</property>
  <property name="kdenlive:timeline_active">1</property>
  <property name="kdenlive:collapsed">0</property>
  <property name="kdenlive:thumbs_format"/>
  <property name="kdenlive:audio_rec"/>
  <track hide="audio" producer="playlist6"/>
  <track hide="audio" producer="playlist7"/>
 </tractor>
 <tractor id="{86b10aa1-dea1-4bd0-92dd-8ac1365c7efd}" in="00:00:00.000" out="00:23:28.240">
  <property name="kdenlive:uuid">{86b10aa1-dea1-4bd0-92dd-8ac1365c7efd}</property>
  <property name="kdenlive:clipname">Sequence 1</property>
  <property name="kdenlive:sequenceproperties.hasAudio">1</property>
  <property name="kdenlive:sequenceproperties.hasVideo">1</property>
  <property name="kdenlive:sequenceproperties.activeTrack">2</property>
  <property name="kdenlive:sequenceproperties.tracksCount">4</property>
  <property name="kdenlive:sequenceproperties.documentuuid">{86b10aa1-dea1-4bd0-92dd-8ac1365c7efd}</property>
  <property name="kdenlive:duration">00:03:28:06</property>
  <property name="kdenlive:maxduration">5206</property>
  <property name="kdenlive:producer_type">17</property>
  <property name="kdenlive:id">3</property>
  <property name="kdenlive:clip_type">0</property>
  <property name="kdenlive:file_hash">674cc40bc8939ba6151301f581a7ea95</property>
  <property name="kdenlive:folderid">2</property>
  <property name="kdenlive:sequenceproperties.audioTarget">1</property>
  <property name="kdenlive:sequenceproperties.tracks">4</property>
  <property name="kdenlive:sequenceproperties.verticalzoom">1</property>
  <property name="kdenlive:sequenceproperties.videoTarget">2</property>
  <property name="kdenlive:sequenceproperties.zonein">0</property>
  <property name="kdenlive:sequenceproperties.zoneout">5206</property>
  <property name="kdenlive:sequenceproperties.zoom">4</property>
  <property name="kdenlive:sequenceproperties.groups">[
    {
        "children": [
            {
                "data": "1:4198",
                "leaf": "clip",
                "type": "Leaf"
            },
            {
                "data": "2:4198",
                "leaf": "clip",
                "type": "Leaf"
            }
        ],
        "type": "AVSplit"
    },
    {
        "children": [
            {
                "data": "2:4108",
                "leaf": "clip",
                "type": "Leaf"
            },
            {
                "data": "1:4108",
                "leaf": "clip",
                "type": "Leaf"
            }
        ],
        "type": "AVSplit"
    },
    {
        "children": [
            {
                "data": "1:4032",
                "leaf": "clip",
                "type": "Leaf"
            },
            {
                "data": "2:4032",
                "leaf": "clip",
                "type": "Leaf"
            }
        ],
        "type": "AVSplit"
    },
    {
        "children": [
            {
                "data": "2:4007",
                "leaf": "clip",
                "type": "Leaf"
            },
            {
                "data": "1:4007",
                "leaf": "clip",
                "type": "Leaf"
            }
        ],
        "type": "AVSplit"
    },
    {
        "children": [
            {
                "data": "1:3923",
                "leaf": "clip",
                "type": "Leaf"
            },
            {
                "data": "2:3923",
                "leaf": "clip",
                "type": "Leaf"
            }
        ],
        "type": "AVSplit"
    },
    {
        "children": [
            {
                "data": "2:3863",
                "leaf": "clip",
                "type": "Leaf"
            },
            {
                "data": "1:3863",
                "leaf": "clip",
                "type": "Leaf"
            }
        ],
        "type": "AVSplit"
    },
    {
        "children": [
            {
                "data": "1:3797",
                "leaf": "clip",
                "type": "Leaf"
            },
            {
                "data": "2:3797",
                "leaf": "clip",
                "type": "Leaf"
            }
        ],
        "type": "AVSplit"
    },
    {
        "children": [
            {
                "data": "2:3702",
                "leaf": "clip",
                "type": "Leaf"
            },
            {
                "data": "1:3702",
                "leaf": "clip",
                "type": "Leaf"
            }
        ],
        "type": "AVSplit"
    },
    {
        "children": [
            {
                "data": "1:3593",
                "leaf": "clip",
                "type": "Leaf"
            },
            {
                "data": "2:3593",
                "leaf": "clip",
                "type": "Leaf"
            }
        ],
        "type": "AVSplit"
    },
    {
        "children": [
            {
                "data": "2:3550",
                "leaf": "clip",
                "type": "Leaf"
            },
            {
                "data": "1:3550",
                "leaf": "clip",
                "type": "Leaf"
            }
        ],
        "type": "AVSplit"
    },
    {
        "children": [
            {
                "data": "1:3442",
                "leaf": "clip",
                "type": "Leaf"
            },
            {
                "data": "2:3442",
                "leaf": "clip",
                "type": "Leaf"
            }
        ],
        "type": "AVSplit"
    },
    {
        "children": [
            {
                "data": "2:3410",
                "leaf": "clip",
                "type": "Leaf"
            },
            {
                "data": "1:3410",
                "leaf": "clip",
                "type": "Leaf"
            }
        ],
        "type": "AVSplit"
    },
    {
        "children": [
            {
                "data": "2:5097",
                "leaf": "clip",
                "type": "Leaf"
            },
            {
                "data": "1:5097",
                "leaf": "clip",
                "type": "Leaf"
            }
        ],
        "type": "AVSplit"
    },
    {
        "children": [
            {
                "data": "2:4249",
                "leaf": "clip",
                "type": "Leaf"
            },
            {
                "data": "1:4249",
                "leaf": "clip",
                "type": "Leaf"
            }
        ],
        "type": "AVSplit"
    },
    {
        "children": [
            {
                "data": "2:2052",
                "leaf": "clip",
                "type": "Leaf"
            },
            {
                "data": "1:2052",
                "leaf": "clip",
                "type": "Leaf"
            }
        ],
        "type": "AVSplit"
    },
    {
        "children": [
            {
                "data": "1:973",
                "leaf": "clip",
                "type": "Leaf"
            },
            {
                "data": "2:973",
                "leaf": "clip",
                "type": "Leaf"
            }
        ],
        "type": "AVSplit"
    },
    {
        "children": [
            {
                "data": "2:1006",
                "leaf": "clip",
                "type": "Leaf"
            },
            {
                "data": "1:1006",
                "leaf": "clip",
                "type": "Leaf"
            }
        ],
        "type": "AVSplit"
    },
    {
        "children": [
            {
                "data": "1:1079",
                "leaf": "clip",
                "type": "Leaf"
            },
            {
                "data": "2:1079",
                "leaf": "clip",
                "type": "Leaf"
            }
        ],
        "type": "AVSplit"
    },
    {
        "children": [
            {
                "data": "2:1151",
                "leaf": "clip",
                "type": "Leaf"
            },
            {
                "data": "1:1151",
                "leaf": "clip",
                "type": "Leaf"
            }
        ],
        "type": "AVSplit"
    },
    {
        "children": [
            {
                "data": "1:1208",
                "leaf": "clip",
                "type": "Leaf"
            },
            {
                "data": "2:1208",
                "leaf": "clip",
                "type": "Leaf"
            }
        ],
        "type": "AVSplit"
    },
    {
        "children": [
            {
                "data": "2:1301",
                "leaf": "clip",
                "type": "Leaf"
            },
            {
                "data": "1:1301",
                "leaf": "clip",
                "type": "Leaf"
            }
        ],
        "type": "AVSplit"
    },
    {
        "children": [
            {
                "data": "1:1382",
                "leaf": "clip",
                "type": "Leaf"
            },
            {
                "data": "2:1382",
                "leaf": "clip",
                "type": "Leaf"
            }
        ],
        "type": "AVSplit"
    },
    {
        "children": [
            {
                "data": "2:1485",
                "leaf": "clip",
                "type": "Leaf"
            },
            {
                "data": "1:1485",
                "leaf": "clip",
                "type": "Leaf"
            }
        ],
        "type": "AVSplit"
    },
    {
        "children": [
            {
                "data": "1:1527",
                "leaf": "clip",
                "type": "Leaf"
            },
            {
                "data": "2:1527",
                "leaf": "clip",
                "type": "Leaf"
            }
        ],
        "type": "AVSplit"
    },
    {
        "children": [
            {
                "data": "2:1605",
                "leaf": "clip",
                "type": "Leaf"
            },
            {
                "data": "1:1605",
                "leaf": "clip",
                "type": "Leaf"
            }
        ],
        "type": "AVSplit"
    },
    {
        "children": [
            {
                "data": "1:1686",
                "leaf": "clip",
                "type": "Leaf"
            },
            {
                "data": "2:1686",
                "leaf": "clip",
                "type": "Leaf"
            }
        ],
        "type": "AVSplit"
    },
    {
        "children": [
            {
                "data": "2:1770",
                "leaf": "clip",
                "type": "Leaf"
            },
            {
                "data": "1:1770",
                "leaf": "clip",
                "type": "Leaf"
            }
        ],
        "type": "AVSplit"
    },
    {
        "children": [
            {
                "data": "1:1818",
                "leaf": "clip",
                "type": "Leaf"
            },
            {
                "data": "2:1818",
                "leaf": "clip",
                "type": "Leaf"
            }
        ],
        "type": "AVSplit"
    },
    {
        "children": [
            {
                "data": "2:1854",
                "leaf": "clip",
                "type": "Leaf"
            },
            {
                "data": "1:1854",
                "leaf": "clip",
                "type": "Leaf"
            }
        ],
        "type": "AVSplit"
    },
    {
        "children": [
            {
                "data": "2:4979",
                "leaf": "clip",
                "type": "Leaf"
            },
            {
                "data": "1:4979",
                "leaf": "clip",
                "type": "Leaf"
            }
        ],
        "type": "AVSplit"
    },
    {
        "children": [
            {
                "data": "1:852",
                "leaf": "clip",
                "type": "Leaf"
            },
            {
                "data": "2:852",
                "leaf": "clip",
                "type": "Leaf"
            }
        ],
        "type": "AVSplit"
    },
    {
        "children": [
            {
                "data": "1:4948",
                "leaf": "clip",
                "type": "Leaf"
            },
            {
                "data": "2:4948",
                "leaf": "clip",
                "type": "Leaf"
            }
        ],
        "type": "AVSplit"
    },
    {
        "children": [
            {
                "data": "2:758",
                "leaf": "clip",
                "type": "Leaf"
            },
            {
                "data": "1:758",
                "leaf": "clip",
                "type": "Leaf"
            }
        ],
        "type": "AVSplit"
    },
    {
        "children": [
            {
                "data": "2:4882",
                "leaf": "clip",
                "type": "Leaf"
            },
            {
                "data": "1:4882",
                "leaf": "clip",
                "type": "Leaf"
            }
        ],
        "type": "AVSplit"
    },
    {
        "children": [
            {
                "data": "1:699",
                "leaf": "clip",
                "type": "Leaf"
            },
            {
                "data": "2:699",
                "leaf": "clip",
                "type": "Leaf"
            }
        ],
        "type": "AVSplit"
    },
    {
        "children": [
            {
                "data": "1:4867",
                "leaf": "clip",
                "type": "Leaf"
            },
            {
                "data": "2:4867",
                "leaf": "clip",
                "type": "Leaf"
            }
        ],
        "type": "AVSplit"
    },
    {
        "children": [
            {
                "data": "2:656",
                "leaf": "clip",
                "type": "Leaf"
            },
            {
                "data": "1:656",
                "leaf": "clip",
                "type": "Leaf"
            }
        ],
        "type": "AVSplit"
    },
    {
        "children": [
            {
                "data": "2:4812",
                "leaf": "clip",
                "type": "Leaf"
            },
            {
                "data": "1:4812",
                "leaf": "clip",
                "type": "Leaf"
            }
        ],
        "type": "AVSplit"
    },
    {
        "children": [
            {
                "data": "1:569",
                "leaf": "clip",
                "type": "Leaf"
            },
            {
                "data": "2:569",
                "leaf": "clip",
                "type": "Leaf"
            }
        ],
        "type": "AVSplit"
    },
    {
        "children": [
            {
                "data": "1:1888",
                "leaf": "clip",
                "type": "Leaf"
            },
            {
                "data": "2:1888",
                "leaf": "clip",
                "type": "Leaf"
            }
        ],
        "type": "AVSplit"
    },
    {
        "children": [
            {
                "data": "1:4768",
                "leaf": "clip",
                "type": "Leaf"
            },
            {
                "data": "2:4768",
                "leaf": "clip",
                "type": "Leaf"
            }
        ],
        "type": "AVSplit"
    },
    {
        "children": [
            {
                "data": "2:515",
                "leaf": "clip",
                "type": "Leaf"
            },
            {
                "data": "1:515",
                "leaf": "clip",
                "type": "Leaf"
            }
        ],
        "type": "AVSplit"
    },
    {
        "children": [
            {
                "data": "2:4692",
                "leaf": "clip",
                "type": "Leaf"
            },
            {
                "data": "1:4692",
                "leaf": "clip",
                "type": "Leaf"
            }
        ],
        "type": "AVSplit"
    },
    {
        "children": [
            {
                "data": "1:369",
                "leaf": "clip",
                "type": "Leaf"
            },
            {
                "data": "2:369",
                "leaf": "clip",
                "type": "Leaf"
            }
        ],
        "type": "AVSplit"
    },
    {
        "children": [
            {
                "data": "1:4685",
                "leaf": "clip",
                "type": "Leaf"
            },
            {
                "data": "2:4685",
                "leaf": "clip",
                "type": "Leaf"
            }
        ],
        "type": "AVSplit"
    },
    {
        "children": [
            {
                "data": "2:271",
                "leaf": "clip",
                "type": "Leaf"
            },
            {
                "data": "1:271",
                "leaf": "clip",
                "type": "Leaf"
            }
        ],
        "type": "AVSplit"
    },
    {
        "children": [
            {
                "data": "2:4500",
                "leaf": "clip",
                "type": "Leaf"
            },
            {
                "data": "1:4500",
                "leaf": "clip",
                "type": "Leaf"
            }
        ],
        "type": "AVSplit"
    },
    {
        "children": [
            {
                "data": "1:4455",
                "leaf": "clip",
                "type": "Leaf"
            },
            {
                "data": "2:4455",
                "leaf": "clip",
                "type": "Leaf"
            }
        ],
        "type": "AVSplit"
    },
    {
        "children": [
            {
                "data": "1:186",
                "leaf": "clip",
                "type": "Leaf"
            },
            {
                "data": "2:186",
                "leaf": "clip",
                "type": "Leaf"
            }
        ],
        "type": "AVSplit"
    },
    {
        "children": [
            {
                "data": "2:4348",
                "leaf": "clip",
                "type": "Leaf"
            },
            {
                "data": "1:4348",
                "leaf": "clip",
                "type": "Leaf"
            }
        ],
        "type": "AVSplit"
    },
    {
        "children": [
            {
                "data": "2:19",
                "leaf": "clip",
                "type": "Leaf"
            },
            {
                "data": "1:19",
                "leaf": "clip",
                "type": "Leaf"
            }
        ],
        "type": "AVSplit"
    },
    {
        "children": [
            {
                "data": "1:4303",
                "leaf": "clip",
                "type": "Leaf"
            },
            {
                "data": "2:4303",
                "leaf": "clip",
                "type": "Leaf"
            }
        ],
        "type": "AVSplit"
    },
    {
        "children": [
            {
                "data": "1:0",
                "leaf": "clip",
                "type": "Leaf"
            },
            {
                "data": "2:0",
                "leaf": "clip",
                "type": "Leaf"
            }
        ],
        "type": "AVSplit"
    },
    {
        "children": [
            {
                "data": "2:877",
                "leaf": "clip",
                "type": "Leaf"
            },
            {
                "data": "1:877",
                "leaf": "clip",
                "type": "Leaf"
            }
        ],
        "type": "AVSplit"
    },
    {
        "children": [
            {
                "data": "1:2103",
                "leaf": "clip",
                "type": "Leaf"
            },
            {
                "data": "2:2103",
                "leaf": "clip",
                "type": "Leaf"
            }
        ],
        "type": "AVSplit"
    },
    {
        "children": [
            {
                "data": "2:2197",
                "leaf": "clip",
                "type": "Leaf"
            },
            {
                "data": "1:2197",
                "leaf": "clip",
                "type": "Leaf"
            }
        ],
        "type": "AVSplit"
    },
    {
        "children": [
            {
                "data": "1:2279",
                "leaf": "clip",
                "type": "Leaf"
            },
            {
                "data": "2:2279",
                "leaf": "clip",
                "type": "Leaf"
            }
        ],
        "type": "AVSplit"
    },
    {
        "children": [
            {
                "data": "2:2317",
                "leaf": "clip",
                "type": "Leaf"
            },
            {
                "data": "1:2317",
                "leaf": "clip",
                "type": "Leaf"
            }
        ],
        "type": "AVSplit"
    },
    {
        "children": [
            {
                "data": "1:2432",
                "leaf": "clip",
                "type": "Leaf"
            },
            {
                "data": "2:2432",
                "leaf": "clip",
                "type": "Leaf"
            }
        ],
        "type": "AVSplit"
    },
    {
        "children": [
            {
                "data": "2:2487",
                "leaf": "clip",
                "type": "Leaf"
            },
            {
                "data": "1:2487",
                "leaf": "clip",
                "type": "Leaf"
            }
        ],
        "type": "AVSplit"
    },
    {
        "children": [
            {
                "data": "1:2658",
                "leaf": "clip",
                "type": "Leaf"
            },
            {
                "data": "2:2658",
                "leaf": "clip",
                "type": "Leaf"
            }
        ],
        "type": "AVSplit"
    },
    {
        "children": [
            {
                "data": "2:2685",
                "leaf": "clip",
                "type": "Leaf"
            },
            {
                "data": "1:2685",
                "leaf": "clip",
                "type": "Leaf"
            }
        ],
        "type": "AVSplit"
    },
    {
        "children": [
            {
                "data": "1:2781",
                "leaf": "clip",
                "type": "Leaf"
            },
            {
                "data": "2:2781",
                "leaf": "clip",
                "type": "Leaf"
            }
        ],
        "type": "AVSplit"
    },
    {
        "children": [
            {
                "data": "2:2840",
                "leaf": "clip",
                "type": "Leaf"
            },
            {
                "data": "1:2840",
                "leaf": "clip",
                "type": "Leaf"
            }
        ],
        "type": "AVSplit"
    },
    {
        "children": [
            {
                "data": "1:2898",
                "leaf": "clip",
                "type": "Leaf"
            },
            {
                "data": "2:2898",
                "leaf": "clip",
                "type": "Leaf"
            }
        ],
        "type": "AVSplit"
    },
    {
        "children": [
            {
                "data": "2:2952",
                "leaf": "clip",
                "type": "Leaf"
            },
            {
                "data": "1:2952",
                "leaf": "clip",
                "type": "Leaf"
            }
        ],
        "type": "AVSplit"
    },
    {
        "children": [
            {
                "data": "1:3007",
                "leaf": "clip",
                "type": "Leaf"
            },
            {
                "data": "2:3007",
                "leaf": "clip",
                "type": "Leaf"
            }
        ],
        "type": "AVSplit"
    },
    {
        "children": [
            {
                "data": "2:3150",
                "leaf": "clip",
                "type": "Leaf"
            },
            {
                "data": "1:3150",
                "leaf": "clip",
                "type": "Leaf"
            }
        ],
        "type": "AVSplit"
    },
    {
        "children": [
            {
                "data": "1:3223",
                "leaf": "clip",
                "type": "Leaf"
            },
            {
                "data": "2:3223",
                "leaf": "clip",
                "type": "Leaf"
            }
        ],
        "type": "AVSplit"
    },
    {
        "children": [
            {
                "data": "2:3286",
                "leaf": "clip",
                "type": "Leaf"
            },
            {
                "data": "1:3286",
                "leaf": "clip",
                "type": "Leaf"
            }
        ],
        "type": "AVSplit"
    },
    {
        "children": [
            {
                "data": "1:3338",
                "leaf": "clip",
                "type": "Leaf"
            },
            {
                "data": "2:3338",
                "leaf": "clip",
                "type": "Leaf"
            }
        ],
        "type": "AVSplit"
    }
]
</property>
  <property name="kdenlive:sequenceproperties.guides">[
]
</property>
  <property name="kdenlive:sequenceproperties.position">5205</property>
  <property name="kdenlive:sequenceproperties.scrollPos">14514</property>
  <property name="kdenlive:sequenceproperties.disablepreview">0</property>
  <track producer="producer0"/>
  <track producer="tractor0"/>
  <track producer="tractor1"/>
  <track producer="tractor2"/>
  <track producer="tractor3"/>
  <transition id="transition0">
   <property name="a_track">0</property>
   <property name="b_track">1</property>
   <property name="mlt_service">mix</property>
   <property name="kdenlive_id">mix</property>
   <property name="internal_added">237</property>
   <property name="always_active">1</property>
   <property name="accepts_blanks">1</property>
   <property name="sum">1</property>
  </transition>
  <transition id="transition1">
   <property name="a_track">0</property>
   <property name="b_track">2</property>
   <property name="mlt_service">mix</property>
   <property name="kdenlive_id">mix</property>
   <property name="internal_added">237</property>
   <property name="always_active">1</property>
   <property name="accepts_blanks">1</property>
   <property name="sum">1</property>
  </transition>
  <transition id="transition2">
   <property name="a_track">0</property>
   <property name="b_track">3</property>
   <property name="compositing">0</property>
   <property name="distort">0</property>
   <property name="rotate_center">0</property>
   <property name="mlt_service">qtblend</property>
   <property name="always_active">1</property>
   <property name="internal_added">237</property>
  </transition>
  <transition id="transition3">
   <property name="a_track">0</property>
   <property name="b_track">4</property>
   <property name="compositing">0</property>
   <property name="distort">0</property>
   <property name="rotate_center">0</property>
   <property name="mlt_service">qtblend</property>
   <property name="always_active">1</property>
   <property name="internal_added">237</property>
  </transition>
  <filter id="filter6">
   <property name="window">75</property>
   <property name="max_gain">20dB</property>
   <property name="mlt_service">volume</property>
   <property name="internal_added">237</property>
   <property name="disable">1</property>
  </filter>
  <filter id="filter7">
   <property name="channel">-1</property>
   <property name="mlt_service">panner</property>
   <property name="internal_added">237</property>
   <property name="start">0.5</property>
   <property name="disable">1</property>
  </filter>
 </tractor>
 <chain id="chain2" out="00:03:28.200">
  <property name="length">5206</property>
  <property name="eof">pause</property>
  <property name="resource">/home/fedora/Jupyter/defining-video-cuts/videos/6.mp4</property>
  <property name="mlt_service">avformat</property>
  <property name="meta.media.nb_streams">2</property>
  <property name="meta.media.0.stream.type">video</property>
  <property name="meta.media.0.stream.frame_rate">25</property>
  <property name="meta.media.0.stream.sample_aspect_ratio">0</property>
  <property name="meta.media.0.codec.width">640</property>
  <property name="meta.media.0.codec.height">360</property>
  <property name="meta.media.0.codec.rotate">0</property>
  <property name="meta.media.0.codec.pix_fmt">yuv420p</property>
  <property name="meta.media.0.codec.sample_aspect_ratio">1</property>
  <property name="meta.media.0.codec.colorspace">709</property>
  <property name="meta.media.0.codec.color_trc">1</property>
  <property name="meta.media.0.codec.name">h264</property>
  <property name="meta.media.0.codec.long_name">H.264 / AVC / MPEG-4 AVC / MPEG-4 part 10</property>
  <property name="meta.media.0.codec.bit_rate">281630</property>
  <property name="meta.attr.0.stream.creation_time.markup">2023-11-02T20:01:34.000000Z</property>
  <property name="meta.attr.0.stream.handler_name.markup">ISO Media file produced by Google Inc. Created on: 11/02/2023.</property>
  <property name="meta.attr.0.stream.vendor_id.markup">[0][0][0][0]</property>
  <property name="meta.media.1.stream.type">audio</property>
  <property name="meta.media.1.codec.sample_fmt">fltp</property>
  <property name="meta.media.1.codec.sample_rate">44100</property>
  <property name="meta.media.1.codec.channels">2</property>
  <property name="meta.media.1.codec.name">aac</property>
  <property name="meta.media.1.codec.long_name">AAC (Advanced Audio Coding)</property>
  <property name="meta.media.1.codec.bit_rate">127999</property>
  <property name="meta.attr.1.stream.creation_time.markup">2023-11-02T20:01:34.000000Z</property>
  <property name="meta.attr.1.stream.handler_name.markup">ISO Media file produced by Google Inc. Created on: 11/02/2023.</property>
  <property name="meta.attr.1.stream.vendor_id.markup">[0][0][0][0]</property>
  <property name="meta.attr.major_brand.markup">mp42</property>
  <property name="meta.attr.minor_version.markup">0</property>
  <property name="meta.attr.compatible_brands.markup">isommp42</property>
  <property name="meta.attr.creation_time.markup">2023-11-02T20:01:34.000000Z</property>
  <property name="seekable">1</property>
  <property name="meta.media.sample_aspect_num">1</property>
  <property name="meta.media.sample_aspect_den">1</property>
  <property name="format">3</property>
  <property name="audio_index">1</property>
  <property name="video_index">0</property>
  <property name="vstream">0</property>
  <property name="meta.media.frame_rate_num">25</property>
  <property name="meta.media.frame_rate_den">1</property>
  <property name="meta.media.colorspace">709</property>
  <property name="meta.media.color_trc">1</property>
  <property name="meta.media.has_b_frames">1</property>
  <property name="meta.media.width">640</property>
  <property name="meta.media.height">360</property>
  <property name="meta.media.color_range">mpeg</property>
  <property name="astream">0</property>
  <property name="meta.media.top_field_first">0</property>
  <property name="meta.media.progressive">1</property>
  <property name="kdenlive:id">4</property>
  <property name="kdenlive:clip_type">0</property>
  <property name="kdenlive:file_size">10758218</property>
  <property name="kdenlive:file_hash">452d437c6a121b3e323436b679ef35f6</property>
  <property name="kdenlive:folderid">-1</property>
  <property name="kdenlive:audio_max1">193</property>
 </chain>
 <playlist id="main_bin">
  <property name="kdenlive:folder.-1.2">Sequences</property>
  <property name="kdenlive:sequenceFolder">2</property>
  <property name="kdenlive:docproperties.audioChannels">2</property>
  <property name="kdenlive:docproperties.browserurl">/home/fedora/Videos/</property>
  <property name="kdenlive:docproperties.compositing">1</property>
  <property name="kdenlive:docproperties.documentid">1701697967792</property>
  <property name="kdenlive:docproperties.enableTimelineZone">0</property>
  <property name="kdenlive:docproperties.enableexternalproxy">0</property>
  <property name="kdenlive:docproperties.enableproxy">0</property>
  <property name="kdenlive:docproperties.externalproxyparams"/>
  <property name="kdenlive:docproperties.generateimageproxy">0</property>
  <property name="kdenlive:docproperties.generateproxy">0</property>
  <property name="kdenlive:docproperties.guidesCategories">[
    {
        "color": "#9b59b6",
        "comment": "Category 1",
        "index": 0
    },
    {
        "color": "#3daee9",
        "comment": "Category 2",
        "index": 1
    },
    {
        "color": "#1abc9c",
        "comment": "Category 3",
        "index": 2
    },
    {
        "color": "#1cdc9a",
        "comment": "Category 4",
        "index": 3
    },
    {
        "color": "#c9ce3b",
        "comment": "Category 5",
        "index": 4
    },
    {
        "color": "#fdbc4b",
        "comment": "Category 6",
        "index": 5
    },
    {
        "color": "#f39c1f",
        "comment": "Category 7",
        "index": 6
    },
    {
        "color": "#f47750",
        "comment": "Category 8",
        "index": 7
    },
    {
        "color": "#da4453",
        "comment": "Category 9",
        "index": 8
    }
]
</property>
  <property name="kdenlive:docproperties.kdenliveversion">23.08.3</property>
  <property name="kdenlive:docproperties.previewextension"/>
  <property name="kdenlive:docproperties.previewparameters"/>
  <property name="kdenlive:docproperties.profile">/home/fedora/.local/share/kdenlive/profiles/customprofile3</property>
  <property name="kdenlive:docproperties.proxyextension"/>
  <property name="kdenlive:docproperties.proxyimageminsize">2000</property>
  <property name="kdenlive:docproperties.proxyimagesize">800</property>
  <property name="kdenlive:docproperties.proxyminsize">1000</property>
  <property name="kdenlive:docproperties.proxyparams"/>
  <property name="kdenlive:docproperties.proxyresize">640</property>
  <property name="kdenlive:docproperties.seekOffset">30000</property>
  <property name="kdenlive:docproperties.uuid">{86b10aa1-dea1-4bd0-92dd-8ac1365c7efd}</property>
  <property name="kdenlive:docproperties.version">1.1</property>
  <property name="kdenlive:expandedFolders"/>
  <property name="kdenlive:binZoom">4</property>
  <property name="kdenlive:documentnotes"/>
  <property name="kdenlive:docproperties.opensequences">{86b10aa1-dea1-4bd0-92dd-8ac1365c7efd}</property>
  <property name="kdenlive:docproperties.activetimeline">{86b10aa1-dea1-4bd0-92dd-8ac1365c7efd}</property>
  <property name="xml_retain">1</property>
  <entry producer="{86b10aa1-dea1-4bd0-92dd-8ac1365c7efd}" in="00:00:00.000" out="00:00:00.000"/>
  <entry producer="chain2" in="00:00:00.000" out="00:03:28.200"/>
 </playlist>
 <tractor id="tractor4" in="00:00:00.000" out="00:03:28.240">
  <property name="kdenlive:projectTractor">1</property>
  <track producer="{86b10aa1-dea1-4bd0-92dd-8ac1365c7efd}" in="00:00:00.000" out="00:03:28.240"/>
 </tractor>
</mlt>
