<?xml version='1.0' encoding='utf-8'?>
<mlt LC_NUMERIC="C" producer="main_bin" version="7.20.0" root="/home/fedora/Jupyter/defining-video-cuts/timelines">
 <profile frame_rate_num="24000" sample_aspect_num="1" display_aspect_den="9" colorspace="709" progressive="1" description="640x360 23.98fps" display_aspect_num="16" frame_rate_den="1001" width="640" height="360" sample_aspect_den="1"/>
 <producer id="producer0" in="00:00:00.000" out="00:25:03.045">
  <property name="length">2147483647</property>
  <property name="eof">continue</property>
  <property name="resource">black</property>
  <property name="aspect_ratio">1</property>
  <property name="mlt_service">color</property>
  <property name="kdenlive:playlistid">black_track</property>
  <property name="mlt_image_format">rgba</property>
  <property name="set.test_audio">0</property>
 </producer>
 <playlist id="playlist0">
  <property name="kdenlive:audio_track">1</property>
 </playlist>
 <playlist id="playlist1">
  <property name="kdenlive:audio_track">1</property>
 </playlist>
 <tractor id="tractor0" in="00:00:00.000">
  <property name="kdenlive:audio_track">1</property>
  <property name="kdenlive:trackheight">67</property>
  <property name="kdenlive:timeline_active">1</property>
  <property name="kdenlive:collapsed">0</property>
  <property name="kdenlive:thumbs_format"/>
  <property name="kdenlive:audio_rec"/>
  <track hide="video" producer="playlist0"/>
  <track hide="video" producer="playlist1"/>
  <filter id="filter0">
   <property name="window">75</property>
   <property name="max_gain">20dB</property>
   <property name="mlt_service">volume</property>
   <property name="internal_added">237</property>
   <property name="disable">1</property>
  </filter>
  <filter id="filter1">
   <property name="channel">-1</property>
   <property name="mlt_service">panner</property>
   <property name="internal_added">237</property>
   <property name="start">0.5</property>
   <property name="disable">1</property>
  </filter>
  <filter id="filter2">
   <property name="iec_scale">0</property>
   <property name="mlt_service">audiolevel</property>
   <property name="dbpeak">1</property>
   <property name="disable">1</property>
  </filter>
 </tractor>
 <chain id="chain0" out="00:04:11.762">
  <property name="length">6037</property>
  <property name="eof">pause</property>
  <property name="resource">/home/fedora/Jupyter/defining-video-cuts/videos/7.mp4</property>
  <property name="mlt_service">avformat-novalidate</property>
  <property name="seekable">1</property>
  <property name="format">3</property>
  <property name="audio_index">1</property>
  <property name="video_index">0</property>
  <property name="vstream">0</property>
  <property name="astream">0</property>
  <property name="kdenlive:id">4</property>
  <property name="kdenlive:clip_type">0</property>
  <property name="kdenlive:file_size">9272494</property>
  <property name="kdenlive:file_hash">9a9183930e2f91be7e38ca7c59ba1c4c</property>
  <property name="kdenlive:folderid">-1</property>
  <property name="kdenlive:audio_max1">215</property>
  <property name="meta.media.nb_streams">2</property>
  <property name="meta.media.0.stream.type">video</property>
  <property name="meta.media.0.stream.frame_rate">23.976</property>
  <property name="meta.media.0.stream.sample_aspect_ratio">0</property>
  <property name="meta.media.0.codec.width">640</property>
  <property name="meta.media.0.codec.height">360</property>
  <property name="meta.media.0.codec.rotate">0</property>
  <property name="meta.media.0.codec.pix_fmt">yuv420p</property>
  <property name="meta.media.0.codec.sample_aspect_ratio">1</property>
  <property name="meta.media.0.codec.colorspace">709</property>
  <property name="meta.media.0.codec.color_trc">1</property>
  <property name="meta.media.0.codec.name">h264</property>
  <property name="meta.media.0.codec.long_name">H.264 / AVC / MPEG-4 AVC / MPEG-4 part 10</property>
  <property name="meta.media.0.codec.bit_rate">163035</property>
  <property name="meta.attr.0.stream.creation_time.markup">2023-11-25T03:21:28.000000Z</property>
  <property name="meta.attr.0.stream.handler_name.markup">ISO Media file produced by Google Inc. Created on: 11/24/2023.</property>
  <property name="meta.attr.0.stream.vendor_id.markup">[0][0][0][0]</property>
  <property name="meta.media.1.stream.type">audio</property>
  <property name="meta.media.1.codec.sample_fmt">fltp</property>
  <property name="meta.media.1.codec.sample_rate">44100</property>
  <property name="meta.media.1.codec.channels">2</property>
  <property name="meta.media.1.codec.name">aac</property>
  <property name="meta.media.1.codec.long_name">AAC (Advanced Audio Coding)</property>
  <property name="meta.media.1.codec.bit_rate">127999</property>
  <property name="meta.attr.1.stream.creation_time.markup">2023-11-25T03:21:28.000000Z</property>
  <property name="meta.attr.1.stream.language.markup">eng</property>
  <property name="meta.attr.1.stream.handler_name.markup">ISO Media file produced by Google Inc. Created on: 11/24/2023.</property>
  <property name="meta.attr.1.stream.vendor_id.markup">[0][0][0][0]</property>
  <property name="meta.attr.major_brand.markup">mp42</property>
  <property name="meta.attr.minor_version.markup">0</property>
  <property name="meta.attr.compatible_brands.markup">isommp42</property>
  <property name="meta.attr.creation_time.markup">2023-11-25T03:21:28.000000Z</property>
  <property name="meta.media.sample_aspect_num">1</property>
  <property name="meta.media.sample_aspect_den">1</property>
  <property name="meta.media.frame_rate_num">24000</property>
  <property name="meta.media.frame_rate_den">1001</property>
  <property name="meta.media.colorspace">709</property>
  <property name="meta.media.color_trc">1</property>
  <property name="meta.media.has_b_frames">1</property>
  <property name="meta.media.width">640</property>
  <property name="meta.media.height">360</property>
  <property name="meta.media.color_range">mpeg</property>
  <property name="xml">was here</property>
  <property name="mute_on_pause">0</property>
  <property name="meta.media.top_field_first">0</property>
  <property name="meta.media.progressive">1</property>
  <property name="set.test_audio">0</property>
  <property name="set.test_image">1</property>
 </chain>
 <playlist id="playlist2">
  <property name="kdenlive:audio_track">1</property>
  <entry producer="chain0" in="00:00:00.000" out="00:00:00.250">
   <property name="kdenlive:id">4</property>
  </entry>
  <entry producer="chain0" in="00:00:00.292" out="00:00:06.340">
   <property name="kdenlive:id">4</property>
  </entry>
  <entry producer="chain0" in="00:00:06.381" out="00:00:09.426">
   <property name="kdenlive:id">4</property>
  </entry>
  <entry producer="chain0" in="00:00:09.468" out="00:00:12.429">
   <property name="kdenlive:id">4</property>
  </entry>
  <entry producer="chain0" in="00:00:12.471" out="00:00:16.767">
   <property name="kdenlive:id">4</property>
  </entry>
  <entry producer="chain0" in="00:00:16.808" out="00:00:22.522">
   <property name="kdenlive:id">4</property>
  </entry>
  <entry producer="chain0" in="00:00:22.564" out="00:00:28.904">
   <property name="kdenlive:id">4</property>
  </entry>
  <entry producer="chain0" in="00:00:28.946" out="00:00:33.408">
   <property name="kdenlive:id">4</property>
  </entry>
  <entry producer="chain0" in="00:00:33.450" out="00:00:37.371">
   <property name="kdenlive:id">4</property>
  </entry>
  <entry producer="chain0" in="00:00:37.412" out="00:00:41.124">
   <property name="kdenlive:id">4</property>
  </entry>
  <entry producer="chain0" in="00:00:41.166" out="00:00:42.209">
   <property name="kdenlive:id">4</property>
  </entry>
  <entry producer="chain0" in="00:00:42.251" out="00:00:43.043">
   <property name="kdenlive:id">4</property>
  </entry>
  <entry producer="chain0" in="00:00:43.085" out="00:00:46.880">
   <property name="kdenlive:id">4</property>
  </entry>
  <entry producer="chain0" in="00:00:46.922" out="00:00:49.299">
   <property name="kdenlive:id">4</property>
  </entry>
  <entry producer="chain0" in="00:00:49.341" out="00:00:53.804">
   <property name="kdenlive:id">4</property>
  </entry>
  <entry producer="chain0" in="00:00:53.845" out="00:00:55.764">
   <property name="kdenlive:id">4</property>
  </entry>
  <entry producer="chain0" in="00:00:55.806" out="00:00:59.518">
   <property name="kdenlive:id">4</property>
  </entry>
  <entry producer="chain0" in="00:00:59.559" out="00:01:02.002">
   <property name="kdenlive:id">4</property>
  </entry>
  <entry producer="chain0" in="00:01:02.044" out="00:01:03.629">
   <property name="kdenlive:id">4</property>
  </entry>
  <entry producer="chain0" in="00:01:03.670" out="00:01:06.215">
   <property name="kdenlive:id">4</property>
  </entry>
  <entry producer="chain0" in="00:01:06.256" out="00:01:07.966">
   <property name="kdenlive:id">4</property>
  </entry>
  <entry producer="chain0" in="00:01:08.008" out="00:01:12.221">
   <property name="kdenlive:id">4</property>
  </entry>
  <entry producer="chain0" in="00:01:12.262" out="00:01:14.348">
   <property name="kdenlive:id">4</property>
  </entry>
  <entry producer="chain0" in="00:01:14.389" out="00:01:20.187">
   <property name="kdenlive:id">4</property>
  </entry>
  <entry producer="chain0" in="00:01:20.229" out="00:01:24.483">
   <property name="kdenlive:id">4</property>
  </entry>
  <entry producer="chain0" in="00:01:24.524" out="00:01:26.818">
   <property name="kdenlive:id">4</property>
  </entry>
  <entry producer="chain0" in="00:01:26.860" out="00:01:29.154">
   <property name="kdenlive:id">4</property>
  </entry>
  <entry producer="chain0" in="00:01:29.196" out="00:01:35.285">
   <property name="kdenlive:id">4</property>
  </entry>
  <entry producer="chain0" in="00:01:35.327" out="00:01:38.830">
   <property name="kdenlive:id">4</property>
  </entry>
  <entry producer="chain0" in="00:01:38.872" out="00:01:40.624">
   <property name="kdenlive:id">4</property>
  </entry>
  <entry producer="chain0" in="00:01:40.666" out="00:01:44.628">
   <property name="kdenlive:id">4</property>
  </entry>
  <entry producer="chain0" in="00:01:44.670" out="00:01:46.838">
   <property name="kdenlive:id">4</property>
  </entry>
  <entry producer="chain0" in="00:01:46.880" out="00:01:49.007">
   <property name="kdenlive:id">4</property>
  </entry>
  <entry producer="chain0" in="00:01:49.049" out="00:01:49.925">
   <property name="kdenlive:id">4</property>
  </entry>
  <entry producer="chain0" in="00:01:49.967" out="00:01:51.051">
   <property name="kdenlive:id">4</property>
  </entry>
  <entry producer="chain0" in="00:01:51.093" out="00:01:54.471">
   <property name="kdenlive:id">4</property>
  </entry>
  <entry producer="chain0" in="00:01:54.513" out="00:01:57.057">
   <property name="kdenlive:id">4</property>
  </entry>
  <entry producer="chain0" in="00:01:57.099" out="00:01:59.893">
   <property name="kdenlive:id">4</property>
  </entry>
  <entry producer="chain0" in="00:01:59.935" out="00:02:01.668">
   <property name="kdenlive:id">4</property>
  </entry>
  <entry producer="chain0" in="00:02:01.710" out="00:02:03.337">
   <property name="kdenlive:id">4</property>
  </entry>
  <entry producer="chain0" in="00:02:03.378" out="00:02:07.925">
   <property name="kdenlive:id">4</property>
  </entry>
  <entry producer="chain0" in="00:02:07.966" out="00:02:14.223">
   <property name="kdenlive:id">4</property>
  </entry>
  <entry producer="chain0" in="00:02:14.264" out="00:02:15.724">
   <property name="kdenlive:id">4</property>
  </entry>
  <entry producer="chain0" in="00:02:15.766" out="00:02:18.894">
   <property name="kdenlive:id">4</property>
  </entry>
  <entry producer="chain0" in="00:02:18.936" out="00:02:21.772">
   <property name="kdenlive:id">4</property>
  </entry>
  <entry producer="chain0" in="00:02:21.813" out="00:02:25.692">
   <property name="kdenlive:id">4</property>
  </entry>
  <entry producer="chain0" in="00:02:25.734" out="00:02:27.945">
   <property name="kdenlive:id">4</property>
  </entry>
  <entry producer="chain0" in="00:02:27.986" out="00:02:29.488">
   <property name="kdenlive:id">4</property>
  </entry>
  <entry producer="chain0" in="00:02:29.529" out="00:02:31.073">
   <property name="kdenlive:id">4</property>
  </entry>
  <entry producer="chain0" in="00:02:31.114" out="00:02:32.491">
   <property name="kdenlive:id">4</property>
  </entry>
  <entry producer="chain0" in="00:02:32.532" out="00:02:34.034">
   <property name="kdenlive:id">4</property>
  </entry>
  <entry producer="chain0" in="00:02:34.076" out="00:02:38.455">
   <property name="kdenlive:id">4</property>
  </entry>
  <entry producer="chain0" in="00:02:38.497" out="00:02:41.708">
   <property name="kdenlive:id">4</property>
  </entry>
  <entry producer="chain0" in="00:02:41.750" out="00:02:44.044">
   <property name="kdenlive:id">4</property>
  </entry>
  <entry producer="chain0" in="00:02:44.086" out="00:02:46.463">
   <property name="kdenlive:id">4</property>
  </entry>
  <entry producer="chain0" in="00:02:46.505" out="00:02:49.800">
   <property name="kdenlive:id">4</property>
  </entry>
  <entry producer="chain0" in="00:02:49.841" out="00:02:51.969">
   <property name="kdenlive:id">4</property>
  </entry>
  <entry producer="chain0" in="00:02:52.010" out="00:02:55.597">
   <property name="kdenlive:id">4</property>
  </entry>
  <entry producer="chain0" in="00:02:55.639" out="00:02:56.974">
   <property name="kdenlive:id">4</property>
  </entry>
  <entry producer="chain0" in="00:02:57.015" out="00:02:58.725">
   <property name="kdenlive:id">4</property>
  </entry>
  <entry producer="chain0" in="00:02:58.767" out="00:03:00.667">
   <property name="kdenlive:id">4</property>
  </entry>
  <entry producer="chain0" in="00:03:00.709" out="00:03:02.211">
   <property name="kdenlive:id">4</property>
  </entry>
  <entry producer="chain0" in="00:03:02.252" out="00:03:04.963">
   <property name="kdenlive:id">4</property>
  </entry>
  <entry producer="chain0" in="00:03:05.005" out="00:03:11.178">
   <property name="kdenlive:id">4</property>
  </entry>
  <entry producer="chain0" in="00:03:11.220" out="00:03:15.515">
   <property name="kdenlive:id">4</property>
  </entry>
  <entry producer="chain0" in="00:03:15.557" out="00:03:17.226">
   <property name="kdenlive:id">4</property>
  </entry>
  <entry producer="chain0" in="00:03:17.267" out="00:03:21.146">
   <property name="kdenlive:id">4</property>
  </entry>
  <entry producer="chain0" in="00:03:21.188" out="00:03:23.315">
   <property name="kdenlive:id">4</property>
  </entry>
  <entry producer="chain0" in="00:03:23.357" out="00:03:25.901">
   <property name="kdenlive:id">4</property>
  </entry>
  <entry producer="chain0" in="00:03:25.943" out="00:03:27.819">
   <property name="kdenlive:id">4</property>
  </entry>
  <entry producer="chain0" in="00:03:27.861" out="00:03:30.322">
   <property name="kdenlive:id">4</property>
  </entry>
  <entry producer="chain0" in="00:03:30.364" out="00:03:32.241">
   <property name="kdenlive:id">4</property>
  </entry>
  <entry producer="chain0" in="00:03:32.282" out="00:03:35.744">
   <property name="kdenlive:id">4</property>
  </entry>
  <entry producer="chain0" in="00:03:35.786" out="00:03:37.871">
   <property name="kdenlive:id">4</property>
  </entry>
  <entry producer="chain0" in="00:03:37.913" out="00:03:39.998">
   <property name="kdenlive:id">4</property>
  </entry>
  <entry producer="chain0" in="00:03:40.040" out="00:03:41.917">
   <property name="kdenlive:id">4</property>
  </entry>
  <entry producer="chain0" in="00:03:41.959" out="00:03:48.090">
   <property name="kdenlive:id">4</property>
  </entry>
  <entry producer="chain0" in="00:03:48.131" out="00:03:54.388">
   <property name="kdenlive:id">4</property>
  </entry>
  <entry producer="chain0" in="00:03:54.429" out="00:04:00.459">
   <property name="kdenlive:id">4</property>
  </entry>
  <entry producer="chain0" in="00:04:00.500" out="00:04:06.423">
   <property name="kdenlive:id">4</property>
  </entry>
  <entry producer="chain0" in="00:04:06.465" out="00:04:07.007">
   <property name="kdenlive:id">4</property>
  </entry>
  <entry producer="chain0" in="00:04:07.049" out="00:04:11.762">
   <property name="kdenlive:id">4</property>
  </entry>
 </playlist>
 <playlist id="playlist3">
  <property name="kdenlive:audio_track">1</property>
 </playlist>
 <tractor id="tractor1" in="00:00:00.000" out="00:04:11.762">
  <property name="kdenlive:audio_track">1</property>
  <property name="kdenlive:trackheight">67</property>
  <property name="kdenlive:timeline_active">1</property>
  <property name="kdenlive:collapsed">0</property>
  <property name="kdenlive:thumbs_format"/>
  <property name="kdenlive:audio_rec"/>
  <track hide="both" producer="playlist2"/>
  <track hide="both" producer="playlist3"/>
  <filter id="filter3">
   <property name="window">75</property>
   <property name="max_gain">20dB</property>
   <property name="mlt_service">volume</property>
   <property name="internal_added">237</property>
   <property name="disable">1</property>
  </filter>
  <filter id="filter4">
   <property name="channel">-1</property>
   <property name="mlt_service">panner</property>
   <property name="internal_added">237</property>
   <property name="start">0.5</property>
   <property name="disable">1</property>
  </filter>
  <filter id="filter5">
   <property name="iec_scale">0</property>
   <property name="mlt_service">audiolevel</property>
   <property name="dbpeak">1</property>
   <property name="disable">1</property>
  </filter>
 </tractor>
 <chain id="chain1" out="00:04:11.762">
  <property name="length">6037</property>
  <property name="eof">pause</property>
  <property name="resource">/home/fedora/Jupyter/defining-video-cuts/videos/7.mp4</property>
  <property name="mlt_service">avformat-novalidate</property>
  <property name="seekable">1</property>
  <property name="format">3</property>
  <property name="audio_index">1</property>
  <property name="video_index">0</property>
  <property name="vstream">0</property>
  <property name="astream">0</property>
  <property name="kdenlive:id">4</property>
  <property name="kdenlive:clip_type">0</property>
  <property name="kdenlive:file_size">9272494</property>
  <property name="kdenlive:file_hash">9a9183930e2f91be7e38ca7c59ba1c4c</property>
  <property name="kdenlive:folderid">-1</property>
  <property name="kdenlive:audio_max1">215</property>
  <property name="meta.media.nb_streams">2</property>
  <property name="meta.media.0.stream.type">video</property>
  <property name="meta.media.0.stream.frame_rate">23.976</property>
  <property name="meta.media.0.stream.sample_aspect_ratio">0</property>
  <property name="meta.media.0.codec.width">640</property>
  <property name="meta.media.0.codec.height">360</property>
  <property name="meta.media.0.codec.rotate">0</property>
  <property name="meta.media.0.codec.pix_fmt">yuv420p</property>
  <property name="meta.media.0.codec.sample_aspect_ratio">1</property>
  <property name="meta.media.0.codec.colorspace">709</property>
  <property name="meta.media.0.codec.color_trc">1</property>
  <property name="meta.media.0.codec.name">h264</property>
  <property name="meta.media.0.codec.long_name">H.264 / AVC / MPEG-4 AVC / MPEG-4 part 10</property>
  <property name="meta.media.0.codec.bit_rate">163035</property>
  <property name="meta.attr.0.stream.creation_time.markup">2023-11-25T03:21:28.000000Z</property>
  <property name="meta.attr.0.stream.handler_name.markup">ISO Media file produced by Google Inc. Created on: 11/24/2023.</property>
  <property name="meta.attr.0.stream.vendor_id.markup">[0][0][0][0]</property>
  <property name="meta.media.1.stream.type">audio</property>
  <property name="meta.media.1.codec.sample_fmt">fltp</property>
  <property name="meta.media.1.codec.sample_rate">44100</property>
  <property name="meta.media.1.codec.channels">2</property>
  <property name="meta.media.1.codec.name">aac</property>
  <property name="meta.media.1.codec.long_name">AAC (Advanced Audio Coding)</property>
  <property name="meta.media.1.codec.bit_rate">127999</property>
  <property name="meta.attr.1.stream.creation_time.markup">2023-11-25T03:21:28.000000Z</property>
  <property name="meta.attr.1.stream.language.markup">eng</property>
  <property name="meta.attr.1.stream.handler_name.markup">ISO Media file produced by Google Inc. Created on: 11/24/2023.</property>
  <property name="meta.attr.1.stream.vendor_id.markup">[0][0][0][0]</property>
  <property name="meta.attr.major_brand.markup">mp42</property>
  <property name="meta.attr.minor_version.markup">0</property>
  <property name="meta.attr.compatible_brands.markup">isommp42</property>
  <property name="meta.attr.creation_time.markup">2023-11-25T03:21:28.000000Z</property>
  <property name="meta.media.sample_aspect_num">1</property>
  <property name="meta.media.sample_aspect_den">1</property>
  <property name="meta.media.frame_rate_num">24000</property>
  <property name="meta.media.frame_rate_den">1001</property>
  <property name="meta.media.colorspace">709</property>
  <property name="meta.media.color_trc">1</property>
  <property name="meta.media.has_b_frames">1</property>
  <property name="meta.media.width">640</property>
  <property name="meta.media.height">360</property>
  <property name="meta.media.color_range">mpeg</property>
  <property name="xml">was here</property>
  <property name="mute_on_pause">0</property>
  <property name="meta.media.top_field_first">0</property>
  <property name="meta.media.progressive">1</property>
  <property name="set.test_audio">1</property>
  <property name="set.test_image">0</property>
 </chain>
 <playlist id="playlist4">
  <entry producer="chain1" in="00:00:00.000" out="00:00:00.250">
   <property name="kdenlive:id">4</property>
  </entry>
  <entry producer="chain1" in="00:00:00.292" out="00:00:06.340">
   <property name="kdenlive:id">4</property>
  </entry>
  <entry producer="chain1" in="00:00:06.381" out="00:00:09.426">
   <property name="kdenlive:id">4</property>
  </entry>
  <entry producer="chain1" in="00:00:09.468" out="00:00:12.429">
   <property name="kdenlive:id">4</property>
  </entry>
  <entry producer="chain1" in="00:00:12.471" out="00:00:16.767">
   <property name="kdenlive:id">4</property>
  </entry>
  <entry producer="chain1" in="00:00:16.808" out="00:00:22.522">
   <property name="kdenlive:id">4</property>
  </entry>
  <entry producer="chain1" in="00:00:22.564" out="00:00:28.904">
   <property name="kdenlive:id">4</property>
  </entry>
  <entry producer="chain1" in="00:00:28.946" out="00:00:33.408">
   <property name="kdenlive:id">4</property>
  </entry>
  <entry producer="chain1" in="00:00:33.450" out="00:00:37.371">
   <property name="kdenlive:id">4</property>
  </entry>
  <entry producer="chain1" in="00:00:37.412" out="00:00:41.124">
   <property name="kdenlive:id">4</property>
  </entry>
  <entry producer="chain1" in="00:00:41.166" out="00:00:42.209">
   <property name="kdenlive:id">4</property>
  </entry>
  <entry producer="chain1" in="00:00:42.251" out="00:00:43.043">
   <property name="kdenlive:id">4</property>
  </entry>
  <entry producer="chain1" in="00:00:43.085" out="00:00:46.880">
   <property name="kdenlive:id">4</property>
  </entry>
  <entry producer="chain1" in="00:00:46.922" out="00:00:49.299">
   <property name="kdenlive:id">4</property>
  </entry>
  <entry producer="chain1" in="00:00:49.341" out="00:00:53.804">
   <property name="kdenlive:id">4</property>
  </entry>
  <entry producer="chain1" in="00:00:53.845" out="00:00:55.764">
   <property name="kdenlive:id">4</property>
  </entry>
  <entry producer="chain1" in="00:00:55.806" out="00:00:59.518">
   <property name="kdenlive:id">4</property>
  </entry>
  <entry producer="chain1" in="00:00:59.559" out="00:01:02.002">
   <property name="kdenlive:id">4</property>
  </entry>
  <entry producer="chain1" in="00:01:02.044" out="00:01:03.629">
   <property name="kdenlive:id">4</property>
  </entry>
  <entry producer="chain1" in="00:01:03.670" out="00:01:06.215">
   <property name="kdenlive:id">4</property>
  </entry>
  <entry producer="chain1" in="00:01:06.256" out="00:01:07.966">
   <property name="kdenlive:id">4</property>
  </entry>
  <entry producer="chain1" in="00:01:08.008" out="00:01:12.221">
   <property name="kdenlive:id">4</property>
  </entry>
  <entry producer="chain1" in="00:01:12.262" out="00:01:14.348">
   <property name="kdenlive:id">4</property>
  </entry>
  <entry producer="chain1" in="00:01:14.389" out="00:01:20.187">
   <property name="kdenlive:id">4</property>
  </entry>
  <entry producer="chain1" in="00:01:20.229" out="00:01:24.483">
   <property name="kdenlive:id">4</property>
  </entry>
  <entry producer="chain1" in="00:01:24.524" out="00:01:26.818">
   <property name="kdenlive:id">4</property>
  </entry>
  <entry producer="chain1" in="00:01:26.860" out="00:01:29.154">
   <property name="kdenlive:id">4</property>
  </entry>
  <entry producer="chain1" in="00:01:29.196" out="00:01:35.285">
   <property name="kdenlive:id">4</property>
  </entry>
  <entry producer="chain1" in="00:01:35.327" out="00:01:38.830">
   <property name="kdenlive:id">4</property>
  </entry>
  <entry producer="chain1" in="00:01:38.872" out="00:01:40.624">
   <property name="kdenlive:id">4</property>
  </entry>
  <entry producer="chain1" in="00:01:40.666" out="00:01:44.628">
   <property name="kdenlive:id">4</property>
  </entry>
  <entry producer="chain1" in="00:01:44.670" out="00:01:46.838">
   <property name="kdenlive:id">4</property>
  </entry>
  <entry producer="chain1" in="00:01:46.880" out="00:01:49.007">
   <property name="kdenlive:id">4</property>
  </entry>
  <entry producer="chain1" in="00:01:49.049" out="00:01:49.925">
   <property name="kdenlive:id">4</property>
  </entry>
  <entry producer="chain1" in="00:01:49.967" out="00:01:51.051">
   <property name="kdenlive:id">4</property>
  </entry>
  <entry producer="chain1" in="00:01:51.093" out="00:01:54.471">
   <property name="kdenlive:id">4</property>
  </entry>
  <entry producer="chain1" in="00:01:54.513" out="00:01:57.057">
   <property name="kdenlive:id">4</property>
  </entry>
  <entry producer="chain1" in="00:01:57.099" out="00:01:59.893">
   <property name="kdenlive:id">4</property>
  </entry>
  <entry producer="chain1" in="00:01:59.935" out="00:02:01.668">
   <property name="kdenlive:id">4</property>
  </entry>
  <entry producer="chain1" in="00:02:01.710" out="00:02:03.337">
   <property name="kdenlive:id">4</property>
  </entry>
  <entry producer="chain1" in="00:02:03.378" out="00:02:07.925">
   <property name="kdenlive:id">4</property>
  </entry>
  <entry producer="chain1" in="00:02:07.966" out="00:02:14.223">
   <property name="kdenlive:id">4</property>
  </entry>
  <entry producer="chain1" in="00:02:14.264" out="00:02:15.724">
   <property name="kdenlive:id">4</property>
  </entry>
  <entry producer="chain1" in="00:02:15.766" out="00:02:18.894">
   <property name="kdenlive:id">4</property>
  </entry>
  <entry producer="chain1" in="00:02:18.936" out="00:02:21.772">
   <property name="kdenlive:id">4</property>
  </entry>
  <entry producer="chain1" in="00:02:21.813" out="00:02:25.692">
   <property name="kdenlive:id">4</property>
  </entry>
  <entry producer="chain1" in="00:02:25.734" out="00:02:27.945">
   <property name="kdenlive:id">4</property>
  </entry>
  <entry producer="chain1" in="00:02:27.986" out="00:02:29.488">
   <property name="kdenlive:id">4</property>
  </entry>
  <entry producer="chain1" in="00:02:29.529" out="00:02:31.073">
   <property name="kdenlive:id">4</property>
  </entry>
  <entry producer="chain1" in="00:02:31.114" out="00:02:32.491">
   <property name="kdenlive:id">4</property>
  </entry>
  <entry producer="chain1" in="00:02:32.532" out="00:02:34.034">
   <property name="kdenlive:id">4</property>
  </entry>
  <entry producer="chain1" in="00:02:34.076" out="00:02:38.455">
   <property name="kdenlive:id">4</property>
  </entry>
  <entry producer="chain1" in="00:02:38.497" out="00:02:41.708">
   <property name="kdenlive:id">4</property>
  </entry>
  <entry producer="chain1" in="00:02:41.750" out="00:02:44.044">
   <property name="kdenlive:id">4</property>
  </entry>
  <entry producer="chain1" in="00:02:44.086" out="00:02:46.463">
   <property name="kdenlive:id">4</property>
  </entry>
  <entry producer="chain1" in="00:02:46.505" out="00:02:49.800">
   <property name="kdenlive:id">4</property>
  </entry>
  <entry producer="chain1" in="00:02:49.841" out="00:02:51.969">
   <property name="kdenlive:id">4</property>
  </entry>
  <entry producer="chain1" in="00:02:52.010" out="00:02:55.597">
   <property name="kdenlive:id">4</property>
  </entry>
  <entry producer="chain1" in="00:02:55.639" out="00:02:56.974">
   <property name="kdenlive:id">4</property>
  </entry>
  <entry producer="chain1" in="00:02:57.015" out="00:02:58.725">
   <property name="kdenlive:id">4</property>
  </entry>
  <entry producer="chain1" in="00:02:58.767" out="00:03:00.667">
   <property name="kdenlive:id">4</property>
  </entry>
  <entry producer="chain1" in="00:03:00.709" out="00:03:02.211">
   <property name="kdenlive:id">4</property>
  </entry>
  <entry producer="chain1" in="00:03:02.252" out="00:03:04.963">
   <property name="kdenlive:id">4</property>
  </entry>
  <entry producer="chain1" in="00:03:05.005" out="00:03:11.178">
   <property name="kdenlive:id">4</property>
  </entry>
  <entry producer="chain1" in="00:03:11.220" out="00:03:15.515">
   <property name="kdenlive:id">4</property>
  </entry>
  <entry producer="chain1" in="00:03:15.557" out="00:03:17.226">
   <property name="kdenlive:id">4</property>
  </entry>
  <entry producer="chain1" in="00:03:17.267" out="00:03:21.146">
   <property name="kdenlive:id">4</property>
  </entry>
  <entry producer="chain1" in="00:03:21.188" out="00:03:23.315">
   <property name="kdenlive:id">4</property>
  </entry>
  <entry producer="chain1" in="00:03:23.357" out="00:03:25.901">
   <property name="kdenlive:id">4</property>
  </entry>
  <entry producer="chain1" in="00:03:25.943" out="00:03:27.819">
   <property name="kdenlive:id">4</property>
  </entry>
  <entry producer="chain1" in="00:03:27.861" out="00:03:30.322">
   <property name="kdenlive:id">4</property>
  </entry>
  <entry producer="chain1" in="00:03:30.364" out="00:03:32.241">
   <property name="kdenlive:id">4</property>
  </entry>
  <entry producer="chain1" in="00:03:32.282" out="00:03:35.744">
   <property name="kdenlive:id">4</property>
  </entry>
  <entry producer="chain1" in="00:03:35.786" out="00:03:37.871">
   <property name="kdenlive:id">4</property>
  </entry>
  <entry producer="chain1" in="00:03:37.913" out="00:03:39.998">
   <property name="kdenlive:id">4</property>
  </entry>
  <entry producer="chain1" in="00:03:40.040" out="00:03:41.917">
   <property name="kdenlive:id">4</property>
  </entry>
  <entry producer="chain1" in="00:03:41.959" out="00:03:48.090">
   <property name="kdenlive:id">4</property>
  </entry>
  <entry producer="chain1" in="00:03:48.131" out="00:03:54.388">
   <property name="kdenlive:id">4</property>
  </entry>
  <entry producer="chain1" in="00:03:54.429" out="00:04:00.459">
   <property name="kdenlive:id">4</property>
  </entry>
  <entry producer="chain1" in="00:04:00.500" out="00:04:06.423">
   <property name="kdenlive:id">4</property>
  </entry>
  <entry producer="chain1" in="00:04:06.465" out="00:04:07.007">
   <property name="kdenlive:id">4</property>
  </entry>
  <entry producer="chain1" in="00:04:07.049" out="00:04:11.762">
   <property name="kdenlive:id">4</property>
  </entry>
 </playlist>
 <playlist id="playlist5"/>
 <tractor id="tractor2" in="00:00:00.000" out="00:04:11.762">
  <property name="kdenlive:trackheight">67</property>
  <property name="kdenlive:timeline_active">1</property>
  <property name="kdenlive:collapsed">0</property>
  <property name="kdenlive:thumbs_format"/>
  <property name="kdenlive:audio_rec"/>
  <track hide="audio" producer="playlist4"/>
  <track hide="audio" producer="playlist5"/>
 </tractor>
 <playlist id="playlist6"/>
 <playlist id="playlist7"/>
 <tractor id="tractor3" in="00:00:00.000">
  <property name="kdenlive:trackheight">67</property>
  <property name="kdenlive:timeline_active">1</property>
  <property name="kdenlive:collapsed">0</property>
  <property name="kdenlive:thumbs_format"/>
  <property name="kdenlive:audio_rec"/>
  <track hide="audio" producer="playlist6"/>
  <track hide="audio" producer="playlist7"/>
 </tractor>
 <tractor id="{90190010-f2ff-4c73-bf2a-0fb32c85c9c9}" in="00:00:00.000" out="00:25:03.045">
  <property name="kdenlive:uuid">{90190010-f2ff-4c73-bf2a-0fb32c85c9c9}</property>
  <property name="kdenlive:clipname">Sequence 1</property>
  <property name="kdenlive:sequenceproperties.hasAudio">1</property>
  <property name="kdenlive:sequenceproperties.hasVideo">1</property>
  <property name="kdenlive:sequenceproperties.activeTrack">2</property>
  <property name="kdenlive:sequenceproperties.tracksCount">4</property>
  <property name="kdenlive:sequenceproperties.documentuuid">{90190010-f2ff-4c73-bf2a-0fb32c85c9c9}</property>
  <property name="kdenlive:duration">00:04:11:19</property>
  <property name="kdenlive:maxduration">6037</property>
  <property name="kdenlive:producer_type">17</property>
  <property name="kdenlive:id">3</property>
  <property name="kdenlive:clip_type">0</property>
  <property name="kdenlive:file_hash">c383ebc091d2762d308abf2083130abb</property>
  <property name="kdenlive:folderid">2</property>
  <property name="kdenlive:sequenceproperties.audioTarget">1</property>
  <property name="kdenlive:sequenceproperties.tracks">4</property>
  <property name="kdenlive:sequenceproperties.verticalzoom">1</property>
  <property name="kdenlive:sequenceproperties.videoTarget">2</property>
  <property name="kdenlive:sequenceproperties.zonein">0</property>
  <property name="kdenlive:sequenceproperties.zoneout">6037</property>
  <property name="kdenlive:sequenceproperties.zoom">2</property>
  <property name="kdenlive:sequenceproperties.groups">[
    {
        "children": [
            {
                "data": "2:4124",
                "leaf": "clip",
                "type": "Leaf"
            },
            {
                "data": "1:4124",
                "leaf": "clip",
                "type": "Leaf"
            }
        ],
        "type": "AVSplit"
    },
    {
        "children": [
            {
                "data": "1:4072",
                "leaf": "clip",
                "type": "Leaf"
            },
            {
                "data": "2:4072",
                "leaf": "clip",
                "type": "Leaf"
            }
        ],
        "type": "AVSplit"
    },
    {
        "children": [
            {
                "data": "2:3992",
                "leaf": "clip",
                "type": "Leaf"
            },
            {
                "data": "1:3992",
                "leaf": "clip",
                "type": "Leaf"
            }
        ],
        "type": "AVSplit"
    },
    {
        "children": [
            {
                "data": "1:3934",
                "leaf": "clip",
                "type": "Leaf"
            },
            {
                "data": "2:3934",
                "leaf": "clip",
                "type": "Leaf"
            }
        ],
        "type": "AVSplit"
    },
    {
        "children": [
            {
                "data": "2:3878",
                "leaf": "clip",
                "type": "Leaf"
            },
            {
                "data": "1:3878",
                "leaf": "clip",
                "type": "Leaf"
            }
        ],
        "type": "AVSplit"
    },
    {
        "children": [
            {
                "data": "1:3800",
                "leaf": "clip",
                "type": "Leaf"
            },
            {
                "data": "2:3800",
                "leaf": "clip",
                "type": "Leaf"
            }
        ],
        "type": "AVSplit"
    },
    {
        "children": [
            {
                "data": "2:3694",
                "leaf": "clip",
                "type": "Leaf"
            },
            {
                "data": "1:3694",
                "leaf": "clip",
                "type": "Leaf"
            }
        ],
        "type": "AVSplit"
    },
    {
        "children": [
            {
                "data": "1:3657",
                "leaf": "clip",
                "type": "Leaf"
            },
            {
                "data": "2:3657",
                "leaf": "clip",
                "type": "Leaf"
            }
        ],
        "type": "AVSplit"
    },
    {
        "children": [
            {
                "data": "2:3623",
                "leaf": "clip",
                "type": "Leaf"
            },
            {
                "data": "1:3623",
                "leaf": "clip",
                "type": "Leaf"
            }
        ],
        "type": "AVSplit"
    },
    {
        "children": [
            {
                "data": "1:3585",
                "leaf": "clip",
                "type": "Leaf"
            },
            {
                "data": "2:3585",
                "leaf": "clip",
                "type": "Leaf"
            }
        ],
        "type": "AVSplit"
    },
    {
        "children": [
            {
                "data": "2:3548",
                "leaf": "clip",
                "type": "Leaf"
            },
            {
                "data": "1:3548",
                "leaf": "clip",
                "type": "Leaf"
            }
        ],
        "type": "AVSplit"
    },
    {
        "children": [
            {
                "data": "1:3494",
                "leaf": "clip",
                "type": "Leaf"
            },
            {
                "data": "2:3494",
                "leaf": "clip",
                "type": "Leaf"
            }
        ],
        "type": "AVSplit"
    },
    {
        "children": [
            {
                "data": "2:3400",
                "leaf": "clip",
                "type": "Leaf"
            },
            {
                "data": "1:3400",
                "leaf": "clip",
                "type": "Leaf"
            }
        ],
        "type": "AVSplit"
    },
    {
        "children": [
            {
                "data": "1:3331",
                "leaf": "clip",
                "type": "Leaf"
            },
            {
                "data": "2:3331",
                "leaf": "clip",
                "type": "Leaf"
            }
        ],
        "type": "AVSplit"
    },
    {
        "children": [
            {
                "data": "2:3255",
                "leaf": "clip",
                "type": "Leaf"
            },
            {
                "data": "1:3255",
                "leaf": "clip",
                "type": "Leaf"
            }
        ],
        "type": "AVSplit"
    },
    {
        "children": [
            {
                "data": "1:3219",
                "leaf": "clip",
                "type": "Leaf"
            },
            {
                "data": "2:3219",
                "leaf": "clip",
                "type": "Leaf"
            }
        ],
        "type": "AVSplit"
    },
    {
        "children": [
            {
                "data": "2:3068",
                "leaf": "clip",
                "type": "Leaf"
            },
            {
                "data": "1:3068",
                "leaf": "clip",
                "type": "Leaf"
            }
        ],
        "type": "AVSplit"
    },
    {
        "children": [
            {
                "data": "1:2958",
                "leaf": "clip",
                "type": "Leaf"
            },
            {
                "data": "2:2958",
                "leaf": "clip",
                "type": "Leaf"
            }
        ],
        "type": "AVSplit"
    },
    {
        "children": [
            {
                "data": "2:2918",
                "leaf": "clip",
                "type": "Leaf"
            },
            {
                "data": "1:2918",
                "leaf": "clip",
                "type": "Leaf"
            }
        ],
        "type": "AVSplit"
    },
    {
        "children": [
            {
                "data": "1:2875",
                "leaf": "clip",
                "type": "Leaf"
            },
            {
                "data": "2:2875",
                "leaf": "clip",
                "type": "Leaf"
            }
        ],
        "type": "AVSplit"
    },
    {
        "children": [
            {
                "data": "2:2807",
                "leaf": "clip",
                "type": "Leaf"
            },
            {
                "data": "1:2807",
                "leaf": "clip",
                "type": "Leaf"
            }
        ],
        "type": "AVSplit"
    },
    {
        "children": [
            {
                "data": "1:2745",
                "leaf": "clip",
                "type": "Leaf"
            },
            {
                "data": "2:2745",
                "leaf": "clip",
                "type": "Leaf"
            }
        ],
        "type": "AVSplit"
    },
    {
        "children": [
            {
                "data": "2:2663",
                "leaf": "clip",
                "type": "Leaf"
            },
            {
                "data": "1:2663",
                "leaf": "clip",
                "type": "Leaf"
            }
        ],
        "type": "AVSplit"
    },
    {
        "children": [
            {
                "data": "2:1783",
                "leaf": "clip",
                "type": "Leaf"
            },
            {
                "data": "1:1783",
                "leaf": "clip",
                "type": "Leaf"
            }
        ],
        "type": "AVSplit"
    },
    {
        "children": [
            {
                "data": "1:1923",
                "leaf": "clip",
                "type": "Leaf"
            },
            {
                "data": "2:1923",
                "leaf": "clip",
                "type": "Leaf"
            }
        ],
        "type": "AVSplit"
    },
    {
        "children": [
            {
                "data": "2:2026",
                "leaf": "clip",
                "type": "Leaf"
            },
            {
                "data": "1:2026",
                "leaf": "clip",
                "type": "Leaf"
            }
        ],
        "type": "AVSplit"
    },
    {
        "children": [
            {
                "data": "1:2082",
                "leaf": "clip",
                "type": "Leaf"
            },
            {
                "data": "2:2082",
                "leaf": "clip",
                "type": "Leaf"
            }
        ],
        "type": "AVSplit"
    },
    {
        "children": [
            {
                "data": "2:2138",
                "leaf": "clip",
                "type": "Leaf"
            },
            {
                "data": "1:2138",
                "leaf": "clip",
                "type": "Leaf"
            }
        ],
        "type": "AVSplit"
    },
    {
        "children": [
            {
                "data": "1:4211",
                "leaf": "clip",
                "type": "Leaf"
            },
            {
                "data": "2:4211",
                "leaf": "clip",
                "type": "Leaf"
            }
        ],
        "type": "AVSplit"
    },
    {
        "children": [
            {
                "data": "1:5923",
                "leaf": "clip",
                "type": "Leaf"
            },
            {
                "data": "2:5923",
                "leaf": "clip",
                "type": "Leaf"
            }
        ],
        "type": "AVSplit"
    },
    {
        "children": [
            {
                "data": "2:4244",
                "leaf": "clip",
                "type": "Leaf"
            },
            {
                "data": "1:4244",
                "leaf": "clip",
                "type": "Leaf"
            }
        ],
        "type": "AVSplit"
    },
    {
        "children": [
            {
                "data": "1:0",
                "leaf": "clip",
                "type": "Leaf"
            },
            {
                "data": "2:0",
                "leaf": "clip",
                "type": "Leaf"
            }
        ],
        "type": "AVSplit"
    },
    {
        "children": [
            {
                "data": "1:4286",
                "leaf": "clip",
                "type": "Leaf"
            },
            {
                "data": "2:4286",
                "leaf": "clip",
                "type": "Leaf"
            }
        ],
        "type": "AVSplit"
    },
    {
        "children": [
            {
                "data": "2:7",
                "leaf": "clip",
                "type": "Leaf"
            },
            {
                "data": "1:7",
                "leaf": "clip",
                "type": "Leaf"
            }
        ],
        "type": "AVSplit"
    },
    {
        "children": [
            {
                "data": "2:4332",
                "leaf": "clip",
                "type": "Leaf"
            },
            {
                "data": "1:4332",
                "leaf": "clip",
                "type": "Leaf"
            }
        ],
        "type": "AVSplit"
    },
    {
        "children": [
            {
                "data": "1:153",
                "leaf": "clip",
                "type": "Leaf"
            },
            {
                "data": "2:153",
                "leaf": "clip",
                "type": "Leaf"
            }
        ],
        "type": "AVSplit"
    },
    {
        "children": [
            {
                "data": "1:4369",
                "leaf": "clip",
                "type": "Leaf"
            },
            {
                "data": "2:4369",
                "leaf": "clip",
                "type": "Leaf"
            }
        ],
        "type": "AVSplit"
    },
    {
        "children": [
            {
                "data": "2:227",
                "leaf": "clip",
                "type": "Leaf"
            },
            {
                "data": "1:227",
                "leaf": "clip",
                "type": "Leaf"
            }
        ],
        "type": "AVSplit"
    },
    {
        "children": [
            {
                "data": "2:4435",
                "leaf": "clip",
                "type": "Leaf"
            },
            {
                "data": "1:4435",
                "leaf": "clip",
                "type": "Leaf"
            }
        ],
        "type": "AVSplit"
    },
    {
        "children": [
            {
                "data": "1:299",
                "leaf": "clip",
                "type": "Leaf"
            },
            {
                "data": "2:299",
                "leaf": "clip",
                "type": "Leaf"
            }
        ],
        "type": "AVSplit"
    },
    {
        "children": [
            {
                "data": "1:4584",
                "leaf": "clip",
                "type": "Leaf"
            },
            {
                "data": "2:4584",
                "leaf": "clip",
                "type": "Leaf"
            }
        ],
        "type": "AVSplit"
    },
    {
        "children": [
            {
                "data": "2:403",
                "leaf": "clip",
                "type": "Leaf"
            },
            {
                "data": "1:403",
                "leaf": "clip",
                "type": "Leaf"
            }
        ],
        "type": "AVSplit"
    },
    {
        "children": [
            {
                "data": "2:4688",
                "leaf": "clip",
                "type": "Leaf"
            },
            {
                "data": "1:4688",
                "leaf": "clip",
                "type": "Leaf"
            }
        ],
        "type": "AVSplit"
    },
    {
        "children": [
            {
                "data": "1:541",
                "leaf": "clip",
                "type": "Leaf"
            },
            {
                "data": "2:541",
                "leaf": "clip",
                "type": "Leaf"
            }
        ],
        "type": "AVSplit"
    },
    {
        "children": [
            {
                "data": "1:4729",
                "leaf": "clip",
                "type": "Leaf"
            },
            {
                "data": "2:4729",
                "leaf": "clip",
                "type": "Leaf"
            }
        ],
        "type": "AVSplit"
    },
    {
        "children": [
            {
                "data": "2:694",
                "leaf": "clip",
                "type": "Leaf"
            },
            {
                "data": "1:694",
                "leaf": "clip",
                "type": "Leaf"
            }
        ],
        "type": "AVSplit"
    },
    {
        "children": [
            {
                "data": "2:4823",
                "leaf": "clip",
                "type": "Leaf"
            },
            {
                "data": "1:4823",
                "leaf": "clip",
                "type": "Leaf"
            }
        ],
        "type": "AVSplit"
    },
    {
        "children": [
            {
                "data": "1:802",
                "leaf": "clip",
                "type": "Leaf"
            },
            {
                "data": "2:802",
                "leaf": "clip",
                "type": "Leaf"
            }
        ],
        "type": "AVSplit"
    },
    {
        "children": [
            {
                "data": "1:1732",
                "leaf": "clip",
                "type": "Leaf"
            },
            {
                "data": "2:1732",
                "leaf": "clip",
                "type": "Leaf"
            }
        ],
        "type": "AVSplit"
    },
    {
        "children": [
            {
                "data": "1:5909",
                "leaf": "clip",
                "type": "Leaf"
            },
            {
                "data": "2:5909",
                "leaf": "clip",
                "type": "Leaf"
            }
        ],
        "type": "AVSplit"
    },
    {
        "children": [
            {
                "data": "2:1630",
                "leaf": "clip",
                "type": "Leaf"
            },
            {
                "data": "1:1630",
                "leaf": "clip",
                "type": "Leaf"
            }
        ],
        "type": "AVSplit"
    },
    {
        "children": [
            {
                "data": "2:5766",
                "leaf": "clip",
                "type": "Leaf"
            },
            {
                "data": "1:5766",
                "leaf": "clip",
                "type": "Leaf"
            }
        ],
        "type": "AVSplit"
    },
    {
        "children": [
            {
                "data": "1:1588",
                "leaf": "clip",
                "type": "Leaf"
            },
            {
                "data": "2:1588",
                "leaf": "clip",
                "type": "Leaf"
            }
        ],
        "type": "AVSplit"
    },
    {
        "children": [
            {
                "data": "1:5620",
                "leaf": "clip",
                "type": "Leaf"
            },
            {
                "data": "2:5620",
                "leaf": "clip",
                "type": "Leaf"
            }
        ],
        "type": "AVSplit"
    },
    {
        "children": [
            {
                "data": "2:1526",
                "leaf": "clip",
                "type": "Leaf"
            },
            {
                "data": "1:1526",
                "leaf": "clip",
                "type": "Leaf"
            }
        ],
        "type": "AVSplit"
    },
    {
        "children": [
            {
                "data": "2:5469",
                "leaf": "clip",
                "type": "Leaf"
            },
            {
                "data": "1:5469",
                "leaf": "clip",
                "type": "Leaf"
            }
        ],
        "type": "AVSplit"
    },
    {
        "children": [
            {
                "data": "1:1487",
                "leaf": "clip",
                "type": "Leaf"
            },
            {
                "data": "2:1487",
                "leaf": "clip",
                "type": "Leaf"
            }
        ],
        "type": "AVSplit"
    },
    {
        "children": [
            {
                "data": "1:5321",
                "leaf": "clip",
                "type": "Leaf"
            },
            {
                "data": "2:5321",
                "leaf": "clip",
                "type": "Leaf"
            }
        ],
        "type": "AVSplit"
    },
    {
        "children": [
            {
                "data": "2:1428",
                "leaf": "clip",
                "type": "Leaf"
            },
            {
                "data": "1:1428",
                "leaf": "clip",
                "type": "Leaf"
            }
        ],
        "type": "AVSplit"
    },
    {
        "children": [
            {
                "data": "2:5275",
                "leaf": "clip",
                "type": "Leaf"
            },
            {
                "data": "1:5275",
                "leaf": "clip",
                "type": "Leaf"
            }
        ],
        "type": "AVSplit"
    },
    {
        "children": [
            {
                "data": "1:1338",
                "leaf": "clip",
                "type": "Leaf"
            },
            {
                "data": "2:1338",
                "leaf": "clip",
                "type": "Leaf"
            }
        ],
        "type": "AVSplit"
    },
    {
        "children": [
            {
                "data": "1:5224",
                "leaf": "clip",
                "type": "Leaf"
            },
            {
                "data": "2:5224",
                "leaf": "clip",
                "type": "Leaf"
            }
        ],
        "type": "AVSplit"
    },
    {
        "children": [
            {
                "data": "2:1291",
                "leaf": "clip",
                "type": "Leaf"
            },
            {
                "data": "1:1291",
                "leaf": "clip",
                "type": "Leaf"
            }
        ],
        "type": "AVSplit"
    },
    {
        "children": [
            {
                "data": "2:5173",
                "leaf": "clip",
                "type": "Leaf"
            },
            {
                "data": "1:5173",
                "leaf": "clip",
                "type": "Leaf"
            }
        ],
        "type": "AVSplit"
    },
    {
        "children": [
            {
                "data": "1:1183",
                "leaf": "clip",
                "type": "Leaf"
            },
            {
                "data": "2:1183",
                "leaf": "clip",
                "type": "Leaf"
            }
        ],
        "type": "AVSplit"
    },
    {
        "children": [
            {
                "data": "1:5089",
                "leaf": "clip",
                "type": "Leaf"
            },
            {
                "data": "2:5089",
                "leaf": "clip",
                "type": "Leaf"
            }
        ],
        "type": "AVSplit"
    },
    {
        "children": [
            {
                "data": "2:1125",
                "leaf": "clip",
                "type": "Leaf"
            },
            {
                "data": "1:1125",
                "leaf": "clip",
                "type": "Leaf"
            }
        ],
        "type": "AVSplit"
    },
    {
        "children": [
            {
                "data": "2:5043",
                "leaf": "clip",
                "type": "Leaf"
            },
            {
                "data": "1:5043",
                "leaf": "clip",
                "type": "Leaf"
            }
        ],
        "type": "AVSplit"
    },
    {
        "children": [
            {
                "data": "1:1033",
                "leaf": "clip",
                "type": "Leaf"
            },
            {
                "data": "2:1033",
                "leaf": "clip",
                "type": "Leaf"
            }
        ],
        "type": "AVSplit"
    },
    {
        "children": [
            {
                "data": "1:4983",
                "leaf": "clip",
                "type": "Leaf"
            },
            {
                "data": "2:4983",
                "leaf": "clip",
                "type": "Leaf"
            }
        ],
        "type": "AVSplit"
    },
    {
        "children": [
            {
                "data": "2:1013",
                "leaf": "clip",
                "type": "Leaf"
            },
            {
                "data": "1:1013",
                "leaf": "clip",
                "type": "Leaf"
            }
        ],
        "type": "AVSplit"
    },
    {
        "children": [
            {
                "data": "2:4937",
                "leaf": "clip",
                "type": "Leaf"
            },
            {
                "data": "1:4937",
                "leaf": "clip",
                "type": "Leaf"
            }
        ],
        "type": "AVSplit"
    },
    {
        "children": [
            {
                "data": "1:987",
                "leaf": "clip",
                "type": "Leaf"
            },
            {
                "data": "2:987",
                "leaf": "clip",
                "type": "Leaf"
            }
        ],
        "type": "AVSplit"
    },
    {
        "children": [
            {
                "data": "1:4875",
                "leaf": "clip",
                "type": "Leaf"
            },
            {
                "data": "2:4875",
                "leaf": "clip",
                "type": "Leaf"
            }
        ],
        "type": "AVSplit"
    },
    {
        "children": [
            {
                "data": "2:897",
                "leaf": "clip",
                "type": "Leaf"
            },
            {
                "data": "1:897",
                "leaf": "clip",
                "type": "Leaf"
            }
        ],
        "type": "AVSplit"
    },
    {
        "children": [
            {
                "data": "1:2285",
                "leaf": "clip",
                "type": "Leaf"
            },
            {
                "data": "2:2285",
                "leaf": "clip",
                "type": "Leaf"
            }
        ],
        "type": "AVSplit"
    },
    {
        "children": [
            {
                "data": "2:2370",
                "leaf": "clip",
                "type": "Leaf"
            },
            {
                "data": "1:2370",
                "leaf": "clip",
                "type": "Leaf"
            }
        ],
        "type": "AVSplit"
    },
    {
        "children": [
            {
                "data": "1:2413",
                "leaf": "clip",
                "type": "Leaf"
            },
            {
                "data": "2:2413",
                "leaf": "clip",
                "type": "Leaf"
            }
        ],
        "type": "AVSplit"
    },
    {
        "children": [
            {
                "data": "2:2509",
                "leaf": "clip",
                "type": "Leaf"
            },
            {
                "data": "1:2509",
                "leaf": "clip",
                "type": "Leaf"
            }
        ],
        "type": "AVSplit"
    },
    {
        "children": [
            {
                "data": "1:2562",
                "leaf": "clip",
                "type": "Leaf"
            },
            {
                "data": "2:2562",
                "leaf": "clip",
                "type": "Leaf"
            }
        ],
        "type": "AVSplit"
    },
    {
        "children": [
            {
                "data": "2:2614",
                "leaf": "clip",
                "type": "Leaf"
            },
            {
                "data": "1:2614",
                "leaf": "clip",
                "type": "Leaf"
            }
        ],
        "type": "AVSplit"
    },
    {
        "children": [
            {
                "data": "1:2636",
                "leaf": "clip",
                "type": "Leaf"
            },
            {
                "data": "2:2636",
                "leaf": "clip",
                "type": "Leaf"
            }
        ],
        "type": "AVSplit"
    }
]
</property>
  <property name="kdenlive:sequenceproperties.guides">[
]
</property>
  <property name="kdenlive:sequenceproperties.position">6036</property>
  <property name="kdenlive:sequenceproperties.scrollPos">62047</property>
  <property name="kdenlive:sequenceproperties.disablepreview">0</property>
  <track producer="producer0"/>
  <track producer="tractor0"/>
  <track producer="tractor1"/>
  <track producer="tractor2"/>
  <track producer="tractor3"/>
  <transition id="transition0">
   <property name="a_track">0</property>
   <property name="b_track">1</property>
   <property name="mlt_service">mix</property>
   <property name="kdenlive_id">mix</property>
   <property name="internal_added">237</property>
   <property name="always_active">1</property>
   <property name="accepts_blanks">1</property>
   <property name="sum">1</property>
  </transition>
  <transition id="transition1">
   <property name="a_track">0</property>
   <property name="b_track">2</property>
   <property name="mlt_service">mix</property>
   <property name="kdenlive_id">mix</property>
   <property name="internal_added">237</property>
   <property name="always_active">1</property>
   <property name="accepts_blanks">1</property>
   <property name="sum">1</property>
  </transition>
  <transition id="transition2">
   <property name="a_track">0</property>
   <property name="b_track">3</property>
   <property name="compositing">0</property>
   <property name="distort">0</property>
   <property name="rotate_center">0</property>
   <property name="mlt_service">qtblend</property>
   <property name="always_active">1</property>
   <property name="internal_added">237</property>
  </transition>
  <transition id="transition3">
   <property name="a_track">0</property>
   <property name="b_track">4</property>
   <property name="compositing">0</property>
   <property name="distort">0</property>
   <property name="rotate_center">0</property>
   <property name="mlt_service">qtblend</property>
   <property name="always_active">1</property>
   <property name="internal_added">237</property>
  </transition>
  <filter id="filter6">
   <property name="window">75</property>
   <property name="max_gain">20dB</property>
   <property name="mlt_service">volume</property>
   <property name="internal_added">237</property>
   <property name="disable">1</property>
  </filter>
  <filter id="filter7">
   <property name="channel">-1</property>
   <property name="mlt_service">panner</property>
   <property name="internal_added">237</property>
   <property name="start">0.5</property>
   <property name="disable">1</property>
  </filter>
 </tractor>
 <chain id="chain2" out="00:04:11.762">
  <property name="length">6037</property>
  <property name="eof">pause</property>
  <property name="resource">/home/fedora/Jupyter/defining-video-cuts/videos/7.mp4</property>
  <property name="mlt_service">avformat</property>
  <property name="meta.media.nb_streams">2</property>
  <property name="meta.media.0.stream.type">video</property>
  <property name="meta.media.0.stream.frame_rate">23.976</property>
  <property name="meta.media.0.stream.sample_aspect_ratio">0</property>
  <property name="meta.media.0.codec.width">640</property>
  <property name="meta.media.0.codec.height">360</property>
  <property name="meta.media.0.codec.rotate">0</property>
  <property name="meta.media.0.codec.pix_fmt">yuv420p</property>
  <property name="meta.media.0.codec.sample_aspect_ratio">1</property>
  <property name="meta.media.0.codec.colorspace">709</property>
  <property name="meta.media.0.codec.color_trc">1</property>
  <property name="meta.media.0.codec.name">h264</property>
  <property name="meta.media.0.codec.long_name">H.264 / AVC / MPEG-4 AVC / MPEG-4 part 10</property>
  <property name="meta.media.0.codec.bit_rate">163035</property>
  <property name="meta.attr.0.stream.creation_time.markup">2023-11-25T03:21:28.000000Z</property>
  <property name="meta.attr.0.stream.handler_name.markup">ISO Media file produced by Google Inc. Created on: 11/24/2023.</property>
  <property name="meta.attr.0.stream.vendor_id.markup">[0][0][0][0]</property>
  <property name="meta.media.1.stream.type">audio</property>
  <property name="meta.media.1.codec.sample_fmt">fltp</property>
  <property name="meta.media.1.codec.sample_rate">44100</property>
  <property name="meta.media.1.codec.channels">2</property>
  <property name="meta.media.1.codec.name">aac</property>
  <property name="meta.media.1.codec.long_name">AAC (Advanced Audio Coding)</property>
  <property name="meta.media.1.codec.bit_rate">127999</property>
  <property name="meta.attr.1.stream.creation_time.markup">2023-11-25T03:21:28.000000Z</property>
  <property name="meta.attr.1.stream.language.markup">eng</property>
  <property name="meta.attr.1.stream.handler_name.markup">ISO Media file produced by Google Inc. Created on: 11/24/2023.</property>
  <property name="meta.attr.1.stream.vendor_id.markup">[0][0][0][0]</property>
  <property name="meta.attr.major_brand.markup">mp42</property>
  <property name="meta.attr.minor_version.markup">0</property>
  <property name="meta.attr.compatible_brands.markup">isommp42</property>
  <property name="meta.attr.creation_time.markup">2023-11-25T03:21:28.000000Z</property>
  <property name="seekable">1</property>
  <property name="meta.media.sample_aspect_num">1</property>
  <property name="meta.media.sample_aspect_den">1</property>
  <property name="format">3</property>
  <property name="audio_index">1</property>
  <property name="video_index">0</property>
  <property name="vstream">0</property>
  <property name="meta.media.frame_rate_num">24000</property>
  <property name="meta.media.frame_rate_den">1001</property>
  <property name="meta.media.colorspace">709</property>
  <property name="meta.media.color_trc">1</property>
  <property name="meta.media.has_b_frames">1</property>
  <property name="meta.media.width">640</property>
  <property name="meta.media.height">360</property>
  <property name="meta.media.color_range">mpeg</property>
  <property name="astream">0</property>
  <property name="meta.media.top_field_first">0</property>
  <property name="meta.media.progressive">1</property>
  <property name="kdenlive:id">4</property>
  <property name="kdenlive:clip_type">0</property>
  <property name="kdenlive:file_size">9272494</property>
  <property name="kdenlive:file_hash">9a9183930e2f91be7e38ca7c59ba1c4c</property>
  <property name="kdenlive:folderid">-1</property>
  <property name="kdenlive:audio_max1">215</property>
 </chain>
 <playlist id="main_bin">
  <property name="kdenlive:folder.-1.2">Sequences</property>
  <property name="kdenlive:sequenceFolder">2</property>
  <property name="kdenlive:docproperties.audioChannels">2</property>
  <property name="kdenlive:docproperties.browserurl">/home/fedora/Videos/</property>
  <property name="kdenlive:docproperties.compositing">1</property>
  <property name="kdenlive:docproperties.documentid">1701700397611</property>
  <property name="kdenlive:docproperties.enableTimelineZone">0</property>
  <property name="kdenlive:docproperties.enableexternalproxy">0</property>
  <property name="kdenlive:docproperties.enableproxy">0</property>
  <property name="kdenlive:docproperties.externalproxyparams"/>
  <property name="kdenlive:docproperties.generateimageproxy">0</property>
  <property name="kdenlive:docproperties.generateproxy">0</property>
  <property name="kdenlive:docproperties.guidesCategories">[
    {
        "color": "#9b59b6",
        "comment": "Category 1",
        "index": 0
    },
    {
        "color": "#3daee9",
        "comment": "Category 2",
        "index": 1
    },
    {
        "color": "#1abc9c",
        "comment": "Category 3",
        "index": 2
    },
    {
        "color": "#1cdc9a",
        "comment": "Category 4",
        "index": 3
    },
    {
        "color": "#c9ce3b",
        "comment": "Category 5",
        "index": 4
    },
    {
        "color": "#fdbc4b",
        "comment": "Category 6",
        "index": 5
    },
    {
        "color": "#f39c1f",
        "comment": "Category 7",
        "index": 6
    },
    {
        "color": "#f47750",
        "comment": "Category 8",
        "index": 7
    },
    {
        "color": "#da4453",
        "comment": "Category 9",
        "index": 8
    }
]
</property>
  <property name="kdenlive:docproperties.kdenliveversion">23.08.3</property>
  <property name="kdenlive:docproperties.previewextension"/>
  <property name="kdenlive:docproperties.previewparameters"/>
  <property name="kdenlive:docproperties.profile">/home/fedora/.local/share/kdenlive/profiles/customprofile0</property>
  <property name="kdenlive:docproperties.proxyextension"/>
  <property name="kdenlive:docproperties.proxyimageminsize">2000</property>
  <property name="kdenlive:docproperties.proxyimagesize">800</property>
  <property name="kdenlive:docproperties.proxyminsize">1000</property>
  <property name="kdenlive:docproperties.proxyparams"/>
  <property name="kdenlive:docproperties.proxyresize">640</property>
  <property name="kdenlive:docproperties.seekOffset">30000</property>
  <property name="kdenlive:docproperties.uuid">{90190010-f2ff-4c73-bf2a-0fb32c85c9c9}</property>
  <property name="kdenlive:docproperties.version">1.1</property>
  <property name="kdenlive:expandedFolders"/>
  <property name="kdenlive:binZoom">4</property>
  <property name="kdenlive:documentnotes"/>
  <property name="kdenlive:docproperties.opensequences">{90190010-f2ff-4c73-bf2a-0fb32c85c9c9}</property>
  <property name="kdenlive:docproperties.activetimeline">{90190010-f2ff-4c73-bf2a-0fb32c85c9c9}</property>
  <property name="xml_retain">1</property>
  <entry producer="{90190010-f2ff-4c73-bf2a-0fb32c85c9c9}" in="00:00:00.000" out="00:00:00.000"/>
  <entry producer="chain2" in="00:00:00.000" out="00:04:11.762"/>
 </playlist>
 <tractor id="tractor4" in="00:00:00.000" out="00:04:11.803">
  <property name="kdenlive:projectTractor">1</property>
  <track producer="{90190010-f2ff-4c73-bf2a-0fb32c85c9c9}" in="00:00:00.000" out="00:04:11.803"/>
 </tractor>
</mlt>
