<?xml version='1.0' encoding='utf-8'?>
<mlt LC_NUMERIC="C" producer="main_bin" version="7.20.0" root="/home/fedora/Videos/kdenlive">
 <profile frame_rate_num="25" sample_aspect_num="1" display_aspect_den="9" colorspace="709" progressive="1" description="640x360 25.00fps" display_aspect_num="16" frame_rate_den="1" width="640" height="360" sample_aspect_den="1"/>
 <producer id="producer0" in="00:00:00.000" out="00:24:46.840">
  <property name="length">2147483647</property>
  <property name="eof">continue</property>
  <property name="resource">black</property>
  <property name="aspect_ratio">1</property>
  <property name="mlt_service">color</property>
  <property name="kdenlive:playlistid">black_track</property>
  <property name="mlt_image_format">rgba</property>
  <property name="set.test_audio">0</property>
 </producer>
 <playlist id="playlist0">
  <property name="kdenlive:audio_track">1</property>
 </playlist>
 <playlist id="playlist1">
  <property name="kdenlive:audio_track">1</property>
 </playlist>
 <tractor id="tractor0" in="00:00:00.000">
  <property name="kdenlive:audio_track">1</property>
  <property name="kdenlive:trackheight">67</property>
  <property name="kdenlive:timeline_active">1</property>
  <property name="kdenlive:collapsed">0</property>
  <property name="kdenlive:thumbs_format"/>
  <property name="kdenlive:audio_rec"/>
  <track hide="video" producer="playlist0"/>
  <track hide="video" producer="playlist1"/>
  <filter id="filter0">
   <property name="window">75</property>
   <property name="max_gain">20dB</property>
   <property name="mlt_service">volume</property>
   <property name="internal_added">237</property>
   <property name="disable">1</property>
  </filter>
  <filter id="filter1">
   <property name="channel">-1</property>
   <property name="mlt_service">panner</property>
   <property name="internal_added">237</property>
   <property name="start">0.5</property>
   <property name="disable">1</property>
  </filter>
  <filter id="filter2">
   <property name="iec_scale">0</property>
   <property name="mlt_service">audiolevel</property>
   <property name="dbpeak">1</property>
   <property name="disable">1</property>
  </filter>
 </tractor>
 <chain id="chain0" out="00:04:46.800">
  <property name="length">7171</property>
  <property name="eof">pause</property>
  <property name="resource">/home/fedora/Videos/Clips/Lana Del Rey - Born To Die.mp4</property>
  <property name="mlt_service">avformat-novalidate</property>
  <property name="seekable">1</property>
  <property name="format">3</property>
  <property name="audio_index">1</property>
  <property name="video_index">0</property>
  <property name="vstream">0</property>
  <property name="astream">0</property>
  <property name="kdenlive:id">4</property>
  <property name="kdenlive:clip_type">0</property>
  <property name="kdenlive:file_size">5276714</property>
  <property name="kdenlive:file_hash">603650ff352e5fb6b386c445076076af</property>
  <property name="kdenlive:folderid">-1</property>
  <property name="kdenlive:audio_max1">180</property>
  <property name="meta.media.nb_streams">2</property>
  <property name="meta.media.0.stream.type">video</property>
  <property name="meta.media.0.stream.frame_rate">25</property>
  <property name="meta.media.0.stream.sample_aspect_ratio">0</property>
  <property name="meta.media.0.codec.width">640</property>
  <property name="meta.media.0.codec.height">360</property>
  <property name="meta.media.0.codec.rotate">0</property>
  <property name="meta.media.0.codec.pix_fmt">yuv420p</property>
  <property name="meta.media.0.codec.sample_aspect_ratio">1</property>
  <property name="meta.media.0.codec.colorspace">709</property>
  <property name="meta.media.0.codec.color_trc">1</property>
  <property name="meta.media.0.codec.name">h264</property>
  <property name="meta.media.0.codec.long_name">H.264 / AVC / MPEG-4 AVC / MPEG-4 part 10</property>
  <property name="meta.media.0.codec.bit_rate">96226</property>
  <property name="meta.attr.0.stream.creation_time.markup">2023-11-18T01:57:05.000000Z</property>
  <property name="meta.attr.0.stream.handler_name.markup">ISO Media file produced by Google Inc. Created on: 11/17/2023.</property>
  <property name="meta.attr.0.stream.vendor_id.markup">[0][0][0][0]</property>
  <property name="meta.media.1.stream.type">audio</property>
  <property name="meta.media.1.codec.sample_fmt">fltp</property>
  <property name="meta.media.1.codec.sample_rate">44100</property>
  <property name="meta.media.1.codec.channels">2</property>
  <property name="meta.media.1.codec.name">aac</property>
  <property name="meta.media.1.codec.long_name">AAC (Advanced Audio Coding)</property>
  <property name="meta.media.1.codec.bit_rate">48016</property>
  <property name="meta.attr.1.stream.creation_time.markup">2023-11-18T01:57:05.000000Z</property>
  <property name="meta.attr.1.stream.handler_name.markup">ISO Media file produced by Google Inc. Created on: 11/17/2023.</property>
  <property name="meta.attr.1.stream.vendor_id.markup">[0][0][0][0]</property>
  <property name="meta.attr.major_brand.markup">mp42</property>
  <property name="meta.attr.minor_version.markup">0</property>
  <property name="meta.attr.compatible_brands.markup">isommp42</property>
  <property name="meta.attr.creation_time.markup">2023-11-18T01:57:05.000000Z</property>
  <property name="meta.media.sample_aspect_num">1</property>
  <property name="meta.media.sample_aspect_den">1</property>
  <property name="meta.media.frame_rate_num">25</property>
  <property name="meta.media.frame_rate_den">1</property>
  <property name="meta.media.colorspace">709</property>
  <property name="meta.media.color_trc">1</property>
  <property name="meta.media.has_b_frames">1</property>
  <property name="meta.media.width">640</property>
  <property name="meta.media.height">360</property>
  <property name="meta.media.color_range">mpeg</property>
  <property name="xml">was here</property>
  <property name="mute_on_pause">0</property>
  <property name="meta.media.top_field_first">0</property>
  <property name="meta.media.progressive">1</property>
  <property name="set.test_audio">0</property>
  <property name="set.test_image">1</property>
 </chain>
 <playlist id="playlist2">
  <property name="kdenlive:audio_track">1</property>
  <entry producer="chain0" in="00:00:00.000" out="00:00:00.960">
   <property name="kdenlive:id">4</property>
  </entry>
  <entry producer="chain0" in="00:00:01.000" out="00:00:12.320">
   <property name="kdenlive:id">4</property>
  </entry>
  <entry producer="chain0" in="00:00:12.360" out="00:00:44.880">
   <property name="kdenlive:id">4</property>
  </entry>
  <entry producer="chain0" in="00:00:44.920" out="00:00:50.160">
   <property name="kdenlive:id">4</property>
  </entry>
  <entry producer="chain0" in="00:00:50.200" out="00:00:53.160">
   <property name="kdenlive:id">4</property>
  </entry>
  <entry producer="chain0" in="00:00:53.200" out="00:00:55.320">
   <property name="kdenlive:id">4</property>
  </entry>
  <entry producer="chain0" in="00:00:55.360" out="00:01:00.040">
   <property name="kdenlive:id">4</property>
  </entry>
  <entry producer="chain0" in="00:01:00.080" out="00:01:02.040">
   <property name="kdenlive:id">4</property>
  </entry>
  <entry producer="chain0" in="00:01:02.080" out="00:01:03.640">
   <property name="kdenlive:id">4</property>
  </entry>
  <entry producer="chain0" in="00:01:03.680" out="00:01:05.520">
   <property name="kdenlive:id">4</property>
  </entry>
  <entry producer="chain0" in="00:01:05.560" out="00:01:06.760">
   <property name="kdenlive:id">4</property>
  </entry>
  <entry producer="chain0" in="00:01:06.800" out="00:01:08.680">
   <property name="kdenlive:id">4</property>
  </entry>
  <entry producer="chain0" in="00:01:08.720" out="00:01:13.720">
   <property name="kdenlive:id">4</property>
  </entry>
  <entry producer="chain0" in="00:01:13.760" out="00:01:15.520">
   <property name="kdenlive:id">4</property>
  </entry>
  <entry producer="chain0" in="00:01:15.560" out="00:01:17.240">
   <property name="kdenlive:id">4</property>
  </entry>
  <entry producer="chain0" in="00:01:17.280" out="00:01:19.840">
   <property name="kdenlive:id">4</property>
  </entry>
  <entry producer="chain0" in="00:01:19.880" out="00:01:23.680">
   <property name="kdenlive:id">4</property>
  </entry>
  <entry producer="chain0" in="00:01:23.720" out="00:01:26.600">
   <property name="kdenlive:id">4</property>
  </entry>
  <entry producer="chain0" in="00:01:26.640" out="00:01:29.120">
   <property name="kdenlive:id">4</property>
  </entry>
  <entry producer="chain0" in="00:01:29.160" out="00:01:31.080">
   <property name="kdenlive:id">4</property>
  </entry>
  <entry producer="chain0" in="00:01:31.120" out="00:01:33.600">
   <property name="kdenlive:id">4</property>
  </entry>
  <entry producer="chain0" in="00:01:33.640" out="00:01:37.200">
   <property name="kdenlive:id">4</property>
  </entry>
  <entry producer="chain0" in="00:01:37.240" out="00:01:39.440">
   <property name="kdenlive:id">4</property>
  </entry>
  <entry producer="chain0" in="00:01:39.480" out="00:01:40.120">
   <property name="kdenlive:id">4</property>
  </entry>
  <entry producer="chain0" in="00:01:40.160" out="00:01:41.480">
   <property name="kdenlive:id">4</property>
  </entry>
  <entry producer="chain0" in="00:01:41.520" out="00:01:43.040">
   <property name="kdenlive:id">4</property>
  </entry>
  <entry producer="chain0" in="00:01:43.080" out="00:01:45.120">
   <property name="kdenlive:id">4</property>
  </entry>
  <entry producer="chain0" in="00:01:45.160" out="00:01:46.040">
   <property name="kdenlive:id">4</property>
  </entry>
  <entry producer="chain0" in="00:01:46.080" out="00:01:48.840">
   <property name="kdenlive:id">4</property>
  </entry>
  <entry producer="chain0" in="00:01:48.880" out="00:01:51.320">
   <property name="kdenlive:id">4</property>
  </entry>
  <entry producer="chain0" in="00:01:51.360" out="00:01:55.640">
   <property name="kdenlive:id">4</property>
  </entry>
  <entry producer="chain0" in="00:01:55.680" out="00:02:01.120">
   <property name="kdenlive:id">4</property>
  </entry>
  <entry producer="chain0" in="00:02:01.160" out="00:02:07.600">
   <property name="kdenlive:id">4</property>
  </entry>
  <entry producer="chain0" in="00:02:07.640" out="00:02:10.360">
   <property name="kdenlive:id">4</property>
  </entry>
  <entry producer="chain0" in="00:02:10.400" out="00:02:13.160">
   <property name="kdenlive:id">4</property>
  </entry>
  <entry producer="chain0" in="00:02:13.200" out="00:02:15.800">
   <property name="kdenlive:id">4</property>
  </entry>
  <entry producer="chain0" in="00:02:15.840" out="00:02:18.080">
   <property name="kdenlive:id">4</property>
  </entry>
  <entry producer="chain0" in="00:02:18.120" out="00:02:20.360">
   <property name="kdenlive:id">4</property>
  </entry>
  <entry producer="chain0" in="00:02:20.400" out="00:02:22.520">
   <property name="kdenlive:id">4</property>
  </entry>
  <entry producer="chain0" in="00:02:22.560" out="00:02:26.160">
   <property name="kdenlive:id">4</property>
  </entry>
  <entry producer="chain0" in="00:02:26.200" out="00:02:29.720">
   <property name="kdenlive:id">4</property>
  </entry>
  <entry producer="chain0" in="00:02:29.760" out="00:02:34.720">
   <property name="kdenlive:id">4</property>
  </entry>
  <entry producer="chain0" in="00:02:34.760" out="00:02:41.080">
   <property name="kdenlive:id">4</property>
  </entry>
  <entry producer="chain0" in="00:02:41.120" out="00:02:43.680">
   <property name="kdenlive:id">4</property>
  </entry>
  <entry producer="chain0" in="00:02:43.720" out="00:02:45.160">
   <property name="kdenlive:id">4</property>
  </entry>
  <entry producer="chain0" in="00:02:45.200" out="00:02:47.240">
   <property name="kdenlive:id">4</property>
  </entry>
  <entry producer="chain0" in="00:02:47.280" out="00:02:49.400">
   <property name="kdenlive:id">4</property>
  </entry>
  <entry producer="chain0" in="00:02:49.440" out="00:02:51.960">
   <property name="kdenlive:id">4</property>
  </entry>
  <entry producer="chain0" in="00:02:52.000" out="00:02:54.240">
   <property name="kdenlive:id">4</property>
  </entry>
  <entry producer="chain0" in="00:02:54.280" out="00:02:58.880">
   <property name="kdenlive:id">4</property>
  </entry>
  <entry producer="chain0" in="00:02:58.920" out="00:03:03.640">
   <property name="kdenlive:id">4</property>
  </entry>
  <entry producer="chain0" in="00:03:03.680" out="00:03:07.320">
   <property name="kdenlive:id">4</property>
  </entry>
  <entry producer="chain0" in="00:03:07.360" out="00:03:09.240">
   <property name="kdenlive:id">4</property>
  </entry>
  <entry producer="chain0" in="00:03:09.280" out="00:03:11.120">
   <property name="kdenlive:id">4</property>
  </entry>
  <entry producer="chain0" in="00:03:11.160" out="00:03:14.320">
   <property name="kdenlive:id">4</property>
  </entry>
  <entry producer="chain0" in="00:03:14.360" out="00:03:17.280">
   <property name="kdenlive:id">4</property>
  </entry>
  <entry producer="chain0" in="00:03:17.320" out="00:03:19.920">
   <property name="kdenlive:id">4</property>
  </entry>
  <entry producer="chain0" in="00:03:19.960" out="00:03:27.360">
   <property name="kdenlive:id">4</property>
  </entry>
  <entry producer="chain0" in="00:03:27.400" out="00:03:39.480">
   <property name="kdenlive:id">4</property>
  </entry>
  <entry producer="chain0" in="00:03:39.520" out="00:03:43.480">
   <property name="kdenlive:id">4</property>
  </entry>
  <entry producer="chain0" in="00:03:43.520" out="00:03:49.920">
   <property name="kdenlive:id">4</property>
  </entry>
  <entry producer="chain0" in="00:03:49.960" out="00:03:53.480">
   <property name="kdenlive:id">4</property>
  </entry>
  <entry producer="chain0" in="00:03:53.520" out="00:03:55.600">
   <property name="kdenlive:id">4</property>
  </entry>
  <entry producer="chain0" in="00:03:55.640" out="00:03:59.200">
   <property name="kdenlive:id">4</property>
  </entry>
  <entry producer="chain0" in="00:03:59.240" out="00:04:01.960">
   <property name="kdenlive:id">4</property>
  </entry>
  <entry producer="chain0" in="00:04:02.000" out="00:04:08.280">
   <property name="kdenlive:id">4</property>
  </entry>
  <entry producer="chain0" in="00:04:08.320" out="00:04:12.320">
   <property name="kdenlive:id">4</property>
  </entry>
  <entry producer="chain0" in="00:04:12.360" out="00:04:34.680">
   <property name="kdenlive:id">4</property>
  </entry>
  <entry producer="chain0" in="00:04:34.720" out="00:04:44.320">
   <property name="kdenlive:id">4</property>
  </entry>
  <entry producer="chain0" in="00:04:44.360" out="00:04:46.800">
   <property name="kdenlive:id">4</property>
  </entry>
 </playlist>
 <playlist id="playlist3">
  <property name="kdenlive:audio_track">1</property>
 </playlist>
 <tractor id="tractor1" in="00:00:00.000" out="00:04:46.800">
  <property name="kdenlive:audio_track">1</property>
  <property name="kdenlive:trackheight">67</property>
  <property name="kdenlive:timeline_active">1</property>
  <property name="kdenlive:collapsed">0</property>
  <property name="kdenlive:thumbs_format"/>
  <property name="kdenlive:audio_rec"/>
  <track hide="both" producer="playlist2"/>
  <track hide="both" producer="playlist3"/>
  <filter id="filter3">
   <property name="window">75</property>
   <property name="max_gain">20dB</property>
   <property name="mlt_service">volume</property>
   <property name="internal_added">237</property>
   <property name="disable">1</property>
  </filter>
  <filter id="filter4">
   <property name="channel">-1</property>
   <property name="mlt_service">panner</property>
   <property name="internal_added">237</property>
   <property name="start">0.5</property>
   <property name="disable">1</property>
  </filter>
  <filter id="filter5">
   <property name="iec_scale">0</property>
   <property name="mlt_service">audiolevel</property>
   <property name="dbpeak">1</property>
   <property name="disable">1</property>
  </filter>
 </tractor>
 <chain id="chain1" out="00:04:46.800">
  <property name="length">7171</property>
  <property name="eof">pause</property>
  <property name="resource">/home/fedora/Videos/Clips/Lana Del Rey - Born To Die.mp4</property>
  <property name="mlt_service">avformat-novalidate</property>
  <property name="seekable">1</property>
  <property name="format">3</property>
  <property name="audio_index">1</property>
  <property name="video_index">0</property>
  <property name="vstream">0</property>
  <property name="astream">0</property>
  <property name="kdenlive:id">4</property>
  <property name="kdenlive:clip_type">0</property>
  <property name="kdenlive:file_size">5276714</property>
  <property name="kdenlive:file_hash">603650ff352e5fb6b386c445076076af</property>
  <property name="kdenlive:folderid">-1</property>
  <property name="kdenlive:audio_max1">180</property>
  <property name="meta.media.nb_streams">2</property>
  <property name="meta.media.0.stream.type">video</property>
  <property name="meta.media.0.stream.frame_rate">25</property>
  <property name="meta.media.0.stream.sample_aspect_ratio">0</property>
  <property name="meta.media.0.codec.width">640</property>
  <property name="meta.media.0.codec.height">360</property>
  <property name="meta.media.0.codec.rotate">0</property>
  <property name="meta.media.0.codec.pix_fmt">yuv420p</property>
  <property name="meta.media.0.codec.sample_aspect_ratio">1</property>
  <property name="meta.media.0.codec.colorspace">709</property>
  <property name="meta.media.0.codec.color_trc">1</property>
  <property name="meta.media.0.codec.name">h264</property>
  <property name="meta.media.0.codec.long_name">H.264 / AVC / MPEG-4 AVC / MPEG-4 part 10</property>
  <property name="meta.media.0.codec.bit_rate">96226</property>
  <property name="meta.attr.0.stream.creation_time.markup">2023-11-18T01:57:05.000000Z</property>
  <property name="meta.attr.0.stream.handler_name.markup">ISO Media file produced by Google Inc. Created on: 11/17/2023.</property>
  <property name="meta.attr.0.stream.vendor_id.markup">[0][0][0][0]</property>
  <property name="meta.media.1.stream.type">audio</property>
  <property name="meta.media.1.codec.sample_fmt">fltp</property>
  <property name="meta.media.1.codec.sample_rate">44100</property>
  <property name="meta.media.1.codec.channels">2</property>
  <property name="meta.media.1.codec.name">aac</property>
  <property name="meta.media.1.codec.long_name">AAC (Advanced Audio Coding)</property>
  <property name="meta.media.1.codec.bit_rate">48016</property>
  <property name="meta.attr.1.stream.creation_time.markup">2023-11-18T01:57:05.000000Z</property>
  <property name="meta.attr.1.stream.handler_name.markup">ISO Media file produced by Google Inc. Created on: 11/17/2023.</property>
  <property name="meta.attr.1.stream.vendor_id.markup">[0][0][0][0]</property>
  <property name="meta.attr.major_brand.markup">mp42</property>
  <property name="meta.attr.minor_version.markup">0</property>
  <property name="meta.attr.compatible_brands.markup">isommp42</property>
  <property name="meta.attr.creation_time.markup">2023-11-18T01:57:05.000000Z</property>
  <property name="meta.media.sample_aspect_num">1</property>
  <property name="meta.media.sample_aspect_den">1</property>
  <property name="meta.media.frame_rate_num">25</property>
  <property name="meta.media.frame_rate_den">1</property>
  <property name="meta.media.colorspace">709</property>
  <property name="meta.media.color_trc">1</property>
  <property name="meta.media.has_b_frames">1</property>
  <property name="meta.media.width">640</property>
  <property name="meta.media.height">360</property>
  <property name="meta.media.color_range">mpeg</property>
  <property name="xml">was here</property>
  <property name="mute_on_pause">0</property>
  <property name="meta.media.top_field_first">0</property>
  <property name="meta.media.progressive">1</property>
  <property name="set.test_audio">1</property>
  <property name="set.test_image">0</property>
 </chain>
 <playlist id="playlist4">
  <entry producer="chain1" in="00:00:00.000" out="00:00:00.960">
   <property name="kdenlive:id">4</property>
  </entry>
  <entry producer="chain1" in="00:00:01.000" out="00:00:12.320">
   <property name="kdenlive:id">4</property>
  </entry>
  <entry producer="chain1" in="00:00:12.360" out="00:00:44.880">
   <property name="kdenlive:id">4</property>
  </entry>
  <entry producer="chain1" in="00:00:44.920" out="00:00:50.160">
   <property name="kdenlive:id">4</property>
  </entry>
  <entry producer="chain1" in="00:00:50.200" out="00:00:53.160">
   <property name="kdenlive:id">4</property>
  </entry>
  <entry producer="chain1" in="00:00:53.200" out="00:00:55.320">
   <property name="kdenlive:id">4</property>
  </entry>
  <entry producer="chain1" in="00:00:55.360" out="00:01:00.040">
   <property name="kdenlive:id">4</property>
  </entry>
  <entry producer="chain1" in="00:01:00.080" out="00:01:02.040">
   <property name="kdenlive:id">4</property>
  </entry>
  <entry producer="chain1" in="00:01:02.080" out="00:01:03.640">
   <property name="kdenlive:id">4</property>
  </entry>
  <entry producer="chain1" in="00:01:03.680" out="00:01:05.520">
   <property name="kdenlive:id">4</property>
  </entry>
  <entry producer="chain1" in="00:01:05.560" out="00:01:06.760">
   <property name="kdenlive:id">4</property>
  </entry>
  <entry producer="chain1" in="00:01:06.800" out="00:01:08.680">
   <property name="kdenlive:id">4</property>
  </entry>
  <entry producer="chain1" in="00:01:08.720" out="00:01:13.720">
   <property name="kdenlive:id">4</property>
  </entry>
  <entry producer="chain1" in="00:01:13.760" out="00:01:15.520">
   <property name="kdenlive:id">4</property>
  </entry>
  <entry producer="chain1" in="00:01:15.560" out="00:01:17.240">
   <property name="kdenlive:id">4</property>
  </entry>
  <entry producer="chain1" in="00:01:17.280" out="00:01:19.840">
   <property name="kdenlive:id">4</property>
  </entry>
  <entry producer="chain1" in="00:01:19.880" out="00:01:23.680">
   <property name="kdenlive:id">4</property>
  </entry>
  <entry producer="chain1" in="00:01:23.720" out="00:01:26.600">
   <property name="kdenlive:id">4</property>
  </entry>
  <entry producer="chain1" in="00:01:26.640" out="00:01:29.120">
   <property name="kdenlive:id">4</property>
  </entry>
  <entry producer="chain1" in="00:01:29.160" out="00:01:31.080">
   <property name="kdenlive:id">4</property>
  </entry>
  <entry producer="chain1" in="00:01:31.120" out="00:01:33.600">
   <property name="kdenlive:id">4</property>
  </entry>
  <entry producer="chain1" in="00:01:33.640" out="00:01:37.200">
   <property name="kdenlive:id">4</property>
  </entry>
  <entry producer="chain1" in="00:01:37.240" out="00:01:39.440">
   <property name="kdenlive:id">4</property>
  </entry>
  <entry producer="chain1" in="00:01:39.480" out="00:01:40.120">
   <property name="kdenlive:id">4</property>
  </entry>
  <entry producer="chain1" in="00:01:40.160" out="00:01:41.480">
   <property name="kdenlive:id">4</property>
  </entry>
  <entry producer="chain1" in="00:01:41.520" out="00:01:43.040">
   <property name="kdenlive:id">4</property>
  </entry>
  <entry producer="chain1" in="00:01:43.080" out="00:01:45.120">
   <property name="kdenlive:id">4</property>
  </entry>
  <entry producer="chain1" in="00:01:45.160" out="00:01:46.040">
   <property name="kdenlive:id">4</property>
  </entry>
  <entry producer="chain1" in="00:01:46.080" out="00:01:48.840">
   <property name="kdenlive:id">4</property>
  </entry>
  <entry producer="chain1" in="00:01:48.880" out="00:01:51.320">
   <property name="kdenlive:id">4</property>
  </entry>
  <entry producer="chain1" in="00:01:51.360" out="00:01:55.640">
   <property name="kdenlive:id">4</property>
  </entry>
  <entry producer="chain1" in="00:01:55.680" out="00:02:01.120">
   <property name="kdenlive:id">4</property>
  </entry>
  <entry producer="chain1" in="00:02:01.160" out="00:02:07.600">
   <property name="kdenlive:id">4</property>
  </entry>
  <entry producer="chain1" in="00:02:07.640" out="00:02:10.360">
   <property name="kdenlive:id">4</property>
  </entry>
  <entry producer="chain1" in="00:02:10.400" out="00:02:13.160">
   <property name="kdenlive:id">4</property>
  </entry>
  <entry producer="chain1" in="00:02:13.200" out="00:02:15.800">
   <property name="kdenlive:id">4</property>
  </entry>
  <entry producer="chain1" in="00:02:15.840" out="00:02:18.080">
   <property name="kdenlive:id">4</property>
  </entry>
  <entry producer="chain1" in="00:02:18.120" out="00:02:20.360">
   <property name="kdenlive:id">4</property>
  </entry>
  <entry producer="chain1" in="00:02:20.400" out="00:02:22.520">
   <property name="kdenlive:id">4</property>
  </entry>
  <entry producer="chain1" in="00:02:22.560" out="00:02:26.160">
   <property name="kdenlive:id">4</property>
  </entry>
  <entry producer="chain1" in="00:02:26.200" out="00:02:29.720">
   <property name="kdenlive:id">4</property>
  </entry>
  <entry producer="chain1" in="00:02:29.760" out="00:02:34.720">
   <property name="kdenlive:id">4</property>
  </entry>
  <entry producer="chain1" in="00:02:34.760" out="00:02:41.080">
   <property name="kdenlive:id">4</property>
  </entry>
  <entry producer="chain1" in="00:02:41.120" out="00:02:43.680">
   <property name="kdenlive:id">4</property>
  </entry>
  <entry producer="chain1" in="00:02:43.720" out="00:02:45.160">
   <property name="kdenlive:id">4</property>
  </entry>
  <entry producer="chain1" in="00:02:45.200" out="00:02:47.240">
   <property name="kdenlive:id">4</property>
  </entry>
  <entry producer="chain1" in="00:02:47.280" out="00:02:49.400">
   <property name="kdenlive:id">4</property>
  </entry>
  <entry producer="chain1" in="00:02:49.440" out="00:02:51.960">
   <property name="kdenlive:id">4</property>
  </entry>
  <entry producer="chain1" in="00:02:52.000" out="00:02:54.240">
   <property name="kdenlive:id">4</property>
  </entry>
  <entry producer="chain1" in="00:02:54.280" out="00:02:58.880">
   <property name="kdenlive:id">4</property>
  </entry>
  <entry producer="chain1" in="00:02:58.920" out="00:03:03.640">
   <property name="kdenlive:id">4</property>
  </entry>
  <entry producer="chain1" in="00:03:03.680" out="00:03:07.320">
   <property name="kdenlive:id">4</property>
  </entry>
  <entry producer="chain1" in="00:03:07.360" out="00:03:09.240">
   <property name="kdenlive:id">4</property>
  </entry>
  <entry producer="chain1" in="00:03:09.280" out="00:03:11.120">
   <property name="kdenlive:id">4</property>
  </entry>
  <entry producer="chain1" in="00:03:11.160" out="00:03:14.320">
   <property name="kdenlive:id">4</property>
  </entry>
  <entry producer="chain1" in="00:03:14.360" out="00:03:17.280">
   <property name="kdenlive:id">4</property>
  </entry>
  <entry producer="chain1" in="00:03:17.320" out="00:03:19.920">
   <property name="kdenlive:id">4</property>
  </entry>
  <entry producer="chain1" in="00:03:19.960" out="00:03:27.360">
   <property name="kdenlive:id">4</property>
  </entry>
  <entry producer="chain1" in="00:03:27.400" out="00:03:39.480">
   <property name="kdenlive:id">4</property>
  </entry>
  <entry producer="chain1" in="00:03:39.520" out="00:03:43.480">
   <property name="kdenlive:id">4</property>
  </entry>
  <entry producer="chain1" in="00:03:43.520" out="00:03:49.920">
   <property name="kdenlive:id">4</property>
  </entry>
  <entry producer="chain1" in="00:03:49.960" out="00:03:53.480">
   <property name="kdenlive:id">4</property>
  </entry>
  <entry producer="chain1" in="00:03:53.520" out="00:03:55.600">
   <property name="kdenlive:id">4</property>
  </entry>
  <entry producer="chain1" in="00:03:55.640" out="00:03:59.200">
   <property name="kdenlive:id">4</property>
  </entry>
  <entry producer="chain1" in="00:03:59.240" out="00:04:01.960">
   <property name="kdenlive:id">4</property>
  </entry>
  <entry producer="chain1" in="00:04:02.000" out="00:04:08.280">
   <property name="kdenlive:id">4</property>
  </entry>
  <entry producer="chain1" in="00:04:08.320" out="00:04:12.320">
   <property name="kdenlive:id">4</property>
  </entry>
  <entry producer="chain1" in="00:04:12.360" out="00:04:34.680">
   <property name="kdenlive:id">4</property>
  </entry>
  <entry producer="chain1" in="00:04:34.720" out="00:04:44.320">
   <property name="kdenlive:id">4</property>
  </entry>
  <entry producer="chain1" in="00:04:44.360" out="00:04:46.800">
   <property name="kdenlive:id">4</property>
  </entry>
 </playlist>
 <playlist id="playlist5"/>
 <tractor id="tractor2" in="00:00:00.000" out="00:04:46.800">
  <property name="kdenlive:trackheight">67</property>
  <property name="kdenlive:timeline_active">1</property>
  <property name="kdenlive:collapsed">0</property>
  <property name="kdenlive:thumbs_format"/>
  <property name="kdenlive:audio_rec"/>
  <track hide="audio" producer="playlist4"/>
  <track hide="audio" producer="playlist5"/>
 </tractor>
 <playlist id="playlist6"/>
 <playlist id="playlist7"/>
 <tractor id="tractor3" in="00:00:00.000">
  <property name="kdenlive:trackheight">67</property>
  <property name="kdenlive:timeline_active">1</property>
  <property name="kdenlive:collapsed">0</property>
  <property name="kdenlive:thumbs_format"/>
  <property name="kdenlive:audio_rec"/>
  <track hide="audio" producer="playlist6"/>
  <track hide="audio" producer="playlist7"/>
 </tractor>
 <tractor id="{bee62960-a878-41c4-aea5-6fb5d76dc803}" in="00:00:00.000" out="00:24:46.840">
  <property name="kdenlive:uuid">{bee62960-a878-41c4-aea5-6fb5d76dc803}</property>
  <property name="kdenlive:clipname">Sequence 1</property>
  <property name="kdenlive:sequenceproperties.hasAudio">1</property>
  <property name="kdenlive:sequenceproperties.hasVideo">1</property>
  <property name="kdenlive:sequenceproperties.activeTrack">2</property>
  <property name="kdenlive:sequenceproperties.tracksCount">4</property>
  <property name="kdenlive:sequenceproperties.documentuuid">{bee62960-a878-41c4-aea5-6fb5d76dc803}</property>
  <property name="kdenlive:duration">00:04:46:21</property>
  <property name="kdenlive:maxduration">7171</property>
  <property name="kdenlive:producer_type">17</property>
  <property name="kdenlive:id">3</property>
  <property name="kdenlive:clip_type">0</property>
  <property name="kdenlive:file_hash">97f1e9f057e046167767546fc708af9a</property>
  <property name="kdenlive:folderid">2</property>
  <property name="kdenlive:sequenceproperties.audioTarget">1</property>
  <property name="kdenlive:sequenceproperties.tracks">4</property>
  <property name="kdenlive:sequenceproperties.verticalzoom">1</property>
  <property name="kdenlive:sequenceproperties.videoTarget">2</property>
  <property name="kdenlive:sequenceproperties.zonein">0</property>
  <property name="kdenlive:sequenceproperties.zoneout">7171</property>
  <property name="kdenlive:sequenceproperties.zoom">1</property>
  <property name="kdenlive:sequenceproperties.groups">[
    {
        "children": [
            {
                "data": "2:4999",
                "leaf": "clip",
                "type": "Leaf"
            },
            {
                "data": "1:4999",
                "leaf": "clip",
                "type": "Leaf"
            }
        ],
        "type": "AVSplit"
    },
    {
        "children": [
            {
                "data": "1:4933",
                "leaf": "clip",
                "type": "Leaf"
            },
            {
                "data": "2:4933",
                "leaf": "clip",
                "type": "Leaf"
            }
        ],
        "type": "AVSplit"
    },
    {
        "children": [
            {
                "data": "2:4859",
                "leaf": "clip",
                "type": "Leaf"
            },
            {
                "data": "1:4859",
                "leaf": "clip",
                "type": "Leaf"
            }
        ],
        "type": "AVSplit"
    },
    {
        "children": [
            {
                "data": "1:4779",
                "leaf": "clip",
                "type": "Leaf"
            },
            {
                "data": "2:4779",
                "leaf": "clip",
                "type": "Leaf"
            }
        ],
        "type": "AVSplit"
    },
    {
        "children": [
            {
                "data": "2:4732",
                "leaf": "clip",
                "type": "Leaf"
            },
            {
                "data": "1:4732",
                "leaf": "clip",
                "type": "Leaf"
            }
        ],
        "type": "AVSplit"
    },
    {
        "children": [
            {
                "data": "1:4684",
                "leaf": "clip",
                "type": "Leaf"
            },
            {
                "data": "2:4684",
                "leaf": "clip",
                "type": "Leaf"
            }
        ],
        "type": "AVSplit"
    },
    {
        "children": [
            {
                "data": "2:4592",
                "leaf": "clip",
                "type": "Leaf"
            },
            {
                "data": "1:4592",
                "leaf": "clip",
                "type": "Leaf"
            }
        ],
        "type": "AVSplit"
    },
    {
        "children": [
            {
                "data": "1:4473",
                "leaf": "clip",
                "type": "Leaf"
            },
            {
                "data": "2:4473",
                "leaf": "clip",
                "type": "Leaf"
            }
        ],
        "type": "AVSplit"
    },
    {
        "children": [
            {
                "data": "2:4357",
                "leaf": "clip",
                "type": "Leaf"
            },
            {
                "data": "1:4357",
                "leaf": "clip",
                "type": "Leaf"
            }
        ],
        "type": "AVSplit"
    },
    {
        "children": [
            {
                "data": "1:4300",
                "leaf": "clip",
                "type": "Leaf"
            },
            {
                "data": "2:4300",
                "leaf": "clip",
                "type": "Leaf"
            }
        ],
        "type": "AVSplit"
    },
    {
        "children": [
            {
                "data": "2:4236",
                "leaf": "clip",
                "type": "Leaf"
            },
            {
                "data": "1:4236",
                "leaf": "clip",
                "type": "Leaf"
            }
        ],
        "type": "AVSplit"
    },
    {
        "children": [
            {
                "data": "1:7109",
                "leaf": "clip",
                "type": "Leaf"
            },
            {
                "data": "2:7109",
                "leaf": "clip",
                "type": "Leaf"
            }
        ],
        "type": "AVSplit"
    },
    {
        "children": [
            {
                "data": "1:5185",
                "leaf": "clip",
                "type": "Leaf"
            },
            {
                "data": "2:5185",
                "leaf": "clip",
                "type": "Leaf"
            }
        ],
        "type": "AVSplit"
    },
    {
        "children": [
            {
                "data": "1:1718",
                "leaf": "clip",
                "type": "Leaf"
            },
            {
                "data": "2:1718",
                "leaf": "clip",
                "type": "Leaf"
            }
        ],
        "type": "AVSplit"
    },
    {
        "children": [
            {
                "data": "2:1844",
                "leaf": "clip",
                "type": "Leaf"
            },
            {
                "data": "1:1844",
                "leaf": "clip",
                "type": "Leaf"
            }
        ],
        "type": "AVSplit"
    },
    {
        "children": [
            {
                "data": "1:1889",
                "leaf": "clip",
                "type": "Leaf"
            },
            {
                "data": "2:1889",
                "leaf": "clip",
                "type": "Leaf"
            }
        ],
        "type": "AVSplit"
    },
    {
        "children": [
            {
                "data": "2:1932",
                "leaf": "clip",
                "type": "Leaf"
            },
            {
                "data": "1:1932",
                "leaf": "clip",
                "type": "Leaf"
            }
        ],
        "type": "AVSplit"
    },
    {
        "children": [
            {
                "data": "1:1997",
                "leaf": "clip",
                "type": "Leaf"
            },
            {
                "data": "2:1997",
                "leaf": "clip",
                "type": "Leaf"
            }
        ],
        "type": "AVSplit"
    },
    {
        "children": [
            {
                "data": "2:2093",
                "leaf": "clip",
                "type": "Leaf"
            },
            {
                "data": "1:2093",
                "leaf": "clip",
                "type": "Leaf"
            }
        ],
        "type": "AVSplit"
    },
    {
        "children": [
            {
                "data": "1:2166",
                "leaf": "clip",
                "type": "Leaf"
            },
            {
                "data": "2:2166",
                "leaf": "clip",
                "type": "Leaf"
            }
        ],
        "type": "AVSplit"
    },
    {
        "children": [
            {
                "data": "2:2229",
                "leaf": "clip",
                "type": "Leaf"
            },
            {
                "data": "1:2229",
                "leaf": "clip",
                "type": "Leaf"
            }
        ],
        "type": "AVSplit"
    },
    {
        "children": [
            {
                "data": "1:2278",
                "leaf": "clip",
                "type": "Leaf"
            },
            {
                "data": "2:2278",
                "leaf": "clip",
                "type": "Leaf"
            }
        ],
        "type": "AVSplit"
    },
    {
        "children": [
            {
                "data": "2:2341",
                "leaf": "clip",
                "type": "Leaf"
            },
            {
                "data": "1:2341",
                "leaf": "clip",
                "type": "Leaf"
            }
        ],
        "type": "AVSplit"
    },
    {
        "children": [
            {
                "data": "1:2431",
                "leaf": "clip",
                "type": "Leaf"
            },
            {
                "data": "2:2431",
                "leaf": "clip",
                "type": "Leaf"
            }
        ],
        "type": "AVSplit"
    },
    {
        "children": [
            {
                "data": "2:2487",
                "leaf": "clip",
                "type": "Leaf"
            },
            {
                "data": "1:2487",
                "leaf": "clip",
                "type": "Leaf"
            }
        ],
        "type": "AVSplit"
    },
    {
        "children": [
            {
                "data": "1:2504",
                "leaf": "clip",
                "type": "Leaf"
            },
            {
                "data": "2:2504",
                "leaf": "clip",
                "type": "Leaf"
            }
        ],
        "type": "AVSplit"
    },
    {
        "children": [
            {
                "data": "2:2538",
                "leaf": "clip",
                "type": "Leaf"
            },
            {
                "data": "1:2538",
                "leaf": "clip",
                "type": "Leaf"
            }
        ],
        "type": "AVSplit"
    },
    {
        "children": [
            {
                "data": "1:6868",
                "leaf": "clip",
                "type": "Leaf"
            },
            {
                "data": "2:6868",
                "leaf": "clip",
                "type": "Leaf"
            }
        ],
        "type": "AVSplit"
    },
    {
        "children": [
            {
                "data": "1:1639",
                "leaf": "clip",
                "type": "Leaf"
            },
            {
                "data": "2:1639",
                "leaf": "clip",
                "type": "Leaf"
            }
        ],
        "type": "AVSplit"
    },
    {
        "children": [
            {
                "data": "2:6309",
                "leaf": "clip",
                "type": "Leaf"
            },
            {
                "data": "1:6309",
                "leaf": "clip",
                "type": "Leaf"
            }
        ],
        "type": "AVSplit"
    },
    {
        "children": [
            {
                "data": "2:1592",
                "leaf": "clip",
                "type": "Leaf"
            },
            {
                "data": "1:1592",
                "leaf": "clip",
                "type": "Leaf"
            }
        ],
        "type": "AVSplit"
    },
    {
        "children": [
            {
                "data": "1:6208",
                "leaf": "clip",
                "type": "Leaf"
            },
            {
                "data": "2:6208",
                "leaf": "clip",
                "type": "Leaf"
            }
        ],
        "type": "AVSplit"
    },
    {
        "children": [
            {
                "data": "1:1552",
                "leaf": "clip",
                "type": "Leaf"
            },
            {
                "data": "2:1552",
                "leaf": "clip",
                "type": "Leaf"
            }
        ],
        "type": "AVSplit"
    },
    {
        "children": [
            {
                "data": "2:6050",
                "leaf": "clip",
                "type": "Leaf"
            },
            {
                "data": "1:6050",
                "leaf": "clip",
                "type": "Leaf"
            }
        ],
        "type": "AVSplit"
    },
    {
        "children": [
            {
                "data": "2:1502",
                "leaf": "clip",
                "type": "Leaf"
            },
            {
                "data": "1:1502",
                "leaf": "clip",
                "type": "Leaf"
            }
        ],
        "type": "AVSplit"
    },
    {
        "children": [
            {
                "data": "2:2629",
                "leaf": "clip",
                "type": "Leaf"
            },
            {
                "data": "1:2629",
                "leaf": "clip",
                "type": "Leaf"
            }
        ],
        "type": "AVSplit"
    },
    {
        "children": [
            {
                "data": "1:5981",
                "leaf": "clip",
                "type": "Leaf"
            },
            {
                "data": "2:5981",
                "leaf": "clip",
                "type": "Leaf"
            }
        ],
        "type": "AVSplit"
    },
    {
        "children": [
            {
                "data": "1:1384",
                "leaf": "clip",
                "type": "Leaf"
            },
            {
                "data": "2:1384",
                "leaf": "clip",
                "type": "Leaf"
            }
        ],
        "type": "AVSplit"
    },
    {
        "children": [
            {
                "data": "1:2577",
                "leaf": "clip",
                "type": "Leaf"
            },
            {
                "data": "2:2577",
                "leaf": "clip",
                "type": "Leaf"
            }
        ],
        "type": "AVSplit"
    },
    {
        "children": [
            {
                "data": "2:5891",
                "leaf": "clip",
                "type": "Leaf"
            },
            {
                "data": "1:5891",
                "leaf": "clip",
                "type": "Leaf"
            }
        ],
        "type": "AVSplit"
    },
    {
        "children": [
            {
                "data": "2:1330",
                "leaf": "clip",
                "type": "Leaf"
            },
            {
                "data": "1:1330",
                "leaf": "clip",
                "type": "Leaf"
            }
        ],
        "type": "AVSplit"
    },
    {
        "children": [
            {
                "data": "1:5838",
                "leaf": "clip",
                "type": "Leaf"
            },
            {
                "data": "2:5838",
                "leaf": "clip",
                "type": "Leaf"
            }
        ],
        "type": "AVSplit"
    },
    {
        "children": [
            {
                "data": "1:1255",
                "leaf": "clip",
                "type": "Leaf"
            },
            {
                "data": "2:1255",
                "leaf": "clip",
                "type": "Leaf"
            }
        ],
        "type": "AVSplit"
    },
    {
        "children": [
            {
                "data": "2:5749",
                "leaf": "clip",
                "type": "Leaf"
            },
            {
                "data": "1:5749",
                "leaf": "clip",
                "type": "Leaf"
            }
        ],
        "type": "AVSplit"
    },
    {
        "children": [
            {
                "data": "2:1123",
                "leaf": "clip",
                "type": "Leaf"
            },
            {
                "data": "1:1123",
                "leaf": "clip",
                "type": "Leaf"
            }
        ],
        "type": "AVSplit"
    },
    {
        "children": [
            {
                "data": "1:5588",
                "leaf": "clip",
                "type": "Leaf"
            },
            {
                "data": "2:5588",
                "leaf": "clip",
                "type": "Leaf"
            }
        ],
        "type": "AVSplit"
    },
    {
        "children": [
            {
                "data": "1:309",
                "leaf": "clip",
                "type": "Leaf"
            },
            {
                "data": "2:309",
                "leaf": "clip",
                "type": "Leaf"
            }
        ],
        "type": "AVSplit"
    },
    {
        "children": [
            {
                "data": "2:5488",
                "leaf": "clip",
                "type": "Leaf"
            },
            {
                "data": "1:5488",
                "leaf": "clip",
                "type": "Leaf"
            }
        ],
        "type": "AVSplit"
    },
    {
        "children": [
            {
                "data": "1:0",
                "leaf": "clip",
                "type": "Leaf"
            },
            {
                "data": "2:0",
                "leaf": "clip",
                "type": "Leaf"
            }
        ],
        "type": "AVSplit"
    },
    {
        "children": [
            {
                "data": "2:25",
                "leaf": "clip",
                "type": "Leaf"
            },
            {
                "data": "1:25",
                "leaf": "clip",
                "type": "Leaf"
            }
        ],
        "type": "AVSplit"
    },
    {
        "children": [
            {
                "data": "2:1670",
                "leaf": "clip",
                "type": "Leaf"
            },
            {
                "data": "1:1670",
                "leaf": "clip",
                "type": "Leaf"
            }
        ],
        "type": "AVSplit"
    },
    {
        "children": [
            {
                "data": "1:2652",
                "leaf": "clip",
                "type": "Leaf"
            },
            {
                "data": "2:2652",
                "leaf": "clip",
                "type": "Leaf"
            }
        ],
        "type": "AVSplit"
    },
    {
        "children": [
            {
                "data": "2:2722",
                "leaf": "clip",
                "type": "Leaf"
            },
            {
                "data": "1:2722",
                "leaf": "clip",
                "type": "Leaf"
            }
        ],
        "type": "AVSplit"
    },
    {
        "children": [
            {
                "data": "1:2784",
                "leaf": "clip",
                "type": "Leaf"
            },
            {
                "data": "2:2784",
                "leaf": "clip",
                "type": "Leaf"
            }
        ],
        "type": "AVSplit"
    },
    {
        "children": [
            {
                "data": "2:2892",
                "leaf": "clip",
                "type": "Leaf"
            },
            {
                "data": "1:2892",
                "leaf": "clip",
                "type": "Leaf"
            }
        ],
        "type": "AVSplit"
    },
    {
        "children": [
            {
                "data": "1:3029",
                "leaf": "clip",
                "type": "Leaf"
            },
            {
                "data": "2:3029",
                "leaf": "clip",
                "type": "Leaf"
            }
        ],
        "type": "AVSplit"
    },
    {
        "children": [
            {
                "data": "2:3191",
                "leaf": "clip",
                "type": "Leaf"
            },
            {
                "data": "1:3191",
                "leaf": "clip",
                "type": "Leaf"
            }
        ],
        "type": "AVSplit"
    },
    {
        "children": [
            {
                "data": "1:3260",
                "leaf": "clip",
                "type": "Leaf"
            },
            {
                "data": "2:3260",
                "leaf": "clip",
                "type": "Leaf"
            }
        ],
        "type": "AVSplit"
    },
    {
        "children": [
            {
                "data": "2:3330",
                "leaf": "clip",
                "type": "Leaf"
            },
            {
                "data": "1:3330",
                "leaf": "clip",
                "type": "Leaf"
            }
        ],
        "type": "AVSplit"
    },
    {
        "children": [
            {
                "data": "1:3396",
                "leaf": "clip",
                "type": "Leaf"
            },
            {
                "data": "2:3396",
                "leaf": "clip",
                "type": "Leaf"
            }
        ],
        "type": "AVSplit"
    },
    {
        "children": [
            {
                "data": "2:3453",
                "leaf": "clip",
                "type": "Leaf"
            },
            {
                "data": "1:3453",
                "leaf": "clip",
                "type": "Leaf"
            }
        ],
        "type": "AVSplit"
    },
    {
        "children": [
            {
                "data": "1:3510",
                "leaf": "clip",
                "type": "Leaf"
            },
            {
                "data": "2:3510",
                "leaf": "clip",
                "type": "Leaf"
            }
        ],
        "type": "AVSplit"
    },
    {
        "children": [
            {
                "data": "2:3564",
                "leaf": "clip",
                "type": "Leaf"
            },
            {
                "data": "1:3564",
                "leaf": "clip",
                "type": "Leaf"
            }
        ],
        "type": "AVSplit"
    },
    {
        "children": [
            {
                "data": "1:3655",
                "leaf": "clip",
                "type": "Leaf"
            },
            {
                "data": "2:3655",
                "leaf": "clip",
                "type": "Leaf"
            }
        ],
        "type": "AVSplit"
    },
    {
        "children": [
            {
                "data": "2:3744",
                "leaf": "clip",
                "type": "Leaf"
            },
            {
                "data": "1:3744",
                "leaf": "clip",
                "type": "Leaf"
            }
        ],
        "type": "AVSplit"
    },
    {
        "children": [
            {
                "data": "1:3869",
                "leaf": "clip",
                "type": "Leaf"
            },
            {
                "data": "2:3869",
                "leaf": "clip",
                "type": "Leaf"
            }
        ],
        "type": "AVSplit"
    },
    {
        "children": [
            {
                "data": "2:4028",
                "leaf": "clip",
                "type": "Leaf"
            },
            {
                "data": "1:4028",
                "leaf": "clip",
                "type": "Leaf"
            }
        ],
        "type": "AVSplit"
    },
    {
        "children": [
            {
                "data": "1:4093",
                "leaf": "clip",
                "type": "Leaf"
            },
            {
                "data": "2:4093",
                "leaf": "clip",
                "type": "Leaf"
            }
        ],
        "type": "AVSplit"
    },
    {
        "children": [
            {
                "data": "2:4130",
                "leaf": "clip",
                "type": "Leaf"
            },
            {
                "data": "1:4130",
                "leaf": "clip",
                "type": "Leaf"
            }
        ],
        "type": "AVSplit"
    },
    {
        "children": [
            {
                "data": "1:4182",
                "leaf": "clip",
                "type": "Leaf"
            },
            {
                "data": "2:4182",
                "leaf": "clip",
                "type": "Leaf"
            }
        ],
        "type": "AVSplit"
    }
]
</property>
  <property name="kdenlive:sequenceproperties.guides">[
]
</property>
  <property name="kdenlive:sequenceproperties.position">7163</property>
  <property name="kdenlive:sequenceproperties.scrollPos">149302</property>
  <property name="kdenlive:sequenceproperties.disablepreview">0</property>
  <track producer="producer0"/>
  <track producer="tractor0"/>
  <track producer="tractor1"/>
  <track producer="tractor2"/>
  <track producer="tractor3"/>
  <transition id="transition0">
   <property name="a_track">0</property>
   <property name="b_track">1</property>
   <property name="mlt_service">mix</property>
   <property name="kdenlive_id">mix</property>
   <property name="internal_added">237</property>
   <property name="always_active">1</property>
   <property name="accepts_blanks">1</property>
   <property name="sum">1</property>
  </transition>
  <transition id="transition1">
   <property name="a_track">0</property>
   <property name="b_track">2</property>
   <property name="mlt_service">mix</property>
   <property name="kdenlive_id">mix</property>
   <property name="internal_added">237</property>
   <property name="always_active">1</property>
   <property name="accepts_blanks">1</property>
   <property name="sum">1</property>
  </transition>
  <transition id="transition2">
   <property name="a_track">0</property>
   <property name="b_track">3</property>
   <property name="compositing">0</property>
   <property name="distort">0</property>
   <property name="rotate_center">0</property>
   <property name="mlt_service">qtblend</property>
   <property name="always_active">1</property>
   <property name="internal_added">237</property>
  </transition>
  <transition id="transition3">
   <property name="a_track">0</property>
   <property name="b_track">4</property>
   <property name="compositing">0</property>
   <property name="distort">0</property>
   <property name="rotate_center">0</property>
   <property name="mlt_service">qtblend</property>
   <property name="always_active">1</property>
   <property name="internal_added">237</property>
  </transition>
  <filter id="filter6">
   <property name="window">75</property>
   <property name="max_gain">20dB</property>
   <property name="mlt_service">volume</property>
   <property name="internal_added">237</property>
   <property name="disable">1</property>
  </filter>
  <filter id="filter7">
   <property name="channel">-1</property>
   <property name="mlt_service">panner</property>
   <property name="internal_added">237</property>
   <property name="start">0.5</property>
   <property name="disable">1</property>
  </filter>
 </tractor>
 <chain id="chain2" out="00:04:46.800">
  <property name="length">7171</property>
  <property name="eof">pause</property>
  <property name="resource">/home/fedora/Videos/Clips/Lana Del Rey - Born To Die.mp4</property>
  <property name="mlt_service">avformat</property>
  <property name="meta.media.nb_streams">2</property>
  <property name="meta.media.0.stream.type">video</property>
  <property name="meta.media.0.stream.frame_rate">25</property>
  <property name="meta.media.0.stream.sample_aspect_ratio">0</property>
  <property name="meta.media.0.codec.width">640</property>
  <property name="meta.media.0.codec.height">360</property>
  <property name="meta.media.0.codec.rotate">0</property>
  <property name="meta.media.0.codec.pix_fmt">yuv420p</property>
  <property name="meta.media.0.codec.sample_aspect_ratio">1</property>
  <property name="meta.media.0.codec.colorspace">709</property>
  <property name="meta.media.0.codec.color_trc">1</property>
  <property name="meta.media.0.codec.name">h264</property>
  <property name="meta.media.0.codec.long_name">H.264 / AVC / MPEG-4 AVC / MPEG-4 part 10</property>
  <property name="meta.media.0.codec.bit_rate">96226</property>
  <property name="meta.attr.0.stream.creation_time.markup">2023-11-18T01:57:05.000000Z</property>
  <property name="meta.attr.0.stream.handler_name.markup">ISO Media file produced by Google Inc. Created on: 11/17/2023.</property>
  <property name="meta.attr.0.stream.vendor_id.markup">[0][0][0][0]</property>
  <property name="meta.media.1.stream.type">audio</property>
  <property name="meta.media.1.codec.sample_fmt">fltp</property>
  <property name="meta.media.1.codec.sample_rate">44100</property>
  <property name="meta.media.1.codec.channels">2</property>
  <property name="meta.media.1.codec.name">aac</property>
  <property name="meta.media.1.codec.long_name">AAC (Advanced Audio Coding)</property>
  <property name="meta.media.1.codec.bit_rate">48016</property>
  <property name="meta.attr.1.stream.creation_time.markup">2023-11-18T01:57:05.000000Z</property>
  <property name="meta.attr.1.stream.handler_name.markup">ISO Media file produced by Google Inc. Created on: 11/17/2023.</property>
  <property name="meta.attr.1.stream.vendor_id.markup">[0][0][0][0]</property>
  <property name="meta.attr.major_brand.markup">mp42</property>
  <property name="meta.attr.minor_version.markup">0</property>
  <property name="meta.attr.compatible_brands.markup">isommp42</property>
  <property name="meta.attr.creation_time.markup">2023-11-18T01:57:05.000000Z</property>
  <property name="seekable">1</property>
  <property name="meta.media.sample_aspect_num">1</property>
  <property name="meta.media.sample_aspect_den">1</property>
  <property name="format">3</property>
  <property name="audio_index">1</property>
  <property name="video_index">0</property>
  <property name="vstream">0</property>
  <property name="meta.media.frame_rate_num">25</property>
  <property name="meta.media.frame_rate_den">1</property>
  <property name="meta.media.colorspace">709</property>
  <property name="meta.media.color_trc">1</property>
  <property name="meta.media.has_b_frames">1</property>
  <property name="meta.media.width">640</property>
  <property name="meta.media.height">360</property>
  <property name="meta.media.color_range">mpeg</property>
  <property name="astream">0</property>
  <property name="meta.media.top_field_first">0</property>
  <property name="meta.media.progressive">1</property>
  <property name="kdenlive:id">4</property>
  <property name="kdenlive:clip_type">0</property>
  <property name="kdenlive:file_size">5276714</property>
  <property name="kdenlive:file_hash">603650ff352e5fb6b386c445076076af</property>
  <property name="kdenlive:folderid">-1</property>
  <property name="kdenlive:audio_max1">180</property>
 </chain>
 <playlist id="main_bin">
  <property name="kdenlive:folder.-1.2">Sequences</property>
  <property name="kdenlive:sequenceFolder">2</property>
  <property name="kdenlive:docproperties.audioChannels">2</property>
  <property name="kdenlive:docproperties.browserurl">/home/fedora/Videos/</property>
  <property name="kdenlive:docproperties.compositing">1</property>
  <property name="kdenlive:docproperties.documentid">1701707915538</property>
  <property name="kdenlive:docproperties.enableTimelineZone">0</property>
  <property name="kdenlive:docproperties.enableexternalproxy">0</property>
  <property name="kdenlive:docproperties.enableproxy">0</property>
  <property name="kdenlive:docproperties.externalproxyparams"/>
  <property name="kdenlive:docproperties.generateimageproxy">0</property>
  <property name="kdenlive:docproperties.generateproxy">0</property>
  <property name="kdenlive:docproperties.guidesCategories">[
    {
        "color": "#9b59b6",
        "comment": "Category 1",
        "index": 0
    },
    {
        "color": "#3daee9",
        "comment": "Category 2",
        "index": 1
    },
    {
        "color": "#1abc9c",
        "comment": "Category 3",
        "index": 2
    },
    {
        "color": "#1cdc9a",
        "comment": "Category 4",
        "index": 3
    },
    {
        "color": "#c9ce3b",
        "comment": "Category 5",
        "index": 4
    },
    {
        "color": "#fdbc4b",
        "comment": "Category 6",
        "index": 5
    },
    {
        "color": "#f39c1f",
        "comment": "Category 7",
        "index": 6
    },
    {
        "color": "#f47750",
        "comment": "Category 8",
        "index": 7
    },
    {
        "color": "#da4453",
        "comment": "Category 9",
        "index": 8
    }
]
</property>
  <property name="kdenlive:docproperties.kdenliveversion">23.08.3</property>
  <property name="kdenlive:docproperties.previewextension"/>
  <property name="kdenlive:docproperties.previewparameters"/>
  <property name="kdenlive:docproperties.profile">/home/fedora/.local/share/kdenlive/profiles/customprofile3</property>
  <property name="kdenlive:docproperties.proxyextension"/>
  <property name="kdenlive:docproperties.proxyimageminsize">2000</property>
  <property name="kdenlive:docproperties.proxyimagesize">800</property>
  <property name="kdenlive:docproperties.proxyminsize">1000</property>
  <property name="kdenlive:docproperties.proxyparams"/>
  <property name="kdenlive:docproperties.proxyresize">640</property>
  <property name="kdenlive:docproperties.seekOffset">30000</property>
  <property name="kdenlive:docproperties.uuid">{bee62960-a878-41c4-aea5-6fb5d76dc803}</property>
  <property name="kdenlive:docproperties.version">1.1</property>
  <property name="kdenlive:expandedFolders"/>
  <property name="kdenlive:binZoom">4</property>
  <property name="kdenlive:documentnotes"/>
  <property name="kdenlive:docproperties.opensequences">{bee62960-a878-41c4-aea5-6fb5d76dc803}</property>
  <property name="kdenlive:docproperties.activetimeline">{bee62960-a878-41c4-aea5-6fb5d76dc803}</property>
  <property name="xml_retain">1</property>
  <entry producer="{bee62960-a878-41c4-aea5-6fb5d76dc803}" in="00:00:00.000" out="00:00:00.000"/>
  <entry producer="chain2" in="00:00:00.000" out="00:04:46.800"/>
 </playlist>
 <tractor id="tractor4" in="00:00:00.000" out="00:04:46.840">
  <property name="kdenlive:projectTractor">1</property>
  <track producer="{bee62960-a878-41c4-aea5-6fb5d76dc803}" in="00:00:00.000" out="00:04:46.840"/>
 </tractor>
</mlt>
